<?xml version="1.0" encoding="UTF-8" standalone="no"?>
<svg width="230px" height="230px" viewBox="0 0 230 230" version="1.1" xmlns="http://www.w3.org/2000/svg" xmlns:xlink="http://www.w3.org/1999/xlink" xmlns:sketch="http://www.bohemiancoding.com/sketch/ns">
    <!-- Generator: Sketch 3.4.2 (15855) - http://www.bohemiancoding.com/sketch -->
    <title>reaction-logo-inverse</title>
    <desc>Created with Sketch.</desc>
    <defs>
        <rect id="path-1" x="0" y="0" width="230" height="230"></rect>
    </defs>
    <g id="Page-1" stroke="none" stroke-width="1" fill="none" fill-rule="evenodd" sketch:type="MSPage">
        <g id="Artboard-1" sketch:type="MSArtboardGroup" transform="translate(-109.000000, -72.000000)">
            <g id="reaction-logo-inverse" sketch:type="MSLayerGroup" transform="translate(109.000000, 72.000000)">
                <mask id="mask-2" sketch:name="Mask" fill="white">
                    <use xlink:href="#path-1"></use>
                </mask>
                <use id="Mask" sketch:type="MSShapeGroup" xlink:href="#path-1"></use>
                <g id="reaction-logo" mask="url(#mask-2)" fill="#FFFFFF" sketch:type="MSShapeGroup">
                    <path d="M43.596,151.198 C45.183,151.087 46.717,151.408 47.862,152.093 L63.337,161.371 C65.02,162.379 67.694,162.191 69.308,160.95 L117.906,123.581 C119.023,122.722 120.568,122.179 122.181,122.084 C123.796,121.986 125.346,122.34 126.476,123.062 L138.246,130.587 C139.849,131.615 142.501,131.426 144.036,130.176 L229.66,60.515 L229.66,50.774 L143.694,120.71 C142.593,121.606 141.039,122.178 139.389,122.297 C137.742,122.415 136.155,122.063 135.004,121.326 L123.1,113.716 C121.481,112.679 118.818,112.84 117.218,114.071 L68.744,151.345 C67.647,152.19 66.143,152.726 64.557,152.835 C62.973,152.949 61.44,152.628 60.3,151.942 L44.837,142.67 C43.156,141.663 40.483,141.855 38.876,143.097 L2.409,171.29 C1.73,171.816 0.908,172.194 0.035,172.449 L0.035,183.138 L39.405,152.7 C40.5,151.852 42.014,151.313 43.596,151.198" id="Fill-1"></path>
                    <path d="M41.473,131.026 C43.059,130.913 44.594,131.236 45.739,131.922 L61.214,141.198 C62.897,142.206 65.571,142.019 67.185,140.778 L115.782,103.407 C116.9,102.549 118.446,102.008 120.057,101.911 C121.673,101.814 123.223,102.168 124.353,102.889 L136.123,110.415 C137.726,111.441 140.377,111.252 141.913,110.004 L228.576,39.499 C228.903,39.232 229.273,39.008 229.66,38.806 L229.66,28.874 L141.571,100.537 C140.47,101.435 138.916,102.006 137.266,102.124 C135.619,102.241 134.032,101.891 132.881,101.152 L120.977,93.545 C119.358,92.507 116.695,92.668 115.095,93.9 L66.621,131.171 C65.524,132.016 64.02,132.553 62.434,132.663 C60.85,132.774 59.317,132.454 58.176,131.768 L42.714,122.498 C41.033,121.491 38.36,121.683 36.753,122.927 L0.286,151.117 C0.208,151.177 0.117,151.223 0.035,151.28 L0.035,161.323 L37.282,132.528 C38.377,131.682 39.891,131.139 41.473,131.026" id="Fill-2"></path>
                    <path d="M35.159,112.354 C36.254,111.508 37.768,110.966 39.35,110.855 C40.936,110.74 42.471,111.064 43.616,111.748 L59.091,121.028 C60.774,122.034 63.448,121.846 65.061,120.604 L113.66,83.236 C114.777,82.377 116.322,81.835 117.934,81.739 C119.55,81.642 121.099,81.992 122.23,82.718 L134,90.243 C135.603,91.269 138.255,91.081 139.79,89.832 L226.453,19.326 C227.333,18.61 228.465,18.136 229.66,17.898 L229.66,0.337 L0.035,0.337 L0.035,139.509 L35.159,112.354" id="Fill-3"></path>
                    <path d="M145.817,140.882 C144.716,141.778 143.162,142.351 141.512,142.47 C139.865,142.588 138.278,142.235 137.127,141.498 L125.223,133.889 C123.604,132.853 120.941,133.014 119.341,134.244 L70.867,171.517 C69.77,172.36 68.266,172.898 66.68,173.008 C65.096,173.12 63.563,172.798 62.423,172.115 L46.96,162.843 C45.279,161.837 42.606,162.029 40.999,163.271 L4.532,191.464 C3.468,192.288 2.069,192.785 0.639,192.936 C0.438,192.957 0.237,192.95 0.035,192.958 L0.035,229.962 L229.66,229.962 L229.66,72.673 L145.817,140.882" id="Fill-4"></path>
                </g>
            </g>
        </g>
    </g>
</svg>