<?xml version="1.0" encoding="utf-8"?>
<!-- Generator: Adobe Illustrator 22.1.0, SVG Export Plug-In . SVG Version: 6.00 Build 0)  -->
<svg version="1.1" id="Layer_1" xmlns="http://www.w3.org/2000/svg" xmlns:xlink="http://www.w3.org/1999/xlink" x="0px" y="0px"
	 viewBox="0 0 315 315" style="enable-background:new 0 0 315 315;" xml:space="preserve">
<style type="text/css">
	.st0{fill:#FFFFFF;stroke:#1C97D4;stroke-width:9;stroke-miterlimit:10;}
	.st1{clip-path:url(#SVGID_2_);}
	.st2{fill:#1C97D4;}
</style>
<g>
	<circle class="st0" cx="157.5" cy="156.8" r="147"/>
	<g>
		<defs>
			<circle id="SVGID_1_" cx="157.5" cy="157.8" r="147"/>
		</defs>
		<clipPath id="SVGID_2_">
			<use xlink:href="#SVGID_1_"  style="overflow:visible;"/>
		</clipPath>
		<g id="XMLID_1_" class="st1">
			<path id="XMLID_47_" class="st2" d="M20.6,248.5c1.7-0.2,3.4-0.8,4.6-1.7l43.6-33.4c1.9-1.5,5.1-1.7,7.1-0.5l18.4,11.1
				c1.4,0.8,3.2,1.2,5.1,1.1c1.9-0.1,3.7-0.8,5-1.8l58-44.2c1.9-1.5,5.1-1.6,7-0.4l14.2,9.1c1.4,0.9,3.3,1.3,5.2,1.2
				c2-0.1,3.8-0.8,5.1-1.9l112.2-90.5c2.6-2.1,2.4-5.2-0.5-6.8c-2.9-1.6-7.4-1.2-10.1,0.9l-103.7,83.6c-1.8,1.5-5,1.7-6.9,0.5l-14-9
				c-1.3-0.9-3.2-1.3-5.1-1.2c-1.9,0.1-3.8,0.7-5.1,1.8l-58.1,44.3c-1.9,1.5-5.1,1.7-7.1,0.5L77.1,200c-1.4-0.8-3.2-1.2-5.1-1.1
				c-1.9,0.1-3.7,0.8-5,1.8l-52.1,39.9c-2.7,2.1-2.6,5.1,0.2,6.8C16.7,248.3,18.6,248.7,20.6,248.5z"/>
			<path id="XMLID_46_" class="st2" d="M18.1,224.4c1.7-0.2,3.4-0.8,4.6-1.7l43.6-33.4c1.9-1.5,5.1-1.7,7.1-0.5l18.4,11.1
				c1.4,0.8,3.2,1.2,5.1,1.1c1.9-0.1,3.7-0.8,5-1.8l58-44.2c1.9-1.5,5.1-1.6,7-0.4l14.2,9.1c1.4,0.9,3.3,1.3,5.2,1.2
				c2-0.1,3.8-0.8,5.1-1.9l112.2-90.5c2.6-2.1,2.4-5.2-0.5-6.8c-2.9-1.6-7.4-1.2-10.1,0.9l-103.7,83.6c-1.8,1.5-5,1.7-6.9,0.5l-14-9
				c-1.3-0.9-3.2-1.3-5.1-1.2c-1.9,0.1-3.8,0.7-5.1,1.8l-58.1,44.3c-1.9,1.5-5.1,1.7-7.1,0.5l-18.4-11.1c-1.4-0.8-3.2-1.2-5.1-1.1
				c-1.9,0.1-3.7,0.8-5,1.8l-52.1,39.9c-2.7,2.1-2.6,5.1,0.2,6.8C14.2,224.3,16.2,224.6,18.1,224.4z"/>
			<path id="XMLID_2_" class="st2" d="M15.7,200.3c1.7-0.2,3.4-0.8,4.6-1.7L64,165.2c1.9-1.5,5.1-1.7,7.1-0.5l18.4,11.1
				c1.4,0.8,3.2,1.2,5.1,1.1c1.9-0.1,3.7-0.8,5-1.8l58-44.2c1.9-1.5,5.1-1.6,7-0.4l14.2,9.1c1.4,0.9,3.3,1.3,5.2,1.2
				c2-0.1,3.8-0.8,5.1-1.9l112.2-90.5c2.6-2.1,2.4-5.2-0.5-6.8c-2.9-1.6-7.4-1.2-10.1,0.9L187,126.2c-1.8,1.5-5,1.7-6.9,0.5l-14-9
				c-1.3-0.9-3.2-1.3-5.1-1.2c-1.9,0.1-3.8,0.7-5.1,1.8l-58.1,44.3c-1.9,1.5-5.1,1.7-7.1,0.5l-18.4-11.1c-1.4-0.8-3.2-1.2-5.1-1.1
				c-1.9,0.1-3.7,0.8-5,1.8l-52.1,39.9c-2.7,2.1-2.6,5.1,0.2,6.8C11.8,200.2,13.8,200.5,15.7,200.3z"/>
		</g>
	</g>
</g>
</svg>
