<?xml version="1.0" standalone="no"?>
<!-- Licensee: Reaction Commerce (#31460) - http://vllg.com -->
<!DOCTYPE svg PUBLIC "-//W3C//DTD SVG 1.1//EN" "http://www.w3.org/Graphics/SVG/1.1/DTD/svg11.dtd" ><svg version="1.1" xmlns="http://www.w3.org/2000/svg"><defs><font horiz-adv-x="0" id="font"><font-face ascent="750" bbox="-173 -251 1296 927" cap-height="700" descent="-250" font-family="Post Grotesk" font-stretch="normal" font-style="italic" font-weight="500" units-per-em="1000" x-height="472" /><missing-glyph d="M70 700H770V0H70ZM140 70H700V630H140ZM233 113 183 163 371 350 183 537 233 587 420 399 607 587 657 537 469 350 657 163 607 113 420 301Z" horiz-adv-x="840" /><glyph d="M567 0H481L447 190H169L67 0H-23L355 700H435ZM377 589Q371 578 361 558Q351 538 338 513Q325 488 310 459Q295 430 280 402Q245 335 204 258H435Q421 335 410 402Q405 430 400 459Q395 488 391 513Q387 538 383.5 558Q380 578 379 589Z" glyph-name="A" horiz-adv-x="628" unicode="A" /><glyph d="M420 0 453 190H212L70 0H-27L498 700H953L941 630H618L577 396H879L866 326H564L519 70H849L837 0ZM263 258H466L528 612H524Z" glyph-name="AE" horiz-adv-x="928" unicode="&#198;" /><glyph d="M567 0H481L447 190H169L67 0H-23L355 700H435ZM377 589Q371 578 361 558Q351 538 338 513Q325 488 310 459Q295 430 280 402Q245 335 204 258H435Q421 335 410 402Q405 430 400 459Q395 488 391 513Q387 538 383.5 558Q380 578 379 589ZM531 852 339 748 317 795 500 916Z" glyph-name="Aacute" horiz-adv-x="628" unicode="&#193;" /><glyph d="M567 0H481L447 190H169L67 0H-23L355 700H435ZM377 589Q371 578 361 558Q351 538 338 513Q325 488 310 459Q295 430 280 402Q245 335 204 258H435Q421 335 410 402Q405 430 400 459Q395 488 391 513Q387 538 383.5 558Q380 578 379 589ZM332 891Q333 860 353 838Q373 816 408 816Q443 816 469.5 838Q496 860 506 891L572 871Q556 825 512.5 792.5Q469 760 406 760Q346 760 308.5 791Q271 822 266 871Z" glyph-name="Abreve" horiz-adv-x="628" unicode="&#258;" /><glyph d="M567 0H481L447 190H169L67 0H-23L355 700H435ZM377 589Q371 578 361 558Q351 538 338 513Q325 488 310 459Q295 430 280 402Q245 335 204 258H435Q421 335 410 402Q405 430 400 459Q395 488 391 513Q387 538 383.5 558Q380 578 379 589ZM395 900H453L544 781L498 746L419 843L299 745L259 786Z" glyph-name="Acircumflex" horiz-adv-x="628" unicode="&#194;" /><glyph d="M567 0H481L447 190H169L67 0H-23L355 700H435ZM377 589Q371 578 361 558Q351 538 338 513Q325 488 310 459Q295 430 280 402Q245 335 204 258H435Q421 335 410 402Q405 430 400 459Q395 488 391 513Q387 538 383.5 558Q380 578 379 589ZM262 820Q262 843 277 857.5Q292 872 315 872Q338 872 353 857.5Q368 843 368 820Q368 798 353 782.5Q338 767 315 767Q292 767 277 782.5Q262 798 262 820ZM454 820Q454 843 469 857.5Q484 872 507 872Q530 872 545 857.5Q560 843 560 820Q560 798 545 782.5Q530 767 507 767Q484 767 469 782.5Q454 798 454 820Z" glyph-name="Adieresis" horiz-adv-x="628" unicode="&#196;" /><glyph d="M567 0H481L447 190H169L67 0H-23L355 700H435ZM377 589Q371 578 361 558Q351 538 338 513Q325 488 310 459Q295 430 280 402Q245 335 204 258H435Q421 335 410 402Q405 430 400 459Q395 488 391 513Q387 538 383.5 558Q380 578 379 589ZM301 857 351 916 497 790 463 749Z" glyph-name="Agrave" horiz-adv-x="628" unicode="&#192;" /><glyph d="M567 0H481L447 190H169L67 0H-23L355 700H435ZM377 589Q371 578 361 558Q351 538 338 513Q325 488 310 459Q295 430 280 402Q245 335 204 258H435Q421 335 410 402Q405 430 400 459Q395 488 391 513Q387 538 383.5 558Q380 578 379 589ZM285 836H544L534 777H275Z" glyph-name="Amacron" horiz-adv-x="628" unicode="&#256;" /><glyph d="M379 589H377L67 0H-23L355 700H435L567 0H481Z" glyph-name="Anocross" horiz-adv-x="628" unicode="&#59185;" /><glyph d="M567 0Q448 -59 448 -108Q448 -123 457.5 -133Q467 -143 484 -143Q515 -143 538 -111L567 -147Q544 -175 519 -185Q494 -195 468 -195Q454 -195 439 -192Q424 -189 411 -180.5Q398 -172 390 -157.5Q382 -143 382 -120Q382 -98 390.5 -79.5Q399 -61 413 -46Q427 -31 444.5 -20Q462 -9 481 0L447 190H169L67 0H-23L355 700H435ZM377 589Q371 578 361 558Q351 538 338 513Q325 488 310 459Q295 430 280 402Q245 335 204 258H435Q421 335 410 402Q405 430 400 459Q395 488 391 513Q387 538 383.5 558Q380 578 379 589Z" glyph-name="Aogonek" horiz-adv-x="628" unicode="&#260;" /><glyph d="M567 0H481L447 190H169L67 0H-23L355 700H435ZM377 589Q371 578 361 558Q351 538 338 513Q325 488 310 459Q295 430 280 402Q245 335 204 258H435Q421 335 410 402Q405 430 400 459Q395 488 391 513Q387 538 383.5 558Q380 578 379 589ZM365 831Q365 812 377.5 798Q390 784 410 784Q433 784 448.5 800.5Q464 817 464 840Q464 859 452 872Q440 885 419 885Q396 885 380.5 869.5Q365 854 365 831ZM317 829Q317 871 345.5 899Q374 927 421 927Q463 927 487.5 903.5Q512 880 512 842Q512 800 483 771Q454 742 408 742Q366 742 341.5 766.5Q317 791 317 829Z" glyph-name="Aring" horiz-adv-x="628" unicode="&#197;" /><glyph d="M567 0H481L447 190H169L67 0H-23L355 700H435ZM377 589Q371 578 361 558Q351 538 338 513Q325 488 310 459Q295 430 280 402Q245 335 204 258H435Q421 335 410 402Q405 430 400 459Q395 488 391 513Q387 538 383.5 558Q380 578 379 589ZM344 875Q369 875 386.5 867Q404 859 418.5 849.5Q433 840 446.5 832Q460 824 477 824Q493 824 505.5 831Q518 838 526 847Q536 857 543 870L583 830Q572 812 555 798Q541 786 520 776.5Q499 767 470 767Q445 767 427.5 775Q410 783 395.5 792Q381 801 368 809Q355 817 338 817Q321 817 308.5 809.5Q296 802 288 794Q278 784 271 772L231 812Q242 829 259 843Q273 855 294 865Q315 875 344 875Z" glyph-name="Atilde" horiz-adv-x="628" unicode="&#195;" /><glyph d="M171 700H414Q504 700 550.5 656.5Q597 613 597 539Q597 498 583.5 467Q570 436 549 414.5Q528 393 502 380Q476 367 452 361Q501 353 535 316.5Q569 280 569 215Q569 167 549 127.5Q529 88 494 59.5Q459 31 410.5 15.5Q362 0 304 0H48ZM146 68H286Q344 68 381.5 81Q419 94 441.5 115Q464 136 473 161.5Q482 187 482 212Q482 274 439.5 300.5Q397 327 328 327H191ZM245 632 204 395H334Q418 395 463.5 431.5Q509 468 509 531Q509 580 480 606Q451 632 386 632Z" glyph-name="B" horiz-adv-x="626" unicode="B" /><glyph d="M69 292Q69 374 93 450Q117 526 162 584Q207 642 272.5 677Q338 712 422 712Q528 712 592.5 664Q657 616 679 534L598 505Q585 565 541 603Q497 641 416 641Q357 641 309.5 612Q262 583 228.5 535Q195 487 177 424Q159 361 159 293Q159 243 171 200.5Q183 158 207 126.5Q231 95 267.5 77Q304 59 354 59Q420 59 467.5 98.5Q515 138 543 198L623 168Q583 86 516 37Q449 -12 351 -12Q285 -12 232.5 9Q180 30 144 69.5Q108 109 88.5 165.5Q69 222 69 292Z" glyph-name="C" horiz-adv-x="668" unicode="C" /><glyph d="M69 292Q69 374 93 450Q117 526 162 584Q207 642 272.5 677Q338 712 422 712Q528 712 592.5 664Q657 616 679 534L598 505Q585 565 541 603Q497 641 416 641Q357 641 309.5 612Q262 583 228.5 535Q195 487 177 424Q159 361 159 293Q159 243 171 200.5Q183 158 207 126.5Q231 95 267.5 77Q304 59 354 59Q420 59 467.5 98.5Q515 138 543 198L623 168Q583 86 516 37Q449 -12 351 -12Q285 -12 232.5 9Q180 30 144 69.5Q108 109 88.5 165.5Q69 222 69 292ZM564 852 372 748 350 795 533 916Z" glyph-name="Cacute" horiz-adv-x="668" unicode="&#262;" /><glyph d="M69 292Q69 374 93 450Q117 526 162 584Q207 642 272.5 677Q338 712 422 712Q528 712 592.5 664Q657 616 679 534L598 505Q585 565 541 603Q497 641 416 641Q357 641 309.5 612Q262 583 228.5 535Q195 487 177 424Q159 361 159 293Q159 243 171 200.5Q183 158 207 126.5Q231 95 267.5 77Q304 59 354 59Q420 59 467.5 98.5Q515 138 543 198L623 168Q583 86 516 37Q449 -12 351 -12Q285 -12 232.5 9Q180 30 144 69.5Q108 109 88.5 165.5Q69 222 69 292ZM471 752H413L322 871L368 906L447 809L567 907L607 866Z" glyph-name="Ccaron" horiz-adv-x="668" unicode="&#268;" /><glyph d="M325 -49Q354 -49 373.5 -69.5Q393 -90 393 -124Q393 -171 362 -197Q331 -223 285 -223Q254 -223 234.5 -213Q215 -203 207 -194L238 -156Q244 -162 256.5 -168.5Q269 -175 288 -175Q309 -175 322 -162Q335 -149 335 -128Q335 -93 298 -93Q284 -93 275 -97Q266 -101 258 -106L236 -79L279 -5Q179 16 124 93.5Q69 171 69 292Q69 374 93 450Q117 526 162 584Q207 642 272.5 677Q338 712 422 712Q528 712 592.5 664Q657 616 679 534L598 505Q585 565 541 603Q497 641 416 641Q357 641 309.5 612Q262 583 228.5 535Q195 487 177 424Q159 361 159 293Q159 243 171 200.5Q183 158 207 126.5Q231 95 267.5 77Q304 59 354 59Q420 59 467.5 98.5Q515 138 543 198L623 168Q583 86 516 37Q449 -12 351 -12Q343 -12 336.5 -11.5Q330 -11 323 -11L297 -57Q308 -49 325 -49Z" glyph-name="Ccedilla" horiz-adv-x="668" unicode="&#199;" /><glyph d="M69 292Q69 374 93 450Q117 526 162 584Q207 642 272.5 677Q338 712 422 712Q528 712 592.5 664Q657 616 679 534L598 505Q585 565 541 603Q497 641 416 641Q357 641 309.5 612Q262 583 228.5 535Q195 487 177 424Q159 361 159 293Q159 243 171 200.5Q183 158 207 126.5Q231 95 267.5 77Q304 59 354 59Q420 59 467.5 98.5Q515 138 543 198L623 168Q583 86 516 37Q449 -12 351 -12Q285 -12 232.5 9Q180 30 144 69.5Q108 109 88.5 165.5Q69 222 69 292ZM432 900H490L581 781L535 746L456 843L336 745L296 786Z" glyph-name="Ccircumflex" horiz-adv-x="668" unicode="&#264;" /><glyph d="M69 292Q69 374 93 450Q117 526 162 584Q207 642 272.5 677Q338 712 422 712Q528 712 592.5 664Q657 616 679 534L598 505Q585 565 541 603Q497 641 416 641Q357 641 309.5 612Q262 583 228.5 535Q195 487 177 424Q159 361 159 293Q159 243 171 200.5Q183 158 207 126.5Q231 95 267.5 77Q304 59 354 59Q420 59 467.5 98.5Q515 138 543 198L623 168Q583 86 516 37Q449 -12 351 -12Q285 -12 232.5 9Q180 30 144 69.5Q108 109 88.5 165.5Q69 222 69 292ZM389 819Q389 843 404.5 858.5Q420 874 445 874Q470 874 485.5 858.5Q501 843 501 819Q501 796 485.5 780.5Q470 765 445 765Q420 765 404.5 780.5Q389 796 389 819Z" glyph-name="Cdotaccent" horiz-adv-x="668" unicode="&#266;" /><glyph d="M171 700H393Q456 700 507 681.5Q558 663 594 627.5Q630 592 649.5 540.5Q669 489 669 424Q669 325 642 246.5Q615 168 565 113.5Q515 59 444 29.5Q373 0 286 0H48ZM579 425Q579 524 527 577Q475 630 366 630H246L147 70H283Q359 70 414.5 99Q470 128 506.5 177Q543 226 561 290Q579 354 579 425Z" glyph-name="D" horiz-adv-x="698" unicode="D" /><glyph d="M171 700H393Q456 700 507 681.5Q558 663 594 627.5Q630 592 649.5 540.5Q669 489 669 424Q669 325 642 246.5Q615 168 565 113.5Q515 59 444 29.5Q373 0 286 0H48ZM579 425Q579 524 527 577Q475 630 366 630H246L147 70H283Q359 70 414.5 99Q470 128 506.5 177Q543 226 561 290Q579 354 579 425ZM421 752H363L272 871L318 906L397 809L517 907L557 866Z" glyph-name="Dcaron" horiz-adv-x="698" unicode="&#270;" /><glyph d="M48 397H136L190 700H412Q475 700 526 681.5Q577 663 613 627.5Q649 592 668.5 540.5Q688 489 688 424Q688 325 661 246.5Q634 168 584 113.5Q534 59 463 29.5Q392 0 305 0H67L125 334H37ZM598 425Q598 524 546 577Q494 630 385 630H265L223 397H413L402 334H212L166 70H302Q378 70 433.5 99Q489 128 525.5 177Q562 226 580 290Q598 354 598 425Z" glyph-name="Dcroat" horiz-adv-x="717" unicode="&#272;" /><glyph d="M594 0H3L379 700H466ZM125 66H500L406 600Z" glyph-name="Delta" horiz-adv-x="681" unicode="&#8710;" /><glyph d="M48 0 171 700H581L569 630H246L205 396H507L494 326H192L147 70H477L465 0Z" glyph-name="E" horiz-adv-x="556" unicode="E" /><glyph d="M48 0 171 700H581L569 630H246L205 396H507L494 326H192L147 70H477L465 0ZM512 852 320 748 298 795 481 916Z" glyph-name="Eacute" horiz-adv-x="556" unicode="&#201;" /><glyph d="M48 0 171 700H581L569 630H246L205 396H507L494 326H192L147 70H477L465 0ZM306 891Q307 860 327 838Q347 816 382 816Q417 816 443.5 838Q470 860 480 891L546 871Q530 825 486.5 792.5Q443 760 380 760Q320 760 282.5 791Q245 822 240 871Z" glyph-name="Ebreve" horiz-adv-x="556" unicode="&#276;" /><glyph d="M48 0 171 700H581L569 630H246L205 396H507L494 326H192L147 70H477L465 0ZM402 752H344L253 871L299 906L378 809L498 907L538 866Z" glyph-name="Ecaron" horiz-adv-x="556" unicode="&#282;" /><glyph d="M48 0 171 700H581L569 630H246L205 396H507L494 326H192L147 70H477L465 0ZM375 900H433L524 781L478 746L399 843L279 745L239 786Z" glyph-name="Ecircumflex" horiz-adv-x="556" unicode="&#202;" /><glyph d="M48 0 171 700H581L569 630H246L205 396H507L494 326H192L147 70H477L465 0ZM232 820Q232 843 247 857.5Q262 872 285 872Q308 872 323 857.5Q338 843 338 820Q338 798 323 782.5Q308 767 285 767Q262 767 247 782.5Q232 798 232 820ZM424 820Q424 843 439 857.5Q454 872 477 872Q500 872 515 857.5Q530 843 530 820Q530 798 515 782.5Q500 767 477 767Q454 767 439 782.5Q424 798 424 820Z" glyph-name="Edieresis" horiz-adv-x="556" unicode="&#203;" /><glyph d="M48 0 171 700H581L569 630H246L205 396H507L494 326H192L147 70H477L465 0ZM330 819Q330 843 345.5 858.5Q361 874 386 874Q411 874 426.5 858.5Q442 843 442 819Q442 796 426.5 780.5Q411 765 386 765Q361 765 345.5 780.5Q330 796 330 819Z" glyph-name="Edotaccent" horiz-adv-x="556" unicode="&#278;" /><glyph d="M48 0 171 700H581L569 630H246L205 396H507L494 326H192L147 70H477L465 0ZM285 857 335 916 481 790 447 749Z" glyph-name="Egrave" horiz-adv-x="556" unicode="&#200;" /><glyph d="M48 0 171 700H581L569 630H246L205 396H507L494 326H192L147 70H477L465 0ZM264 836H523L513 777H254Z" glyph-name="Emacron" horiz-adv-x="556" unicode="&#274;" /><glyph d="M394 -145Q439 -145 467.5 -110Q496 -75 505 -24L509 1Q448 127 393 239Q370 287 346 336Q322 385 300.5 429Q279 473 261 510Q243 547 232 571H230L129 0H48L171 700H261Q322 574 376 463Q399 416 422.5 367.5Q446 319 467 275.5Q488 232 505 196.5Q522 161 533 140H535L633 700H714L585 -34Q569 -124 520 -169Q471 -214 395 -214Q343 -214 308.5 -196.5Q274 -179 251 -149L315 -94Q334 -120 351 -132.5Q368 -145 394 -145Z" glyph-name="Eng" horiz-adv-x="723" unicode="&#330;" /><glyph d="M421 0Q362 -32 332 -57Q302 -82 302 -108Q302 -123 311.5 -133Q321 -143 338 -143Q369 -143 392 -111L421 -147Q398 -175 373 -185Q348 -195 322 -195Q308 -195 292.5 -191.5Q277 -188 264.5 -180Q252 -172 244 -157.5Q236 -143 236 -121Q236 -99 244.5 -81Q253 -63 267 -48.5Q281 -34 299 -22.5Q317 -11 337 0H48L171 700H581L569 630H246L205 396H507L494 326H192L147 70H477L465 0Z" glyph-name="Eogonek" horiz-adv-x="556" unicode="&#280;" /><glyph d="M48 397H136L190 700H412Q475 700 526 681.5Q577 663 613 627.5Q649 592 668.5 540.5Q688 489 688 424Q688 325 661 246.5Q634 168 584 113.5Q534 59 463 29.5Q392 0 305 0H67L125 334H37ZM598 425Q598 524 546 577Q494 630 385 630H265L223 397H413L402 334H212L166 70H302Q378 70 433.5 99Q489 128 525.5 177Q562 226 580 290Q598 354 598 425Z" glyph-name="Eth" horiz-adv-x="717" unicode="&#208;" /><glyph d="M193 378Q187 346 187 312H458L448 255H189Q193 212 205.5 175.5Q218 139 240 112.5Q262 86 292.5 71Q323 56 364 56Q413 56 453.5 77.5Q494 99 526 137L584 89Q566 69 543.5 51Q521 33 494 19Q467 5 434 -3.5Q401 -12 361 -12Q301 -12 255 7.5Q209 27 177 62Q145 97 126.5 146Q108 195 103 255H33L43 312H101Q102 329 103 345.5Q104 362 106 378H55L65 435H119Q137 499 171.5 548Q206 597 250 630Q294 663 345.5 679.5Q397 696 449 696Q524 696 571.5 668Q619 640 645 596L578 551Q559 585 529.5 606.5Q500 628 446 628Q407 628 370 615.5Q333 603 301.5 578Q270 553 245.5 517Q221 481 206 435H480L470 378Z" glyph-name="Euro" horiz-adv-x="625" unicode="&#8364;" /><glyph d="M48 0 171 700H582L570 630H246L205 396H508L495 326H192L135 0Z" glyph-name="F" horiz-adv-x="540" unicode="F" /><glyph d="M370 344H657L596 0H516L529 74Q517 59 499 43.5Q481 28 457 16Q433 4 403.5 -4Q374 -12 338 -12Q272 -12 221 10.5Q170 33 135.5 73.5Q101 114 83.5 170Q66 226 66 292Q66 373 90 448.5Q114 524 160 582.5Q206 641 271.5 676.5Q337 712 421 712Q523 712 588 666.5Q653 621 677 536L595 509Q581 568 537.5 604.5Q494 641 416 641Q357 641 309 612.5Q261 584 227 535.5Q193 487 174.5 423Q156 359 156 289Q156 237 168 194.5Q180 152 204 122Q228 92 265 75.5Q302 59 352 59Q388 59 421.5 70Q455 81 481.5 102Q508 123 526.5 154Q545 185 551 226L559 276H358Z" glyph-name="G" horiz-adv-x="717" unicode="G" /><glyph d="M370 344H657L596 0H516L529 74Q517 59 499 43.5Q481 28 457 16Q433 4 403.5 -4Q374 -12 338 -12Q272 -12 221 10.5Q170 33 135.5 73.5Q101 114 83.5 170Q66 226 66 292Q66 373 90 448.5Q114 524 160 582.5Q206 641 271.5 676.5Q337 712 421 712Q523 712 588 666.5Q653 621 677 536L595 509Q581 568 537.5 604.5Q494 641 416 641Q357 641 309 612.5Q261 584 227 535.5Q193 487 174.5 423Q156 359 156 289Q156 237 168 194.5Q180 152 204 122Q228 92 265 75.5Q302 59 352 59Q388 59 421.5 70Q455 81 481.5 102Q508 123 526.5 154Q545 185 551 226L559 276H358ZM368 891Q369 860 389 838Q409 816 444 816Q479 816 505.5 838Q532 860 542 891L608 871Q592 825 548.5 792.5Q505 760 442 760Q382 760 344.5 791Q307 822 302 871Z" glyph-name="Gbreve" horiz-adv-x="717" unicode="&#286;" /><glyph d="M370 344H657L596 0H516L529 74Q517 59 499 43.5Q481 28 457 16Q433 4 403.5 -4Q374 -12 338 -12Q272 -12 221 10.5Q170 33 135.5 73.5Q101 114 83.5 170Q66 226 66 292Q66 373 90 448.5Q114 524 160 582.5Q206 641 271.5 676.5Q337 712 421 712Q523 712 588 666.5Q653 621 677 536L595 509Q581 568 537.5 604.5Q494 641 416 641Q357 641 309 612.5Q261 584 227 535.5Q193 487 174.5 423Q156 359 156 289Q156 237 168 194.5Q180 152 204 122Q228 92 265 75.5Q302 59 352 59Q388 59 421.5 70Q455 81 481.5 102Q508 123 526.5 154Q545 185 551 226L559 276H358ZM433 900H491L582 781L536 746L457 843L337 745L297 786Z" glyph-name="Gcircumflex" horiz-adv-x="717" unicode="&#284;" /><glyph d="M370 344H657L596 0H516L529 74Q517 59 499 43.5Q481 28 457 16Q433 4 403.5 -4Q374 -12 338 -12Q272 -12 221 10.5Q170 33 135.5 73.5Q101 114 83.5 170Q66 226 66 292Q66 373 90 448.5Q114 524 160 582.5Q206 641 271.5 676.5Q337 712 421 712Q523 712 588 666.5Q653 621 677 536L595 509Q581 568 537.5 604.5Q494 641 416 641Q357 641 309 612.5Q261 584 227 535.5Q193 487 174.5 423Q156 359 156 289Q156 237 168 194.5Q180 152 204 122Q228 92 265 75.5Q302 59 352 59Q388 59 421.5 70Q455 81 481.5 102Q508 123 526.5 154Q545 185 551 226L559 276H358ZM371 -117Q371 -130 366.5 -147.5Q362 -165 350 -181Q338 -197 318 -209Q298 -221 267 -222L258 -189Q281 -189 298.5 -178Q316 -167 318 -145Q317 -146 316 -146H309Q292 -145 280 -132.5Q268 -120 268 -103Q268 -86 280.5 -69.5Q293 -53 319 -53Q345 -53 358 -72Q371 -91 371 -117Z" glyph-name="Gcommaaccent" horiz-adv-x="717" unicode="&#290;" /><glyph d="M370 344H657L596 0H516L529 74Q517 59 499 43.5Q481 28 457 16Q433 4 403.5 -4Q374 -12 338 -12Q272 -12 221 10.5Q170 33 135.5 73.5Q101 114 83.5 170Q66 226 66 292Q66 373 90 448.5Q114 524 160 582.5Q206 641 271.5 676.5Q337 712 421 712Q523 712 588 666.5Q653 621 677 536L595 509Q581 568 537.5 604.5Q494 641 416 641Q357 641 309 612.5Q261 584 227 535.5Q193 487 174.5 423Q156 359 156 289Q156 237 168 194.5Q180 152 204 122Q228 92 265 75.5Q302 59 352 59Q388 59 421.5 70Q455 81 481.5 102Q508 123 526.5 154Q545 185 551 226L559 276H358ZM393 819Q393 843 408.5 858.5Q424 874 449 874Q474 874 489.5 858.5Q505 843 505 819Q505 796 489.5 780.5Q474 765 449 765Q424 765 408.5 780.5Q393 796 393 819Z" glyph-name="Gdotaccent" horiz-adv-x="717" unicode="&#288;" /><glyph d="M171 700H258L205 397H545L598 700H685L562 0H475L533 327H193L135 0H48Z" glyph-name="H" horiz-adv-x="694" unicode="H" /><glyph d="M136 502H57L69 570H148L171 700H258L235 570H575L598 700H685L662 570H743L731 502H650L562 0H475L533 327H193L135 0H48ZM545 397 563 502H223L205 397Z" glyph-name="Hbar" horiz-adv-x="694" unicode="&#294;" /><glyph d="M171 700H258L205 397H545L598 700H685L562 0H475L533 327H193L135 0H48ZM424 900H482L573 781L527 746L448 843L328 745L288 786Z" glyph-name="Hcircumflex" horiz-adv-x="694" unicode="&#292;" /><glyph d="M171 700H258L135 0H48Z" glyph-name="I" horiz-adv-x="267" unicode="I" /><glyph d="M171 700H258L135 0H48ZM378 58Q432 58 461.5 102Q491 146 506 231L589 700H676L593 231Q584 180 570 135.5Q556 91 531.5 58.5Q507 26 470.5 7Q434 -12 380 -12Q319 -12 281.5 9Q244 30 221 65L284 121Q305 89 325 73.5Q345 58 378 58Z" glyph-name="IJ" horiz-adv-x="680" unicode="&#306;" /><glyph d="M171 700H258L135 0H48ZM334 852 142 748 120 795 303 916Z" glyph-name="Iacute" horiz-adv-x="267" unicode="&#205;" /><glyph d="M171 700H258L135 0H48ZM154 891Q155 860 175 838Q195 816 230 816Q265 816 291.5 838Q318 860 328 891L394 871Q378 825 334.5 792.5Q291 760 228 760Q168 760 130.5 791Q93 822 88 871Z" glyph-name="Ibreve" horiz-adv-x="267" unicode="&#300;" /><glyph d="M171 700H258L135 0H48ZM219 900H277L368 781L322 746L243 843L123 745L83 786Z" glyph-name="Icircumflex" horiz-adv-x="267" unicode="&#206;" /><glyph d="M83 820Q83 843 98 857.5Q113 872 136 872Q159 872 174 857.5Q189 843 189 820Q189 798 174 782.5Q159 767 136 767Q113 767 98 782.5Q83 798 83 820ZM275 820Q275 843 290 857.5Q305 872 328 872Q351 872 366 857.5Q381 843 381 820Q381 798 366 782.5Q351 767 328 767Q305 767 290 782.5Q275 798 275 820ZM171 700H258L135 0H48Z" glyph-name="Idieresis" horiz-adv-x="267" unicode="&#207;" /><glyph d="M177 819Q177 843 192.5 858.5Q208 874 233 874Q258 874 273.5 858.5Q289 843 289 819Q289 796 273.5 780.5Q258 765 233 765Q208 765 192.5 780.5Q177 796 177 819ZM171 700H258L135 0H48Z" glyph-name="Idotaccent" horiz-adv-x="267" unicode="&#304;" /><glyph d="M171 700H258L135 0H48ZM136 857 186 916 332 790 298 749Z" glyph-name="Igrave" horiz-adv-x="267" unicode="&#204;" /><glyph d="M171 700H258L135 0H48ZM104 836H363L353 777H94Z" glyph-name="Imacron" horiz-adv-x="267" unicode="&#298;" /><glyph d="M171 700H258L135 0Q16 -59 16 -108Q16 -123 25.5 -133Q35 -143 52 -143Q83 -143 106 -111L135 -147Q112 -175 87 -185Q62 -195 36 -195Q22 -195 7 -192Q-8 -189 -21 -180.5Q-34 -172 -42 -157.5Q-50 -143 -50 -120Q-50 -98 -41.5 -79.5Q-33 -61 -19.5 -46.5Q-6 -32 11.5 -20.5Q29 -9 48 0Z" glyph-name="Iogonek" horiz-adv-x="267" unicode="&#302;" /><glyph d="M171 700H258L135 0H48ZM165 875Q190 875 207.5 867Q225 859 239.5 849.5Q254 840 267.5 832Q281 824 298 824Q314 824 326.5 831Q339 838 347 847Q357 857 364 870L404 830Q393 812 376 798Q362 786 341 776.5Q320 767 291 767Q266 767 248.5 775Q231 783 216.5 792Q202 801 189 809Q176 817 159 817Q142 817 129.5 809.5Q117 802 109 794Q99 784 92 772L52 812Q63 829 80 843Q94 855 115 865Q136 875 165 875Z" glyph-name="Itilde" horiz-adv-x="267" unicode="&#296;" /><glyph d="M130 58Q184 58 213.5 102Q243 146 258 231L341 700H428L345 231Q336 180 322 135.5Q308 91 283.5 58.5Q259 26 222.5 7Q186 -12 132 -12Q71 -12 33.5 9Q-4 30 -27 65L36 121Q57 89 77 73.5Q97 58 130 58Z" glyph-name="J" horiz-adv-x="432" unicode="J" /><glyph d="M130 58Q184 58 213.5 102Q243 146 258 231L341 700H428L345 231Q336 180 322 135.5Q308 91 283.5 58.5Q259 26 222.5 7Q186 -12 132 -12Q71 -12 33.5 9Q-4 30 -27 65L36 121Q57 89 77 73.5Q97 58 130 58ZM389 900H447L538 781L492 746L413 843L293 745L253 786Z" glyph-name="Jcircumflex" horiz-adv-x="432" unicode="&#308;" /><glyph d="M276 359 184 278 135 0H48L171 700H258L204 390L554 700H663L342 415L563 0H465Z" glyph-name="K" horiz-adv-x="618" unicode="K" /><glyph d="M276 359 184 278 135 0H48L171 700H258L204 390L554 700H663L342 415L563 0H465ZM318 -117Q318 -130 313.5 -147.5Q309 -165 297 -181Q285 -197 265 -209Q245 -221 214 -222L205 -189Q228 -189 245.5 -178Q263 -167 265 -145Q264 -146 263 -146H256Q239 -145 227 -132.5Q215 -120 215 -103Q215 -86 227.5 -69.5Q240 -53 266 -53Q292 -53 305 -72Q318 -91 318 -117Z" glyph-name="Kcommaaccent" horiz-adv-x="618" unicode="&#310;" /><glyph d="M171 700H258L147 70H457L445 0H48Z" glyph-name="L" horiz-adv-x="509" unicode="L" /><glyph d="M171 700H258L147 70H457L445 0H48ZM393 852 201 748 179 795 362 916Z" glyph-name="Lacute" horiz-adv-x="509" unicode="&#313;" /><glyph d="M171 700H258L147 70H457L445 0H48ZM449 686 361 533 316 548 383 708Z" glyph-name="Lcaron" horiz-adv-x="509" unicode="&#317;" /><glyph d="M171 700H258L147 70H457L445 0H48ZM283 -117Q283 -130 278.5 -147.5Q274 -165 262 -181Q250 -197 230 -209Q210 -221 179 -222L170 -189Q193 -189 210.5 -178Q228 -167 230 -145Q229 -146 228 -146H221Q204 -145 192 -132.5Q180 -120 180 -103Q180 -86 192.5 -69.5Q205 -53 231 -53Q257 -53 270 -72Q283 -91 283 -117Z" glyph-name="Lcommaaccent" horiz-adv-x="509" unicode="&#315;" /><glyph d="M171 700H258L147 70H457L445 0H48ZM325 350Q325 375 340.5 390Q356 405 380 405Q404 405 419.5 390Q435 375 435 350Q435 328 419.5 312Q404 296 380 296Q356 296 340.5 312Q325 328 325 350Z" glyph-name="Ldot" horiz-adv-x="509" unicode="&#319;" /><glyph d="M117 252 54 217 27 277 132 336 196 700H283L228 389L388 479L415 419L213 306L172 70H482L470 0H73Z" glyph-name="Lslash" horiz-adv-x="534" unicode="&#321;" /><glyph d="M348 0Q341 32 331 77Q321 122 309.5 174.5Q298 227 286 283.5Q274 340 263.5 394Q253 448 244.5 496.5Q236 545 231 581H229L127 0H48L171 700H281Q310 555 335 433Q345 381 356 329Q367 277 376 232Q385 187 392 154Q399 121 402 106Q410 121 428 154Q446 187 470.5 232Q495 277 523.5 329Q552 381 580 433Q646 555 725 700H844L721 0H642L744 581H742Q723 544 696 493.5Q669 443 638.5 387Q608 331 575.5 273Q543 215 513.5 163Q484 111 460 68.5Q436 26 421 0Z" glyph-name="M" horiz-adv-x="853" unicode="M" /><glyph d="M171 700H261Q321 572 375 459Q398 411 421 362Q444 313 465 268.5Q486 224 503 188Q520 152 531 130H533L633 700H714L591 0H501Q442 126 389 237Q366 284 343 333Q320 382 299 426.5Q278 471 260.5 508.5Q243 546 232 570H230L129 0H48Z" glyph-name="N" horiz-adv-x="723" unicode="N" /><glyph glyph-name="NULL" horiz-adv-x="0" /><glyph d="M171 700H261Q321 572 375 459Q398 411 421 362Q444 313 465 268.5Q486 224 503 188Q520 152 531 130H533L633 700H714L591 0H501Q442 126 389 237Q366 284 343 333Q320 382 299 426.5Q278 471 260.5 508.5Q243 546 232 570H230L129 0H48ZM584 852 392 748 370 795 553 916Z" glyph-name="Nacute" horiz-adv-x="723" unicode="&#323;" /><glyph d="M171 700H261Q321 572 375 459Q398 411 421 362Q444 313 465 268.5Q486 224 503 188Q520 152 531 130H533L633 700H714L591 0H501Q442 126 389 237Q366 284 343 333Q320 382 299 426.5Q278 471 260.5 508.5Q243 546 232 570H230L129 0H48ZM470 752H412L321 871L367 906L446 809L566 907L606 866Z" glyph-name="Ncaron" horiz-adv-x="723" unicode="&#327;" /><glyph d="M171 700H261Q321 572 375 459Q398 411 421 362Q444 313 465 268.5Q486 224 503 188Q520 152 531 130H533L633 700H714L591 0H501Q442 126 389 237Q366 284 343 333Q320 382 299 426.5Q278 471 260.5 508.5Q243 546 232 570H230L129 0H48ZM372 -117Q372 -130 367.5 -147.5Q363 -165 351 -181Q339 -197 319 -209Q299 -221 268 -222L259 -189Q282 -189 299.5 -178Q317 -167 319 -145Q318 -146 317 -146H310Q293 -145 281 -132.5Q269 -120 269 -103Q269 -86 281.5 -69.5Q294 -53 320 -53Q346 -53 359 -72Q372 -91 372 -117Z" glyph-name="Ncommaaccent" horiz-adv-x="723" unicode="&#325;" /><glyph d="M171 700H261Q321 572 375 459Q398 411 421 362Q444 313 465 268.5Q486 224 503 188Q520 152 531 130H533L633 700H714L591 0H501Q442 126 389 237Q366 284 343 333Q320 382 299 426.5Q278 471 260.5 508.5Q243 546 232 570H230L129 0H48ZM390 875Q415 875 432.5 867Q450 859 464.5 849.5Q479 840 492.5 832Q506 824 523 824Q539 824 551.5 831Q564 838 572 847Q582 857 589 870L629 830Q618 812 601 798Q587 786 566 776.5Q545 767 516 767Q491 767 473.5 775Q456 783 441.5 792Q427 801 414 809Q401 817 384 817Q367 817 354.5 809.5Q342 802 334 794Q324 784 317 772L277 812Q288 829 305 843Q319 855 340 865Q361 875 390 875Z" glyph-name="Ntilde" horiz-adv-x="723" unicode="&#209;" /><glyph d="M347 -12Q282 -12 230.5 9Q179 30 143 69Q107 108 88 164Q69 220 69 290Q69 373 92.5 449Q116 525 161 583.5Q206 642 271.5 677Q337 712 421 712Q485 712 536.5 691Q588 670 624 631Q660 592 679.5 536Q699 480 699 410Q699 327 675.5 251Q652 175 607 116.5Q562 58 496.5 23Q431 -12 347 -12ZM159 291Q159 241 170.5 198.5Q182 156 206 125Q230 94 266.5 76Q303 58 353 58Q417 58 465.5 91.5Q514 125 545.5 176.5Q577 228 593 290Q609 352 609 409Q609 458 597.5 501Q586 544 562 575Q538 606 501.5 624Q465 642 415 642Q350 642 302 608.5Q254 575 222.5 523.5Q191 472 175 410Q159 348 159 291Z" glyph-name="O" horiz-adv-x="728" unicode="O" /><glyph d="M344 -12Q280 -12 229 9Q178 30 142.5 69Q107 108 88 164Q69 220 69 290Q69 374 92.5 450Q116 526 161.5 584.5Q207 643 273 677.5Q339 712 424 712Q452 712 482.5 706.5Q513 701 542 688Q571 675 596.5 653Q622 631 640 598L658 700H1068L1056 630H733L692 396H994L981 326H679L634 70H964L952 0H535L551 90Q539 71 519 53Q499 35 472.5 20.5Q446 6 413.5 -3Q381 -12 344 -12ZM159 291Q159 241 170.5 198.5Q182 156 205.5 125Q229 94 265 76Q301 58 351 58Q406 58 448 85.5Q490 113 520 154Q550 195 568 243Q586 291 593 333L600 374Q609 426 602.5 474.5Q596 523 573 560.5Q550 598 511 620Q472 642 415 642Q350 642 302 608.5Q254 575 222.5 523.5Q191 472 175 410Q159 348 159 291Z" glyph-name="OE" horiz-adv-x="1043" unicode="&#338;" /><glyph d="M344 -12Q279 -12 227.5 9Q176 30 140 69Q104 108 85 164Q66 220 66 290Q66 373 89.5 449Q113 525 158 583.5Q203 642 268.5 677Q334 712 418 712Q482 712 533.5 691Q585 670 621 631Q657 592 676.5 536Q696 480 696 410Q696 327 672.5 251Q649 175 604 116.5Q559 58 493.5 23Q428 -12 344 -12ZM156 291Q156 241 167.5 198.5Q179 156 203 125Q227 94 263.5 76Q300 58 350 58Q414 58 462.5 91.5Q511 125 542.5 176.5Q574 228 590 290Q606 352 606 409Q606 458 594.5 501Q583 544 559 575Q535 606 498.5 624Q462 642 412 642Q347 642 299 608.5Q251 575 219.5 523.5Q188 472 172 410Q156 348 156 291ZM559 852 367 748 345 795 528 916Z" glyph-name="Oacute" horiz-adv-x="721" unicode="&#211;" /><glyph d="M344 -12Q279 -12 227.5 9Q176 30 140 69Q104 108 85 164Q66 220 66 290Q66 373 89.5 449Q113 525 158 583.5Q203 642 268.5 677Q334 712 418 712Q482 712 533.5 691Q585 670 621 631Q657 592 676.5 536Q696 480 696 410Q696 327 672.5 251Q649 175 604 116.5Q559 58 493.5 23Q428 -12 344 -12ZM156 291Q156 241 167.5 198.5Q179 156 203 125Q227 94 263.5 76Q300 58 350 58Q414 58 462.5 91.5Q511 125 542.5 176.5Q574 228 590 290Q606 352 606 409Q606 458 594.5 501Q583 544 559 575Q535 606 498.5 624Q462 642 412 642Q347 642 299 608.5Q251 575 219.5 523.5Q188 472 172 410Q156 348 156 291ZM363 891Q364 860 384 838Q404 816 439 816Q474 816 500.5 838Q527 860 537 891L603 871Q587 825 543.5 792.5Q500 760 437 760Q377 760 339.5 791Q302 822 297 871Z" glyph-name="Obreve" horiz-adv-x="721" unicode="&#334;" /><glyph d="M344 -12Q279 -12 227.5 9Q176 30 140 69Q104 108 85 164Q66 220 66 290Q66 373 89.5 449Q113 525 158 583.5Q203 642 268.5 677Q334 712 418 712Q482 712 533.5 691Q585 670 621 631Q657 592 676.5 536Q696 480 696 410Q696 327 672.5 251Q649 175 604 116.5Q559 58 493.5 23Q428 -12 344 -12ZM156 291Q156 241 167.5 198.5Q179 156 203 125Q227 94 263.5 76Q300 58 350 58Q414 58 462.5 91.5Q511 125 542.5 176.5Q574 228 590 290Q606 352 606 409Q606 458 594.5 501Q583 544 559 575Q535 606 498.5 624Q462 642 412 642Q347 642 299 608.5Q251 575 219.5 523.5Q188 472 172 410Q156 348 156 291ZM429 900H487L578 781L532 746L453 843L333 745L293 786Z" glyph-name="Ocircumflex" horiz-adv-x="721" unicode="&#212;" /><glyph d="M344 -12Q279 -12 227.5 9Q176 30 140 69Q104 108 85 164Q66 220 66 290Q66 373 89.5 449Q113 525 158 583.5Q203 642 268.5 677Q334 712 418 712Q482 712 533.5 691Q585 670 621 631Q657 592 676.5 536Q696 480 696 410Q696 327 672.5 251Q649 175 604 116.5Q559 58 493.5 23Q428 -12 344 -12ZM156 291Q156 241 167.5 198.5Q179 156 203 125Q227 94 263.5 76Q300 58 350 58Q414 58 462.5 91.5Q511 125 542.5 176.5Q574 228 590 290Q606 352 606 409Q606 458 594.5 501Q583 544 559 575Q535 606 498.5 624Q462 642 412 642Q347 642 299 608.5Q251 575 219.5 523.5Q188 472 172 410Q156 348 156 291ZM304 820Q304 843 319 857.5Q334 872 357 872Q380 872 395 857.5Q410 843 410 820Q410 798 395 782.5Q380 767 357 767Q334 767 319 782.5Q304 798 304 820ZM496 820Q496 843 511 857.5Q526 872 549 872Q572 872 587 857.5Q602 843 602 820Q602 798 587 782.5Q572 767 549 767Q526 767 511 782.5Q496 798 496 820Z" glyph-name="Odieresis" horiz-adv-x="721" unicode="&#214;" /><glyph d="M344 -12Q279 -12 227.5 9Q176 30 140 69Q104 108 85 164Q66 220 66 290Q66 373 89.5 449Q113 525 158 583.5Q203 642 268.5 677Q334 712 418 712Q482 712 533.5 691Q585 670 621 631Q657 592 676.5 536Q696 480 696 410Q696 327 672.5 251Q649 175 604 116.5Q559 58 493.5 23Q428 -12 344 -12ZM156 291Q156 241 167.5 198.5Q179 156 203 125Q227 94 263.5 76Q300 58 350 58Q414 58 462.5 91.5Q511 125 542.5 176.5Q574 228 590 290Q606 352 606 409Q606 458 594.5 501Q583 544 559 575Q535 606 498.5 624Q462 642 412 642Q347 642 299 608.5Q251 575 219.5 523.5Q188 472 172 410Q156 348 156 291ZM360 857 410 916 556 790 522 749Z" glyph-name="Ograve" horiz-adv-x="721" unicode="&#210;" /><glyph d="M344 -12Q279 -12 227.5 9Q176 30 140 69Q104 108 85 164Q66 220 66 290Q66 373 89.5 449Q113 525 158 583.5Q203 642 268.5 677Q334 712 418 712Q482 712 533.5 691Q585 670 621 631Q657 592 676.5 536Q696 480 696 410Q696 327 672.5 251Q649 175 604 116.5Q559 58 493.5 23Q428 -12 344 -12ZM156 291Q156 241 167.5 198.5Q179 156 203 125Q227 94 263.5 76Q300 58 350 58Q414 58 462.5 91.5Q511 125 542.5 176.5Q574 228 590 290Q606 352 606 409Q606 458 594.5 501Q583 544 559 575Q535 606 498.5 624Q462 642 412 642Q347 642 299 608.5Q251 575 219.5 523.5Q188 472 172 410Q156 348 156 291ZM494 853 312 749 290 796 463 917ZM692 853 510 749 488 796 661 917Z" glyph-name="Ohungarumlaut" horiz-adv-x="721" unicode="&#336;" /><glyph d="M344 -12Q279 -12 227.5 9Q176 30 140 69Q104 108 85 164Q66 220 66 290Q66 373 89.5 449Q113 525 158 583.5Q203 642 268.5 677Q334 712 418 712Q482 712 533.5 691Q585 670 621 631Q657 592 676.5 536Q696 480 696 410Q696 327 672.5 251Q649 175 604 116.5Q559 58 493.5 23Q428 -12 344 -12ZM156 291Q156 241 167.5 198.5Q179 156 203 125Q227 94 263.5 76Q300 58 350 58Q414 58 462.5 91.5Q511 125 542.5 176.5Q574 228 590 290Q606 352 606 409Q606 458 594.5 501Q583 544 559 575Q535 606 498.5 624Q462 642 412 642Q347 642 299 608.5Q251 575 219.5 523.5Q188 472 172 410Q156 348 156 291ZM320 836H579L569 777H310Z" glyph-name="Omacron" horiz-adv-x="721" unicode="&#332;" /><glyph d="M49 -19 131 83Q68 161 68 290Q68 373 91.5 449Q115 525 160 583.5Q205 642 270.5 677Q336 712 420 712Q472 712 515 698.5Q558 685 592 659L667 752L717 712L638 613Q698 535 698 410Q698 327 674.5 251Q651 175 606 116.5Q561 58 495.5 23Q430 -12 346 -12Q244 -12 177 38L99 -59ZM158 291Q158 211 187 153L542 596Q519 618 487 630Q455 642 414 642Q349 642 301 608.5Q253 575 221.5 523.5Q190 472 174 410Q158 348 158 291ZM608 409Q608 485 581 542L227 101Q250 81 281 69.5Q312 58 352 58Q416 58 464.5 91.5Q513 125 544.5 176.5Q576 228 592 290Q608 352 608 409Z" glyph-name="Oslash" horiz-adv-x="723" unicode="&#216;" /><glyph d="M344 -12Q279 -12 227.5 9Q176 30 140 69Q104 108 85 164Q66 220 66 290Q66 373 89.5 449Q113 525 158 583.5Q203 642 268.5 677Q334 712 418 712Q482 712 533.5 691Q585 670 621 631Q657 592 676.5 536Q696 480 696 410Q696 327 672.5 251Q649 175 604 116.5Q559 58 493.5 23Q428 -12 344 -12ZM156 291Q156 241 167.5 198.5Q179 156 203 125Q227 94 263.5 76Q300 58 350 58Q414 58 462.5 91.5Q511 125 542.5 176.5Q574 228 590 290Q606 352 606 409Q606 458 594.5 501Q583 544 559 575Q535 606 498.5 624Q462 642 412 642Q347 642 299 608.5Q251 575 219.5 523.5Q188 472 172 410Q156 348 156 291ZM387 875Q412 875 429.5 867Q447 859 461.5 849.5Q476 840 489.5 832Q503 824 520 824Q536 824 548.5 831Q561 838 569 847Q579 857 586 870L626 830Q615 812 598 798Q584 786 563 776.5Q542 767 513 767Q488 767 470.5 775Q453 783 438.5 792Q424 801 411 809Q398 817 381 817Q364 817 351.5 809.5Q339 802 331 794Q321 784 314 772L274 812Q285 829 302 843Q316 855 337 865Q358 875 387 875Z" glyph-name="Otilde" horiz-adv-x="721" unicode="&#213;" /><glyph d="M185 285 135 0H48L171 700H406Q506 700 562 657.5Q618 615 618 520Q618 461 597.5 416.5Q577 372 541 343Q505 314 456 299.5Q407 285 350 285ZM530 516Q530 577 494.5 603.5Q459 630 378 630H246L198 355H330Q432 355 481 398.5Q530 442 530 516Z" glyph-name="P" horiz-adv-x="601" unicode="P" /><glyph d="M347 -12Q282 -12 230.5 9Q179 30 143 69Q107 108 88 164Q69 220 69 290Q69 373 92.5 449Q116 525 161 583.5Q206 642 271.5 677Q337 712 421 712Q485 712 536.5 691Q588 670 624 631Q660 592 679.5 536Q699 480 699 410Q699 355 688.5 303Q678 251 658 204.5Q638 158 608.5 119Q579 80 541 51L599 -23L541 -67L479 14Q449 2 416 -5Q383 -12 347 -12ZM159 291Q159 241 170.5 198.5Q182 156 206 125Q230 94 266.5 76Q303 58 353 58Q395 58 433 74L372 155L428 198L493 113Q522 139 544 174Q566 209 580.5 248.5Q595 288 602 329Q609 370 609 409Q609 458 597.5 501Q586 544 562 575Q538 606 501.5 624Q465 642 415 642Q350 642 302 608.5Q254 575 222.5 523.5Q191 472 175 410Q159 348 159 291Z" glyph-name="Q" horiz-adv-x="728" unicode="Q" /><glyph d="M619 528Q619 484 603.5 447Q588 410 561 382.5Q534 355 497 337Q460 319 417 313L549 0H452L327 308H188L134 0H48L171 700H414Q442 700 477.5 692.5Q513 685 544.5 666Q576 647 597.5 613.5Q619 580 619 528ZM531 528Q531 582 492.5 606Q454 630 382 630H245L201 377H353Q401 377 434.5 390.5Q468 404 489.5 426Q511 448 521 475Q531 502 531 528Z" glyph-name="R" horiz-adv-x="631" unicode="R" /><glyph d="M619 528Q619 484 603.5 447Q588 410 561 382.5Q534 355 497 337Q460 319 417 313L549 0H452L327 308H188L134 0H48L171 700H414Q442 700 477.5 692.5Q513 685 544.5 666Q576 647 597.5 613.5Q619 580 619 528ZM531 528Q531 582 492.5 606Q454 630 382 630H245L201 377H353Q401 377 434.5 390.5Q468 404 489.5 426Q511 448 521 475Q531 502 531 528ZM520 852 328 748 306 795 489 916Z" glyph-name="Racute" horiz-adv-x="631" unicode="&#340;" /><glyph d="M619 528Q619 484 603.5 447Q588 410 561 382.5Q534 355 497 337Q460 319 417 313L549 0H452L327 308H188L134 0H48L171 700H414Q442 700 477.5 692.5Q513 685 544.5 666Q576 647 597.5 613.5Q619 580 619 528ZM531 528Q531 582 492.5 606Q454 630 382 630H245L201 377H353Q401 377 434.5 390.5Q468 404 489.5 426Q511 448 521 475Q531 502 531 528ZM417 752H359L268 871L314 906L393 809L513 907L553 866Z" glyph-name="Rcaron" horiz-adv-x="631" unicode="&#344;" /><glyph d="M619 528Q619 484 603.5 447Q588 410 561 382.5Q534 355 497 337Q460 319 417 313L549 0H452L327 308H188L134 0H48L171 700H414Q442 700 477.5 692.5Q513 685 544.5 666Q576 647 597.5 613.5Q619 580 619 528ZM531 528Q531 582 492.5 606Q454 630 382 630H245L201 377H353Q401 377 434.5 390.5Q468 404 489.5 426Q511 448 521 475Q531 502 531 528ZM322 -117Q322 -130 317.5 -147.5Q313 -165 301 -181Q289 -197 269 -209Q249 -221 218 -222L209 -189Q232 -189 249.5 -178Q267 -167 269 -145Q268 -146 267 -146H260Q243 -145 231 -132.5Q219 -120 219 -103Q219 -86 231.5 -69.5Q244 -53 270 -53Q296 -53 309 -72Q322 -91 322 -117Z" glyph-name="Rcommaaccent" horiz-adv-x="631" unicode="&#342;" /><glyph d="M211 517Q211 493 218.5 476Q226 459 243.5 445.5Q261 432 289 421Q317 410 358 399Q409 385 447.5 368.5Q486 352 511.5 329Q537 306 550 275.5Q563 245 563 204Q563 157 545.5 117.5Q528 78 494.5 49.5Q461 21 412.5 4.5Q364 -12 302 -12Q233 -12 183.5 5.5Q134 23 102.5 52.5Q71 82 56.5 121.5Q42 161 43 205L128 216Q128 187 136 158.5Q144 130 163.5 107.5Q183 85 217 71.5Q251 58 302 58Q385 58 428 96Q471 134 471 198Q471 223 463 241.5Q455 260 436.5 274.5Q418 289 388 301Q358 313 314 325Q261 339 224.5 355.5Q188 372 165 394Q142 416 131.5 444.5Q121 473 121 511Q121 556 139.5 593Q158 630 190 656.5Q222 683 266.5 697.5Q311 712 363 712Q422 712 466.5 697Q511 682 541.5 656Q572 630 588.5 595Q605 560 608 519L521 501Q521 565 482.5 603.5Q444 642 363 642Q291 642 251 608Q211 574 211 517Z" glyph-name="S" horiz-adv-x="623" unicode="S" /><glyph d="M211 517Q211 493 218.5 476Q226 459 243.5 445.5Q261 432 289 421Q317 410 358 399Q409 385 447.5 368.5Q486 352 511.5 329Q537 306 550 275.5Q563 245 563 204Q563 157 545.5 117.5Q528 78 494.5 49.5Q461 21 412.5 4.5Q364 -12 302 -12Q233 -12 183.5 5.5Q134 23 102.5 52.5Q71 82 56.5 121.5Q42 161 43 205L128 216Q128 187 136 158.5Q144 130 163.5 107.5Q183 85 217 71.5Q251 58 302 58Q385 58 428 96Q471 134 471 198Q471 223 463 241.5Q455 260 436.5 274.5Q418 289 388 301Q358 313 314 325Q261 339 224.5 355.5Q188 372 165 394Q142 416 131.5 444.5Q121 473 121 511Q121 556 139.5 593Q158 630 190 656.5Q222 683 266.5 697.5Q311 712 363 712Q422 712 466.5 697Q511 682 541.5 656Q572 630 588.5 595Q605 560 608 519L521 501Q521 565 482.5 603.5Q444 642 363 642Q291 642 251 608Q211 574 211 517ZM514 852 322 748 300 795 483 916Z" glyph-name="Sacute" horiz-adv-x="623" unicode="&#346;" /><glyph d="M211 517Q211 493 218.5 476Q226 459 243.5 445.5Q261 432 289 421Q317 410 358 399Q409 385 447.5 368.5Q486 352 511.5 329Q537 306 550 275.5Q563 245 563 204Q563 157 545.5 117.5Q528 78 494.5 49.5Q461 21 412.5 4.5Q364 -12 302 -12Q233 -12 183.5 5.5Q134 23 102.5 52.5Q71 82 56.5 121.5Q42 161 43 205L128 216Q128 187 136 158.5Q144 130 163.5 107.5Q183 85 217 71.5Q251 58 302 58Q385 58 428 96Q471 134 471 198Q471 223 463 241.5Q455 260 436.5 274.5Q418 289 388 301Q358 313 314 325Q261 339 224.5 355.5Q188 372 165 394Q142 416 131.5 444.5Q121 473 121 511Q121 556 139.5 593Q158 630 190 656.5Q222 683 266.5 697.5Q311 712 363 712Q422 712 466.5 697Q511 682 541.5 656Q572 630 588.5 595Q605 560 608 519L521 501Q521 565 482.5 603.5Q444 642 363 642Q291 642 251 608Q211 574 211 517ZM419 752H361L270 871L316 906L395 809L515 907L555 866Z" glyph-name="Scaron" horiz-adv-x="623" unicode="&#352;" /><glyph d="M276 -49Q305 -49 324.5 -69.5Q344 -90 344 -124Q344 -171 313 -197Q282 -223 236 -223Q205 -223 185.5 -213Q166 -203 158 -194L189 -156Q195 -162 207.5 -168.5Q220 -175 239 -175Q260 -175 273 -162Q286 -149 286 -128Q286 -93 249 -93Q235 -93 226 -97Q217 -101 209 -106L187 -79L229 -6Q179 3 143.5 22.5Q108 42 85.5 70Q63 98 52.5 132.5Q42 167 43 205L128 216Q128 187 136 158.5Q144 130 163.5 107.5Q183 85 217 71.5Q251 58 302 58Q385 58 428 96Q471 134 471 198Q471 223 463 241.5Q455 260 436.5 274.5Q418 289 388 301Q358 313 314 325Q261 339 224.5 355.5Q188 372 165 394Q142 416 131.5 444.5Q121 473 121 511Q121 556 139.5 593Q158 630 190 656.5Q222 683 266.5 697.5Q311 712 363 712Q422 712 466.5 697Q511 682 541.5 656Q572 630 588.5 595Q605 560 608 519L521 501Q521 565 482.5 603.5Q444 642 363 642Q291 642 251 608Q211 574 211 517Q211 493 218.5 476Q226 459 243.5 445.5Q261 432 289 421Q317 410 358 399Q409 385 447.5 368.5Q486 352 511.5 329Q537 306 550 275.5Q563 245 563 204Q563 157 545.5 117.5Q528 78 494.5 49.5Q461 21 412.5 4.5Q364 -12 302 -12Q294 -12 287 -12Q280 -12 273 -11L248 -57Q259 -49 276 -49Z" glyph-name="Scedilla" horiz-adv-x="623" unicode="&#350;" /><glyph d="M211 517Q211 493 218.5 476Q226 459 243.5 445.5Q261 432 289 421Q317 410 358 399Q409 385 447.5 368.5Q486 352 511.5 329Q537 306 550 275.5Q563 245 563 204Q563 157 545.5 117.5Q528 78 494.5 49.5Q461 21 412.5 4.5Q364 -12 302 -12Q233 -12 183.5 5.5Q134 23 102.5 52.5Q71 82 56.5 121.5Q42 161 43 205L128 216Q128 187 136 158.5Q144 130 163.5 107.5Q183 85 217 71.5Q251 58 302 58Q385 58 428 96Q471 134 471 198Q471 223 463 241.5Q455 260 436.5 274.5Q418 289 388 301Q358 313 314 325Q261 339 224.5 355.5Q188 372 165 394Q142 416 131.5 444.5Q121 473 121 511Q121 556 139.5 593Q158 630 190 656.5Q222 683 266.5 697.5Q311 712 363 712Q422 712 466.5 697Q511 682 541.5 656Q572 630 588.5 595Q605 560 608 519L521 501Q521 565 482.5 603.5Q444 642 363 642Q291 642 251 608Q211 574 211 517ZM379 900H437L528 781L482 746L403 843L283 745L243 786Z" glyph-name="Scircumflex" horiz-adv-x="623" unicode="&#348;" /><glyph d="M211 517Q211 493 218.5 476Q226 459 243.5 445.5Q261 432 289 421Q317 410 358 399Q409 385 447.5 368.5Q486 352 511.5 329Q537 306 550 275.5Q563 245 563 204Q563 157 545.5 117.5Q528 78 494.5 49.5Q461 21 412.5 4.5Q364 -12 302 -12Q233 -12 183.5 5.5Q134 23 102.5 52.5Q71 82 56.5 121.5Q42 161 43 205L128 216Q128 187 136 158.5Q144 130 163.5 107.5Q183 85 217 71.5Q251 58 302 58Q385 58 428 96Q471 134 471 198Q471 223 463 241.5Q455 260 436.5 274.5Q418 289 388 301Q358 313 314 325Q261 339 224.5 355.5Q188 372 165 394Q142 416 131.5 444.5Q121 473 121 511Q121 556 139.5 593Q158 630 190 656.5Q222 683 266.5 697.5Q311 712 363 712Q422 712 466.5 697Q511 682 541.5 656Q572 630 588.5 595Q605 560 608 519L521 501Q521 565 482.5 603.5Q444 642 363 642Q291 642 251 608Q211 574 211 517ZM326 -117Q326 -130 321.5 -147.5Q317 -165 305 -181Q293 -197 273 -209Q253 -221 222 -222L213 -189Q236 -189 253.5 -178Q271 -167 273 -145Q272 -146 271 -146H264Q247 -145 235 -132.5Q223 -120 223 -103Q223 -86 235.5 -69.5Q248 -53 274 -53Q300 -53 313 -72Q326 -91 326 -117Z" glyph-name="Scommaaccent" horiz-adv-x="623" unicode="&#536;" /><glyph d="M104 700H605L593 630H386L275 0H188L299 630H92Z" glyph-name="T" horiz-adv-x="547" unicode="T" /><glyph d="M104 700H605L593 630H386L351 430H489L477 362H339L275 0H188L252 362H114L126 430H264L299 630H92Z" glyph-name="Tbar" horiz-adv-x="547" unicode="&#358;" /><glyph d="M104 700H605L593 630H386L275 0H188L299 630H92ZM392 752H334L243 871L289 906L368 809L488 907L528 866Z" glyph-name="Tcaron" horiz-adv-x="547" unicode="&#356;" /><glyph d="M104 700H605L593 630H386L275 0H188L299 630H92ZM270 -117Q270 -130 265.5 -147.5Q261 -165 249 -181Q237 -197 217 -209Q197 -221 166 -222L157 -189Q180 -189 197.5 -178Q215 -167 217 -145Q216 -146 215 -146H208Q191 -145 179 -132.5Q167 -120 167 -103Q167 -86 179.5 -69.5Q192 -53 218 -53Q244 -53 257 -72Q270 -91 270 -117Z" glyph-name="Tcommaaccent" horiz-adv-x="547" unicode="&#354;" /><glyph d="M48 0 171 700H258L236 572H384Q484 572 540 529.5Q596 487 596 392Q596 333 575.5 288.5Q555 244 519 215Q483 186 434 171.5Q385 157 328 157H163L135 0ZM507 388Q507 449 471.5 475.5Q436 502 356 502H224L176 227H308Q409 227 458 270.5Q507 314 507 388Z" glyph-name="Thorn" horiz-adv-x="601" unicode="&#222;" /><glyph d="M312 -12Q242 -12 194 6.5Q146 25 118.5 59Q91 93 83 141Q75 189 86 249L166 700H253L173 248Q167 215 169 181Q171 147 185 119.5Q199 92 228.5 75Q258 58 308 58Q356 58 391 74.5Q426 91 450 117.5Q474 144 488.5 178Q503 212 509 248L589 700H676L596 249Q572 113 501 50.5Q430 -12 312 -12Z" glyph-name="U" horiz-adv-x="679" unicode="U" /><glyph d="M312 -12Q242 -12 194 6.5Q146 25 118.5 59Q91 93 83 141Q75 189 86 249L166 700H253L173 248Q167 215 169 181Q171 147 185 119.5Q199 92 228.5 75Q258 58 308 58Q356 58 391 74.5Q426 91 450 117.5Q474 144 488.5 178Q503 212 509 248L589 700H676L596 249Q572 113 501 50.5Q430 -12 312 -12ZM555 852 363 748 341 795 524 916Z" glyph-name="Uacute" horiz-adv-x="679" unicode="&#218;" /><glyph d="M312 -12Q242 -12 194 6.5Q146 25 118.5 59Q91 93 83 141Q75 189 86 249L166 700H253L173 248Q167 215 169 181Q171 147 185 119.5Q199 92 228.5 75Q258 58 308 58Q356 58 391 74.5Q426 91 450 117.5Q474 144 488.5 178Q503 212 509 248L589 700H676L596 249Q572 113 501 50.5Q430 -12 312 -12ZM353 891Q354 860 374 838Q394 816 429 816Q464 816 490.5 838Q517 860 527 891L593 871Q577 825 533.5 792.5Q490 760 427 760Q367 760 329.5 791Q292 822 287 871Z" glyph-name="Ubreve" horiz-adv-x="679" unicode="&#364;" /><glyph d="M312 -12Q242 -12 194 6.5Q146 25 118.5 59Q91 93 83 141Q75 189 86 249L166 700H253L173 248Q167 215 169 181Q171 147 185 119.5Q199 92 228.5 75Q258 58 308 58Q356 58 391 74.5Q426 91 450 117.5Q474 144 488.5 178Q503 212 509 248L589 700H676L596 249Q572 113 501 50.5Q430 -12 312 -12ZM417 900H475L566 781L520 746L441 843L321 745L281 786Z" glyph-name="Ucircumflex" horiz-adv-x="679" unicode="&#219;" /><glyph d="M312 -12Q242 -12 194 6.5Q146 25 118.5 59Q91 93 83 141Q75 189 86 249L166 700H253L173 248Q167 215 169 181Q171 147 185 119.5Q199 92 228.5 75Q258 58 308 58Q356 58 391 74.5Q426 91 450 117.5Q474 144 488.5 178Q503 212 509 248L589 700H676L596 249Q572 113 501 50.5Q430 -12 312 -12ZM285 820Q285 843 300 857.5Q315 872 338 872Q361 872 376 857.5Q391 843 391 820Q391 798 376 782.5Q361 767 338 767Q315 767 300 782.5Q285 798 285 820ZM477 820Q477 843 492 857.5Q507 872 530 872Q553 872 568 857.5Q583 843 583 820Q583 798 568 782.5Q553 767 530 767Q507 767 492 782.5Q477 798 477 820Z" glyph-name="Udieresis" horiz-adv-x="679" unicode="&#220;" /><glyph d="M312 -12Q242 -12 194 6.5Q146 25 118.5 59Q91 93 83 141Q75 189 86 249L166 700H253L173 248Q167 215 169 181Q171 147 185 119.5Q199 92 228.5 75Q258 58 308 58Q356 58 391 74.5Q426 91 450 117.5Q474 144 488.5 178Q503 212 509 248L589 700H676L596 249Q572 113 501 50.5Q430 -12 312 -12ZM324 857 374 916 520 790 486 749Z" glyph-name="Ugrave" horiz-adv-x="679" unicode="&#217;" /><glyph d="M312 -12Q242 -12 194 6.5Q146 25 118.5 59Q91 93 83 141Q75 189 86 249L166 700H253L173 248Q167 215 169 181Q171 147 185 119.5Q199 92 228.5 75Q258 58 308 58Q356 58 391 74.5Q426 91 450 117.5Q474 144 488.5 178Q503 212 509 248L589 700H676L596 249Q572 113 501 50.5Q430 -12 312 -12ZM489 853 307 749 285 796 458 917ZM687 853 505 749 483 796 656 917Z" glyph-name="Uhungarumlaut" horiz-adv-x="679" unicode="&#368;" /><glyph d="M312 -12Q242 -12 194 6.5Q146 25 118.5 59Q91 93 83 141Q75 189 86 249L166 700H253L173 248Q167 215 169 181Q171 147 185 119.5Q199 92 228.5 75Q258 58 308 58Q356 58 391 74.5Q426 91 450 117.5Q474 144 488.5 178Q503 212 509 248L589 700H676L596 249Q572 113 501 50.5Q430 -12 312 -12ZM310 836H569L559 777H300Z" glyph-name="Umacron" horiz-adv-x="679" unicode="&#362;" /><glyph d="M305 -108Q305 -123 314.5 -133Q324 -143 341 -143Q372 -143 395 -111L424 -147Q401 -175 376 -185Q351 -195 325 -195Q311 -195 295.5 -192Q280 -189 267.5 -180.5Q255 -172 247 -157.5Q239 -143 239 -120Q239 -82 260.5 -55.5Q282 -29 311 -12Q241 -12 193.5 6.5Q146 25 118.5 59Q91 93 83 141Q75 189 86 249L166 700H253L173 248Q167 215 169 181Q171 147 185 119.5Q199 92 228.5 75Q258 58 308 58Q356 58 391 74.5Q426 91 450 117.5Q474 144 488.5 178Q503 212 509 248L589 700H676L596 249Q579 155 541 98Q503 41 444 12Q377 -20 341 -49.5Q305 -79 305 -108Z" glyph-name="Uogonek" horiz-adv-x="679" unicode="&#370;" /><glyph d="M312 -12Q242 -12 194 6.5Q146 25 118.5 59Q91 93 83 141Q75 189 86 249L166 700H253L173 248Q167 215 169 181Q171 147 185 119.5Q199 92 228.5 75Q258 58 308 58Q356 58 391 74.5Q426 91 450 117.5Q474 144 488.5 178Q503 212 509 248L589 700H676L596 249Q572 113 501 50.5Q430 -12 312 -12ZM385 831Q385 812 397.5 798Q410 784 430 784Q453 784 468.5 800.5Q484 817 484 840Q484 859 472 872Q460 885 439 885Q416 885 400.5 869.5Q385 854 385 831ZM337 829Q337 871 365.5 899Q394 927 441 927Q483 927 507.5 903.5Q532 880 532 842Q532 800 503 771Q474 742 428 742Q386 742 361.5 766.5Q337 791 337 829Z" glyph-name="Uring" horiz-adv-x="679" unicode="&#366;" /><glyph d="M312 -12Q242 -12 194 6.5Q146 25 118.5 59Q91 93 83 141Q75 189 86 249L166 700H253L173 248Q167 215 169 181Q171 147 185 119.5Q199 92 228.5 75Q258 58 308 58Q356 58 391 74.5Q426 91 450 117.5Q474 144 488.5 178Q503 212 509 248L589 700H676L596 249Q572 113 501 50.5Q430 -12 312 -12ZM370 875Q395 875 412.5 867Q430 859 444.5 849.5Q459 840 472.5 832Q486 824 503 824Q519 824 531.5 831Q544 838 552 847Q562 857 569 870L609 830Q598 812 581 798Q567 786 546 776.5Q525 767 496 767Q471 767 453.5 775Q436 783 421.5 792Q407 801 394 809Q381 817 364 817Q347 817 334.5 809.5Q322 802 314 794Q304 784 297 772L257 812Q268 829 285 843Q299 855 320 865Q341 875 370 875Z" glyph-name="Utilde" horiz-adv-x="679" unicode="&#360;" /><glyph d="M186 700Q208 581 227 471Q235 424 244 374Q253 324 261 276.5Q269 229 275.5 186.5Q282 144 287 111H289Q305 144 327 186.5Q349 229 374 276.5Q399 324 425.5 374Q452 424 478 471Q537 581 602 700H693L311 0H231L98 700Z" glyph-name="V" horiz-adv-x="629" unicode="V" /><glyph d="M973 700 653 0H567Q555 123 544 234Q539 281 534.5 330Q530 379 526.5 424.5Q523 470 520 508.5Q517 547 516 574H514Q503 547 486 508.5Q469 470 448.5 424.5Q428 379 406 330Q384 281 363 234Q313 123 256 0H170L98 700H182Q194 574 205 460Q209 412 213.5 361.5Q218 311 221.5 265Q225 219 227.5 179.5Q230 140 231 113H233Q244 140 261 179.5Q278 219 298.5 265Q319 311 341.5 361.5Q364 412 386 460Q437 574 495 700H576Q588 569 599 454Q603 405 607.5 354.5Q612 304 615.5 258Q619 212 621.5 174.5Q624 137 625 113H627Q637 137 653 174.5Q669 212 689.5 258Q710 304 732.5 354.5Q755 405 777 454Q829 569 889 700Z" glyph-name="W" horiz-adv-x="909" unicode="W" /><glyph d="M973 700 653 0H567Q555 123 544 234Q539 281 534.5 330Q530 379 526.5 424.5Q523 470 520 508.5Q517 547 516 574H514Q503 547 486 508.5Q469 470 448.5 424.5Q428 379 406 330Q384 281 363 234Q313 123 256 0H170L98 700H182Q194 574 205 460Q209 412 213.5 361.5Q218 311 221.5 265Q225 219 227.5 179.5Q230 140 231 113H233Q244 140 261 179.5Q278 219 298.5 265Q319 311 341.5 361.5Q364 412 386 460Q437 574 495 700H576Q588 569 599 454Q603 405 607.5 354.5Q612 304 615.5 258Q619 212 621.5 174.5Q624 137 625 113H627Q637 137 653 174.5Q669 212 689.5 258Q710 304 732.5 354.5Q755 405 777 454Q829 569 889 700ZM673 852 481 748 459 795 642 916Z" glyph-name="Wacute" horiz-adv-x="909" unicode="&#7810;" /><glyph d="M973 700 653 0H567Q555 123 544 234Q539 281 534.5 330Q530 379 526.5 424.5Q523 470 520 508.5Q517 547 516 574H514Q503 547 486 508.5Q469 470 448.5 424.5Q428 379 406 330Q384 281 363 234Q313 123 256 0H170L98 700H182Q194 574 205 460Q209 412 213.5 361.5Q218 311 221.5 265Q225 219 227.5 179.5Q230 140 231 113H233Q244 140 261 179.5Q278 219 298.5 265Q319 311 341.5 361.5Q364 412 386 460Q437 574 495 700H576Q588 569 599 454Q603 405 607.5 354.5Q612 304 615.5 258Q619 212 621.5 174.5Q624 137 625 113H627Q637 137 653 174.5Q669 212 689.5 258Q710 304 732.5 354.5Q755 405 777 454Q829 569 889 700ZM537 900H595L686 781L640 746L561 843L441 745L401 786Z" glyph-name="Wcircumflex" horiz-adv-x="909" unicode="&#372;" /><glyph d="M973 700 653 0H567Q555 123 544 234Q539 281 534.5 330Q530 379 526.5 424.5Q523 470 520 508.5Q517 547 516 574H514Q503 547 486 508.5Q469 470 448.5 424.5Q428 379 406 330Q384 281 363 234Q313 123 256 0H170L98 700H182Q194 574 205 460Q209 412 213.5 361.5Q218 311 221.5 265Q225 219 227.5 179.5Q230 140 231 113H233Q244 140 261 179.5Q278 219 298.5 265Q319 311 341.5 361.5Q364 412 386 460Q437 574 495 700H576Q588 569 599 454Q603 405 607.5 354.5Q612 304 615.5 258Q619 212 621.5 174.5Q624 137 625 113H627Q637 137 653 174.5Q669 212 689.5 258Q710 304 732.5 354.5Q755 405 777 454Q829 569 889 700ZM401 820Q401 843 416 857.5Q431 872 454 872Q477 872 492 857.5Q507 843 507 820Q507 798 492 782.5Q477 767 454 767Q431 767 416 782.5Q401 798 401 820ZM593 820Q593 843 608 857.5Q623 872 646 872Q669 872 684 857.5Q699 843 699 820Q699 798 684 782.5Q669 767 646 767Q623 767 608 782.5Q593 798 593 820Z" glyph-name="Wdieresis" horiz-adv-x="909" unicode="&#7812;" /><glyph d="M973 700 653 0H567Q555 123 544 234Q539 281 534.5 330Q530 379 526.5 424.5Q523 470 520 508.5Q517 547 516 574H514Q503 547 486 508.5Q469 470 448.5 424.5Q428 379 406 330Q384 281 363 234Q313 123 256 0H170L98 700H182Q194 574 205 460Q209 412 213.5 361.5Q218 311 221.5 265Q225 219 227.5 179.5Q230 140 231 113H233Q244 140 261 179.5Q278 219 298.5 265Q319 311 341.5 361.5Q364 412 386 460Q437 574 495 700H576Q588 569 599 454Q603 405 607.5 354.5Q612 304 615.5 258Q619 212 621.5 174.5Q624 137 625 113H627Q637 137 653 174.5Q669 212 689.5 258Q710 304 732.5 354.5Q755 405 777 454Q829 569 889 700ZM444 857 494 916 640 790 606 749Z" glyph-name="Wgrave" horiz-adv-x="909" unicode="&#7808;" /><glyph d="M227 700 362 437 588 700H694L400 364L592 0H494L339 296L83 0H-24L299 370L129 700Z" glyph-name="X" horiz-adv-x="657" unicode="X" /><glyph d="M277 307 92 700H186L331 385L589 700H688L364 307L310 0H223Z" glyph-name="Y" horiz-adv-x="618" unicode="Y" /><glyph d="M277 307 92 700H186L331 385L589 700H688L364 307L310 0H223ZM525 852 333 748 311 795 494 916Z" glyph-name="Yacute" horiz-adv-x="618" unicode="&#221;" /><glyph d="M277 307 92 700H186L331 385L589 700H688L364 307L310 0H223ZM383 900H441L532 781L486 746L407 843L287 745L247 786Z" glyph-name="Ycircumflex" horiz-adv-x="618" unicode="&#374;" /><glyph d="M277 307 92 700H186L331 385L589 700H688L364 307L310 0H223ZM245 820Q245 843 260 857.5Q275 872 298 872Q321 872 336 857.5Q351 843 351 820Q351 798 336 782.5Q321 767 298 767Q275 767 260 782.5Q245 798 245 820ZM437 820Q437 843 452 857.5Q467 872 490 872Q513 872 528 857.5Q543 843 543 820Q543 798 528 782.5Q513 767 490 767Q467 767 452 782.5Q437 798 437 820Z" glyph-name="Ydieresis" horiz-adv-x="618" unicode="&#376;" /><glyph d="M140 700H651L641 639L126 69H536L524 0H3L13 59L529 630H128Z" glyph-name="Z" horiz-adv-x="617" unicode="Z" /><glyph d="M140 700H651L641 639L126 69H536L524 0H3L13 59L529 630H128ZM540 852 348 748 326 795 509 916Z" glyph-name="Zacute" horiz-adv-x="617" unicode="&#377;" /><glyph d="M140 700H651L641 639L126 69H536L524 0H3L13 59L529 630H128ZM430 752H372L281 871L327 906L406 809L526 907L566 866Z" glyph-name="Zcaron" horiz-adv-x="617" unicode="&#142;" /><glyph d="M140 700H651L641 639L126 69H536L524 0H3L13 59L529 630H128ZM356 819Q356 843 371.5 858.5Q387 874 412 874Q437 874 452.5 858.5Q468 843 468 819Q468 796 452.5 780.5Q437 765 412 765Q387 765 371.5 780.5Q356 796 356 819Z" glyph-name="Zdotaccent" horiz-adv-x="617" unicode="&#379;" /><glyph d="M321 0Q319 6 318 23.5Q317 41 321 62Q301 33 261.5 10.5Q222 -12 173 -12Q143 -12 115 -4Q87 4 65.5 20Q44 36 31.5 60Q19 84 19 117Q19 166 47 198.5Q75 231 122 249.5Q169 268 230.5 275.5Q292 283 359 283L364 312Q372 360 354 390Q336 420 279 420Q225 420 193.5 392.5Q162 365 156 329L74 341Q83 378 103.5 405.5Q124 433 152.5 450Q181 467 214.5 475.5Q248 484 284 484Q326 484 359.5 472.5Q393 461 414.5 439Q436 417 444.5 384Q453 351 446 309L402 64Q400 51 399.5 42Q399 33 399.5 26Q400 19 401 13Q402 7 403 0ZM196 53Q221 53 245.5 62.5Q270 72 289.5 89.5Q309 107 322.5 130.5Q336 154 341 182L348 223Q294 223 249 218Q204 213 172 202Q140 191 122 173Q104 155 104 129Q104 53 196 53Z" glyph-name="a" horiz-adv-x="500" unicode="a" /><glyph d="M444 0H365L377 69Q369 54 354.5 39.5Q340 25 321.5 13.5Q303 2 280 -5Q257 -12 231 -12Q143 -12 91.5 45Q40 102 40 201Q40 264 59.5 316.5Q79 369 112 406Q145 443 189 463.5Q233 484 282 484Q345 484 383 458.5Q421 433 435 401L448 472H527ZM406 256Q413 298 406 328Q399 358 382 377.5Q365 397 341 406Q317 415 291 415Q255 415 225 398Q195 381 173 352Q151 323 139 284.5Q127 246 127 202Q127 139 155.5 98Q184 57 244 57Q268 57 292.5 66Q317 75 338 93Q359 111 374.5 139Q390 167 397 205Z" glyph-name="a.school" horiz-adv-x="566" unicode="&#57681;" /><glyph d="M468 0H385L359 147H140L61 0H-24L281 564H361ZM303 461Q299 453 291.5 437.5Q284 422 274 403Q264 384 253 362.5Q242 341 231 320Q205 270 175 213H348Q338 270 329 320Q325 341 321.5 362.5Q318 384 314.5 403Q311 422 308.5 437.5Q306 453 305 461Z" glyph-name="a.smcp" horiz-adv-x="528" unicode="&#57857;" /><glyph d="M243 288Q242 293 241.5 303Q241 313 243 327Q229 307 205 293.5Q181 280 151 280Q111 280 82 300.5Q53 321 53 363Q53 394 70.5 414.5Q88 435 117.5 447.5Q147 460 185.5 464.5Q224 469 267 469L270 488Q275 515 264 531.5Q253 548 221 548Q189 548 171 532.5Q153 517 150 496L88 506Q99 552 138.5 574Q178 596 225 596Q282 596 312 567Q342 538 332 482L305 328Q302 313 302.5 305.5Q303 298 305 288ZM170 328Q199 328 224.5 348.5Q250 369 255 401L259 426Q196 426 156.5 414Q117 402 117 370Q117 328 170 328Z" glyph-name="a.superior" horiz-adv-x="339" unicode="&#58209;" /><glyph d="M333 288H272L280 332Q269 312 244.5 296Q220 280 186 280Q132 280 99 316Q66 352 66 415Q66 456 78.5 489.5Q91 523 112.5 546.5Q134 570 162 583Q190 596 221 596Q260 596 284 580.5Q308 565 317 544L325 588H386ZM298 447Q307 497 284.5 521Q262 545 229 545Q208 545 190 535Q172 525 159 507.5Q146 490 139 466.5Q132 443 132 416Q132 379 148.5 355Q165 331 200 331Q232 331 258.5 353.5Q285 376 294 424Z" glyph-name="a.superiorschool" horiz-adv-x="380" /><glyph d="M321 0Q319 6 318 23.5Q317 41 321 62Q301 33 261.5 10.5Q222 -12 173 -12Q143 -12 115 -4Q87 4 65.5 20Q44 36 31.5 60Q19 84 19 117Q19 166 47 198.5Q75 231 122 249.5Q169 268 230.5 275.5Q292 283 359 283L364 312Q372 360 354 390Q336 420 279 420Q225 420 193.5 392.5Q162 365 156 329L74 341Q83 378 103.5 405.5Q124 433 152.5 450Q181 467 214.5 475.5Q248 484 284 484Q326 484 359.5 472.5Q393 461 414.5 439Q436 417 444.5 384Q453 351 446 309L402 64Q400 51 399.5 42Q399 33 399.5 26Q400 19 401 13Q402 7 403 0ZM196 53Q221 53 245.5 62.5Q270 72 289.5 89.5Q309 107 322.5 130.5Q336 154 341 182L348 223Q294 223 249 218Q204 213 172 202Q140 191 122 173Q104 155 104 129Q104 53 196 53ZM412 637 220 533 198 580 381 701Z" glyph-name="aacute" horiz-adv-x="500" unicode="&#225;" /><glyph d="M444 0H365L377 69Q369 54 354.5 39.5Q340 25 321.5 13.5Q303 2 280 -5Q257 -12 231 -12Q143 -12 91.5 45Q40 102 40 201Q40 264 59.5 316.5Q79 369 112 406Q145 443 189 463.5Q233 484 282 484Q345 484 383 458.5Q421 433 435 401L448 472H527ZM406 256Q413 298 406 328Q399 358 382 377.5Q365 397 341 406Q317 415 291 415Q255 415 225 398Q195 381 173 352Q151 323 139 284.5Q127 246 127 202Q127 139 155.5 98Q184 57 244 57Q268 57 292.5 66Q317 75 338 93Q359 111 374.5 139Q390 167 397 205ZM429 637 237 533 215 580 398 701Z" glyph-name="aacute.school" horiz-adv-x="566" unicode="&#57683;" /><glyph d="M468 0H385L359 147H140L61 0H-24L281 564H361ZM303 461Q299 453 291.5 437.5Q284 422 274 403Q264 384 253 362.5Q242 341 231 320Q205 270 175 213H348Q338 270 329 320Q325 341 321.5 362.5Q318 384 314.5 403Q311 422 308.5 437.5Q306 453 305 461ZM448 714 256 610 234 657 417 778Z" glyph-name="aacute.smcp" horiz-adv-x="528" unicode="&#57889;" /><glyph d="M321 0Q319 6 318 23.5Q317 41 321 62Q301 33 261.5 10.5Q222 -12 173 -12Q143 -12 115 -4Q87 4 65.5 20Q44 36 31.5 60Q19 84 19 117Q19 166 47 198.5Q75 231 122 249.5Q169 268 230.5 275.5Q292 283 359 283L364 312Q372 360 354 390Q336 420 279 420Q225 420 193.5 392.5Q162 365 156 329L74 341Q83 378 103.5 405.5Q124 433 152.5 450Q181 467 214.5 475.5Q248 484 284 484Q326 484 359.5 472.5Q393 461 414.5 439Q436 417 444.5 384Q453 351 446 309L402 64Q400 51 399.5 42Q399 33 399.5 26Q400 19 401 13Q402 7 403 0ZM196 53Q221 53 245.5 62.5Q270 72 289.5 89.5Q309 107 322.5 130.5Q336 154 341 182L348 223Q294 223 249 218Q204 213 172 202Q140 191 122 173Q104 155 104 129Q104 53 196 53ZM225 673Q226 642 246 620Q266 598 301 598Q336 598 362.5 620Q389 642 399 673L465 653Q449 607 405.5 574.5Q362 542 299 542Q239 542 201.5 573Q164 604 159 653Z" glyph-name="abreve" horiz-adv-x="500" unicode="&#259;" /><glyph d="M444 0H365L377 69Q369 54 354.5 39.5Q340 25 321.5 13.5Q303 2 280 -5Q257 -12 231 -12Q143 -12 91.5 45Q40 102 40 201Q40 264 59.5 316.5Q79 369 112 406Q145 443 189 463.5Q233 484 282 484Q345 484 383 458.5Q421 433 435 401L448 472H527ZM406 256Q413 298 406 328Q399 358 382 377.5Q365 397 341 406Q317 415 291 415Q255 415 225 398Q195 381 173 352Q151 323 139 284.5Q127 246 127 202Q127 139 155.5 98Q184 57 244 57Q268 57 292.5 66Q317 75 338 93Q359 111 374.5 139Q390 167 397 205ZM235 673Q236 642 256 620Q276 598 311 598Q346 598 372.5 620Q399 642 409 673L475 653Q459 607 415.5 574.5Q372 542 309 542Q249 542 211.5 573Q174 604 169 653Z" glyph-name="abreve.school" horiz-adv-x="566" unicode="&#57690;" /><glyph d="M468 0H385L359 147H140L61 0H-24L281 564H361ZM303 461Q299 453 291.5 437.5Q284 422 274 403Q264 384 253 362.5Q242 341 231 320Q205 270 175 213H348Q338 270 329 320Q325 341 321.5 362.5Q318 384 314.5 403Q311 422 308.5 437.5Q306 453 305 461ZM256 749Q257 718 277 696Q297 674 332 674Q367 674 393.5 696Q420 718 430 749L496 729Q480 683 436.5 650.5Q393 618 330 618Q270 618 232.5 649Q195 680 190 729Z" glyph-name="abreve.smcp" horiz-adv-x="528" unicode="&#57897;" /><glyph d="M321 0Q319 6 318 23.5Q317 41 321 62Q301 33 261.5 10.5Q222 -12 173 -12Q143 -12 115 -4Q87 4 65.5 20Q44 36 31.5 60Q19 84 19 117Q19 166 47 198.5Q75 231 122 249.5Q169 268 230.5 275.5Q292 283 359 283L364 312Q372 360 354 390Q336 420 279 420Q225 420 193.5 392.5Q162 365 156 329L74 341Q83 378 103.5 405.5Q124 433 152.5 450Q181 467 214.5 475.5Q248 484 284 484Q326 484 359.5 472.5Q393 461 414.5 439Q436 417 444.5 384Q453 351 446 309L402 64Q400 51 399.5 42Q399 33 399.5 26Q400 19 401 13Q402 7 403 0ZM196 53Q221 53 245.5 62.5Q270 72 289.5 89.5Q309 107 322.5 130.5Q336 154 341 182L348 223Q294 223 249 218Q204 213 172 202Q140 191 122 173Q104 155 104 129Q104 53 196 53ZM287 694H343L436 563L391 529L310 635L191 528L152 568Z" glyph-name="acircumflex" horiz-adv-x="500" unicode="&#226;" /><glyph d="M444 0H365L377 69Q369 54 354.5 39.5Q340 25 321.5 13.5Q303 2 280 -5Q257 -12 231 -12Q143 -12 91.5 45Q40 102 40 201Q40 264 59.5 316.5Q79 369 112 406Q145 443 189 463.5Q233 484 282 484Q345 484 383 458.5Q421 433 435 401L448 472H527ZM406 256Q413 298 406 328Q399 358 382 377.5Q365 397 341 406Q317 415 291 415Q255 415 225 398Q195 381 173 352Q151 323 139 284.5Q127 246 127 202Q127 139 155.5 98Q184 57 244 57Q268 57 292.5 66Q317 75 338 93Q359 111 374.5 139Q390 167 397 205ZM299 694H355L448 563L403 529L322 635L203 528L164 568Z" glyph-name="acircumflex.school" horiz-adv-x="566" unicode="&#57684;" /><glyph d="M468 0H385L359 147H140L61 0H-24L281 564H361ZM303 461Q299 453 291.5 437.5Q284 422 274 403Q264 384 253 362.5Q242 341 231 320Q205 270 175 213H348Q338 270 329 320Q325 341 321.5 362.5Q318 384 314.5 403Q311 422 308.5 437.5Q306 453 305 461ZM321 774H377L470 643L425 609L344 715L225 608L186 648Z" glyph-name="acircumflex.smcp" horiz-adv-x="528" unicode="&#57891;" /><glyph d="M470 637 278 533 256 580 439 701Z" glyph-name="acute" horiz-adv-x="600" unicode="&#180;" /><glyph d="M508 852 316 748 294 795 477 916Z" glyph-name="acute.cap" horiz-adv-x="600" unicode="&#58402;" /><glyph d="M321 0Q319 6 318 23.5Q317 41 321 62Q301 33 261.5 10.5Q222 -12 173 -12Q143 -12 115 -4Q87 4 65.5 20Q44 36 31.5 60Q19 84 19 117Q19 166 47 198.5Q75 231 122 249.5Q169 268 230.5 275.5Q292 283 359 283L364 312Q372 360 354 390Q336 420 279 420Q225 420 193.5 392.5Q162 365 156 329L74 341Q83 378 103.5 405.5Q124 433 152.5 450Q181 467 214.5 475.5Q248 484 284 484Q326 484 359.5 472.5Q393 461 414.5 439Q436 417 444.5 384Q453 351 446 309L402 64Q400 51 399.5 42Q399 33 399.5 26Q400 19 401 13Q402 7 403 0ZM196 53Q221 53 245.5 62.5Q270 72 289.5 89.5Q309 107 322.5 130.5Q336 154 341 182L348 223Q294 223 249 218Q204 213 172 202Q140 191 122 173Q104 155 104 129Q104 53 196 53ZM154 602Q154 625 169 639.5Q184 654 207 654Q230 654 245 639.5Q260 625 260 602Q260 580 245 564.5Q230 549 207 549Q184 549 169 564.5Q154 580 154 602ZM346 602Q346 625 361 639.5Q376 654 399 654Q422 654 437 639.5Q452 625 452 602Q452 580 437 564.5Q422 549 399 549Q376 549 361 564.5Q346 580 346 602Z" glyph-name="adieresis" horiz-adv-x="500" unicode="&#228;" /><glyph d="M444 0H365L377 69Q369 54 354.5 39.5Q340 25 321.5 13.5Q303 2 280 -5Q257 -12 231 -12Q143 -12 91.5 45Q40 102 40 201Q40 264 59.5 316.5Q79 369 112 406Q145 443 189 463.5Q233 484 282 484Q345 484 383 458.5Q421 433 435 401L448 472H527ZM406 256Q413 298 406 328Q399 358 382 377.5Q365 397 341 406Q317 415 291 415Q255 415 225 398Q195 381 173 352Q151 323 139 284.5Q127 246 127 202Q127 139 155.5 98Q184 57 244 57Q268 57 292.5 66Q317 75 338 93Q359 111 374.5 139Q390 167 397 205ZM165 602Q165 625 180 639.5Q195 654 218 654Q241 654 256 639.5Q271 625 271 602Q271 580 256 564.5Q241 549 218 549Q195 549 180 564.5Q165 580 165 602ZM357 602Q357 625 372 639.5Q387 654 410 654Q433 654 448 639.5Q463 625 463 602Q463 580 448 564.5Q433 549 410 549Q387 549 372 564.5Q357 580 357 602Z" glyph-name="adieresis.school" horiz-adv-x="566" unicode="&#57685;" /><glyph d="M468 0H385L359 147H140L61 0H-24L281 564H361ZM303 461Q299 453 291.5 437.5Q284 422 274 403Q264 384 253 362.5Q242 341 231 320Q205 270 175 213H348Q338 270 329 320Q325 341 321.5 362.5Q318 384 314.5 403Q311 422 308.5 437.5Q306 453 305 461ZM185 677Q185 700 200 714.5Q215 729 238 729Q261 729 276 714.5Q291 700 291 677Q291 655 276 639.5Q261 624 238 624Q215 624 200 639.5Q185 655 185 677ZM377 677Q377 700 392 714.5Q407 729 430 729Q453 729 468 714.5Q483 700 483 677Q483 655 468 639.5Q453 624 430 624Q407 624 392 639.5Q377 655 377 677Z" glyph-name="adieresis.smcp" horiz-adv-x="528" unicode="&#57892;" /><glyph d="M750 106Q718 49 667.5 18.5Q617 -12 545 -12Q481 -12 438.5 13Q396 38 374 84Q344 42 295.5 15Q247 -12 180 -12Q145 -12 115.5 -4Q86 4 64.5 20.5Q43 37 31 62Q19 87 19 120Q19 168 47 199.5Q75 231 122 250Q169 269 230.5 276Q292 283 359 283L364 312Q372 360 354 390Q336 420 279 420Q225 420 193.5 392.5Q162 365 156 329L74 341Q83 378 103.5 405.5Q124 433 152.5 450Q181 467 215 475.5Q249 484 285 484Q342 484 376.5 465Q411 446 430 413Q463 447 505.5 465.5Q548 484 596 484Q656 484 696 464.5Q736 445 758.5 413Q781 381 787.5 338Q794 295 787 249Q786 246 785.5 242Q785 238 784 233Q783 228 782 223H430Q425 190 428 159.5Q431 129 444.5 105Q458 81 483.5 67Q509 53 549 53Q598 53 627.5 75.5Q657 98 681 137ZM196 53Q221 53 245 62Q269 71 288.5 87.5Q308 104 322 128Q336 152 341 182L348 223Q294 223 249 218Q204 213 172 202Q140 191 122 173Q104 155 104 129Q104 92 128.5 72.5Q153 53 196 53ZM595 419Q537 419 497.5 380.5Q458 342 442 284H707Q715 347 684.5 383Q654 419 595 419Z" glyph-name="ae" horiz-adv-x="822" unicode="&#230;" /><glyph d="M338 0 364 146H175L65 0H-27L393 564H781L770 496H508L478 324H722L710 257H466L432 68H699L687 0ZM223 214H376L424 484H421Z" glyph-name="ae.smcp" horiz-adv-x="778" unicode="&#57905;" /><glyph d="M321 0Q319 6 318 23.5Q317 41 321 62Q301 33 261.5 10.5Q222 -12 173 -12Q143 -12 115 -4Q87 4 65.5 20Q44 36 31.5 60Q19 84 19 117Q19 166 47 198.5Q75 231 122 249.5Q169 268 230.5 275.5Q292 283 359 283L364 312Q372 360 354 390Q336 420 279 420Q225 420 193.5 392.5Q162 365 156 329L74 341Q83 378 103.5 405.5Q124 433 152.5 450Q181 467 214.5 475.5Q248 484 284 484Q326 484 359.5 472.5Q393 461 414.5 439Q436 417 444.5 384Q453 351 446 309L402 64Q400 51 399.5 42Q399 33 399.5 26Q400 19 401 13Q402 7 403 0ZM196 53Q221 53 245.5 62.5Q270 72 289.5 89.5Q309 107 322.5 130.5Q336 154 341 182L348 223Q294 223 249 218Q204 213 172 202Q140 191 122 173Q104 155 104 129Q104 53 196 53ZM212 641 262 700 408 574 374 533Z" glyph-name="agrave" horiz-adv-x="500" unicode="&#224;" /><glyph d="M444 0H365L377 69Q369 54 354.5 39.5Q340 25 321.5 13.5Q303 2 280 -5Q257 -12 231 -12Q143 -12 91.5 45Q40 102 40 201Q40 264 59.5 316.5Q79 369 112 406Q145 443 189 463.5Q233 484 282 484Q345 484 383 458.5Q421 433 435 401L448 472H527ZM406 256Q413 298 406 328Q399 358 382 377.5Q365 397 341 406Q317 415 291 415Q255 415 225 398Q195 381 173 352Q151 323 139 284.5Q127 246 127 202Q127 139 155.5 98Q184 57 244 57Q268 57 292.5 66Q317 75 338 93Q359 111 374.5 139Q390 167 397 205ZM223 641 273 700 419 574 385 533Z" glyph-name="agrave.school" horiz-adv-x="566" unicode="&#57682;" /><glyph d="M468 0H385L359 147H140L61 0H-24L281 564H361ZM303 461Q299 453 291.5 437.5Q284 422 274 403Q264 384 253 362.5Q242 341 231 320Q205 270 175 213H348Q338 270 329 320Q325 341 321.5 362.5Q318 384 314.5 403Q311 422 308.5 437.5Q306 453 305 461ZM231 718 281 777 427 651 393 610Z" glyph-name="agrave.smcp" horiz-adv-x="528" unicode="&#57890;" /><glyph d="M321 0Q319 6 318 23.5Q317 41 321 62Q301 33 261.5 10.5Q222 -12 173 -12Q143 -12 115 -4Q87 4 65.5 20Q44 36 31.5 60Q19 84 19 117Q19 166 47 198.5Q75 231 122 249.5Q169 268 230.5 275.5Q292 283 359 283L364 312Q372 360 354 390Q336 420 279 420Q225 420 193.5 392.5Q162 365 156 329L74 341Q83 378 103.5 405.5Q124 433 152.5 450Q181 467 214.5 475.5Q248 484 284 484Q326 484 359.5 472.5Q393 461 414.5 439Q436 417 444.5 384Q453 351 446 309L402 64Q400 51 399.5 42Q399 33 399.5 26Q400 19 401 13Q402 7 403 0ZM196 53Q221 53 245.5 62.5Q270 72 289.5 89.5Q309 107 322.5 130.5Q336 154 341 182L348 223Q294 223 249 218Q204 213 172 202Q140 191 122 173Q104 155 104 129Q104 53 196 53ZM177 620H436L426 561H167Z" glyph-name="amacron" horiz-adv-x="500" unicode="&#257;" /><glyph d="M444 0H365L377 69Q369 54 354.5 39.5Q340 25 321.5 13.5Q303 2 280 -5Q257 -12 231 -12Q143 -12 91.5 45Q40 102 40 201Q40 264 59.5 316.5Q79 369 112 406Q145 443 189 463.5Q233 484 282 484Q345 484 383 458.5Q421 433 435 401L448 472H527ZM406 256Q413 298 406 328Q399 358 382 377.5Q365 397 341 406Q317 415 291 415Q255 415 225 398Q195 381 173 352Q151 323 139 284.5Q127 246 127 202Q127 139 155.5 98Q184 57 244 57Q268 57 292.5 66Q317 75 338 93Q359 111 374.5 139Q390 167 397 205ZM187 620H446L436 561H177Z" glyph-name="amacron.school" horiz-adv-x="566" unicode="&#57689;" /><glyph d="M468 0H385L359 147H140L61 0H-24L281 564H361ZM303 461Q299 453 291.5 437.5Q284 422 274 403Q264 384 253 362.5Q242 341 231 320Q205 270 175 213H348Q338 270 329 320Q325 341 321.5 362.5Q318 384 314.5 403Q311 422 308.5 437.5Q306 453 305 461ZM207 689H466L456 630H197Z" glyph-name="amacron.smcp" horiz-adv-x="528" unicode="&#57896;" /><glyph d="M486 0 447 60Q413 31 367.5 9.5Q322 -12 256 -12Q147 -12 87.5 38.5Q28 89 28 175Q28 218 42.5 254.5Q57 291 82 321Q107 351 140.5 375.5Q174 400 213 419Q192 457 181 487Q170 517 170 549Q170 583 182.5 612.5Q195 642 217 664Q239 686 270 699Q301 712 338 712Q367 712 395 703.5Q423 695 445 678Q467 661 480.5 635.5Q494 610 494 576Q494 538 480 509.5Q466 481 442 458.5Q418 436 386.5 418.5Q355 401 321 386L459 176Q479 203 490.5 236Q502 269 508 307L572 272Q565 248 559 228.5Q553 209 544.5 190.5Q536 172 525.5 154Q515 136 499 117L577 0ZM111 186Q111 123 151 88Q191 53 256 53Q310 53 348.5 73Q387 93 407 116L249 360Q226 351 202 335.5Q178 320 157.5 298Q137 276 124 248Q111 220 111 186ZM338 648Q300 648 273 621.5Q246 595 246 549Q246 505 285 441Q304 449 327.5 459.5Q351 470 371 485.5Q391 501 404.5 522Q418 543 418 571Q418 604 395 626Q372 648 338 648Z" glyph-name="ampersand" horiz-adv-x="639" unicode="&amp;" /><glyph d="M320 792 390 768 149 307 222 -156 149 -178 62 312Z" glyph-name="anglebracketleft" horiz-adv-x="311" unicode="&#12296;" /><glyph d="M328 836 398 812 157 351 230 -112 157 -134 70 356Z" glyph-name="anglebracketleft.cap" horiz-adv-x="311" unicode="&#58519;" /><glyph d="M15 -178 -55 -154 186 307 113 770 186 792 273 302Z" glyph-name="anglebracketright" horiz-adv-x="311" unicode="&#12297;" /><glyph d="M23 -134 -47 -110 194 351 121 814 194 836 281 346Z" glyph-name="anglebracketright.cap" horiz-adv-x="311" unicode="&#58520;" /><glyph d="M305 459H303Q294 439 271 395Q248 351 216 290Q184 229 144.5 154.5Q105 80 62 0H-24L281 564H361L468 0H385Z" glyph-name="anocross.smcp" horiz-adv-x="528" unicode="&#57888;" /><glyph d="M286 -108Q286 -123 295.5 -133Q305 -143 322 -143Q353 -143 376 -111L405 -147Q382 -175 357 -185Q332 -195 306 -195Q292 -195 276.5 -191.5Q261 -188 248.5 -180Q236 -172 228 -157.5Q220 -143 220 -121Q220 -77 250 -48.5Q280 -20 321 0Q319 6 318 23.5Q317 41 321 62Q301 33 261.5 10.5Q222 -12 173 -12Q143 -12 115 -4Q87 4 65.5 20Q44 36 31.5 60Q19 84 19 117Q19 166 47 198.5Q75 231 122 249.5Q169 268 230.5 275.5Q292 283 359 283L364 312Q372 360 354 390Q336 420 279 420Q225 420 193.5 392.5Q162 365 156 329L74 341Q83 378 103.5 405.5Q124 433 152.5 450Q181 467 214.5 475.5Q248 484 284 484Q326 484 359.5 472.5Q393 461 414.5 439Q436 417 444.5 384Q453 351 446 309L402 64Q400 51 399.5 42Q399 33 399.5 26Q400 19 401 13Q402 7 403 0Q344 -32 315 -57Q286 -82 286 -108ZM196 53Q221 53 245.5 62.5Q270 72 289.5 89.5Q309 107 322.5 130.5Q336 154 341 182L348 223Q294 223 249 218Q204 213 172 202Q140 191 122 173Q104 155 104 129Q104 53 196 53Z" glyph-name="aogonek" horiz-adv-x="500" unicode="&#261;" /><glyph d="M444 0Q387 -32 358.5 -57Q330 -82 330 -108Q330 -123 339.5 -133Q349 -143 366 -143Q397 -143 420 -111L449 -147Q426 -175 401 -185Q376 -195 350 -195Q310 -195 287 -176.5Q264 -158 264 -121Q264 -77 294.5 -48Q325 -19 365 0L377 69Q369 54 354.5 39.5Q340 25 321.5 13.5Q303 2 280 -5Q257 -12 231 -12Q143 -12 91.5 45Q40 102 40 201Q40 264 59.5 316.5Q79 369 112 406Q145 443 189 463.5Q233 484 282 484Q345 484 383 458.5Q421 433 435 401L448 472H527ZM406 256Q413 298 406 328Q399 358 382 377.5Q365 397 341 406Q317 415 291 415Q255 415 225 398Q195 381 173 352Q151 323 139 284.5Q127 246 127 202Q127 139 155.5 98Q184 57 244 57Q268 57 292.5 66Q317 75 338 93Q359 111 374.5 139Q390 167 397 205Z" glyph-name="aogonek.school" horiz-adv-x="566" unicode="&#57680;" /><glyph d="M468 0Q409 -32 379 -57Q349 -82 349 -108Q349 -123 358.5 -133Q368 -143 385 -143Q416 -143 439 -111L468 -147Q445 -175 420 -185Q395 -195 369 -195Q355 -195 339.5 -191.5Q324 -188 311.5 -180Q299 -172 291 -157.5Q283 -143 283 -121Q283 -99 291.5 -81Q300 -63 314 -48.5Q328 -34 346.5 -22.5Q365 -11 385 0L359 147H140L61 0H-24L281 564H361ZM303 461Q299 453 291.5 437.5Q284 422 274 403Q264 384 253 362.5Q242 341 231 320Q205 270 175 213H348Q338 270 329 320Q325 341 321.5 362.5Q318 384 314.5 403Q311 422 308.5 437.5Q306 453 305 461Z" glyph-name="aogonek.smcp" horiz-adv-x="528" unicode="&#57903;" /><glyph d="M422 353Q387 353 362 363.5Q337 374 317 386.5Q297 399 278 409.5Q259 420 235 420Q212 420 194.5 410.5Q177 401 166 390Q152 377 143 360L88 399Q103 424 126 444Q146 461 175.5 475Q205 489 246 489Q281 489 305.5 478.5Q330 468 350.5 455.5Q371 443 390 432.5Q409 422 433 422Q456 422 473 431.5Q490 441 501 452Q514 465 524 482L580 443Q564 417 541 398Q521 381 492 367Q463 353 422 353ZM383 166Q348 166 323 176.5Q298 187 278 199.5Q258 212 239 222.5Q220 233 196 233Q173 233 156 223.5Q139 214 128 203Q115 190 105 173L49 212Q64 237 87 257Q107 274 136.5 288Q166 302 207 302Q242 302 266.5 291.5Q291 281 311.5 268.5Q332 256 351 245.5Q370 235 394 235Q417 235 433.5 244.5Q450 254 462 265Q475 278 486 295L542 256Q526 230 503 211Q483 194 453.5 180Q424 166 383 166Z" glyph-name="approxequal" horiz-adv-x="600" unicode="&#8776;" /><glyph d="M461 388Q423 388 397 398.5Q371 409 349 421.5Q327 434 307 444.5Q287 455 262 455Q234 455 213.5 445.5Q193 436 179 425Q163 412 152 395L96 434Q113 459 139 479Q161 496 194 510Q227 524 273 524Q310 524 336.5 513.5Q363 503 384.5 490.5Q406 478 426 467.5Q446 457 472 457Q500 457 520.5 466.5Q541 476 555 487Q571 500 582 517L638 478Q621 452 595 433Q573 416 540 402Q507 388 461 388ZM423 201Q385 201 358.5 211.5Q332 222 310 234.5Q288 247 267.5 257.5Q247 268 222 268Q194 268 174.5 258.5Q155 249 141 238Q125 225 114 208L58 247Q74 272 100 292Q122 309 154.5 323Q187 337 233 337Q271 337 297.5 326.5Q324 316 345.5 303.5Q367 291 387.5 280.5Q408 270 434 270Q462 270 482.5 279.5Q503 289 517 300Q533 313 545 330L601 291Q584 265 558 246Q536 229 502.5 215Q469 201 423 201Z" glyph-name="approxequal.cap" horiz-adv-x="650" unicode="&#61990;" /><glyph d="M321 0Q319 6 318 23.5Q317 41 321 62Q301 33 261.5 10.5Q222 -12 173 -12Q143 -12 115 -4Q87 4 65.5 20Q44 36 31.5 60Q19 84 19 117Q19 166 47 198.5Q75 231 122 249.5Q169 268 230.5 275.5Q292 283 359 283L364 312Q372 360 354 390Q336 420 279 420Q225 420 193.5 392.5Q162 365 156 329L74 341Q83 378 103.5 405.5Q124 433 152.5 450Q181 467 214.5 475.5Q248 484 284 484Q326 484 359.5 472.5Q393 461 414.5 439Q436 417 444.5 384Q453 351 446 309L402 64Q400 51 399.5 42Q399 33 399.5 26Q400 19 401 13Q402 7 403 0ZM196 53Q221 53 245.5 62.5Q270 72 289.5 89.5Q309 107 322.5 130.5Q336 154 341 182L348 223Q294 223 249 218Q204 213 172 202Q140 191 122 173Q104 155 104 129Q104 53 196 53ZM257 615Q257 596 269.5 582Q282 568 302 568Q325 568 340.5 584.5Q356 601 356 624Q356 643 344 656Q332 669 311 669Q288 669 272.5 653.5Q257 638 257 615ZM209 613Q209 655 237.5 683Q266 711 313 711Q355 711 379.5 687.5Q404 664 404 626Q404 584 375 555Q346 526 300 526Q258 526 233.5 550.5Q209 575 209 613Z" glyph-name="aring" horiz-adv-x="500" unicode="&#229;" /><glyph d="M444 0H365L377 69Q369 54 354.5 39.5Q340 25 321.5 13.5Q303 2 280 -5Q257 -12 231 -12Q143 -12 91.5 45Q40 102 40 201Q40 264 59.5 316.5Q79 369 112 406Q145 443 189 463.5Q233 484 282 484Q345 484 383 458.5Q421 433 435 401L448 472H527ZM406 256Q413 298 406 328Q399 358 382 377.5Q365 397 341 406Q317 415 291 415Q255 415 225 398Q195 381 173 352Q151 323 139 284.5Q127 246 127 202Q127 139 155.5 98Q184 57 244 57Q268 57 292.5 66Q317 75 338 93Q359 111 374.5 139Q390 167 397 205ZM267 615Q267 596 279.5 582Q292 568 312 568Q335 568 350.5 584.5Q366 601 366 624Q366 643 354 656Q342 669 321 669Q298 669 282.5 653.5Q267 638 267 615ZM219 613Q219 655 247.5 683Q276 711 323 711Q365 711 389.5 687.5Q414 664 414 626Q414 584 385 555Q356 526 310 526Q268 526 243.5 550.5Q219 575 219 613Z" glyph-name="aring.school" horiz-adv-x="566" unicode="&#57687;" /><glyph d="M468 0H385L359 147H140L61 0H-24L281 564H361ZM303 461Q299 453 291.5 437.5Q284 422 274 403Q264 384 253 362.5Q242 341 231 320Q205 270 175 213H348Q338 270 329 320Q325 341 321.5 362.5Q318 384 314.5 403Q311 422 308.5 437.5Q306 453 305 461ZM289 697Q289 678 301.5 664Q314 650 334 650Q357 650 372.5 666.5Q388 683 388 706Q388 725 376 738Q364 751 343 751Q320 751 304.5 735.5Q289 720 289 697ZM241 695Q241 737 269.5 765Q298 793 345 793Q387 793 411.5 769.5Q436 746 436 708Q436 666 407 637Q378 608 332 608Q290 608 265.5 632.5Q241 657 241 695Z" glyph-name="aring.smcp" horiz-adv-x="528" unicode="&#57894;" /><glyph d="M410 121 607 317 656 268 375 -14 94 268 143 317 340 121V700H410Z" glyph-name="arrowdown" horiz-adv-x="750" unicode="&#8595;" /><glyph d="M777 384V314H198L394 117L345 68L63 349L345 630L394 581L198 384Z" glyph-name="arrowleft" horiz-adv-x="850" unicode="&#8592;" /><glyph d="M652 384 456 581 505 630 787 349 505 68 456 117 652 314H73V384Z" glyph-name="arrowright" horiz-adv-x="850" unicode="&#8594;" /><glyph d="M410 0H340V579L143 383L94 432L375 714L656 432L607 383L410 579Z" glyph-name="arrowup" horiz-adv-x="750" unicode="&#8593;" /><glyph d="M505 351H425L338 619L154 351H70L315 700H384Z" glyph-name="asciicircum" horiz-adv-x="535" unicode="^" /><glyph d="M398 235Q363 235 338 245.5Q313 256 293 268.5Q273 281 254 291.5Q235 302 211 302Q188 302 171 292.5Q154 283 143 272Q130 259 120 242L64 281Q79 306 102 326Q122 343 151.5 357Q181 371 222 371Q257 371 281.5 360.5Q306 350 326.5 337.5Q347 325 366 314.5Q385 304 409 304Q432 304 449 313.5Q466 323 477 334Q490 347 500 364L556 325Q540 299 517 280Q497 263 468 249Q439 235 398 235Z" glyph-name="asciitilde" horiz-adv-x="595" unicode="~" /><glyph d="M299 696 276 576 390 599 399 539 277 527 335 420 281 393 232 505 148 416 106 460 197 541 87 594 115 647 220 586 244 706Z" glyph-name="asterisk" horiz-adv-x="372" unicode="*" /><glyph d="M675 114Q701 114 731 131Q761 148 786.5 180Q812 212 829 259Q846 306 846 365Q846 428 825.5 480.5Q805 533 767 571Q729 609 675 630Q621 651 554 651Q470 651 393 618.5Q316 586 257.5 527.5Q199 469 164.5 389Q130 309 130 213Q130 132 156 71Q182 10 227 -31Q272 -72 333.5 -93Q395 -114 466 -114Q512 -114 552 -106Q592 -98 626.5 -84Q661 -70 691.5 -52.5Q722 -35 751 -15L788 -74Q762 -93 729 -111.5Q696 -130 655 -145Q614 -160 564.5 -169Q515 -178 457 -178Q353 -178 277 -148.5Q201 -119 151.5 -66.5Q102 -14 77.5 57.5Q53 129 53 213Q53 328 95 420.5Q137 513 206.5 578Q276 643 366.5 678.5Q457 714 554 714Q649 714 718.5 684.5Q788 655 833 606.5Q878 558 900 497Q922 436 922 373Q922 311 904 253Q886 195 852 150.5Q818 106 770.5 79.5Q723 53 665 53Q638 53 620.5 60Q603 67 592 78.5Q581 90 576 103Q571 116 569 128Q541 87 499.5 70Q458 53 421 53Q390 53 364 64.5Q338 76 319 98Q300 120 289.5 151Q279 182 279 221Q279 274 297.5 321Q316 368 346.5 402.5Q377 437 417.5 457Q458 477 502 477Q549 477 581.5 458Q614 439 622 411L637 468H711L635 196Q633 187 631 179.5Q629 172 629 164Q629 114 675 114ZM585 271Q595 305 593 332.5Q591 360 579.5 378.5Q568 397 549 407Q530 417 507 417Q478 417 451 401.5Q424 386 403 359.5Q382 333 369.5 298.5Q357 264 357 226Q357 175 378 144.5Q399 114 437 114Q461 114 482.5 123.5Q504 133 522 149.5Q540 166 553.5 187.5Q567 209 574 233Z" glyph-name="at" horiz-adv-x="943" unicode="@" /><glyph d="M685 196Q711 196 741 213Q771 230 796.5 262Q822 294 839 341Q856 388 856 447Q856 510 835.5 562.5Q815 615 777 653Q739 691 685 712Q631 733 564 733Q480 733 403 700.5Q326 668 267.5 609.5Q209 551 174.5 471Q140 391 140 295Q140 214 166 153Q192 92 237 51Q282 10 343.5 -11Q405 -32 476 -32Q522 -32 562 -24Q602 -16 636.5 -2Q671 12 701.5 29.5Q732 47 761 67L798 8Q772 -11 739 -29.5Q706 -48 665 -63Q624 -78 574.5 -87Q525 -96 467 -96Q363 -96 287 -66.5Q211 -37 161.5 15.5Q112 68 87.5 139.5Q63 211 63 295Q63 410 105 502.5Q147 595 216.5 660Q286 725 376.5 760.5Q467 796 564 796Q659 796 728.5 766.5Q798 737 843 688.5Q888 640 910 579Q932 518 932 455Q932 393 914 335Q896 277 862 232.5Q828 188 780.5 161.5Q733 135 675 135Q648 135 630.5 142Q613 149 602 160.5Q591 172 586 185Q581 198 579 210Q551 169 509.5 152Q468 135 431 135Q400 135 374 146.5Q348 158 329 180Q310 202 299.5 233Q289 264 289 303Q289 356 307.5 403Q326 450 356.5 484.5Q387 519 427.5 539Q468 559 512 559Q559 559 591.5 540Q624 521 632 493L647 550H721L645 278Q643 269 641 261.5Q639 254 639 246Q639 196 685 196ZM595 353Q605 387 603 414.5Q601 442 589.5 460.5Q578 479 559 489Q540 499 517 499Q488 499 461 483.5Q434 468 413 441.5Q392 415 379.5 380.5Q367 346 367 308Q367 257 388 226.5Q409 196 447 196Q471 196 492.5 205.5Q514 215 532 231.5Q550 248 563.5 269.5Q577 291 584 315Z" glyph-name="at.cap" horiz-adv-x="938" unicode="&#58643;" /><glyph d="M321 0Q319 6 318 23.5Q317 41 321 62Q301 33 261.5 10.5Q222 -12 173 -12Q143 -12 115 -4Q87 4 65.5 20Q44 36 31.5 60Q19 84 19 117Q19 166 47 198.5Q75 231 122 249.5Q169 268 230.5 275.5Q292 283 359 283L364 312Q372 360 354 390Q336 420 279 420Q225 420 193.5 392.5Q162 365 156 329L74 341Q83 378 103.5 405.5Q124 433 152.5 450Q181 467 214.5 475.5Q248 484 284 484Q326 484 359.5 472.5Q393 461 414.5 439Q436 417 444.5 384Q453 351 446 309L402 64Q400 51 399.5 42Q399 33 399.5 26Q400 19 401 13Q402 7 403 0ZM196 53Q221 53 245.5 62.5Q270 72 289.5 89.5Q309 107 322.5 130.5Q336 154 341 182L348 223Q294 223 249 218Q204 213 172 202Q140 191 122 173Q104 155 104 129Q104 53 196 53ZM245 661Q270 661 287.5 653Q305 645 319.5 635.5Q334 626 347.5 618Q361 610 378 610Q394 610 406.5 617Q419 624 427 633Q437 643 444 656L484 616Q473 598 456 584Q442 572 421 562.5Q400 553 371 553Q346 553 328.5 561Q311 569 296.5 578Q282 587 269 595Q256 603 239 603Q222 603 209.5 595.5Q197 588 189 580Q179 570 172 558L132 598Q143 615 160 629Q174 641 195 651Q216 661 245 661Z" glyph-name="atilde" horiz-adv-x="500" unicode="&#227;" /><glyph d="M444 0H365L377 69Q369 54 354.5 39.5Q340 25 321.5 13.5Q303 2 280 -5Q257 -12 231 -12Q143 -12 91.5 45Q40 102 40 201Q40 264 59.5 316.5Q79 369 112 406Q145 443 189 463.5Q233 484 282 484Q345 484 383 458.5Q421 433 435 401L448 472H527ZM406 256Q413 298 406 328Q399 358 382 377.5Q365 397 341 406Q317 415 291 415Q255 415 225 398Q195 381 173 352Q151 323 139 284.5Q127 246 127 202Q127 139 155.5 98Q184 57 244 57Q268 57 292.5 66Q317 75 338 93Q359 111 374.5 139Q390 167 397 205ZM253 661Q278 661 295.5 653Q313 645 327.5 635.5Q342 626 355.5 618Q369 610 386 610Q402 610 414.5 617Q427 624 435 633Q445 643 452 656L492 616Q481 598 464 584Q450 572 429 562.5Q408 553 379 553Q354 553 336.5 561Q319 569 304.5 578Q290 587 277 595Q264 603 247 603Q230 603 217.5 595.5Q205 588 197 580Q187 570 180 558L140 598Q151 615 168 629Q182 641 203 651Q224 661 253 661Z" glyph-name="atilde.school" horiz-adv-x="566" unicode="&#57686;" /><glyph d="M468 0H385L359 147H140L61 0H-24L281 564H361ZM303 461Q299 453 291.5 437.5Q284 422 274 403Q264 384 253 362.5Q242 341 231 320Q205 270 175 213H348Q338 270 329 320Q325 341 321.5 362.5Q318 384 314.5 403Q311 422 308.5 437.5Q306 453 305 461ZM267 731Q292 731 309.5 723Q327 715 341.5 705.5Q356 696 369.5 688Q383 680 400 680Q416 680 428.5 687Q441 694 449 703Q459 713 466 726L506 686Q495 668 478 654Q464 642 443 632.5Q422 623 393 623Q368 623 350.5 631Q333 639 318.5 648Q304 657 291 665Q278 673 261 673Q244 673 231.5 665.5Q219 658 211 650Q201 640 194 628L154 668Q165 685 182 699Q196 711 217 721Q238 731 267 731Z" glyph-name="atilde.smcp" horiz-adv-x="528" unicode="&#57893;" /><glyph d="M287 -12Q255 -12 229 -4.5Q203 3 183 15Q163 27 150 42Q137 57 130 73L117 0H38L161 700H245L194 412Q216 441 252 462.5Q288 484 340 484Q383 484 419 469Q455 454 480 426.5Q505 399 519 359.5Q533 320 533 271Q533 208 513 155.5Q493 103 459.5 66Q426 29 381 8.5Q336 -12 287 -12ZM159 216Q151 174 159 144Q167 114 184.5 94.5Q202 75 227 66Q252 57 278 57Q315 57 346 74Q377 91 399 120Q421 149 433.5 187.5Q446 226 446 270Q446 333 416 374Q386 415 325 415Q301 415 276.5 406.5Q252 398 230 380.5Q208 363 192 336Q176 309 169 272Z" glyph-name="b" horiz-adv-x="573" unicode="b" /><glyph d="M147 564H353Q426 564 464 527.5Q502 491 502 432Q502 400 491.5 375.5Q481 351 464.5 334Q448 317 427.5 306Q407 295 387 291Q425 283 453 255Q481 227 481 173Q481 135 465 103Q449 71 420.5 48Q392 25 353 12.5Q314 0 268 0H48ZM141 66H249Q292 66 320.5 75.5Q349 85 366 100.5Q383 116 389.5 135Q396 154 396 173Q396 218 365.5 237.5Q335 257 280 257H174ZM216 497 186 322H286Q349 322 383 348.5Q417 375 417 423Q417 460 395 478.5Q373 497 324 497Z" glyph-name="b.smcp" horiz-adv-x="542" unicode="&#57858;" /><glyph d="M232 280Q192 280 167.5 296.5Q143 313 134 333L126 288H65L143 733H207L175 551Q189 569 212.5 582.5Q236 596 268 596Q323 596 356.5 560Q390 524 390 461Q390 420 377 387Q364 354 342.5 330Q321 306 292 293Q263 280 232 280ZM153 429Q148 404 152.5 385.5Q157 367 167.5 355Q178 343 192.5 337Q207 331 224 331Q246 331 264.5 341Q283 351 296 368.5Q309 386 316.5 409.5Q324 433 324 460Q324 498 306 521.5Q288 545 252 545Q223 545 194 522.5Q165 500 157 454Z" glyph-name="b.superior" horiz-adv-x="385" unicode="&#58210;" /><glyph d="M251 -115 104 754H172L318 -115Z" glyph-name="backslash" horiz-adv-x="390" unicode="\" /><glyph d="M235 -22 109 722H177L302 -22Z" glyph-name="backslash.cap" horiz-adv-x="390" unicode="&#58466;" /><glyph d="M64 472H536V0H64ZM123 55H477V417H123ZM300 195 219 113 176 155 258 236 176 318 219 360 300 278 381 360 424 318 342 236 424 155 381 113Z" glyph-name="ballotboxwithx" horiz-adv-x="600" unicode="&#9746;" /><glyph d="M193 797H266L96 -169H23Z" glyph-name="bar" horiz-adv-x="263" unicode="|" /><glyph d="M180 722H253L121 -22H48Z" glyph-name="bar.cap" horiz-adv-x="263" unicode="&#58467;" /><glyph d="M787 350Q787 276 758 210Q729 144 679.5 94.5Q630 45 564.5 16.5Q499 -12 425 -12Q351 -12 285.5 16.5Q220 45 170.5 94.5Q121 144 92 210Q63 276 63 350Q63 424 92 490Q121 556 170.5 605.5Q220 655 285.5 683.5Q351 712 425 712Q499 712 564.5 683.5Q630 655 679.5 605.5Q729 556 758 490Q787 424 787 350Z" glyph-name="blackcircle" horiz-adv-x="850" unicode="&#9679;" /><glyph d="M64 472H536V0H64Z" glyph-name="blacksmallsquare" horiz-adv-x="600" unicode="&#9642;" /><glyph d="M75 700H775V0H75Z" glyph-name="blacksquare" horiz-adv-x="850" unicode="&#9632;" /><glyph d="M249 483Q241 438 228.5 407Q216 376 199.5 355.5Q183 335 162.5 324Q142 313 117 308Q141 303 157.5 292Q174 281 183.5 261Q193 241 194 211Q195 181 188 138L178 81Q172 46 169 14.5Q166 -17 172.5 -41.5Q179 -66 197.5 -83Q216 -100 254 -104L245 -158Q182 -155 149 -132Q116 -109 103.5 -71.5Q91 -34 94.5 15Q98 64 108 120L111 137Q116 167 118 191.5Q120 216 114 234.5Q108 253 92.5 265.5Q77 278 48 283L58 342Q89 346 108.5 358Q128 370 140.5 388.5Q153 407 160 431Q167 455 172 484L175 501Q185 559 196.5 609Q208 659 231.5 696Q255 733 296 755Q337 777 408 779L398 722Q359 720 335 704Q311 688 296 663.5Q281 639 273 607Q265 575 259 540Z" glyph-name="braceleft" horiz-adv-x="332" unicode="{" /><glyph d="M256 527Q248 482 235.5 451Q223 420 206.5 399.5Q190 379 169.5 368Q149 357 124 352Q148 347 164.5 336Q181 325 190.5 305Q200 285 201 255Q202 225 195 182L185 125Q179 90 176 58.5Q173 27 179.5 2.5Q186 -22 204.5 -39Q223 -56 261 -60L252 -114Q189 -111 156 -88Q123 -65 110.5 -27.5Q98 10 101.5 59Q105 108 115 164L118 181Q123 211 125 235.5Q127 260 121 278.5Q115 297 99.5 309.5Q84 322 55 327L65 386Q96 390 115.5 402Q135 414 147.5 432.5Q160 451 167 475Q174 499 179 528L182 545Q192 603 203.5 653Q215 703 238.5 740Q262 777 303 799Q344 821 415 823L405 766Q366 764 342 748Q318 732 303 707.5Q288 683 280 651Q272 619 266 584Z" glyph-name="braceleft.cap" horiz-adv-x="332" unicode="&#58517;" /><glyph d="M180 540Q186 576 190 607.5Q194 639 188 663Q182 687 162.5 702.5Q143 718 103 722L113 779Q179 775 212.5 752Q246 729 257.5 691.5Q269 654 264.5 605Q260 556 250 501L247 484Q242 455 240 429.5Q238 404 244 384.5Q250 365 265.5 352Q281 339 310 334L299 275Q269 270 250 258.5Q231 247 218.5 229.5Q206 212 198.5 189Q191 166 186 137L183 120Q172 60 160.5 8Q149 -44 125 -82Q101 -120 60 -140.5Q19 -161 -50 -158L-41 -104Q-1 -100 23.5 -83.5Q48 -67 63 -42.5Q78 -18 85.5 14Q93 46 99 81L109 138Q124 224 156 262Q188 300 241 308Q217 313 200.5 325Q184 337 174.5 357.5Q165 378 163.5 408.5Q162 439 170 483Z" glyph-name="braceright" horiz-adv-x="332" unicode="}" /><glyph d="M188 584Q194 620 198 651.5Q202 683 196 707Q190 731 170.5 746.5Q151 762 111 766L121 823Q187 819 220.5 796Q254 773 265.5 735.5Q277 698 272.5 649Q268 600 258 545L255 528Q250 499 248 473.5Q246 448 252 428.5Q258 409 273.5 396Q289 383 318 378L307 319Q277 314 258 302.5Q239 291 226.5 273.5Q214 256 206.5 233Q199 210 194 181L191 164Q180 104 168.5 52Q157 0 133 -38Q109 -76 68 -96.5Q27 -117 -42 -114L-33 -60Q7 -56 31.5 -39.5Q56 -23 71 1.5Q86 26 93.5 58Q101 90 107 125L117 182Q132 268 164 306Q196 344 249 352Q225 357 208.5 369Q192 381 182.5 401.5Q173 422 171.5 452.5Q170 483 178 527Z" glyph-name="braceright.cap" horiz-adv-x="332" unicode="&#58518;" /><glyph d="M182 762H367L357 702H249L110 -87H218L207 -147H22Z" glyph-name="bracketleft" horiz-adv-x="305" unicode="[" /><glyph d="M190 805H375L365 745H257L118 -44H226L215 -104H30Z" glyph-name="bracketleft.cap" horiz-adv-x="305" unicode="&#58515;" /><glyph d="M-38 -147 -27 -87H81L220 702H112L122 762H307L147 -147Z" glyph-name="bracketright" horiz-adv-x="305" unicode="]" /><glyph d="M-30 -104 -19 -44H89L228 745H120L130 805H315L155 -104Z" glyph-name="bracketright.cap" horiz-adv-x="305" unicode="&#58516;" /><glyph d="M286 673Q287 642 307 620Q327 598 362 598Q397 598 423.5 620Q450 642 460 673L526 653Q510 607 466.5 574.5Q423 542 360 542Q300 542 262.5 573Q225 604 220 653Z" glyph-name="breve" horiz-adv-x="600" unicode="&#728;" /><glyph d="M325 891Q326 860 346 838Q366 816 401 816Q436 816 462.5 838Q489 860 499 891L565 871Q549 825 505.5 792.5Q462 760 399 760Q339 760 301.5 791Q264 822 259 871Z" glyph-name="breve.cap" horiz-adv-x="600" unicode="&#58406;" /><glyph d="M91 216H164L96 -169H23ZM193 797H266L198 412H125Z" glyph-name="brokenbar" horiz-adv-x="263" unicode="&#166;" /><glyph d="M97 256H170L121 -22H48ZM180 722H253L205 452H132Z" glyph-name="brokenbar.cap" horiz-adv-x="263" unicode="&#58469;" /><glyph d="M80 326Q80 351 89 372.5Q98 394 114 410Q130 426 152 434.5Q174 443 200 443Q226 443 248 434.5Q270 426 286 410Q302 394 311 372.5Q320 351 320 326Q320 276 286.5 243.5Q253 211 200 211Q147 211 113.5 243.5Q80 276 80 326Z" glyph-name="bullet" horiz-adv-x="370" unicode="&#8226;" /><glyph d="M85 356Q85 381 94 402.5Q103 424 119 440Q135 456 157 464.5Q179 473 205 473Q231 473 253 464.5Q275 456 291 440Q307 424 316 402.5Q325 381 325 356Q325 306 291.5 273.5Q258 241 205 241Q152 241 118.5 273.5Q85 306 85 356Z" glyph-name="bullet.cap" horiz-adv-x="370" unicode="&#58470;" /><glyph d="M40 201Q40 253 56.5 303.5Q73 354 105 394Q137 434 184.5 459Q232 484 295 484Q338 484 370.5 473.5Q403 463 426.5 444.5Q450 426 463.5 401.5Q477 377 482 349L402 329Q397 369 368 392.5Q339 416 291 416Q251 416 220.5 397Q190 378 169 347.5Q148 317 137.5 278.5Q127 240 127 202Q127 172 134 146Q141 120 155.5 100Q170 80 192.5 68.5Q215 57 247 57Q298 57 325.5 81Q353 105 370 141L445 112Q431 86 412.5 63.5Q394 41 370 24.5Q346 8 315 -2Q284 -12 244 -12Q193 -12 155 4.5Q117 21 91.5 49.5Q66 78 53 117Q40 156 40 201Z" glyph-name="c" horiz-adv-x="500" unicode="c" /><glyph d="M488 401Q478 449 444.5 478Q411 507 348 507Q302 507 265 485Q228 463 202 426Q176 389 162 340.5Q148 292 148 238Q148 200 157 167Q166 134 185 109Q204 84 232 70Q260 56 299 56Q350 56 385.5 85.5Q421 115 444 163L521 135Q489 67 433 27.5Q377 -12 296 -12Q186 -12 124 54.5Q62 121 62 237Q62 304 81.5 365.5Q101 427 138.5 473.5Q176 520 230 547.5Q284 575 352 575Q440 575 495 536Q550 497 567 428Z" glyph-name="c.smcp" horiz-adv-x="567" unicode="&#57859;" /><glyph d="M66 416Q66 450 77 482Q88 514 109 539.5Q130 565 160.5 580.5Q191 596 231 596Q288 596 317.5 570.5Q347 545 354 508L293 492Q291 518 274 532Q257 546 229 546Q205 546 187 534.5Q169 523 156.5 504Q144 485 138 462Q132 439 132 416Q132 381 148.5 356Q165 331 202 331Q231 331 247 345Q263 359 274 382L331 360Q312 326 281.5 303Q251 280 200 280Q137 280 101.5 317.5Q66 355 66 416Z" glyph-name="c.superior" horiz-adv-x="334" unicode="&#58211;" /><glyph d="M40 201Q40 253 56.5 303.5Q73 354 105 394Q137 434 184.5 459Q232 484 295 484Q338 484 370.5 473.5Q403 463 426.5 444.5Q450 426 463.5 401.5Q477 377 482 349L402 329Q397 369 368 392.5Q339 416 291 416Q251 416 220.5 397Q190 378 169 347.5Q148 317 137.5 278.5Q127 240 127 202Q127 172 134 146Q141 120 155.5 100Q170 80 192.5 68.5Q215 57 247 57Q298 57 325.5 81Q353 105 370 141L445 112Q431 86 412.5 63.5Q394 41 370 24.5Q346 8 315 -2Q284 -12 244 -12Q193 -12 155 4.5Q117 21 91.5 49.5Q66 78 53 117Q40 156 40 201ZM431 637 239 533 217 580 400 701Z" glyph-name="cacute" horiz-adv-x="500" unicode="&#263;" /><glyph d="M488 401Q478 449 444.5 478Q411 507 348 507Q302 507 265 485Q228 463 202 426Q176 389 162 340.5Q148 292 148 238Q148 200 157 167Q166 134 185 109Q204 84 232 70Q260 56 299 56Q350 56 385.5 85.5Q421 115 444 163L521 135Q489 67 433 27.5Q377 -12 296 -12Q186 -12 124 54.5Q62 121 62 237Q62 304 81.5 365.5Q101 427 138.5 473.5Q176 520 230 547.5Q284 575 352 575Q440 575 495 536Q550 497 567 428ZM488 714 296 610 274 657 457 778Z" glyph-name="cacute.smcp" horiz-adv-x="567" unicode="&#57908;" /><glyph d="M380 534H324L234 665L279 699L357 593L476 700L515 660Z" glyph-name="caron" horiz-adv-x="600" unicode="&#711;" /><glyph d="M418 752H360L269 871L315 906L394 809L514 907L554 866Z" glyph-name="caron.cap" horiz-adv-x="600" unicode="&#58413;" /><glyph d="M431 686 343 533 298 548 365 708Z" glyph-name="caronSlovak" horiz-adv-x="600" unicode="&#58387;" /><glyph d="M40 201Q40 253 56.5 303.5Q73 354 105 394Q137 434 184.5 459Q232 484 295 484Q338 484 370.5 473.5Q403 463 426.5 444.5Q450 426 463.5 401.5Q477 377 482 349L402 329Q397 369 368 392.5Q339 416 291 416Q251 416 220.5 397Q190 378 169 347.5Q148 317 137.5 278.5Q127 240 127 202Q127 172 134 146Q141 120 155.5 100Q170 80 192.5 68.5Q215 57 247 57Q298 57 325.5 81Q353 105 370 141L445 112Q431 86 412.5 63.5Q394 41 370 24.5Q346 8 315 -2Q284 -12 244 -12Q193 -12 155 4.5Q117 21 91.5 49.5Q66 78 53 117Q40 156 40 201ZM338 534H282L192 665L237 699L315 593L434 700L473 660Z" glyph-name="ccaron" horiz-adv-x="500" unicode="&#269;" /><glyph d="M488 401Q478 449 444.5 478Q411 507 348 507Q302 507 265 485Q228 463 202 426Q176 389 162 340.5Q148 292 148 238Q148 200 157 167Q166 134 185 109Q204 84 232 70Q260 56 299 56Q350 56 385.5 85.5Q421 115 444 163L521 135Q489 67 433 27.5Q377 -12 296 -12Q186 -12 124 54.5Q62 121 62 237Q62 304 81.5 365.5Q101 427 138.5 473.5Q176 520 230 547.5Q284 575 352 575Q440 575 495 536Q550 497 567 428ZM397 612H341L251 743L296 777L374 671L493 778L532 738Z" glyph-name="ccaron.smcp" horiz-adv-x="567" unicode="&#57910;" /><glyph d="M223 -49Q252 -49 271.5 -69.5Q291 -90 291 -124Q291 -171 260 -197Q229 -223 183 -223Q152 -223 132.5 -213Q113 -203 105 -194L136 -156Q142 -162 154.5 -168.5Q167 -175 186 -175Q207 -175 220 -162Q233 -149 233 -128Q233 -93 196 -93Q182 -93 173 -97Q164 -101 156 -106L134 -79L178 -3Q109 16 74.5 71Q40 126 40 201Q40 253 56.5 303.5Q73 354 105 394Q137 434 184.5 459Q232 484 295 484Q338 484 370.5 473.5Q403 463 426.5 444.5Q450 426 463.5 401.5Q477 377 482 349L402 329Q397 369 368 392.5Q339 416 291 416Q251 416 220.5 397Q190 378 169 347.5Q148 317 137.5 278.5Q127 240 127 202Q127 172 134 146Q141 120 155.5 100Q170 80 192.5 68.5Q215 57 247 57Q298 57 325.5 81Q353 105 370 141L445 112Q431 86 412.5 63.5Q394 41 370 24.5Q346 8 315 -2Q284 -12 244 -12Q238 -12 232 -11.5Q226 -11 220 -11L195 -57Q206 -49 223 -49Z" glyph-name="ccedilla" horiz-adv-x="500" unicode="&#231;" /><glyph d="M283 -49Q312 -49 331.5 -69.5Q351 -90 351 -124Q351 -171 320 -197Q289 -223 243 -223Q212 -223 192.5 -213Q173 -203 165 -194L196 -156Q202 -162 214.5 -168.5Q227 -175 246 -175Q267 -175 280 -162Q293 -149 293 -128Q293 -93 256 -93Q242 -93 233 -97Q224 -101 216 -106L194 -79L236 -6Q153 11 107.5 74Q62 137 62 237Q62 304 81.5 365.5Q101 427 138.5 473.5Q176 520 230 547.5Q284 575 352 575Q440 575 495 536Q550 497 567 428L488 401Q478 449 444.5 478Q411 507 348 507Q302 507 265 485Q228 463 202 426Q176 389 162 340.5Q148 292 148 238Q148 200 157 167Q166 134 185 109Q204 84 232 70Q260 56 299 56Q350 56 385.5 85.5Q421 115 444 163L521 135Q489 67 433 27.5Q377 -12 296 -12H280L255 -57Q266 -49 283 -49Z" glyph-name="ccedilla.smcp" horiz-adv-x="567" unicode="&#57912;" /><glyph d="M40 201Q40 253 56.5 303.5Q73 354 105 394Q137 434 184.5 459Q232 484 295 484Q338 484 370.5 473.5Q403 463 426.5 444.5Q450 426 463.5 401.5Q477 377 482 349L402 329Q397 369 368 392.5Q339 416 291 416Q251 416 220.5 397Q190 378 169 347.5Q148 317 137.5 278.5Q127 240 127 202Q127 172 134 146Q141 120 155.5 100Q170 80 192.5 68.5Q215 57 247 57Q298 57 325.5 81Q353 105 370 141L445 112Q431 86 412.5 63.5Q394 41 370 24.5Q346 8 315 -2Q284 -12 244 -12Q193 -12 155 4.5Q117 21 91.5 49.5Q66 78 53 117Q40 156 40 201ZM308 694H364L457 563L412 529L331 635L212 528L173 568Z" glyph-name="ccircumflex" horiz-adv-x="500" unicode="&#265;" /><glyph d="M488 401Q478 449 444.5 478Q411 507 348 507Q302 507 265 485Q228 463 202 426Q176 389 162 340.5Q148 292 148 238Q148 200 157 167Q166 134 185 109Q204 84 232 70Q260 56 299 56Q350 56 385.5 85.5Q421 115 444 163L521 135Q489 67 433 27.5Q377 -12 296 -12Q186 -12 124 54.5Q62 121 62 237Q62 304 81.5 365.5Q101 427 138.5 473.5Q176 520 230 547.5Q284 575 352 575Q440 575 495 536Q550 497 567 428ZM368 774H424L517 643L472 609L391 715L272 608L233 648Z" glyph-name="ccircumflex.smcp" horiz-adv-x="567" unicode="&#57909;" /><glyph d="M40 201Q40 253 56.5 303.5Q73 354 105 394Q137 434 184.5 459Q232 484 295 484Q338 484 370.5 473.5Q403 463 426.5 444.5Q450 426 463.5 401.5Q477 377 482 349L402 329Q397 369 368 392.5Q339 416 291 416Q251 416 220.5 397Q190 378 169 347.5Q148 317 137.5 278.5Q127 240 127 202Q127 172 134 146Q141 120 155.5 100Q170 80 192.5 68.5Q215 57 247 57Q298 57 325.5 81Q353 105 370 141L445 112Q431 86 412.5 63.5Q394 41 370 24.5Q346 8 315 -2Q284 -12 244 -12Q193 -12 155 4.5Q117 21 91.5 49.5Q66 78 53 117Q40 156 40 201ZM274 603Q274 628 289.5 643Q305 658 329 658Q353 658 368.5 643Q384 628 384 603Q384 581 368.5 565Q353 549 329 549Q305 549 289.5 565Q274 581 274 603Z" glyph-name="cdotaccent" horiz-adv-x="500" unicode="&#267;" /><glyph d="M488 401Q478 449 444.5 478Q411 507 348 507Q302 507 265 485Q228 463 202 426Q176 389 162 340.5Q148 292 148 238Q148 200 157 167Q166 134 185 109Q204 84 232 70Q260 56 299 56Q350 56 385.5 85.5Q421 115 444 163L521 135Q489 67 433 27.5Q377 -12 296 -12Q186 -12 124 54.5Q62 121 62 237Q62 304 81.5 365.5Q101 427 138.5 473.5Q176 520 230 547.5Q284 575 352 575Q440 575 495 536Q550 497 567 428ZM326 676Q326 701 341.5 716Q357 731 381 731Q405 731 420.5 716Q436 701 436 676Q436 654 420.5 638Q405 622 381 622Q357 622 341.5 638Q326 654 326 676Z" glyph-name="cdotaccent.smcp" horiz-adv-x="567" unicode="&#57911;" /><glyph d="M253 -49Q282 -49 301.5 -69.5Q321 -90 321 -124Q321 -171 290 -197Q259 -223 213 -223Q182 -223 162.5 -213Q143 -203 135 -194L166 -156Q172 -162 184.5 -168.5Q197 -175 216 -175Q237 -175 250 -162Q263 -149 263 -128Q263 -93 226 -93Q212 -93 203 -97Q194 -101 186 -106L164 -79L210 0H257L225 -57Q236 -49 253 -49Z" glyph-name="cedilla" horiz-adv-x="600" unicode="&#184;" /><glyph d="M59 307Q59 356 74 405Q89 454 118 494Q147 534 191 560.5Q235 587 294 591L312 691H373L355 588Q415 578 453 543Q491 508 502 455L423 439Q419 471 399 494Q379 517 343 525L280 164Q320 170 343.5 194Q367 218 383 250L456 222Q430 173 384.5 137.5Q339 102 268 98L251 0H190L208 102Q170 109 142.5 128Q115 147 96 174Q77 201 68 235Q59 269 59 307ZM141 306Q141 283 145 261Q149 239 158 220.5Q167 202 182 188Q197 174 219 168L282 525Q244 518 217 495.5Q190 473 173 442Q156 411 148.5 375Q141 339 141 306Z" glyph-name="cent" horiz-adv-x="496" unicode="&#162;" /><glyph d="M351 694H407L500 563L455 529L374 635L255 528L216 568Z" glyph-name="circumflex" horiz-adv-x="600" unicode="&#710;" /><glyph d="M390 900H448L539 781L493 746L414 843L294 745L254 786Z" glyph-name="circumflex.cap" horiz-adv-x="600" unicode="&#58403;" /><glyph d="M36 50Q36 75 52.5 91Q69 107 95 107Q121 107 137.5 91Q154 75 154 50Q154 25 137.5 9Q121 -7 95 -7Q69 -7 52.5 9Q36 25 36 50ZM101 422Q101 447 117.5 463Q134 479 160 479Q186 479 202.5 463Q219 447 219 422Q219 397 202.5 381Q186 365 160 365Q134 365 117.5 381Q101 397 101 422Z" glyph-name="colon" horiz-adv-x="256" unicode=":" /><glyph d="M157 32Q157 9 150.5 -14.5Q144 -38 129.5 -58Q115 -78 91.5 -91Q68 -104 34 -106L23 -66Q49 -66 71.5 -50Q94 -34 96 -3Q95 -4 93 -4H85Q64 -4 50 10Q36 24 36 48Q36 69 52.5 88Q69 107 95 107Q127 107 142 87Q157 67 157 32Z" glyph-name="comma" horiz-adv-x="260" unicode="," /><glyph d="M297 -117Q297 -130 292.5 -147.5Q288 -165 276 -181Q264 -197 244 -209Q224 -221 193 -222L184 -189Q207 -189 224.5 -178Q242 -167 244 -145Q243 -146 242 -146H235Q218 -145 206 -132.5Q194 -120 194 -103Q194 -86 206.5 -69.5Q219 -53 245 -53Q271 -53 284 -72Q297 -91 297 -117Z" glyph-name="commaaccent" horiz-adv-x="600" unicode="&#58388;" /><glyph d="M242 351Q242 397 256.5 435Q271 473 296.5 500Q322 527 357.5 541.5Q393 556 435 556Q496 556 534 528Q572 500 594 455L537 433Q525 463 500 483Q475 503 435 503Q379 503 344 462Q309 421 309 351Q309 282 343.5 240.5Q378 199 434 199Q474 199 499.5 219Q525 239 537 270L594 248Q572 200 533.5 173Q495 146 435 146Q392 146 356.5 161Q321 176 295.5 203Q270 230 256 268Q242 306 242 351ZM429 43Q491 43 546 66Q601 89 642 129.5Q683 170 707 226.5Q731 283 731 351Q731 418 707 474Q683 530 642 570.5Q601 611 546 634Q491 657 429 657Q367 657 312 634Q257 611 216 570.5Q175 530 151 474Q127 418 127 351Q127 283 151 226.5Q175 170 216 129.5Q257 89 312 66Q367 43 429 43ZM429 -12Q354 -12 287.5 15Q221 42 172 90Q123 138 94.5 204.5Q66 271 66 351Q66 430 94.5 496Q123 562 172 610Q221 658 287.5 685Q354 712 429 712Q504 712 570.5 685Q637 658 686 610Q735 562 763.5 496Q792 430 792 351Q792 271 763.5 204.5Q735 138 686 90Q637 42 570.5 15Q504 -12 429 -12Z" glyph-name="copyright" horiz-adv-x="820" unicode="&#169;" /><glyph d="M36 151 115 217Q101 241 93 269.5Q85 298 85 331Q85 382 103 424Q121 466 150 498L90 564L148 615L206 544Q238 564 273 574.5Q308 585 343 585Q423 585 483 537L560 609L611 552L529 485Q560 437 560 372Q560 321 542 279Q524 237 495 205L555 140L498 90L440 159Q375 117 302 117Q261 117 225 129.5Q189 142 160 166L84 96ZM485 369Q485 400 474 427Q463 454 443 473Q423 492 396 503Q369 514 338 514Q303 514 270.5 499.5Q238 485 213.5 460.5Q189 436 174.5 403Q160 370 160 334Q160 302 171 275.5Q182 249 201.5 229.5Q221 210 247.5 199Q274 188 306 188Q341 188 373.5 202.5Q406 217 430.5 242Q455 267 470 300Q485 333 485 369Z" glyph-name="currency" horiz-adv-x="606" unicode="&#164;" /><glyph d="M286 484Q349 484 387 461.5Q425 439 442 410L492 700H576L452 0H373L385 69Q376 54 361.5 39.5Q347 25 328 13.5Q309 2 285.5 -5Q262 -12 235 -12Q145 -12 92.5 45Q40 102 40 201Q40 264 60 316.5Q80 369 113.5 406Q147 443 191.5 463.5Q236 484 286 484ZM414 254Q422 297 414.5 328Q407 359 390 378Q373 397 348 406Q323 415 295 415Q258 415 227 398Q196 381 174 352Q152 323 139.5 284.5Q127 246 127 202Q127 139 157 98Q187 57 248 57Q273 57 298 65.5Q323 74 344.5 92Q366 110 382 138Q398 166 405 205Z" glyph-name="d" horiz-adv-x="574" unicode="d" /><glyph d="M474 339Q474 414 434 455Q394 496 312 496H218L143 68H247Q304 68 347 89.5Q390 111 418 148Q446 185 460 234.5Q474 284 474 339ZM147 564H334Q439 564 500 504.5Q561 445 561 339Q561 259 539 196.5Q517 134 475.5 90Q434 46 376 23Q318 0 246 0H48Z" glyph-name="d.smcp" horiz-adv-x="608" unicode="&#57860;" /><glyph d="M302 448Q307 474 303 492.5Q299 511 288.5 522.5Q278 534 263 539.5Q248 545 232 545Q210 545 191.5 535Q173 525 160 507.5Q147 490 139.5 466.5Q132 443 132 416Q132 379 149.5 355Q167 331 203 331Q232 331 260 351.5Q288 372 297 420ZM188 280Q132 280 99 316Q66 352 66 415Q66 456 79 489.5Q92 523 113.5 546.5Q135 570 163.5 583Q192 596 224 596Q262 596 286 582Q310 568 321 549L353 733H417L338 288H277L285 332Q273 312 248 296Q223 280 188 280Z" glyph-name="d.superior" horiz-adv-x="386" unicode="&#58212;" /><glyph d="M73 481H240L278 700H359L321 481H488L475 410H308L215 -118H134L227 410H60Z" glyph-name="dagger" horiz-adv-x="475" unicode="&#8224;" /><glyph d="M22 190H189L229 418H62L74 489H241L278 700H359L322 489H489L477 418H310L270 190H437L424 119H257L215 -118H134L176 119H9Z" glyph-name="daggerdbl" horiz-adv-x="475" unicode="&#8225;" /><glyph d="M286 484Q349 484 387 461.5Q425 439 442 410L492 700H576L452 0H373L385 69Q376 54 361.5 39.5Q347 25 328 13.5Q309 2 285.5 -5Q262 -12 235 -12Q145 -12 92.5 45Q40 102 40 201Q40 264 60 316.5Q80 369 113.5 406Q147 443 191.5 463.5Q236 484 286 484ZM414 254Q422 297 414.5 328Q407 359 390 378Q373 397 348 406Q323 415 295 415Q258 415 227 398Q196 381 174 352Q152 323 139.5 284.5Q127 246 127 202Q127 139 157 98Q187 57 248 57Q273 57 298 65.5Q323 74 344.5 92Q366 110 382 138Q398 166 405 205ZM727 686 639 533 594 548 661 708Z" glyph-name="dcaron" horiz-adv-x="574" unicode="&#271;" /><glyph d="M474 339Q474 414 434 455Q394 496 312 496H218L143 68H247Q304 68 347 89.5Q390 111 418 148Q446 185 460 234.5Q474 284 474 339ZM147 564H334Q439 564 500 504.5Q561 445 561 339Q561 259 539 196.5Q517 134 475.5 90Q434 46 376 23Q318 0 246 0H48ZM365 612H309L219 743L264 777L342 671L461 778L500 738Z" glyph-name="dcaron.smcp" horiz-adv-x="608" unicode="&#57913;" /><glyph d="M320 612H477L492 700H576L560 612H622L611 549H549L452 0H373L385 69Q376 54 361.5 39.5Q347 25 328 13.5Q309 2 285.5 -5Q262 -12 235 -12Q145 -12 92.5 45Q40 102 40 201Q40 264 60 316.5Q80 369 113.5 406Q147 443 191.5 463.5Q236 484 286 484Q349 484 387 461.5Q425 439 442 410L466 549H309ZM414 254Q422 297 414.5 328Q407 359 390 378Q373 397 348 406Q323 415 295 415Q258 415 227 398Q196 381 174 352Q152 323 139.5 284.5Q127 246 127 202Q127 139 157 98Q187 57 248 57Q273 57 298 65.5Q323 74 344.5 92Q366 110 382 138Q398 166 405 205Z" glyph-name="dcroat" horiz-adv-x="574" unicode="&#273;" /><glyph d="M108 264H40L50 323H119L161 564H348Q453 564 514 504.5Q575 445 575 339Q575 259 553 196.5Q531 134 489.5 90Q448 46 390 23Q332 0 260 0H62ZM488 339Q488 414 448 455Q408 496 326 496H232L202 323H346L336 264H191L157 68H261Q318 68 361 89.5Q404 111 432 148Q460 185 474 234.5Q488 284 488 339Z" glyph-name="dcroat.smcp" horiz-adv-x="622" unicode="&#57916;" /><glyph d="M95 552Q95 587 107.5 616.5Q120 646 141.5 667Q163 688 192 700Q221 712 253 712Q320 712 359 672.5Q398 633 398 572Q398 537 385.5 507.5Q373 478 351.5 457Q330 436 301 424Q272 412 240 412Q173 412 134 451.5Q95 491 95 552ZM252 655Q212 655 186.5 625.5Q161 596 161 553Q161 517 182 493Q203 469 241 469Q281 469 306.5 498.5Q332 528 332 571Q332 607 311 631Q290 655 252 655Z" glyph-name="degree" horiz-adv-x="378" unicode="&#176;" /><glyph d="M215 602Q215 625 230 639.5Q245 654 268 654Q291 654 306 639.5Q321 625 321 602Q321 580 306 564.5Q291 549 268 549Q245 549 230 564.5Q215 580 215 602ZM407 602Q407 625 422 639.5Q437 654 460 654Q483 654 498 639.5Q513 625 513 602Q513 580 498 564.5Q483 549 460 549Q437 549 422 564.5Q407 580 407 602Z" glyph-name="dieresis" horiz-adv-x="600" unicode="&#168;" /><glyph d="M254 820Q254 843 269 857.5Q284 872 307 872Q330 872 345 857.5Q360 843 360 820Q360 798 345 782.5Q330 767 307 767Q284 767 269 782.5Q254 798 254 820ZM446 820Q446 843 461 857.5Q476 872 499 872Q522 872 537 857.5Q552 843 552 820Q552 798 537 782.5Q522 767 499 767Q476 767 461 782.5Q446 798 446 820Z" glyph-name="dieresis.cap" horiz-adv-x="600" unicode="&#58409;" /><glyph d="M75 358H567L555 289H63ZM291 505Q291 529 306.5 544.5Q322 560 347 560Q372 560 387.5 544.5Q403 529 403 505Q403 482 387.5 466.5Q372 451 347 451Q322 451 306.5 466.5Q291 482 291 505ZM230 141Q230 164 245.5 179.5Q261 195 286 195Q311 195 326.5 179.5Q342 164 342 141Q342 117 326.5 101.5Q311 86 286 86Q261 86 245.5 101.5Q230 117 230 141Z" glyph-name="divide" horiz-adv-x="600" unicode="&#247;" /><glyph d="M81 395H623L611 326H69ZM322 542Q322 566 337.5 581.5Q353 597 378 597Q403 597 418.5 581.5Q434 566 434 542Q434 519 418.5 503.5Q403 488 378 488Q353 488 337.5 503.5Q322 519 322 542ZM258 178Q258 201 273.5 216.5Q289 232 314 232Q339 232 354.5 216.5Q370 201 370 178Q370 154 354.5 138.5Q339 123 314 123Q289 123 273.5 138.5Q258 154 258 178Z" glyph-name="divide.cap" horiz-adv-x="650" unicode="&#58772;" /><glyph d="M396 692Q471 678 514 633Q557 588 565 522L492 503Q490 523 483.5 542.5Q477 562 464 579Q451 596 432 609Q413 622 385 628L342 383Q382 369 413.5 352.5Q445 336 467 314.5Q489 293 501 265.5Q513 238 513 201Q513 156 497.5 117.5Q482 79 451 51Q420 23 375 7Q330 -9 272 -10L256 -105H197L214 -5Q172 2 139.5 19.5Q107 37 84.5 63.5Q62 90 50 122.5Q38 155 38 192L109 204Q108 193 111.5 172Q115 151 127.5 128Q140 105 163 85.5Q186 66 225 58L273 330Q229 346 198 363Q167 380 147.5 401Q128 422 118.5 447.5Q109 473 109 508Q109 547 123 581.5Q137 616 165.5 641.5Q194 667 237 682Q280 697 338 697L356 798H415ZM436 195Q436 238 410.5 262.5Q385 287 329 310L284 54Q316 56 343.5 66Q371 76 391.5 93.5Q412 111 424 136.5Q436 162 436 195ZM185 515Q185 475 209.5 449Q234 423 286 403L327 634Q281 633 253 620Q225 607 210 588.5Q195 570 190 550Q185 530 185 515Z" glyph-name="dollar" horiz-adv-x="577" unicode="$" /><glyph d="M309 603Q309 628 324.5 643Q340 658 364 658Q388 658 403.5 643Q419 628 419 603Q419 581 403.5 565Q388 549 364 549Q340 549 324.5 565Q309 581 309 603Z" glyph-name="dotaccent" horiz-adv-x="600" unicode="&#729;" /><glyph d="M346 819Q346 843 361.5 858.5Q377 874 402 874Q427 874 442.5 858.5Q458 843 458 819Q458 796 442.5 780.5Q427 765 402 765Q377 765 361.5 780.5Q346 796 346 819Z" glyph-name="dotaccent.cap" horiz-adv-x="600" unicode="&#58408;" /><glyph d="M121 472H205L122 0H38Z" glyph-name="dotlessi" horiz-adv-x="244" unicode="&#305;" /><glyph d="M122 472H206L112 -68Q98 -147 56 -179.5Q14 -212 -49 -212Q-84 -212 -113 -202Q-142 -192 -160 -178L-114 -115Q-103 -124 -88.5 -132Q-74 -140 -51 -140Q-16 -140 3 -118.5Q22 -97 28 -63Z" glyph-name="dotlessj" horiz-adv-x="246" unicode="&#567;" /><glyph d="M193 797H266L96 -169H23ZM339 797H412L242 -169H169Z" glyph-name="doublebar" horiz-adv-x="409" unicode="&#8214;" /><glyph d="M180 722H253L121 -22H48ZM326 722H399L267 -22H194Z" glyph-name="doublebar.cap" horiz-adv-x="409" unicode="&#58468;" /><glyph d="M448 106Q416 49 365 18.5Q314 -12 242 -12Q191 -12 153 3Q115 18 90 44.5Q65 71 52.5 108Q40 145 40 189Q40 255 59.5 309.5Q79 364 113 403Q147 442 193.5 463Q240 484 293 484Q353 484 393.5 464.5Q434 445 456.5 413Q479 381 485.5 338Q492 295 485 249Q484 246 483.5 241.5Q483 237 482 232Q481 227 480 221H126Q121 188 124 158Q127 128 140.5 104.5Q154 81 179.5 67Q205 53 246 53Q295 53 325 75.5Q355 98 379 137ZM292 419Q234 419 194 380.5Q154 342 138 284H405Q413 347 382.5 383Q352 419 292 419Z" glyph-name="e" horiz-adv-x="520" unicode="e" /><glyph d="M48 0 147 564H492L480 496H218L188 324H433L421 257H176L143 68H410L398 0Z" glyph-name="e.smcp" horiz-adv-x="489" unicode="&#57861;" /><glyph d="M332 354Q312 319 279 299.5Q246 280 199 280Q135 280 100.5 315.5Q66 351 66 411Q66 451 78.5 485Q91 519 113 544Q135 569 165 582.5Q195 596 230 596Q269 596 295 583.5Q321 571 336 549.5Q351 528 355.5 500.5Q360 473 355 443Q354 441 354 438Q354 435 353 432Q352 428 352 425H130Q128 406 130 389Q132 372 140 358.5Q148 345 163 337Q178 329 201 329Q231 329 248.5 342Q266 355 280 377ZM229 549Q194 549 171 526.5Q148 504 138 469H295Q300 507 282 528Q264 549 229 549Z" glyph-name="e.superior" horiz-adv-x="347" unicode="&#58213;" /><glyph d="M448 106Q416 49 365 18.5Q314 -12 242 -12Q191 -12 153 3Q115 18 90 44.5Q65 71 52.5 108Q40 145 40 189Q40 255 59.5 309.5Q79 364 113 403Q147 442 193.5 463Q240 484 293 484Q353 484 393.5 464.5Q434 445 456.5 413Q479 381 485.5 338Q492 295 485 249Q484 246 483.5 241.5Q483 237 482 232Q481 227 480 221H126Q121 188 124 158Q127 128 140.5 104.5Q154 81 179.5 67Q205 53 246 53Q295 53 325 75.5Q355 98 379 137ZM292 419Q234 419 194 380.5Q154 342 138 284H405Q413 347 382.5 383Q352 419 292 419ZM432 637 240 533 218 580 401 701Z" glyph-name="eacute" horiz-adv-x="520" unicode="&#233;" /><glyph d="M48 0 147 564H492L480 496H218L188 324H433L421 257H176L143 68H410L398 0ZM457 714 265 610 243 657 426 778Z" glyph-name="eacute.smcp" horiz-adv-x="489" unicode="&#57917;" /><glyph d="M448 106Q416 49 365 18.5Q314 -12 242 -12Q191 -12 153 3Q115 18 90 44.5Q65 71 52.5 108Q40 145 40 189Q40 255 59.5 309.5Q79 364 113 403Q147 442 193.5 463Q240 484 293 484Q353 484 393.5 464.5Q434 445 456.5 413Q479 381 485.5 338Q492 295 485 249Q484 246 483.5 241.5Q483 237 482 232Q481 227 480 221H126Q121 188 124 158Q127 128 140.5 104.5Q154 81 179.5 67Q205 53 246 53Q295 53 325 75.5Q355 98 379 137ZM292 419Q234 419 194 380.5Q154 342 138 284H405Q413 347 382.5 383Q352 419 292 419ZM241 673Q242 642 262 620Q282 598 317 598Q352 598 378.5 620Q405 642 415 673L481 653Q465 607 421.5 574.5Q378 542 315 542Q255 542 217.5 573Q180 604 175 653Z" glyph-name="ebreve" horiz-adv-x="520" unicode="&#277;" /><glyph d="M48 0 147 564H492L480 496H218L188 324H433L421 257H176L143 68H410L398 0ZM254 749Q255 718 275 696Q295 674 330 674Q365 674 391.5 696Q418 718 428 749L494 729Q478 683 434.5 650.5Q391 618 328 618Q268 618 230.5 649Q193 680 188 729Z" glyph-name="ebreve.smcp" horiz-adv-x="489" unicode="&#57923;" /><glyph d="M448 106Q416 49 365 18.5Q314 -12 242 -12Q191 -12 153 3Q115 18 90 44.5Q65 71 52.5 108Q40 145 40 189Q40 255 59.5 309.5Q79 364 113 403Q147 442 193.5 463Q240 484 293 484Q353 484 393.5 464.5Q434 445 456.5 413Q479 381 485.5 338Q492 295 485 249Q484 246 483.5 241.5Q483 237 482 232Q481 227 480 221H126Q121 188 124 158Q127 128 140.5 104.5Q154 81 179.5 67Q205 53 246 53Q295 53 325 75.5Q355 98 379 137ZM292 419Q234 419 194 380.5Q154 342 138 284H405Q413 347 382.5 383Q352 419 292 419ZM337 534H281L191 665L236 699L314 593L433 700L472 660Z" glyph-name="ecaron" horiz-adv-x="520" unicode="&#283;" /><glyph d="M48 0 147 564H492L480 496H218L188 324H433L421 257H176L143 68H410L398 0ZM352 612H296L206 743L251 777L329 671L448 778L487 738Z" glyph-name="ecaron.smcp" horiz-adv-x="489" unicode="&#57921;" /><glyph d="M448 106Q416 49 365 18.5Q314 -12 242 -12Q191 -12 153 3Q115 18 90 44.5Q65 71 52.5 108Q40 145 40 189Q40 255 59.5 309.5Q79 364 113 403Q147 442 193.5 463Q240 484 293 484Q353 484 393.5 464.5Q434 445 456.5 413Q479 381 485.5 338Q492 295 485 249Q484 246 483.5 241.5Q483 237 482 232Q481 227 480 221H126Q121 188 124 158Q127 128 140.5 104.5Q154 81 179.5 67Q205 53 246 53Q295 53 325 75.5Q355 98 379 137ZM292 419Q234 419 194 380.5Q154 342 138 284H405Q413 347 382.5 383Q352 419 292 419ZM307 694H363L456 563L411 529L330 635L211 528L172 568Z" glyph-name="ecircumflex" horiz-adv-x="520" unicode="&#234;" /><glyph d="M48 0 147 564H492L480 496H218L188 324H433L421 257H176L143 68H410L398 0ZM323 774H379L472 643L427 609L346 715L227 608L188 648Z" glyph-name="ecircumflex.smcp" horiz-adv-x="489" unicode="&#57919;" /><glyph d="M448 106Q416 49 365 18.5Q314 -12 242 -12Q191 -12 153 3Q115 18 90 44.5Q65 71 52.5 108Q40 145 40 189Q40 255 59.5 309.5Q79 364 113 403Q147 442 193.5 463Q240 484 293 484Q353 484 393.5 464.5Q434 445 456.5 413Q479 381 485.5 338Q492 295 485 249Q484 246 483.5 241.5Q483 237 482 232Q481 227 480 221H126Q121 188 124 158Q127 128 140.5 104.5Q154 81 179.5 67Q205 53 246 53Q295 53 325 75.5Q355 98 379 137ZM292 419Q234 419 194 380.5Q154 342 138 284H405Q413 347 382.5 383Q352 419 292 419ZM170 602Q170 625 185 639.5Q200 654 223 654Q246 654 261 639.5Q276 625 276 602Q276 580 261 564.5Q246 549 223 549Q200 549 185 564.5Q170 580 170 602ZM362 602Q362 625 377 639.5Q392 654 415 654Q438 654 453 639.5Q468 625 468 602Q468 580 453 564.5Q438 549 415 549Q392 549 377 564.5Q362 580 362 602Z" glyph-name="edieresis" horiz-adv-x="520" unicode="&#235;" /><glyph d="M48 0 147 564H492L480 496H218L188 324H433L421 257H176L143 68H410L398 0ZM181 677Q181 700 196 714.5Q211 729 234 729Q257 729 272 714.5Q287 700 287 677Q287 655 272 639.5Q257 624 234 624Q211 624 196 639.5Q181 655 181 677ZM373 677Q373 700 388 714.5Q403 729 426 729Q449 729 464 714.5Q479 700 479 677Q479 655 464 639.5Q449 624 426 624Q403 624 388 639.5Q373 655 373 677Z" glyph-name="edieresis.smcp" horiz-adv-x="489" unicode="&#57904;" /><glyph d="M448 106Q416 49 365 18.5Q314 -12 242 -12Q191 -12 153 3Q115 18 90 44.5Q65 71 52.5 108Q40 145 40 189Q40 255 59.5 309.5Q79 364 113 403Q147 442 193.5 463Q240 484 293 484Q353 484 393.5 464.5Q434 445 456.5 413Q479 381 485.5 338Q492 295 485 249Q484 246 483.5 241.5Q483 237 482 232Q481 227 480 221H126Q121 188 124 158Q127 128 140.5 104.5Q154 81 179.5 67Q205 53 246 53Q295 53 325 75.5Q355 98 379 137ZM292 419Q234 419 194 380.5Q154 342 138 284H405Q413 347 382.5 383Q352 419 292 419ZM269 603Q269 628 284.5 643Q300 658 324 658Q348 658 363.5 643Q379 628 379 603Q379 581 363.5 565Q348 549 324 549Q300 549 284.5 565Q269 581 269 603Z" glyph-name="edotaccent" horiz-adv-x="520" unicode="&#279;" /><glyph d="M48 0 147 564H492L480 496H218L188 324H433L421 257H176L143 68H410L398 0ZM278 676Q278 701 293.5 716Q309 731 333 731Q357 731 372.5 716Q388 701 388 676Q388 654 372.5 638Q357 622 333 622Q309 622 293.5 638Q278 654 278 676Z" glyph-name="edotaccent.smcp" horiz-adv-x="489" unicode="&#57926;" /><glyph d="M448 106Q416 49 365 18.5Q314 -12 242 -12Q191 -12 153 3Q115 18 90 44.5Q65 71 52.5 108Q40 145 40 189Q40 255 59.5 309.5Q79 364 113 403Q147 442 193.5 463Q240 484 293 484Q353 484 393.5 464.5Q434 445 456.5 413Q479 381 485.5 338Q492 295 485 249Q484 246 483.5 241.5Q483 237 482 232Q481 227 480 221H126Q121 188 124 158Q127 128 140.5 104.5Q154 81 179.5 67Q205 53 246 53Q295 53 325 75.5Q355 98 379 137ZM292 419Q234 419 194 380.5Q154 342 138 284H405Q413 347 382.5 383Q352 419 292 419ZM215 641 265 700 411 574 377 533Z" glyph-name="egrave" horiz-adv-x="520" unicode="&#232;" /><glyph d="M48 0 147 564H492L480 496H218L188 324H433L421 257H176L143 68H410L398 0ZM232 718 282 777 428 651 394 610Z" glyph-name="egrave.smcp" horiz-adv-x="489" unicode="&#57918;" /><glyph d="M359 698Q402 698 439.5 685.5Q477 673 505 650.5Q533 628 549 595Q565 562 565 522Q565 489 554 460.5Q543 432 524.5 409.5Q506 387 481.5 371Q457 355 430 347Q447 341 465 329Q483 317 498 299Q513 281 522.5 256.5Q532 232 532 199Q532 149 512.5 110Q493 71 459 44Q425 17 380.5 2.5Q336 -12 287 -12Q237 -12 195.5 0.5Q154 13 124.5 36Q95 59 78.5 93Q62 127 62 170Q62 206 74 238Q86 270 107 295Q128 320 157.5 337Q187 354 222 361Q183 378 159.5 414Q136 450 136 498Q136 542 154 579Q172 616 203 642.5Q234 669 274 683.5Q314 698 359 698ZM359 633Q292 633 256 593Q220 553 220 492Q220 443 254.5 415Q289 387 340 387Q371 387 397 397Q423 407 442 425Q461 443 471 467.5Q481 492 481 522Q481 549 471 569.5Q461 590 444.5 604Q428 618 406 625.5Q384 633 359 633ZM287 54Q364 54 405 94.5Q446 135 446 199Q446 230 434 252.5Q422 275 402 290Q382 305 356 312Q330 319 303 319Q229 319 188.5 277.5Q148 236 148 172Q148 141 159 119Q170 97 188.5 82.5Q207 68 232.5 61Q258 54 287 54Z" glyph-name="eight" horiz-adv-x="600" unicode="8" /><glyph d="M340 698Q383 698 420.5 685.5Q458 673 486 650.5Q514 628 530 595Q546 562 546 522Q546 489 535 460.5Q524 432 505.5 409.5Q487 387 462.5 371Q438 355 411 347Q428 341 446 329Q464 317 479 299Q494 281 503.5 256.5Q513 232 513 199Q513 149 493.5 110Q474 71 440 44Q406 17 361.5 2.5Q317 -12 268 -12Q218 -12 176.5 0.5Q135 13 105.5 36Q76 59 59.5 93Q43 127 43 170Q43 206 55 238Q67 270 88 295Q109 320 138.5 337Q168 354 203 361Q164 378 140.5 414Q117 450 117 498Q117 542 135 579Q153 616 184 642.5Q215 669 255 683.5Q295 698 340 698ZM340 633Q273 633 237 593Q201 553 201 492Q201 443 235.5 415Q270 387 321 387Q352 387 378 397Q404 407 423 425Q442 443 452 467.5Q462 492 462 522Q462 549 452 569.5Q442 590 425.5 604Q409 618 387 625.5Q365 633 340 633ZM268 54Q345 54 386 94.5Q427 135 427 199Q427 230 415 252.5Q403 275 383 290Q363 305 337 312Q311 319 284 319Q210 319 169.5 277.5Q129 236 129 172Q129 141 140 119Q151 97 169.5 82.5Q188 68 213.5 61Q239 54 268 54Z" glyph-name="eight.LP" horiz-adv-x="567" unicode="&#58685;" /><glyph d="M359 698Q402 698 439.5 685.5Q477 673 505 650.5Q533 628 549 595Q565 562 565 522Q565 489 554 460.5Q543 432 524.5 409.5Q506 387 481.5 371Q457 355 430 347Q447 341 465 329Q483 317 498 299Q513 281 522.5 256.5Q532 232 532 199Q532 149 512.5 110Q493 71 459 44Q425 17 380.5 2.5Q336 -12 287 -12Q237 -12 195.5 0.5Q154 13 124.5 36Q95 59 78.5 93Q62 127 62 170Q62 206 74 238Q86 270 107 295Q128 320 157.5 337Q187 354 222 361Q183 378 159.5 414Q136 450 136 498Q136 542 154 579Q172 616 203 642.5Q234 669 274 683.5Q314 698 359 698ZM359 633Q292 633 256 593Q220 553 220 492Q220 443 254.5 415Q289 387 340 387Q371 387 397 397Q423 407 442 425Q461 443 471 467.5Q481 492 481 522Q481 549 471 569.5Q461 590 444.5 604Q428 618 406 625.5Q384 633 359 633ZM287 54Q364 54 405 94.5Q446 135 446 199Q446 230 434 252.5Q422 275 402 290Q382 305 356 312Q330 319 303 319Q229 319 188.5 277.5Q148 236 148 172Q148 141 159 119Q170 97 188.5 82.5Q207 68 232.5 61Q258 54 287 54Z" glyph-name="eight.LT" horiz-adv-x="600" unicode="&#58696;" /><glyph d="M337 698Q380 698 417 685.5Q454 673 481.5 650.5Q509 628 524.5 595Q540 562 540 522Q540 489 529 460.5Q518 432 499.5 409.5Q481 387 456.5 371Q432 355 405 347Q422 341 440 329Q458 317 473 299Q488 281 497.5 256.5Q507 232 507 199Q507 149 487.5 110Q468 71 435 44Q402 17 358 2.5Q314 -12 265 -12Q215 -12 174 0.5Q133 13 104 36Q75 59 59 93Q43 127 43 170Q43 206 55 238Q67 270 88 295Q109 320 138.5 337Q168 354 203 361Q164 378 140.5 414Q117 450 117 498Q117 542 135 579Q153 616 183 642.5Q213 669 253 683.5Q293 698 337 698ZM337 634Q271 634 235.5 594Q200 554 200 492Q200 442 233.5 414Q267 386 318 386Q381 386 419 424Q457 462 457 522Q457 549 447.5 570Q438 591 421.5 605Q405 619 383.5 626.5Q362 634 337 634ZM265 53Q341 53 381.5 93.5Q422 134 422 199Q422 230 410 253Q398 276 378.5 291Q359 306 333.5 313Q308 320 281 320Q208 320 168 278.5Q128 237 128 172Q128 141 138.5 118.5Q149 96 167.5 81.5Q186 67 211 60Q236 53 265 53Z" glyph-name="eight.OP" horiz-adv-x="561" unicode="&#58707;" /><glyph d="M360 698Q403 698 440 685.5Q477 673 504.5 650.5Q532 628 547.5 595Q563 562 563 522Q563 489 552 460.5Q541 432 522.5 409.5Q504 387 479.5 371Q455 355 428 347Q445 341 463 329Q481 317 496 299Q511 281 520.5 256.5Q530 232 530 199Q530 149 510.5 110Q491 71 458 44Q425 17 381 2.5Q337 -12 288 -12Q238 -12 197 0.5Q156 13 127 36Q98 59 82 93Q66 127 66 170Q66 206 78 238Q90 270 111 295Q132 320 161.5 337Q191 354 226 361Q187 378 163.5 414Q140 450 140 498Q140 542 158 579Q176 616 206 642.5Q236 669 276 683.5Q316 698 360 698ZM360 634Q294 634 258.5 594Q223 554 223 492Q223 442 256.5 414Q290 386 341 386Q404 386 442 424Q480 462 480 522Q480 549 470.5 570Q461 591 444.5 605Q428 619 406.5 626.5Q385 634 360 634ZM288 53Q364 53 404.5 93.5Q445 134 445 199Q445 230 433 253Q421 276 401.5 291Q382 306 356.5 313Q331 320 304 320Q231 320 191 278.5Q151 237 151 172Q151 141 161.5 118.5Q172 96 190.5 81.5Q209 67 234 60Q259 53 288 53Z" glyph-name="eight.OT" horiz-adv-x="600" unicode="&#58718;" /><glyph d="M-17 -102Q-17 -67 9 -38Q35 -9 76 -1Q53 8 38.5 27.5Q24 47 24 75Q24 96 33.5 116Q43 136 61 151Q79 166 104.5 175Q130 184 162 184Q219 184 253.5 155Q288 126 288 84Q288 49 264.5 24.5Q241 0 208 -8Q235 -18 253 -39Q271 -60 271 -90Q271 -114 260.5 -135Q250 -156 230.5 -172Q211 -188 183.5 -197.5Q156 -207 121 -207Q53 -207 18 -176.5Q-17 -146 -17 -102ZM93 71Q93 48 109.5 35Q126 22 152 22Q182 22 201 38Q220 54 220 81Q220 104 202.5 116.5Q185 129 161 129Q132 129 112.5 113.5Q93 98 93 71ZM53 -98Q53 -123 71 -137.5Q89 -152 121 -152Q159 -152 179.5 -133.5Q200 -115 200 -88Q200 -61 180 -47Q160 -33 131 -33Q98 -33 75.5 -50.5Q53 -68 53 -98Z" glyph-name="eight.inf" horiz-adv-x="368" unicode="&#58745;" /><glyph d="M1096 329Q1072 329 1053 318.5Q1034 308 1020.5 290.5Q1007 273 998 250Q989 227 984 202Q995 219 1021 233.5Q1047 248 1082 248Q1111 248 1133 238.5Q1155 229 1170 213.5Q1185 198 1192.5 177Q1200 156 1200 132Q1200 106 1190 81Q1180 56 1161.5 36.5Q1143 17 1115.5 4.5Q1088 -8 1052 -8Q987 -8 951 27.5Q915 63 915 146Q915 186 925 228.5Q935 271 957 305.5Q979 340 1013.5 362Q1048 384 1097 384Q1151 384 1182 359.5Q1213 335 1218 295L1152 285Q1150 302 1137.5 315.5Q1125 329 1096 329ZM1067 194Q1035 194 1010 172.5Q985 151 985 113Q985 84 1002 65.5Q1019 47 1051 47Q1083 47 1106.5 68.5Q1130 90 1130 131Q1130 160 1114 177Q1098 194 1067 194ZM264 -12 827 712H905L342 -12ZM484 700 418 324H347L400 625Q371 605 319 604L316 661Q348 665 375.5 674.5Q403 684 422 700ZM260 700 194 324H123L176 625Q147 605 95 604L92 661Q124 665 151.5 674.5Q179 684 198 700ZM873 376 807 0H736L789 301Q760 281 708 280L705 337Q737 341 764.5 350.5Q792 360 811 376Z" glyph-name="elevensixteenths" horiz-adv-x="1252" unicode="&#61984;" /><glyph d="M36 47Q36 71 51.5 86.5Q67 102 92 102Q117 102 132.5 86.5Q148 71 148 47Q148 24 132.5 8.5Q117 -7 92 -7Q67 -7 51.5 8.5Q36 24 36 47ZM578 47Q578 71 593.5 86.5Q609 102 634 102Q659 102 674.5 86.5Q690 71 690 47Q690 24 674.5 8.5Q659 -7 634 -7Q609 -7 593.5 8.5Q578 24 578 47ZM307 47Q307 71 322.5 86.5Q338 102 363 102Q388 102 403.5 86.5Q419 71 419 47Q419 24 403.5 8.5Q388 -7 363 -7Q338 -7 322.5 8.5Q307 24 307 47Z" glyph-name="ellipsis" horiz-adv-x="792" unicode="&#8230;" /><glyph d="M448 106Q416 49 365 18.5Q314 -12 242 -12Q191 -12 153 3Q115 18 90 44.5Q65 71 52.5 108Q40 145 40 189Q40 255 59.5 309.5Q79 364 113 403Q147 442 193.5 463Q240 484 293 484Q353 484 393.5 464.5Q434 445 456.5 413Q479 381 485.5 338Q492 295 485 249Q484 246 483.5 241.5Q483 237 482 232Q481 227 480 221H126Q121 188 124 158Q127 128 140.5 104.5Q154 81 179.5 67Q205 53 246 53Q295 53 325 75.5Q355 98 379 137ZM292 419Q234 419 194 380.5Q154 342 138 284H405Q413 347 382.5 383Q352 419 292 419ZM196 620H455L445 561H186Z" glyph-name="emacron" horiz-adv-x="520" unicode="&#275;" /><glyph d="M48 0 147 564H492L480 496H218L188 324H433L421 257H176L143 68H410L398 0ZM209 689H468L458 630H199Z" glyph-name="emacron.smcp" horiz-adv-x="489" unicode="&#57922;" /><glyph d="M75 321H825L813 254H63Z" glyph-name="emdash" horiz-adv-x="870" unicode="&#8212;" /><glyph d="M88 394H838L826 327H76Z" glyph-name="emdash.cap" horiz-adv-x="870" unicode="&#58502;" /><glyph d="M75 321H455L443 254H63Z" glyph-name="endash" horiz-adv-x="500" unicode="&#8211;" /><glyph d="M88 394H468L456 327H76Z" glyph-name="endash.cap" horiz-adv-x="500" unicode="&#58500;" /><glyph d="M399 312Q404 339 398.5 358.5Q393 378 381 390.5Q369 403 351.5 409Q334 415 316 415Q293 415 269 404Q245 393 224.5 372Q204 351 188.5 320.5Q173 290 166 251L122 0H38L121 472H200L188 400Q216 438 255 461Q294 484 342 484Q377 484 406.5 474Q436 464 456 443Q476 422 484 390Q492 358 484 315L415 -78Q402 -152 360.5 -182Q319 -212 257 -212Q221 -212 192 -202Q163 -192 145 -178L191 -115Q202 -124 216.5 -132Q231 -140 254 -140Q288 -140 306.5 -121Q325 -102 331 -73Z" glyph-name="eng" horiz-adv-x="544" unicode="&#331;" /><glyph d="M321 -148Q356 -148 377 -120.5Q398 -93 405 -57L415 -1Q368 97 327 183Q309 220 291 258Q273 296 256 330.5Q239 365 225.5 394Q212 423 203 442H201L124 0H47L147 564H232Q278 465 318 380Q335 343 353 305.5Q371 268 387 234.5Q403 201 416.5 173Q430 145 438 128H440L517 564H594L483 -61Q471 -131 432.5 -172.5Q394 -214 321 -214Q274 -214 246 -199.5Q218 -185 198 -160L258 -108Q272 -129 286.5 -138.5Q301 -148 321 -148Z" glyph-name="eng.smcp" horiz-adv-x="626" unicode="&#58155;" /><glyph d="M221 -108Q221 -123 230.5 -133Q240 -143 257 -143Q288 -143 311 -111L340 -147Q317 -175 292 -185Q267 -195 241 -195Q201 -195 178 -176.5Q155 -158 155 -121Q155 -83 177.5 -57.5Q200 -32 232 -12Q184 -11 148 5Q112 21 88 47.5Q64 74 52 110Q40 146 40 189Q40 255 59.5 309.5Q79 364 113 403Q147 442 193.5 463Q240 484 293 484Q353 484 393.5 464.5Q434 445 456.5 413Q479 381 485.5 338Q492 295 485 249Q484 246 483.5 241.5Q483 237 482 232Q481 227 480 221H126Q121 188 124 158Q127 128 140.5 104.5Q154 81 179.5 67Q205 53 246 53Q295 53 325 75.5Q355 98 379 137L448 106Q428 71 401 44.5Q374 18 339 1Q221 -55 221 -108ZM292 419Q234 419 194 380.5Q154 342 138 284H405Q413 347 382.5 383Q352 419 292 419Z" glyph-name="eogonek" horiz-adv-x="520" unicode="&#281;" /><glyph d="M348 0Q291 -32 262 -57Q233 -82 233 -108Q233 -123 242.5 -133Q252 -143 269 -143Q300 -143 323 -111L352 -147Q329 -175 304 -185Q279 -195 253 -195Q213 -195 190 -176.5Q167 -158 167 -121Q167 -77 197.5 -48Q228 -19 268 0H48L147 564H492L480 496H218L188 324H433L421 257H176L143 68H410L398 0Z" glyph-name="eogonek.smcp" horiz-adv-x="489" unicode="&#57929;" /><glyph d="M91 450H583L571 382H79ZM59 268H551L539 200H47Z" glyph-name="equal" horiz-adv-x="600" unicode="=" /><glyph d="M97 485H639L627 417H85ZM65 303H607L595 235H53Z" glyph-name="equal.cap" horiz-adv-x="650" unicode="&#58773;" /><glyph d="M24 91H303L292 29H13ZM2 -32H281L270 -94H-9Z" glyph-name="equal.inf" horiz-adv-x="379" unicode="&#58749;" /><glyph d="M112 558H604L592 490H100ZM76 358H568L556 290H64ZM41 158H533L521 90H29Z" glyph-name="equivalence" horiz-adv-x="600" unicode="&#8801;" /><glyph d="M694 164Q674 122 646.5 89Q619 56 581.5 33Q544 10 496.5 -2Q449 -14 388 -14Q305 -14 241.5 12.5Q178 39 135.5 87Q93 135 71.5 202Q50 269 50 351Q50 441 74.5 508.5Q99 576 143 622Q187 668 249.5 691Q312 714 387 714Q472 714 535 685.5Q598 657 639 608Q680 559 700 492.5Q720 426 720 351V323H167Q170 260 185 208.5Q200 157 227.5 121Q255 85 295.5 65.5Q336 46 389 46Q439 46 476.5 58Q514 70 541.5 90Q569 110 587.5 137Q606 164 617 194ZM388 654Q331 654 291 634Q251 614 225 578Q199 542 185 492.5Q171 443 167 384H602Q598 445 583 494.5Q568 544 542 579.5Q516 615 477.5 634.5Q439 654 388 654Z" glyph-name="estimated" horiz-adv-x="770" unicode="&#8494;" /><glyph d="M410 619Q455 563 483 486.5Q511 410 511 314Q511 257 496.5 199Q482 141 450.5 94Q419 47 368.5 17.5Q318 -12 246 -12Q195 -12 156.5 4.5Q118 21 92 49.5Q66 78 53 117Q40 156 40 201Q40 253 57 303.5Q74 354 105.5 394Q137 434 183 459Q229 484 286 484Q329 484 360.5 472.5Q392 461 416 435Q402 474 383 510.5Q364 547 339 579L252 531L227 584L299 624Q279 643 255.5 658Q232 673 206 684L258 733Q287 722 315.5 704.5Q344 687 370 662L452 708L476 656ZM127 202Q127 172 134.5 145.5Q142 119 157 98.5Q172 78 195 66Q218 54 249 54Q289 54 320.5 73.5Q352 93 373.5 124Q395 155 406.5 193.5Q418 232 418 270Q418 300 410.5 326.5Q403 353 387 373.5Q371 394 347.5 406Q324 418 292 418Q253 418 222 398.5Q191 379 170 348Q149 317 138 278.5Q127 240 127 202Z" glyph-name="eth" horiz-adv-x="551" unicode="&#240;" /><glyph d="M108 264H40L50 323H119L161 564H348Q453 564 514 504.5Q575 445 575 339Q575 259 553 196.5Q531 134 489.5 90Q448 46 390 23Q332 0 260 0H62ZM488 339Q488 414 448 455Q408 496 326 496H232L202 323H346L336 264H191L157 68H261Q318 68 361 89.5Q404 111 432 148Q460 185 474 234.5Q488 284 488 339Z" glyph-name="eth.smcp" horiz-adv-x="622" unicode="&#58156;" /><glyph d="M144 186H76L155 700H247ZM36 48Q36 72 51 87Q66 102 91 102Q116 102 131 87Q146 72 146 48Q146 25 131 9Q116 -7 91 -7Q66 -7 51 9Q36 25 36 48Z" glyph-name="exclam" horiz-adv-x="248" unicode="!" /><glyph d="M98 314H166L87 -200H-5ZM206 452Q206 428 191 413Q176 398 151 398Q126 398 111 413Q96 428 96 452Q96 475 111 491Q126 507 151 507Q176 507 191 491Q206 475 206 452Z" glyph-name="exclamdown" horiz-adv-x="238" unicode="&#161;" /><glyph d="M134 514H202L123 0H31ZM242 652Q242 628 227 613Q212 598 187 598Q162 598 147 613Q132 628 132 652Q132 675 147 691Q162 707 187 707Q212 707 227 691Q242 675 242 652Z" glyph-name="exclamdown.cap" horiz-adv-x="238" unicode="&#58433;" /><glyph d="M61 472H142L157 554Q166 602 183.5 632.5Q201 663 224 680.5Q247 698 273 705Q299 712 323 712Q359 712 391 700.5Q423 689 437 672L392 608Q382 621 367 630Q352 639 327 639Q256 639 241 554L226 472H335L324 408H215L143 0H59L131 408H50Z" glyph-name="f" horiz-adv-x="317" unicode="f" /><glyph d="M48 0 147 564H493L481 496H218L188 324H433L421 257H176L131 0Z" glyph-name="f.smcp" horiz-adv-x="481" unicode="&#57862;" /><glyph d="M87 588H139L147 633Q153 665 165 685.5Q177 706 192.5 718Q208 730 225.5 735Q243 740 260 740Q286 740 306.5 732.5Q327 725 337 714L304 667Q298 675 288.5 680.5Q279 686 263 686Q221 686 211 633L203 588H271L263 541H194L150 288H86L130 541H79Z" glyph-name="f.superior" horiz-adv-x="229" unicode="&#58214;" /><glyph d="M61 472H142L157 554Q166 604 184 635Q202 666 224.5 683Q247 700 272 706Q297 712 320 712Q350 712 378.5 704.5Q407 697 423 683L377 618Q356 639 321 639Q283 639 265.5 615.5Q248 592 241 554L226 472H330L319 408H215L143 0H59L131 408H50ZM606 -12Q574 -12 548 -4.5Q522 3 502 15Q482 27 469 42Q456 57 449 73L436 0H357L480 700H564L513 412Q535 441 571 462.5Q607 484 659 484Q702 484 738 469Q774 454 799 426.5Q824 399 838 359.5Q852 320 852 271Q852 208 832 155.5Q812 103 778.5 66Q745 29 700 8.5Q655 -12 606 -12ZM478 216Q470 174 478 144Q486 114 503.5 94.5Q521 75 546 66Q571 57 597 57Q634 57 665 74Q696 91 718 120Q740 149 752.5 187.5Q765 226 765 270Q765 333 735 374Q705 415 644 415Q620 415 595.5 406.5Q571 398 549 380.5Q527 363 511 336Q495 309 488 272Z" glyph-name="f_b" horiz-adv-x="892" unicode="&#58241;" /><glyph d="M449 554Q458 604 476 635Q494 666 516.5 683Q539 700 564 706Q589 712 612 712Q642 712 670.5 704.5Q699 697 715 683L669 618Q648 639 613 639Q575 639 557.5 615.5Q540 592 533 554L518 472H622L611 408H507L435 0H351L423 408H215L143 0H59L131 408H50L61 472H142L156 549Q165 597 182.5 627.5Q200 658 222.5 675.5Q245 693 270.5 700Q296 707 320 707Q355 707 386.5 695.5Q418 684 432 667L387 603Q377 616 362.5 625Q348 634 324 634Q255 634 240 549L226 472H434ZM897 -12Q865 -12 839 -4.5Q813 3 793 15Q773 27 760 42Q747 57 740 73L727 0H648L771 700H855L804 412Q826 441 862 462.5Q898 484 950 484Q993 484 1029 469Q1065 454 1090 426.5Q1115 399 1129 359.5Q1143 320 1143 271Q1143 208 1123 155.5Q1103 103 1069.5 66Q1036 29 991 8.5Q946 -12 897 -12ZM769 216Q761 174 769 144Q777 114 794.5 94.5Q812 75 837 66Q862 57 888 57Q925 57 956 74Q987 91 1009 120Q1031 149 1043.5 187.5Q1056 226 1056 270Q1056 333 1026 374Q996 415 935 415Q911 415 886.5 406.5Q862 398 840 380.5Q818 363 802 336Q786 309 779 272Z" glyph-name="f_f_b" horiz-adv-x="1183" unicode="&#58242;" /><glyph d="M449 554Q458 604 476 635Q494 666 516.5 683Q539 700 564 706Q589 712 612 712Q642 712 670.5 704.5Q699 697 715 683L669 618Q648 639 613 639Q575 639 557.5 615.5Q540 592 533 554L518 472H622L611 408H507L435 0H351L423 408H215L143 0H59L131 408H50L61 472H142L156 549Q165 597 182.5 627.5Q200 658 222.5 675.5Q245 693 270.5 700Q296 707 320 707Q355 707 386.5 695.5Q418 684 432 667L387 603Q377 616 362.5 625Q348 634 324 634Q255 634 240 549L226 472H434ZM773 700H857L806 407Q829 440 867.5 462Q906 484 954 484Q989 484 1018.5 474Q1048 464 1068 443Q1088 422 1096 390Q1104 358 1096 315L1040 0H956L1011 312Q1016 339 1010.5 358.5Q1005 378 993 390.5Q981 403 963.5 409Q946 415 928 415Q905 415 881 404Q857 393 836.5 372Q816 351 800.5 320.5Q785 290 778 251L734 0H649Z" glyph-name="f_f_h" horiz-adv-x="1156" unicode="&#58243;" /><glyph d="M704 408H507L435 0H351L423 408H215L143 0H59L131 408H50L61 472H142L156 549Q165 597 182.5 627.5Q200 658 222.5 675.5Q245 693 270.5 700Q296 707 320 707Q355 707 386.5 695.5Q418 684 432 667L387 603Q377 616 362.5 625Q348 634 324 634Q255 634 240 549L226 472H434L444 526Q453 578 473 613.5Q493 649 520 671Q547 693 579 702.5Q611 712 645 712Q699 712 739.5 690.5Q780 669 798 628L732 581Q719 607 699 623Q679 639 644 639Q596 639 567 608.5Q538 578 527 521L518 472H799L703 -78Q696 -118 680 -144Q664 -170 643 -185Q622 -200 597.5 -206Q573 -212 548 -212Q511 -212 481 -202.5Q451 -193 433 -179L479 -116Q490 -124 504.5 -132Q519 -140 542 -140Q576 -140 595 -121Q614 -102 619 -73Z" glyph-name="f_f_j" horiz-adv-x="838" unicode="&#57898;" /><glyph d="M449 554Q458 604 476 635Q494 666 516.5 683Q539 700 564 706Q589 712 612 712Q642 712 670.5 704.5Q699 697 715 683L669 618Q648 639 613 639Q575 639 557.5 615.5Q540 592 533 554L518 472H622L611 408H507L435 0H351L423 408H215L143 0H59L131 408H50L61 472H142L156 549Q165 597 182.5 627.5Q200 658 222.5 675.5Q245 693 270.5 700Q296 707 320 707Q355 707 386.5 695.5Q418 684 432 667L387 603Q377 616 362.5 625Q348 634 324 634Q255 634 240 549L226 472H434ZM833 250 767 198 732 0H648L771 700H855L783 291L1011 472H1117L899 298L1063 0H968Z" glyph-name="f_f_k" horiz-adv-x="1109" unicode="&#58245;" /><glyph d="M61 472H142L157 554Q166 604 184 635Q202 666 224.5 683Q247 700 272 706Q297 712 320 712Q350 712 378.5 704.5Q407 697 423 683L377 618Q356 639 321 639Q283 639 265.5 615.5Q248 592 241 554L226 472H330L319 408H215L143 0H59L131 408H50ZM480 700H564L513 407Q536 440 574.5 462Q613 484 661 484Q696 484 725.5 474Q755 464 775 443Q795 422 803 390Q811 358 803 315L747 0H663L718 312Q723 339 717.5 358.5Q712 378 700 390.5Q688 403 670.5 409Q653 415 635 415Q612 415 588 404Q564 393 543.5 372Q523 351 507.5 320.5Q492 290 485 251L441 0H356Z" glyph-name="f_h" horiz-adv-x="863" unicode="&#58246;" /><glyph d="M412 408H215L143 0H59L131 408H50L61 472H142L152 526Q161 578 181 613.5Q201 649 228 671Q255 693 287 702.5Q319 712 353 712Q407 712 447.5 690.5Q488 669 506 628L440 581Q427 607 407 623Q387 639 352 639Q304 639 275 608.5Q246 578 235 521L226 472H507L424 0H340Z" glyph-name="f_i" horiz-adv-x="546" unicode="&#62209;" /><glyph d="M412 408H215L143 0H59L131 408H50L61 472H142L152 526Q161 578 181 613.5Q201 649 228 671Q255 693 287 702.5Q319 712 353 712Q407 712 447.5 690.5Q488 669 506 628L440 581Q427 607 407 623Q387 639 352 639Q304 639 275 608.5Q246 578 235 521L226 472H507L411 -78Q404 -118 388 -144Q372 -170 351 -185Q330 -200 305.5 -206Q281 -212 256 -212Q219 -212 189 -202.5Q159 -193 141 -179L187 -116Q198 -124 212.5 -132Q227 -140 250 -140Q284 -140 303 -121Q322 -102 327 -73Z" glyph-name="f_j" horiz-adv-x="546" unicode="&#58247;" /><glyph d="M61 472H142L157 554Q166 604 184 635Q202 666 224.5 683Q247 700 272 706Q297 712 320 712Q350 712 378.5 704.5Q407 697 423 683L377 618Q356 639 321 639Q283 639 265.5 615.5Q248 592 241 554L226 472H330L319 408H215L143 0H59L131 408H50ZM542 250 476 198 441 0H357L480 700H564L492 291L720 472H826L608 298L772 0H677Z" glyph-name="f_k" horiz-adv-x="818" unicode="&#58248;" /><glyph d="M143 0H59L131 408H50L61 472H142L156 549Q165 597 182.5 627.5Q200 658 222.5 675.5Q245 693 270.5 700Q296 707 320 707Q355 707 386.5 695.5Q418 684 432 667L387 603Q377 616 362.5 625Q348 634 324 634Q255 634 240 549L226 472H434L449 554Q458 602 475.5 632.5Q493 663 516 680.5Q539 698 565 705Q591 712 615 712Q651 712 683 700.5Q715 689 729 672L684 608Q674 621 659 630Q644 639 619 639Q548 639 533 554L518 472H627L616 408H507L435 0H351L423 408H215Z" glyph-name="ff" horiz-adv-x="609" unicode="&#64256;" /><glyph d="M704 408H507L435 0H351L423 408H215L143 0H59L131 408H50L61 472H142L156 549Q165 597 182.5 627.5Q200 658 222.5 675.5Q245 693 270.5 700Q296 707 320 707Q355 707 386.5 695.5Q418 684 432 667L387 603Q377 616 362.5 625Q348 634 324 634Q255 634 240 549L226 472H434L444 526Q453 578 473 613.5Q493 649 520 671Q547 693 579 702.5Q611 712 645 712Q699 712 739.5 690.5Q780 669 798 628L732 581Q719 607 699 623Q679 639 644 639Q596 639 567 608.5Q538 578 527 521L518 472H799L716 0H632Z" glyph-name="ffi" horiz-adv-x="838" unicode="&#64259;" /><glyph d="M449 554Q458 604 476 635Q494 666 516.5 683Q539 700 564 706Q589 712 612 712Q642 712 670.5 704.5Q699 697 715 683L669 618Q648 639 613 639Q575 639 557.5 615.5Q540 592 533 554L518 472H622L611 408H507L435 0H351L423 408H215L143 0H59L131 408H50L61 472H142L156 549Q165 597 182.5 627.5Q200 658 222.5 675.5Q245 693 270.5 700Q296 707 320 707Q355 707 386.5 695.5Q418 684 432 667L387 603Q377 616 362.5 625Q348 634 324 634Q255 634 240 549L226 472H434ZM771 700H855L732 0H648Z" glyph-name="ffl" horiz-adv-x="854" unicode="&#64260;" /><glyph d="M438 472H522L439 0H355ZM454 656Q454 681 469.5 696Q485 711 509 711Q533 711 548.5 696Q564 681 564 656Q564 634 548.5 618Q533 602 509 602Q485 602 469.5 618Q454 634 454 656ZM61 472H142L157 554Q166 603 183.5 633.5Q201 664 223.5 681.5Q246 699 271 705.5Q296 712 319 712Q346 712 373 704.5Q400 697 414 683L371 618Q352 639 320 639Q282 639 265 615.5Q248 592 241 554L226 472H330L319 408H215L143 0H59L131 408H50Z" glyph-name="fi" horiz-adv-x="561" unicode="&#64257;" /><glyph d="M349 431Q350 407 366.5 390Q383 373 412 373Q447 373 470.5 396.5Q494 420 494 457Q494 486 478 502.5Q462 519 433 519Q409 519 392 509Q375 499 364 484L306 495L365 698H587L568 641H407L378 546Q387 555 405 564Q423 573 446 573Q506 573 535.5 540Q565 507 565 459Q565 432 554.5 406.5Q544 381 524.5 361Q505 341 476 329Q447 317 411 317Q379 317 355.5 325.5Q332 334 316 347.5Q300 361 292 378.5Q284 396 283 414ZM1174 329Q1150 329 1131 318.5Q1112 308 1098.5 290.5Q1085 273 1076 250Q1067 227 1062 202Q1073 219 1099 233.5Q1125 248 1160 248Q1189 248 1211 238.5Q1233 229 1248 213.5Q1263 198 1270.5 177Q1278 156 1278 132Q1278 106 1268 81Q1258 56 1239.5 36.5Q1221 17 1193.5 4.5Q1166 -8 1130 -8Q1065 -8 1029 27.5Q993 63 993 146Q993 186 1003 228.5Q1013 271 1035 305.5Q1057 340 1091.5 362Q1126 384 1175 384Q1229 384 1260 359.5Q1291 335 1296 295L1230 285Q1228 302 1215.5 315.5Q1203 329 1174 329ZM1145 194Q1113 194 1088 172.5Q1063 151 1063 113Q1063 84 1080 65.5Q1097 47 1129 47Q1161 47 1184.5 68.5Q1208 90 1208 131Q1208 160 1192 177Q1176 194 1145 194ZM342 -12 905 712H983L420 -12ZM260 700 194 324H123L176 625Q147 605 95 604L92 661Q124 665 151.5 674.5Q179 684 198 700ZM951 376 885 0H814L867 301Q838 281 786 280L783 337Q815 341 842.5 350.5Q870 360 889 376Z" glyph-name="fifteensixteenths" horiz-adv-x="1330" unicode="&#61986;" /><glyph d="M75 321H555L543 254H63Z" glyph-name="figuredash" horiz-adv-x="600" unicode="&#8210;" /><glyph d="M88 394H568L556 327H76Z" glyph-name="figuredash.cap" horiz-adv-x="600" unicode="&#58503;" /><glyph d="M146 182Q146 156 154.5 133Q163 110 179.5 93Q196 76 219 66Q242 56 272 56Q309 56 339.5 71.5Q370 87 391.5 113Q413 139 425 173Q437 207 437 244Q437 301 406.5 340Q376 379 315 379Q268 379 235 358.5Q202 338 182 306L113 319L215 686H569L545 616H267L205 401Q223 418 251 432.5Q279 447 321 447Q372 447 410 431.5Q448 416 473 388.5Q498 361 510.5 324Q523 287 523 245Q523 197 506 151Q489 105 456 68.5Q423 32 376 10Q329 -12 269 -12Q212 -12 173 5.5Q134 23 110 49.5Q86 76 76 106.5Q66 137 68 164Z" glyph-name="five" horiz-adv-x="600" unicode="5" /><glyph d="M115 182Q115 156 123.5 133Q132 110 148.5 93Q165 76 188 66Q211 56 241 56Q278 56 308.5 71.5Q339 87 360.5 113Q382 139 394 173Q406 207 406 244Q406 301 375.5 340Q345 379 284 379Q237 379 204 358.5Q171 338 151 306L82 319L184 686H538L514 616H236L174 401Q192 418 220 432.5Q248 447 290 447Q341 447 379 431.5Q417 416 442 388.5Q467 361 479.5 324Q492 287 492 245Q492 197 475 151Q458 105 425 68.5Q392 32 345 10Q298 -12 238 -12Q181 -12 142 5.5Q103 23 79 49.5Q55 76 45 106.5Q35 137 37 164Z" glyph-name="five.LP" horiz-adv-x="539" unicode="&#58682;" /><glyph d="M146 182Q146 156 154.5 133Q163 110 179.5 93Q196 76 219 66Q242 56 272 56Q309 56 339.5 71.5Q370 87 391.5 113Q413 139 425 173Q437 207 437 244Q437 301 406.5 340Q376 379 315 379Q268 379 235 358.5Q202 338 182 306L113 319L215 686H569L545 616H267L205 401Q223 418 251 432.5Q279 447 321 447Q372 447 410 431.5Q448 416 473 388.5Q498 361 510.5 324Q523 287 523 245Q523 197 506 151Q489 105 456 68.5Q423 32 376 10Q329 -12 269 -12Q212 -12 173 5.5Q134 23 110 49.5Q86 76 76 106.5Q66 137 68 164Z" glyph-name="five.LT" horiz-adv-x="600" unicode="&#58693;" /><glyph d="M95 60Q95 34 103.5 10.5Q112 -13 128.5 -30Q145 -47 168.5 -57Q192 -67 222 -67Q259 -67 290 -51.5Q321 -36 342.5 -9.5Q364 17 376 51Q388 85 388 122Q388 151 380.5 176Q373 201 357.5 219.5Q342 238 319 248.5Q296 259 265 259Q218 259 185 238.5Q152 218 132 185L63 198L165 564H519L495 495H217L155 277Q173 294 201 310Q229 326 271 326Q322 326 360 310Q398 294 423 266.5Q448 239 460.5 202Q473 165 473 123Q473 75 456 29Q439 -17 406 -53.5Q373 -90 326 -112Q279 -134 219 -134Q162 -134 123 -116.5Q84 -99 60 -72.5Q36 -46 26 -15.5Q16 15 18 42Z" glyph-name="five.OP" horiz-adv-x="544" unicode="&#58688;" /><glyph d="M123 60Q123 34 131.5 10.5Q140 -13 156.5 -30Q173 -47 196.5 -57Q220 -67 250 -67Q287 -67 318 -51.5Q349 -36 370.5 -9.5Q392 17 404 51Q416 85 416 122Q416 151 408.5 176Q401 201 385.5 219.5Q370 238 347 248.5Q324 259 293 259Q246 259 213 238.5Q180 218 160 185L91 198L193 564H547L523 495H245L183 277Q201 294 229 310Q257 326 299 326Q350 326 388 310Q426 294 451 266.5Q476 239 488.5 202Q501 165 501 123Q501 75 484 29Q467 -17 434 -53.5Q401 -90 354 -112Q307 -134 247 -134Q190 -134 151 -116.5Q112 -99 88 -72.5Q64 -46 54 -15.5Q44 15 46 42Z" glyph-name="five.OT" horiz-adv-x="600" unicode="&#58715;" /><glyph d="M52 -93Q53 -117 69.5 -134Q86 -151 115 -151Q150 -151 173.5 -127.5Q197 -104 197 -67Q197 -38 181 -21.5Q165 -5 136 -5Q112 -5 95 -15Q78 -25 67 -40L9 -29L68 174H290L271 117H110L81 22Q90 31 108 40Q126 49 149 49Q209 49 238.5 16Q268 -17 268 -65Q268 -92 257.5 -117.5Q247 -143 227.5 -163Q208 -183 179 -195Q150 -207 114 -207Q82 -207 58.5 -198.5Q35 -190 19 -176.5Q3 -163 -5 -145.5Q-13 -128 -14 -110Z" glyph-name="five.inf" horiz-adv-x="357" unicode="&#58742;" /><glyph d="M961 329Q937 329 918 318.5Q899 308 885.5 290.5Q872 273 863 250Q854 227 849 202Q860 219 886 233.5Q912 248 947 248Q976 248 998 238.5Q1020 229 1035 213.5Q1050 198 1057.5 177Q1065 156 1065 132Q1065 106 1055 81Q1045 56 1026.5 36.5Q1008 17 980.5 4.5Q953 -8 917 -8Q852 -8 816 27.5Q780 63 780 146Q780 186 790 228.5Q800 271 822 305.5Q844 340 878.5 362Q913 384 962 384Q1016 384 1047 359.5Q1078 335 1083 295L1017 285Q1015 302 1002.5 315.5Q990 329 961 329ZM932 194Q900 194 875 172.5Q850 151 850 113Q850 84 867 65.5Q884 47 916 47Q948 47 971.5 68.5Q995 90 995 131Q995 160 979 177Q963 194 932 194ZM738 376 672 0H601L654 301Q625 281 573 280L570 337Q602 341 629.5 350.5Q657 360 676 376ZM143 431Q144 407 160.5 390Q177 373 206 373Q241 373 264.5 396.5Q288 420 288 457Q288 486 272 502.5Q256 519 227 519Q203 519 186 509Q169 499 158 484L100 495L159 698H381L362 641H201L172 546Q181 555 199 564Q217 573 240 573Q300 573 329.5 540Q359 507 359 459Q359 432 348.5 406.5Q338 381 318.5 361Q299 341 270 329Q241 317 205 317Q173 317 149.5 325.5Q126 334 110 347.5Q94 361 86 378.5Q78 396 77 414ZM129 -12 692 712H770L207 -12Z" glyph-name="fivesixteenths" horiz-adv-x="1117" unicode="&#61975;" /><glyph d="M440 472H524L430 -68Q416 -147 374 -179.5Q332 -212 269 -212Q234 -212 205 -202Q176 -192 158 -178L204 -115Q215 -124 229.5 -132Q244 -140 267 -140Q302 -140 321 -118.5Q340 -97 346 -63ZM456 656Q456 681 471.5 696Q487 711 511 711Q535 711 550.5 696Q566 681 566 656Q566 634 550.5 618Q535 602 511 602Q487 602 471.5 618Q456 634 456 656ZM61 472H142L157 554Q166 603 183.5 633.5Q201 664 223.5 681.5Q246 699 271 705.5Q296 712 319 712Q346 712 373 704.5Q400 697 414 683L371 618Q352 639 320 639Q282 639 265 615.5Q248 592 241 554L226 472H330L319 408H215L143 0H59L131 408H50Z" glyph-name="fj" horiz-adv-x="564" /><glyph d="M61 472H142L157 554Q166 604 184 635Q202 666 224.5 683Q247 700 272 706Q297 712 320 712Q350 712 378.5 704.5Q407 697 423 683L377 618Q356 639 321 639Q283 639 265.5 615.5Q248 592 241 554L226 472H330L319 408H215L143 0H59L131 408H50ZM479 700H563L440 0H356Z" glyph-name="fl" horiz-adv-x="562" unicode="&#64258;" /><glyph d="M149 416H228L262 564Q272 607 288.5 635.5Q305 664 326 681Q347 698 372 705Q397 712 423 712Q461 712 487 701Q513 690 527 679L479 615Q470 624 454.5 631.5Q439 639 419 639Q387 639 368 616.5Q349 594 341 556L309 416H428L417 354H295L214 -2Q205 -44 188.5 -72Q172 -100 151 -117.5Q130 -135 105.5 -142.5Q81 -150 55 -150Q20 -150 -9 -139.5Q-38 -129 -51 -117L-3 -53Q6 -62 21.5 -69.5Q37 -77 56 -77Q86 -77 105.5 -57Q125 -37 133 0L213 354H138Z" glyph-name="florin" horiz-adv-x="476" unicode="&#402;" /><glyph d="M528 686 448 231H557L533 165H436L407 0H327L356 165H37L48 230L415 686ZM368 231 435 609H433L129 231Z" glyph-name="four" horiz-adv-x="600" unicode="4" /><glyph d="M505 686 425 231H534L510 165H413L384 0H304L333 165H14L25 230L392 686ZM345 231 412 609H410L106 231Z" glyph-name="four.LP" horiz-adv-x="555" unicode="&#58681;" /><glyph d="M528 686 448 231H557L533 165H436L407 0H327L356 165H37L48 230L415 686ZM368 231 435 609H433L129 231Z" glyph-name="four.LT" horiz-adv-x="600" unicode="&#58692;" /><glyph d="M485 564 405 108H515L491 44H393L364 -122H286L315 44H-5L6 107L373 564ZM327 108 394 488H392L87 108Z" glyph-name="four.OP" horiz-adv-x="557" unicode="&#58703;" /><glyph d="M507 564 427 108H537L513 44H415L386 -122H308L337 44H17L28 107L395 564ZM349 108 416 488H414L109 108Z" glyph-name="four.OT" horiz-adv-x="600" unicode="&#58714;" /><glyph d="M-23 -65 179 174H268L226 -65H289L269 -119H216L202 -200H135L149 -119H-32ZM159 -65 189 107H188L43 -65Z" glyph-name="four.inf" horiz-adv-x="370" unicode="&#58741;" /><glyph d="M-173 -12 390 712H468L-95 -12Z" glyph-name="fraction" horiz-adv-x="256" unicode="&#8260;" /><glyph d="M380 74Q360 48 322.5 28Q285 8 235 8Q190 8 154 22Q118 36 92.5 62.5Q67 89 53.5 126.5Q40 164 40 211Q40 272 59.5 322.5Q79 373 112.5 409Q146 445 190 464.5Q234 484 284 484Q316 484 342 477Q368 470 388 458Q408 446 421 431Q434 416 441 400L454 472H533L455 27Q434 -94 374.5 -153Q315 -212 205 -212Q121 -212 75 -179Q29 -146 10 -90L87 -61Q93 -77 101 -92Q109 -107 122.5 -119Q136 -131 156.5 -138Q177 -145 207 -145Q244 -145 272 -133Q300 -121 319.5 -100Q339 -79 351.5 -49Q364 -19 370 17ZM412 255Q419 297 411.5 327Q404 357 386.5 376.5Q369 396 344.5 405.5Q320 415 293 415Q256 415 225.5 399Q195 383 173 355.5Q151 328 139 291Q127 254 127 212Q127 153 157 115Q187 77 248 77Q273 77 298 84.5Q323 92 345 108.5Q367 125 383 151Q399 177 405 214Z" glyph-name="g" horiz-adv-x="573" unicode="g" /><glyph d="M314 286H553L503 0H426L436 60Q427 47 412.5 34Q398 21 378.5 11Q359 1 335 -5.5Q311 -12 284 -12Q229 -12 187.5 7Q146 26 118 59Q90 92 76 137.5Q62 183 62 236Q62 302 82 363Q102 424 139.5 471.5Q177 519 231 547Q285 575 354 575Q439 575 493.5 537Q548 499 569 430L489 404Q478 452 444 479.5Q410 507 350 507Q305 507 267.5 485.5Q230 464 203.5 427Q177 390 162.5 340.5Q148 291 148 234Q148 153 185 104.5Q222 56 299 56Q326 56 352 64.5Q378 73 399 89Q420 105 434.5 129Q449 153 454 185L460 221H302Z" glyph-name="g.smcp" horiz-adv-x="621" unicode="&#57863;" /><glyph d="M301 447Q310 497 287.5 521Q265 545 231 545Q209 545 190.5 535.5Q172 526 159 509Q146 492 139 469.5Q132 447 132 422Q132 388 150 366Q168 344 204 344Q236 344 263 364.5Q290 385 298 430ZM106 252Q113 232 127.5 217.5Q142 203 178 203Q223 203 245 231Q267 259 275 301L281 335Q268 318 244.5 305.5Q221 293 189 293Q133 293 99.5 327.5Q66 362 66 421Q66 460 78.5 492.5Q91 525 113 548Q135 571 163 583.5Q191 596 223 596Q263 596 287.5 580Q312 564 321 544L329 588H390L340 303Q327 228 287.5 190.5Q248 153 177 153Q120 153 89 174Q58 195 47 230Z" glyph-name="g.superior" horiz-adv-x="385" unicode="&#58215;" /><glyph d="M380 74Q360 48 322.5 28Q285 8 235 8Q190 8 154 22Q118 36 92.5 62.5Q67 89 53.5 126.5Q40 164 40 211Q40 272 59.5 322.5Q79 373 112.5 409Q146 445 190 464.5Q234 484 284 484Q316 484 342 477Q368 470 388 458Q408 446 421 431Q434 416 441 400L454 472H533L455 27Q434 -94 374.5 -153Q315 -212 205 -212Q121 -212 75 -179Q29 -146 10 -90L87 -61Q93 -77 101 -92Q109 -107 122.5 -119Q136 -131 156.5 -138Q177 -145 207 -145Q244 -145 272 -133Q300 -121 319.5 -100Q339 -79 351.5 -49Q364 -19 370 17ZM412 255Q419 297 411.5 327Q404 357 386.5 376.5Q369 396 344.5 405.5Q320 415 293 415Q256 415 225.5 399Q195 383 173 355.5Q151 328 139 291Q127 254 127 212Q127 153 157 115Q187 77 248 77Q273 77 298 84.5Q323 92 345 108.5Q367 125 383 151Q399 177 405 214ZM238 673Q239 642 259 620Q279 598 314 598Q349 598 375.5 620Q402 642 412 673L478 653Q462 607 418.5 574.5Q375 542 312 542Q252 542 214.5 573Q177 604 172 653Z" glyph-name="gbreve" horiz-adv-x="573" unicode="&#287;" /><glyph d="M314 286H553L503 0H426L436 60Q427 47 412.5 34Q398 21 378.5 11Q359 1 335 -5.5Q311 -12 284 -12Q229 -12 187.5 7Q146 26 118 59Q90 92 76 137.5Q62 183 62 236Q62 302 82 363Q102 424 139.5 471.5Q177 519 231 547Q285 575 354 575Q439 575 493.5 537Q548 499 569 430L489 404Q478 452 444 479.5Q410 507 350 507Q305 507 267.5 485.5Q230 464 203.5 427Q177 390 162.5 340.5Q148 291 148 234Q148 153 185 104.5Q222 56 299 56Q326 56 352 64.5Q378 73 399 89Q420 105 434.5 129Q449 153 454 185L460 221H302ZM301 749Q302 718 322 696Q342 674 377 674Q412 674 438.5 696Q465 718 475 749L541 729Q525 683 481.5 650.5Q438 618 375 618Q315 618 277.5 649Q240 680 235 729Z" glyph-name="gbreve.smcp" horiz-adv-x="621" unicode="&#57934;" /><glyph d="M380 74Q360 48 322.5 28Q285 8 235 8Q190 8 154 22Q118 36 92.5 62.5Q67 89 53.5 126.5Q40 164 40 211Q40 272 59.5 322.5Q79 373 112.5 409Q146 445 190 464.5Q234 484 284 484Q316 484 342 477Q368 470 388 458Q408 446 421 431Q434 416 441 400L454 472H533L455 27Q434 -94 374.5 -153Q315 -212 205 -212Q121 -212 75 -179Q29 -146 10 -90L87 -61Q93 -77 101 -92Q109 -107 122.5 -119Q136 -131 156.5 -138Q177 -145 207 -145Q244 -145 272 -133Q300 -121 319.5 -100Q339 -79 351.5 -49Q364 -19 370 17ZM412 255Q419 297 411.5 327Q404 357 386.5 376.5Q369 396 344.5 405.5Q320 415 293 415Q256 415 225.5 399Q195 383 173 355.5Q151 328 139 291Q127 254 127 212Q127 153 157 115Q187 77 248 77Q273 77 298 84.5Q323 92 345 108.5Q367 125 383 151Q399 177 405 214ZM301 694H357L450 563L405 529L324 635L205 528L166 568Z" glyph-name="gcircumflex" horiz-adv-x="573" unicode="&#285;" /><glyph d="M314 286H553L503 0H426L436 60Q427 47 412.5 34Q398 21 378.5 11Q359 1 335 -5.5Q311 -12 284 -12Q229 -12 187.5 7Q146 26 118 59Q90 92 76 137.5Q62 183 62 236Q62 302 82 363Q102 424 139.5 471.5Q177 519 231 547Q285 575 354 575Q439 575 493.5 537Q548 499 569 430L489 404Q478 452 444 479.5Q410 507 350 507Q305 507 267.5 485.5Q230 464 203.5 427Q177 390 162.5 340.5Q148 291 148 234Q148 153 185 104.5Q222 56 299 56Q326 56 352 64.5Q378 73 399 89Q420 105 434.5 129Q449 153 454 185L460 221H302ZM365 774H421L514 643L469 609L388 715L269 608L230 648Z" glyph-name="gcircumflex.smcp" horiz-adv-x="621" unicode="&#57931;" /><glyph d="M380 74Q360 48 322.5 28Q285 8 235 8Q190 8 154 22Q118 36 92.5 62.5Q67 89 53.5 126.5Q40 164 40 211Q40 272 59.5 322.5Q79 373 112.5 409Q146 445 190 464.5Q234 484 284 484Q316 484 342 477Q368 470 388 458Q408 446 421 431Q434 416 441 400L454 472H533L455 27Q434 -94 374.5 -153Q315 -212 205 -212Q121 -212 75 -179Q29 -146 10 -90L87 -61Q93 -77 101 -92Q109 -107 122.5 -119Q136 -131 156.5 -138Q177 -145 207 -145Q244 -145 272 -133Q300 -121 319.5 -100Q339 -79 351.5 -49Q364 -19 370 17ZM412 255Q419 297 411.5 327Q404 357 386.5 376.5Q369 396 344.5 405.5Q320 415 293 415Q256 415 225.5 399Q195 383 173 355.5Q151 328 139 291Q127 254 127 212Q127 153 157 115Q187 77 248 77Q273 77 298 84.5Q323 92 345 108.5Q367 125 383 151Q399 177 405 214ZM266 601Q266 612 270.5 629Q275 646 287 662Q299 678 319 690Q339 702 370 703L379 670Q356 670 338 659Q320 648 318 626Q321 627 327 627Q345 626 357 613.5Q369 601 369 584Q369 567 356.5 550.5Q344 534 318 534Q289 534 277.5 554Q266 574 266 601Z" glyph-name="gcommaaccent" horiz-adv-x="573" unicode="&#291;" /><glyph d="M314 286H553L503 0H426L436 60Q427 47 412.5 34Q398 21 378.5 11Q359 1 335 -5.5Q311 -12 284 -12Q229 -12 187.5 7Q146 26 118 59Q90 92 76 137.5Q62 183 62 236Q62 302 82 363Q102 424 139.5 471.5Q177 519 231 547Q285 575 354 575Q439 575 493.5 537Q548 499 569 430L489 404Q478 452 444 479.5Q410 507 350 507Q305 507 267.5 485.5Q230 464 203.5 427Q177 390 162.5 340.5Q148 291 148 234Q148 153 185 104.5Q222 56 299 56Q326 56 352 64.5Q378 73 399 89Q420 105 434.5 129Q449 153 454 185L460 221H302ZM312 -117Q312 -130 307.5 -147.5Q303 -165 291 -181Q279 -197 259 -209Q239 -221 208 -222L199 -189Q222 -189 239.5 -178Q257 -167 259 -145Q258 -146 257 -146H250Q233 -145 221 -132.5Q209 -120 209 -103Q209 -86 221.5 -69.5Q234 -53 260 -53Q286 -53 299 -72Q312 -91 312 -117Z" glyph-name="gcommaaccent.smcp" horiz-adv-x="621" unicode="&#57920;" /><glyph d="M380 74Q360 48 322.5 28Q285 8 235 8Q190 8 154 22Q118 36 92.5 62.5Q67 89 53.5 126.5Q40 164 40 211Q40 272 59.5 322.5Q79 373 112.5 409Q146 445 190 464.5Q234 484 284 484Q316 484 342 477Q368 470 388 458Q408 446 421 431Q434 416 441 400L454 472H533L455 27Q434 -94 374.5 -153Q315 -212 205 -212Q121 -212 75 -179Q29 -146 10 -90L87 -61Q93 -77 101 -92Q109 -107 122.5 -119Q136 -131 156.5 -138Q177 -145 207 -145Q244 -145 272 -133Q300 -121 319.5 -100Q339 -79 351.5 -49Q364 -19 370 17ZM412 255Q419 297 411.5 327Q404 357 386.5 376.5Q369 396 344.5 405.5Q320 415 293 415Q256 415 225.5 399Q195 383 173 355.5Q151 328 139 291Q127 254 127 212Q127 153 157 115Q187 77 248 77Q273 77 298 84.5Q323 92 345 108.5Q367 125 383 151Q399 177 405 214ZM265 603Q265 628 280.5 643Q296 658 320 658Q344 658 359.5 643Q375 628 375 603Q375 581 359.5 565Q344 549 320 549Q296 549 280.5 565Q265 581 265 603Z" glyph-name="gdotaccent" horiz-adv-x="573" unicode="&#289;" /><glyph d="M314 286H553L503 0H426L436 60Q427 47 412.5 34Q398 21 378.5 11Q359 1 335 -5.5Q311 -12 284 -12Q229 -12 187.5 7Q146 26 118 59Q90 92 76 137.5Q62 183 62 236Q62 302 82 363Q102 424 139.5 471.5Q177 519 231 547Q285 575 354 575Q439 575 493.5 537Q548 499 569 430L489 404Q478 452 444 479.5Q410 507 350 507Q305 507 267.5 485.5Q230 464 203.5 427Q177 390 162.5 340.5Q148 291 148 234Q148 153 185 104.5Q222 56 299 56Q326 56 352 64.5Q378 73 399 89Q420 105 434.5 129Q449 153 454 185L460 221H302ZM328 676Q328 701 343.5 716Q359 731 383 731Q407 731 422.5 716Q438 701 438 676Q438 654 422.5 638Q407 622 383 622Q359 622 343.5 638Q328 654 328 676Z" glyph-name="gdotaccent.smcp" horiz-adv-x="621" unicode="&#57935;" /><glyph d="M124 487Q133 536 150.5 577.5Q168 619 195.5 649Q223 679 260 695.5Q297 712 345 712Q391 712 426 699Q461 686 484 663.5Q507 641 518.5 611.5Q530 582 530 549Q530 479 493.5 433.5Q457 388 400 368Q447 355 476.5 311.5Q506 268 506 208Q506 162 490.5 122Q475 82 445 52Q415 22 372 5Q329 -12 275 -12Q246 -12 223.5 -7.5Q201 -3 181 5L193 75Q206 65 229 60.5Q252 56 275 56Q320 56 348 73Q376 90 392 114Q408 138 414 164Q420 190 420 209Q420 235 412 258.5Q404 282 387.5 300Q371 318 346 328.5Q321 339 288 339Q283 339 278 338.5Q273 338 269 338H260L272 403Q277 402 281 402Q285 401 289 401Q293 401 298 401Q333 401 360.5 412.5Q388 424 407 444Q426 464 436 490.5Q446 517 446 548Q446 597 418 621Q390 645 345 645Q288 645 254.5 602.5Q221 560 209 491L122 0H38Z" glyph-name="germandbls" horiz-adv-x="558" unicode="&#223;" /><glyph d="M270 641 320 700 466 574 432 533Z" glyph-name="grave" horiz-adv-x="600" unicode="`" /><glyph d="M308 857 358 916 504 790 470 749Z" glyph-name="grave.cap" horiz-adv-x="600" unicode="&#58401;" /><glyph d="M571 358 559 290 26 58 42 147 476 329 106 511 120 589Z" glyph-name="greater" horiz-adv-x="600" unicode="&gt;" /><glyph d="M562 385 550 317 17 85 33 174 467 356 97 538 111 616Z" glyph-name="greater.cap" horiz-adv-x="600" unicode="&#58775;" /><glyph d="M24 68H516L504 0H12ZM575 409 563 341 33 121 49 206 480 378 109 550 123 627Z" glyph-name="greaterequal" horiz-adv-x="600" unicode="&#8805;" /><glyph d="M38 261 243 468 289 425 129 254 228 81 174 44ZM233 261 438 468 484 425 324 254 423 81 369 44Z" glyph-name="guillemotleft" horiz-adv-x="489" unicode="&#171;" /><glyph d="M50 331 255 538 301 495 141 324 240 151 186 114ZM245 331 450 538 496 495 336 324 435 151 381 114Z" glyph-name="guillemotleft.cap" horiz-adv-x="490" unicode="&#58451;" /><glyph d="M264 251 59 44 13 87 173 258 74 431 128 468ZM460 251 255 44 209 87 369 258 270 431 324 468Z" glyph-name="guillemotright" horiz-adv-x="491" unicode="&#187;" /><glyph d="M276 321 71 114 25 157 185 328 86 501 140 538ZM472 321 267 114 221 157 381 328 282 501 336 538Z" glyph-name="guillemotright.cap" horiz-adv-x="491" unicode="&#58452;" /><glyph d="M38 261 243 468 289 425 129 254 228 81 174 44Z" glyph-name="guilsinglleft" horiz-adv-x="294" unicode="&#8249;" /><glyph d="M50 331 255 538 301 495 141 324 240 151 186 114Z" glyph-name="guilsinglleft.cap" horiz-adv-x="293" unicode="&#58449;" /><glyph d="M264 251 59 44 13 87 173 258 74 431 128 468Z" glyph-name="guilsinglright" horiz-adv-x="295" unicode="&#8250;" /><glyph d="M276 321 71 114 25 157 185 328 86 501 140 538Z" glyph-name="guilsinglright.cap" horiz-adv-x="295" unicode="&#58450;" /><glyph d="M162 700H246L195 407Q218 440 256.5 462Q295 484 343 484Q378 484 407.5 474Q437 464 457 443Q477 422 485 390Q493 358 485 315L429 0H345L400 312Q405 339 399.5 358.5Q394 378 382 390.5Q370 403 352.5 409Q335 415 317 415Q294 415 270 404Q246 393 225.5 372Q205 351 189.5 320.5Q174 290 167 251L123 0H38Z" glyph-name="h" horiz-adv-x="545" unicode="h" /><glyph d="M147 564H230L188 325H448L490 564H573L474 0H391L436 257H176L131 0H48Z" glyph-name="h.smcp" horiz-adv-x="606" unicode="&#57864;" /><glyph d="M144 733H208L175 547Q190 568 214.5 582Q239 596 270 596Q292 596 311 589.5Q330 583 343 569.5Q356 556 361 535.5Q366 515 361 487L325 288H262L296 481Q302 515 285.5 529.5Q269 544 246 544Q219 544 192 519.5Q165 495 157 446L129 288H65Z" glyph-name="h.superior" horiz-adv-x="369" unicode="&#58216;" /><glyph d="M135 549H74L85 612H146L162 700H246L230 612H387L376 549H219L195 407Q218 440 256.5 462Q295 484 343 484Q378 484 407.5 474Q437 464 457 443Q477 422 485 390Q493 358 485 315L429 0H345L400 312Q405 339 399.5 358.5Q394 378 382 390.5Q370 403 352.5 409Q335 415 317 415Q294 415 270 404Q246 393 225.5 372Q205 351 189.5 320.5Q174 290 167 251L123 0H38Z" glyph-name="hbar" horiz-adv-x="545" unicode="&#295;" /><glyph d="M118 402H57L68 466H130L147 564H230L213 466H473L490 564H573L556 466H618L607 402H544L474 0H391L436 257H176L131 0H48ZM448 325 461 402H201L188 325Z" glyph-name="hbar.smcp" horiz-adv-x="606" unicode="&#57943;" /><glyph d="M162 700H246L195 407Q218 440 256.5 462Q295 484 343 484Q378 484 407.5 474Q437 464 457 443Q477 422 485 390Q493 358 485 315L429 0H345L400 312Q405 339 399.5 358.5Q394 378 382 390.5Q370 403 352.5 409Q335 415 317 415Q294 415 270 404Q246 393 225.5 372Q205 351 189.5 320.5Q174 290 167 251L123 0H38ZM206 900H264L355 781L309 746L230 843L110 745L70 786Z" glyph-name="hcircumflex" horiz-adv-x="545" unicode="&#293;" /><glyph d="M147 564H230L188 325H448L490 564H573L474 0H391L436 257H176L131 0H48ZM359 774H415L508 643L463 609L382 715L263 608L224 648Z" glyph-name="hcircumflex.smcp" horiz-adv-x="606" unicode="&#57939;" /><glyph d="M365 637 183 533 161 580 334 701ZM563 637 381 533 359 580 532 701Z" glyph-name="hungarumlaut" horiz-adv-x="600" unicode="&#733;" /><glyph d="M403 853 221 749 199 796 372 917ZM601 853 419 749 397 796 570 917Z" glyph-name="hungarumlaut.cap" horiz-adv-x="600" unicode="&#58411;" /><glyph d="M75 321H330L318 254H63Z" glyph-name="hyphen" horiz-adv-x="375" unicode="-" /><glyph d="M88 394H343L331 327H76Z" glyph-name="hyphen.cap" horiz-adv-x="375" unicode="&#58498;" /><glyph d="M121 472H205L122 0H38ZM137 656Q137 681 152.5 696Q168 711 192 711Q216 711 231.5 696Q247 681 247 656Q247 634 231.5 618Q216 602 192 602Q168 602 152.5 618Q137 634 137 656Z" glyph-name="i" horiz-adv-x="244" unicode="i" /><glyph d="M147 564H230L131 0H48Z" glyph-name="i.smcp" horiz-adv-x="263" unicode="&#57865;" /><glyph d="M119 588H183L130 288H66ZM128 700Q128 718 139.5 729Q151 740 168 740Q186 740 197.5 729Q209 718 209 700Q209 683 198 671.5Q187 660 168 660Q150 660 139 671.5Q128 683 128 700Z" glyph-name="i.superior" horiz-adv-x="175" unicode="&#58217;" /><glyph d="M121 472H205L122 0H38ZM290 637 98 533 76 580 259 701Z" glyph-name="iacute" horiz-adv-x="244" unicode="&#237;" /><glyph d="M147 564H230L131 0H48ZM308 714 116 610 94 657 277 778Z" glyph-name="iacute.smcp" horiz-adv-x="263" unicode="&#57944;" /><glyph d="M121 472H205L122 0H38ZM100 673Q101 642 121 620Q141 598 176 598Q211 598 237.5 620Q264 642 274 673L340 653Q324 607 280.5 574.5Q237 542 174 542Q114 542 76.5 573Q39 604 34 653Z" glyph-name="ibreve" horiz-adv-x="244" unicode="&#301;" /><glyph d="M147 564H230L131 0H48ZM123 749Q124 718 144 696Q164 674 199 674Q234 674 260.5 696Q287 718 297 749L363 729Q347 683 303.5 650.5Q260 618 197 618Q137 618 99.5 649Q62 680 57 729Z" glyph-name="ibreve.smcp" horiz-adv-x="263" unicode="&#57951;" /><glyph d="M121 472H205L122 0H38ZM168 694H224L317 563L272 529L191 635L72 528L33 568Z" glyph-name="icircumflex" horiz-adv-x="244" unicode="&#238;" /><glyph d="M147 564H230L131 0H48ZM190 774H246L339 643L294 609L213 715L94 608L55 648Z" glyph-name="icircumflex.smcp" horiz-adv-x="263" unicode="&#57946;" /><glyph d="M121 472H205L122 0H38ZM30 602Q30 625 45 639.5Q60 654 83 654Q106 654 121 639.5Q136 625 136 602Q136 580 121 564.5Q106 549 83 549Q60 549 45 564.5Q30 580 30 602ZM222 602Q222 625 237 639.5Q252 654 275 654Q298 654 313 639.5Q328 625 328 602Q328 580 313 564.5Q298 549 275 549Q252 549 237 564.5Q222 580 222 602Z" glyph-name="idieresis" horiz-adv-x="244" unicode="&#239;" /><glyph d="M147 564H230L131 0H48ZM54 677Q54 700 69 714.5Q84 729 107 729Q130 729 145 714.5Q160 700 160 677Q160 655 145 639.5Q130 624 107 624Q84 624 69 639.5Q54 655 54 677ZM246 677Q246 700 261 714.5Q276 729 299 729Q322 729 337 714.5Q352 700 352 677Q352 655 337 639.5Q322 624 299 624Q276 624 261 639.5Q246 655 246 677Z" glyph-name="idieresis.smcp" horiz-adv-x="263" unicode="&#57947;" /><glyph d="M121 472H205L122 0H38ZM137 657Q137 682 152.5 697Q168 712 192 712Q216 712 231.5 697Q247 682 247 657Q247 635 231.5 619Q216 603 192 603Q168 603 152.5 619Q137 635 137 657Z" glyph-name="idotaccent" horiz-adv-x="244" unicode="&#59269;" /><glyph d="M147 564H230L131 0H48ZM148 676Q148 701 163.5 716Q179 731 203 731Q227 731 242.5 716Q258 701 258 676Q258 654 242.5 638Q227 622 203 622Q179 622 163.5 638Q148 654 148 676Z" glyph-name="idotaccent.smcp" horiz-adv-x="263" unicode="&#57954;" /><glyph d="M121 472H205L122 0H38ZM84 641 134 700 280 574 246 533Z" glyph-name="igrave" horiz-adv-x="244" unicode="&#236;" /><glyph d="M147 564H230L131 0H48ZM109 718 159 777 305 651 271 610Z" glyph-name="igrave.smcp" horiz-adv-x="263" unicode="&#57945;" /><glyph d="M121 472H205L122 0H38ZM137 656Q137 681 152.5 696Q168 711 192 711Q216 711 231.5 696Q247 681 247 656Q247 634 231.5 618Q216 602 192 602Q168 602 152.5 618Q137 634 137 656ZM366 472H450L356 -68Q342 -147 300 -179.5Q258 -212 195 -212Q160 -212 131 -202Q102 -192 84 -178L130 -115Q141 -124 155.5 -132Q170 -140 193 -140Q228 -140 247 -118.5Q266 -97 272 -63ZM382 656Q382 681 397.5 696Q413 711 437 711Q461 711 476.5 696Q492 681 492 656Q492 634 476.5 618Q461 602 437 602Q413 602 397.5 618Q382 634 382 656Z" glyph-name="ij" horiz-adv-x="490" unicode="&#307;" /><glyph d="M147 564H230L131 0H48ZM355 56Q397 56 418.5 88.5Q440 121 451 184L518 564H601L534 184Q526 142 514.5 106.5Q503 71 483 44.5Q463 18 432.5 3Q402 -12 357 -12Q302 -12 270 6Q238 24 219 52L280 105Q297 80 313 68Q329 56 355 56Z" glyph-name="ij.smcp" horiz-adv-x="628" unicode="&#58151;" /><glyph d="M121 472H205L122 0H38ZM52 620H311L301 561H42Z" glyph-name="imacron" horiz-adv-x="244" unicode="&#299;" /><glyph d="M147 564H230L131 0H48ZM76 689H335L325 630H66Z" glyph-name="imacron.smcp" horiz-adv-x="263" unicode="&#57950;" /><glyph d="M550 148Q498 148 462.5 175Q427 202 396 260Q371 231 348.5 210Q326 189 304 175Q282 161 259 154.5Q236 148 211 148Q181 148 154.5 157.5Q128 167 107.5 186Q87 205 75.5 234Q64 263 64 303Q64 350 80 387Q96 424 123 449.5Q150 475 185.5 488.5Q221 502 260 502Q314 502 349.5 475Q385 448 415 390Q464 448 506 475Q548 502 600 502Q631 502 657.5 492.5Q684 483 703.5 464Q723 445 734 416.5Q745 388 745 349Q745 302 729 265Q713 228 686 202Q659 176 623.5 162Q588 148 550 148ZM368 326Q351 370 324 401.5Q297 433 252 433Q229 433 209 424Q189 415 174 398Q159 381 150 357.5Q141 334 141 306Q141 261 162.5 239Q184 217 218 217Q241 217 261.5 226Q282 235 300.5 250.5Q319 266 336 285.5Q353 305 368 326ZM442 324Q449 304 459 284.5Q469 265 482.5 250Q496 235 514.5 226Q533 217 557 217Q605 217 636.5 251.5Q668 286 668 343Q668 389 646.5 411Q625 433 591 433Q568 433 548 423.5Q528 414 509 399Q490 384 473.5 364.5Q457 345 442 324Z" glyph-name="infinity" horiz-adv-x="778" unicode="&#8734;" /><glyph d="M175 571Q182 613 197.5 640.5Q213 668 233.5 683.5Q254 699 277.5 705.5Q301 712 324 712Q358 712 383.5 702.5Q409 693 423 680L376 615Q368 624 356 631.5Q344 639 326 639Q271 639 258 566L156 -9Q149 -49 134 -76Q119 -103 99 -119.5Q79 -136 54.5 -143Q30 -150 5 -150Q-27 -150 -52.5 -141Q-78 -132 -93 -119L-46 -53Q-38 -62 -26 -69.5Q-14 -77 4 -77Q59 -77 72 -4Z" glyph-name="integral" horiz-adv-x="314" unicode="&#8747;" /><glyph d="M518 542Q518 482 483 431Q448 380 373 335Q356 324 340 313.5Q324 303 311 289Q298 275 288 257Q278 239 274 215L268 184H202L270 636Q245 628 226 612.5Q207 597 193.5 577.5Q180 558 171.5 536.5Q163 515 159 496L75 510Q87 556 109 593Q131 630 162 656.5Q193 683 233.5 697.5Q274 712 324 712Q373 712 409.5 698.5Q446 685 470 661.5Q494 638 506 607Q518 576 518 542ZM432 536Q432 567 414.5 597Q397 627 357 638L306 376Q314 384 322.5 390.5Q331 397 339 403Q357 416 374 429Q391 442 403.5 458Q416 474 424 493Q432 512 432 536ZM167 48Q167 72 182 87Q197 102 222 102Q247 102 262 87Q277 72 277 48Q277 25 262 9Q247 -7 222 -7Q197 -7 182 9Q167 25 167 48Z" glyph-name="interrobang" horiz-adv-x="505" unicode="&#8253;" /><glyph d="M-10 -42Q-10 18 25 69Q60 120 135 165Q152 175 168 186Q184 197 197 211Q210 225 219.5 243Q229 261 234 285L240 316H306L238 -136Q263 -128 282 -112.5Q301 -97 314.5 -77.5Q328 -58 336.5 -37Q345 -16 349 4L433 -10Q409 -102 346 -157Q283 -212 184 -212Q135 -212 98.5 -198.5Q62 -185 38 -161.5Q14 -138 2 -107.5Q-10 -77 -10 -42ZM76 -36Q76 -52 80 -67.5Q84 -83 93 -97Q102 -111 116.5 -121.5Q131 -132 151 -138L202 123Q193 115 185 108.5Q177 102 169 97Q151 84 134 70.5Q117 57 104.5 41.5Q92 26 84 7Q76 -12 76 -36ZM341 452Q341 428 326 413Q311 398 286 398Q261 398 246 413Q231 428 231 452Q231 475 246 491Q261 507 286 507Q311 507 326 491Q341 475 341 452Z" glyph-name="interrobangdown" horiz-adv-x="494" unicode="&#59701;" /><glyph d="M26 158Q26 218 61 269Q96 320 171 365Q188 375 204 386Q220 397 233 411Q246 425 255.5 443Q265 461 270 485L276 516H342L274 64Q299 72 318 87.5Q337 103 350.5 122.5Q364 142 372.5 163Q381 184 385 204L469 190Q445 98 382 43Q319 -12 220 -12Q171 -12 134.5 1.5Q98 15 74 38.5Q50 62 38 92.5Q26 123 26 158ZM112 164Q112 132 129 102.5Q146 73 187 62L238 323Q229 315 221 308.5Q213 302 205 297Q187 284 170 270.5Q153 257 140.5 241.5Q128 226 120 207Q112 188 112 164ZM377 652Q377 628 362 613Q347 598 322 598Q297 598 282 613Q267 628 267 652Q267 675 282 691Q297 707 322 707Q347 707 362 691Q377 675 377 652Z" glyph-name="interrobangdown.cap" horiz-adv-x="508" unicode="&#59803;" /><glyph d="M3 -108Q3 -123 12.5 -133Q22 -143 39 -143Q70 -143 93 -111L122 -147Q99 -175 74 -185Q49 -195 23 -195Q-17 -195 -40 -176.5Q-63 -158 -63 -121Q-63 -99 -54.5 -81Q-46 -63 -32 -48.5Q-18 -34 0 -22.5Q18 -11 38 0L121 472H205L122 0Q63 -32 33 -57Q3 -82 3 -108ZM137 656Q137 681 152.5 696Q168 711 192 711Q216 711 231.5 696Q247 681 247 656Q247 634 231.5 618Q216 602 192 602Q168 602 152.5 618Q137 634 137 656Z" glyph-name="iogonek" horiz-adv-x="244" unicode="&#303;" /><glyph d="M147 564H230L131 0Q72 -32 41.5 -57Q11 -82 11 -108Q11 -123 20.5 -133Q30 -143 47 -143Q78 -143 101 -111L130 -147Q107 -175 82 -185Q57 -195 31 -195Q-9 -195 -32 -176.5Q-55 -158 -55 -121Q-55 -99 -46.5 -81Q-38 -63 -23.5 -48.5Q-9 -34 9.5 -22.5Q28 -11 48 0Z" glyph-name="iogonek.smcp" horiz-adv-x="263" unicode="&#63054;" /><glyph d="M121 472H205L122 0H38ZM115 661Q140 661 157.5 653Q175 645 189.5 635.5Q204 626 217.5 618Q231 610 248 610Q264 610 276.5 617Q289 624 297 633Q307 643 314 656L354 616Q343 598 326 584Q312 572 291 562.5Q270 553 241 553Q216 553 198.5 561Q181 569 166.5 578Q152 587 139 595Q126 603 109 603Q92 603 79.5 595.5Q67 588 59 580Q49 570 42 558L2 598Q13 615 30 629Q44 641 65 651Q86 661 115 661Z" glyph-name="itilde" horiz-adv-x="244" unicode="&#297;" /><glyph d="M147 564H230L131 0H48ZM136 731Q161 731 178.5 723Q196 715 210.5 705.5Q225 696 238.5 688Q252 680 269 680Q285 680 297.5 687Q310 694 318 703Q328 713 335 726L375 686Q364 668 347 654Q333 642 312 632.5Q291 623 262 623Q237 623 219.5 631Q202 639 187.5 648Q173 657 160 665Q147 673 130 673Q113 673 100.5 665.5Q88 658 80 650Q70 640 63 628L23 668Q34 685 51 699Q65 711 86 721Q107 731 136 731Z" glyph-name="itilde.smcp" horiz-adv-x="263" unicode="&#57948;" /><glyph d="M122 472H206L112 -68Q98 -147 56 -179.5Q14 -212 -49 -212Q-84 -212 -113 -202Q-142 -192 -160 -178L-114 -115Q-103 -124 -88.5 -132Q-74 -140 -51 -140Q-16 -140 3 -118.5Q22 -97 28 -63ZM138 656Q138 681 153.5 696Q169 711 193 711Q217 711 232.5 696Q248 681 248 656Q248 634 232.5 618Q217 602 193 602Q169 602 153.5 618Q138 634 138 656Z" glyph-name="j" horiz-adv-x="246" unicode="j" /><glyph d="M108 56Q150 56 171.5 88.5Q193 121 204 184L271 564H354L287 184Q279 142 267.5 106.5Q256 71 236 44.5Q216 18 185.5 3Q155 -12 110 -12Q55 -12 23 6Q-9 24 -28 52L33 105Q50 80 66 68Q82 56 108 56Z" glyph-name="j.smcp" horiz-adv-x="381" unicode="&#57866;" /><glyph d="M133 245Q125 195 96 174Q67 153 25 153Q1 153 -18.5 159.5Q-38 166 -50 176L-17 222Q-10 217 -1 212Q8 207 22 207Q42 207 53.5 218Q65 229 69 249L129 588H193ZM138 700Q138 718 149.5 729Q161 740 179 740Q196 740 207.5 729Q219 718 219 700Q219 683 208 671.5Q197 660 179 660Q160 660 149 671.5Q138 683 138 700Z" glyph-name="j.superior" horiz-adv-x="184" unicode="&#58218;" /><glyph d="M122 472H206L112 -68Q98 -147 56 -179.5Q14 -212 -49 -212Q-84 -212 -113 -202Q-142 -192 -160 -178L-114 -115Q-103 -124 -88.5 -132Q-74 -140 -51 -140Q-16 -140 3 -118.5Q22 -97 28 -63ZM168 694H224L317 563L272 529L191 635L72 528L33 568Z" glyph-name="jcircumflex" horiz-adv-x="246" unicode="&#309;" /><glyph d="M108 56Q150 56 171.5 88.5Q193 121 204 184L271 564H354L287 184Q279 142 267.5 106.5Q256 71 236 44.5Q216 18 185.5 3Q155 -12 110 -12Q55 -12 23 6Q-9 24 -28 52L33 105Q50 80 66 68Q82 56 108 56ZM314 774H370L463 643L418 609L337 715L218 608L179 648Z" glyph-name="jcircumflex.smcp" horiz-adv-x="381" unicode="&#63027;" /><glyph d="M223 250 157 198 122 0H38L161 700H245L173 291L401 472H507L289 298L453 0H358Z" glyph-name="k" horiz-adv-x="499" unicode="k" /><glyph d="M239 279 169 216 131 0H48L147 564H230L188 324L457 564H559L304 334L479 0H383Z" glyph-name="k.smcp" horiz-adv-x="532" unicode="&#57867;" /><glyph d="M191 439 150 406 129 288H65L143 733H207L163 480L300 588H379L240 478L343 288H272Z" glyph-name="k.superior" horiz-adv-x="347" unicode="&#58219;" /><glyph d="M223 250 157 198 122 0H38L161 700H245L173 291L401 472H507L289 298L453 0H358ZM270 -117Q270 -130 265.5 -147.5Q261 -165 249 -181Q237 -197 217 -209Q197 -221 166 -222L157 -189Q180 -189 197.5 -178Q215 -167 217 -145Q216 -146 215 -146H208Q191 -145 179 -132.5Q167 -120 167 -103Q167 -86 179.5 -69.5Q192 -53 218 -53Q244 -53 257 -72Q270 -91 270 -117Z" glyph-name="kcommaaccent" horiz-adv-x="499" unicode="&#311;" /><glyph d="M239 279 169 216 131 0H48L147 564H230L188 324L457 564H559L304 334L479 0H383ZM284 -117Q284 -130 279.5 -147.5Q275 -165 263 -181Q251 -197 231 -209Q211 -221 180 -222L171 -189Q194 -189 211.5 -178Q229 -167 231 -145Q230 -146 229 -146H222Q205 -145 193 -132.5Q181 -120 181 -103Q181 -86 193.5 -69.5Q206 -53 232 -53Q258 -53 271 -72Q284 -91 284 -117Z" glyph-name="kcommaaccent.smcp" horiz-adv-x="532" unicode="&#57960;" /><glyph d="M205 472 173 291 401 472H507L289 298L453 0H358L225 246L156 192L122 0H38L121 472Z" glyph-name="kgreenlandic" horiz-adv-x="499" unicode="&#312;" /><glyph d="M161 700H245L122 0H38Z" glyph-name="l" horiz-adv-x="244" unicode="l" /><glyph d="M147 564H230L143 68H392L381 0H48Z" glyph-name="l.smcp" horiz-adv-x="444" unicode="&#57868;" /><glyph d="M143 733H207L129 288H65Z" glyph-name="l.superior" horiz-adv-x="176" unicode="&#58220;" /><glyph d="M161 700H245L122 0H38ZM328 852 136 748 114 795 297 916Z" glyph-name="lacute" horiz-adv-x="244" unicode="&#314;" /><glyph d="M147 564H230L143 68H392L381 0H48ZM361 714 169 610 147 657 330 778Z" glyph-name="lacute.smcp" horiz-adv-x="444" unicode="&#57963;" /><glyph d="M161 700H245L122 0H38ZM396 686 308 533 263 548 330 708Z" glyph-name="lcaron" horiz-adv-x="244" unicode="&#318;" /><glyph d="M147 564H230L143 68H392L381 0H48ZM405 549 317 396 272 411 339 571Z" glyph-name="lcaron.smcp" horiz-adv-x="444" unicode="&#57964;" /><glyph d="M161 700H245L122 0H38ZM122 -117Q122 -130 117.5 -147.5Q113 -165 101 -181Q89 -197 69 -209Q49 -221 18 -222L9 -189Q32 -189 49.5 -178Q67 -167 69 -145Q68 -146 67 -146H60Q43 -145 31 -132.5Q19 -120 19 -103Q19 -86 31.5 -69.5Q44 -53 70 -53Q96 -53 109 -72Q122 -91 122 -117Z" glyph-name="lcommaaccent" horiz-adv-x="244" unicode="&#316;" /><glyph d="M147 564H230L143 68H392L381 0H48ZM250 -117Q250 -130 245.5 -147.5Q241 -165 229 -181Q217 -197 197 -209Q177 -221 146 -222L137 -189Q160 -189 177.5 -178Q195 -167 197 -145Q196 -146 195 -146H188Q171 -145 159 -132.5Q147 -120 147 -103Q147 -86 159.5 -69.5Q172 -53 198 -53Q224 -53 237 -72Q250 -91 250 -117Z" glyph-name="lcommaaccent.smcp" horiz-adv-x="444" unicode="&#57965;" /><glyph d="M161 700H245L122 0H38ZM241 350Q241 375 256.5 390Q272 405 296 405Q320 405 335.5 390Q351 375 351 350Q351 328 335.5 312Q320 296 296 296Q272 296 256.5 312Q241 328 241 350Z" glyph-name="ldot" horiz-adv-x="362" unicode="&#320;" /><glyph d="M147 564H230L143 68H392L381 0H48ZM275 288Q275 313 290.5 328Q306 343 330 343Q354 343 369.5 328Q385 313 385 288Q385 266 369.5 250Q354 234 330 234Q306 234 290.5 250Q275 266 275 288Z" glyph-name="ldot.smcp" horiz-adv-x="444" unicode="&#57969;" /><glyph d="M59 288 71 356 604 588 588 499 154 317 524 135 510 57Z" glyph-name="less" horiz-adv-x="600" unicode="&lt;" /><glyph d="M55 316 67 384 600 616 584 527 150 345 520 163 506 85Z" glyph-name="less.cap" horiz-adv-x="600" unicode="&#58774;" /><glyph d="M24 68H516L504 0H12ZM73 339 85 407 615 627 599 542 168 370 539 198 525 121Z" glyph-name="lessequal" horiz-adv-x="600" unicode="&#8804;" /><glyph d="M76 363H568L525 119H453L484 294H64Z" glyph-name="logicalnot" horiz-adv-x="600" unicode="&#172;" /><glyph d="M502 350 265 0H183L70 350L307 700H389ZM158 346 238 92 414 356 334 610Z" glyph-name="lozenge" horiz-adv-x="532" unicode="&#9674;" /><glyph d="M107 295 40 257 14 316 121 377 178 700H262L214 430L301 479L328 420L200 347L139 0H55Z" glyph-name="lslash" horiz-adv-x="290" unicode="&#322;" /><glyph d="M92 196 42 169 18 226 106 274 157 564H240L198 324L321 391L345 334L184 246L153 68H402L391 0H58Z" glyph-name="lslash.smcp" horiz-adv-x="454" unicode="&#57970;" /><glyph d="M121 472H200L188 400Q213 438 249.5 461Q286 484 331 484Q379 484 411.5 462.5Q444 441 453 399Q465 417 482 432.5Q499 448 520 459.5Q541 471 564.5 477.5Q588 484 614 484Q646 484 673 474Q700 464 718.5 443Q737 422 744.5 390Q752 358 744 315L688 0H604L659 312Q664 339 659.5 358.5Q655 378 644.5 390.5Q634 403 619 409Q604 415 588 415Q567 415 545 404Q523 393 504 372Q485 351 470.5 320.5Q456 290 449 251L405 0H321L376 312Q381 339 376.5 358.5Q372 378 361.5 390.5Q351 403 336 409Q321 415 305 415Q284 415 262 404Q240 393 221 372Q202 351 187.5 320.5Q173 290 166 251L122 0H38Z" glyph-name="m" horiz-adv-x="804" unicode="m" /><glyph d="M292 0Q287 24 279.5 59.5Q272 95 263.5 136.5Q255 178 246.5 222.5Q238 267 230 309Q222 351 215.5 389Q209 427 205 455H203L123 0H48L147 564H254Q277 450 295 354Q303 313 310.5 272.5Q318 232 325 197Q332 162 337 136Q342 110 344 99Q350 110 364 136Q378 162 397 197Q416 232 438 272.5Q460 313 482 354Q534 450 595 564H708L609 0H535L615 455H613Q598 426 577 387Q556 348 532 304Q508 260 483 214.5Q458 169 435.5 128Q413 87 394 53.5Q375 20 364 0Z" glyph-name="m.smcp" horiz-adv-x="741" unicode="&#57869;" /><glyph d="M118 588H179L171 542Q187 567 210.5 581.5Q234 596 263 596Q328 596 342 542Q357 565 384.5 580.5Q412 596 446 596Q467 596 484.5 589.5Q502 583 513.5 569.5Q525 556 530 535.5Q535 515 530 487L494 288H430L464 481Q470 515 456 529.5Q442 544 422 544Q397 544 372 519.5Q347 495 339 446L311 288H248L282 481Q288 515 273.5 529.5Q259 544 239 544Q214 544 189.5 519.5Q165 495 157 446L129 288H65Z" glyph-name="m.superior" horiz-adv-x="537" unicode="&#58221;" /><glyph d="M237 620H496L486 561H227Z" glyph-name="macron" horiz-adv-x="600" unicode="&#175;" /><glyph d="M275 836H534L524 777H265Z" glyph-name="macron.cap" horiz-adv-x="600" unicode="&#58405;" /><glyph d="M51 234Q51 285 70.5 330.5Q90 376 124 409.5Q158 443 203 462.5Q248 482 299 482Q351 482 396.5 462.5Q442 443 476 409.5Q510 376 529.5 330.5Q549 285 549 234Q549 183 529.5 137.5Q510 92 476 58.5Q442 25 396.5 5.5Q351 -14 299 -14Q248 -14 203 5.5Q158 25 124 58.5Q90 92 70.5 137.5Q51 183 51 234Z" glyph-name="mediumblackcircle" horiz-adv-x="600" unicode="&#9899;" /><glyph d="M52 236Q52 288 71.5 333Q91 378 124.5 411.5Q158 445 203.5 464.5Q249 484 300 484Q352 484 397 464.5Q442 445 475.5 411.5Q509 378 528.5 333Q548 288 548 236Q548 185 528.5 139.5Q509 94 475.5 60.5Q442 27 397 7.5Q352 -12 300 -12Q249 -12 203.5 7.5Q158 27 124.5 60.5Q91 94 71.5 139.5Q52 185 52 236ZM487 236Q487 276 472.5 310.5Q458 345 432.5 371Q407 397 373 412Q339 427 300 427Q261 427 227 412Q193 397 167.5 371Q142 345 127.5 310.5Q113 276 113 236Q113 196 127.5 161Q142 126 167.5 100.5Q193 75 227 60Q261 45 300 45Q339 45 373 60Q407 75 432.5 100.5Q458 126 472.5 161Q487 196 487 236Z" glyph-name="mediumwhitecircle" horiz-adv-x="600" unicode="&#9898;" /><glyph d="M75 358H567L555 289H63Z" glyph-name="minus" horiz-adv-x="600" unicode="&#8722;" /><glyph d="M81 395H623L611 326H69Z" glyph-name="minus.cap" horiz-adv-x="650" unicode="&#58770;" /><glyph d="M13 29H292L281 -34H2Z" glyph-name="minus.inf" horiz-adv-x="379" unicode="&#58748;" /><glyph d="M429 0H350L362 72Q334 34 295 11Q256 -12 208 -12Q184 -12 162 -6.5Q140 -1 123 10L86 -198H2L121 472H205L150 160Q145 133 150.5 113.5Q156 94 168.5 81.5Q181 69 198 63Q215 57 234 57Q257 57 281 68Q305 79 325.5 100Q346 121 361.5 151.5Q377 182 384 221L428 472H512Z" glyph-name="mu" horiz-adv-x="551" unicode="&#181;" /><glyph d="M450 104 310 274 111 104 67 158 267 327 129 494 186 542 322 375 517 541 561 487 367 321 507 152Z" glyph-name="multiply" horiz-adv-x="600" unicode="&#215;" /><glyph d="M493 125 340 310 118 121 74 175 297 363 143 550 200 598 352 411 574 600 618 546 397 357 550 173Z" glyph-name="multiply.cap" horiz-adv-x="650" unicode="&#58771;" /><glyph d="M121 472H200L188 400Q216 438 255 461Q294 484 342 484Q377 484 406.5 474Q436 464 456 443Q476 422 484 390Q492 358 484 315L428 0H344L399 312Q404 339 398.5 358.5Q393 378 381 390.5Q369 403 351.5 409Q334 415 316 415Q293 415 269 404Q245 393 224.5 372Q204 351 188.5 320.5Q173 290 166 251L122 0H38Z" glyph-name="n" horiz-adv-x="544" unicode="n" /><glyph d="M147 564H233Q280 465 320 378Q337 341 355 303Q373 265 389 230.5Q405 196 418 168Q431 140 439 122H441L518 564H595L496 0H410Q365 97 325 183Q308 220 290 258Q272 296 256 330.5Q240 365 226.5 394Q213 423 204 442H202L125 0H48Z" glyph-name="n.smcp" horiz-adv-x="628" unicode="&#57870;" /><glyph d="M118 588H179L171 542Q188 567 213.5 581.5Q239 596 270 596Q292 596 311 589.5Q330 583 342.5 569.5Q355 556 360.5 535.5Q366 515 361 487L325 288H261L295 481Q301 515 285 529.5Q269 544 246 544Q219 544 192 519.5Q165 495 157 446L129 288H65Z" glyph-name="n.superior" horiz-adv-x="368" unicode="&#8319;" /><glyph d="M121 472H200L188 400Q216 438 255 461Q294 484 342 484Q377 484 406.5 474Q436 464 456 443Q476 422 484 390Q492 358 484 315L428 0H344L399 312Q404 339 398.5 358.5Q393 378 381 390.5Q369 403 351.5 409Q334 415 316 415Q293 415 269 404Q245 393 224.5 372Q204 351 188.5 320.5Q173 290 166 251L122 0H38ZM476 637 284 533 262 580 445 701Z" glyph-name="nacute" horiz-adv-x="544" unicode="&#324;" /><glyph d="M147 564H233Q280 465 320 378Q337 341 355 303Q373 265 389 230.5Q405 196 418 168Q431 140 439 122H441L518 564H595L496 0H410Q365 97 325 183Q308 220 290 258Q272 296 256 330.5Q240 365 226.5 394Q213 423 204 442H202L125 0H48ZM513 714 321 610 299 657 482 778Z" glyph-name="nacute.smcp" horiz-adv-x="628" unicode="&#57974;" /><glyph d="M121 472H200L188 400Q216 438 255 461Q294 484 342 484Q377 484 406.5 474Q436 464 456 443Q476 422 484 390Q492 358 484 315L428 0H344L399 312Q404 339 398.5 358.5Q393 378 381 390.5Q369 403 351.5 409Q334 415 316 415Q293 415 269 404Q245 393 224.5 372Q204 351 188.5 320.5Q173 290 166 251L122 0H38ZM363 534H307L217 665L262 699L340 593L459 700L498 660Z" glyph-name="ncaron" horiz-adv-x="544" unicode="&#328;" /><glyph d="M147 564H233Q280 465 320 378Q337 341 355 303Q373 265 389 230.5Q405 196 418 168Q431 140 439 122H441L518 564H595L496 0H410Q365 97 325 183Q308 220 290 258Q272 296 256 330.5Q240 365 226.5 394Q213 423 204 442H202L125 0H48ZM404 612H348L258 743L303 777L381 671L500 778L539 738Z" glyph-name="ncaron.smcp" horiz-adv-x="628" unicode="&#57978;" /><glyph d="M121 472H200L188 400Q216 438 255 461Q294 484 342 484Q377 484 406.5 474Q436 464 456 443Q476 422 484 390Q492 358 484 315L428 0H344L399 312Q404 339 398.5 358.5Q393 378 381 390.5Q369 403 351.5 409Q334 415 316 415Q293 415 269 404Q245 393 224.5 372Q204 351 188.5 320.5Q173 290 166 251L122 0H38ZM276 -117Q276 -130 271.5 -147.5Q267 -165 255 -181Q243 -197 223 -209Q203 -221 172 -222L163 -189Q186 -189 203.5 -178Q221 -167 223 -145Q222 -146 221 -146H214Q197 -145 185 -132.5Q173 -120 173 -103Q173 -86 185.5 -69.5Q198 -53 224 -53Q250 -53 263 -72Q276 -91 276 -117Z" glyph-name="ncommaaccent" horiz-adv-x="544" unicode="&#326;" /><glyph d="M147 564H233Q280 465 320 378Q337 341 355 303Q373 265 389 230.5Q405 196 418 168Q431 140 439 122H441L518 564H595L496 0H410Q365 97 325 183Q308 220 290 258Q272 296 256 330.5Q240 365 226.5 394Q213 423 204 442H202L125 0H48ZM313 -117Q313 -130 308.5 -147.5Q304 -165 292 -181Q280 -197 260 -209Q240 -221 209 -222L200 -189Q223 -189 240.5 -178Q258 -167 260 -145Q259 -146 258 -146H251Q234 -145 222 -132.5Q210 -120 210 -103Q210 -86 222.5 -69.5Q235 -53 261 -53Q287 -53 300 -72Q313 -91 313 -117Z" glyph-name="ncommaaccent.smcp" horiz-adv-x="628" unicode="&#57981;" /><glyph d="M258 56Q303 56 338.5 77.5Q374 99 400.5 136Q427 173 445 223.5Q463 274 474 333Q463 315 446 299Q429 283 406.5 270.5Q384 258 356 250.5Q328 243 297 243Q247 243 209.5 259.5Q172 276 147.5 303.5Q123 331 111 367Q99 403 99 442Q99 493 117 539.5Q135 586 167 621Q199 656 244 677Q289 698 343 698Q403 698 444.5 679.5Q486 661 512 627Q538 593 550 544.5Q562 496 562 435Q562 391 555 341Q548 291 533.5 241.5Q519 192 495 146Q471 100 437.5 65Q404 30 359 9Q314 -12 257 -12Q209 -12 175 1.5Q141 15 118.5 37Q96 59 84.5 86.5Q73 114 69 142L151 154Q153 139 158.5 121.5Q164 104 176 89.5Q188 75 207.5 65.5Q227 56 258 56ZM310 309Q342 309 372 321Q402 333 425 356Q448 379 462 412.5Q476 446 476 489Q476 519 467 545Q458 571 441 590.5Q424 610 399.5 621Q375 632 345 632Q313 632 284 619.5Q255 607 232.5 583Q210 559 197 524Q184 489 184 444Q184 384 216.5 346.5Q249 309 310 309Z" glyph-name="nine" horiz-adv-x="600" unicode="9" /><glyph d="M241 56Q286 56 321.5 77.5Q357 99 383.5 136Q410 173 428 223.5Q446 274 457 333Q446 315 429 299Q412 283 389.5 270.5Q367 258 339 250.5Q311 243 280 243Q230 243 192.5 259.5Q155 276 130.5 303.5Q106 331 94 367Q82 403 82 442Q82 493 100 539.5Q118 586 150 621Q182 656 227 677Q272 698 326 698Q386 698 427.5 679.5Q469 661 495 627Q521 593 533 544.5Q545 496 545 435Q545 391 538 341Q531 291 516.5 241.5Q502 192 478 146Q454 100 420.5 65Q387 30 342 9Q297 -12 240 -12Q192 -12 158 1.5Q124 15 101.5 37Q79 59 67.5 86.5Q56 114 52 142L134 154Q136 139 141.5 121.5Q147 104 159 89.5Q171 75 190.5 65.5Q210 56 241 56ZM293 309Q325 309 355 321Q385 333 408 356Q431 379 445 412.5Q459 446 459 489Q459 519 450 545Q441 571 424 590.5Q407 610 382.5 621Q358 632 328 632Q296 632 267 619.5Q238 607 215.5 583Q193 559 180 524Q167 489 167 444Q167 384 199.5 346.5Q232 309 293 309Z" glyph-name="nine.LP" horiz-adv-x="574" unicode="&#58686;" /><glyph d="M258 56Q303 56 338.5 77.5Q374 99 400.5 136Q427 173 445 223.5Q463 274 474 333Q463 315 446 299Q429 283 406.5 270.5Q384 258 356 250.5Q328 243 297 243Q247 243 209.5 259.5Q172 276 147.5 303.5Q123 331 111 367Q99 403 99 442Q99 493 117 539.5Q135 586 167 621Q199 656 244 677Q289 698 343 698Q403 698 444.5 679.5Q486 661 512 627Q538 593 550 544.5Q562 496 562 435Q562 391 555 341Q548 291 533.5 241.5Q519 192 495 146Q471 100 437.5 65Q404 30 359 9Q314 -12 257 -12Q209 -12 175 1.5Q141 15 118.5 37Q96 59 84.5 86.5Q73 114 69 142L151 154Q153 139 158.5 121.5Q164 104 176 89.5Q188 75 207.5 65.5Q227 56 258 56ZM310 309Q342 309 372 321Q402 333 425 356Q448 379 462 412.5Q476 446 476 489Q476 519 467 545Q458 571 441 590.5Q424 610 399.5 621Q375 632 345 632Q313 632 284 619.5Q255 607 232.5 583Q210 559 197 524Q184 489 184 444Q184 384 216.5 346.5Q249 309 310 309Z" glyph-name="nine.LT" horiz-adv-x="600" unicode="&#58697;" /><glyph d="M211 -67Q256 -67 292 -45.5Q328 -24 354.5 13.5Q381 51 399 102Q417 153 428 212Q406 175 359.5 147.5Q313 120 250 120Q200 120 163 136.5Q126 153 101.5 180.5Q77 208 65 244Q53 280 53 320Q53 371 71 417Q89 463 121 498Q153 533 197.5 554Q242 575 296 575Q356 575 397.5 556.5Q439 538 465 504Q491 470 503 421.5Q515 373 515 313Q515 269 508 219Q501 169 486.5 119.5Q472 70 448 24Q424 -22 390.5 -57Q357 -92 312 -113Q267 -134 210 -134Q163 -134 129.5 -120.5Q96 -107 73.5 -85Q51 -63 39.5 -35.5Q28 -8 24 20L105 32Q107 17 112.5 -0.5Q118 -18 130 -33Q142 -48 161.5 -57.5Q181 -67 211 -67ZM263 185Q296 185 326 197Q356 209 379 232.5Q402 256 416 289.5Q430 323 430 367Q430 397 421 423Q412 449 395 468.5Q378 488 353.5 499Q329 510 298 510Q266 510 237.5 497.5Q209 485 186.5 461Q164 437 151 402Q138 367 138 322Q138 260 170.5 222.5Q203 185 263 185Z" glyph-name="nine.OP" horiz-adv-x="555" unicode="&#58708;" /><glyph d="M234 -67Q279 -67 315 -45.5Q351 -24 377.5 13.5Q404 51 422 102Q440 153 451 212Q429 175 382.5 147.5Q336 120 273 120Q223 120 186 136.5Q149 153 124.5 180.5Q100 208 88 244Q76 280 76 320Q76 371 94 417Q112 463 144 498Q176 533 220.5 554Q265 575 319 575Q379 575 420.5 556.5Q462 538 488 504Q514 470 526 421.5Q538 373 538 313Q538 269 531 219Q524 169 509.5 119.5Q495 70 471 24Q447 -22 413.5 -57Q380 -92 335 -113Q290 -134 233 -134Q186 -134 152.5 -120.5Q119 -107 96.5 -85Q74 -63 62.5 -35.5Q51 -8 47 20L128 32Q130 17 135.5 -0.5Q141 -18 153 -33Q165 -48 184.5 -57.5Q204 -67 234 -67ZM286 185Q319 185 349 197Q379 209 402 232.5Q425 256 439 289.5Q453 323 453 367Q453 397 444 423Q435 449 418 468.5Q401 488 376.5 499Q352 510 321 510Q289 510 260.5 497.5Q232 485 209.5 461Q187 437 174 402Q161 367 161 322Q161 260 193.5 222.5Q226 185 286 185Z" glyph-name="nine.OT" horiz-adv-x="600" unicode="&#58719;" /><glyph d="M110 -153Q134 -153 153 -142.5Q172 -132 185.5 -114.5Q199 -97 208 -74Q217 -51 222 -26Q211 -43 185 -57.5Q159 -72 124 -72Q95 -72 73 -62.5Q51 -53 36 -37.5Q21 -22 13.5 -1Q6 20 6 44Q6 69 16 94.5Q26 120 44.5 139.5Q63 159 90.5 171.5Q118 184 154 184Q218 184 254.5 148.5Q291 113 291 30Q291 -10 281 -52.5Q271 -95 249 -129.5Q227 -164 192.5 -186Q158 -208 109 -208Q55 -208 24 -183.5Q-7 -159 -12 -119L54 -109Q56 -126 68.5 -139.5Q81 -153 110 -153ZM139 -18Q171 -18 196 3.5Q221 25 221 63Q221 93 204 112Q187 131 155 131Q123 131 99.5 109Q76 87 76 45Q76 16 92 -1Q108 -18 139 -18Z" glyph-name="nine.inf" horiz-adv-x="375" unicode="&#58746;" /><glyph d="M202 371Q226 371 245 381.5Q264 392 277.5 409.5Q291 427 300 450Q309 473 314 498Q303 481 277 466.5Q251 452 216 452Q187 452 165 461.5Q143 471 128 486.5Q113 502 105.5 523Q98 544 98 568Q98 593 108 618.5Q118 644 136.5 663.5Q155 683 182.5 695.5Q210 708 246 708Q310 708 346.5 672.5Q383 637 383 554Q383 514 373 471.5Q363 429 341 394.5Q319 360 284.5 338Q250 316 201 316Q147 316 116 340.5Q85 365 80 405L146 415Q148 398 160.5 384.5Q173 371 202 371ZM231 506Q263 506 288 527.5Q313 549 313 587Q313 617 296 636Q279 655 247 655Q215 655 191.5 633Q168 611 168 569Q168 540 184 523Q200 506 231 506ZM956 329Q932 329 913 318.5Q894 308 880.5 290.5Q867 273 858 250Q849 227 844 202Q855 219 881 233.5Q907 248 942 248Q971 248 993 238.5Q1015 229 1030 213.5Q1045 198 1052.5 177Q1060 156 1060 132Q1060 106 1050 81Q1040 56 1021.5 36.5Q1003 17 975.5 4.5Q948 -8 912 -8Q847 -8 811 27.5Q775 63 775 146Q775 186 785 228.5Q795 271 817 305.5Q839 340 873.5 362Q908 384 957 384Q1011 384 1042 359.5Q1073 335 1078 295L1012 285Q1010 302 997.5 315.5Q985 329 956 329ZM927 194Q895 194 870 172.5Q845 151 845 113Q845 84 862 65.5Q879 47 911 47Q943 47 966.5 68.5Q990 90 990 131Q990 160 974 177Q958 194 927 194ZM124 -12 687 712H765L202 -12ZM733 376 667 0H596L649 301Q620 281 568 280L565 337Q597 341 624.5 350.5Q652 360 671 376Z" glyph-name="ninesixteenths" horiz-adv-x="1112" unicode="&#61977;" /><glyph glyph-name="nonmarkingreturn" horiz-adv-x="235" /><glyph d="M91 450H375L506 616L558 581L454 450H583L571 382H400L310 268H551L539 200H256L123 32L71 67L176 200H47L59 268H230L321 382H79Z" glyph-name="notequal" horiz-adv-x="600" unicode="&#8800;" /><glyph d="M97 485H406L537 651L589 616L485 485H639L627 417H431L341 303H607L595 235H287L154 67L102 102L207 235H53L65 303H261L352 417H85Z" glyph-name="notequal.cap" horiz-adv-x="650" unicode="&#61989;" /><glyph d="M121 472H200L188 400Q216 438 255 461Q294 484 342 484Q377 484 406.5 474Q436 464 456 443Q476 422 484 390Q492 358 484 315L428 0H344L399 312Q404 339 398.5 358.5Q393 378 381 390.5Q369 403 351.5 409Q334 415 316 415Q293 415 269 404Q245 393 224.5 372Q204 351 188.5 320.5Q173 290 166 251L122 0H38ZM283 661Q308 661 325.5 653Q343 645 357.5 635.5Q372 626 385.5 618Q399 610 416 610Q432 610 444.5 617Q457 624 465 633Q475 643 482 656L522 616Q511 598 494 584Q480 572 459 562.5Q438 553 409 553Q384 553 366.5 561Q349 569 334.5 578Q320 587 307 595Q294 603 277 603Q260 603 247.5 595.5Q235 588 227 580Q217 570 210 558L170 598Q181 615 198 629Q212 641 233 651Q254 661 283 661Z" glyph-name="ntilde" horiz-adv-x="544" unicode="&#241;" /><glyph d="M147 564H233Q280 465 320 378Q337 341 355 303Q373 265 389 230.5Q405 196 418 168Q431 140 439 122H441L518 564H595L496 0H410Q365 97 325 183Q308 220 290 258Q272 296 256 330.5Q240 365 226.5 394Q213 423 204 442H202L125 0H48ZM323 731Q348 731 365.5 723Q383 715 397.5 705.5Q412 696 425.5 688Q439 680 456 680Q472 680 484.5 687Q497 694 505 703Q515 713 522 726L562 686Q551 668 534 654Q520 642 499 632.5Q478 623 449 623Q424 623 406.5 631Q389 639 374.5 648Q360 657 347 665Q334 673 317 673Q300 673 287.5 665.5Q275 658 267 650Q257 640 250 628L210 668Q221 685 238 699Q252 711 273 721Q294 731 323 731Z" glyph-name="ntilde.smcp" horiz-adv-x="628" unicode="&#57977;" /><glyph d="M352 217H212L136 0H69L145 217H31L42 279H167L219 428H106L117 490H242L316 700H383L309 490H449L523 700H590L516 490H634L623 428H493L441 279H560L549 217H419L342 0H276ZM234 279H374L426 428H286Z" glyph-name="numbersign" horiz-adv-x="625" unicode="#" /><glyph d="M248 -12Q197 -12 158 4.5Q119 21 93 49.5Q67 78 53.5 117Q40 156 40 201Q40 253 57 303.5Q74 354 107 394Q140 434 188 459Q236 484 298 484Q349 484 387.5 467.5Q426 451 452.5 422.5Q479 394 492 355Q505 316 505 271Q505 219 488 168Q471 117 438.5 77Q406 37 358 12.5Q310 -12 248 -12ZM127 202Q127 172 134.5 145.5Q142 119 157.5 98.5Q173 78 196 66Q219 54 251 54Q291 54 322 73.5Q353 93 374.5 124Q396 155 407 193.5Q418 232 418 270Q418 300 410.5 326.5Q403 353 387.5 373.5Q372 394 348.5 406Q325 418 294 418Q254 418 223 398.5Q192 379 170.5 348Q149 317 138 278.5Q127 240 127 202Z" glyph-name="o" horiz-adv-x="545" unicode="o" /><glyph d="M62 233Q62 302 81.5 364Q101 426 138.5 473Q176 520 229.5 547.5Q283 575 351 575Q404 575 447 558Q490 541 520 509.5Q550 478 566 432.5Q582 387 582 330Q582 261 562.5 199Q543 137 505.5 90Q468 43 414.5 15.5Q361 -12 293 -12Q240 -12 197 5Q154 22 124 54Q94 86 78 131Q62 176 62 233ZM496 329Q496 366 487 398.5Q478 431 459.5 455Q441 479 413 493Q385 507 347 507Q296 507 259 481Q222 455 197 414.5Q172 374 160 326Q148 278 148 234Q148 197 157 164.5Q166 132 184.5 108Q203 84 231 70Q259 56 297 56Q348 56 385 82Q422 108 447 148Q472 188 484 236Q496 284 496 329Z" glyph-name="o.smcp" horiz-adv-x="629" unicode="&#57871;" /><glyph d="M233 596Q296 596 332.5 559Q369 522 369 460Q369 426 358 394Q347 362 325.5 336.5Q304 311 273 295.5Q242 280 202 280Q138 280 102 317.5Q66 355 66 416Q66 450 77.5 482Q89 514 110.5 539.5Q132 565 163 580.5Q194 596 233 596ZM204 329Q228 329 246.5 341Q265 353 277.5 372Q290 391 296.5 414.5Q303 438 303 461Q303 496 286 521.5Q269 547 231 547Q207 547 188.5 535Q170 523 157.5 504.5Q145 486 138.5 462.5Q132 439 132 416Q132 381 149 355Q166 329 204 329Z" glyph-name="o.superior" horiz-adv-x="364" unicode="&#58222;" /><glyph d="M248 -12Q197 -12 158 4.5Q119 21 93 49.5Q67 78 53.5 117Q40 156 40 201Q40 253 57 303.5Q74 354 107 394Q140 434 188 459Q236 484 298 484Q349 484 387.5 467.5Q426 451 452.5 422.5Q479 394 492 355Q505 316 505 271Q505 219 488 168Q471 117 438.5 77Q406 37 358 12.5Q310 -12 248 -12ZM127 202Q127 172 134.5 145.5Q142 119 157.5 98.5Q173 78 196 66Q219 54 251 54Q291 54 322 73.5Q353 93 374.5 124Q396 155 407 193.5Q418 232 418 270Q418 300 410.5 326.5Q403 353 387.5 373.5Q372 394 348.5 406Q325 418 294 418Q254 418 223 398.5Q192 379 170.5 348Q149 317 138 278.5Q127 240 127 202ZM435 637 243 533 221 580 404 701Z" glyph-name="oacute" horiz-adv-x="545" unicode="&#243;" /><glyph d="M62 233Q62 302 81.5 364Q101 426 138.5 473Q176 520 229.5 547.5Q283 575 351 575Q404 575 447 558Q490 541 520 509.5Q550 478 566 432.5Q582 387 582 330Q582 261 562.5 199Q543 137 505.5 90Q468 43 414.5 15.5Q361 -12 293 -12Q240 -12 197 5Q154 22 124 54Q94 86 78 131Q62 176 62 233ZM496 329Q496 366 487 398.5Q478 431 459.5 455Q441 479 413 493Q385 507 347 507Q296 507 259 481Q222 455 197 414.5Q172 374 160 326Q148 278 148 234Q148 197 157 164.5Q166 132 184.5 108Q203 84 231 70Q259 56 297 56Q348 56 385 82Q422 108 447 148Q472 188 484 236Q496 284 496 329ZM488 714 296 610 274 657 457 778Z" glyph-name="oacute.smcp" horiz-adv-x="629" unicode="&#57985;" /><glyph d="M248 -12Q197 -12 158 4.5Q119 21 93 49.5Q67 78 53.5 117Q40 156 40 201Q40 253 57 303.5Q74 354 107 394Q140 434 188 459Q236 484 298 484Q349 484 387.5 467.5Q426 451 452.5 422.5Q479 394 492 355Q505 316 505 271Q505 219 488 168Q471 117 438.5 77Q406 37 358 12.5Q310 -12 248 -12ZM127 202Q127 172 134.5 145.5Q142 119 157.5 98.5Q173 78 196 66Q219 54 251 54Q291 54 322 73.5Q353 93 374.5 124Q396 155 407 193.5Q418 232 418 270Q418 300 410.5 326.5Q403 353 387.5 373.5Q372 394 348.5 406Q325 418 294 418Q254 418 223 398.5Q192 379 170.5 348Q149 317 138 278.5Q127 240 127 202ZM247 673Q248 642 268 620Q288 598 323 598Q358 598 384.5 620Q411 642 421 673L487 653Q471 607 427.5 574.5Q384 542 321 542Q261 542 223.5 573Q186 604 181 653Z" glyph-name="obreve" horiz-adv-x="545" unicode="&#335;" /><glyph d="M62 233Q62 302 81.5 364Q101 426 138.5 473Q176 520 229.5 547.5Q283 575 351 575Q404 575 447 558Q490 541 520 509.5Q550 478 566 432.5Q582 387 582 330Q582 261 562.5 199Q543 137 505.5 90Q468 43 414.5 15.5Q361 -12 293 -12Q240 -12 197 5Q154 22 124 54Q94 86 78 131Q62 176 62 233ZM496 329Q496 366 487 398.5Q478 431 459.5 455Q441 479 413 493Q385 507 347 507Q296 507 259 481Q222 455 197 414.5Q172 374 160 326Q148 278 148 234Q148 197 157 164.5Q166 132 184.5 108Q203 84 231 70Q259 56 297 56Q348 56 385 82Q422 108 447 148Q472 188 484 236Q496 284 496 329ZM301 749Q302 718 322 696Q342 674 377 674Q412 674 438.5 696Q465 718 475 749L541 729Q525 683 481.5 650.5Q438 618 375 618Q315 618 277.5 649Q240 680 235 729Z" glyph-name="obreve.smcp" horiz-adv-x="629" unicode="&#57992;" /><glyph d="M248 -12Q197 -12 158 4.5Q119 21 93 49.5Q67 78 53.5 117Q40 156 40 201Q40 253 57 303.5Q74 354 107 394Q140 434 188 459Q236 484 298 484Q349 484 387.5 467.5Q426 451 452.5 422.5Q479 394 492 355Q505 316 505 271Q505 219 488 168Q471 117 438.5 77Q406 37 358 12.5Q310 -12 248 -12ZM127 202Q127 172 134.5 145.5Q142 119 157.5 98.5Q173 78 196 66Q219 54 251 54Q291 54 322 73.5Q353 93 374.5 124Q396 155 407 193.5Q418 232 418 270Q418 300 410.5 326.5Q403 353 387.5 373.5Q372 394 348.5 406Q325 418 294 418Q254 418 223 398.5Q192 379 170.5 348Q149 317 138 278.5Q127 240 127 202ZM312 694H368L461 563L416 529L335 635L216 528L177 568Z" glyph-name="ocircumflex" horiz-adv-x="545" unicode="&#244;" /><glyph d="M62 233Q62 302 81.5 364Q101 426 138.5 473Q176 520 229.5 547.5Q283 575 351 575Q404 575 447 558Q490 541 520 509.5Q550 478 566 432.5Q582 387 582 330Q582 261 562.5 199Q543 137 505.5 90Q468 43 414.5 15.5Q361 -12 293 -12Q240 -12 197 5Q154 22 124 54Q94 86 78 131Q62 176 62 233ZM496 329Q496 366 487 398.5Q478 431 459.5 455Q441 479 413 493Q385 507 347 507Q296 507 259 481Q222 455 197 414.5Q172 374 160 326Q148 278 148 234Q148 197 157 164.5Q166 132 184.5 108Q203 84 231 70Q259 56 297 56Q348 56 385 82Q422 108 447 148Q472 188 484 236Q496 284 496 329ZM366 774H422L515 643L470 609L389 715L270 608L231 648Z" glyph-name="ocircumflex.smcp" horiz-adv-x="629" unicode="&#57987;" /></font>
</defs>
</svg>
