<?xml version="1.0" standalone="no"?>
<!-- Licensee: Reaction Commerce (#31460) - http://vllg.com -->
<!DOCTYPE svg PUBLIC "-//W3C//DTD SVG 1.1//EN" "http://www.w3.org/Graphics/SVG/1.1/DTD/svg11.dtd" ><svg version="1.1" xmlns="http://www.w3.org/2000/svg"><defs><font horiz-adv-x="0" id="font"><font-face ascent="750" bbox="-173 -259 1369 949" cap-height="700" descent="-250" font-family="Post Grotesk" font-stretch="normal" font-style="italic" font-weight="500" units-per-em="1000" x-height="474" /><missing-glyph d="M44 700H744V0H44ZM114 70H674V630H114ZM207 113 157 163 345 350 157 537 207 587 394 399 581 587 631 537 443 350 631 163 581 113 394 301Z" horiz-adv-x="768" /><glyph d="M602 0H484L454 176H189L96 0H-25L352 700H472ZM388 563Q383 553 374.5 535.5Q366 518 354.5 495.5Q343 473 330 447.5Q317 422 304 397Q273 338 238 269H438Q426 338 416 397Q412 422 408 447.5Q404 473 400 495.5Q396 518 393.5 535.5Q391 553 390 563Z" glyph-name="A" horiz-adv-x="661" unicode="A" /><glyph d="M425 0 456 177H229L102 0H-27L487 700H988L971 603H647L613 409H915L898 312H596L558 97H888L871 0ZM297 269H473L529 589H525Z" glyph-name="AE" horiz-adv-x="958" unicode="&#198;" /><glyph d="M602 0H484L454 176H189L96 0H-25L352 700H472ZM388 563Q383 553 374.5 535.5Q366 518 354.5 495.5Q343 473 330 447.5Q317 422 304 397Q273 338 238 269H438Q426 338 416 397Q412 422 408 447.5Q404 473 400 495.5Q396 518 393.5 535.5Q391 553 390 563ZM551 853 335 748 308 812 514 939Z" glyph-name="Aacute" horiz-adv-x="661" unicode="&#193;" /><glyph d="M602 0H484L454 176H189L96 0H-25L352 700H472ZM388 563Q383 553 374.5 535.5Q366 518 354.5 495.5Q343 473 330 447.5Q317 422 304 397Q273 338 238 269H438Q426 338 416 397Q412 422 408 447.5Q404 473 400 495.5Q396 518 393.5 535.5Q391 553 390 563ZM357 901Q357 872 375.5 851.5Q394 831 426 831Q458 831 482.5 851.5Q507 872 515 901L599 877Q581 826 534.5 792Q488 758 422 758Q357 758 316.5 791Q276 824 273 877Z" glyph-name="Abreve" horiz-adv-x="661" unicode="&#258;" /><glyph d="M602 0H484L454 176H189L96 0H-25L352 700H472ZM388 563Q383 553 374.5 535.5Q366 518 354.5 495.5Q343 473 330 447.5Q317 422 304 397Q273 338 238 269H438Q426 338 416 397Q412 422 408 447.5Q404 473 400 495.5Q396 518 393.5 535.5Q391 553 390 563ZM576 794 517 746 436 846 314 745 264 799 400 912H484Z" glyph-name="Acircumflex" horiz-adv-x="661" unicode="&#194;" /><glyph d="M602 0H484L454 176H189L96 0H-25L352 700H472ZM388 563Q383 553 374.5 535.5Q366 518 354.5 495.5Q343 473 330 447.5Q317 422 304 397Q273 338 238 269H438Q426 338 416 397Q412 422 408 447.5Q404 473 400 495.5Q396 518 393.5 535.5Q391 553 390 563ZM261 830Q261 857 279 875Q297 893 326 893Q354 893 372 875Q390 857 390 830Q390 803 372 785Q354 767 326 767Q297 767 279 785Q261 803 261 830ZM465 830Q465 857 482.5 875Q500 893 529 893Q558 893 576 875Q594 857 594 830Q594 803 576 785Q558 767 529 767Q500 767 482.5 785Q465 803 465 830Z" glyph-name="Adieresis" horiz-adv-x="661" unicode="&#196;" /><glyph d="M602 0H484L454 176H189L96 0H-25L352 700H472ZM388 563Q383 553 374.5 535.5Q366 518 354.5 495.5Q343 473 330 447.5Q317 422 304 397Q273 338 238 269H438Q426 338 416 397Q412 422 408 447.5Q404 473 400 495.5Q396 518 393.5 535.5Q391 553 390 563ZM366 939 535 805 491 749 304 859Z" glyph-name="Agrave" horiz-adv-x="661" unicode="&#192;" /><glyph d="M602 0H484L454 176H189L96 0H-25L352 700H472ZM388 563Q383 553 374.5 535.5Q366 518 354.5 495.5Q343 473 330 447.5Q317 422 304 397Q273 338 238 269H438Q426 338 416 397Q412 422 408 447.5Q404 473 400 495.5Q396 518 393.5 535.5Q391 553 390 563ZM297 850H571L558 775H284Z" glyph-name="Amacron" horiz-adv-x="661" unicode="&#256;" /><glyph d="M483 0 390 558H388L97 0H-25L352 700H472L602 0Z" glyph-name="Anocross" horiz-adv-x="661" unicode="&#59185;" /><glyph d="M602 0Q480 -53 480 -102Q480 -116 489.5 -125.5Q499 -135 518 -135Q531 -135 546.5 -127.5Q562 -120 574 -102L617 -147Q590 -178 559.5 -190Q529 -202 497 -202Q477 -202 458.5 -197Q440 -192 426 -182Q412 -172 404 -156.5Q396 -141 396 -119Q396 -76 421 -48.5Q446 -21 484 0L454 176H189L96 0H-25L352 700H472ZM388 563Q383 553 374.5 535.5Q366 518 354.5 495.5Q343 473 330 447.5Q317 422 304 397Q273 338 238 269H438Q426 338 416 397Q412 422 408 447.5Q404 473 400 495.5Q396 518 393.5 535.5Q391 553 390 563Z" glyph-name="Aogonek" horiz-adv-x="661" unicode="&#260;" /><glyph d="M602 0H484L454 176H189L96 0H-25L352 700H472ZM388 563Q383 553 374.5 535.5Q366 518 354.5 495.5Q343 473 330 447.5Q317 422 304 397Q273 338 238 269H438Q426 338 416 397Q412 422 408 447.5Q404 473 400 495.5Q396 518 393.5 535.5Q391 553 390 563ZM424 747Q380 747 354.5 773Q329 799 329 841Q329 886 360 916.5Q391 947 441 947Q485 947 511 922Q537 897 537 856Q537 833 528.5 813.5Q520 794 505 779Q490 764 469 755.5Q448 747 424 747ZM389 844Q389 827 400 814.5Q411 802 428 802Q449 802 463 817Q477 832 477 852Q477 869 466 881Q455 893 436 893Q416 893 402.5 878.5Q389 864 389 844Z" glyph-name="Aring" horiz-adv-x="661" unicode="&#197;" /><glyph d="M602 0H484L454 176H189L96 0H-25L352 700H472ZM388 563Q383 553 374.5 535.5Q366 518 354.5 495.5Q343 473 330 447.5Q317 422 304 397Q273 338 238 269H438Q426 338 416 397Q412 422 408 447.5Q404 473 400 495.5Q396 518 393.5 535.5Q391 553 390 563ZM358 892Q385 892 403.5 883.5Q422 875 437 865.5Q452 856 465.5 847.5Q479 839 496 839Q511 839 523 846.5Q535 854 543 863Q553 874 559 888L612 839Q599 818 581 802Q565 788 542 776.5Q519 765 487 765Q461 765 442.5 773Q424 781 409.5 791Q395 801 381.5 809Q368 817 351 817Q334 817 321.5 809.5Q309 802 301 793Q291 782 285 770L234 819Q246 839 264 855Q279 869 302.5 880.5Q326 892 358 892Z" glyph-name="Atilde" horiz-adv-x="661" unicode="&#195;" /><glyph d="M162 700H430Q475 700 510 687.5Q545 675 568.5 653Q592 631 604 600.5Q616 570 616 534Q616 496 603.5 466.5Q591 437 571.5 415.5Q552 394 526.5 380.5Q501 367 476 361Q499 356 520 345.5Q541 335 556.5 317Q572 299 581.5 274Q591 249 591 216Q591 169 570.5 129Q550 89 515 60.5Q480 32 432.5 16Q385 0 330 0H39ZM172 96H301Q352 96 384.5 106.5Q417 117 436.5 134.5Q456 152 463.5 173.5Q471 195 471 217Q471 268 438 290Q405 312 336 312H209ZM261 605 227 405H345Q419 405 456.5 435Q494 465 494 521Q494 565 469 585Q444 605 387 605Z" glyph-name="B" horiz-adv-x="642" unicode="B" /><glyph d="M424 615Q370 615 326.5 589.5Q283 564 252 520Q221 476 204.5 418Q188 360 188 295Q188 252 198.5 213.5Q209 175 230.5 146.5Q252 118 285.5 101.5Q319 85 364 85Q423 85 464.5 118.5Q506 152 534 212L645 171Q604 86 533.5 36.5Q463 -13 362 -13Q292 -13 237 8Q182 29 143.5 69Q105 109 85 165.5Q65 222 65 293Q65 379 90 455.5Q115 532 162 589Q209 646 276 679.5Q343 713 428 713Q541 713 611 664Q681 615 702 526L588 486Q577 545 538 580Q499 615 424 615Z" glyph-name="C" horiz-adv-x="689" unicode="C" /><glyph d="M424 615Q370 615 326.5 589.5Q283 564 252 520Q221 476 204.5 418Q188 360 188 295Q188 252 198.5 213.5Q209 175 230.5 146.5Q252 118 285.5 101.5Q319 85 364 85Q423 85 464.5 118.5Q506 152 534 212L645 171Q604 86 533.5 36.5Q463 -13 362 -13Q292 -13 237 8Q182 29 143.5 69Q105 109 85 165.5Q65 222 65 293Q65 379 90 455.5Q115 532 162 589Q209 646 276 679.5Q343 713 428 713Q541 713 611 664Q681 615 702 526L588 486Q577 545 538 580Q499 615 424 615ZM583 853 367 748 340 812 546 939Z" glyph-name="Cacute" horiz-adv-x="689" unicode="&#262;" /><glyph d="M424 615Q370 615 326.5 589.5Q283 564 252 520Q221 476 204.5 418Q188 360 188 295Q188 252 198.5 213.5Q209 175 230.5 146.5Q252 118 285.5 101.5Q319 85 364 85Q423 85 464.5 118.5Q506 152 534 212L645 171Q604 86 533.5 36.5Q463 -13 362 -13Q292 -13 237 8Q182 29 143.5 69Q105 109 85 165.5Q65 222 65 293Q65 379 90 455.5Q115 532 162 589Q209 646 276 679.5Q343 713 428 713Q541 713 611 664Q681 615 702 526L588 486Q577 545 538 580Q499 615 424 615ZM490 751H406L314 870L373 917L454 817L576 919L626 865Z" glyph-name="Ccaron" horiz-adv-x="689" unicode="&#268;" /><glyph d="M244 -154Q250 -162 263 -168Q276 -174 294 -174Q315 -174 327.5 -162Q340 -150 340 -130Q340 -114 330.5 -106Q321 -98 305 -98Q291 -98 281 -102Q271 -106 264 -112L238 -80L283 -5Q179 16 122 94Q65 172 65 293Q65 379 90 455.5Q115 532 162 589Q209 646 276 679.5Q343 713 428 713Q541 713 611 664Q681 615 702 526L588 486Q577 545 538 580Q499 615 424 615Q370 615 326.5 589.5Q283 564 252 520Q221 476 204.5 418Q188 360 188 295Q188 252 198.5 213.5Q209 175 230.5 146.5Q252 118 285.5 101.5Q319 85 364 85Q423 85 464.5 118.5Q506 152 534 212L645 171Q604 86 533.5 36.5Q463 -13 362 -13Q355 -13 348.5 -12.5Q342 -12 335 -12L311 -54Q323 -47 338 -47Q368 -47 389 -67.5Q410 -88 410 -125Q410 -150 400.5 -169.5Q391 -189 375 -202.5Q359 -216 337 -223Q315 -230 291 -230Q256 -230 235.5 -219Q215 -208 206 -199Z" glyph-name="Ccedilla" horiz-adv-x="689" unicode="&#199;" /><glyph d="M424 615Q370 615 326.5 589.5Q283 564 252 520Q221 476 204.5 418Q188 360 188 295Q188 252 198.5 213.5Q209 175 230.5 146.5Q252 118 285.5 101.5Q319 85 364 85Q423 85 464.5 118.5Q506 152 534 212L645 171Q604 86 533.5 36.5Q463 -13 362 -13Q292 -13 237 8Q182 29 143.5 69Q105 109 85 165.5Q65 222 65 293Q65 379 90 455.5Q115 532 162 589Q209 646 276 679.5Q343 713 428 713Q541 713 611 664Q681 615 702 526L588 486Q577 545 538 580Q499 615 424 615ZM603 794 544 746 463 846 341 745 291 799 427 912H511Z" glyph-name="Ccircumflex" horiz-adv-x="689" unicode="&#264;" /><glyph d="M382 832Q382 863 401.5 882.5Q421 902 453 902Q485 902 505 882.5Q525 863 525 832Q525 802 505 783Q485 764 453 764Q421 764 401.5 783Q382 802 382 832ZM424 615Q370 615 326.5 589.5Q283 564 252 520Q221 476 204.5 418Q188 360 188 295Q188 252 198.5 213.5Q209 175 230.5 146.5Q252 118 285.5 101.5Q319 85 364 85Q423 85 464.5 118.5Q506 152 534 212L645 171Q604 86 533.5 36.5Q463 -13 362 -13Q292 -13 237 8Q182 29 143.5 69Q105 109 85 165.5Q65 222 65 293Q65 379 90 455.5Q115 532 162 589Q209 646 276 679.5Q343 713 428 713Q541 713 611 664Q681 615 702 526L588 486Q577 545 538 580Q499 615 424 615Z" glyph-name="Cdotaccent" horiz-adv-x="689" unicode="&#266;" /><glyph d="M162 700H400Q466 700 518.5 680.5Q571 661 608.5 624.5Q646 588 666 535.5Q686 483 686 418Q686 320 658.5 242.5Q631 165 579.5 111Q528 57 454.5 28.5Q381 0 290 0H39ZM563 418Q563 506 516.5 554.5Q470 603 374 603H264L175 97H297Q363 97 413 122Q463 147 496.5 190.5Q530 234 546.5 292.5Q563 351 563 418Z" glyph-name="D" horiz-adv-x="711" unicode="D" /><glyph d="M452 751H368L276 870L335 917L416 817L538 919L588 865ZM162 700H400Q466 700 518.5 680.5Q571 661 608.5 624.5Q646 588 666 535.5Q686 483 686 418Q686 320 658.5 242.5Q631 165 579.5 111Q528 57 454.5 28.5Q381 0 290 0H39ZM563 418Q563 506 516.5 554.5Q470 603 374 603H264L175 97H297Q363 97 413 122Q463 147 496.5 190.5Q530 234 546.5 292.5Q563 351 563 418Z" glyph-name="Dcaron" horiz-adv-x="711" unicode="&#270;" /><glyph d="M114 321H34L48 406H129L181 700H419Q485 700 537.5 680.5Q590 661 627.5 624.5Q665 588 685 535.5Q705 483 705 418Q705 320 677.5 242.5Q650 165 598.5 111Q547 57 473.5 28.5Q400 0 309 0H58ZM582 418Q582 506 535.5 554.5Q489 603 393 603H283L248 406H413L399 321H233L194 97H316Q382 97 432 122Q482 147 515.5 190.5Q549 234 565.5 292.5Q582 351 582 418Z" glyph-name="Dcroat" horiz-adv-x="730" unicode="&#272;" /><glyph d="M635 0H1L377 700H507ZM163 90H504L420 580Z" glyph-name="Delta" horiz-adv-x="719" unicode="&#8710;" /><glyph d="M39 0 162 700H605L589 603H263L228 409H532L515 312H211L173 97H505L488 0Z" glyph-name="E" horiz-adv-x="575" unicode="E" /><glyph d="M537 853 321 748 294 812 500 939ZM39 0 162 700H605L589 603H263L228 409H532L515 312H211L173 97H505L488 0Z" glyph-name="Eacute" horiz-adv-x="575" unicode="&#201;" /><glyph d="M327 901Q327 872 345.5 851.5Q364 831 396 831Q428 831 452.5 851.5Q477 872 485 901L569 877Q551 826 504.5 792Q458 758 392 758Q327 758 286.5 791Q246 824 243 877ZM39 0 162 700H605L589 603H263L228 409H532L515 312H211L173 97H505L488 0Z" glyph-name="Ebreve" horiz-adv-x="575" unicode="&#276;" /><glyph d="M426 751H342L250 870L309 917L390 817L512 919L562 865ZM39 0 162 700H605L589 603H263L228 409H532L515 312H211L173 97H505L488 0Z" glyph-name="Ecaron" horiz-adv-x="575" unicode="&#282;" /><glyph d="M39 0 162 700H605L589 603H263L228 409H532L515 312H211L173 97H505L488 0ZM547 794 488 746 407 846 285 745 235 799 371 912H455Z" glyph-name="Ecircumflex" horiz-adv-x="575" unicode="&#202;" /><glyph d="M230 830Q230 857 248 875Q266 893 295 893Q323 893 341 875Q359 857 359 830Q359 803 341 785Q323 767 295 767Q266 767 248 785Q230 803 230 830ZM434 830Q434 857 451.5 875Q469 893 498 893Q527 893 545 875Q563 857 563 830Q563 803 545 785Q527 767 498 767Q469 767 451.5 785Q434 803 434 830ZM39 0 162 700H605L589 603H263L228 409H532L515 312H211L173 97H505L488 0Z" glyph-name="Edieresis" horiz-adv-x="575" unicode="&#203;" /><glyph d="M327 832Q327 863 346.5 882.5Q366 902 398 902Q430 902 450 882.5Q470 863 470 832Q470 802 450 783Q430 764 398 764Q366 764 346.5 783Q327 802 327 832ZM39 0 162 700H605L589 603H263L228 409H532L515 312H211L173 97H505L488 0Z" glyph-name="Edotaccent" horiz-adv-x="575" unicode="&#278;" /><glyph d="M337 939 506 805 462 749 275 859ZM39 0 162 700H605L589 603H263L228 409H532L515 312H211L173 97H505L488 0Z" glyph-name="Egrave" horiz-adv-x="575" unicode="&#200;" /><glyph d="M269 850H543L530 775H256ZM39 0 162 700H605L589 603H263L228 409H532L515 312H211L173 97H505L488 0Z" glyph-name="Emacron" horiz-adv-x="575" unicode="&#274;" /><glyph d="M162 700H283Q335 586 383 486Q403 443 423.5 399Q444 355 463 315Q482 275 497.5 241.5Q513 208 523 187H525L615 700H726L599 -22Q583 -113 533.5 -163.5Q484 -214 389 -214Q326 -214 290 -194Q254 -174 231 -142L315 -69Q332 -93 349 -106Q366 -119 390 -119Q430 -119 452.5 -89Q475 -59 484 -15L487 2Q435 114 387 214Q367 257 346 301Q325 345 306 385.5Q287 426 270.5 460.5Q254 495 244 518H242L150 0H39Z" glyph-name="Eng" horiz-adv-x="726" unicode="&#330;" /><glyph d="M430 0Q370 -29 340 -53.5Q310 -78 310 -102Q310 -116 319.5 -125.5Q329 -135 348 -135Q361 -135 376.5 -127.5Q392 -120 404 -102L447 -147Q420 -178 390 -190Q360 -202 328 -202Q281 -202 253.5 -180Q226 -158 226 -120Q226 -77 251.5 -50Q277 -23 318 0H39L162 700H605L589 603H263L228 409H532L515 312H211L173 97H505L488 0Z" glyph-name="Eogonek" horiz-adv-x="575" unicode="&#280;" /><glyph d="M114 321H34L48 406H129L181 700H419Q485 700 537.5 680.5Q590 661 627.5 624.5Q665 588 685 535.5Q705 483 705 418Q705 320 677.5 242.5Q650 165 598.5 111Q547 57 473.5 28.5Q400 0 309 0H58ZM582 418Q582 506 535.5 554.5Q489 603 393 603H283L248 406H413L399 321H233L194 97H316Q382 97 432 122Q482 147 515.5 190.5Q549 234 565.5 292.5Q582 351 582 418Z" glyph-name="Eth" horiz-adv-x="730" unicode="&#208;" /><glyph d="M221 239Q226 204 237.5 174.5Q249 145 267.5 123.5Q286 102 312 90Q338 78 373 78Q415 78 455.5 96.5Q496 115 526 150L597 84Q554 41 499 14Q444 -13 369 -13Q309 -13 262.5 5Q216 23 183.5 56Q151 89 131.5 135.5Q112 182 105 239H27L40 312H102Q104 346 108 377H52L65 450H125Q144 508 177 554Q210 600 253.5 631.5Q297 663 349 680Q401 697 457 697Q538 697 590.5 667.5Q643 638 667 594L580 534Q562 569 528.5 587.5Q495 606 450 606Q388 606 330.5 567Q273 528 242 450H481L469 377H223Q217 345 217 312H457L444 239Z" glyph-name="Euro" horiz-adv-x="640" unicode="&#8364;" /><glyph d="M39 0 162 700H607L590 603H263L228 409H532L515 312H211L156 0Z" glyph-name="F" horiz-adv-x="561" unicode="F" /><glyph d="M64 293Q64 375 88.5 451Q113 527 160 585.5Q207 644 275 678.5Q343 713 429 713Q539 713 609.5 666Q680 619 704 531L590 493Q577 550 537 583Q497 616 426 616Q373 616 328.5 591Q284 566 252.5 522.5Q221 479 203.5 419.5Q186 360 186 291Q186 196 229.5 140Q273 84 362 84Q395 84 426 93.5Q457 103 482 122Q507 141 524.5 169Q542 197 548 234L554 273H365L381 366H685L620 0H512L525 73Q513 57 495.5 41.5Q478 26 454.5 14Q431 2 401.5 -5.5Q372 -13 338 -13Q270 -13 219 11Q168 35 133.5 76.5Q99 118 81.5 173.5Q64 229 64 293Z" glyph-name="G" horiz-adv-x="735" unicode="G" /><glyph d="M384 901Q384 872 402.5 851.5Q421 831 453 831Q485 831 509.5 851.5Q534 872 542 901L626 877Q608 826 561.5 792Q515 758 449 758Q384 758 343.5 791Q303 824 300 877ZM64 293Q64 375 88.5 451Q113 527 160 585.5Q207 644 275 678.5Q343 713 429 713Q539 713 609.5 666Q680 619 704 531L590 493Q577 550 537 583Q497 616 426 616Q373 616 328.5 591Q284 566 252.5 522.5Q221 479 203.5 419.5Q186 360 186 291Q186 196 229.5 140Q273 84 362 84Q395 84 426 93.5Q457 103 482 122Q507 141 524.5 169Q542 197 548 234L554 273H365L381 366H685L620 0H512L525 73Q513 57 495.5 41.5Q478 26 454.5 14Q431 2 401.5 -5.5Q372 -13 338 -13Q270 -13 219 11Q168 35 133.5 76.5Q99 118 81.5 173.5Q64 229 64 293Z" glyph-name="Gbreve" horiz-adv-x="735" unicode="&#286;" /><glyph d="M64 293Q64 375 88.5 451Q113 527 160 585.5Q207 644 275 678.5Q343 713 429 713Q539 713 609.5 666Q680 619 704 531L590 493Q577 550 537 583Q497 616 426 616Q373 616 328.5 591Q284 566 252.5 522.5Q221 479 203.5 419.5Q186 360 186 291Q186 196 229.5 140Q273 84 362 84Q395 84 426 93.5Q457 103 482 122Q507 141 524.5 169Q542 197 548 234L554 273H365L381 366H685L620 0H512L525 73Q513 57 495.5 41.5Q478 26 454.5 14Q431 2 401.5 -5.5Q372 -13 338 -13Q270 -13 219 11Q168 35 133.5 76.5Q99 118 81.5 173.5Q64 229 64 293ZM606 794 547 746 466 846 344 745 294 799 430 912H514Z" glyph-name="Gcircumflex" horiz-adv-x="735" unicode="&#284;" /><glyph d="M377 -134Q377 -152 370.5 -173Q364 -194 349 -212.5Q334 -231 308.5 -244.5Q283 -258 246 -259L236 -217Q248 -217 261 -214Q274 -211 284.5 -204.5Q295 -198 302.5 -189Q310 -180 311 -169Q306 -172 297 -172Q277 -171 261.5 -157.5Q246 -144 246 -118Q246 -95 262.5 -74Q279 -53 312 -53Q347 -53 362 -78Q377 -103 377 -134ZM64 293Q64 375 88.5 451Q113 527 160 585.5Q207 644 275 678.5Q343 713 429 713Q539 713 609.5 666Q680 619 704 531L590 493Q577 550 537 583Q497 616 426 616Q373 616 328.5 591Q284 566 252.5 522.5Q221 479 203.5 419.5Q186 360 186 291Q186 196 229.5 140Q273 84 362 84Q395 84 426 93.5Q457 103 482 122Q507 141 524.5 169Q542 197 548 234L554 273H365L381 366H685L620 0H512L525 73Q513 57 495.5 41.5Q478 26 454.5 14Q431 2 401.5 -5.5Q372 -13 338 -13Q270 -13 219 11Q168 35 133.5 76.5Q99 118 81.5 173.5Q64 229 64 293Z" glyph-name="Gcommaaccent" horiz-adv-x="735" unicode="&#290;" /><glyph d="M385 832Q385 863 404.5 882.5Q424 902 456 902Q488 902 508 882.5Q528 863 528 832Q528 802 508 783Q488 764 456 764Q424 764 404.5 783Q385 802 385 832ZM64 293Q64 375 88.5 451Q113 527 160 585.5Q207 644 275 678.5Q343 713 429 713Q539 713 609.5 666Q680 619 704 531L590 493Q577 550 537 583Q497 616 426 616Q373 616 328.5 591Q284 566 252.5 522.5Q221 479 203.5 419.5Q186 360 186 291Q186 196 229.5 140Q273 84 362 84Q395 84 426 93.5Q457 103 482 122Q507 141 524.5 169Q542 197 548 234L554 273H365L381 366H685L620 0H512L525 73Q513 57 495.5 41.5Q478 26 454.5 14Q431 2 401.5 -5.5Q372 -13 338 -13Q270 -13 219 11Q168 35 133.5 76.5Q99 118 81.5 173.5Q64 229 64 293Z" glyph-name="Gdotaccent" horiz-adv-x="735" unicode="&#288;" /><glyph d="M162 700H280L230 410H533L583 700H701L578 0H460L515 312H212L157 0H39Z" glyph-name="H" horiz-adv-x="701" unicode="H" /><glyph d="M126 499H54L70 588H142L162 700H280L261 588H564L583 700H701L681 588H755L739 499H665L578 0H460L515 312H212L157 0H39ZM533 410 548 499H245L230 410Z" glyph-name="Hbar" horiz-adv-x="701" unicode="&#294;" /><glyph d="M162 700H280L230 410H533L583 700H701L578 0H460L515 312H212L157 0H39ZM595 794 536 746 455 846 333 745 283 799 419 912H503Z" glyph-name="Hcircumflex" horiz-adv-x="701" unicode="&#292;" /><glyph d="M162 700H280L157 0H39Z" glyph-name="I" horiz-adv-x="280" unicode="I" /><glyph d="M162 700H280L157 0H39ZM320 144Q340 115 360 99.5Q380 84 412 84Q460 84 484.5 121Q509 158 522 231L605 700H723L640 231Q631 178 616 133.5Q601 89 575.5 56.5Q550 24 511 5.5Q472 -13 413 -13Q339 -13 297 11Q255 35 232 70Z" glyph-name="IJ" horiz-adv-x="719" unicode="&#306;" /><glyph d="M162 700H280L157 0H39ZM355 853 139 748 112 812 318 939Z" glyph-name="Iacute" horiz-adv-x="280" unicode="&#205;" /><glyph d="M162 700H280L157 0H39ZM169 901Q169 872 187.5 851.5Q206 831 238 831Q270 831 294.5 851.5Q319 872 327 901L411 877Q393 826 346.5 792Q300 758 234 758Q169 758 128.5 791Q88 824 85 877Z" glyph-name="Ibreve" horiz-adv-x="280" unicode="&#300;" /><glyph d="M162 700H280L157 0H39ZM390 794 331 746 250 846 128 745 78 799 214 912H298Z" glyph-name="Icircumflex" horiz-adv-x="280" unicode="&#206;" /><glyph d="M162 700H280L157 0H39ZM73 830Q73 857 91 875Q109 893 138 893Q166 893 184 875Q202 857 202 830Q202 803 184 785Q166 767 138 767Q109 767 91 785Q73 803 73 830ZM277 830Q277 857 294.5 875Q312 893 341 893Q370 893 388 875Q406 857 406 830Q406 803 388 785Q370 767 341 767Q312 767 294.5 785Q277 803 277 830Z" glyph-name="Idieresis" horiz-adv-x="280" unicode="&#207;" /><glyph d="M170 832Q170 863 189.5 882.5Q209 902 241 902Q273 902 293 882.5Q313 863 313 832Q313 802 293 783Q273 764 241 764Q209 764 189.5 783Q170 802 170 832ZM162 700H280L157 0H39Z" glyph-name="Idotaccent" horiz-adv-x="280" unicode="&#304;" /><glyph d="M162 700H280L157 0H39ZM190 939 359 805 315 749 128 859Z" glyph-name="Igrave" horiz-adv-x="280" unicode="&#204;" /><glyph d="M162 700H280L157 0H39ZM106 850H380L367 775H93Z" glyph-name="Imacron" horiz-adv-x="280" unicode="&#298;" /><glyph d="M35 -102Q35 -116 44.5 -125.5Q54 -135 73 -135Q86 -135 101.5 -127.5Q117 -120 129 -102L172 -147Q145 -178 114.5 -190Q84 -202 52 -202Q32 -202 14 -197Q-4 -192 -18 -182Q-32 -172 -40.5 -156.5Q-49 -141 -49 -119Q-49 -76 -24 -49Q1 -22 39 0L162 700H280L157 0Q35 -54 35 -102Z" glyph-name="Iogonek" horiz-adv-x="280" unicode="&#302;" /><glyph d="M162 700H280L157 0H39ZM169 892Q196 892 214.5 883.5Q233 875 248 865.5Q263 856 276.5 847.5Q290 839 307 839Q322 839 334 846.5Q346 854 354 863Q364 874 370 888L423 839Q410 818 392 802Q376 788 353 776.5Q330 765 298 765Q272 765 253.5 773Q235 781 220.5 791Q206 801 192.5 809Q179 817 162 817Q145 817 132.5 809.5Q120 802 112 793Q102 782 96 770L45 819Q57 839 75 855Q90 869 113.5 880.5Q137 892 169 892Z" glyph-name="Itilde" horiz-adv-x="280" unicode="&#296;" /><glyph d="M62 144Q82 115 102 99.5Q122 84 154 84Q202 84 226.5 121Q251 158 264 231L347 700H465L382 231Q373 178 358 133.5Q343 89 317.5 56.5Q292 24 253 5.5Q214 -13 155 -13Q81 -13 39 11Q-3 35 -26 70Z" glyph-name="J" horiz-adv-x="461" unicode="J" /><glyph d="M62 144Q82 115 102 99.5Q122 84 154 84Q202 84 226.5 121Q251 158 264 231L347 700H465L382 231Q373 178 358 133.5Q343 89 317.5 56.5Q292 24 253 5.5Q214 -13 155 -13Q81 -13 39 11Q-3 35 -26 70ZM575 794 516 746 435 846 313 745 263 799 399 912H483Z" glyph-name="Jcircumflex" horiz-adv-x="461" unicode="&#308;" /><glyph d="M285 335 203 260 157 0H39L162 700H280L230 410L545 700H688L378 415L588 0H453Z" glyph-name="K" horiz-adv-x="644" unicode="K" /><glyph d="M337 -134Q337 -152 330.5 -173Q324 -194 309 -212.5Q294 -231 268.5 -244.5Q243 -258 206 -259L196 -217Q208 -217 221 -214Q234 -211 244.5 -204.5Q255 -198 262.5 -189Q270 -180 271 -169Q266 -172 257 -172Q237 -171 221.5 -157.5Q206 -144 206 -118Q206 -95 222.5 -74Q239 -53 272 -53Q307 -53 322 -78Q337 -103 337 -134ZM285 335 203 260 157 0H39L162 700H280L230 410L545 700H688L378 415L588 0H453Z" glyph-name="Kcommaaccent" horiz-adv-x="644" unicode="&#310;" /><glyph d="M162 700H280L174 97H482L465 0H39Z" glyph-name="L" horiz-adv-x="527" unicode="L" /><glyph d="M412 853 196 748 169 812 375 939ZM162 700H280L174 97H482L465 0H39Z" glyph-name="Lacute" horiz-adv-x="527" unicode="&#313;" /><glyph d="M484 704 390 532 328 552 401 731ZM162 700H280L174 97H482L465 0H39Z" glyph-name="Lcaron" horiz-adv-x="527" unicode="&#317;" /><glyph d="M291 -134Q291 -152 284.5 -173Q278 -194 263 -212.5Q248 -231 222.5 -244.5Q197 -258 160 -259L150 -217Q162 -217 175 -214Q188 -211 198.5 -204.5Q209 -198 216.5 -189Q224 -180 225 -169Q220 -172 211 -172Q191 -171 175.5 -157.5Q160 -144 160 -118Q160 -95 176.5 -74Q193 -53 226 -53Q261 -53 276 -78Q291 -103 291 -134ZM162 700H280L174 97H482L465 0H39Z" glyph-name="Lcommaaccent" horiz-adv-x="527" unicode="&#315;" /><glyph d="M162 700H280L174 97H482L465 0H39ZM330 360Q330 391 349.5 410Q369 429 401 429Q433 429 452.5 410Q472 391 472 360Q472 331 452.5 311Q433 291 401 291Q369 291 349.5 311Q330 331 330 360Z" glyph-name="Ldot" horiz-adv-x="527" unicode="&#319;" /><glyph d="M105 237 44 204 11 284 124 344 187 700H305L255 414L400 492L431 411L236 306L199 97H507L490 0H64Z" glyph-name="Lslash" horiz-adv-x="553" unicode="&#321;" /><glyph d="M343 0Q334 45 320 116Q306 187 291.5 265Q277 343 264.5 417Q252 491 245 542H243L147 0H39L162 700H319Q344 563 365 449Q374 400 383 351.5Q392 303 399.5 261Q407 219 412.5 187.5Q418 156 420 142Q427 156 443.5 187.5Q460 219 481.5 261Q503 303 528.5 351.5Q554 400 580 449Q640 563 711 700H877L754 0H645L741 542H739Q722 508 697.5 461Q673 414 645 361.5Q617 309 587.5 255Q558 201 531.5 152Q505 103 483.5 63Q462 23 449 0Z" glyph-name="M" horiz-adv-x="877" unicode="M" /><glyph d="M162 700H283Q336 585 383 484Q403 441 423.5 396.5Q444 352 462.5 311.5Q481 271 496.5 237Q512 203 522 182H524L615 700H726L603 0H482Q430 112 384 212Q364 255 343.5 299.5Q323 344 304.5 384.5Q286 425 270 460Q254 495 244 518H242L150 0H39Z" glyph-name="N" horiz-adv-x="726" unicode="N" /><glyph glyph-name="NULL" horiz-adv-x="0" /><glyph d="M600 853 384 748 357 812 563 939ZM162 700H283Q336 585 383 484Q403 441 423.5 396.5Q444 352 462.5 311.5Q481 271 496.5 237Q512 203 522 182H524L615 700H726L603 0H482Q430 112 384 212Q364 255 343.5 299.5Q323 344 304.5 384.5Q286 425 270 460Q254 495 244 518H242L150 0H39Z" glyph-name="Nacute" horiz-adv-x="726" unicode="&#323;" /><glyph d="M483 751H399L307 870L366 917L447 817L569 919L619 865ZM162 700H283Q336 585 383 484Q403 441 423.5 396.5Q444 352 462.5 311.5Q481 271 496.5 237Q512 203 522 182H524L615 700H726L603 0H482Q430 112 384 212Q364 255 343.5 299.5Q323 344 304.5 384.5Q286 425 270 460Q254 495 244 518H242L150 0H39Z" glyph-name="Ncaron" horiz-adv-x="726" unicode="&#327;" /><glyph d="M380 -134Q380 -152 373.5 -173Q367 -194 352 -212.5Q337 -231 311.5 -244.5Q286 -258 249 -259L239 -217Q251 -217 264 -214Q277 -211 287.5 -204.5Q298 -198 305.5 -189Q313 -180 314 -169Q309 -172 300 -172Q280 -171 264.5 -157.5Q249 -144 249 -118Q249 -95 265.5 -74Q282 -53 315 -53Q350 -53 365 -78Q380 -103 380 -134ZM162 700H283Q336 585 383 484Q403 441 423.5 396.5Q444 352 462.5 311.5Q481 271 496.5 237Q512 203 522 182H524L615 700H726L603 0H482Q430 112 384 212Q364 255 343.5 299.5Q323 344 304.5 384.5Q286 425 270 460Q254 495 244 518H242L150 0H39Z" glyph-name="Ncommaaccent" horiz-adv-x="726" unicode="&#325;" /><glyph d="M390 892Q417 892 435.5 883.5Q454 875 469 865.5Q484 856 497.5 847.5Q511 839 528 839Q543 839 555 846.5Q567 854 575 863Q585 874 591 888L644 839Q631 818 613 802Q597 788 574 776.5Q551 765 519 765Q493 765 474.5 773Q456 781 441.5 791Q427 801 413.5 809Q400 817 383 817Q366 817 353.5 809.5Q341 802 333 793Q323 782 317 770L266 819Q278 839 296 855Q311 869 334.5 880.5Q358 892 390 892ZM162 700H283Q336 585 383 484Q403 441 423.5 396.5Q444 352 462.5 311.5Q481 271 496.5 237Q512 203 522 182H524L615 700H726L603 0H482Q430 112 384 212Q364 255 343.5 299.5Q323 344 304.5 384.5Q286 425 270 460Q254 495 244 518H242L150 0H39Z" glyph-name="Ntilde" horiz-adv-x="726" unicode="&#209;" /><glyph d="M65 292Q65 379 90 455.5Q115 532 161.5 589Q208 646 275.5 679.5Q343 713 427 713Q494 713 548 692Q602 671 640 631.5Q678 592 698.5 535.5Q719 479 719 408Q719 321 694 244.5Q669 168 622.5 111Q576 54 508.5 20.5Q441 -13 357 -13Q290 -13 236 8Q182 29 144 68.5Q106 108 85.5 164.5Q65 221 65 292ZM187 293Q187 250 197.5 212Q208 174 229.5 145.5Q251 117 284 100.5Q317 84 362 84Q422 84 466.5 114.5Q511 145 540 192.5Q569 240 583 297Q597 354 597 407Q597 450 586.5 488Q576 526 554.5 554.5Q533 583 499.5 599.5Q466 616 421 616Q361 616 317 585.5Q273 555 244 507.5Q215 460 201 403Q187 346 187 293Z" glyph-name="O" horiz-adv-x="744" unicode="O" /><glyph d="M65 292Q65 377 90 453.5Q115 530 161.5 588Q208 646 274.5 679.5Q341 713 424 713Q490 713 547 689Q604 665 636 614L651 700H1093L1077 603H753L718 409H1020L1003 312H701L663 97H993L976 0H528L542 79Q530 62 512 45.5Q494 29 469.5 16Q445 3 414.5 -5Q384 -13 348 -13Q283 -13 231 8Q179 29 142 69Q105 109 85 165Q65 221 65 292ZM187 293Q187 250 197.5 212Q208 174 230 145.5Q252 117 285 100.5Q318 84 363 84Q414 84 452.5 107.5Q491 131 518 167Q545 203 562 247Q579 291 586 332L592 370Q601 420 594 464.5Q587 509 565.5 543Q544 577 508 596.5Q472 616 422 616Q362 616 318 585.5Q274 555 244.5 507.5Q215 460 201 403Q187 346 187 293Z" glyph-name="OE" horiz-adv-x="1063" unicode="&#338;" /><glyph d="M582 853 366 748 339 812 545 939ZM64 292Q64 379 89 455.5Q114 532 160.5 589Q207 646 274.5 679.5Q342 713 426 713Q493 713 547 692Q601 671 639 631.5Q677 592 697.5 535.5Q718 479 718 408Q718 321 693 244.5Q668 168 621.5 111Q575 54 507.5 20.5Q440 -13 356 -13Q289 -13 235 8Q181 29 143 68.5Q105 108 84.5 164.5Q64 221 64 292ZM186 293Q186 250 196.5 212Q207 174 228.5 145.5Q250 117 283 100.5Q316 84 361 84Q421 84 465.5 114.5Q510 145 539 192.5Q568 240 582 297Q596 354 596 407Q596 450 585.5 488Q575 526 553.5 554.5Q532 583 498.5 599.5Q465 616 420 616Q360 616 316 585.5Q272 555 243 507.5Q214 460 200 403Q186 346 186 293Z" glyph-name="Oacute" horiz-adv-x="743" unicode="&#211;" /><glyph d="M379 901Q379 872 397.5 851.5Q416 831 448 831Q480 831 504.5 851.5Q529 872 537 901L621 877Q603 826 556.5 792Q510 758 444 758Q379 758 338.5 791Q298 824 295 877ZM64 292Q64 379 89 455.5Q114 532 160.5 589Q207 646 274.5 679.5Q342 713 426 713Q493 713 547 692Q601 671 639 631.5Q677 592 697.5 535.5Q718 479 718 408Q718 321 693 244.5Q668 168 621.5 111Q575 54 507.5 20.5Q440 -13 356 -13Q289 -13 235 8Q181 29 143 68.5Q105 108 84.5 164.5Q64 221 64 292ZM186 293Q186 250 196.5 212Q207 174 228.5 145.5Q250 117 283 100.5Q316 84 361 84Q421 84 465.5 114.5Q510 145 539 192.5Q568 240 582 297Q596 354 596 407Q596 450 585.5 488Q575 526 553.5 554.5Q532 583 498.5 599.5Q465 616 420 616Q360 616 316 585.5Q272 555 243 507.5Q214 460 200 403Q186 346 186 293Z" glyph-name="Obreve" horiz-adv-x="743" unicode="&#334;" /><glyph d="M64 292Q64 379 89 455.5Q114 532 160.5 589Q207 646 274.5 679.5Q342 713 426 713Q493 713 547 692Q601 671 639 631.5Q677 592 697.5 535.5Q718 479 718 408Q718 321 693 244.5Q668 168 621.5 111Q575 54 507.5 20.5Q440 -13 356 -13Q289 -13 235 8Q181 29 143 68.5Q105 108 84.5 164.5Q64 221 64 292ZM186 293Q186 250 196.5 212Q207 174 228.5 145.5Q250 117 283 100.5Q316 84 361 84Q421 84 465.5 114.5Q510 145 539 192.5Q568 240 582 297Q596 354 596 407Q596 450 585.5 488Q575 526 553.5 554.5Q532 583 498.5 599.5Q465 616 420 616Q360 616 316 585.5Q272 555 243 507.5Q214 460 200 403Q186 346 186 293ZM604 794 545 746 464 846 342 745 292 799 428 912H512Z" glyph-name="Ocircumflex" horiz-adv-x="743" unicode="&#212;" /><glyph d="M291 830Q291 857 309 875Q327 893 356 893Q384 893 402 875Q420 857 420 830Q420 803 402 785Q384 767 356 767Q327 767 309 785Q291 803 291 830ZM495 830Q495 857 512.5 875Q530 893 559 893Q588 893 606 875Q624 857 624 830Q624 803 606 785Q588 767 559 767Q530 767 512.5 785Q495 803 495 830ZM64 292Q64 379 89 455.5Q114 532 160.5 589Q207 646 274.5 679.5Q342 713 426 713Q493 713 547 692Q601 671 639 631.5Q677 592 697.5 535.5Q718 479 718 408Q718 321 693 244.5Q668 168 621.5 111Q575 54 507.5 20.5Q440 -13 356 -13Q289 -13 235 8Q181 29 143 68.5Q105 108 84.5 164.5Q64 221 64 292ZM186 293Q186 250 196.5 212Q207 174 228.5 145.5Q250 117 283 100.5Q316 84 361 84Q421 84 465.5 114.5Q510 145 539 192.5Q568 240 582 297Q596 354 596 407Q596 450 585.5 488Q575 526 553.5 554.5Q532 583 498.5 599.5Q465 616 420 616Q360 616 316 585.5Q272 555 243 507.5Q214 460 200 403Q186 346 186 293Z" glyph-name="Odieresis" horiz-adv-x="743" unicode="&#214;" /><glyph d="M409 939 578 805 534 749 347 859ZM64 292Q64 379 89 455.5Q114 532 160.5 589Q207 646 274.5 679.5Q342 713 426 713Q493 713 547 692Q601 671 639 631.5Q677 592 697.5 535.5Q718 479 718 408Q718 321 693 244.5Q668 168 621.5 111Q575 54 507.5 20.5Q440 -13 356 -13Q289 -13 235 8Q181 29 143 68.5Q105 108 84.5 164.5Q64 221 64 292ZM186 293Q186 250 196.5 212Q207 174 228.5 145.5Q250 117 283 100.5Q316 84 361 84Q421 84 465.5 114.5Q510 145 539 192.5Q568 240 582 297Q596 354 596 407Q596 450 585.5 488Q575 526 553.5 554.5Q532 583 498.5 599.5Q465 616 420 616Q360 616 316 585.5Q272 555 243 507.5Q214 460 200 403Q186 346 186 293Z" glyph-name="Ograve" horiz-adv-x="743" unicode="&#210;" /><glyph d="M64 292Q64 379 89 455.5Q114 532 160.5 589Q207 646 274.5 679.5Q342 713 426 713Q493 713 547 692Q601 671 639 631.5Q677 592 697.5 535.5Q718 479 718 408Q718 321 693 244.5Q668 168 621.5 111Q575 54 507.5 20.5Q440 -13 356 -13Q289 -13 235 8Q181 29 143 68.5Q105 108 84.5 164.5Q64 221 64 292ZM186 293Q186 250 196.5 212Q207 174 228.5 145.5Q250 117 283 100.5Q316 84 361 84Q421 84 465.5 114.5Q510 145 539 192.5Q568 240 582 297Q596 354 596 407Q596 450 585.5 488Q575 526 553.5 554.5Q532 583 498.5 599.5Q465 616 420 616Q360 616 316 585.5Q272 555 243 507.5Q214 460 200 403Q186 346 186 293ZM510 867 303 749 272 810 468 949ZM744 867 536 749 505 810 702 949Z" glyph-name="Ohungarumlaut" horiz-adv-x="743" unicode="&#336;" /><glyph d="M326 850H600L587 775H313ZM64 292Q64 379 89 455.5Q114 532 160.5 589Q207 646 274.5 679.5Q342 713 426 713Q493 713 547 692Q601 671 639 631.5Q677 592 697.5 535.5Q718 479 718 408Q718 321 693 244.5Q668 168 621.5 111Q575 54 507.5 20.5Q440 -13 356 -13Q289 -13 235 8Q181 29 143 68.5Q105 108 84.5 164.5Q64 221 64 292ZM186 293Q186 250 196.5 212Q207 174 228.5 145.5Q250 117 283 100.5Q316 84 361 84Q421 84 465.5 114.5Q510 145 539 192.5Q568 240 582 297Q596 354 596 407Q596 450 585.5 488Q575 526 553.5 554.5Q532 583 498.5 599.5Q465 616 420 616Q360 616 316 585.5Q272 555 243 507.5Q214 460 200 403Q186 346 186 293Z" glyph-name="Omacron" horiz-adv-x="743" unicode="&#332;" /><glyph d="M64 292Q64 379 89 455.5Q114 532 160.5 589Q207 646 274.5 679.5Q342 713 426 713Q477 713 519.5 701Q562 689 597 666L673 759L732 711L654 614Q685 576 701.5 524Q718 472 718 408Q718 321 693 244.5Q668 168 621.5 111Q575 54 507.5 20.5Q440 -13 356 -13Q255 -13 184 34L107 -62L49 -14L128 84Q97 123 80.5 175Q64 227 64 292ZM186 293Q186 262 191 234Q196 206 207 182L528 580Q486 616 420 616Q360 616 316 585.5Q272 555 243 507.5Q214 460 200 403Q186 346 186 293ZM596 407Q596 469 575 517L253 119Q273 102 300 93Q327 84 361 84Q421 84 465.5 114.5Q510 145 539 192.5Q568 240 582 297Q596 354 596 407Z" glyph-name="Oslash" horiz-adv-x="742" unicode="&#216;" /><glyph d="M390 892Q417 892 435.5 883.5Q454 875 469 865.5Q484 856 497.5 847.5Q511 839 528 839Q543 839 555 846.5Q567 854 575 863Q585 874 591 888L644 839Q631 818 613 802Q597 788 574 776.5Q551 765 519 765Q493 765 474.5 773Q456 781 441.5 791Q427 801 413.5 809Q400 817 383 817Q366 817 353.5 809.5Q341 802 333 793Q323 782 317 770L266 819Q278 839 296 855Q311 869 334.5 880.5Q358 892 390 892ZM64 292Q64 379 89 455.5Q114 532 160.5 589Q207 646 274.5 679.5Q342 713 426 713Q493 713 547 692Q601 671 639 631.5Q677 592 697.5 535.5Q718 479 718 408Q718 321 693 244.5Q668 168 621.5 111Q575 54 507.5 20.5Q440 -13 356 -13Q289 -13 235 8Q181 29 143 68.5Q105 108 84.5 164.5Q64 221 64 292ZM186 293Q186 250 196.5 212Q207 174 228.5 145.5Q250 117 283 100.5Q316 84 361 84Q421 84 465.5 114.5Q510 145 539 192.5Q568 240 582 297Q596 354 596 407Q596 450 585.5 488Q575 526 553.5 554.5Q532 583 498.5 599.5Q465 616 420 616Q360 616 316 585.5Q272 555 243 507.5Q214 460 200 403Q186 346 186 293Z" glyph-name="Otilde" horiz-adv-x="743" unicode="&#213;" /><glyph d="M204 266 157 0H39L162 700H410Q516 700 577 653.5Q638 607 638 510Q638 447 615.5 401Q593 355 554 325Q515 295 461 280.5Q407 266 344 266ZM518 504Q518 557 484.5 580Q451 603 378 603H263L221 362H337Q430 362 474 398.5Q518 435 518 504Z" glyph-name="P" horiz-adv-x="623" unicode="P" /><glyph d="M65 292Q65 379 90 455.5Q115 532 161.5 589Q208 646 275.5 679.5Q343 713 427 713Q494 713 548 692Q602 671 640 631.5Q678 592 698.5 535.5Q719 479 719 408Q719 296 679 203.5Q639 111 564 54L616 -16L541 -72L481 8Q453 -2 422 -7.5Q391 -13 357 -13Q290 -13 236 8Q182 29 144 68.5Q106 108 85.5 164.5Q65 221 65 292ZM187 293Q187 250 197.5 212Q208 174 229.5 145.5Q251 117 284 100.5Q317 84 362 84Q392 84 419 92L361 172L436 228L499 141Q524 165 542.5 197Q561 229 573 264Q585 299 591 335.5Q597 372 597 407Q597 450 586.5 488Q576 526 554.5 554.5Q533 583 499.5 599.5Q466 616 421 616Q361 616 317 585.5Q273 555 244 507.5Q215 460 201 403Q187 346 187 293Z" glyph-name="Q" horiz-adv-x="744" unicode="Q" /><glyph d="M631 519Q631 477 617.5 440.5Q604 404 579 375Q554 346 519 326.5Q484 307 441 298L562 0H436L324 287H207L156 0H39L162 700H410Q451 700 491 690.5Q531 681 562 659.5Q593 638 612 603.5Q631 569 631 519ZM510 514Q510 564 477 583.5Q444 603 376 603H263L224 382H346Q389 382 420.5 393Q452 404 471.5 422Q491 440 500.5 464Q510 488 510 514Z" glyph-name="R" horiz-adv-x="643" unicode="R" /><glyph d="M631 519Q631 477 617.5 440.5Q604 404 579 375Q554 346 519 326.5Q484 307 441 298L562 0H436L324 287H207L156 0H39L162 700H410Q451 700 491 690.5Q531 681 562 659.5Q593 638 612 603.5Q631 569 631 519ZM510 514Q510 564 477 583.5Q444 603 376 603H263L224 382H346Q389 382 420.5 393Q452 404 471.5 422Q491 440 500.5 464Q510 488 510 514ZM544 853 328 748 301 812 507 939Z" glyph-name="Racute" horiz-adv-x="643" unicode="&#340;" /><glyph d="M437 751H353L261 870L320 917L401 817L523 919L573 865ZM631 519Q631 477 617.5 440.5Q604 404 579 375Q554 346 519 326.5Q484 307 441 298L562 0H436L324 287H207L156 0H39L162 700H410Q451 700 491 690.5Q531 681 562 659.5Q593 638 612 603.5Q631 569 631 519ZM510 514Q510 564 477 583.5Q444 603 376 603H263L224 382H346Q389 382 420.5 393Q452 404 471.5 422Q491 440 500.5 464Q510 488 510 514Z" glyph-name="Rcaron" horiz-adv-x="643" unicode="&#344;" /><glyph d="M334 -134Q334 -152 327.5 -173Q321 -194 306 -212.5Q291 -231 265.5 -244.5Q240 -258 203 -259L193 -217Q205 -217 218 -214Q231 -211 241.5 -204.5Q252 -198 259.5 -189Q267 -180 268 -169Q263 -172 254 -172Q234 -171 218.5 -157.5Q203 -144 203 -118Q203 -95 219.5 -74Q236 -53 269 -53Q304 -53 319 -78Q334 -103 334 -134ZM631 519Q631 477 617.5 440.5Q604 404 579 375Q554 346 519 326.5Q484 307 441 298L562 0H436L324 287H207L156 0H39L162 700H410Q451 700 491 690.5Q531 681 562 659.5Q593 638 612 603.5Q631 569 631 519ZM510 514Q510 564 477 583.5Q444 603 376 603H263L224 382H346Q389 382 420.5 393Q452 404 471.5 422Q491 440 500.5 464Q510 488 510 514Z" glyph-name="Rcommaaccent" horiz-adv-x="643" unicode="&#342;" /><glyph d="M310 312Q255 327 217.5 344.5Q180 362 156.5 384.5Q133 407 123 435.5Q113 464 113 501Q113 549 132 588.5Q151 628 185.5 655.5Q220 683 267.5 698Q315 713 372 713Q433 713 481 698Q529 683 562 656.5Q595 630 613 594Q631 558 634 515L514 492Q515 549 479 583.5Q443 618 368 618Q305 618 270 590.5Q235 563 235 515Q235 492 243.5 476Q252 460 269 448Q286 436 312 426.5Q338 417 374 407Q426 393 465.5 376.5Q505 360 532 337.5Q559 315 572.5 284Q586 253 586 211Q586 161 566 120Q546 79 509.5 49.5Q473 20 421.5 3.5Q370 -13 307 -13Q236 -13 185 5.5Q134 24 101 54.5Q68 85 52.5 124.5Q37 164 38 206L155 223Q154 197 161.5 172Q169 147 187 127Q205 107 235.5 94.5Q266 82 311 82Q342 82 369.5 89Q397 96 418 110.5Q439 125 451 147Q463 169 463 200Q463 221 455.5 237Q448 253 430.5 265.5Q413 278 383.5 289Q354 300 310 312Z" glyph-name="S" horiz-adv-x="640" unicode="S" /><glyph d="M310 312Q255 327 217.5 344.5Q180 362 156.5 384.5Q133 407 123 435.5Q113 464 113 501Q113 549 132 588.5Q151 628 185.5 655.5Q220 683 267.5 698Q315 713 372 713Q433 713 481 698Q529 683 562 656.5Q595 630 613 594Q631 558 634 515L514 492Q515 549 479 583.5Q443 618 368 618Q305 618 270 590.5Q235 563 235 515Q235 492 243.5 476Q252 460 269 448Q286 436 312 426.5Q338 417 374 407Q426 393 465.5 376.5Q505 360 532 337.5Q559 315 572.5 284Q586 253 586 211Q586 161 566 120Q546 79 509.5 49.5Q473 20 421.5 3.5Q370 -13 307 -13Q236 -13 185 5.5Q134 24 101 54.5Q68 85 52.5 124.5Q37 164 38 206L155 223Q154 197 161.5 172Q169 147 187 127Q205 107 235.5 94.5Q266 82 311 82Q342 82 369.5 89Q397 96 418 110.5Q439 125 451 147Q463 169 463 200Q463 221 455.5 237Q448 253 430.5 265.5Q413 278 383.5 289Q354 300 310 312ZM542 853 326 748 299 812 505 939Z" glyph-name="Sacute" horiz-adv-x="640" unicode="&#346;" /><glyph d="M310 312Q255 327 217.5 344.5Q180 362 156.5 384.5Q133 407 123 435.5Q113 464 113 501Q113 549 132 588.5Q151 628 185.5 655.5Q220 683 267.5 698Q315 713 372 713Q433 713 481 698Q529 683 562 656.5Q595 630 613 594Q631 558 634 515L514 492Q515 549 479 583.5Q443 618 368 618Q305 618 270 590.5Q235 563 235 515Q235 492 243.5 476Q252 460 269 448Q286 436 312 426.5Q338 417 374 407Q426 393 465.5 376.5Q505 360 532 337.5Q559 315 572.5 284Q586 253 586 211Q586 161 566 120Q546 79 509.5 49.5Q473 20 421.5 3.5Q370 -13 307 -13Q236 -13 185 5.5Q134 24 101 54.5Q68 85 52.5 124.5Q37 164 38 206L155 223Q154 197 161.5 172Q169 147 187 127Q205 107 235.5 94.5Q266 82 311 82Q342 82 369.5 89Q397 96 418 110.5Q439 125 451 147Q463 169 463 200Q463 221 455.5 237Q448 253 430.5 265.5Q413 278 383.5 289Q354 300 310 312ZM439 751H355L263 870L322 917L403 817L525 919L575 865Z" glyph-name="Scaron" horiz-adv-x="640" unicode="&#352;" /><glyph d="M192 -154Q198 -162 211 -168Q224 -174 242 -174Q263 -174 275.5 -162Q288 -150 288 -130Q288 -114 278.5 -106Q269 -98 253 -98Q239 -98 229 -102Q219 -106 212 -112L186 -80L230 -6Q180 3 143 24Q106 45 82.5 73Q59 101 48 135.5Q37 170 38 206L155 223Q154 197 161.5 172Q169 147 187 127Q205 107 235.5 94.5Q266 82 311 82Q342 82 369.5 89Q397 96 418 110.5Q439 125 451 147Q463 169 463 200Q463 221 455.5 237Q448 253 430.5 265.5Q413 278 383.5 289Q354 300 310 312Q255 327 217.5 344.5Q180 362 156.5 384.5Q133 407 123 435.5Q113 464 113 501Q113 549 132 588.5Q151 628 185.5 655.5Q220 683 267.5 698Q315 713 372 713Q433 713 481 698Q529 683 562 656.5Q595 630 613 594Q631 558 634 515L514 492Q515 549 479 583.5Q443 618 368 618Q305 618 270 590.5Q235 563 235 515Q235 492 243.5 476Q252 460 269 448Q286 436 312 426.5Q338 417 374 407Q426 393 465.5 376.5Q505 360 532 337.5Q559 315 572.5 284Q586 253 586 211Q586 161 566 120Q546 79 509.5 49.5Q473 20 421.5 3.5Q370 -13 307 -13Q301 -13 295 -13Q289 -13 283 -12L259 -54Q271 -47 286 -47Q316 -47 337 -67.5Q358 -88 358 -125Q358 -150 348.5 -169.5Q339 -189 323 -202.5Q307 -216 285 -223Q263 -230 239 -230Q204 -230 183.5 -219Q163 -208 154 -199Z" glyph-name="Scedilla" horiz-adv-x="640" unicode="&#350;" /><glyph d="M310 312Q255 327 217.5 344.5Q180 362 156.5 384.5Q133 407 123 435.5Q113 464 113 501Q113 549 132 588.5Q151 628 185.5 655.5Q220 683 267.5 698Q315 713 372 713Q433 713 481 698Q529 683 562 656.5Q595 630 613 594Q631 558 634 515L514 492Q515 549 479 583.5Q443 618 368 618Q305 618 270 590.5Q235 563 235 515Q235 492 243.5 476Q252 460 269 448Q286 436 312 426.5Q338 417 374 407Q426 393 465.5 376.5Q505 360 532 337.5Q559 315 572.5 284Q586 253 586 211Q586 161 566 120Q546 79 509.5 49.5Q473 20 421.5 3.5Q370 -13 307 -13Q236 -13 185 5.5Q134 24 101 54.5Q68 85 52.5 124.5Q37 164 38 206L155 223Q154 197 161.5 172Q169 147 187 127Q205 107 235.5 94.5Q266 82 311 82Q342 82 369.5 89Q397 96 418 110.5Q439 125 451 147Q463 169 463 200Q463 221 455.5 237Q448 253 430.5 265.5Q413 278 383.5 289Q354 300 310 312ZM551 794 492 746 411 846 289 745 239 799 375 912H459Z" glyph-name="Scircumflex" horiz-adv-x="640" unicode="&#348;" /><glyph d="M345 -134Q345 -152 338.5 -173Q332 -194 317 -212.5Q302 -231 276.5 -244.5Q251 -258 214 -259L204 -217Q216 -217 229 -214Q242 -211 252.5 -204.5Q263 -198 270.5 -189Q278 -180 279 -169Q274 -172 265 -172Q245 -171 229.5 -157.5Q214 -144 214 -118Q214 -95 230.5 -74Q247 -53 280 -53Q315 -53 330 -78Q345 -103 345 -134ZM310 312Q255 327 217.5 344.5Q180 362 156.5 384.5Q133 407 123 435.5Q113 464 113 501Q113 549 132 588.5Q151 628 185.5 655.5Q220 683 267.5 698Q315 713 372 713Q433 713 481 698Q529 683 562 656.5Q595 630 613 594Q631 558 634 515L514 492Q515 549 479 583.5Q443 618 368 618Q305 618 270 590.5Q235 563 235 515Q235 492 243.5 476Q252 460 269 448Q286 436 312 426.5Q338 417 374 407Q426 393 465.5 376.5Q505 360 532 337.5Q559 315 572.5 284Q586 253 586 211Q586 161 566 120Q546 79 509.5 49.5Q473 20 421.5 3.5Q370 -13 307 -13Q236 -13 185 5.5Q134 24 101 54.5Q68 85 52.5 124.5Q37 164 38 206L155 223Q154 197 161.5 172Q169 147 187 127Q205 107 235.5 94.5Q266 82 311 82Q342 82 369.5 89Q397 96 418 110.5Q439 125 451 147Q463 169 463 200Q463 221 455.5 237Q448 253 430.5 265.5Q413 278 383.5 289Q354 300 310 312Z" glyph-name="Scommaaccent" horiz-adv-x="640" unicode="&#536;" /><glyph d="M102 700H630L613 603H408L302 0H184L290 603H85Z" glyph-name="T" horiz-adv-x="570" unicode="T" /><glyph d="M102 700H630L613 603H408L377 430H510L494 340H362L302 0H184L244 340H112L128 430H259L290 603H85Z" glyph-name="Tbar" horiz-adv-x="570" unicode="&#358;" /><glyph d="M415 751H331L239 870L298 917L379 817L501 919L551 865ZM102 700H630L613 603H408L302 0H184L290 603H85Z" glyph-name="Tcaron" horiz-adv-x="570" unicode="&#356;" /><glyph d="M293 -134Q293 -152 286.5 -173Q280 -194 265 -212.5Q250 -231 224.5 -244.5Q199 -258 162 -259L152 -217Q164 -217 177 -214Q190 -211 200.5 -204.5Q211 -198 218.5 -189Q226 -180 227 -169Q222 -172 213 -172Q193 -171 177.5 -157.5Q162 -144 162 -118Q162 -95 178.5 -74Q195 -53 228 -53Q263 -53 278 -78Q293 -103 293 -134ZM102 700H630L613 603H408L302 0H184L290 603H85Z" glyph-name="Tcommaaccent" horiz-adv-x="570" unicode="&#354;" /><glyph d="M280 700 259 580H390Q495 580 556.5 533.5Q618 487 618 391Q618 327 595.5 281Q573 235 533.5 205Q494 175 440 160.5Q386 146 323 146H183L157 0H39L162 700ZM497 385Q497 437 463.5 460.5Q430 484 358 484H243L201 243H316Q409 243 453 279Q497 315 497 385Z" glyph-name="Thorn" horiz-adv-x="622" unicode="&#222;" /><glyph d="M198 261Q192 226 193.5 194.5Q195 163 208 138Q221 113 247.5 98.5Q274 84 317 84Q362 84 393 98.5Q424 113 445 137.5Q466 162 478 193Q490 224 496 257L574 700H692L612 249Q589 115 516.5 51Q444 -13 315 -13Q241 -13 191 6.5Q141 26 112.5 61.5Q84 97 76 146.5Q68 196 79 255L158 700H275Z" glyph-name="U" horiz-adv-x="687" unicode="U" /><glyph d="M571 853 355 748 328 812 534 939ZM198 261Q192 226 193.5 194.5Q195 163 208 138Q221 113 247.5 98.5Q274 84 317 84Q362 84 393 98.5Q424 113 445 137.5Q466 162 478 193Q490 224 496 257L574 700H692L612 249Q589 115 516.5 51Q444 -13 315 -13Q241 -13 191 6.5Q141 26 112.5 61.5Q84 97 76 146.5Q68 196 79 255L158 700H275Z" glyph-name="Uacute" horiz-adv-x="687" unicode="&#218;" /><glyph d="M365 901Q365 872 383.5 851.5Q402 831 434 831Q466 831 490.5 851.5Q515 872 523 901L607 877Q589 826 542.5 792Q496 758 430 758Q365 758 324.5 791Q284 824 281 877ZM198 261Q192 226 193.5 194.5Q195 163 208 138Q221 113 247.5 98.5Q274 84 317 84Q362 84 393 98.5Q424 113 445 137.5Q466 162 478 193Q490 224 496 257L574 700H692L612 249Q589 115 516.5 51Q444 -13 315 -13Q241 -13 191 6.5Q141 26 112.5 61.5Q84 97 76 146.5Q68 196 79 255L158 700H275Z" glyph-name="Ubreve" horiz-adv-x="687" unicode="&#364;" /><glyph d="M198 261Q192 226 193.5 194.5Q195 163 208 138Q221 113 247.5 98.5Q274 84 317 84Q362 84 393 98.5Q424 113 445 137.5Q466 162 478 193Q490 224 496 257L574 700H692L612 249Q589 115 516.5 51Q444 -13 315 -13Q241 -13 191 6.5Q141 26 112.5 61.5Q84 97 76 146.5Q68 196 79 255L158 700H275ZM586 794 527 746 446 846 324 745 274 799 410 912H494Z" glyph-name="Ucircumflex" horiz-adv-x="687" unicode="&#219;" /><glyph d="M272 830Q272 857 290 875Q308 893 337 893Q365 893 383 875Q401 857 401 830Q401 803 383 785Q365 767 337 767Q308 767 290 785Q272 803 272 830ZM476 830Q476 857 493.5 875Q511 893 540 893Q569 893 587 875Q605 857 605 830Q605 803 587 785Q569 767 540 767Q511 767 493.5 785Q476 803 476 830ZM198 261Q192 226 193.5 194.5Q195 163 208 138Q221 113 247.5 98.5Q274 84 317 84Q362 84 393 98.5Q424 113 445 137.5Q466 162 478 193Q490 224 496 257L574 700H692L612 249Q589 115 516.5 51Q444 -13 315 -13Q241 -13 191 6.5Q141 26 112.5 61.5Q84 97 76 146.5Q68 196 79 255L158 700H275Z" glyph-name="Udieresis" horiz-adv-x="687" unicode="&#220;" /><glyph d="M381 939 550 805 506 749 319 859ZM198 261Q192 226 193.5 194.5Q195 163 208 138Q221 113 247.5 98.5Q274 84 317 84Q362 84 393 98.5Q424 113 445 137.5Q466 162 478 193Q490 224 496 257L574 700H692L612 249Q589 115 516.5 51Q444 -13 315 -13Q241 -13 191 6.5Q141 26 112.5 61.5Q84 97 76 146.5Q68 196 79 255L158 700H275Z" glyph-name="Ugrave" horiz-adv-x="687" unicode="&#217;" /><glyph d="M198 261Q192 226 193.5 194.5Q195 163 208 138Q221 113 247.5 98.5Q274 84 317 84Q362 84 393 98.5Q424 113 445 137.5Q466 162 478 193Q490 224 496 257L574 700H692L612 249Q589 115 516.5 51Q444 -13 315 -13Q241 -13 191 6.5Q141 26 112.5 61.5Q84 97 76 146.5Q68 196 79 255L158 700H275ZM490 867 283 749 252 810 448 949ZM724 867 516 749 485 810 682 949Z" glyph-name="Uhungarumlaut" horiz-adv-x="687" unicode="&#368;" /><glyph d="M308 850H582L569 775H295ZM198 261Q192 226 193.5 194.5Q195 163 208 138Q221 113 247.5 98.5Q274 84 317 84Q362 84 393 98.5Q424 113 445 137.5Q466 162 478 193Q490 224 496 257L574 700H692L612 249Q589 115 516.5 51Q444 -13 315 -13Q241 -13 191 6.5Q141 26 112.5 61.5Q84 97 76 146.5Q68 196 79 255L158 700H275Z" glyph-name="Umacron" horiz-adv-x="687" unicode="&#362;" /><glyph d="M313 -102Q313 -116 322.5 -125.5Q332 -135 351 -135Q364 -135 379.5 -127.5Q395 -120 407 -102L450 -147Q423 -178 393 -190Q363 -202 331 -202Q284 -202 256.5 -180Q229 -158 229 -120Q229 -83 248 -57.5Q267 -32 299 -13Q230 -11 183 9.5Q136 30 109.5 65.5Q83 101 75.5 149Q68 197 79 255L158 700H275L198 261Q192 226 193.5 194.5Q195 163 208 138Q221 113 247.5 98.5Q274 84 317 84Q362 84 393 98.5Q424 113 445 137.5Q466 162 478 193Q490 224 496 257L574 700H692L612 249Q594 149 550 90.5Q506 32 433 2Q408 -8 386.5 -20.5Q365 -33 348.5 -46.5Q332 -60 322.5 -74Q313 -88 313 -102Z" glyph-name="Uogonek" horiz-adv-x="687" unicode="&#370;" /><glyph d="M198 261Q192 226 193.5 194.5Q195 163 208 138Q221 113 247.5 98.5Q274 84 317 84Q362 84 393 98.5Q424 113 445 137.5Q466 162 478 193Q490 224 496 257L574 700H692L612 249Q589 115 516.5 51Q444 -13 315 -13Q241 -13 191 6.5Q141 26 112.5 61.5Q84 97 76 146.5Q68 196 79 255L158 700H275ZM431 747Q387 747 361.5 773Q336 799 336 841Q336 886 367 916.5Q398 947 448 947Q492 947 518 922Q544 897 544 856Q544 833 535.5 813.5Q527 794 512 779Q497 764 476 755.5Q455 747 431 747ZM396 844Q396 827 407 814.5Q418 802 435 802Q456 802 470 817Q484 832 484 852Q484 869 473 881Q462 893 443 893Q423 893 409.5 878.5Q396 864 396 844Z" glyph-name="Uring" horiz-adv-x="687" unicode="&#366;" /><glyph d="M370 892Q397 892 415.5 883.5Q434 875 449 865.5Q464 856 477.5 847.5Q491 839 508 839Q523 839 535 846.5Q547 854 555 863Q565 874 571 888L624 839Q611 818 593 802Q577 788 554 776.5Q531 765 499 765Q473 765 454.5 773Q436 781 421.5 791Q407 801 393.5 809Q380 817 363 817Q346 817 333.5 809.5Q321 802 313 793Q303 782 297 770L246 819Q258 839 276 855Q291 869 314.5 880.5Q338 892 370 892ZM198 261Q192 226 193.5 194.5Q195 163 208 138Q221 113 247.5 98.5Q274 84 317 84Q362 84 393 98.5Q424 113 445 137.5Q466 162 478 193Q490 224 496 257L574 700H692L612 249Q589 115 516.5 51Q444 -13 315 -13Q241 -13 191 6.5Q141 26 112.5 61.5Q84 97 76 146.5Q68 196 79 255L158 700H275Z" glyph-name="Utilde" horiz-adv-x="687" unicode="&#360;" /><glyph d="M312 146Q327 176 347.5 216Q368 256 391 301Q414 346 438.5 393Q463 440 487 484Q542 588 602 700H727L345 0H229L97 700H218Q238 588 256 484Q263 440 271 393Q279 346 286.5 301.5Q294 257 300 217Q306 177 310 146Z" glyph-name="V" horiz-adv-x="661" unicode="V" /><glyph d="M992 700 683 0H553Q544 111 537 210Q534 252 530.5 296.5Q527 341 524 382Q521 423 519 458.5Q517 494 516 519H513Q503 494 488 458.5Q473 423 455.5 382Q438 341 418.5 296.5Q399 252 381 210Q338 111 289 0H159L97 700H212Q221 580 229 473Q232 427 235.5 379.5Q239 332 241.5 288.5Q244 245 245.5 207.5Q247 170 248 145H250Q260 170 275.5 207.5Q291 245 309.5 288.5Q328 332 348.5 379.5Q369 427 389 473Q436 580 488 700H599Q609 578 617 470Q620 424 623.5 376Q627 328 630 284.5Q633 241 635 205Q637 169 638 145H641Q650 169 665.5 205Q681 241 699 284.5Q717 328 737.5 376Q758 424 778 470Q825 578 877 700Z" glyph-name="W" horiz-adv-x="926" unicode="W" /><glyph d="M686 853 470 748 443 812 649 939ZM992 700 683 0H553Q544 111 537 210Q534 252 530.5 296.5Q527 341 524 382Q521 423 519 458.5Q517 494 516 519H513Q503 494 488 458.5Q473 423 455.5 382Q438 341 418.5 296.5Q399 252 381 210Q338 111 289 0H159L97 700H212Q221 580 229 473Q232 427 235.5 379.5Q239 332 241.5 288.5Q244 245 245.5 207.5Q247 170 248 145H250Q260 170 275.5 207.5Q291 245 309.5 288.5Q328 332 348.5 379.5Q369 427 389 473Q436 580 488 700H599Q609 578 617 470Q620 424 623.5 376Q627 328 630 284.5Q633 241 635 205Q637 169 638 145H641Q650 169 665.5 205Q681 241 699 284.5Q717 328 737.5 376Q758 424 778 470Q825 578 877 700Z" glyph-name="Wacute" horiz-adv-x="926" unicode="&#7810;" /><glyph d="M992 700 683 0H553Q544 111 537 210Q534 252 530.5 296.5Q527 341 524 382Q521 423 519 458.5Q517 494 516 519H513Q503 494 488 458.5Q473 423 455.5 382Q438 341 418.5 296.5Q399 252 381 210Q338 111 289 0H159L97 700H212Q221 580 229 473Q232 427 235.5 379.5Q239 332 241.5 288.5Q244 245 245.5 207.5Q247 170 248 145H250Q260 170 275.5 207.5Q291 245 309.5 288.5Q328 332 348.5 379.5Q369 427 389 473Q436 580 488 700H599Q609 578 617 470Q620 424 623.5 376Q627 328 630 284.5Q633 241 635 205Q637 169 638 145H641Q650 169 665.5 205Q681 241 699 284.5Q717 328 737.5 376Q758 424 778 470Q825 578 877 700ZM708 794 649 746 568 846 446 745 396 799 532 912H616Z" glyph-name="Wcircumflex" horiz-adv-x="926" unicode="&#372;" /><glyph d="M389 830Q389 857 407 875Q425 893 454 893Q482 893 500 875Q518 857 518 830Q518 803 500 785Q482 767 454 767Q425 767 407 785Q389 803 389 830ZM593 830Q593 857 610.5 875Q628 893 657 893Q686 893 704 875Q722 857 722 830Q722 803 704 785Q686 767 657 767Q628 767 610.5 785Q593 803 593 830ZM992 700 683 0H553Q544 111 537 210Q534 252 530.5 296.5Q527 341 524 382Q521 423 519 458.5Q517 494 516 519H513Q503 494 488 458.5Q473 423 455.5 382Q438 341 418.5 296.5Q399 252 381 210Q338 111 289 0H159L97 700H212Q221 580 229 473Q232 427 235.5 379.5Q239 332 241.5 288.5Q244 245 245.5 207.5Q247 170 248 145H250Q260 170 275.5 207.5Q291 245 309.5 288.5Q328 332 348.5 379.5Q369 427 389 473Q436 580 488 700H599Q609 578 617 470Q620 424 623.5 376Q627 328 630 284.5Q633 241 635 205Q637 169 638 145H641Q650 169 665.5 205Q681 241 699 284.5Q717 328 737.5 376Q758 424 778 470Q825 578 877 700Z" glyph-name="Wdieresis" horiz-adv-x="926" unicode="&#7812;" /><glyph d="M503 939 672 805 628 749 441 859ZM992 700 683 0H553Q544 111 537 210Q534 252 530.5 296.5Q527 341 524 382Q521 423 519 458.5Q517 494 516 519H513Q503 494 488 458.5Q473 423 455.5 382Q438 341 418.5 296.5Q399 252 381 210Q338 111 289 0H159L97 700H212Q221 580 229 473Q232 427 235.5 379.5Q239 332 241.5 288.5Q244 245 245.5 207.5Q247 170 248 145H250Q260 170 275.5 207.5Q291 245 309.5 288.5Q328 332 348.5 379.5Q369 427 389 473Q436 580 488 700H599Q609 578 617 470Q620 424 623.5 376Q627 328 630 284.5Q633 241 635 205Q637 169 638 145H641Q650 169 665.5 205Q681 241 699 284.5Q717 328 737.5 376Q758 424 778 470Q825 578 877 700Z" glyph-name="Wgrave" horiz-adv-x="926" unicode="&#7808;" /><glyph d="M259 700 382 461 588 700H730L433 363L626 0H492L350 269L116 0H-26L298 369L124 700Z" glyph-name="X" horiz-adv-x="691" unicode="X" /><glyph d="M280 300 91 700H220L355 408L592 700H729L398 300L346 0H227Z" glyph-name="Y" horiz-adv-x="658" unicode="Y" /><glyph d="M280 300 91 700H220L355 408L592 700H729L398 300L346 0H227ZM564 853 348 748 321 812 527 939Z" glyph-name="Yacute" horiz-adv-x="658" unicode="&#221;" /><glyph d="M280 300 91 700H220L355 408L592 700H729L398 300L346 0H227ZM568 794 509 746 428 846 306 745 256 799 392 912H476Z" glyph-name="Ycircumflex" horiz-adv-x="658" unicode="&#374;" /><glyph d="M280 300 91 700H220L355 408L592 700H729L398 300L346 0H227ZM249 830Q249 857 267 875Q285 893 314 893Q342 893 360 875Q378 857 378 830Q378 803 360 785Q342 767 314 767Q285 767 267 785Q249 803 249 830ZM453 830Q453 857 470.5 875Q488 893 517 893Q546 893 564 875Q582 857 582 830Q582 803 564 785Q546 767 517 767Q488 767 470.5 785Q453 803 453 830Z" glyph-name="Ydieresis" horiz-adv-x="658" unicode="&#376;" /><glyph d="M136 700H663L648 612L169 97H553L536 0H0L14 87L495 603H119Z" glyph-name="Z" horiz-adv-x="626" unicode="Z" /><glyph d="M136 700H663L648 612L169 97H553L536 0H0L14 87L495 603H119ZM555 853 339 748 312 812 518 939Z" glyph-name="Zacute" horiz-adv-x="626" unicode="&#377;" /><glyph d="M445 751H361L269 870L328 917L409 817L531 919L581 865ZM136 700H663L648 612L169 97H553L536 0H0L14 87L495 603H119Z" glyph-name="Zcaron" horiz-adv-x="626" unicode="&#142;" /><glyph d="M347 832Q347 863 366.5 882.5Q386 902 418 902Q450 902 470 882.5Q490 863 490 832Q490 802 470 783Q450 764 418 764Q386 764 366.5 783Q347 802 347 832ZM136 700H663L648 612L169 97H553L536 0H0L14 87L495 603H119Z" glyph-name="Zdotaccent" horiz-adv-x="626" unicode="&#379;" /><glyph d="M312 0Q310 8 308.5 24Q307 40 311 61Q289 28 251.5 7.5Q214 -13 168 -13Q136 -13 108.5 -5Q81 3 60.5 19Q40 35 28 60Q16 85 16 118Q16 167 42.5 199.5Q69 232 115 251.5Q161 271 221 279Q281 287 349 287L354 317Q360 355 344 378.5Q328 402 281 402Q235 402 209 379.5Q183 357 179 328L71 344Q80 380 100.5 407Q121 434 150 452Q179 470 214.5 478.5Q250 487 289 487Q335 487 371 475Q407 463 430 439.5Q453 416 462 382Q471 348 463 304L420 64Q416 41 416.5 28Q417 15 421 0ZM204 71Q226 71 246.5 78.5Q267 86 284 100Q301 114 313 133.5Q325 153 329 176L335 213Q289 213 251 209Q213 205 185.5 195.5Q158 186 143 170Q128 154 128 130Q128 71 204 71Z" glyph-name="a" horiz-adv-x="512" unicode="a" /><glyph d="M35 200Q35 264 55 317Q75 370 109 408Q143 446 187.5 466.5Q232 487 281 487Q341 487 377.5 462.5Q414 438 429 405L441 474H550L466 0H358L370 69Q351 38 313 12.5Q275 -13 221 -13Q179 -13 145 2Q111 17 86.5 44.5Q62 72 48.5 111.5Q35 151 35 200ZM398 252Q404 290 398 317.5Q392 345 377 362.5Q362 380 340.5 388.5Q319 397 296 397Q264 397 237.5 382Q211 367 192 340.5Q173 314 162.5 278.5Q152 243 152 202Q152 146 176.5 111.5Q201 77 252 77Q274 77 296.5 85Q319 93 338 110.5Q357 128 371.5 154.5Q386 181 392 218Z" glyph-name="a.school" horiz-adv-x="580" unicode="&#57681;" /><glyph d="M497 0H386L363 136H160L88 0H-25L276 564H394ZM315 449Q312 443 306.5 430Q301 417 293 400Q285 383 275.5 363Q266 343 256 324L206 224H349Q341 278 334 324Q331 343 328 363Q325 383 323 400Q321 417 319 430Q317 443 317 449Z" glyph-name="a.smcp" horiz-adv-x="556" unicode="&#57857;" /><glyph d="M242 288Q237 301 241 327Q210 280 151 280Q110 280 82 300Q54 320 54 363Q54 394 71 415Q88 436 116.5 448.5Q145 461 183.5 466Q222 471 265 471L268 491Q271 512 261.5 525Q252 538 226 538Q199 538 184 525.5Q169 513 167 496L89 507Q100 553 140 575.5Q180 598 231 598Q294 598 325 567.5Q356 537 346 479L319 328Q317 314 317 306Q317 298 319 288ZM178 339Q203 339 224.5 355Q246 371 251 397L255 420Q201 420 168 410.5Q135 401 135 371Q135 339 178 339Z" glyph-name="a.superior" horiz-adv-x="355" unicode="&#58209;" /><glyph d="M351 288H272L280 332Q268 312 244 296Q220 280 185 280Q132 280 99.5 316Q67 352 67 414Q67 456 80 490Q93 524 115 548Q137 572 165.5 585Q194 598 225 598Q261 598 284.5 583Q308 568 317 546L325 589H404ZM297 445Q305 490 285.5 512.5Q266 535 236 535Q198 535 174.5 501Q151 467 151 416Q151 384 165.5 363.5Q180 343 209 343Q238 343 262 363.5Q286 384 294 430Z" glyph-name="a.superiorschool" horiz-adv-x="400" /><glyph d="M312 0Q310 8 308.5 24Q307 40 311 61Q289 28 251.5 7.5Q214 -13 168 -13Q136 -13 108.5 -5Q81 3 60.5 19Q40 35 28 60Q16 85 16 118Q16 167 42.5 199.5Q69 232 115 251.5Q161 271 221 279Q281 287 349 287L354 317Q360 355 344 378.5Q328 402 281 402Q235 402 209 379.5Q183 357 179 328L71 344Q80 380 100.5 407Q121 434 150 452Q179 470 214.5 478.5Q250 487 289 487Q335 487 371 475Q407 463 430 439.5Q453 416 462 382Q471 348 463 304L420 64Q416 41 416.5 28Q417 15 421 0ZM204 71Q226 71 246.5 78.5Q267 86 284 100Q301 114 313 133.5Q325 153 329 176L335 213Q289 213 251 209Q213 205 185.5 195.5Q158 186 143 170Q128 154 128 130Q128 71 204 71ZM433 638 217 533 190 597 396 724Z" glyph-name="aacute" horiz-adv-x="512" unicode="&#225;" /><glyph d="M35 200Q35 264 55 317Q75 370 109 408Q143 446 187.5 466.5Q232 487 281 487Q341 487 377.5 462.5Q414 438 429 405L441 474H550L466 0H358L370 69Q351 38 313 12.5Q275 -13 221 -13Q179 -13 145 2Q111 17 86.5 44.5Q62 72 48.5 111.5Q35 151 35 200ZM398 252Q404 290 398 317.5Q392 345 377 362.5Q362 380 340.5 388.5Q319 397 296 397Q264 397 237.5 382Q211 367 192 340.5Q173 314 162.5 278.5Q152 243 152 202Q152 146 176.5 111.5Q201 77 252 77Q274 77 296.5 85Q319 93 338 110.5Q357 128 371.5 154.5Q386 181 392 218ZM441 638 225 533 198 597 404 724Z" glyph-name="aacute.school" horiz-adv-x="580" unicode="&#57683;" /><glyph d="M473 715 257 610 230 674 436 801ZM497 0H386L363 136H160L88 0H-25L276 564H394ZM315 449Q312 443 306.5 430Q301 417 293 400Q285 383 275.5 363Q266 343 256 324L206 224H349Q341 278 334 324Q331 343 328 363Q325 383 323 400Q321 417 319 430Q317 443 317 449Z" glyph-name="aacute.smcp" horiz-adv-x="556" unicode="&#57889;" /><glyph d="M312 0Q310 8 308.5 24Q307 40 311 61Q289 28 251.5 7.5Q214 -13 168 -13Q136 -13 108.5 -5Q81 3 60.5 19Q40 35 28 60Q16 85 16 118Q16 167 42.5 199.5Q69 232 115 251.5Q161 271 221 279Q281 287 349 287L354 317Q360 355 344 378.5Q328 402 281 402Q235 402 209 379.5Q183 357 179 328L71 344Q80 380 100.5 407Q121 434 150 452Q179 470 214.5 478.5Q250 487 289 487Q335 487 371 475Q407 463 430 439.5Q453 416 462 382Q471 348 463 304L420 64Q416 41 416.5 28Q417 15 421 0ZM204 71Q226 71 246.5 78.5Q267 86 284 100Q301 114 313 133.5Q325 153 329 176L335 213Q289 213 251 209Q213 205 185.5 195.5Q158 186 143 170Q128 154 128 130Q128 71 204 71ZM241 688Q241 659 259.5 638.5Q278 618 310 618Q342 618 366.5 638.5Q391 659 399 688L483 664Q465 613 418.5 579Q372 545 306 545Q241 545 200.5 578.5Q160 612 157 664Z" glyph-name="abreve" horiz-adv-x="512" unicode="&#259;" /><glyph d="M35 200Q35 264 55 317Q75 370 109 408Q143 446 187.5 466.5Q232 487 281 487Q341 487 377.5 462.5Q414 438 429 405L441 474H550L466 0H358L370 69Q351 38 313 12.5Q275 -13 221 -13Q179 -13 145 2Q111 17 86.5 44.5Q62 72 48.5 111.5Q35 151 35 200ZM398 252Q404 290 398 317.5Q392 345 377 362.5Q362 380 340.5 388.5Q319 397 296 397Q264 397 237.5 382Q211 367 192 340.5Q173 314 162.5 278.5Q152 243 152 202Q152 146 176.5 111.5Q201 77 252 77Q274 77 296.5 85Q319 93 338 110.5Q357 128 371.5 154.5Q386 181 392 218ZM244 688Q244 659 262.5 638.5Q281 618 313 618Q345 618 369.5 638.5Q394 659 402 688L486 664Q468 613 421.5 579Q375 545 309 545Q244 545 203.5 578.5Q163 612 160 664Z" glyph-name="abreve.school" horiz-adv-x="580" unicode="&#57690;" /><glyph d="M497 0H386L363 136H160L88 0H-25L276 564H394ZM315 449Q312 443 306.5 430Q301 417 293 400Q285 383 275.5 363Q266 343 256 324L206 224H349Q341 278 334 324Q331 343 328 363Q325 383 323 400Q321 417 319 430Q317 443 317 449ZM279 760Q279 731 297.5 710.5Q316 690 348 690Q380 690 404.5 710.5Q429 731 437 760L521 736Q503 685 456.5 651Q410 617 344 617Q279 617 238.5 650.5Q198 684 195 736Z" glyph-name="abreve.smcp" horiz-adv-x="556" unicode="&#57897;" /><glyph d="M312 0Q310 8 308.5 24Q307 40 311 61Q289 28 251.5 7.5Q214 -13 168 -13Q136 -13 108.5 -5Q81 3 60.5 19Q40 35 28 60Q16 85 16 118Q16 167 42.5 199.5Q69 232 115 251.5Q161 271 221 279Q281 287 349 287L354 317Q360 355 344 378.5Q328 402 281 402Q235 402 209 379.5Q183 357 179 328L71 344Q80 380 100.5 407Q121 434 150 452Q179 470 214.5 478.5Q250 487 289 487Q335 487 371 475Q407 463 430 439.5Q453 416 462 382Q471 348 463 304L420 64Q416 41 416.5 28Q417 15 421 0ZM204 71Q226 71 246.5 78.5Q267 86 284 100Q301 114 313 133.5Q325 153 329 176L335 213Q289 213 251 209Q213 205 185.5 195.5Q158 186 143 170Q128 154 128 130Q128 71 204 71ZM286 706H360L457 575L398 529L317 634L199 528L149 580Z" glyph-name="acircumflex" horiz-adv-x="512" unicode="&#226;" /><glyph d="M291 706H365L462 575L403 529L322 634L204 528L154 580ZM35 200Q35 264 55 317Q75 370 109 408Q143 446 187.5 466.5Q232 487 281 487Q341 487 377.5 462.5Q414 438 429 405L441 474H550L466 0H358L370 69Q351 38 313 12.5Q275 -13 221 -13Q179 -13 145 2Q111 17 86.5 44.5Q62 72 48.5 111.5Q35 151 35 200ZM398 252Q404 290 398 317.5Q392 345 377 362.5Q362 380 340.5 388.5Q319 397 296 397Q264 397 237.5 382Q211 367 192 340.5Q173 314 162.5 278.5Q152 243 152 202Q152 146 176.5 111.5Q201 77 252 77Q274 77 296.5 85Q319 93 338 110.5Q357 128 371.5 154.5Q386 181 392 218Z" glyph-name="acircumflex.school" horiz-adv-x="580" unicode="&#57684;" /><glyph d="M328 786H402L499 655L440 609L359 714L241 608L191 660ZM497 0H386L363 136H160L88 0H-25L276 564H394ZM315 449Q312 443 306.5 430Q301 417 293 400Q285 383 275.5 363Q266 343 256 324L206 224H349Q341 278 334 324Q331 343 328 363Q325 383 323 400Q321 417 319 430Q317 443 317 449Z" glyph-name="acircumflex.smcp" horiz-adv-x="556" unicode="&#57891;" /><glyph d="M486 638 270 533 243 597 449 724Z" glyph-name="acute" horiz-adv-x="600" unicode="&#180;" /><glyph d="M524 853 308 748 281 812 487 939Z" glyph-name="acute.cap" horiz-adv-x="600" unicode="&#58402;" /><glyph d="M312 0Q310 8 308.5 24Q307 40 311 61Q289 28 251.5 7.5Q214 -13 168 -13Q136 -13 108.5 -5Q81 3 60.5 19Q40 35 28 60Q16 85 16 118Q16 167 42.5 199.5Q69 232 115 251.5Q161 271 221 279Q281 287 349 287L354 317Q360 355 344 378.5Q328 402 281 402Q235 402 209 379.5Q183 357 179 328L71 344Q80 380 100.5 407Q121 434 150 452Q179 470 214.5 478.5Q250 487 289 487Q335 487 371 475Q407 463 430 439.5Q453 416 462 382Q471 348 463 304L420 64Q416 41 416.5 28Q417 15 421 0ZM204 71Q226 71 246.5 78.5Q267 86 284 100Q301 114 313 133.5Q325 153 329 176L335 213Q289 213 251 209Q213 205 185.5 195.5Q158 186 143 170Q128 154 128 130Q128 71 204 71ZM144 607Q144 635 162 652.5Q180 670 209 670Q238 670 256 652.5Q274 635 274 607Q274 581 256 562.5Q238 544 209 544Q180 544 162 562.5Q144 581 144 607ZM348 607Q348 635 366 652.5Q384 670 413 670Q442 670 460 652.5Q478 635 478 607Q478 581 460 562.5Q442 544 413 544Q384 544 366 562.5Q348 581 348 607Z" glyph-name="adieresis" horiz-adv-x="512" unicode="&#228;" /><glyph d="M150 607Q150 635 168 652.5Q186 670 215 670Q244 670 262 652.5Q280 635 280 607Q280 581 262 562.5Q244 544 215 544Q186 544 168 562.5Q150 581 150 607ZM354 607Q354 635 372 652.5Q390 670 419 670Q448 670 466 652.5Q484 635 484 607Q484 581 466 562.5Q448 544 419 544Q390 544 372 562.5Q354 581 354 607ZM35 200Q35 264 55 317Q75 370 109 408Q143 446 187.5 466.5Q232 487 281 487Q341 487 377.5 462.5Q414 438 429 405L441 474H550L466 0H358L370 69Q351 38 313 12.5Q275 -13 221 -13Q179 -13 145 2Q111 17 86.5 44.5Q62 72 48.5 111.5Q35 151 35 200ZM398 252Q404 290 398 317.5Q392 345 377 362.5Q362 380 340.5 388.5Q319 397 296 397Q264 397 237.5 382Q211 367 192 340.5Q173 314 162.5 278.5Q152 243 152 202Q152 146 176.5 111.5Q201 77 252 77Q274 77 296.5 85Q319 93 338 110.5Q357 128 371.5 154.5Q386 181 392 218Z" glyph-name="adieresis.school" horiz-adv-x="580" unicode="&#57685;" /><glyph d="M182 686Q182 714 200 731.5Q218 749 247 749Q276 749 294 731.5Q312 714 312 686Q312 660 294 641.5Q276 623 247 623Q218 623 200 641.5Q182 660 182 686ZM386 686Q386 714 404 731.5Q422 749 451 749Q480 749 498 731.5Q516 714 516 686Q516 660 498 641.5Q480 623 451 623Q422 623 404 641.5Q386 660 386 686ZM497 0H386L363 136H160L88 0H-25L276 564H394ZM315 449Q312 443 306.5 430Q301 417 293 400Q285 383 275.5 363Q266 343 256 324L206 224H349Q341 278 334 324Q331 343 328 363Q325 383 323 400Q321 417 319 430Q317 443 317 449Z" glyph-name="adieresis.smcp" horiz-adv-x="556" unicode="&#57892;" /><glyph d="M758 102Q726 48 673 17.5Q620 -13 547 -13Q486 -13 441 10Q396 33 371 78Q339 34 291 10.5Q243 -13 179 -13Q143 -13 113.5 -5.5Q84 2 62 18.5Q40 35 28 60Q16 85 16 120Q16 168 43 200.5Q70 233 115.5 252Q161 271 221.5 278.5Q282 286 349 286L354 317Q360 355 344 378.5Q328 402 281 402Q235 402 209 379.5Q183 357 179 328L71 344Q80 380 100.5 407Q121 434 150 452Q179 470 214.5 478.5Q250 487 289 487Q342 487 377 470Q412 453 432 423Q464 453 505 470Q546 487 594 487Q656 487 698 466.5Q740 446 764 411.5Q788 377 794.5 332.5Q801 288 793 240Q792 237 791 232.5Q790 228 789 223Q788 218 787 213H446Q443 186 446 160.5Q449 135 461 115.5Q473 96 494.5 84Q516 72 549 72Q594 72 620 92Q646 112 665 142ZM204 71Q248 71 284 99Q320 127 329 176L335 213Q289 213 251 209Q213 205 185.5 195.5Q158 186 143 170Q128 154 128 130Q128 101 148 86Q168 71 204 71ZM592 404Q538 404 505.5 371Q473 338 459 286H686Q694 343 668 373.5Q642 404 592 404Z" glyph-name="ae" horiz-adv-x="825" unicode="&#230;" /><glyph d="M343 0 367 135H193L95 0H-28L380 564H814L798 471H535L511 336H756L740 244H495L468 93H736L720 0ZM255 224H383L425 460H422Z" glyph-name="ae.smcp" horiz-adv-x="807" unicode="&#57905;" /><glyph d="M312 0Q310 8 308.5 24Q307 40 311 61Q289 28 251.5 7.5Q214 -13 168 -13Q136 -13 108.5 -5Q81 3 60.5 19Q40 35 28 60Q16 85 16 118Q16 167 42.5 199.5Q69 232 115 251.5Q161 271 221 279Q281 287 349 287L354 317Q360 355 344 378.5Q328 402 281 402Q235 402 209 379.5Q183 357 179 328L71 344Q80 380 100.5 407Q121 434 150 452Q179 470 214.5 478.5Q250 487 289 487Q335 487 371 475Q407 463 430 439.5Q453 416 462 382Q471 348 463 304L420 64Q416 41 416.5 28Q417 15 421 0ZM204 71Q226 71 246.5 78.5Q267 86 284 100Q301 114 313 133.5Q325 153 329 176L335 213Q289 213 251 209Q213 205 185.5 195.5Q158 186 143 170Q128 154 128 130Q128 71 204 71ZM265 723 434 589 390 533 203 643Z" glyph-name="agrave" horiz-adv-x="512" unicode="&#224;" /><glyph d="M35 200Q35 264 55 317Q75 370 109 408Q143 446 187.5 466.5Q232 487 281 487Q341 487 377.5 462.5Q414 438 429 405L441 474H550L466 0H358L370 69Q351 38 313 12.5Q275 -13 221 -13Q179 -13 145 2Q111 17 86.5 44.5Q62 72 48.5 111.5Q35 151 35 200ZM398 252Q404 290 398 317.5Q392 345 377 362.5Q362 380 340.5 388.5Q319 397 296 397Q264 397 237.5 382Q211 367 192 340.5Q173 314 162.5 278.5Q152 243 152 202Q152 146 176.5 111.5Q201 77 252 77Q274 77 296.5 85Q319 93 338 110.5Q357 128 371.5 154.5Q386 181 392 218ZM269 723 438 589 394 533 207 643Z" glyph-name="agrave.school" horiz-adv-x="580" unicode="&#57682;" /><glyph d="M497 0H386L363 136H160L88 0H-25L276 564H394ZM315 449Q312 443 306.5 430Q301 417 293 400Q285 383 275.5 363Q266 343 256 324L206 224H349Q341 278 334 324Q331 343 328 363Q325 383 323 400Q321 417 319 430Q317 443 317 449ZM292 800 461 666 417 610 230 720Z" glyph-name="agrave.smcp" horiz-adv-x="556" unicode="&#57890;" /><glyph d="M312 0Q310 8 308.5 24Q307 40 311 61Q289 28 251.5 7.5Q214 -13 168 -13Q136 -13 108.5 -5Q81 3 60.5 19Q40 35 28 60Q16 85 16 118Q16 167 42.5 199.5Q69 232 115 251.5Q161 271 221 279Q281 287 349 287L354 317Q360 355 344 378.5Q328 402 281 402Q235 402 209 379.5Q183 357 179 328L71 344Q80 380 100.5 407Q121 434 150 452Q179 470 214.5 478.5Q250 487 289 487Q335 487 371 475Q407 463 430 439.5Q453 416 462 382Q471 348 463 304L420 64Q416 41 416.5 28Q417 15 421 0ZM204 71Q226 71 246.5 78.5Q267 86 284 100Q301 114 313 133.5Q325 153 329 176L335 213Q289 213 251 209Q213 205 185.5 195.5Q158 186 143 170Q128 154 128 130Q128 71 204 71ZM180 630H453L440 556H167Z" glyph-name="amacron" horiz-adv-x="512" unicode="&#257;" /><glyph d="M35 200Q35 264 55 317Q75 370 109 408Q143 446 187.5 466.5Q232 487 281 487Q341 487 377.5 462.5Q414 438 429 405L441 474H550L466 0H358L370 69Q351 38 313 12.5Q275 -13 221 -13Q179 -13 145 2Q111 17 86.5 44.5Q62 72 48.5 111.5Q35 151 35 200ZM398 252Q404 290 398 317.5Q392 345 377 362.5Q362 380 340.5 388.5Q319 397 296 397Q264 397 237.5 382Q211 367 192 340.5Q173 314 162.5 278.5Q152 243 152 202Q152 146 176.5 111.5Q201 77 252 77Q274 77 296.5 85Q319 93 338 110.5Q357 128 371.5 154.5Q386 181 392 218ZM188 630H461L448 556H175Z" glyph-name="amacron.school" horiz-adv-x="580" unicode="&#57689;" /><glyph d="M217 699H490L477 625H204ZM497 0H386L363 136H160L88 0H-25L276 564H394ZM315 449Q312 443 306.5 430Q301 417 293 400Q285 383 275.5 363Q266 343 256 324L206 224H349Q341 278 334 324Q331 343 328 363Q325 383 323 400Q321 417 319 430Q317 443 317 449Z" glyph-name="amacron.smcp" horiz-adv-x="556" unicode="&#57896;" /><glyph d="M479 0 445 52Q413 26 368 6.5Q323 -13 261 -13Q145 -13 85 40Q25 93 25 180Q25 228 41 265.5Q57 303 83 331.5Q109 360 142 381Q175 402 209 418Q189 454 179 483.5Q169 513 169 543Q169 575 181 605.5Q193 636 216 659.5Q239 683 272.5 697.5Q306 712 349 712Q426 712 472.5 672.5Q519 633 519 568Q519 532 506.5 503.5Q494 475 472 452.5Q450 430 419 411.5Q388 393 351 377L463 206Q480 229 490 257.5Q500 286 507 319L587 274Q581 251 575 232.5Q569 214 560.5 196.5Q552 179 541.5 162Q531 145 516 126L602 0ZM137 192Q137 138 171.5 105.5Q206 73 264 73Q310 73 343.5 90Q377 107 394 127L255 341Q236 334 215.5 321.5Q195 309 177.5 290.5Q160 272 148.5 247.5Q137 223 137 192ZM349 628Q317 628 293.5 605.5Q270 583 270 543Q270 503 305 449Q324 456 344 465.5Q364 475 380.5 488.5Q397 502 407.5 520Q418 538 418 563Q418 591 399.5 609.5Q381 628 349 628Z" glyph-name="ampersand" horiz-adv-x="649" unicode="&amp;" /><glyph d="M328 792 415 758 175 307 251 -147 161 -178 60 314Z" glyph-name="anglebracketleft" horiz-adv-x="338" unicode="&#12296;" /><glyph d="M336 836 423 802 183 351 259 -103 169 -134 68 358Z" glyph-name="anglebracketleft.cap" horiz-adv-x="338" unicode="&#58519;" /><glyph d="M33 -178 -53 -144 186 307 111 761 200 792 302 300Z" glyph-name="anglebracketright" horiz-adv-x="338" unicode="&#12297;" /><glyph d="M41 -134 -45 -100 194 351 119 805 208 836 310 344Z" glyph-name="anglebracketright.cap" horiz-adv-x="338" unicode="&#58520;" /><glyph d="M316 442H314Q311 435 297 407Q283 379 262.5 339Q242 299 218 251Q194 203 170 156Q146 109 124.5 68Q103 27 89 0H-25L276 564H394L497 0H386Z" glyph-name="anocross.smcp" horiz-adv-x="556" unicode="&#57888;" /><glyph d="M303 -102Q303 -116 312.5 -125.5Q322 -135 341 -135Q354 -135 369.5 -127.5Q385 -120 397 -102L440 -147Q413 -178 383 -190Q353 -202 321 -202Q274 -202 246.5 -180Q219 -158 219 -120Q219 -77 244.5 -50Q270 -23 312 0Q310 8 308.5 24Q307 40 311 61Q289 28 251.5 7.5Q214 -13 168 -13Q136 -13 108.5 -5Q81 3 60.5 19Q40 35 28 60Q16 85 16 118Q16 167 42.5 199.5Q69 232 115 251.5Q161 271 221 279Q281 287 349 287L354 317Q360 355 344 378.5Q328 402 281 402Q235 402 209 379.5Q183 357 179 328L71 344Q80 380 100.5 407Q121 434 150 452Q179 470 214.5 478.5Q250 487 289 487Q335 487 371 475Q407 463 430 439.5Q453 416 462 382Q471 348 463 304L420 64Q416 41 416.5 28Q417 15 421 0Q363 -29 333 -53.5Q303 -78 303 -102ZM204 71Q226 71 246.5 78.5Q267 86 284 100Q301 114 313 133.5Q325 153 329 176L335 213Q289 213 251 209Q213 205 185.5 195.5Q158 186 143 170Q128 154 128 130Q128 71 204 71Z" glyph-name="aogonek" horiz-adv-x="512" unicode="&#261;" /><glyph d="M35 200Q35 264 55 317Q75 370 109 408Q143 446 187.5 466.5Q232 487 281 487Q341 487 377.5 462.5Q414 438 429 405L441 474H550L466 0Q408 -29 378 -53.5Q348 -78 348 -102Q348 -116 357.5 -125.5Q367 -135 386 -135Q399 -135 414.5 -127.5Q430 -120 442 -102L485 -147Q458 -178 428 -190Q398 -202 366 -202Q319 -202 291.5 -180Q264 -158 264 -120Q264 -77 290 -50Q316 -23 358 0L370 69Q351 38 313 12.5Q275 -13 221 -13Q179 -13 145 2Q111 17 86.5 44.5Q62 72 48.5 111.5Q35 151 35 200ZM398 252Q404 290 398 317.5Q392 345 377 362.5Q362 380 340.5 388.5Q319 397 296 397Q264 397 237.5 382Q211 367 192 340.5Q173 314 162.5 278.5Q152 243 152 202Q152 146 176.5 111.5Q201 77 252 77Q274 77 296.5 85Q319 93 338 110.5Q357 128 371.5 154.5Q386 181 392 218Z" glyph-name="aogonek.school" horiz-adv-x="580" unicode="&#57680;" /><glyph d="M497 0Q437 -29 407.5 -53.5Q378 -78 378 -102Q378 -116 387.5 -125.5Q397 -135 416 -135Q429 -135 444.5 -127.5Q460 -120 472 -102L515 -147Q488 -178 458 -190Q428 -202 396 -202Q349 -202 321.5 -180Q294 -158 294 -120Q294 -77 319.5 -50Q345 -23 386 0L363 136H160L88 0H-25L276 564H394ZM315 449Q312 443 306.5 430Q301 417 293 400Q285 383 275.5 363Q266 343 256 324L206 224H349Q341 278 334 324Q331 343 328 363Q325 383 323 400Q321 417 319 430Q317 443 317 449Z" glyph-name="aogonek.smcp" horiz-adv-x="556" unicode="&#57903;" /><glyph d="M418 348Q383 348 359 357.5Q335 367 315.5 378Q296 389 278.5 398.5Q261 408 240 408Q218 408 202 399Q186 390 175 379Q162 367 153 351L86 408Q102 434 126 454Q146 471 177 485.5Q208 500 251 500Q285 500 309.5 490.5Q334 481 353.5 469.5Q373 458 390.5 448.5Q408 439 430 439Q451 439 467 448Q483 457 494 468Q506 481 515 498L584 441Q568 414 544 394Q524 377 492.5 362.5Q461 348 418 348ZM380 152Q346 152 322 161.5Q298 171 278.5 182Q259 193 241 202.5Q223 212 202 212Q181 212 165 203Q149 194 138 183Q125 171 116 155L48 212Q64 238 88 258Q108 275 139 289.5Q170 304 213 304Q248 304 272 294.5Q296 285 315.5 273.5Q335 262 352.5 252.5Q370 243 392 243Q413 243 429 252Q445 261 456 272Q468 285 478 302L547 245Q530 218 506 198Q485 181 454 166.5Q423 152 380 152Z" glyph-name="approxequal" horiz-adv-x="600" unicode="&#8776;" /><glyph d="M457 385Q420 385 393.5 394.5Q367 404 346 415Q325 426 305.5 435.5Q286 445 263 445Q237 445 218 436Q199 427 186 416Q171 404 160 388L92 445Q110 471 136 491Q159 508 193 522.5Q227 537 274 537Q312 537 338.5 527.5Q365 518 386 506.5Q407 495 426 485.5Q445 476 469 476Q495 476 514 485Q533 494 546 505Q561 518 572 535L640 478Q622 451 596 431Q573 414 539 399.5Q505 385 457 385ZM420 189Q382 189 356 198.5Q330 208 308.5 219Q287 230 268 239.5Q249 249 225 249Q199 249 180 240Q161 231 148 220Q133 208 123 192L55 249Q73 275 99 295Q122 312 155.5 326.5Q189 341 236 341Q274 341 300.5 331.5Q327 322 348.5 310.5Q370 299 389 289.5Q408 280 432 280Q458 280 477 289Q496 298 509 309Q524 322 535 339L604 282Q585 255 559 235Q536 218 502 203.5Q468 189 420 189Z" glyph-name="approxequal.cap" horiz-adv-x="650" unicode="&#61990;" /><glyph d="M312 0Q310 8 308.5 24Q307 40 311 61Q289 28 251.5 7.5Q214 -13 168 -13Q136 -13 108.5 -5Q81 3 60.5 19Q40 35 28 60Q16 85 16 118Q16 167 42.5 199.5Q69 232 115 251.5Q161 271 221 279Q281 287 349 287L354 317Q360 355 344 378.5Q328 402 281 402Q235 402 209 379.5Q183 357 179 328L71 344Q80 380 100.5 407Q121 434 150 452Q179 470 214.5 478.5Q250 487 289 487Q335 487 371 475Q407 463 430 439.5Q453 416 462 382Q471 348 463 304L420 64Q416 41 416.5 28Q417 15 421 0ZM204 71Q226 71 246.5 78.5Q267 86 284 100Q301 114 313 133.5Q325 153 329 176L335 213Q289 213 251 209Q213 205 185.5 195.5Q158 186 143 170Q128 154 128 130Q128 71 204 71ZM306 529Q261 529 235.5 554.5Q210 580 210 622Q210 668 241.5 698.5Q273 729 322 729Q367 729 392.5 703.5Q418 678 418 637Q418 614 409.5 594.5Q401 575 386 560.5Q371 546 350.5 537.5Q330 529 306 529ZM270 626Q270 609 281 596Q292 583 310 583Q331 583 344.5 598Q358 613 358 633Q358 651 347.5 662.5Q337 674 318 674Q298 674 284 660Q270 646 270 626Z" glyph-name="aring" horiz-adv-x="512" unicode="&#229;" /><glyph d="M35 200Q35 264 55 317Q75 370 109 408Q143 446 187.5 466.5Q232 487 281 487Q341 487 377.5 462.5Q414 438 429 405L441 474H550L466 0H358L370 69Q351 38 313 12.5Q275 -13 221 -13Q179 -13 145 2Q111 17 86.5 44.5Q62 72 48.5 111.5Q35 151 35 200ZM398 252Q404 290 398 317.5Q392 345 377 362.5Q362 380 340.5 388.5Q319 397 296 397Q264 397 237.5 382Q211 367 192 340.5Q173 314 162.5 278.5Q152 243 152 202Q152 146 176.5 111.5Q201 77 252 77Q274 77 296.5 85Q319 93 338 110.5Q357 128 371.5 154.5Q386 181 392 218ZM315 529Q270 529 244.5 554.5Q219 580 219 622Q219 668 250.5 698.5Q282 729 331 729Q376 729 401.5 703.5Q427 678 427 637Q427 614 418.5 594.5Q410 575 395 560.5Q380 546 359.5 537.5Q339 529 315 529ZM279 626Q279 609 290 596Q301 583 319 583Q340 583 353.5 598Q367 613 367 633Q367 651 356.5 662.5Q346 674 327 674Q307 674 293 660Q279 646 279 626Z" glyph-name="aring.school" horiz-adv-x="580" unicode="&#57687;" /><glyph d="M347 611Q302 611 276.5 636.5Q251 662 251 704Q251 750 282.5 780.5Q314 811 363 811Q408 811 433.5 785.5Q459 760 459 719Q459 696 450.5 676.5Q442 657 427 642.5Q412 628 391.5 619.5Q371 611 347 611ZM311 708Q311 691 322 678Q333 665 351 665Q372 665 385.5 680Q399 695 399 715Q399 733 388.5 744.5Q378 756 359 756Q339 756 325 742Q311 728 311 708ZM497 0H386L363 136H160L88 0H-25L276 564H394ZM315 449Q312 443 306.5 430Q301 417 293 400Q285 383 275.5 363Q266 343 256 324L206 224H349Q341 278 334 324Q331 343 328 363Q325 383 323 400Q321 417 319 430Q317 443 317 449Z" glyph-name="aring.smcp" horiz-adv-x="556" unicode="&#57894;" /><glyph d="M341 700H434V161L617 343L681 279L387 -15L94 279L157 343L341 161Z" glyph-name="arrowdown" horiz-adv-x="775" unicode="&#8595;" /><glyph d="M777 395V303H238L421 119L357 55L63 349L357 643L421 579L238 395Z" glyph-name="arrowleft" horiz-adv-x="850" unicode="&#8592;" /><glyph d="M612 395 429 579 493 643 787 349 493 55 429 119 612 303H73V395Z" glyph-name="arrowright" horiz-adv-x="850" unicode="&#8594;" /><glyph d="M434 0H341V539L157 357L94 421L387 715L681 421L617 357L434 539Z" glyph-name="arrowup" horiz-adv-x="775" unicode="&#8593;" /><glyph d="M525 353H418L341 594L177 353H66L309 700H405Z" glyph-name="asciicircum" horiz-adv-x="549" unicode="^" /><glyph d="M397 228Q362 228 338 237Q314 246 294.5 257.5Q275 269 257 278Q239 287 218 287Q197 287 181 278Q165 269 154 258Q142 246 133 230L64 287Q81 313 105 333Q125 350 156 364.5Q187 379 230 379Q264 379 288.5 369.5Q313 360 332.5 349Q352 338 369.5 328.5Q387 319 409 319Q430 319 446 328Q462 337 473 348Q485 360 494 377L562 320Q546 294 522 274Q502 257 471 242.5Q440 228 397 228Z" glyph-name="asciitilde" horiz-adv-x="602" unicode="~" /><glyph d="M83 581 118 648 221 588 245 706 317 693 293 576 406 598 417 522 297 509 353 403 285 369 237 478 154 392 102 448 191 528Z" glyph-name="asterisk" horiz-adv-x="389" unicode="*" /><glyph d="M635 471H723L647 204Q645 196 643.5 190Q642 184 642 176Q642 156 653 145Q664 134 684 134Q712 134 740 150.5Q768 167 790.5 197.5Q813 228 827.5 272Q842 316 842 371Q842 433 822.5 481.5Q803 530 766.5 564Q730 598 679 615.5Q628 633 565 633Q481 633 405.5 602.5Q330 572 273 517Q216 462 182.5 385Q149 308 149 214Q149 135 173.5 76.5Q198 18 240.5 -21Q283 -60 341.5 -79Q400 -98 469 -98Q514 -98 553.5 -90.5Q593 -83 627 -70Q661 -57 691 -40Q721 -23 748 -5L792 -81Q767 -99 734 -117Q701 -135 659.5 -149Q618 -163 568.5 -172Q519 -181 461 -181Q363 -181 286.5 -154Q210 -127 157 -76.5Q104 -26 76.5 47Q49 120 49 212Q49 327 91.5 420Q134 513 205.5 578.5Q277 644 370.5 679.5Q464 715 565 715Q653 715 723 689.5Q793 664 841.5 618.5Q890 573 915.5 510.5Q941 448 941 375Q941 311 921 252.5Q901 194 865 150Q829 106 779.5 79.5Q730 53 670 53Q617 53 595 76.5Q573 100 569 129Q543 91 503 72Q463 53 425 53Q361 53 321.5 97.5Q282 142 282 221Q282 275 300.5 322Q319 369 350.5 404Q382 439 422.5 459.5Q463 480 507 480Q549 480 579 463Q609 446 620 415ZM579 279Q587 308 584.5 330.5Q582 353 572.5 368Q563 383 546.5 391Q530 399 510 399Q484 399 460.5 384.5Q437 370 419 346Q401 322 390.5 290.5Q380 259 380 225Q380 184 396 159.5Q412 135 446 135Q465 135 484.5 142.5Q504 150 520.5 164.5Q537 179 550 200Q563 221 570 247Z" glyph-name="at" horiz-adv-x="960" unicode="@" /><glyph d="M647 553H735L659 286Q657 278 655.5 272Q654 266 654 258Q654 238 665 227Q676 216 696 216Q724 216 752 232.5Q780 249 802.5 279.5Q825 310 839.5 354Q854 398 854 453Q854 515 834.5 563.5Q815 612 778.5 646Q742 680 691 697.5Q640 715 577 715Q493 715 417.5 684.5Q342 654 285 599Q228 544 194.5 467Q161 390 161 296Q161 217 185.5 158.5Q210 100 252.5 61Q295 22 353.5 3Q412 -16 481 -16Q526 -16 565.5 -8.5Q605 -1 639 12Q673 25 703 42Q733 59 760 77L804 1Q779 -17 746 -35Q713 -53 671.5 -67Q630 -81 580.5 -90Q531 -99 473 -99Q375 -99 298.5 -72Q222 -45 169 5.5Q116 56 88.5 129Q61 202 61 294Q61 409 103.5 502Q146 595 217.5 660.5Q289 726 382.5 761.5Q476 797 577 797Q665 797 735 771.5Q805 746 853.5 700.5Q902 655 927.5 592.5Q953 530 953 457Q953 393 933 334.5Q913 276 877 232Q841 188 791.5 161.5Q742 135 682 135Q629 135 607 158.5Q585 182 581 211Q555 173 515 154Q475 135 437 135Q373 135 333.5 179.5Q294 224 294 303Q294 357 312.5 404Q331 451 362.5 486Q394 521 434.5 541.5Q475 562 519 562Q561 562 591 545Q621 528 632 497ZM591 361Q599 390 596.5 412.5Q594 435 584.5 450Q575 465 558.5 473Q542 481 522 481Q496 481 472.5 466.5Q449 452 431 428Q413 404 402.5 372.5Q392 341 392 307Q392 266 408 241.5Q424 217 458 217Q477 217 496.5 224.5Q516 232 532.5 246.5Q549 261 562 282Q575 303 582 329Z" glyph-name="at.cap" horiz-adv-x="958" unicode="&#58643;" /><glyph d="M312 0Q310 8 308.5 24Q307 40 311 61Q289 28 251.5 7.5Q214 -13 168 -13Q136 -13 108.5 -5Q81 3 60.5 19Q40 35 28 60Q16 85 16 118Q16 167 42.5 199.5Q69 232 115 251.5Q161 271 221 279Q281 287 349 287L354 317Q360 355 344 378.5Q328 402 281 402Q235 402 209 379.5Q183 357 179 328L71 344Q80 380 100.5 407Q121 434 150 452Q179 470 214.5 478.5Q250 487 289 487Q335 487 371 475Q407 463 430 439.5Q453 416 462 382Q471 348 463 304L420 64Q416 41 416.5 28Q417 15 421 0ZM204 71Q226 71 246.5 78.5Q267 86 284 100Q301 114 313 133.5Q325 153 329 176L335 213Q289 213 251 209Q213 205 185.5 195.5Q158 186 143 170Q128 154 128 130Q128 71 204 71ZM250 675Q277 675 295.5 666.5Q314 658 329 648.5Q344 639 357.5 630.5Q371 622 388 622Q403 622 415 629.5Q427 637 435 646Q445 657 451 671L504 622Q491 601 473 585Q457 571 434 559.5Q411 548 379 548Q353 548 334.5 556.5Q316 565 301.5 574.5Q287 584 273.5 592.5Q260 601 243 601Q226 601 213.5 593.5Q201 586 193 577Q183 566 177 553L126 602Q138 622 156 638Q171 652 194.5 663.5Q218 675 250 675Z" glyph-name="atilde" horiz-adv-x="512" unicode="&#227;" /><glyph d="M35 200Q35 264 55 317Q75 370 109 408Q143 446 187.5 466.5Q232 487 281 487Q341 487 377.5 462.5Q414 438 429 405L441 474H550L466 0H358L370 69Q351 38 313 12.5Q275 -13 221 -13Q179 -13 145 2Q111 17 86.5 44.5Q62 72 48.5 111.5Q35 151 35 200ZM398 252Q404 290 398 317.5Q392 345 377 362.5Q362 380 340.5 388.5Q319 397 296 397Q264 397 237.5 382Q211 367 192 340.5Q173 314 162.5 278.5Q152 243 152 202Q152 146 176.5 111.5Q201 77 252 77Q274 77 296.5 85Q319 93 338 110.5Q357 128 371.5 154.5Q386 181 392 218ZM254 675Q281 675 299.5 666.5Q318 658 333 648.5Q348 639 361.5 630.5Q375 622 392 622Q407 622 419 629.5Q431 637 439 646Q449 657 455 671L508 622Q495 601 477 585Q461 571 438 559.5Q415 548 383 548Q357 548 338.5 556.5Q320 565 305.5 574.5Q291 584 277.5 592.5Q264 601 247 601Q230 601 217.5 593.5Q205 586 197 577Q187 566 181 553L130 602Q142 622 160 638Q175 652 198.5 663.5Q222 675 254 675Z" glyph-name="atilde.school" horiz-adv-x="580" unicode="&#57686;" /><glyph d="M497 0H386L363 136H160L88 0H-25L276 564H394ZM315 449Q312 443 306.5 430Q301 417 293 400Q285 383 275.5 363Q266 343 256 324L206 224H349Q341 278 334 324Q331 343 328 363Q325 383 323 400Q321 417 319 430Q317 443 317 449ZM279 748Q306 748 324.5 739.5Q343 731 358 721.5Q373 712 386.5 703.5Q400 695 417 695Q432 695 444 702.5Q456 710 464 719Q474 730 480 744L533 695Q520 674 502 658Q486 644 463 632.5Q440 621 408 621Q382 621 363.5 629.5Q345 638 330.5 647.5Q316 657 302.5 665.5Q289 674 272 674Q255 674 242.5 666.5Q230 659 222 650Q212 639 206 626L155 675Q167 695 185 711Q200 725 223.5 736.5Q247 748 279 748Z" glyph-name="atilde.smcp" horiz-adv-x="556" unicode="&#57893;" /><glyph d="M303 -13Q242 -13 204 12Q166 37 151 71L139 0H30L153 700H267L217 414Q239 443 275.5 465Q312 487 363 487Q405 487 440 472Q475 457 499.5 429Q524 401 538 362Q552 323 552 274Q552 209 531.5 156.5Q511 104 477 66Q443 28 397.5 7.5Q352 -13 303 -13ZM183 224Q176 186 182 158.5Q188 131 203.5 113Q219 95 241 86Q263 77 288 77Q321 77 348 92Q375 107 394.5 133.5Q414 160 425 195.5Q436 231 436 272Q436 328 410 362.5Q384 397 330 397Q308 397 285.5 389Q263 381 244 364.5Q225 348 210.5 321.5Q196 295 189 259Z" glyph-name="b" horiz-adv-x="587" unicode="b" /><glyph d="M138 564H367Q442 564 480.5 524.5Q519 485 519 428Q519 399 509.5 376Q500 353 485 335.5Q470 318 450 307Q430 296 409 291Q427 287 443.5 278.5Q460 270 472.5 255.5Q485 241 493 221Q501 201 501 174Q501 136 484.5 104.5Q468 73 439.5 49.5Q411 26 373 13Q335 0 292 0H39ZM164 90H263Q300 90 323.5 97.5Q347 105 360.5 117Q374 129 379.5 144.5Q385 160 385 177Q385 212 363 227.5Q341 243 287 243H190ZM231 473 206 332H296Q403 332 403 414Q403 446 384.5 459.5Q366 473 324 473Z" glyph-name="b.smcp" horiz-adv-x="556" unicode="&#57858;" /><glyph d="M248 280Q210 280 186.5 295Q163 310 153 332L145 288H66L144 733H226L195 552Q209 570 232.5 584Q256 598 288 598Q342 598 374.5 561.5Q407 525 407 463Q407 422 394 388Q381 354 359 330Q337 306 308 293Q279 280 248 280ZM173 432Q169 409 173 392.5Q177 376 186 365Q195 354 208 348.5Q221 343 236 343Q255 343 271.5 352Q288 361 299.5 377Q311 393 317.5 414.5Q324 436 324 461Q324 494 308.5 514.5Q293 535 261 535Q248 535 234.5 530Q221 525 209 514.5Q197 504 188.5 487.5Q180 471 176 448Z" glyph-name="b.superior" horiz-adv-x="404" unicode="&#58210;" /><glyph d="M242 -115 102 754H191L330 -115Z" glyph-name="backslash" horiz-adv-x="401" unicode="\" /><glyph d="M227 -23 107 723H196L315 -23Z" glyph-name="backslash.cap" horiz-adv-x="402" unicode="&#58466;" /><glyph d="M236 117 180 172 245 237 180 302 236 358 300 292 365 357 421 302 355 237 421 173 365 117 300 182ZM63 474H537V0H63ZM143 73H457V401H143Z" glyph-name="ballotboxwithx" horiz-adv-x="600" unicode="&#9746;" /><glyph d="M185 797H281L111 -169H15Z" glyph-name="bar" horiz-adv-x="270" unicode="|" /><glyph d="M172 723H268L137 -23H40Z" glyph-name="bar.cap" horiz-adv-x="270" unicode="&#58467;" /><glyph d="M788 350Q788 275 759 209Q730 143 680.5 93.5Q631 44 565 15.5Q499 -13 425 -13Q351 -13 285 15.5Q219 44 169.5 93.5Q120 143 91 209Q62 275 62 350Q62 425 91 491Q120 557 169.5 606.5Q219 656 285 684.5Q351 713 425 713Q499 713 565 684.5Q631 656 680.5 606.5Q730 557 759 491Q788 425 788 350Z" glyph-name="blackcircle" horiz-adv-x="850" unicode="&#9679;" /><glyph d="M63 474H537V0H63Z" glyph-name="blacksmallsquare" horiz-adv-x="600" unicode="&#9642;" /><glyph d="M75 700H775V0H75Z" glyph-name="blacksquare" horiz-adv-x="850" unicode="&#9632;" /><glyph d="M273 483Q265 439 252.5 408Q240 377 222.5 356.5Q205 336 183.5 324.5Q162 313 135 308Q160 303 178 292Q196 281 206 261Q216 241 217.5 211Q219 181 212 138L202 81Q196 49 193.5 20.5Q191 -8 197 -30Q203 -52 221 -66.5Q239 -81 274 -85L262 -158Q192 -154 155.5 -132.5Q119 -111 104.5 -73.5Q90 -36 93.5 17Q97 70 108 137Q112 165 114 188.5Q116 212 110.5 229.5Q105 247 89.5 259Q74 271 44 277L57 348Q87 352 106.5 363.5Q126 375 138.5 392.5Q151 410 157.5 433Q164 456 169 484L173 506Q184 568 198 618Q212 668 238.5 703.5Q265 739 309.5 758.5Q354 778 426 779L412 703Q376 701 353.5 687Q331 673 317 650.5Q303 628 295.5 599.5Q288 571 283 540Z" glyph-name="braceleft" horiz-adv-x="350" unicode="{" /><glyph d="M280 525Q272 481 259.5 450Q247 419 229.5 398.5Q212 378 190.5 366.5Q169 355 142 350Q167 345 185 334Q203 323 213 303Q223 283 224.5 253Q226 223 219 180L209 123Q203 91 200.5 62.5Q198 34 204 12Q210 -10 228 -24.5Q246 -39 281 -43L269 -116Q199 -112 162.5 -90.5Q126 -69 111.5 -31.5Q97 6 100.5 59Q104 112 115 179Q119 207 121 230.5Q123 254 117.5 271.5Q112 289 96.5 301Q81 313 51 319L64 390Q94 394 113.5 405.5Q133 417 145.5 434.5Q158 452 164.5 475Q171 498 176 526L180 548Q191 610 205 660Q219 710 245.5 745.5Q272 781 316.5 800.5Q361 820 433 821L419 745Q383 743 360.5 729Q338 715 324 692.5Q310 670 302.5 641.5Q295 613 290 582Z" glyph-name="braceleft.cap" horiz-adv-x="350" unicode="&#58517;" /><glyph d="M103 138Q118 223 152 261Q186 299 240 308Q216 314 198 325.5Q180 337 170 357.5Q160 378 158 408.5Q156 439 164 483L174 540Q180 572 183 600.5Q186 629 180 650.5Q174 672 156 686Q138 700 101 703L114 779Q187 776 224 752.5Q261 729 274.5 691Q288 653 284 604Q280 555 271 501L268 484Q263 455 261.5 430.5Q260 406 266 387Q272 368 287 355.5Q302 343 331 339L318 268Q289 263 270 253Q251 243 238.5 226.5Q226 210 219 187.5Q212 165 207 137L204 120Q193 57 180.5 5Q168 -47 142.5 -83.5Q117 -120 72 -140Q27 -160 -50 -158L-37 -85Q0 -82 23 -67.5Q46 -53 60 -30.5Q74 -8 81 20.5Q88 49 93 81Z" glyph-name="braceright" horiz-adv-x="350" unicode="}" /><glyph d="M111 180Q126 265 160 303Q194 341 248 350Q224 356 206 367.5Q188 379 178 399.5Q168 420 166 450.5Q164 481 172 525L182 582Q188 614 191 642.5Q194 671 188 692.5Q182 714 164 728Q146 742 109 745L122 821Q195 818 232 794.5Q269 771 282.5 733Q296 695 292 646Q288 597 279 543L276 526Q271 497 269.5 472.5Q268 448 274 429Q280 410 295 397.5Q310 385 339 381L326 310Q297 305 278 295Q259 285 246.5 268.5Q234 252 227 229.5Q220 207 215 179L212 162Q201 99 188.5 47Q176 -5 150.5 -41.5Q125 -78 80 -98Q35 -118 -42 -116L-29 -43Q8 -40 31 -25.5Q54 -11 68 11.5Q82 34 89 62.5Q96 91 101 123Z" glyph-name="braceright.cap" horiz-adv-x="350" unicode="&#58518;" /><glyph d="M172 762H386L372 682H261L129 -67H240L226 -147H12Z" glyph-name="bracketleft" horiz-adv-x="324" unicode="[" /><glyph d="M180 805H394L380 725H269L137 -24H248L234 -104H20Z" glyph-name="bracketleft.cap" horiz-adv-x="324" unicode="&#58515;" /><glyph d="M-38 -147 -24 -67H87L220 682H109L122 762H336L176 -147Z" glyph-name="bracketright" horiz-adv-x="324" unicode="]" /><glyph d="M-30 -104 -16 -24H95L228 725H117L130 805H344L184 -104Z" glyph-name="bracketright.cap" horiz-adv-x="324" unicode="&#58516;" /><glyph d="M297 688Q297 659 315.5 638.5Q334 618 366 618Q398 618 422.5 638.5Q447 659 455 688L539 664Q521 613 474.5 579Q428 545 362 545Q297 545 256.5 578.5Q216 612 213 664Z" glyph-name="breve" horiz-adv-x="600" unicode="&#728;" /><glyph d="M334 901Q334 872 352.5 851.5Q371 831 403 831Q435 831 459.5 851.5Q484 872 492 901L576 877Q558 826 511.5 792Q465 758 399 758Q334 758 293.5 791Q253 824 250 877Z" glyph-name="breve.cap" horiz-adv-x="600" unicode="&#58406;" /><glyph d="M83 216H180L112 -169H15ZM185 797H282L214 412H117Z" glyph-name="brokenbar" horiz-adv-x="270" unicode="&#166;" /><glyph d="M89 254H186L137 -23H40ZM172 723H269L220 450H124Z" glyph-name="brokenbar.cap" horiz-adv-x="270" unicode="&#58469;" /><glyph d="M72 326Q72 353 81.5 375.5Q91 398 108 414.5Q125 431 148.5 440.5Q172 450 200 450Q228 450 251 440.5Q274 431 291 414.5Q308 398 317.5 375.5Q327 353 327 326Q327 273 291.5 238.5Q256 204 200 204Q143 204 107.5 238.5Q72 273 72 326Z" glyph-name="bullet" horiz-adv-x="369" unicode="&#8226;" /><glyph d="M77 356Q77 383 86.5 405.5Q96 428 113 444.5Q130 461 153.5 470.5Q177 480 205 480Q233 480 256 470.5Q279 461 296 444.5Q313 428 322.5 405.5Q332 383 332 356Q332 302 296.5 267.5Q261 233 205 233Q148 233 112.5 267.5Q77 302 77 356Z" glyph-name="bullet.cap" horiz-adv-x="369" unicode="&#58470;" /><glyph d="M35 202Q35 256 52.5 307.5Q70 359 104 398.5Q138 438 186.5 462.5Q235 487 297 487Q343 487 377.5 476Q412 465 436 446Q460 427 474.5 401Q489 375 495 345L388 317Q383 357 359 377.5Q335 398 293 398Q258 398 231.5 380.5Q205 363 187.5 334.5Q170 306 161 271Q152 236 152 202Q152 176 157.5 153.5Q163 131 175.5 114Q188 97 207 87Q226 77 253 77Q295 77 318.5 97.5Q342 118 358 153L459 114Q429 59 379 23Q329 -13 250 -13Q201 -13 161.5 1.5Q122 16 94 44Q66 72 50.5 112Q35 152 35 202Z" glyph-name="c" horiz-adv-x="509" unicode="c" /><glyph d="M57 238Q57 310 78 371.5Q99 433 138 478.5Q177 524 232.5 550Q288 576 357 576Q451 576 510.5 536Q570 496 587 421L476 384Q468 430 439.5 456.5Q411 483 354 483Q313 483 280 464Q247 445 223.5 412Q200 379 187 334.5Q174 290 174 239Q174 207 182 178.5Q190 150 206.5 128Q223 106 247.5 93Q272 80 306 80Q351 80 382 104.5Q413 129 436 176L541 138Q508 68 448.5 27.5Q389 -13 305 -13Q188 -13 122.5 53Q57 119 57 238Z" glyph-name="c.smcp" horiz-adv-x="585" unicode="&#57859;" /><glyph d="M67 417Q67 452 79 484.5Q91 517 113 542.5Q135 568 166.5 583Q198 598 237 598Q297 598 327.5 571.5Q358 545 366 506L289 485Q287 511 272.5 523Q258 535 235 535Q214 535 198 524Q182 513 171.5 496Q161 479 156 458Q151 437 151 416Q151 386 164.5 364.5Q178 343 210 343Q233 343 247 355.5Q261 368 271 389L344 361Q324 325 291.5 302.5Q259 280 208 280Q147 280 107 314.5Q67 349 67 417Z" glyph-name="c.superior" horiz-adv-x="348" unicode="&#58211;" /><glyph d="M448 638 232 533 205 597 411 724ZM35 202Q35 256 52.5 307.5Q70 359 104 398.5Q138 438 186.5 462.5Q235 487 297 487Q343 487 377.5 476Q412 465 436 446Q460 427 474.5 401Q489 375 495 345L388 317Q383 357 359 377.5Q335 398 293 398Q258 398 231.5 380.5Q205 363 187.5 334.5Q170 306 161 271Q152 236 152 202Q152 176 157.5 153.5Q163 131 175.5 114Q188 97 207 87Q226 77 253 77Q295 77 318.5 97.5Q342 118 358 153L459 114Q429 59 379 23Q329 -13 250 -13Q201 -13 161.5 1.5Q122 16 94 44Q66 72 50.5 112Q35 152 35 202Z" glyph-name="cacute" horiz-adv-x="509" unicode="&#263;" /><glyph d="M509 715 293 610 266 674 472 801ZM57 238Q57 310 78 371.5Q99 433 138 478.5Q177 524 232.5 550Q288 576 357 576Q451 576 510.5 536Q570 496 587 421L476 384Q468 430 439.5 456.5Q411 483 354 483Q313 483 280 464Q247 445 223.5 412Q200 379 187 334.5Q174 290 174 239Q174 207 182 178.5Q190 150 206.5 128Q223 106 247.5 93Q272 80 306 80Q351 80 382 104.5Q413 129 436 176L541 138Q508 68 448.5 27.5Q389 -13 305 -13Q188 -13 122.5 53Q57 119 57 238Z" glyph-name="cacute.smcp" horiz-adv-x="585" unicode="&#57908;" /><glyph d="M390 534H316L222 665L281 711L359 606L477 712L527 660Z" glyph-name="caron" horiz-adv-x="600" unicode="&#711;" /><glyph d="M431 751H347L255 870L314 917L395 817L517 919L567 865Z" glyph-name="caron.cap" horiz-adv-x="600" unicode="&#58413;" /><glyph d="M437 700 343 528 281 548 354 727Z" glyph-name="caronSlovak" horiz-adv-x="600" unicode="&#58387;" /><glyph d="M349 534H275L181 665L240 711L318 606L436 712L486 660ZM35 202Q35 256 52.5 307.5Q70 359 104 398.5Q138 438 186.5 462.5Q235 487 297 487Q343 487 377.5 476Q412 465 436 446Q460 427 474.5 401Q489 375 495 345L388 317Q383 357 359 377.5Q335 398 293 398Q258 398 231.5 380.5Q205 363 187.5 334.5Q170 306 161 271Q152 236 152 202Q152 176 157.5 153.5Q163 131 175.5 114Q188 97 207 87Q226 77 253 77Q295 77 318.5 97.5Q342 118 358 153L459 114Q429 59 379 23Q329 -13 250 -13Q201 -13 161.5 1.5Q122 16 94 44Q66 72 50.5 112Q35 152 35 202Z" glyph-name="ccaron" horiz-adv-x="509" unicode="&#269;" /><glyph d="M412 612H338L244 743L303 789L381 684L499 790L549 738ZM57 238Q57 310 78 371.5Q99 433 138 478.5Q177 524 232.5 550Q288 576 357 576Q451 576 510.5 536Q570 496 587 421L476 384Q468 430 439.5 456.5Q411 483 354 483Q313 483 280 464Q247 445 223.5 412Q200 379 187 334.5Q174 290 174 239Q174 207 182 178.5Q190 150 206.5 128Q223 106 247.5 93Q272 80 306 80Q351 80 382 104.5Q413 129 436 176L541 138Q508 68 448.5 27.5Q389 -13 305 -13Q188 -13 122.5 53Q57 119 57 238Z" glyph-name="ccaron.smcp" horiz-adv-x="585" unicode="&#57910;" /><glyph d="M139 -154Q145 -162 158 -168Q171 -174 189 -174Q210 -174 222.5 -162Q235 -150 235 -130Q235 -114 225.5 -106Q216 -98 200 -98Q186 -98 176 -102Q166 -106 159 -112L133 -80L178 -4Q111 14 73 67.5Q35 121 35 202Q35 256 52.5 307.5Q70 359 104 398.5Q138 438 186.5 462.5Q235 487 297 487Q343 487 377.5 476Q412 465 436 446Q460 427 474.5 401Q489 375 495 345L388 317Q383 357 359 377.5Q335 398 293 398Q258 398 231.5 380.5Q205 363 187.5 334.5Q170 306 161 271Q152 236 152 202Q152 176 157.5 153.5Q163 131 175.5 114Q188 97 207 87Q226 77 253 77Q295 77 318.5 97.5Q342 118 358 153L459 114Q429 59 379 23Q329 -13 250 -13Q245 -13 240 -13Q235 -13 230 -12L206 -54Q218 -47 233 -47Q263 -47 284 -67.5Q305 -88 305 -125Q305 -150 295.5 -169.5Q286 -189 270 -202.5Q254 -216 232 -223Q210 -230 186 -230Q151 -230 130.5 -219Q110 -208 101 -199Z" glyph-name="ccedilla" horiz-adv-x="509" unicode="&#231;" /><glyph d="M198 -154Q204 -162 217 -168Q230 -174 248 -174Q269 -174 281.5 -162Q294 -150 294 -130Q294 -114 284.5 -106Q275 -98 259 -98Q245 -98 235 -102Q225 -106 218 -112L192 -80L236 -6Q151 12 104 75Q57 138 57 238Q57 310 78 371.5Q99 433 138 478.5Q177 524 232.5 550Q288 576 357 576Q451 576 510.5 536Q570 496 587 421L476 384Q468 430 439.5 456.5Q411 483 354 483Q313 483 280 464Q247 445 223.5 412Q200 379 187 334.5Q174 290 174 239Q174 207 182 178.5Q190 150 206.5 128Q223 106 247.5 93Q272 80 306 80Q351 80 382 104.5Q413 129 436 176L541 138Q508 68 448.5 27.5Q389 -13 305 -13H288L265 -54Q277 -47 292 -47Q322 -47 343 -67.5Q364 -88 364 -125Q364 -150 354.5 -169.5Q345 -189 329 -202.5Q313 -216 291 -223Q269 -230 245 -230Q210 -230 189.5 -219Q169 -208 160 -199Z" glyph-name="ccedilla.smcp" horiz-adv-x="585" unicode="&#57912;" /><glyph d="M301 706H375L472 575L413 529L332 634L214 528L164 580ZM35 202Q35 256 52.5 307.5Q70 359 104 398.5Q138 438 186.5 462.5Q235 487 297 487Q343 487 377.5 476Q412 465 436 446Q460 427 474.5 401Q489 375 495 345L388 317Q383 357 359 377.5Q335 398 293 398Q258 398 231.5 380.5Q205 363 187.5 334.5Q170 306 161 271Q152 236 152 202Q152 176 157.5 153.5Q163 131 175.5 114Q188 97 207 87Q226 77 253 77Q295 77 318.5 97.5Q342 118 358 153L459 114Q429 59 379 23Q329 -13 250 -13Q201 -13 161.5 1.5Q122 16 94 44Q66 72 50.5 112Q35 152 35 202Z" glyph-name="ccircumflex" horiz-adv-x="509" unicode="&#265;" /><glyph d="M362 786H436L533 655L474 609L393 714L275 608L225 660ZM57 238Q57 310 78 371.5Q99 433 138 478.5Q177 524 232.5 550Q288 576 357 576Q451 576 510.5 536Q570 496 587 421L476 384Q468 430 439.5 456.5Q411 483 354 483Q313 483 280 464Q247 445 223.5 412Q200 379 187 334.5Q174 290 174 239Q174 207 182 178.5Q190 150 206.5 128Q223 106 247.5 93Q272 80 306 80Q351 80 382 104.5Q413 129 436 176L541 138Q508 68 448.5 27.5Q389 -13 305 -13Q188 -13 122.5 53Q57 119 57 238Z" glyph-name="ccircumflex.smcp" horiz-adv-x="585" unicode="&#57909;" /><glyph d="M35 202Q35 256 52.5 307.5Q70 359 104 398.5Q138 438 186.5 462.5Q235 487 297 487Q343 487 377.5 476Q412 465 436 446Q460 427 474.5 401Q489 375 495 345L388 317Q383 357 359 377.5Q335 398 293 398Q258 398 231.5 380.5Q205 363 187.5 334.5Q170 306 161 271Q152 236 152 202Q152 176 157.5 153.5Q163 131 175.5 114Q188 97 207 87Q226 77 253 77Q295 77 318.5 97.5Q342 118 358 153L459 114Q429 59 379 23Q329 -13 250 -13Q201 -13 161.5 1.5Q122 16 94 44Q66 72 50.5 112Q35 152 35 202ZM260 613Q260 644 279.5 663Q299 682 331 682Q363 682 382.5 663Q402 644 402 613Q402 584 382.5 564Q363 544 331 544Q299 544 279.5 564Q260 584 260 613Z" glyph-name="cdotaccent" horiz-adv-x="509" unicode="&#267;" /><glyph d="M57 238Q57 310 78 371.5Q99 433 138 478.5Q177 524 232.5 550Q288 576 357 576Q451 576 510.5 536Q570 496 587 421L476 384Q468 430 439.5 456.5Q411 483 354 483Q313 483 280 464Q247 445 223.5 412Q200 379 187 334.5Q174 290 174 239Q174 207 182 178.5Q190 150 206.5 128Q223 106 247.5 93Q272 80 306 80Q351 80 382 104.5Q413 129 436 176L541 138Q508 68 448.5 27.5Q389 -13 305 -13Q188 -13 122.5 53Q57 119 57 238ZM316 689Q316 720 335.5 739Q355 758 387 758Q419 758 438.5 739Q458 720 458 689Q458 660 438.5 640Q419 620 387 620Q355 620 335.5 640Q316 660 316 689Z" glyph-name="cdotaccent.smcp" horiz-adv-x="585" unicode="&#57911;" /><glyph d="M165 -154Q171 -162 184 -168Q197 -174 215 -174Q236 -174 248.5 -162Q261 -150 261 -130Q261 -114 251.5 -106Q242 -98 226 -98Q212 -98 202 -102Q192 -106 185 -112L159 -80L207 0H263L232 -54Q244 -47 259 -47Q289 -47 310 -67.5Q331 -88 331 -125Q331 -150 321.5 -169.5Q312 -189 296 -202.5Q280 -216 258 -223Q236 -230 212 -230Q177 -230 156.5 -219Q136 -208 127 -199Z" glyph-name="cedilla" horiz-adv-x="600" unicode="&#184;" /><glyph d="M60 309Q60 362 76 411.5Q92 461 123 500.5Q154 540 200 565Q246 590 305 593L322 690H390L372 590Q435 579 473.5 542.5Q512 506 523 449L423 427Q418 489 357 505L301 182Q334 189 355 209.5Q376 230 389 259L482 220Q455 167 404.5 133Q354 99 285 95L269 0H201L218 100Q142 115 101 170.5Q60 226 60 309ZM167 309Q167 267 182 233Q197 199 233 186L290 506Q257 499 233.5 478Q210 457 195 429Q180 401 173.5 369Q167 337 167 309Z" glyph-name="cent" horiz-adv-x="518" unicode="&#162;" /><glyph d="M343 706H417L514 575L455 529L374 634L256 528L206 580Z" glyph-name="circumflex" horiz-adv-x="600" unicode="&#710;" /><glyph d="M555 794 496 746 415 846 293 745 243 799 379 912H463Z" glyph-name="circumflex.cap" horiz-adv-x="600" unicode="&#58403;" /><glyph d="M106 136Q139 136 160 116Q181 96 181 64Q181 32 160 12Q139 -8 106 -8Q72 -8 51.5 12Q31 32 31 64Q31 96 51.5 116Q72 136 106 136ZM167 482Q200 482 221 462Q242 442 242 410Q242 378 221 358Q200 338 167 338Q134 338 113 358Q92 378 92 410Q92 442 113 462Q134 482 167 482Z" glyph-name="colon" horiz-adv-x="273" unicode=":" /><glyph d="M186 39Q186 13 177 -14Q168 -41 149.5 -64Q131 -87 101.5 -102.5Q72 -118 31 -119L19 -68Q33 -69 48 -64.5Q63 -60 76 -51.5Q89 -43 97.5 -30.5Q106 -18 108 -3Q106 -3 101.5 -3.5Q97 -4 92 -4Q66 -4 48.5 14Q31 32 31 61Q31 74 36 87.5Q41 101 51 111.5Q61 122 75.5 129Q90 136 108 136Q150 136 168 108Q186 80 186 39Z" glyph-name="comma" horiz-adv-x="278" unicode="," /><glyph d="M309 -134Q309 -152 302.5 -173Q296 -194 281 -212.5Q266 -231 240.5 -244.5Q215 -258 178 -259L168 -217Q180 -217 193 -214Q206 -211 216.5 -204.5Q227 -198 234.5 -189Q242 -180 243 -169Q238 -172 229 -172Q209 -171 193.5 -157.5Q178 -144 178 -118Q178 -95 194.5 -74Q211 -53 244 -53Q279 -53 294 -78Q309 -103 309 -134Z" glyph-name="commaaccent" horiz-adv-x="600" unicode="&#58388;" /><glyph d="M245 351Q245 397 258.5 434Q272 471 296.5 497Q321 523 356 537Q391 551 433 551Q493 551 532.5 523.5Q572 496 592 445L520 420Q509 450 488 468.5Q467 487 432 487Q382 487 353.5 449.5Q325 412 325 352Q325 292 353 254.5Q381 217 432 217Q466 217 487.5 234.5Q509 252 520 283L591 257Q571 208 532 180Q493 152 432 152Q390 152 355.5 166Q321 180 296.5 206Q272 232 258.5 269Q245 306 245 351ZM428 56Q488 56 540.5 78Q593 100 632 139Q671 178 693.5 232Q716 286 716 351Q716 415 693.5 468.5Q671 522 632 561Q593 600 540.5 622Q488 644 428 644Q369 644 316.5 622Q264 600 225 561Q186 522 163 468.5Q140 415 140 351Q140 286 163 232Q186 178 225 139Q264 100 316.5 78Q369 56 428 56ZM428 -13Q352 -13 285.5 14Q219 41 169.5 89.5Q120 138 91.5 204.5Q63 271 63 351Q63 430 91.5 496.5Q120 563 169.5 611Q219 659 285.5 686Q352 713 428 713Q504 713 570.5 686Q637 659 686.5 611Q736 563 764.5 496.5Q793 430 793 351Q793 271 764.5 204.5Q736 138 686.5 89.5Q637 41 570.5 14Q504 -13 428 -13Z" glyph-name="copyright" horiz-adv-x="817" unicode="&#169;" /><glyph d="M157 626 217 553Q279 590 348 590Q425 590 485 547L563 619L626 549L543 480Q571 432 571 370Q571 322 555 281.5Q539 241 512 209L574 141L502 78L442 150Q411 131 377 121.5Q343 112 309 112Q230 112 172 155L94 84L33 153L114 221Q86 271 86 333Q86 381 102.5 422Q119 463 147 495L84 562ZM476 366Q476 395 466 419Q456 443 438 460.5Q420 478 395.5 488Q371 498 342 498Q310 498 281.5 485Q253 472 230.5 450Q208 428 195 398.5Q182 369 182 336Q182 307 192 283Q202 259 219.5 241.5Q237 224 261.5 214Q286 204 315 204Q346 204 375.5 217Q405 230 427 252.5Q449 275 462.5 304Q476 333 476 366Z" glyph-name="currency" horiz-adv-x="618" unicode="&#164;" /><glyph d="M365 0 377 69Q357 38 318.5 12.5Q280 -13 225 -13Q182 -13 147 2Q112 17 87 44.5Q62 72 48.5 111.5Q35 151 35 200Q35 264 55.5 317Q76 370 110 408Q144 446 189 466.5Q234 487 284 487Q343 487 380 464.5Q417 442 433 412L484 700H597L474 0ZM405 251Q412 291 405 318.5Q398 346 382.5 363.5Q367 381 345 389Q323 397 299 397Q266 397 239 382Q212 367 192.5 340.5Q173 314 162 278.5Q151 243 151 202Q151 146 177 111.5Q203 77 257 77Q279 77 301.5 85Q324 93 343 109.5Q362 126 377 152.5Q392 179 399 217Z" glyph-name="d" horiz-adv-x="588" unicode="d" /><glyph d="M138 564H340Q394 564 437.5 547.5Q481 531 512 501Q543 471 559.5 428Q576 385 576 333Q576 254 553 192Q530 130 487.5 87.5Q445 45 384.5 22.5Q324 0 249 0H39ZM458 332Q458 398 423 434.5Q388 471 318 471H234L168 93H259Q308 93 345 111Q382 129 407 160.5Q432 192 445 236Q458 280 458 332Z" glyph-name="d.smcp" horiz-adv-x="618" unicode="&#57860;" /><glyph d="M227 598Q263 598 286.5 584Q310 570 320 550L352 733H434L355 288H277L284 332Q271 312 246.5 296Q222 280 187 280Q133 280 100 316Q67 352 67 414Q67 456 80 490Q93 524 115.5 548Q138 572 166.5 585Q195 598 227 598ZM302 446Q310 493 289 514Q268 535 238 535Q219 535 203 526Q187 517 175.5 501Q164 485 157.5 463Q151 441 151 416Q151 384 166 363.5Q181 343 213 343Q240 343 265 363Q290 383 298 429Z" glyph-name="d.superior" horiz-adv-x="404" unicode="&#58212;" /><glyph d="M71 481H234L272 700H381L342 481H505L488 386H325L236 -122H127L217 386H54Z" glyph-name="dagger" horiz-adv-x="490" unicode="&#8224;" /><glyph d="M21 200H184L219 397H56L73 492H236L272 700H381L344 492H507L490 397H327L293 200H456L439 105H276L236 -122H127L167 105H4Z" glyph-name="daggerdbl" horiz-adv-x="490" unicode="&#8225;" /><glyph d="M777 704 683 532 621 552 694 731ZM365 0 377 69Q357 38 318.5 12.5Q280 -13 225 -13Q182 -13 147 2Q112 17 87 44.5Q62 72 48.5 111.5Q35 151 35 200Q35 264 55.5 317Q76 370 110 408Q144 446 189 466.5Q234 487 284 487Q343 487 380 464.5Q417 442 433 412L484 700H597L474 0ZM405 251Q412 291 405 318.5Q398 346 382.5 363.5Q367 381 345 389Q323 397 299 397Q266 397 239 382Q212 367 192.5 340.5Q173 314 162 278.5Q151 243 151 202Q151 146 177 111.5Q203 77 257 77Q279 77 301.5 85Q324 93 343 109.5Q362 126 377 152.5Q392 179 399 217Z" glyph-name="dcaron" horiz-adv-x="588" unicode="&#271;" /><glyph d="M382 612H308L214 743L273 789L351 684L469 790L519 738ZM138 564H340Q394 564 437.5 547.5Q481 531 512 501Q543 471 559.5 428Q576 385 576 333Q576 254 553 192Q530 130 487.5 87.5Q445 45 384.5 22.5Q324 0 249 0H39ZM458 332Q458 398 423 434.5Q388 471 318 471H234L168 93H259Q308 93 345 111Q382 129 407 160.5Q432 192 445 236Q458 280 458 332Z" glyph-name="dcaron.smcp" horiz-adv-x="618" unicode="&#57913;" /><glyph d="M365 0 377 69Q357 38 318.5 12.5Q280 -13 225 -13Q182 -13 147 2Q112 17 87 44.5Q62 72 48.5 111.5Q35 151 35 200Q35 264 55.5 317Q76 370 110 408Q144 446 189 466.5Q234 487 284 487Q343 487 380 464.5Q417 442 433 412L456 546H304L319 628H471L484 700H597L584 628H645L630 546H570L474 0ZM405 251Q412 291 405 318.5Q398 346 382.5 363.5Q367 381 345 389Q323 397 299 397Q266 397 239 382Q212 367 192.5 340.5Q173 314 162 278.5Q151 243 151 202Q151 146 177 111.5Q203 77 257 77Q279 77 301.5 85Q324 93 343 109.5Q362 126 377 152.5Q392 179 399 217Z" glyph-name="dcroat" horiz-adv-x="588" unicode="&#273;" /><glyph d="M97 252H35L49 331H111L152 564H354Q408 564 451.5 547.5Q495 531 526 501Q557 471 573.5 428Q590 385 590 333Q590 254 567 192Q544 130 501.5 87.5Q459 45 398.5 22.5Q338 0 263 0H53ZM472 332Q472 398 437 434.5Q402 471 332 471H248L223 331H345L331 252H210L182 93H273Q322 93 359 111Q396 129 421 160.5Q446 192 459 236Q472 280 472 332Z" glyph-name="dcroat.smcp" horiz-adv-x="632" unicode="&#57916;" /><glyph d="M97 545Q97 582 110.5 612.5Q124 643 147 665.5Q170 688 200.5 700.5Q231 713 266 713Q338 713 379 671.5Q420 630 420 566Q420 531 407 500Q394 469 371 446Q348 423 317.5 410Q287 397 252 397Q179 397 138 439Q97 481 97 545ZM265 641Q227 641 203 614Q179 587 179 547Q179 514 199 491.5Q219 469 254 469Q289 469 313.5 495Q338 521 338 563Q338 596 319 618.5Q300 641 265 641Z" glyph-name="degree" horiz-adv-x="405" unicode="&#176;" /><glyph d="M198 607Q198 635 216 652.5Q234 670 263 670Q292 670 310 652.5Q328 635 328 607Q328 581 310 562.5Q292 544 263 544Q234 544 216 562.5Q198 581 198 607ZM402 607Q402 635 420 652.5Q438 670 467 670Q496 670 514 652.5Q532 635 532 607Q532 581 514 562.5Q496 544 467 544Q438 544 420 562.5Q402 581 402 607Z" glyph-name="dieresis" horiz-adv-x="600" unicode="&#168;" /><glyph d="M238 830Q238 857 256 875Q274 893 303 893Q331 893 349 875Q367 857 367 830Q367 803 349 785Q331 767 303 767Q274 767 256 785Q238 803 238 830ZM442 830Q442 857 459.5 875Q477 893 506 893Q535 893 553 875Q571 857 571 830Q571 803 553 785Q535 767 506 767Q477 767 459.5 785Q442 803 442 830Z" glyph-name="dieresis.cap" horiz-adv-x="600" unicode="&#58409;" /><glyph d="M75 370H571L555 279H59ZM348 587Q380 587 400.5 567.5Q421 548 421 517Q421 486 400.5 466.5Q380 447 348 447Q316 447 296 466.5Q276 486 276 517Q276 548 296 567.5Q316 587 348 587ZM284 201Q316 201 336 181.5Q356 162 356 131Q356 100 336 80.5Q316 61 284 61Q252 61 232 80.5Q212 100 212 131Q212 162 232 181.5Q252 201 284 201Z" glyph-name="divide" horiz-adv-x="600" unicode="&#247;" /><glyph d="M81 406H627L611 315H65ZM379 623Q411 623 431.5 603Q452 583 452 552Q452 522 431.5 502.5Q411 483 379 483Q347 483 327 502.5Q307 522 307 552Q307 583 327 603Q347 623 379 623ZM312 236Q344 236 364 216.5Q384 197 384 167Q384 136 364 116Q344 96 312 96Q280 96 260 116Q240 136 240 167Q240 197 260 216.5Q280 236 312 236Z" glyph-name="divide.cap" horiz-adv-x="650" unicode="&#58772;" /><glyph d="M415 692Q493 678 539 632.5Q585 587 593 519L493 496Q490 533 469 564Q448 595 400 607L362 390Q454 359 498.5 317Q543 275 543 204Q543 158 526 119Q509 80 476.5 51.5Q444 23 397.5 6.5Q351 -10 291 -11L275 -105H206L223 -6Q132 9 85 62.5Q38 116 37 190L134 205Q134 193 137 174Q140 155 151.5 136Q163 117 183.5 101Q204 85 238 78L280 315Q233 331 200 349Q167 367 146 389.5Q125 412 115.5 439.5Q106 467 106 502Q106 544 121 579.5Q136 615 166.5 641.5Q197 668 242 683Q287 698 347 698L365 798H434ZM437 197Q437 232 415.5 253.5Q394 275 345 293L306 75Q366 80 401.5 112.5Q437 145 437 197ZM210 511Q210 476 230.5 452.5Q251 429 297 411L332 613Q295 611 271.5 601Q248 591 234.5 576Q221 561 215.5 543.5Q210 526 210 511Z" glyph-name="dollar" horiz-adv-x="599" unicode="$" /><glyph d="M295 613Q295 644 314.5 663Q334 682 366 682Q398 682 417.5 663Q437 644 437 613Q437 584 417.5 564Q398 544 366 544Q334 544 314.5 564Q295 584 295 613Z" glyph-name="dotaccent" horiz-adv-x="600" unicode="&#729;" /><glyph d="M333 832Q333 863 352.5 882.5Q372 902 404 902Q436 902 456 882.5Q476 863 476 832Q476 802 456 783Q436 764 404 764Q372 764 352.5 783Q333 802 333 832Z" glyph-name="dotaccent.cap" horiz-adv-x="600" unicode="&#58408;" /><glyph d="M114 474H227L144 0H30Z" glyph-name="dotlessi" horiz-adv-x="258" unicode="&#305;" /><glyph d="M116 474H230L137 -55Q130 -97 113.5 -126.5Q97 -156 73.5 -175.5Q50 -195 20 -204Q-10 -213 -43 -213Q-82 -213 -113 -202.5Q-144 -192 -164 -175L-107 -94Q-97 -103 -82 -111Q-67 -119 -47 -119Q-18 -119 0.5 -100Q19 -81 24 -49Z" glyph-name="dotlessj" horiz-adv-x="261" unicode="&#567;" /><glyph d="M185 797H281L111 -169H15ZM358 797H455L285 -169H188Z" glyph-name="doublebar" horiz-adv-x="444" unicode="&#8214;" /><glyph d="M172 723H268L137 -23H40ZM345 723H442L311 -23H214Z" glyph-name="doublebar.cap" horiz-adv-x="444" unicode="&#58468;" /><glyph d="M457 102Q425 48 372.5 17.5Q320 -13 248 -13Q149 -13 92 41.5Q35 96 35 196Q35 258 54.5 311Q74 364 108.5 403Q143 442 190.5 464.5Q238 487 294 487Q355 487 397 466.5Q439 446 463 412Q487 378 493.5 333Q500 288 492 240Q491 235 490 230.5Q489 226 488 221Q487 216 486 211H148Q145 184 148 159Q151 134 163 114.5Q175 95 196 83.5Q217 72 250 72Q294 72 319.5 92Q345 112 364 142ZM292 404Q240 404 207.5 371Q175 338 161 286H385Q393 343 367.5 373.5Q342 404 292 404Z" glyph-name="e" horiz-adv-x="524" unicode="e" /><glyph d="M39 0 138 564H513L497 471H233L210 336H455L439 244H194L167 93H435L419 0Z" glyph-name="e.smcp" horiz-adv-x="506" unicode="&#57861;" /><glyph d="M344 351Q324 317 290 298.5Q256 280 208 280Q145 280 106 314Q67 348 67 415Q67 453 79.5 486.5Q92 520 114.5 544.5Q137 569 168 583.5Q199 598 236 598Q276 598 303.5 584.5Q331 571 346.5 548.5Q362 526 367 497.5Q372 469 366 438Q365 436 365 432.5Q365 429 364 426Q363 422 362 419H148Q146 404 148.5 389.5Q151 375 158 364Q165 353 177.5 346.5Q190 340 209 340Q236 340 251.5 351.5Q267 363 278 380ZM235 540Q203 540 184 520.5Q165 501 157 470H290Q295 504 279.5 522Q264 540 235 540Z" glyph-name="e.superior" horiz-adv-x="361" unicode="&#58213;" /><glyph d="M446 638 230 533 203 597 409 724ZM457 102Q425 48 372.5 17.5Q320 -13 248 -13Q149 -13 92 41.5Q35 96 35 196Q35 258 54.5 311Q74 364 108.5 403Q143 442 190.5 464.5Q238 487 294 487Q355 487 397 466.5Q439 446 463 412Q487 378 493.5 333Q500 288 492 240Q491 235 490 230.5Q489 226 488 221Q487 216 486 211H148Q145 184 148 159Q151 134 163 114.5Q175 95 196 83.5Q217 72 250 72Q294 72 319.5 92Q345 112 364 142ZM292 404Q240 404 207.5 371Q175 338 161 286H385Q393 343 367.5 373.5Q342 404 292 404Z" glyph-name="eacute" horiz-adv-x="524" unicode="&#233;" /><glyph d="M484 715 268 610 241 674 447 801ZM39 0 138 564H513L497 471H233L210 336H455L439 244H194L167 93H435L419 0Z" glyph-name="eacute.smcp" horiz-adv-x="506" unicode="&#57917;" /><glyph d="M457 102Q425 48 372.5 17.5Q320 -13 248 -13Q149 -13 92 41.5Q35 96 35 196Q35 258 54.5 311Q74 364 108.5 403Q143 442 190.5 464.5Q238 487 294 487Q355 487 397 466.5Q439 446 463 412Q487 378 493.5 333Q500 288 492 240Q491 235 490 230.5Q489 226 488 221Q487 216 486 211H148Q145 184 148 159Q151 134 163 114.5Q175 95 196 83.5Q217 72 250 72Q294 72 319.5 92Q345 112 364 142ZM292 404Q240 404 207.5 371Q175 338 161 286H385Q393 343 367.5 373.5Q342 404 292 404ZM250 688Q250 659 268.5 638.5Q287 618 319 618Q351 618 375.5 638.5Q400 659 408 688L492 664Q474 613 427.5 579Q381 545 315 545Q250 545 209.5 578.5Q169 612 166 664Z" glyph-name="ebreve" horiz-adv-x="524" unicode="&#277;" /><glyph d="M39 0 138 564H513L497 471H233L210 336H455L439 244H194L167 93H435L419 0ZM268 760Q268 731 286.5 710.5Q305 690 337 690Q369 690 393.5 710.5Q418 731 426 760L510 736Q492 685 445.5 651Q399 617 333 617Q268 617 227.5 650.5Q187 684 184 736Z" glyph-name="ebreve.smcp" horiz-adv-x="506" unicode="&#57923;" /><glyph d="M346 534H272L178 665L237 711L315 606L433 712L483 660ZM457 102Q425 48 372.5 17.5Q320 -13 248 -13Q149 -13 92 41.5Q35 96 35 196Q35 258 54.5 311Q74 364 108.5 403Q143 442 190.5 464.5Q238 487 294 487Q355 487 397 466.5Q439 446 463 412Q487 378 493.5 333Q500 288 492 240Q491 235 490 230.5Q489 226 488 221Q487 216 486 211H148Q145 184 148 159Q151 134 163 114.5Q175 95 196 83.5Q217 72 250 72Q294 72 319.5 92Q345 112 364 142ZM292 404Q240 404 207.5 371Q175 338 161 286H385Q393 343 367.5 373.5Q342 404 292 404Z" glyph-name="ecaron" horiz-adv-x="524" unicode="&#283;" /><glyph d="M368 612H294L200 743L259 789L337 684L455 790L505 738ZM39 0 138 564H513L497 471H233L210 336H455L439 244H194L167 93H435L419 0Z" glyph-name="ecaron.smcp" horiz-adv-x="506" unicode="&#57921;" /><glyph d="M297 706H371L468 575L409 529L328 634L210 528L160 580ZM457 102Q425 48 372.5 17.5Q320 -13 248 -13Q149 -13 92 41.5Q35 96 35 196Q35 258 54.5 311Q74 364 108.5 403Q143 442 190.5 464.5Q238 487 294 487Q355 487 397 466.5Q439 446 463 412Q487 378 493.5 333Q500 288 492 240Q491 235 490 230.5Q489 226 488 221Q487 216 486 211H148Q145 184 148 159Q151 134 163 114.5Q175 95 196 83.5Q217 72 250 72Q294 72 319.5 92Q345 112 364 142ZM292 404Q240 404 207.5 371Q175 338 161 286H385Q393 343 367.5 373.5Q342 404 292 404Z" glyph-name="ecircumflex" horiz-adv-x="524" unicode="&#234;" /><glyph d="M318 786H392L489 655L430 609L349 714L231 608L181 660ZM39 0 138 564H513L497 471H233L210 336H455L439 244H194L167 93H435L419 0Z" glyph-name="ecircumflex.smcp" horiz-adv-x="506" unicode="&#57919;" /><glyph d="M152 607Q152 635 170 652.5Q188 670 217 670Q246 670 264 652.5Q282 635 282 607Q282 581 264 562.5Q246 544 217 544Q188 544 170 562.5Q152 581 152 607ZM356 607Q356 635 374 652.5Q392 670 421 670Q450 670 468 652.5Q486 635 486 607Q486 581 468 562.5Q450 544 421 544Q392 544 374 562.5Q356 581 356 607ZM457 102Q425 48 372.5 17.5Q320 -13 248 -13Q149 -13 92 41.5Q35 96 35 196Q35 258 54.5 311Q74 364 108.5 403Q143 442 190.5 464.5Q238 487 294 487Q355 487 397 466.5Q439 446 463 412Q487 378 493.5 333Q500 288 492 240Q491 235 490 230.5Q489 226 488 221Q487 216 486 211H148Q145 184 148 159Q151 134 163 114.5Q175 95 196 83.5Q217 72 250 72Q294 72 319.5 92Q345 112 364 142ZM292 404Q240 404 207.5 371Q175 338 161 286H385Q393 343 367.5 373.5Q342 404 292 404Z" glyph-name="edieresis" horiz-adv-x="524" unicode="&#235;" /><glyph d="M171 686Q171 714 189 731.5Q207 749 236 749Q265 749 283 731.5Q301 714 301 686Q301 660 283 641.5Q265 623 236 623Q207 623 189 641.5Q171 660 171 686ZM375 686Q375 714 393 731.5Q411 749 440 749Q469 749 487 731.5Q505 714 505 686Q505 660 487 641.5Q469 623 440 623Q411 623 393 641.5Q375 660 375 686ZM39 0 138 564H513L497 471H233L210 336H455L439 244H194L167 93H435L419 0Z" glyph-name="edieresis.smcp" horiz-adv-x="506" unicode="&#57904;" /><glyph d="M457 102Q425 48 372.5 17.5Q320 -13 248 -13Q149 -13 92 41.5Q35 96 35 196Q35 258 54.5 311Q74 364 108.5 403Q143 442 190.5 464.5Q238 487 294 487Q355 487 397 466.5Q439 446 463 412Q487 378 493.5 333Q500 288 492 240Q491 235 490 230.5Q489 226 488 221Q487 216 486 211H148Q145 184 148 159Q151 134 163 114.5Q175 95 196 83.5Q217 72 250 72Q294 72 319.5 92Q345 112 364 142ZM292 404Q240 404 207.5 371Q175 338 161 286H385Q393 343 367.5 373.5Q342 404 292 404ZM253 613Q253 644 272.5 663Q292 682 324 682Q356 682 375.5 663Q395 644 395 613Q395 584 375.5 564Q356 544 324 544Q292 544 272.5 564Q253 584 253 613Z" glyph-name="edotaccent" horiz-adv-x="524" unicode="&#279;" /><glyph d="M39 0 138 564H513L497 471H233L210 336H455L439 244H194L167 93H435L419 0ZM271 689Q271 720 290.5 739Q310 758 342 758Q374 758 393.5 739Q413 720 413 689Q413 660 393.5 640Q374 620 342 620Q310 620 290.5 640Q271 660 271 689Z" glyph-name="edotaccent.smcp" horiz-adv-x="506" unicode="&#57926;" /><glyph d="M457 102Q425 48 372.5 17.5Q320 -13 248 -13Q149 -13 92 41.5Q35 96 35 196Q35 258 54.5 311Q74 364 108.5 403Q143 442 190.5 464.5Q238 487 294 487Q355 487 397 466.5Q439 446 463 412Q487 378 493.5 333Q500 288 492 240Q491 235 490 230.5Q489 226 488 221Q487 216 486 211H148Q145 184 148 159Q151 134 163 114.5Q175 95 196 83.5Q217 72 250 72Q294 72 319.5 92Q345 112 364 142ZM292 404Q240 404 207.5 371Q175 338 161 286H385Q393 343 367.5 373.5Q342 404 292 404ZM264 723 433 589 389 533 202 643Z" glyph-name="egrave" horiz-adv-x="524" unicode="&#232;" /><glyph d="M39 0 138 564H513L497 471H233L210 336H455L439 244H194L167 93H435L419 0ZM285 800 454 666 410 610 223 720Z" glyph-name="egrave.smcp" horiz-adv-x="506" unicode="&#57918;" /><glyph d="M356 699Q402 699 442 686Q482 673 511.5 650Q541 627 557.5 593.5Q574 560 574 520Q574 487 563 459Q552 431 533 409Q514 387 489 371.5Q464 356 437 348Q458 340 477 327.5Q496 315 510.5 297Q525 279 534 255Q543 231 543 201Q543 154 524 114.5Q505 75 470.5 46.5Q436 18 389 2.5Q342 -13 286 -13Q231 -13 187.5 0.5Q144 14 113.5 38.5Q83 63 66.5 97.5Q50 132 50 174Q50 209 62 240Q74 271 95 295.5Q116 320 145.5 337Q175 354 210 362Q171 379 146.5 414.5Q122 450 122 498Q122 541 140 577.5Q158 614 189.5 641Q221 668 263.5 683.5Q306 699 356 699ZM355 610Q299 610 266 577Q233 544 233 492Q233 447 263 423Q293 399 339 399Q393 399 427.5 430.5Q462 462 462 515Q462 561 431 585.5Q400 610 355 610ZM287 77Q353 77 391 112Q429 147 429 202Q429 229 418.5 249Q408 269 390.5 282Q373 295 350 301.5Q327 308 303 308Q242 308 203 273Q164 238 164 180Q164 128 199 102.5Q234 77 287 77Z" glyph-name="eight" horiz-adv-x="600" unicode="8" /><glyph d="M345 699Q391 699 431 686Q471 673 500.5 650Q530 627 546.5 593.5Q563 560 563 520Q563 487 552 459Q541 431 522 409Q503 387 478 371.5Q453 356 426 348Q447 340 466 327.5Q485 315 499.5 297Q514 279 523 255Q532 231 532 201Q532 154 513 114.5Q494 75 459.5 46.5Q425 18 378 2.5Q331 -13 275 -13Q220 -13 176.5 0.5Q133 14 102.5 38.5Q72 63 55.5 97.5Q39 132 39 174Q39 209 51 240Q63 271 84 295.5Q105 320 134.5 337Q164 354 199 362Q160 379 135.5 414.5Q111 450 111 498Q111 541 129 577.5Q147 614 178.5 641Q210 668 252.5 683.5Q295 699 345 699ZM344 610Q288 610 255 577Q222 544 222 492Q222 447 252 423Q282 399 328 399Q382 399 416.5 430.5Q451 462 451 515Q451 561 420 585.5Q389 610 344 610ZM276 77Q342 77 380 112Q418 147 418 202Q418 229 407.5 249Q397 269 379.5 282Q362 295 339 301.5Q316 308 292 308Q231 308 192 273Q153 238 153 180Q153 128 188 102.5Q223 77 276 77Z" glyph-name="eight.LP" horiz-adv-x="580" unicode="&#58685;" /><glyph d="M356 699Q402 699 442 686Q482 673 511.5 650Q541 627 557.5 593.5Q574 560 574 520Q574 487 563 459Q552 431 533 409Q514 387 489 371.5Q464 356 437 348Q458 340 477 327.5Q496 315 510.5 297Q525 279 534 255Q543 231 543 201Q543 154 524 114.5Q505 75 470.5 46.5Q436 18 389 2.5Q342 -13 286 -13Q231 -13 187.5 0.5Q144 14 113.5 38.5Q83 63 66.5 97.5Q50 132 50 174Q50 209 62 240Q74 271 95 295.5Q116 320 145.5 337Q175 354 210 362Q171 379 146.5 414.5Q122 450 122 498Q122 541 140 577.5Q158 614 189.5 641Q221 668 263.5 683.5Q306 699 356 699ZM355 610Q299 610 266 577Q233 544 233 492Q233 447 263 423Q293 399 339 399Q393 399 427.5 430.5Q462 462 462 515Q462 561 431 585.5Q400 610 355 610ZM287 77Q353 77 391 112Q429 147 429 202Q429 229 418.5 249Q408 269 390.5 282Q373 295 350 301.5Q327 308 303 308Q242 308 203 273Q164 238 164 180Q164 128 199 102.5Q234 77 287 77Z" glyph-name="eight.LT" horiz-adv-x="600" unicode="&#58696;" /><glyph d="M342 699Q388 699 427 686Q466 673 495 650Q524 627 540.5 593.5Q557 560 557 520Q557 487 546 459Q535 431 516 409Q497 387 472 371.5Q447 356 420 348Q441 340 460 327.5Q479 315 493.5 297Q508 279 517 255Q526 231 526 201Q526 154 507 114.5Q488 75 454.5 46.5Q421 18 374 2.5Q327 -13 272 -13Q218 -13 175 0.5Q132 14 101.5 38.5Q71 63 55 97.5Q39 132 39 174Q39 209 51 240Q63 271 84 295.5Q105 320 134.5 337Q164 354 199 362Q160 379 135.5 414.5Q111 450 111 498Q111 541 128.5 577.5Q146 614 177 641Q208 668 250 683.5Q292 699 342 699ZM341 611Q286 611 253.5 578Q221 545 221 492Q221 447 250.5 422.5Q280 398 325 398Q379 398 412.5 429.5Q446 461 446 515Q446 562 415.5 586.5Q385 611 341 611ZM273 76Q339 76 376 111Q413 146 413 202Q413 230 403 250Q393 270 375.5 283Q358 296 335.5 302.5Q313 309 289 309Q229 309 190.5 274Q152 239 152 180Q152 127 186.5 101.5Q221 76 273 76Z" glyph-name="eight.OP" horiz-adv-x="574" unicode="&#58707;" /><glyph d="M356 699Q402 699 441 686Q480 673 509 650Q538 627 554.5 593.5Q571 560 571 520Q571 487 560 459Q549 431 530 409Q511 387 486 371.5Q461 356 434 348Q455 340 474 327.5Q493 315 507.5 297Q522 279 531 255Q540 231 540 201Q540 154 521 114.5Q502 75 468.5 46.5Q435 18 388 2.5Q341 -13 286 -13Q232 -13 189 0.5Q146 14 115.5 38.5Q85 63 69 97.5Q53 132 53 174Q53 209 65 240Q77 271 98 295.5Q119 320 148.5 337Q178 354 213 362Q174 379 149.5 414.5Q125 450 125 498Q125 541 142.5 577.5Q160 614 191 641Q222 668 264 683.5Q306 699 356 699ZM355 611Q300 611 267.5 578Q235 545 235 492Q235 447 264.5 422.5Q294 398 339 398Q393 398 426.5 429.5Q460 461 460 515Q460 562 429.5 586.5Q399 611 355 611ZM287 76Q353 76 390 111Q427 146 427 202Q427 230 417 250Q407 270 389.5 283Q372 296 349.5 302.5Q327 309 303 309Q243 309 204.5 274Q166 239 166 180Q166 127 200.5 101.5Q235 76 287 76Z" glyph-name="eight.OT" horiz-adv-x="600" unicode="&#58718;" /><glyph d="M162 185Q223 185 256.5 155.5Q290 126 290 84Q290 49 268 25Q246 1 214 -8Q239 -18 256 -39Q273 -60 273 -90Q273 -113 262.5 -134.5Q252 -156 232.5 -172.5Q213 -189 185 -198.5Q157 -208 121 -208Q51 -208 15.5 -176.5Q-20 -145 -20 -102Q-20 -63 6.5 -35.5Q33 -8 71 0Q49 9 35 28Q21 47 21 75Q21 96 30.5 116Q40 136 58.5 151Q77 166 103 175.5Q129 185 162 185ZM160 121Q136 121 118.5 108Q101 95 101 71Q101 51 115 40Q129 29 152 29Q178 29 194.5 42.5Q211 56 211 80Q211 100 196 110.5Q181 121 160 121ZM122 -145Q154 -145 172.5 -129.5Q191 -114 191 -88Q191 -64 174 -51Q157 -38 131 -38Q101 -38 81.5 -53.5Q62 -69 62 -97Q62 -119 78 -132Q94 -145 122 -145Z" glyph-name="eight.inf" horiz-adv-x="368" unicode="&#58745;" /><glyph d="M1169 317Q1128 317 1104 284.5Q1080 252 1070 203Q1084 223 1108 235.5Q1132 248 1163 248Q1216 248 1248 215.5Q1280 183 1280 131Q1280 105 1269.5 80Q1259 55 1239.5 35Q1220 15 1192 3Q1164 -9 1128 -9Q1063 -9 1025 27.5Q987 64 987 147Q987 189 997.5 231.5Q1008 274 1030.5 308Q1053 342 1088 363.5Q1123 385 1171 385Q1229 385 1261 359Q1293 333 1297 290L1218 280Q1216 296 1204.5 306.5Q1193 317 1169 317ZM1142 182Q1113 182 1092.5 163.5Q1072 145 1072 113Q1072 90 1087 74.5Q1102 59 1128 59Q1154 59 1175.5 76.5Q1197 94 1197 129Q1197 152 1184 167Q1171 182 1142 182ZM294 -13 858 713H959L394 -13ZM520 700 454 324H366L416 607Q385 586 334 584L329 655Q363 659 393 670.5Q423 682 443 700ZM281 700 215 324H127L177 607Q146 586 95 584L90 655Q124 659 154 670.5Q184 682 204 700ZM945 376 879 0H791L841 283Q810 262 759 260L754 331Q788 335 818 346.5Q848 358 868 376Z" glyph-name="elevensixteenths" horiz-adv-x="1329" unicode="&#61984;" /><glyph d="M101 130Q133 130 152.5 110Q172 90 172 60Q172 31 152.5 11.5Q133 -8 101 -8Q69 -8 50 11.5Q31 31 31 60Q31 90 50 110Q69 130 101 130ZM372 130Q404 130 423.5 110Q443 90 443 60Q443 31 423.5 11.5Q404 -8 372 -8Q340 -8 321 11.5Q302 31 302 60Q302 90 321 110Q340 130 372 130ZM643 130Q675 130 694.5 110Q714 90 714 60Q714 31 694.5 11.5Q675 -8 643 -8Q611 -8 592 11.5Q573 31 573 60Q573 90 592 110Q611 130 643 130Z" glyph-name="ellipsis" horiz-adv-x="807" unicode="&#8230;" /><glyph d="M457 102Q425 48 372.5 17.5Q320 -13 248 -13Q149 -13 92 41.5Q35 96 35 196Q35 258 54.5 311Q74 364 108.5 403Q143 442 190.5 464.5Q238 487 294 487Q355 487 397 466.5Q439 446 463 412Q487 378 493.5 333Q500 288 492 240Q491 235 490 230.5Q489 226 488 221Q487 216 486 211H148Q145 184 148 159Q151 134 163 114.5Q175 95 196 83.5Q217 72 250 72Q294 72 319.5 92Q345 112 364 142ZM292 404Q240 404 207.5 371Q175 338 161 286H385Q393 343 367.5 373.5Q342 404 292 404ZM189 630H462L449 556H176Z" glyph-name="emacron" horiz-adv-x="524" unicode="&#275;" /><glyph d="M39 0 138 564H513L497 471H233L210 336H455L439 244H194L167 93H435L419 0ZM211 699H484L471 625H198Z" glyph-name="emacron.smcp" horiz-adv-x="506" unicode="&#57922;" /><glyph d="M74 331H829L814 245H58Z" glyph-name="emdash" horiz-adv-x="870" unicode="&#8212;" /><glyph d="M87 404H842L827 318H71Z" glyph-name="emdash.cap" horiz-adv-x="870" unicode="&#58502;" /><glyph d="M74 331H459L444 245H58Z" glyph-name="endash" horiz-adv-x="500" unicode="&#8211;" /><glyph d="M87 404H472L457 318H71Z" glyph-name="endash.cap" horiz-adv-x="500" unicode="&#58500;" /><glyph d="M392 298Q396 324 392 342.5Q388 361 377.5 372.5Q367 384 351.5 389Q336 394 318 394Q299 394 278.5 385Q258 376 240 357.5Q222 339 208 311.5Q194 284 187 247L144 0H30L114 474H222L210 401Q237 440 276.5 463.5Q316 487 365 487Q400 487 430 477Q460 467 480 445.5Q500 424 508 391Q516 358 508 313L443 -60Q436 -101 419.5 -129.5Q403 -158 379.5 -177Q356 -196 326.5 -204.5Q297 -213 264 -213Q224 -213 193 -202.5Q162 -192 142 -175L200 -94Q210 -103 224.5 -111Q239 -119 259 -119Q288 -119 306.5 -101.5Q325 -84 330 -54Z" glyph-name="eng" horiz-adv-x="561" unicode="&#331;" /><glyph d="M138 564H252Q292 478 326 401Q341 368 356 334.5Q371 301 384.5 270Q398 239 409.5 213Q421 187 429 170H431L501 564H604L496 -46Q482 -126 439 -170Q396 -214 313 -214Q257 -214 226.5 -196.5Q196 -179 178 -154L258 -86Q270 -104 282.5 -114Q295 -124 315 -124Q347 -124 363.5 -100.5Q380 -77 386 -44L394 1Q354 85 320 162Q305 195 289.5 228.5Q274 262 260 293.5Q246 325 234 352Q222 379 214 397H212L142 0H39Z" glyph-name="eng.smcp" horiz-adv-x="628" unicode="&#58155;" /><glyph d="M223 -102Q223 -116 232.5 -125.5Q242 -135 261 -135Q274 -135 289.5 -127.5Q305 -120 317 -102L360 -147Q333 -178 303 -190Q273 -202 241 -202Q194 -202 166.5 -180Q139 -158 139 -120Q139 -82 159 -57Q179 -32 212 -11Q129 -2 82 51.5Q35 105 35 196Q35 258 54.5 311Q74 364 108.5 403Q143 442 190.5 464.5Q238 487 294 487Q355 487 397 466.5Q439 446 463 412Q487 378 493.5 333Q500 288 492 240Q491 235 490 230.5Q489 226 488 221Q487 216 486 211H148Q145 184 148 159Q151 134 163 114.5Q175 95 196 83.5Q217 72 250 72Q294 72 319.5 92Q345 112 364 142L457 102Q435 65 405 40Q375 15 343 1Q223 -53 223 -102ZM292 404Q240 404 207.5 371Q175 338 161 286H385Q393 343 367.5 373.5Q342 404 292 404Z" glyph-name="eogonek" horiz-adv-x="524" unicode="&#281;" /><glyph d="M359 0Q299 -29 269 -53.5Q239 -78 239 -102Q239 -116 248.5 -125.5Q258 -135 277 -135Q290 -135 305.5 -127.5Q321 -120 333 -102L376 -147Q349 -178 319 -190Q289 -202 257 -202Q210 -202 182.5 -180Q155 -158 155 -120Q155 -77 180.5 -50Q206 -23 247 0H39L138 564H513L497 471H233L210 336H455L439 244H194L167 93H435L419 0Z" glyph-name="eogonek.smcp" horiz-adv-x="506" unicode="&#57929;" /><glyph d="M91 463H587L571 372H76ZM58 274H554L538 183H42Z" glyph-name="equal" horiz-adv-x="600" unicode="=" /><glyph d="M98 500H644L628 409H82ZM65 311H610L595 220H49Z" glyph-name="equal.cap" horiz-adv-x="650" unicode="&#58773;" /><glyph d="M21 106H304L291 29H8ZM-4 -35H279L266 -112H-17Z" glyph-name="equal.inf" horiz-adv-x="373" unicode="&#58749;" /><glyph d="M112 569H607L592 479H96ZM76 370H572L556 280H60ZM41 171H537L521 81H25Z" glyph-name="equivalence" horiz-adv-x="600" unicode="&#8801;" /><glyph d="M694 164Q674 122 646.5 89Q619 56 581.5 33Q544 10 496.5 -2Q449 -14 388 -14Q305 -14 241.5 12.5Q178 39 135.5 87Q93 135 71.5 202Q50 269 50 351Q50 441 74.5 508.5Q99 576 143 622Q187 668 249.5 691Q312 714 387 714Q472 714 535 685.5Q598 657 639 608Q680 559 700 492.5Q720 426 720 351V323H167Q170 260 185 208.5Q200 157 227.5 121Q255 85 295.5 65.5Q336 46 389 46Q439 46 476.5 58Q514 70 541.5 90Q569 110 587.5 137Q606 164 617 194ZM388 654Q331 654 291 634Q251 614 225 578Q199 542 185 492.5Q171 443 167 384H602Q598 445 583 494.5Q568 544 542 579.5Q516 615 477.5 634.5Q439 654 388 654Z" glyph-name="estimated" horiz-adv-x="770" unicode="&#8494;" /><glyph d="M222 586 294 623Q250 659 197 677L260 738Q295 728 326 710.5Q357 693 385 669L474 715L500 655L433 620Q478 563 504 490Q530 417 530 333Q530 271 515.5 209.5Q501 148 468 98.5Q435 49 382 18Q329 -13 251 -13Q202 -13 162.5 1.5Q123 16 94.5 43.5Q66 71 50.5 110Q35 149 35 199Q35 254 53.5 305Q72 356 105.5 395.5Q139 435 185 458.5Q231 482 286 482Q327 482 359.5 469Q392 456 414 428Q391 511 343 573L250 524ZM256 74Q292 74 320 92Q348 110 366.5 138Q385 166 394.5 201Q404 236 404 270Q404 295 397.5 318Q391 341 378 358Q365 375 344.5 385Q324 395 296 395Q260 395 233 377Q206 359 188 331Q170 303 160.5 268Q151 233 151 199Q151 174 157 151.5Q163 129 175.5 111.5Q188 94 208 84Q228 74 256 74Z" glyph-name="eth" horiz-adv-x="565" unicode="&#240;" /><glyph d="M97 252H35L49 331H111L152 564H354Q408 564 451.5 547.5Q495 531 526 501Q557 471 573.5 428Q590 385 590 333Q590 254 567 192Q544 130 501.5 87.5Q459 45 398.5 22.5Q338 0 263 0H53ZM472 332Q472 398 437 434.5Q402 471 332 471H248L223 331H345L331 252H210L182 93H273Q322 93 359 111Q396 129 421 160.5Q446 192 459 236Q472 280 472 332Z" glyph-name="eth.smcp" horiz-adv-x="632" unicode="&#58156;" /><glyph d="M31 62Q31 93 50 112Q69 131 101 131Q133 131 152.5 112Q172 93 172 62Q172 32 152.5 12Q133 -8 101 -8Q69 -8 50 12Q31 32 31 62ZM170 209H75L148 700H270Z" glyph-name="exclam" horiz-adv-x="264" unicode="!" /><glyph d="M232 438Q232 407 213 388Q194 369 162 369Q130 369 111 388Q92 407 92 438Q92 468 111 488Q130 508 162 508Q194 508 213 488Q232 468 232 438ZM93 291H189L115 -200H-6Z" glyph-name="exclamdown" horiz-adv-x="259" unicode="&#161;" /><glyph d="M268 638Q268 607 248.5 588Q229 569 197 569Q165 569 146 588Q127 607 127 638Q127 668 146 688Q165 708 197 708Q229 708 248.5 688Q268 668 268 638ZM129 491H224L151 0H29Z" glyph-name="exclamdown.cap" horiz-adv-x="259" unicode="&#58433;" /><glyph d="M139 474 150 534Q159 584 178.5 618Q198 652 223.5 673Q249 694 279 703.5Q309 713 339 713Q383 713 415 701Q447 689 464 671L406 588Q397 600 382 609.5Q367 619 344 619Q314 619 293 600Q272 581 264 536L252 474H359L344 390H237L169 0H55L124 390H44L59 474Z" glyph-name="f" horiz-adv-x="340" unicode="f" /><glyph d="M39 0 138 564H515L498 471H233L210 336H455L439 244H194L151 0Z" glyph-name="f.smcp" horiz-adv-x="500" unicode="&#57862;" /><glyph d="M89 589H140L146 621Q152 656 165.5 679Q179 702 196.5 716Q214 730 234 735.5Q254 741 272 741Q304 741 324.5 733Q345 725 357 714L316 655Q310 662 300.5 668Q291 674 276 674Q259 674 246 663Q233 652 228 623L222 589H289L278 530H211L169 288H87L129 530H79Z" glyph-name="f.superior" horiz-adv-x="251" unicode="&#58214;" /><glyph d="M139 474 150 537Q159 588 177.5 621.5Q196 655 221 675.5Q246 696 275 704.5Q304 713 336 713Q367 713 397 705Q427 697 444 680L389 596Q379 606 367 612Q355 618 337 618Q305 618 288 598Q271 578 264 540L252 474H353L338 390H237L169 0H55L124 390H44L59 474ZM644 -13Q583 -13 545 12Q507 37 492 71L480 0H371L494 700H608L558 414Q580 443 616.5 465Q653 487 704 487Q746 487 781 472Q816 457 840.5 429Q865 401 879 362Q893 323 893 274Q893 209 872.5 156.5Q852 104 818 66Q784 28 738.5 7.5Q693 -13 644 -13ZM524 224Q517 186 523 158.5Q529 131 544.5 113Q560 95 582 86Q604 77 629 77Q662 77 689 92Q716 107 735.5 133.5Q755 160 766 195.5Q777 231 777 272Q777 328 751 362.5Q725 397 671 397Q649 397 626.5 389Q604 381 585 364.5Q566 348 551.5 321.5Q537 295 530 259Z" glyph-name="f_b" horiz-adv-x="928" unicode="&#58241;" /><glyph d="M458 537Q467 588 485 621.5Q503 655 528 675.5Q553 696 582.5 704.5Q612 713 644 713Q675 713 705 705Q735 697 752 680L697 596Q687 606 675 612Q663 618 645 618Q613 618 596 598Q579 578 572 540L560 474H661L646 390H545L477 0H363L431 390H237L169 0H55L124 390H44L59 474H139L149 530Q158 579 176.5 613Q195 647 220.5 668Q246 689 275.5 698.5Q305 708 335 708Q378 708 409.5 696Q441 684 458 667L401 583Q392 595 377.5 604.5Q363 614 340 614Q311 614 291 595Q271 576 263 533L252 474H446ZM952 -13Q891 -13 853 12Q815 37 800 71L788 0H679L802 700H916L866 414Q888 443 924.5 465Q961 487 1012 487Q1054 487 1089 472Q1124 457 1148.5 429Q1173 401 1187 362Q1201 323 1201 274Q1201 209 1180.5 156.5Q1160 104 1126 66Q1092 28 1046.5 7.5Q1001 -13 952 -13ZM832 224Q825 186 831 158.5Q837 131 852.5 113Q868 95 890 86Q912 77 937 77Q970 77 997 92Q1024 107 1043.5 133.5Q1063 160 1074 195.5Q1085 231 1085 272Q1085 328 1059 362.5Q1033 397 979 397Q957 397 934.5 389Q912 381 893 364.5Q874 348 859.5 321.5Q845 295 838 259Z" glyph-name="f_f_b" horiz-adv-x="1236" unicode="&#58242;" /><glyph d="M458 537Q467 588 485 621.5Q503 655 528 675.5Q553 696 582.5 704.5Q612 713 644 713Q675 713 705 705Q735 697 752 680L697 596Q687 606 675 612Q663 618 645 618Q613 618 596 598Q579 578 572 540L560 474H661L646 390H545L477 0H363L431 390H237L169 0H55L124 390H44L59 474H139L149 530Q158 579 176.5 613Q195 647 220.5 668Q246 689 275.5 698.5Q305 708 335 708Q378 708 409.5 696Q441 684 458 667L401 583Q392 595 377.5 604.5Q363 614 340 614Q311 614 291 595Q271 576 263 533L252 474H446ZM803 700H916L865 408Q888 441 927 464Q966 487 1015 487Q1050 487 1080 477Q1110 467 1130 445.5Q1150 424 1158 391Q1166 358 1158 313L1102 0H989L1041 298Q1050 350 1027.5 372Q1005 394 968 394Q948 394 927.5 385Q907 376 889 357.5Q871 339 857 311.5Q843 284 837 247L793 0H679Z" glyph-name="f_f_h" horiz-adv-x="1211" unicode="&#58243;" /><glyph d="M760 -60Q752 -102 735 -131Q718 -160 694.5 -178.5Q671 -197 642 -205Q613 -213 583 -213Q543 -213 511 -202.5Q479 -192 459 -176L517 -95Q527 -103 542 -111Q557 -119 577 -119Q605 -119 623.5 -101.5Q642 -84 647 -54L725 390H545L477 0H363L432 390H237L169 0H55L124 390H44L59 474H139L149 529Q158 579 177 613Q196 647 221 668Q246 689 275.5 698.5Q305 708 335 708Q379 708 410.5 696Q442 684 460 666L402 583Q393 595 378.5 604.5Q364 614 341 614Q312 614 291 595Q270 576 262 531L252 474H447L455 521Q464 569 485 605Q506 641 535.5 665Q565 689 601 701Q637 713 676 713Q733 713 778 691Q823 669 842 629L758 566Q744 591 725 605Q706 619 674 619Q632 619 604 590.5Q576 562 567 511L560 474H854Z" glyph-name="f_f_j" horiz-adv-x="885" unicode="&#57898;" /><glyph d="M458 537Q467 588 485 621.5Q503 655 528 675.5Q553 696 582.5 704.5Q612 713 644 713Q675 713 705 705Q735 697 752 680L697 596Q687 606 675 612Q663 618 645 618Q613 618 596 598Q579 578 572 540L560 474H661L646 390H545L477 0H363L431 390H237L169 0H55L124 390H44L59 474H139L149 530Q158 579 176.5 613Q195 647 220.5 668Q246 689 275.5 698.5Q305 708 335 708Q378 708 409.5 696Q441 684 458 667L401 583Q392 595 377.5 604.5Q363 614 340 614Q311 614 291 595Q271 576 263 533L252 474H446ZM884 233 826 187 793 0H679L802 700H916L847 310L1053 474H1193L973 298L1133 0H1007Z" glyph-name="f_f_k" horiz-adv-x="1180" unicode="&#58245;" /><glyph d="M139 474 150 537Q159 588 177.5 621.5Q196 655 221 675.5Q246 696 275 704.5Q304 713 336 713Q367 713 397 705Q427 697 444 680L389 596Q379 606 367 612Q355 618 337 618Q305 618 288 598Q271 578 264 540L252 474H353L338 390H237L169 0H55L124 390H44L59 474ZM495 700H608L557 408Q580 441 619 464Q658 487 707 487Q742 487 772 477Q802 467 822 445.5Q842 424 850 391Q858 358 850 313L794 0H681L733 298Q742 350 719.5 372Q697 394 660 394Q640 394 619.5 385Q599 376 581 357.5Q563 339 549 311.5Q535 284 529 247L485 0H371Z" glyph-name="f_h" horiz-adv-x="902" unicode="&#58246;" /><glyph d="M450 566Q436 591 417 605Q398 619 366 619Q324 619 296 590.5Q268 562 259 511L252 474H546L462 0H348L417 390H237L169 0H55L124 390H44L59 474H139L147 521Q156 569 177 605Q198 641 227.5 665Q257 689 293 701Q329 713 368 713Q425 713 470 691Q515 669 534 629Z" glyph-name="f_i" horiz-adv-x="576" unicode="&#62209;" /><glyph d="M452 -60Q444 -102 427 -131Q410 -160 386.5 -178.5Q363 -197 334 -205Q305 -213 275 -213Q235 -213 203 -202.5Q171 -192 151 -176L209 -95Q219 -103 234 -111Q249 -119 269 -119Q297 -119 315.5 -101.5Q334 -84 339 -54L417 390H237L169 0H55L124 390H44L59 474H139L147 521Q156 569 177 605Q198 641 227.5 665Q257 689 293 701Q329 713 368 713Q425 713 470 691Q515 669 534 629L450 566Q436 591 417 605Q398 619 366 619Q324 619 296 590.5Q268 562 259 511L252 474H546Z" glyph-name="f_j" horiz-adv-x="577" unicode="&#58247;" /><glyph d="M139 474 150 537Q159 588 177.5 621.5Q196 655 221 675.5Q246 696 275 704.5Q304 713 336 713Q367 713 397 705Q427 697 444 680L389 596Q379 606 367 612Q355 618 337 618Q305 618 288 598Q271 578 264 540L252 474H353L338 390H237L169 0H55L124 390H44L59 474ZM576 233 518 187 485 0H371L494 700H608L539 310L745 474H885L665 298L825 0H699Z" glyph-name="f_k" horiz-adv-x="872" unicode="&#58248;" /><glyph d="M169 0H55L124 390H44L59 474H139L149 530Q158 579 176.5 613Q195 647 220.5 668Q246 689 275.5 698.5Q305 708 335 708Q378 708 409.5 696Q441 684 458 667L401 583Q392 595 377.5 604.5Q363 614 340 614Q311 614 291 595Q271 576 263 533L252 474H446L457 534Q466 584 485.5 618Q505 652 531 673Q557 694 587 703.5Q617 713 647 713Q691 713 723 701Q755 689 772 671L714 588Q705 600 690 609.5Q675 619 652 619Q622 619 601 600Q580 581 572 536L560 474H667L652 390H545L477 0H363L431 390H237Z" glyph-name="ff" horiz-adv-x="648" unicode="&#64256;" /><glyph d="M758 566Q744 591 725 605Q706 619 674 619Q632 619 604 590.5Q576 562 567 511L560 474H854L770 0H656L725 390H545L477 0H363L432 390H237L169 0H55L124 390H44L59 474H139L149 529Q158 579 177 613Q196 647 221 668Q246 689 275.5 698.5Q305 708 335 708Q379 708 410.5 696Q442 684 460 666L402 583Q393 595 378.5 604.5Q364 614 341 614Q312 614 291 595Q270 576 262 531L252 474H447L455 521Q464 569 485 605Q506 641 535.5 665Q565 689 601 701Q637 713 676 713Q733 713 778 691Q823 669 842 629Z" glyph-name="ffi" horiz-adv-x="884" unicode="&#64259;" /><glyph d="M458 537Q467 588 485 621.5Q503 655 528 675.5Q553 696 582.5 704.5Q612 713 644 713Q675 713 705 705Q735 697 752 680L697 596Q687 606 675 612Q663 618 645 618Q613 618 596 598Q579 578 572 540L560 474H661L646 390H545L477 0H363L431 390H237L169 0H55L124 390H44L59 474H139L149 530Q158 579 176.5 613Q195 647 220.5 668Q246 689 275.5 698.5Q305 708 335 708Q378 708 409.5 696Q441 684 458 667L401 583Q392 595 377.5 604.5Q363 614 340 614Q311 614 291 595Q271 576 263 533L252 474H446ZM802 700H916L793 0H679Z" glyph-name="ffl" horiz-adv-x="907" unicode="&#64260;" /><glyph d="M466 643Q466 675 485.5 693.5Q505 712 536 712Q568 712 587.5 693.5Q607 675 607 643Q607 614 587.5 594Q568 574 536 574Q504 574 485 594Q466 614 466 643ZM454 474H567L484 0H370ZM139 474 150 537Q159 588 177.5 621.5Q196 655 220.5 675.5Q245 696 274 704.5Q303 713 335 713Q363 713 390 705Q417 697 433 680L383 596Q375 604 362.5 611Q350 618 333 618Q302 618 286.5 598Q271 578 264 540L252 474H353L338 390H237L169 0H55L124 390H44L59 474Z" glyph-name="fi" horiz-adv-x="598" unicode="&#64257;" /><glyph d="M1241 317Q1200 317 1176 284.5Q1152 252 1142 203Q1156 223 1180 235.5Q1204 248 1235 248Q1288 248 1320 215.5Q1352 183 1352 131Q1352 105 1341.5 80Q1331 55 1311.5 35Q1292 15 1264 3Q1236 -9 1200 -9Q1135 -9 1097 27.5Q1059 64 1059 147Q1059 189 1069.5 231.5Q1080 274 1102.5 308Q1125 342 1160 363.5Q1195 385 1243 385Q1301 385 1333 359Q1365 333 1369 290L1290 280Q1288 296 1276.5 306.5Q1265 317 1241 317ZM1214 182Q1185 182 1164.5 163.5Q1144 145 1144 113Q1144 90 1159 74.5Q1174 59 1200 59Q1226 59 1247.5 76.5Q1269 94 1269 129Q1269 152 1256 167Q1243 182 1214 182ZM381 432Q383 411 398 398Q413 385 436 385Q467 385 486.5 404Q506 423 506 455Q506 480 492 494Q478 508 454 508Q434 508 418.5 499.5Q403 491 394 477L323 490L384 698H615L591 628H434L408 547Q418 558 435 566.5Q452 575 476 575Q530 575 560.5 543.5Q591 512 591 459Q591 429 579.5 403Q568 377 547.5 357.5Q527 338 498 327Q469 316 435 316Q374 316 340 344Q306 372 303 413ZM366 -13 930 713H1031L466 -13ZM281 700 215 324H127L177 607Q146 586 95 584L90 655Q124 659 154 670.5Q184 682 204 700ZM1017 376 951 0H863L913 283Q882 262 831 260L826 331Q860 335 890 346.5Q920 358 940 376Z" glyph-name="fifteensixteenths" horiz-adv-x="1401" unicode="&#61986;" /><glyph d="M74 331H559L544 245H58Z" glyph-name="figuredash" horiz-adv-x="600" unicode="&#8210;" /><glyph d="M87 404H572L557 318H71Z" glyph-name="figuredash.cap" horiz-adv-x="600" unicode="&#58503;" /><glyph d="M163 190Q164 144 192.5 111Q221 78 274 78Q306 78 333 91Q360 104 379.5 126.5Q399 149 410 179Q421 209 421 244Q421 296 393.5 329.5Q366 363 313 363Q270 363 239.5 344Q209 325 192 295L97 313L203 686H579L547 593H272L215 404Q235 425 265 439Q295 453 333 453Q384 453 422 437Q460 421 485.5 393Q511 365 523.5 327Q536 289 536 246Q536 198 518 151.5Q500 105 466.5 68.5Q433 32 383.5 9.5Q334 -13 271 -13Q215 -13 175 3Q135 19 108.5 44.5Q82 70 69.5 101.5Q57 133 56 164Z" glyph-name="five" horiz-adv-x="600" unicode="5" /><glyph d="M141 190Q142 144 170.5 111Q199 78 252 78Q284 78 311 91Q338 104 357.5 126.5Q377 149 388 179Q399 209 399 244Q399 296 371.5 329.5Q344 363 291 363Q248 363 217.5 344Q187 325 170 295L75 313L181 686H557L525 593H250L193 404Q213 425 243 439Q273 453 311 453Q362 453 400 437Q438 421 463.5 393Q489 365 501.5 327Q514 289 514 246Q514 198 496 151.5Q478 105 444.5 68.5Q411 32 361.5 9.5Q312 -13 249 -13Q193 -13 153 3Q113 19 86.5 44.5Q60 70 47.5 101.5Q35 133 34 164Z" glyph-name="five.LP" horiz-adv-x="556" unicode="&#58682;" /><glyph d="M163 190Q164 144 192.5 111Q221 78 274 78Q306 78 333 91Q360 104 379.5 126.5Q399 149 410 179Q421 209 421 244Q421 296 393.5 329.5Q366 363 313 363Q270 363 239.5 344Q209 325 192 295L97 313L203 686H579L547 593H272L215 404Q235 425 265 439Q295 453 333 453Q384 453 422 437Q460 421 485.5 393Q511 365 523.5 327Q536 289 536 246Q536 198 518 151.5Q500 105 466.5 68.5Q433 32 383.5 9.5Q334 -13 271 -13Q215 -13 175 3Q135 19 108.5 44.5Q82 70 69.5 101.5Q57 133 56 164Z" glyph-name="five.LT" horiz-adv-x="600" unicode="&#58693;" /><glyph d="M121 69Q122 22 150.5 -11Q179 -44 233 -44Q265 -44 292.5 -31.5Q320 -19 339.5 3.5Q359 26 370 56.5Q381 87 381 123Q381 175 353.5 208.5Q326 242 272 242Q229 242 198.5 223.5Q168 205 151 175L56 192L162 564H538L506 472H230L173 282Q193 302 222.5 317Q252 332 292 332Q343 332 381 316Q419 300 444.5 272Q470 244 482.5 206Q495 168 495 125Q495 76 477 29.5Q459 -17 425.5 -53.5Q392 -90 342.5 -112Q293 -134 230 -134Q174 -134 134 -118Q94 -102 67.5 -76.5Q41 -51 28.5 -19.5Q16 12 15 42Z" glyph-name="five.OP" horiz-adv-x="557" unicode="&#58688;" /><glyph d="M143 69Q144 22 172.5 -11Q201 -44 255 -44Q287 -44 314.5 -31.5Q342 -19 361.5 3.5Q381 26 392 56.5Q403 87 403 123Q403 175 375.5 208.5Q348 242 294 242Q251 242 220.5 223.5Q190 205 173 175L78 192L184 564H560L528 472H252L195 282Q215 302 244.5 317Q274 332 314 332Q365 332 403 316Q441 300 466.5 272Q492 244 504.5 206Q517 168 517 125Q517 76 499 29.5Q481 -17 447.5 -53.5Q414 -90 364.5 -112Q315 -134 252 -134Q196 -134 156 -118Q116 -102 89.5 -76.5Q63 -51 50.5 -19.5Q38 12 37 42Z" glyph-name="five.OT" horiz-adv-x="600" unicode="&#58715;" /><glyph d="M61 -92Q63 -113 78 -126Q93 -139 116 -139Q147 -139 166.5 -120Q186 -101 186 -69Q186 -44 172 -30Q158 -16 134 -16Q114 -16 98.5 -24.5Q83 -33 74 -47L3 -34L64 174H295L271 104H114L88 23Q98 34 115 42.5Q132 51 156 51Q210 51 240.5 19.5Q271 -12 271 -65Q271 -95 259.5 -121Q248 -147 227.5 -166.5Q207 -186 178 -197Q149 -208 115 -208Q54 -208 20 -180Q-14 -152 -17 -111Z" glyph-name="five.inf" horiz-adv-x="358" unicode="&#58742;" /><glyph d="M1006 317Q965 317 941 284.5Q917 252 907 203Q921 223 945 235.5Q969 248 1000 248Q1053 248 1085 215.5Q1117 183 1117 131Q1117 105 1106.5 80Q1096 55 1076.5 35Q1057 15 1029 3Q1001 -9 965 -9Q900 -9 862 27.5Q824 64 824 147Q824 189 834.5 231.5Q845 274 867.5 308Q890 342 925 363.5Q960 385 1008 385Q1066 385 1098 359Q1130 333 1134 290L1055 280Q1053 296 1041.5 306.5Q1030 317 1006 317ZM979 182Q950 182 929.5 163.5Q909 145 909 113Q909 90 924 74.5Q939 59 965 59Q991 59 1012.5 76.5Q1034 94 1034 129Q1034 152 1021 167Q1008 182 979 182ZM152 432Q154 411 169 398Q184 385 207 385Q238 385 257.5 404Q277 423 277 455Q277 480 263 494Q249 508 225 508Q205 508 189.5 499.5Q174 491 165 477L94 490L155 698H386L362 628H205L179 547Q189 558 206 566.5Q223 575 247 575Q301 575 331.5 543.5Q362 512 362 459Q362 429 350.5 403Q339 377 318.5 357.5Q298 338 269 327Q240 316 206 316Q145 316 111 344Q77 372 74 413ZM782 376 716 0H628L678 283Q647 262 596 260L591 331Q625 335 655 346.5Q685 358 705 376ZM131 -13 695 713H796L231 -13Z" glyph-name="fivesixteenths" horiz-adv-x="1166" unicode="&#61975;" /><glyph d="M139 474 150 537Q159 588 177.5 621.5Q196 655 220.5 675.5Q245 696 274 704.5Q303 713 335 713Q363 713 390 705Q417 697 433 680L383 596Q375 604 362.5 611Q350 618 333 618Q302 618 286.5 598Q271 578 264 540L252 474H353L338 390H237L169 0H55L124 390H44L59 474ZM456 474H569L477 -54Q463 -137 413.5 -175Q364 -213 297 -213Q258 -213 227 -202.5Q196 -192 176 -175L233 -94Q243 -103 258 -111Q273 -119 293 -119Q322 -119 340 -99.5Q358 -80 364 -48ZM468 643Q468 675 487.5 693.5Q507 712 538 712Q570 712 589.5 693.5Q609 675 609 643Q609 614 589.5 594Q570 574 538 574Q506 574 487 594Q468 614 468 643Z" glyph-name="fj" horiz-adv-x="600" /><glyph d="M139 474 150 537Q159 588 177.5 621.5Q196 655 221 675.5Q246 696 275 704.5Q304 713 336 713Q367 713 397 705Q427 697 444 680L389 596Q379 606 367 612Q355 618 337 618Q305 618 288 598Q271 578 264 540L252 474H353L338 390H237L169 0H55L124 390H44L59 474ZM494 700H608L485 0H371Z" glyph-name="fl" horiz-adv-x="599" unicode="&#64258;" /><glyph d="M254 14Q244 -31 225.5 -62.5Q207 -94 183 -113.5Q159 -133 129.5 -142Q100 -151 69 -151Q24 -151 -6 -139Q-36 -127 -54 -113L9 -30Q18 -39 33 -47.5Q48 -56 67 -56Q96 -56 116 -35.5Q136 -15 144 23L215 340H140L155 424H235L263 548Q273 594 292 625.5Q311 657 335.5 676.5Q360 696 389 704.5Q418 713 450 713Q495 713 524 701Q553 689 572 675L508 592Q500 601 484.5 609.5Q469 618 450 618Q420 618 400.5 596Q381 574 373 536L347 424H466L451 340H328Z" glyph-name="florin" horiz-adv-x="522" unicode="&#402;" /><glyph d="M542 686 464 241H572L540 153H448L421 0H312L339 153H23L37 240L392 686ZM355 241 416 586H414L141 241Z" glyph-name="four" horiz-adv-x="600" unicode="4" /><glyph d="M530 686 452 241H560L528 153H436L409 0H300L327 153H11L25 240L380 686ZM343 241 404 586H402L129 241Z" glyph-name="four.LP" horiz-adv-x="577" unicode="&#58681;" /><glyph d="M542 686 464 241H572L540 153H448L421 0H312L339 153H23L37 240L392 686ZM355 241 416 586H414L141 241Z" glyph-name="four.LT" horiz-adv-x="600" unicode="&#58692;" /><glyph d="M508 564 429 118H537L505 32H414L387 -122H281L308 32H-9L6 118L362 564ZM323 118 385 465H383L109 118Z" glyph-name="four.OP" horiz-adv-x="577" unicode="&#58703;" /><glyph d="M520 564 441 118H549L517 32H426L399 -122H293L320 32H3L18 118L374 564ZM335 118 397 465H395L121 118Z" glyph-name="four.OT" horiz-adv-x="600" unicode="&#58714;" /><glyph d="M278 174 237 -59H299L277 -125H225L212 -200H130L143 -125H-36L-25 -63L167 174ZM157 -59 185 100H183L55 -59Z" glyph-name="four.inf" horiz-adv-x="377" unicode="&#58741;" /><glyph d="M-173 -13 391 713H492L-73 -13Z" glyph-name="fraction" horiz-adv-x="279" unicode="&#8260;" /><glyph d="M476 21Q456 -93 392 -153Q328 -213 216 -213Q123 -213 73 -180Q23 -147 6 -92L111 -53Q116 -68 123.5 -81.5Q131 -95 143 -105Q155 -115 173 -120.5Q191 -126 218 -126Q252 -126 277 -114Q302 -102 319 -81.5Q336 -61 346.5 -34.5Q357 -8 363 22L373 76Q352 49 315 28Q278 7 227 7Q184 7 148.5 21.5Q113 36 88 62Q63 88 49.5 125.5Q36 163 36 210Q36 271 56 322Q76 373 110 410Q144 447 188.5 467Q233 487 283 487Q344 487 382 462.5Q420 438 435 404L447 474H556ZM404 252Q410 290 403.5 317.5Q397 345 381.5 362.5Q366 380 344 388.5Q322 397 298 397Q265 397 238.5 382.5Q212 368 192.5 343Q173 318 162.5 284Q152 250 152 212Q152 161 178 129Q204 97 257 97Q279 97 302 104Q325 111 344.5 127Q364 143 378.5 167Q393 191 399 226Z" glyph-name="g" horiz-adv-x="587" unicode="g" /><glyph d="M321 304H574L520 0H420L430 61Q413 33 373.5 10Q334 -13 279 -13Q223 -13 181.5 7Q140 27 112.5 61Q85 95 71 140Q57 185 57 236Q57 304 77.5 366Q98 428 137 474.5Q176 521 232 548.5Q288 576 359 576Q450 576 510 538Q570 500 589 430L482 393Q473 436 442 459.5Q411 483 357 483Q317 483 283.5 465Q250 447 225.5 414.5Q201 382 187.5 336Q174 290 174 235Q174 162 206 121Q238 80 305 80Q329 80 352.5 86Q376 92 395.5 105.5Q415 119 429 139.5Q443 160 448 189L452 216H306Z" glyph-name="g.smcp" horiz-adv-x="633" unicode="&#57863;" /><glyph d="M281 337Q267 319 243.5 306Q220 293 188 293Q134 293 100.5 327.5Q67 362 67 421Q67 460 80 493Q93 526 115 549Q137 572 165.5 585Q194 598 225 598Q263 598 287 583Q311 568 321 546L329 589H407L356 300Q344 229 301.5 191Q259 153 187 153Q124 153 91.5 173.5Q59 194 48 229L124 257Q130 237 143 225.5Q156 214 188 214Q209 214 224 221.5Q239 229 249 242Q259 255 265.5 271Q272 287 275 304ZM301 447Q308 493 287 514Q266 535 237 535Q218 535 202 526Q186 517 174.5 501.5Q163 486 156.5 465.5Q150 445 150 422Q150 393 165.5 374.5Q181 356 213 356Q241 356 265.5 374Q290 392 298 434Z" glyph-name="g.superior" horiz-adv-x="403" unicode="&#58215;" /><glyph d="M476 21Q456 -93 392 -153Q328 -213 216 -213Q123 -213 73 -180Q23 -147 6 -92L111 -53Q116 -68 123.5 -81.5Q131 -95 143 -105Q155 -115 173 -120.5Q191 -126 218 -126Q252 -126 277 -114Q302 -102 319 -81.5Q336 -61 346.5 -34.5Q357 -8 363 22L373 76Q352 49 315 28Q278 7 227 7Q184 7 148.5 21.5Q113 36 88 62Q63 88 49.5 125.5Q36 163 36 210Q36 271 56 322Q76 373 110 410Q144 447 188.5 467Q233 487 283 487Q344 487 382 462.5Q420 438 435 404L447 474H556ZM404 252Q410 290 403.5 317.5Q397 345 381.5 362.5Q366 380 344 388.5Q322 397 298 397Q265 397 238.5 382.5Q212 368 192.5 343Q173 318 162.5 284Q152 250 152 212Q152 161 178 129Q204 97 257 97Q279 97 302 104Q325 111 344.5 127Q364 143 378.5 167Q393 191 399 226ZM250 688Q250 659 268.5 638.5Q287 618 319 618Q351 618 375.5 638.5Q400 659 408 688L492 664Q474 613 427.5 579Q381 545 315 545Q250 545 209.5 578.5Q169 612 166 664Z" glyph-name="gbreve" horiz-adv-x="587" unicode="&#287;" /><glyph d="M321 304H574L520 0H420L430 61Q413 33 373.5 10Q334 -13 279 -13Q223 -13 181.5 7Q140 27 112.5 61Q85 95 71 140Q57 185 57 236Q57 304 77.5 366Q98 428 137 474.5Q176 521 232 548.5Q288 576 359 576Q450 576 510 538Q570 500 589 430L482 393Q473 436 442 459.5Q411 483 357 483Q317 483 283.5 465Q250 447 225.5 414.5Q201 382 187.5 336Q174 290 174 235Q174 162 206 121Q238 80 305 80Q329 80 352.5 86Q376 92 395.5 105.5Q415 119 429 139.5Q443 160 448 189L452 216H306ZM318 760Q318 731 336.5 710.5Q355 690 387 690Q419 690 443.5 710.5Q468 731 476 760L560 736Q542 685 495.5 651Q449 617 383 617Q318 617 277.5 650.5Q237 684 234 736Z" glyph-name="gbreve.smcp" horiz-adv-x="633" unicode="&#57934;" /><glyph d="M300 706H374L471 575L412 529L331 634L213 528L163 580ZM476 21Q456 -93 392 -153Q328 -213 216 -213Q123 -213 73 -180Q23 -147 6 -92L111 -53Q116 -68 123.5 -81.5Q131 -95 143 -105Q155 -115 173 -120.5Q191 -126 218 -126Q252 -126 277 -114Q302 -102 319 -81.5Q336 -61 346.5 -34.5Q357 -8 363 22L373 76Q352 49 315 28Q278 7 227 7Q184 7 148.5 21.5Q113 36 88 62Q63 88 49.5 125.5Q36 163 36 210Q36 271 56 322Q76 373 110 410Q144 447 188.5 467Q233 487 283 487Q344 487 382 462.5Q420 438 435 404L447 474H556ZM404 252Q410 290 403.5 317.5Q397 345 381.5 362.5Q366 380 344 388.5Q322 397 298 397Q265 397 238.5 382.5Q212 368 192.5 343Q173 318 162.5 284Q152 250 152 212Q152 161 178 129Q204 97 257 97Q279 97 302 104Q325 111 344.5 127Q364 143 378.5 167Q393 191 399 226Z" glyph-name="gcircumflex" horiz-adv-x="587" unicode="&#285;" /><glyph d="M321 304H574L520 0H420L430 61Q413 33 373.5 10Q334 -13 279 -13Q223 -13 181.5 7Q140 27 112.5 61Q85 95 71 140Q57 185 57 236Q57 304 77.5 366Q98 428 137 474.5Q176 521 232 548.5Q288 576 359 576Q450 576 510 538Q570 500 589 430L482 393Q473 436 442 459.5Q411 483 357 483Q317 483 283.5 465Q250 447 225.5 414.5Q201 382 187.5 336Q174 290 174 235Q174 162 206 121Q238 80 305 80Q329 80 352.5 86Q376 92 395.5 105.5Q415 119 429 139.5Q443 160 448 189L452 216H306ZM361 786H435L532 655L473 609L392 714L274 608L224 660Z" glyph-name="gcircumflex.smcp" horiz-adv-x="633" unicode="&#57931;" /><glyph d="M259 613Q259 629 265.5 650Q272 671 287.5 690Q303 709 328 722Q353 735 390 736L400 693Q388 693 375 690Q362 687 351.5 681Q341 675 333.5 666Q326 657 325 646Q330 648 338 648Q361 648 375.5 632Q390 616 390 593Q390 571 373.5 550.5Q357 530 325 530Q289 530 274 555.5Q259 581 259 613ZM476 21Q456 -93 392 -153Q328 -213 216 -213Q123 -213 73 -180Q23 -147 6 -92L111 -53Q116 -68 123.5 -81.5Q131 -95 143 -105Q155 -115 173 -120.5Q191 -126 218 -126Q252 -126 277 -114Q302 -102 319 -81.5Q336 -61 346.5 -34.5Q357 -8 363 22L373 76Q352 49 315 28Q278 7 227 7Q184 7 148.5 21.5Q113 36 88 62Q63 88 49.5 125.5Q36 163 36 210Q36 271 56 322Q76 373 110 410Q144 447 188.5 467Q233 487 283 487Q344 487 382 462.5Q420 438 435 404L447 474H556ZM404 252Q410 290 403.5 317.5Q397 345 381.5 362.5Q366 380 344 388.5Q322 397 298 397Q265 397 238.5 382.5Q212 368 192.5 343Q173 318 162.5 284Q152 250 152 212Q152 161 178 129Q204 97 257 97Q279 97 302 104Q325 111 344.5 127Q364 143 378.5 167Q393 191 399 226Z" glyph-name="gcommaaccent" horiz-adv-x="587" unicode="&#291;" /><glyph d="M321 304H574L520 0H420L430 61Q413 33 373.5 10Q334 -13 279 -13Q223 -13 181.5 7Q140 27 112.5 61Q85 95 71 140Q57 185 57 236Q57 304 77.5 366Q98 428 137 474.5Q176 521 232 548.5Q288 576 359 576Q450 576 510 538Q570 500 589 430L482 393Q473 436 442 459.5Q411 483 357 483Q317 483 283.5 465Q250 447 225.5 414.5Q201 382 187.5 336Q174 290 174 235Q174 162 206 121Q238 80 305 80Q329 80 352.5 86Q376 92 395.5 105.5Q415 119 429 139.5Q443 160 448 189L452 216H306ZM321 -134Q321 -152 314.5 -173Q308 -194 293 -212.5Q278 -231 252.5 -244.5Q227 -258 190 -259L180 -217Q192 -217 205 -214Q218 -211 228.5 -204.5Q239 -198 246.5 -189Q254 -180 255 -169Q250 -172 241 -172Q221 -171 205.5 -157.5Q190 -144 190 -118Q190 -95 206.5 -74Q223 -53 256 -53Q291 -53 306 -78Q321 -103 321 -134Z" glyph-name="gcommaaccent.smcp" horiz-adv-x="633" unicode="&#57920;" /><glyph d="M476 21Q456 -93 392 -153Q328 -213 216 -213Q123 -213 73 -180Q23 -147 6 -92L111 -53Q116 -68 123.5 -81.5Q131 -95 143 -105Q155 -115 173 -120.5Q191 -126 218 -126Q252 -126 277 -114Q302 -102 319 -81.5Q336 -61 346.5 -34.5Q357 -8 363 22L373 76Q352 49 315 28Q278 7 227 7Q184 7 148.5 21.5Q113 36 88 62Q63 88 49.5 125.5Q36 163 36 210Q36 271 56 322Q76 373 110 410Q144 447 188.5 467Q233 487 283 487Q344 487 382 462.5Q420 438 435 404L447 474H556ZM404 252Q410 290 403.5 317.5Q397 345 381.5 362.5Q366 380 344 388.5Q322 397 298 397Q265 397 238.5 382.5Q212 368 192.5 343Q173 318 162.5 284Q152 250 152 212Q152 161 178 129Q204 97 257 97Q279 97 302 104Q325 111 344.5 127Q364 143 378.5 167Q393 191 399 226ZM256 613Q256 644 275.5 663Q295 682 327 682Q359 682 378.5 663Q398 644 398 613Q398 584 378.5 564Q359 544 327 544Q295 544 275.5 564Q256 584 256 613Z" glyph-name="gdotaccent" horiz-adv-x="587" unicode="&#289;" /><glyph d="M321 304H574L520 0H420L430 61Q413 33 373.5 10Q334 -13 279 -13Q223 -13 181.5 7Q140 27 112.5 61Q85 95 71 140Q57 185 57 236Q57 304 77.5 366Q98 428 137 474.5Q176 521 232 548.5Q288 576 359 576Q450 576 510 538Q570 500 589 430L482 393Q473 436 442 459.5Q411 483 357 483Q317 483 283.5 465Q250 447 225.5 414.5Q201 382 187.5 336Q174 290 174 235Q174 162 206 121Q238 80 305 80Q329 80 352.5 86Q376 92 395.5 105.5Q415 119 429 139.5Q443 160 448 189L452 216H306ZM315 689Q315 720 334.5 739Q354 758 386 758Q418 758 437.5 739Q457 720 457 689Q457 660 437.5 640Q418 620 386 620Q354 620 334.5 640Q315 660 315 689Z" glyph-name="gdotaccent.smcp" horiz-adv-x="633" unicode="&#57935;" /><glyph d="M115 482Q124 531 141.5 573.5Q159 616 187.5 647Q216 678 256.5 695.5Q297 713 350 713Q400 713 438 699.5Q476 686 501.5 662.5Q527 639 539.5 608Q552 577 552 542Q552 476 516.5 431Q481 386 424 367Q469 354 499.5 313.5Q530 273 530 215Q530 166 513.5 124Q497 82 466 51.5Q435 21 390 4Q345 -13 288 -13Q259 -13 237 -8.5Q215 -4 198 4L214 94Q227 85 247.5 80.5Q268 76 288 76Q321 76 345.5 88.5Q370 101 385.5 121.5Q401 142 408.5 166.5Q416 191 416 215Q416 263 387.5 294.5Q359 326 302 326Q297 326 292.5 325.5Q288 325 284 325H275L291 412Q295 411 299 411Q303 410 307 410Q311 410 316 410Q345 410 368 420.5Q391 431 407 448.5Q423 466 431.5 489.5Q440 513 440 539Q440 581 415.5 603Q391 625 350 625Q297 625 268.5 586.5Q240 548 229 486L143 0H30Z" glyph-name="germandbls" horiz-adv-x="576" unicode="&#223;" /><glyph d="M315 723 484 589 440 533 253 643Z" glyph-name="grave" horiz-adv-x="600" unicode="`" /><glyph d="M353 939 522 805 478 749 291 859Z" glyph-name="grave.cap" horiz-adv-x="600" unicode="&#58401;" /><glyph d="M574 373 558 277 23 54 43 166 451 330 101 495 119 596Z" glyph-name="greater" horiz-adv-x="600" unicode="&gt;" /><glyph d="M572 403 556 307 21 84 41 196 449 360 99 525 117 626Z" glyph-name="greater.cap" horiz-adv-x="600" unicode="&#58775;" /><glyph d="M505 0H11L26 91H521ZM583 441 565 340 35 142 54 250 463 394 105 538 123 636Z" glyph-name="greaterequal" horiz-adv-x="600" unicode="&#8805;" /><glyph d="M33 261 249 480 312 425 150 253 250 80 177 31ZM248 261 465 480 528 425 366 253 466 80 393 31Z" glyph-name="guillemotleft" horiz-adv-x="527" unicode="&#171;" /><glyph d="M45 331 261 550 324 495 162 323 262 150 189 101ZM260 331 477 550 540 495 378 323 478 150 405 101Z" glyph-name="guillemotleft.cap" horiz-adv-x="527" unicode="&#58451;" /><glyph d="M286 250 70 31 7 86 169 258 69 431 141 480ZM503 250 286 31 223 86 385 258 285 431 358 480Z" glyph-name="guillemotright" horiz-adv-x="528" unicode="&#187;" /><glyph d="M298 320 82 101 19 156 181 328 81 501 153 550ZM515 320 298 101 235 156 397 328 297 501 370 550Z" glyph-name="guillemotright.cap" horiz-adv-x="528" unicode="&#58452;" /><glyph d="M33 261 249 480 312 425 150 253 250 80 178 31Z" glyph-name="guilsinglleft" horiz-adv-x="311" unicode="&#8249;" /><glyph d="M45 331 261 550 324 495 162 323 262 150 189 101Z" glyph-name="guilsinglleft.cap" horiz-adv-x="310" unicode="&#58449;" /><glyph d="M286 250 70 31 7 86 169 258 69 431 141 480Z" glyph-name="guilsinglright" horiz-adv-x="312" unicode="&#8250;" /><glyph d="M298 320 82 101 19 156 181 328 81 501 153 550Z" glyph-name="guilsinglright.cap" horiz-adv-x="312" unicode="&#58450;" /><glyph d="M154 700H267L216 408Q239 441 278 464Q317 487 366 487Q401 487 431 477Q461 467 481 445.5Q501 424 509 391Q517 358 509 313L453 0H340L392 298Q401 350 378.5 372Q356 394 319 394Q299 394 278.5 385Q258 376 240 357.5Q222 339 208 311.5Q194 284 188 247L144 0H30Z" glyph-name="h" horiz-adv-x="561" unicode="h" /><glyph d="M138 564H250L211 337H437L477 564H589L490 0H378L421 244H194L151 0H39Z" glyph-name="h.smcp" horiz-adv-x="613" unicode="&#57864;" /><glyph d="M145 733H227L194 548Q209 569 233.5 583.5Q258 598 290 598Q312 598 331 591.5Q350 585 363 571.5Q376 558 381 536.5Q386 515 381 486L346 288H264L297 473Q303 506 289.5 518.5Q276 531 253 531Q231 531 207.5 510.5Q184 490 176 443L148 288H66Z" glyph-name="h.superior" horiz-adv-x="390" unicode="&#58216;" /><glyph d="M126 545H68L83 629H141L154 700H267L254 629H409L394 545H240L216 408Q239 441 278 464Q317 487 366 487Q401 487 431 477Q461 467 481 445.5Q501 424 509 391Q517 358 509 313L453 0H340L392 298Q401 350 378.5 372Q356 394 319 394Q299 394 278.5 385Q258 376 240 357.5Q222 339 208 311.5Q194 284 188 247L144 0H30Z" glyph-name="hbar" horiz-adv-x="561" unicode="&#295;" /><glyph d="M109 403H53L66 481H123L138 564H250L236 481H462L477 564H589L574 481H632L618 403H560L490 0H378L421 244H194L151 0H39ZM437 337 448 403H222L211 337Z" glyph-name="hbar.smcp" horiz-adv-x="613" unicode="&#57943;" /><glyph d="M154 700H267L216 408Q239 441 278 464Q317 487 366 487Q401 487 431 477Q461 467 481 445.5Q501 424 509 391Q517 358 509 313L453 0H340L392 298Q401 350 378.5 372Q356 394 319 394Q299 394 278.5 385Q258 376 240 357.5Q222 339 208 311.5Q194 284 188 247L144 0H30ZM378 794 319 746 238 846 116 745 66 799 202 912H286Z" glyph-name="hcircumflex" horiz-adv-x="561" unicode="&#293;" /><glyph d="M355 786H429L526 655L467 609L386 714L268 608L218 660ZM138 564H250L211 337H437L477 564H589L490 0H378L421 244H194L151 0H39Z" glyph-name="hcircumflex.smcp" horiz-adv-x="613" unicode="&#57939;" /><glyph d="M367 651 159 533 128 594 325 733ZM601 651 393 533 362 594 558 733Z" glyph-name="hungarumlaut" horiz-adv-x="600" unicode="&#733;" /><glyph d="M405 867 198 749 167 810 363 949ZM639 867 431 749 400 810 597 949Z" glyph-name="hungarumlaut.cap" horiz-adv-x="600" unicode="&#58411;" /><glyph d="M74 331H338L323 245H58Z" glyph-name="hyphen" horiz-adv-x="379" unicode="-" /><glyph d="M87 404H351L336 318H71Z" glyph-name="hyphen.cap" horiz-adv-x="379" unicode="&#58498;" /><glyph d="M126 643Q126 675 145.5 693.5Q165 712 196 712Q228 712 247.5 693.5Q267 675 267 643Q267 614 247.5 594Q228 574 196 574Q164 574 145 594Q126 614 126 643ZM114 474H227L144 0H30Z" glyph-name="i" horiz-adv-x="258" unicode="i" /><glyph d="M138 564H250L151 0H39Z" glyph-name="i.smcp" horiz-adv-x="274" unicode="&#57865;" /><glyph d="M121 589H203L150 288H68ZM128 692Q128 715 141.5 728Q155 741 177 741Q200 741 214 728Q228 715 228 692Q228 672 214.5 658Q201 644 177 644Q154 644 141 658Q128 672 128 692Z" glyph-name="i.superior" horiz-adv-x="196" unicode="&#58217;" /><glyph d="M313 638 97 533 70 597 276 724ZM114 474H227L144 0H30Z" glyph-name="iacute" horiz-adv-x="258" unicode="&#237;" /><glyph d="M330 715 114 610 87 674 293 801ZM138 564H250L151 0H39Z" glyph-name="iacute.smcp" horiz-adv-x="274" unicode="&#57944;" /><glyph d="M114 474H227L144 0H30ZM118 688Q118 659 136.5 638.5Q155 618 187 618Q219 618 243.5 638.5Q268 659 276 688L360 664Q342 613 295.5 579Q249 545 183 545Q118 545 77.5 578.5Q37 612 34 664Z" glyph-name="ibreve" horiz-adv-x="258" unicode="&#301;" /><glyph d="M138 564H250L151 0H39ZM139 760Q139 731 157.5 710.5Q176 690 208 690Q240 690 264.5 710.5Q289 731 297 760L381 736Q363 685 316.5 651Q270 617 204 617Q139 617 98.5 650.5Q58 684 55 736Z" glyph-name="ibreve.smcp" horiz-adv-x="274" unicode="&#57951;" /><glyph d="M165 706H239L336 575L277 529L196 634L78 528L28 580ZM114 474H227L144 0H30Z" glyph-name="icircumflex" horiz-adv-x="258" unicode="&#238;" /><glyph d="M186 786H260L357 655L298 609L217 714L99 608L49 660ZM138 564H250L151 0H39Z" glyph-name="icircumflex.smcp" horiz-adv-x="274" unicode="&#57946;" /><glyph d="M21 607Q21 635 39 652.5Q57 670 86 670Q115 670 133 652.5Q151 635 151 607Q151 581 133 562.5Q115 544 86 544Q57 544 39 562.5Q21 581 21 607ZM225 607Q225 635 243 652.5Q261 670 290 670Q319 670 337 652.5Q355 635 355 607Q355 581 337 562.5Q319 544 290 544Q261 544 243 562.5Q225 581 225 607ZM114 474H227L144 0H30Z" glyph-name="idieresis" horiz-adv-x="258" unicode="&#239;" /><glyph d="M43 686Q43 714 61 731.5Q79 749 108 749Q137 749 155 731.5Q173 714 173 686Q173 660 155 641.5Q137 623 108 623Q79 623 61 641.5Q43 660 43 686ZM247 686Q247 714 265 731.5Q283 749 312 749Q341 749 359 731.5Q377 714 377 686Q377 660 359 641.5Q341 623 312 623Q283 623 265 641.5Q247 660 247 686ZM138 564H250L151 0H39Z" glyph-name="idieresis.smcp" horiz-adv-x="274" unicode="&#57947;" /><glyph d="M114 474H227L144 0H30ZM125 644Q125 675 144.5 694Q164 713 196 713Q228 713 247.5 694Q267 675 267 644Q267 615 247.5 595Q228 575 196 575Q164 575 144.5 595Q125 615 125 644Z" glyph-name="idotaccent" horiz-adv-x="258" unicode="&#59269;" /><glyph d="M138 564H250L151 0H39ZM140 689Q140 720 159.5 739Q179 758 211 758Q243 758 262.5 739Q282 720 282 689Q282 660 262.5 640Q243 620 211 620Q179 620 159.5 640Q140 660 140 689Z" glyph-name="idotaccent.smcp" horiz-adv-x="274" unicode="&#57954;" /><glyph d="M114 474H227L144 0H30ZM140 723 309 589 265 533 78 643Z" glyph-name="igrave" horiz-adv-x="258" unicode="&#236;" /><glyph d="M138 564H250L151 0H39ZM160 800 329 666 285 610 98 720Z" glyph-name="igrave.smcp" horiz-adv-x="274" unicode="&#57945;" /><glyph d="M126 643Q126 675 145.5 693.5Q165 712 196 712Q228 712 247.5 693.5Q267 675 267 643Q267 614 247.5 594Q228 574 196 574Q164 574 145 594Q126 614 126 643ZM114 474H227L144 0H30ZM375 474H488L396 -54Q382 -137 332.5 -175Q283 -213 216 -213Q177 -213 146 -202.5Q115 -192 95 -175L152 -94Q162 -103 177 -111Q192 -119 212 -119Q241 -119 259 -99.5Q277 -80 283 -48ZM387 643Q387 675 406.5 693.5Q426 712 457 712Q489 712 508.5 693.5Q528 675 528 643Q528 614 508.5 594Q489 574 457 574Q425 574 406 594Q387 614 387 643Z" glyph-name="ij" horiz-adv-x="519" unicode="&#307;" /><glyph d="M390 81Q425 81 443 106Q461 131 471 184L538 564H650L583 184Q575 140 563 104Q551 68 529 42Q507 16 473.5 1.5Q440 -13 389 -13Q324 -13 288.5 7Q253 27 234 55L318 127Q334 105 349.5 93Q365 81 390 81ZM138 564H250L151 0H39Z" glyph-name="ij.smcp" horiz-adv-x="669" unicode="&#58151;" /><glyph d="M114 474H227L144 0H30ZM57 630H330L317 556H44Z" glyph-name="imacron" horiz-adv-x="258" unicode="&#299;" /><glyph d="M75 699H348L335 625H62ZM138 564H250L151 0H39Z" glyph-name="imacron.smcp" horiz-adv-x="274" unicode="&#57950;" /><glyph d="M556 138Q502 138 464.5 166Q427 194 400 245Q354 191 311 164.5Q268 138 217 138Q185 138 156 148Q127 158 105 178.5Q83 199 70 230.5Q57 262 57 305Q57 355 74.5 393.5Q92 432 120.5 458.5Q149 485 186.5 498.5Q224 512 264 512Q319 512 356 485.5Q393 459 422 405Q467 460 510.5 486Q554 512 606 512Q637 512 666 501.5Q695 491 717 470Q739 449 752 418Q765 387 765 346Q765 296 747 257Q729 218 700 191.5Q671 165 633.5 151.5Q596 138 556 138ZM362 326Q347 368 322.5 396Q298 424 258 424Q237 424 218.5 416Q200 408 186 393Q172 378 164 357Q156 336 156 310Q156 267 176.5 246.5Q197 226 228 226Q249 226 267.5 234.5Q286 243 302.5 257Q319 271 334 289Q349 307 362 326ZM460 324Q466 306 475 288Q484 270 496 256.5Q508 243 524.5 234.5Q541 226 563 226Q605 226 635.5 256.5Q666 287 666 340Q666 384 644.5 404Q623 424 592 424Q553 424 521 394.5Q489 365 460 324Z" glyph-name="infinity" horiz-adv-x="791" unicode="&#8734;" /><glyph d="M176 551Q184 597 202 628Q220 659 244 678Q268 697 296 705Q324 713 352 713Q390 713 418.5 702Q447 691 464 677L405 593Q397 603 384.5 611Q372 619 354 619Q301 619 287 541L193 11Q185 -34 167 -65Q149 -96 125 -115Q101 -134 73 -142.5Q45 -151 16 -151Q-22 -151 -50 -140.5Q-78 -130 -96 -116L-36 -31Q-28 -41 -16 -49Q-4 -57 14 -57Q68 -57 82 21Z" glyph-name="integral" horiz-adv-x="353" unicode="&#8747;" /><glyph d="M540 533Q540 467 501.5 420Q463 373 405 340Q385 329 367.5 318.5Q350 308 336 295.5Q322 283 312 268Q302 253 298 233L292 205H210L275 615Q255 607 239.5 593.5Q224 580 213 563Q202 546 194.5 526.5Q187 507 183 488L73 507Q99 605 166.5 659Q234 713 331 713Q383 713 422.5 698.5Q462 684 488 659.5Q514 635 527 602.5Q540 570 540 533ZM167 62Q167 93 186 112Q205 131 237 131Q269 131 288 112Q307 93 307 62Q307 32 288 12Q269 -8 237 -8Q205 -8 186 12Q167 32 167 62ZM425 530Q425 556 413.5 580Q402 604 373 616L330 400Q348 412 365 424.5Q382 437 395.5 452.5Q409 468 417 487Q425 506 425 530Z" glyph-name="interrobang" horiz-adv-x="520" unicode="&#8253;" /><glyph d="M-14 -33Q-14 33 24.5 80Q63 127 121 160Q141 171 158.5 181.5Q176 192 190 204.5Q204 217 214 232Q224 247 228 267L234 295H316L251 -115Q271 -107 286 -93.5Q301 -80 312.5 -63Q324 -46 331.5 -26.5Q339 -7 343 12L453 -7Q427 -105 359.5 -159Q292 -213 195 -213Q142 -213 103 -198.5Q64 -184 38 -159.5Q12 -135 -1 -102.5Q-14 -70 -14 -33ZM359 438Q359 407 340 388Q321 369 289 369Q257 369 238 388Q219 407 219 438Q219 468 238 488Q257 508 289 508Q321 508 340 488Q359 468 359 438ZM101 -30Q101 -56 112.5 -80Q124 -104 153 -116L196 100Q178 88 161 75.5Q144 63 130.5 47.5Q117 32 109 13Q101 -6 101 -30Z" glyph-name="interrobangdown" horiz-adv-x="518" unicode="&#59701;" /><glyph d="M21 167Q21 233 59.5 280Q98 327 156 360Q176 371 193.5 381.5Q211 392 225 404.5Q239 417 249 432Q259 447 263 467L269 495H351L286 85Q306 93 321 106.5Q336 120 347.5 137Q359 154 366.5 173.5Q374 193 378 212L488 193Q462 95 394.5 41Q327 -13 230 -13Q177 -13 138 1.5Q99 16 73 40.5Q47 65 34 97.5Q21 130 21 167ZM394 638Q394 607 375 588Q356 569 324 569Q292 569 273 588Q254 607 254 638Q254 668 273 688Q292 708 324 708Q356 708 375 688Q394 668 394 638ZM136 170Q136 144 147.5 120Q159 96 188 84L231 300Q213 288 196 275.5Q179 263 165.5 247.5Q152 232 144 213Q136 194 136 170Z" glyph-name="interrobangdown.cap" horiz-adv-x="524" unicode="&#59803;" /><glyph d="M23 -102Q23 -116 32.5 -125.5Q42 -135 61 -135Q74 -135 89.5 -127.5Q105 -120 117 -102L160 -147Q133 -178 103 -190Q73 -202 41 -202Q-6 -202 -33.5 -180Q-61 -158 -61 -120Q-61 -77 -35.5 -50Q-10 -23 30 0L114 474H227L144 0Q84 -29 53.5 -53.5Q23 -78 23 -102ZM126 643Q126 675 145.5 693.5Q165 712 196 712Q228 712 247.5 693.5Q267 675 267 643Q267 614 247.5 594Q228 574 196 574Q164 574 145 594Q126 614 126 643Z" glyph-name="iogonek" horiz-adv-x="258" unicode="&#303;" /><glyph d="M31 -102Q31 -116 40.5 -125.5Q50 -135 69 -135Q82 -135 97.5 -127.5Q113 -120 125 -102L168 -147Q141 -178 111 -190Q81 -202 49 -202Q2 -202 -25.5 -180Q-53 -158 -53 -120Q-53 -77 -27.5 -50Q-2 -23 39 0L138 564H250L151 0Q91 -29 61 -53.5Q31 -78 31 -102Z" glyph-name="iogonek.smcp" horiz-adv-x="274" unicode="&#63054;" /><glyph d="M114 474H227L144 0H30ZM119 675Q146 675 164.5 666.5Q183 658 198 648.5Q213 639 226.5 630.5Q240 622 257 622Q272 622 284 629.5Q296 637 304 646Q314 657 320 671L373 622Q360 601 342 585Q326 571 303 559.5Q280 548 248 548Q222 548 203.5 556.5Q185 565 170.5 574.5Q156 584 142.5 592.5Q129 601 112 601Q95 601 82.5 593.5Q70 586 62 577Q52 566 46 553L-5 602Q7 622 25 638Q40 652 63.5 663.5Q87 675 119 675Z" glyph-name="itilde" horiz-adv-x="258" unicode="&#297;" /><glyph d="M138 564H250L151 0H39ZM141 748Q168 748 186.5 739.5Q205 731 220 721.5Q235 712 248.5 703.5Q262 695 279 695Q294 695 306 702.5Q318 710 326 719Q336 730 342 744L395 695Q382 674 364 658Q348 644 325 632.5Q302 621 270 621Q244 621 225.5 629.5Q207 638 192.5 647.5Q178 657 164.5 665.5Q151 674 134 674Q117 674 104.5 666.5Q92 659 84 650Q74 639 68 626L17 675Q29 695 47 711Q62 725 85.5 736.5Q109 748 141 748Z" glyph-name="itilde.smcp" horiz-adv-x="274" unicode="&#57948;" /><glyph d="M116 474H229L137 -54Q123 -137 73.5 -175Q24 -213 -43 -213Q-82 -213 -113 -202.5Q-144 -192 -164 -175L-107 -94Q-97 -103 -82 -111Q-67 -119 -47 -119Q-18 -119 0 -99.5Q18 -80 24 -48ZM128 643Q128 675 147.5 693.5Q167 712 198 712Q230 712 249.5 693.5Q269 675 269 643Q269 614 249.5 594Q230 574 198 574Q166 574 147 594Q128 614 128 643Z" glyph-name="j" horiz-adv-x="260" unicode="j" /><glyph d="M128 81Q163 81 181 106Q199 131 209 184L276 564H388L321 184Q313 140 301 104Q289 68 267 42Q245 16 211.5 1.5Q178 -13 127 -13Q62 -13 26.5 7Q-9 27 -28 55L56 127Q72 105 87.5 93Q103 81 128 81Z" glyph-name="j.smcp" horiz-adv-x="406" unicode="&#57866;" /><glyph d="M129 589H211L153 255Q143 201 110 177Q77 153 32 153Q6 153 -15 160Q-36 167 -49 178L-8 235Q-2 229 7.5 224Q17 219 29 219Q63 219 71 260ZM137 692Q137 715 150.5 728Q164 741 186 741Q208 741 222 728Q236 715 236 692Q236 672 222.5 658Q209 644 186 644Q163 644 150 658Q137 672 137 692Z" glyph-name="j.superior" horiz-adv-x="204" unicode="&#58218;" /><glyph d="M116 474H230L137 -55Q130 -97 113.5 -126.5Q97 -156 73.5 -175.5Q50 -195 20 -204Q-10 -213 -43 -213Q-82 -213 -113 -202.5Q-144 -192 -164 -175L-107 -94Q-97 -103 -82 -111Q-67 -119 -47 -119Q-18 -119 0.5 -100Q19 -81 24 -49ZM168 706H242L339 575L280 529L199 634L81 528L31 580Z" glyph-name="jcircumflex" horiz-adv-x="261" unicode="&#309;" /><glyph d="M324 786H398L495 655L436 609L355 714L237 608L187 660ZM128 81Q163 81 181 106Q199 131 209 184L276 564H388L321 184Q313 140 301 104Q289 68 267 42Q245 16 211.5 1.5Q178 -13 127 -13Q62 -13 26.5 7Q-9 27 -28 55L56 127Q72 105 87.5 93Q103 81 128 81Z" glyph-name="jcircumflex.smcp" horiz-adv-x="406" unicode="&#63027;" /><glyph d="M235 233 177 187 144 0H30L153 700H267L198 310L404 474H544L324 298L484 0H358Z" glyph-name="k" horiz-adv-x="531" unicode="k" /><glyph d="M249 255 186 198 151 0H39L138 564H250L213 349L446 564H583L335 332L500 0H373Z" glyph-name="k.smcp" horiz-adv-x="555" unicode="&#57867;" /><glyph d="M204 431 169 403 148 288H66L144 733H226L184 492L309 589H407L267 478L368 288H278Z" glyph-name="k.superior" horiz-adv-x="373" unicode="&#58219;" /><glyph d="M291 -134Q291 -152 284.5 -173Q278 -194 263 -212.5Q248 -231 222.5 -244.5Q197 -258 160 -259L150 -217Q162 -217 175 -214Q188 -211 198.5 -204.5Q209 -198 216.5 -189Q224 -180 225 -169Q220 -172 211 -172Q191 -171 175.5 -157.5Q160 -144 160 -118Q160 -95 176.5 -74Q193 -53 226 -53Q261 -53 276 -78Q291 -103 291 -134ZM235 233 177 187 144 0H30L153 700H267L198 310L404 474H544L324 298L484 0H358Z" glyph-name="kcommaaccent" horiz-adv-x="531" unicode="&#311;" /><glyph d="M307 -134Q307 -152 300.5 -173Q294 -194 279 -212.5Q264 -231 238.5 -244.5Q213 -258 176 -259L166 -217Q178 -217 191 -214Q204 -211 214.5 -204.5Q225 -198 232.5 -189Q240 -180 241 -169Q236 -172 227 -172Q207 -171 191.5 -157.5Q176 -144 176 -118Q176 -95 192.5 -74Q209 -53 242 -53Q277 -53 292 -78Q307 -103 307 -134ZM249 255 186 198 151 0H39L138 564H250L213 349L446 564H583L335 332L500 0H373Z" glyph-name="kcommaaccent.smcp" horiz-adv-x="555" unicode="&#57960;" /><glyph d="M236 231 176 184 144 0H30L114 474H227L198 310L404 474H544L324 298L484 0H358Z" glyph-name="kgreenlandic" horiz-adv-x="531" unicode="&#312;" /><glyph d="M153 700H267L144 0H30Z" glyph-name="l" horiz-adv-x="258" unicode="l" /><glyph d="M138 564H250L168 93H415L399 0H39Z" glyph-name="l.smcp" horiz-adv-x="460" unicode="&#57868;" /><glyph d="M144 733H226L148 288H66Z" glyph-name="l.superior" horiz-adv-x="197" unicode="&#58220;" /><glyph d="M347 853 131 748 104 812 310 939ZM153 700H267L144 0H30Z" glyph-name="lacute" horiz-adv-x="258" unicode="&#314;" /><glyph d="M138 564H250L168 93H415L399 0H39ZM384 715 168 610 141 674 347 801Z" glyph-name="lacute.smcp" horiz-adv-x="460" unicode="&#57963;" /><glyph d="M447 704 353 532 291 552 364 731ZM153 700H267L144 0H30Z" glyph-name="lcaron" horiz-adv-x="258" unicode="&#318;" /><glyph d="M445 563 351 391 289 411 362 590ZM138 564H250L168 93H415L399 0H39Z" glyph-name="lcaron.smcp" horiz-adv-x="460" unicode="&#57964;" /><glyph d="M137 -134Q137 -152 130.5 -173Q124 -194 109 -212.5Q94 -231 68.5 -244.5Q43 -258 6 -259L-4 -217Q8 -217 21 -214Q34 -211 44.5 -204.5Q55 -198 62.5 -189Q70 -180 71 -169Q66 -172 57 -172Q37 -171 21.5 -157.5Q6 -144 6 -118Q6 -95 22.5 -74Q39 -53 72 -53Q107 -53 122 -78Q137 -103 137 -134ZM153 700H267L144 0H30Z" glyph-name="lcommaaccent" horiz-adv-x="258" unicode="&#316;" /><glyph d="M272 -134Q272 -152 265.5 -173Q259 -194 244 -212.5Q229 -231 203.5 -244.5Q178 -258 141 -259L131 -217Q143 -217 156 -214Q169 -211 179.5 -204.5Q190 -198 197.5 -189Q205 -180 206 -169Q201 -172 192 -172Q172 -171 156.5 -157.5Q141 -144 141 -118Q141 -95 157.5 -74Q174 -53 207 -53Q242 -53 257 -78Q272 -103 272 -134ZM138 564H250L168 93H415L399 0H39Z" glyph-name="lcommaaccent.smcp" horiz-adv-x="460" unicode="&#57965;" /><glyph d="M153 700H267L144 0H30ZM253 350Q253 381 272.5 400Q292 419 324 419Q356 419 375.5 400Q395 381 395 350Q395 321 375.5 301Q356 281 324 281Q292 281 272.5 301Q253 321 253 350Z" glyph-name="ldot" horiz-adv-x="406" unicode="&#320;" /><glyph d="M138 564H250L168 93H415L399 0H39ZM277 298Q277 329 296.5 348Q316 367 348 367Q380 367 399.5 348Q419 329 419 298Q419 269 399.5 249Q380 229 348 229Q316 229 296.5 249Q277 269 277 298Z" glyph-name="ldot.smcp" horiz-adv-x="460" unicode="&#57969;" /><glyph d="M57 277 73 372 608 596 588 483 180 319 530 155 512 53Z" glyph-name="less" horiz-adv-x="600" unicode="&lt;" /><glyph d="M58 308 74 403 609 627 589 514 181 350 531 186 513 84Z" glyph-name="less.cap" horiz-adv-x="600" unicode="&#58774;" /><glyph d="M26 91H521L505 0H11ZM71 337 88 439 618 636 599 528 190 384 548 241 530 142Z" glyph-name="lessequal" horiz-adv-x="600" unicode="&#8804;" /><glyph d="M76 371H571L528 127H431L458 278H59Z" glyph-name="logicalnot" horiz-adv-x="600" unicode="&#172;" /><glyph d="M552 348 311 0H192L75 352L316 700H435ZM193 346 269 112 435 355 359 589Z" glyph-name="lozenge" horiz-adv-x="587" unicode="&#9674;" /><glyph d="M108 278 44 244 14 322 126 382 182 700H296L252 450L334 494L366 417L234 346L173 0H59Z" glyph-name="lslash" horiz-adv-x="322" unicode="&#322;" /><glyph d="M81 183 31 157 2 233 98 283 148 564H260L222 347L330 403L358 327L205 247L178 93H425L409 0H49Z" glyph-name="lslash.smcp" horiz-adv-x="470" unicode="&#57970;" /><glyph d="M433 0H320L372 298Q381 350 360.5 372Q340 394 309 394Q291 394 272 385Q253 376 236.5 358Q220 340 206.5 312.5Q193 285 187 248L144 0H30L114 474H222L210 401Q235 441 272 464Q309 487 356 487Q406 487 437.5 464.5Q469 442 481 401Q504 436 547.5 461.5Q591 487 645 487Q678 487 706 477Q734 467 752.5 445.5Q771 424 778.5 391Q786 358 778 313L723 0H609L661 298Q670 350 649.5 372Q629 394 598 394Q580 394 561.5 385Q543 376 526.5 358Q510 340 496.5 312.5Q483 285 477 248Z" glyph-name="m" horiz-adv-x="831" unicode="m" /><glyph d="M289 0Q282 34 271.5 89.5Q261 145 250 205.5Q239 266 229.5 323.5Q220 381 216 420H214L140 0H39L138 564H288Q306 458 321 368Q327 330 333.5 291.5Q340 253 345.5 220.5Q351 188 355 163.5Q359 139 361 129Q366 139 378 163.5Q390 188 406.5 220.5Q423 253 442 291.5Q461 330 481 368Q527 458 581 564H737L638 0H537L611 420H609Q597 394 578.5 358Q560 322 538.5 281Q517 240 495 198Q473 156 452.5 118Q432 80 415.5 49Q399 18 389 0Z" glyph-name="m.smcp" horiz-adv-x="761" unicode="&#57869;" /><glyph d="M120 589H198L190 543Q207 569 230.5 583.5Q254 598 284 598Q316 598 336.5 583.5Q357 569 365 543Q380 565 408 581.5Q436 598 471 598Q492 598 510 591.5Q528 585 540 571.5Q552 558 557 536.5Q562 515 557 486L521 288H439L472 473Q478 505 466 518Q454 531 434 531Q414 531 392 511Q370 491 362 444L334 288H253L285 473Q291 505 279.5 518Q268 531 248 531Q227 531 205.5 511Q184 491 176 444L148 288H66Z" glyph-name="m.superior" horiz-adv-x="565" unicode="&#58221;" /><glyph d="M232 630H505L492 556H219Z" glyph-name="macron" horiz-adv-x="600" unicode="&#175;" /><glyph d="M270 850H544L531 775H257Z" glyph-name="macron.cap" horiz-adv-x="600" unicode="&#58405;" /><glyph d="M551 236Q551 184 531 138.5Q511 93 477 59Q443 25 397 5.5Q351 -14 299 -14Q248 -14 202.5 5.5Q157 25 123 59Q89 93 69 138.5Q49 184 49 236Q49 288 69 333.5Q89 379 123 413Q157 447 202.5 466.5Q248 486 299 486Q351 486 397 466.5Q443 447 477 413Q511 379 531 333.5Q551 288 551 236Z" glyph-name="mediumblackcircle" horiz-adv-x="600" unicode="&#9899;" /><glyph d="M50 237Q50 289 69.5 334.5Q89 380 123 414Q157 448 202.5 467.5Q248 487 300 487Q352 487 397.5 467.5Q443 448 477 414Q511 380 530.5 334.5Q550 289 550 237Q550 185 530.5 139.5Q511 94 477 60Q443 26 397.5 6.5Q352 -13 300 -13Q248 -13 202.5 6.5Q157 26 123 60Q89 94 69.5 139.5Q50 185 50 237ZM468 237Q468 274 455 306Q442 338 419 362Q396 386 365.5 399.5Q335 413 300 413Q265 413 234.5 399.5Q204 386 181 362Q158 338 145 306Q132 274 132 237Q132 200 145 168Q158 136 181 112Q204 88 234.5 74.5Q265 61 300 61Q335 61 365.5 74.5Q396 88 419 112Q442 136 455 168Q468 200 468 237Z" glyph-name="mediumwhitecircle" horiz-adv-x="600" unicode="&#9898;" /><glyph d="M75 370H571L555 279H59Z" glyph-name="minus" horiz-adv-x="600" unicode="&#8722;" /><glyph d="M81 406H627L611 315H65Z" glyph-name="minus.cap" horiz-adv-x="650" unicode="&#58770;" /><glyph d="M10 36H292L279 -41H-4Z" glyph-name="minus.inf" horiz-adv-x="373" unicode="&#58748;" /><glyph d="M450 0H342L354 73Q327 34 288.5 10.5Q250 -13 202 -13Q170 -13 144 0L108 -199H-5L114 474H227L175 176Q170 150 174 131.5Q178 113 188 101.5Q198 90 213.5 85Q229 80 247 80Q266 80 286 89Q306 98 324 116.5Q342 135 356 162.5Q370 190 377 227L420 474H534Z" glyph-name="mu" horiz-adv-x="564" unicode="&#181;" /><glyph d="M445 92 308 258 113 91 55 161 250 327 116 491 189 553 323 390 516 554 574 484 381 319 518 153Z" glyph-name="multiply" horiz-adv-x="600" unicode="&#215;" /><glyph d="M490 111 339 294 120 108 62 178 281 363 130 547 203 609 353 426 572 612 630 542 412 355 563 173Z" glyph-name="multiply.cap" horiz-adv-x="650" unicode="&#58771;" /><glyph d="M114 474H222L210 401Q237 440 276.5 463.5Q316 487 365 487Q400 487 430 477Q460 467 480 445.5Q500 424 508 391Q516 358 508 313L453 0H339L392 297Q401 350 378 372Q355 394 318 394Q299 394 278.5 385Q258 376 240 357.5Q222 339 208 311.5Q194 284 187 247L144 0H30Z" glyph-name="n" horiz-adv-x="561" unicode="n" /><glyph d="M138 564H253Q292 476 327 399Q342 366 357 331.5Q372 297 386 265.5Q400 234 411.5 208Q423 182 430 165H432L502 564H605L506 0H391Q353 85 319 162Q304 195 289 229Q274 263 260 294.5Q246 326 234.5 353Q223 380 215 399H213L142 0H39Z" glyph-name="n.smcp" horiz-adv-x="629" unicode="&#57870;" /><glyph d="M120 589H198L190 543Q207 568 232.5 583Q258 598 290 598Q312 598 331 591.5Q350 585 363 571.5Q376 558 381 536.5Q386 515 381 486L346 288H264L297 473Q303 506 289.5 518.5Q276 531 253 531Q231 531 207.5 510Q184 489 176 443L148 288H66Z" glyph-name="n.superior" horiz-adv-x="390" unicode="&#8319;" /><glyph d="M492 638 276 533 249 597 455 724ZM114 474H222L210 401Q237 440 276.5 463.5Q316 487 365 487Q400 487 430 477Q460 467 480 445.5Q500 424 508 391Q516 358 508 313L453 0H339L392 297Q401 350 378 372Q355 394 318 394Q299 394 278.5 385Q258 376 240 357.5Q222 339 208 311.5Q194 284 187 247L144 0H30Z" glyph-name="nacute" horiz-adv-x="561" unicode="&#324;" /><glyph d="M529 715 313 610 286 674 492 801ZM138 564H253Q292 476 327 399Q342 366 357 331.5Q372 297 386 265.5Q400 234 411.5 208Q423 182 430 165H432L502 564H605L506 0H391Q353 85 319 162Q304 195 289 229Q274 263 260 294.5Q246 326 234.5 353Q223 380 215 399H213L142 0H39Z" glyph-name="nacute.smcp" horiz-adv-x="629" unicode="&#57974;" /><glyph d="M373 534H299L205 665L264 711L342 606L460 712L510 660ZM114 474H222L210 401Q237 440 276.5 463.5Q316 487 365 487Q400 487 430 477Q460 467 480 445.5Q500 424 508 391Q516 358 508 313L453 0H339L392 297Q401 350 378 372Q355 394 318 394Q299 394 278.5 385Q258 376 240 357.5Q222 339 208 311.5Q194 284 187 247L144 0H30Z" glyph-name="ncaron" horiz-adv-x="561" unicode="&#328;" /><glyph d="M411 612H337L243 743L302 789L380 684L498 790L548 738ZM138 564H253Q292 476 327 399Q342 366 357 331.5Q372 297 386 265.5Q400 234 411.5 208Q423 182 430 165H432L502 564H605L506 0H391Q353 85 319 162Q304 195 289 229Q274 263 260 294.5Q246 326 234.5 353Q223 380 215 399H213L142 0H39Z" glyph-name="ncaron.smcp" horiz-adv-x="629" unicode="&#57978;" /><glyph d="M295 -134Q295 -152 288.5 -173Q282 -194 267 -212.5Q252 -231 226.5 -244.5Q201 -258 164 -259L154 -217Q166 -217 179 -214Q192 -211 202.5 -204.5Q213 -198 220.5 -189Q228 -180 229 -169Q224 -172 215 -172Q195 -171 179.5 -157.5Q164 -144 164 -118Q164 -95 180.5 -74Q197 -53 230 -53Q265 -53 280 -78Q295 -103 295 -134ZM114 474H222L210 401Q237 440 276.5 463.5Q316 487 365 487Q400 487 430 477Q460 467 480 445.5Q500 424 508 391Q516 358 508 313L453 0H339L392 297Q401 350 378 372Q355 394 318 394Q299 394 278.5 385Q258 376 240 357.5Q222 339 208 311.5Q194 284 187 247L144 0H30Z" glyph-name="ncommaaccent" horiz-adv-x="561" unicode="&#326;" /><glyph d="M325 -134Q325 -152 318.5 -173Q312 -194 297 -212.5Q282 -231 256.5 -244.5Q231 -258 194 -259L184 -217Q196 -217 209 -214Q222 -211 232.5 -204.5Q243 -198 250.5 -189Q258 -180 259 -169Q254 -172 245 -172Q225 -171 209.5 -157.5Q194 -144 194 -118Q194 -95 210.5 -74Q227 -53 260 -53Q295 -53 310 -78Q325 -103 325 -134ZM138 564H253Q292 476 327 399Q342 366 357 331.5Q372 297 386 265.5Q400 234 411.5 208Q423 182 430 165H432L502 564H605L506 0H391Q353 85 319 162Q304 195 289 229Q274 263 260 294.5Q246 326 234.5 353Q223 380 215 399H213L142 0H39Z" glyph-name="ncommaaccent.smcp" horiz-adv-x="629" unicode="&#57981;" /><glyph d="M258 77Q301 77 334 96.5Q367 116 391.5 149.5Q416 183 432.5 227.5Q449 272 459 322Q449 306 432.5 290.5Q416 275 394 263Q372 251 345 243.5Q318 236 287 236Q237 236 199.5 252.5Q162 269 136.5 297.5Q111 326 98.5 363Q86 400 86 442Q86 490 103 536Q120 582 153 618.5Q186 655 233 677Q280 699 340 699Q453 699 512.5 632.5Q572 566 572 427Q572 356 555 278.5Q538 201 500 136Q462 71 402 29Q342 -13 257 -13Q210 -13 173.5 -0.5Q137 12 111.5 34Q86 56 71.5 85.5Q57 115 54 149L161 165Q162 149 167.5 133.5Q173 118 184.5 105.5Q196 93 214 85Q232 77 258 77ZM311 324Q339 324 366 334.5Q393 345 413 365.5Q433 386 445.5 415.5Q458 445 458 483Q458 537 427.5 573.5Q397 610 342 610Q313 610 287.5 599Q262 588 242 567Q222 546 210.5 515Q199 484 199 444Q199 390 228 357Q257 324 311 324Z" glyph-name="nine" horiz-adv-x="600" unicode="9" /><glyph d="M251 77Q294 77 327 96.5Q360 116 384.5 149.5Q409 183 425.5 227.5Q442 272 452 322Q442 306 425.5 290.5Q409 275 387 263Q365 251 338 243.5Q311 236 280 236Q230 236 192.5 252.5Q155 269 129.5 297.5Q104 326 91.5 363Q79 400 79 442Q79 490 96 536Q113 582 146 618.5Q179 655 226 677Q273 699 333 699Q446 699 505.5 632.5Q565 566 565 427Q565 356 548 278.5Q531 201 493 136Q455 71 395 29Q335 -13 250 -13Q203 -13 166.5 -0.5Q130 12 104.5 34Q79 56 64.5 85.5Q50 115 47 149L154 165Q155 149 160.5 133.5Q166 118 177.5 105.5Q189 93 207 85Q225 77 251 77ZM304 324Q332 324 359 334.5Q386 345 406 365.5Q426 386 438.5 415.5Q451 445 451 483Q451 537 420.5 573.5Q390 610 335 610Q306 610 280.5 599Q255 588 235 567Q215 546 203.5 515Q192 484 192 444Q192 390 221 357Q250 324 304 324Z" glyph-name="nine.LP" horiz-adv-x="589" unicode="&#58686;" /><glyph d="M258 77Q301 77 334 96.5Q367 116 391.5 149.5Q416 183 432.5 227.5Q449 272 459 322Q449 306 432.5 290.5Q416 275 394 263Q372 251 345 243.5Q318 236 287 236Q237 236 199.5 252.5Q162 269 136.5 297.5Q111 326 98.5 363Q86 400 86 442Q86 490 103 536Q120 582 153 618.5Q186 655 233 677Q280 699 340 699Q453 699 512.5 632.5Q572 566 572 427Q572 356 555 278.5Q538 201 500 136Q462 71 402 29Q342 -13 257 -13Q210 -13 173.5 -0.5Q137 12 111.5 34Q86 56 71.5 85.5Q57 115 54 149L161 165Q162 149 167.5 133.5Q173 118 184.5 105.5Q196 93 214 85Q232 77 258 77ZM311 324Q339 324 366 334.5Q393 345 413 365.5Q433 386 445.5 415.5Q458 445 458 483Q458 537 427.5 573.5Q397 610 342 610Q313 610 287.5 599Q262 588 242 567Q222 546 210.5 515Q199 484 199 444Q199 390 228 357Q257 324 311 324Z" glyph-name="nine.LT" horiz-adv-x="600" unicode="&#58697;" /><glyph d="M224 -46Q267 -46 300 -26.5Q333 -7 357 27Q381 61 397.5 105.5Q414 150 424 200Q414 184 397.5 168.5Q381 153 359 141Q337 129 310 121.5Q283 114 252 114Q202 114 165 130.5Q128 147 102.5 175Q77 203 64.5 240.5Q52 278 52 320Q52 368 69 414Q86 460 118.5 496Q151 532 198 554Q245 576 305 576Q417 576 476.5 509.5Q536 443 536 305Q536 258 528.5 207Q521 156 505 107Q489 58 464 14.5Q439 -29 404 -62Q369 -95 324 -114.5Q279 -134 222 -134Q176 -134 140 -121.5Q104 -109 78.5 -87.5Q53 -66 38.5 -36.5Q24 -7 21 27L127 43Q128 27 133.5 11Q139 -5 150.5 -17.5Q162 -30 180 -38Q198 -46 224 -46ZM277 201Q305 201 331.5 211.5Q358 222 378.5 242.5Q399 263 411.5 293Q424 323 424 362Q424 389 416 412Q408 435 393 452Q378 469 356 478.5Q334 488 307 488Q279 488 253 477Q227 466 207.5 445Q188 424 176.5 393Q165 362 165 322Q165 267 194 234Q223 201 277 201Z" glyph-name="nine.OP" horiz-adv-x="573" unicode="&#58708;" /><glyph d="M237 -46Q280 -46 313 -26.5Q346 -7 370 27Q394 61 410.5 105.5Q427 150 437 200Q427 184 410.5 168.5Q394 153 372 141Q350 129 323 121.5Q296 114 265 114Q215 114 178 130.5Q141 147 115.5 175Q90 203 77.5 240.5Q65 278 65 320Q65 368 82 414Q99 460 131.5 496Q164 532 211 554Q258 576 318 576Q430 576 489.5 509.5Q549 443 549 305Q549 258 541.5 207Q534 156 518 107Q502 58 477 14.5Q452 -29 417 -62Q382 -95 337 -114.5Q292 -134 235 -134Q189 -134 153 -121.5Q117 -109 91.5 -87.5Q66 -66 51.5 -36.5Q37 -7 34 27L140 43Q141 27 146.5 11Q152 -5 163.5 -17.5Q175 -30 193 -38Q211 -46 237 -46ZM290 201Q318 201 344.5 211.5Q371 222 391.5 242.5Q412 263 424.5 293Q437 323 437 362Q437 389 429 412Q421 435 406 452Q391 469 369 478.5Q347 488 320 488Q292 488 266 477Q240 466 220.5 445Q201 424 189.5 393Q178 362 178 322Q178 267 207 234Q236 201 290 201Z" glyph-name="nine.OT" horiz-adv-x="600" unicode="&#58719;" /><glyph d="M114 -141Q154 -141 178 -108.5Q202 -76 212 -27Q198 -47 174 -59.5Q150 -72 120 -72Q67 -72 35 -39.5Q3 -7 3 45Q3 71 13 96Q23 121 42.5 141Q62 161 90 173Q118 185 154 185Q219 185 257.5 148.5Q296 112 296 29Q296 -13 285 -55.5Q274 -98 251.5 -132Q229 -166 194.5 -187.5Q160 -209 112 -209Q54 -209 22 -183Q-10 -157 -15 -114L65 -104Q67 -120 78.5 -130.5Q90 -141 114 -141ZM140 -6Q169 -6 189.5 12.5Q210 31 210 63Q210 86 195.5 102Q181 118 154 118Q128 118 106.5 100Q85 82 85 47Q85 24 98.5 9Q112 -6 140 -6Z" glyph-name="nine.inf" horiz-adv-x="376" unicode="&#58746;" /><glyph d="M1010 317Q969 317 945 284.5Q921 252 911 203Q925 223 949 235.5Q973 248 1004 248Q1057 248 1089 215.5Q1121 183 1121 131Q1121 105 1110.5 80Q1100 55 1080.5 35Q1061 15 1033 3Q1005 -9 969 -9Q904 -9 866 27.5Q828 64 828 147Q828 189 838.5 231.5Q849 274 871.5 308Q894 342 929 363.5Q964 385 1012 385Q1070 385 1102 359Q1134 333 1138 290L1059 280Q1057 296 1045.5 306.5Q1034 317 1010 317ZM983 182Q954 182 933.5 163.5Q913 145 913 113Q913 90 928 74.5Q943 59 969 59Q995 59 1016.5 76.5Q1038 94 1038 129Q1038 152 1025 167Q1012 182 983 182ZM135 -13 699 713H800L235 -13ZM786 376 720 0H632L682 283Q651 262 600 260L595 331Q629 335 659 346.5Q689 358 709 376ZM206 383Q246 383 270 415.5Q294 448 304 497Q290 477 266 464.5Q242 452 212 452Q159 452 127 484.5Q95 517 95 569Q95 595 105 620Q115 645 134.5 665Q154 685 182 697Q210 709 246 709Q311 709 349.5 672.5Q388 636 388 553Q388 511 377 468.5Q366 426 343.5 392Q321 358 286.5 336.5Q252 315 204 315Q146 315 114 341Q82 367 77 410L157 420Q159 404 170.5 393.5Q182 383 206 383ZM232 518Q261 518 281.5 536.5Q302 555 302 587Q302 610 287.5 626Q273 642 246 642Q220 642 198.5 624Q177 606 177 571Q177 548 190.5 533Q204 518 232 518Z" glyph-name="ninesixteenths" horiz-adv-x="1170" unicode="&#61977;" /><glyph glyph-name="nonmarkingreturn" horiz-adv-x="225" /><glyph d="M91 463H375L501 622L567 578L476 463H587L571 372H404L326 274H554L538 183H254L129 25L62 70L152 183H42L58 274H224L303 372H76Z" glyph-name="notequal" horiz-adv-x="600" unicode="&#8800;" /><glyph d="M98 500H406L533 659L599 615L507 500H644L628 409H435L357 311H610L595 220H286L160 62L94 107L184 220H49L65 311H256L334 409H82Z" glyph-name="notequal.cap" horiz-adv-x="650" unicode="&#61989;" /><glyph d="M114 474H222L210 401Q237 440 276.5 463.5Q316 487 365 487Q400 487 430 477Q460 467 480 445.5Q500 424 508 391Q516 358 508 313L453 0H339L392 297Q401 350 378 372Q355 394 318 394Q299 394 278.5 385Q258 376 240 357.5Q222 339 208 311.5Q194 284 187 247L144 0H30ZM285 675Q312 675 330.5 666.5Q349 658 364 648.5Q379 639 392.5 630.5Q406 622 423 622Q438 622 450 629.5Q462 637 470 646Q480 657 486 671L539 622Q526 601 508 585Q492 571 469 559.5Q446 548 414 548Q388 548 369.5 556.5Q351 565 336.5 574.5Q322 584 308.5 592.5Q295 601 278 601Q261 601 248.5 593.5Q236 586 228 577Q218 566 212 553L161 602Q173 622 191 638Q206 652 229.5 663.5Q253 675 285 675Z" glyph-name="ntilde" horiz-adv-x="561" unicode="&#241;" /><glyph d="M138 564H253Q292 476 327 399Q342 366 357 331.5Q372 297 386 265.5Q400 234 411.5 208Q423 182 430 165H432L502 564H605L506 0H391Q353 85 319 162Q304 195 289 229Q274 263 260 294.5Q246 326 234.5 353Q223 380 215 399H213L142 0H39ZM322 748Q349 748 367.5 739.5Q386 731 401 721.5Q416 712 429.5 703.5Q443 695 460 695Q475 695 487 702.5Q499 710 507 719Q517 730 523 744L576 695Q563 674 545 658Q529 644 506 632.5Q483 621 451 621Q425 621 406.5 629.5Q388 638 373.5 647.5Q359 657 345.5 665.5Q332 674 315 674Q298 674 285.5 666.5Q273 659 265 650Q255 639 249 626L198 675Q210 695 228 711Q243 725 266.5 736.5Q290 748 322 748Z" glyph-name="ntilde.smcp" horiz-adv-x="629" unicode="&#57977;" /><glyph d="M349 199H218L148 0H61L131 199H26L41 284H161L210 423H104L117 503H239L309 700H396L326 503H456L526 700H613L544 503H654L640 423H515L466 284H578L563 199H436L365 0H278ZM248 284H378L427 423H297Z" glyph-name="numbersign" horiz-adv-x="640" unicode="#" /><glyph d="M519 271Q519 217 501 165.5Q483 114 448.5 74.5Q414 35 365 11Q316 -13 253 -13Q203 -13 163 1.5Q123 16 94.5 44Q66 72 50.5 112Q35 152 35 202Q35 256 53 307.5Q71 359 105.5 398.5Q140 438 189 462.5Q238 487 300 487Q349 487 389 472Q429 457 458 429Q487 401 503 361Q519 321 519 271ZM257 74Q293 74 320.5 92Q348 110 366.5 139Q385 168 394.5 203.5Q404 239 404 274Q404 299 398 322Q392 345 379 362.5Q366 380 345.5 390Q325 400 297 400Q261 400 233.5 382Q206 364 187.5 335Q169 306 160 270.5Q151 235 151 200Q151 174 157 151.5Q163 129 176 111.5Q189 94 209 84Q229 74 257 74Z" glyph-name="o" horiz-adv-x="554" unicode="o" /><glyph d="M300 -13Q244 -13 199.5 4Q155 21 123 52.5Q91 84 74 130Q57 176 57 235Q57 307 78 369.5Q99 432 137.5 477.5Q176 523 231.5 549.5Q287 576 356 576Q411 576 456.5 559.5Q502 543 534 511Q566 479 583.5 433Q601 387 601 329Q601 257 580 194.5Q559 132 520 86Q481 40 425 13.5Q369 -13 300 -13ZM174 236Q174 205 181.5 176.5Q189 148 205 126.5Q221 105 245.5 92.5Q270 80 304 80Q351 80 385 103.5Q419 127 441 163Q463 199 473.5 243Q484 287 484 328Q484 359 476 387Q468 415 452 436.5Q436 458 411.5 470.5Q387 483 353 483Q306 483 272.5 459.5Q239 436 217 399.5Q195 363 184.5 319.5Q174 276 174 236Z" glyph-name="o.smcp" horiz-adv-x="643" unicode="&#57871;" /><glyph d="M210 280Q147 280 107 314.5Q67 349 67 417Q67 452 79 484.5Q91 517 113.5 542.5Q136 568 167.5 583Q199 598 239 598Q269 598 295 589Q321 580 340.5 562.5Q360 545 371 519Q382 493 382 460Q382 425 370 392.5Q358 360 335.5 335Q313 310 281.5 295Q250 280 210 280ZM150 415Q150 385 164.5 363Q179 341 212 341Q234 341 250.5 352Q267 363 277.5 381Q288 399 293.5 420.5Q299 442 299 463Q299 493 284.5 514.5Q270 536 237 536Q215 536 198.5 525Q182 514 171.5 496.5Q161 479 155.5 457.5Q150 436 150 415Z" glyph-name="o.superior" horiz-adv-x="378" unicode="&#58222;" /><glyph d="M456 638 240 533 213 597 419 724ZM519 271Q519 217 501 165.5Q483 114 448.5 74.5Q414 35 365 11Q316 -13 253 -13Q203 -13 163 1.5Q123 16 94.5 44Q66 72 50.5 112Q35 152 35 202Q35 256 53 307.5Q71 359 105.5 398.5Q140 438 189 462.5Q238 487 300 487Q349 487 389 472Q429 457 458 429Q487 401 503 361Q519 321 519 271ZM257 74Q293 74 320.5 92Q348 110 366.5 139Q385 168 394.5 203.5Q404 239 404 274Q404 299 398 322Q392 345 379 362.5Q366 380 345.5 390Q325 400 297 400Q261 400 233.5 382Q206 364 187.5 335Q169 306 160 270.5Q151 235 151 200Q151 174 157 151.5Q163 129 176 111.5Q189 94 209 84Q229 74 257 74Z" glyph-name="oacute" horiz-adv-x="554" unicode="&#243;" /><glyph d="M300 -13Q244 -13 199.5 4Q155 21 123 52.5Q91 84 74 130Q57 176 57 235Q57 307 78 369.5Q99 432 137.5 477.5Q176 523 231.5 549.5Q287 576 356 576Q411 576 456.5 559.5Q502 543 534 511Q566 479 583.5 433Q601 387 601 329Q601 257 580 194.5Q559 132 520 86Q481 40 425 13.5Q369 -13 300 -13ZM174 236Q174 205 181.5 176.5Q189 148 205 126.5Q221 105 245.5 92.5Q270 80 304 80Q351 80 385 103.5Q419 127 441 163Q463 199 473.5 243Q484 287 484 328Q484 359 476 387Q468 415 452 436.5Q436 458 411.5 470.5Q387 483 353 483Q306 483 272.5 459.5Q239 436 217 399.5Q195 363 184.5 319.5Q174 276 174 236ZM510 715 294 610 267 674 473 801Z" glyph-name="oacute.smcp" horiz-adv-x="643" unicode="&#57985;" /><glyph d="M519 271Q519 217 501 165.5Q483 114 448.5 74.5Q414 35 365 11Q316 -13 253 -13Q203 -13 163 1.5Q123 16 94.5 44Q66 72 50.5 112Q35 152 35 202Q35 256 53 307.5Q71 359 105.5 398.5Q140 438 189 462.5Q238 487 300 487Q349 487 389 472Q429 457 458 429Q487 401 503 361Q519 321 519 271ZM257 74Q293 74 320.5 92Q348 110 366.5 139Q385 168 394.5 203.5Q404 239 404 274Q404 299 398 322Q392 345 379 362.5Q366 380 345.5 390Q325 400 297 400Q261 400 233.5 382Q206 364 187.5 335Q169 306 160 270.5Q151 235 151 200Q151 174 157 151.5Q163 129 176 111.5Q189 94 209 84Q229 74 257 74ZM264 688Q264 659 282.5 638.5Q301 618 333 618Q365 618 389.5 638.5Q414 659 422 688L506 664Q488 613 441.5 579Q395 545 329 545Q264 545 223.5 578.5Q183 612 180 664Z" glyph-name="obreve" horiz-adv-x="554" unicode="&#335;" /><glyph d="M300 -13Q244 -13 199.5 4Q155 21 123 52.5Q91 84 74 130Q57 176 57 235Q57 307 78 369.5Q99 432 137.5 477.5Q176 523 231.5 549.5Q287 576 356 576Q411 576 456.5 559.5Q502 543 534 511Q566 479 583.5 433Q601 387 601 329Q601 257 580 194.5Q559 132 520 86Q481 40 425 13.5Q369 -13 300 -13ZM174 236Q174 205 181.5 176.5Q189 148 205 126.5Q221 105 245.5 92.5Q270 80 304 80Q351 80 385 103.5Q419 127 441 163Q463 199 473.5 243Q484 287 484 328Q484 359 476 387Q468 415 452 436.5Q436 458 411.5 470.5Q387 483 353 483Q306 483 272.5 459.5Q239 436 217 399.5Q195 363 184.5 319.5Q174 276 174 236ZM317 760Q317 731 335.5 710.5Q354 690 386 690Q418 690 442.5 710.5Q467 731 475 760L559 736Q541 685 494.5 651Q448 617 382 617Q317 617 276.5 650.5Q236 684 233 736Z" glyph-name="obreve.smcp" horiz-adv-x="643" unicode="&#57992;" /><glyph d="M307 706H381L478 575L419 529L338 634L220 528L170 580ZM519 271Q519 217 501 165.5Q483 114 448.5 74.5Q414 35 365 11Q316 -13 253 -13Q203 -13 163 1.5Q123 16 94.5 44Q66 72 50.5 112Q35 152 35 202Q35 256 53 307.5Q71 359 105.5 398.5Q140 438 189 462.5Q238 487 300 487Q349 487 389 472Q429 457 458 429Q487 401 503 361Q519 321 519 271ZM257 74Q293 74 320.5 92Q348 110 366.5 139Q385 168 394.5 203.5Q404 239 404 274Q404 299 398 322Q392 345 379 362.5Q366 380 345.5 390Q325 400 297 400Q261 400 233.5 382Q206 364 187.5 335Q169 306 160 270.5Q151 235 151 200Q151 174 157 151.5Q163 129 176 111.5Q189 94 209 84Q229 74 257 74Z" glyph-name="ocircumflex" horiz-adv-x="554" unicode="&#244;" /><glyph d="M300 -13Q244 -13 199.5 4Q155 21 123 52.5Q91 84 74 130Q57 176 57 235Q57 307 78 369.5Q99 432 137.5 477.5Q176 523 231.5 549.5Q287 576 356 576Q411 576 456.5 559.5Q502 543 534 511Q566 479 583.5 433Q601 387 601 329Q601 257 580 194.5Q559 132 520 86Q481 40 425 13.5Q369 -13 300 -13ZM174 236Q174 205 181.5 176.5Q189 148 205 126.5Q221 105 245.5 92.5Q270 80 304 80Q351 80 385 103.5Q419 127 441 163Q463 199 473.5 243Q484 287 484 328Q484 359 476 387Q468 415 452 436.5Q436 458 411.5 470.5Q387 483 353 483Q306 483 272.5 459.5Q239 436 217 399.5Q195 363 184.5 319.5Q174 276 174 236ZM362 786H436L533 655L474 609L393 714L275 608L225 660Z" glyph-name="ocircumflex.smcp" horiz-adv-x="643" unicode="&#57987;" /><glyph d="M166 607Q166 635 184 652.5Q202 670 231 670Q260 670 278 652.5Q296 635 296 607Q296 581 278 562.5Q260 544 231 544Q202 544 184 562.5Q166 581 166 607ZM370 607Q370 635 388 652.5Q406 670 435 670Q464 670 482 652.5Q500 635 500 607Q500 581 482 562.5Q464 544 435 544Q406 544 388 562.5Q370 581 370 607ZM519 271Q519 217 501 165.5Q483 114 448.5 74.5Q414 35 365 11Q316 -13 253 -13Q203 -13 163 1.5Q123 16 94.5 44Q66 72 50.5 112Q35 152 35 202Q35 256 53 307.5Q71 359 105.5 398.5Q140 438 189 462.5Q238 487 300 487Q349 487 389 472Q429 457 458 429Q487 401 503 361Q519 321 519 271ZM257 74Q293 74 320.5 92Q348 110 366.5 139Q385 168 394.5 203.5Q404 239 404 274Q404 299 398 322Q392 345 379 362.5Q366 380 345.5 390Q325 400 297 400Q261 400 233.5 382Q206 364 187.5 335Q169 306 160 270.5Q151 235 151 200Q151 174 157 151.5Q163 129 176 111.5Q189 94 209 84Q229 74 257 74Z" glyph-name="odieresis" horiz-adv-x="554" unicode="&#246;" /><glyph d="M300 -13Q244 -13 199.5 4Q155 21 123 52.5Q91 84 74 130Q57 176 57 235Q57 307 78 369.5Q99 432 137.5 477.5Q176 523 231.5 549.5Q287 576 356 576Q411 576 456.5 559.5Q502 543 534 511Q566 479 583.5 433Q601 387 601 329Q601 257 580 194.5Q559 132 520 86Q481 40 425 13.5Q369 -13 300 -13ZM174 236Q174 205 181.5 176.5Q189 148 205 126.5Q221 105 245.5 92.5Q270 80 304 80Q351 80 385 103.5Q419 127 441 163Q463 199 473.5 243Q484 287 484 328Q484 359 476 387Q468 415 452 436.5Q436 458 411.5 470.5Q387 483 353 483Q306 483 272.5 459.5Q239 436 217 399.5Q195 363 184.5 319.5Q174 276 174 236ZM222 686Q222 714 240 731.5Q258 749 287 749Q316 749 334 731.5Q352 714 352 686Q352 660 334 641.5Q316 623 287 623Q258 623 240 641.5Q222 660 222 686ZM426 686Q426 714 444 731.5Q462 749 491 749Q520 749 538 731.5Q556 714 556 686Q556 660 538 641.5Q520 623 491 623Q462 623 444 641.5Q426 660 426 686Z" glyph-name="odieresis.smcp" horiz-adv-x="643" unicode="&#57988;" /></font>
</defs>
</svg>
