<?xml version="1.0" standalone="no"?>
<!-- Licensee: Reaction Commerce (#31460) - http://vllg.com -->
<!DOCTYPE svg PUBLIC "-//W3C//DTD SVG 1.1//EN" "http://www.w3.org/Graphics/SVG/1.1/DTD/svg11.dtd" ><svg version="1.1" xmlns="http://www.w3.org/2000/svg"><defs><font horiz-adv-x="0" id="font"><font-face ascent="750" bbox="-131 -252 1211 911" cap-height="700" descent="-250" font-family="Post Grotesk" font-stretch="normal" font-style="normal" font-weight="300" units-per-em="1000" x-height="469" /><missing-glyph d="M74 700H774V0H74ZM144 70H704V630H144ZM237 113 187 163 375 350 187 537 237 587 424 399 611 587 661 537 473 350 661 163 611 113 424 301Z" horiz-adv-x="849" /><glyph d="M580 0H516L441 205H155L80 0H21L275 700H326ZM297 615Q293 603 285.5 581.5Q278 560 268.5 532.5Q259 505 248 474Q237 443 227 412Q201 340 173 256H423Q394 340 369 412Q358 443 347.5 474Q337 505 327.5 532.5Q318 560 310.5 581.5Q303 603 299 615Z" glyph-name="A" horiz-adv-x="601" unicode="A" /><glyph d="M448 0V205H199L78 0H15L425 700H836V649H510V387H816V336H510V51H844V0ZM228 255H448V631H444Z" glyph-name="AE" horiz-adv-x="897" unicode="&#198;" /><glyph d="M409 853 251 748 228 780 375 900ZM580 0H516L441 205H155L80 0H21L275 700H326ZM297 615Q293 603 285.5 581.5Q278 560 268.5 532.5Q259 505 248 474Q237 443 227 412Q201 340 173 256H423Q394 340 369 412Q358 443 347.5 474Q337 505 327.5 532.5Q318 560 310.5 581.5Q303 603 299 615Z" glyph-name="Aacute" horiz-adv-x="601" unicode="&#193;" /><glyph d="M207 883Q212 850 237.5 826.5Q263 803 300 803Q337 803 362.5 826.5Q388 850 393 883L442 866Q431 818 393 789.5Q355 761 300 761Q245 761 207 789.5Q169 818 158 866ZM580 0H516L441 205H155L80 0H21L275 700H326ZM297 615Q293 603 285.5 581.5Q278 560 268.5 532.5Q259 505 248 474Q237 443 227 412Q201 340 173 256H423Q394 340 369 412Q358 443 347.5 474Q337 505 327.5 532.5Q318 560 310.5 581.5Q303 603 299 615Z" glyph-name="Abreve" horiz-adv-x="601" unicode="&#258;" /><glyph d="M430 775 399 746 301 842 202 746 170 775 281 891H319ZM580 0H516L441 205H155L80 0H21L275 700H326ZM297 615Q293 603 285.5 581.5Q278 560 268.5 532.5Q259 505 248 474Q237 443 227 412Q201 340 173 256H423Q394 340 369 412Q358 443 347.5 474Q337 505 327.5 532.5Q318 560 310.5 581.5Q303 603 299 615Z" glyph-name="Acircumflex" horiz-adv-x="601" unicode="&#194;" /><glyph d="M348 811Q348 830 360.5 842.5Q373 855 392 855Q411 855 423.5 842.5Q436 830 436 811Q436 793 423.5 780.5Q411 768 392 768Q373 768 360.5 780.5Q348 793 348 811ZM164 811Q164 830 176.5 842.5Q189 855 208 855Q227 855 239.5 842.5Q252 830 252 811Q252 793 239.5 780.5Q227 768 208 768Q189 768 176.5 780.5Q164 793 164 811ZM580 0H516L441 205H155L80 0H21L275 700H326ZM297 615Q293 603 285.5 581.5Q278 560 268.5 532.5Q259 505 248 474Q237 443 227 412Q201 340 173 256H423Q394 340 369 412Q358 443 347.5 474Q337 505 327.5 532.5Q318 560 310.5 581.5Q303 603 299 615Z" glyph-name="Adieresis" horiz-adv-x="601" unicode="&#196;" /><glyph d="M229 900 376 780 353 748 195 853ZM580 0H516L441 205H155L80 0H21L275 700H326ZM297 615Q293 603 285.5 581.5Q278 560 268.5 532.5Q259 505 248 474Q237 443 227 412Q201 340 173 256H423Q394 340 369 412Q358 443 347.5 474Q337 505 327.5 532.5Q318 560 310.5 581.5Q303 603 299 615Z" glyph-name="Agrave" horiz-adv-x="601" unicode="&#192;" /><glyph d="M176 823H423V778H176ZM580 0H516L441 205H155L80 0H21L275 700H326ZM297 615Q293 603 285.5 581.5Q278 560 268.5 532.5Q259 505 248 474Q237 443 227 412Q201 340 173 256H423Q394 340 369 412Q358 443 347.5 474Q337 505 327.5 532.5Q318 560 310.5 581.5Q303 603 299 615Z" glyph-name="Amacron" horiz-adv-x="601" unicode="&#256;" /><glyph d="M516 0Q461 155 415 283Q395 338 376 392Q357 446 341 491.5Q325 537 314 570Q303 603 299 615H297Q293 603 282 570Q271 537 255 491.5Q239 446 219.5 392Q200 338 181 283Q135 155 80 0H21L275 700H326L580 0Z" glyph-name="Anocross" horiz-adv-x="601" unicode="&#59185;" /><glyph d="M485 -108Q485 -125 495.5 -137Q506 -149 527 -149Q544 -149 556.5 -140.5Q569 -132 581 -115L603 -138Q569 -190 513 -190Q502 -190 488.5 -187Q475 -184 463 -175.5Q451 -167 442.5 -152.5Q434 -138 434 -115Q434 -73 460 -45.5Q486 -18 516 0L441 205H155L80 0H21L275 700H326L580 0Q524 -32 504.5 -59Q485 -86 485 -108ZM297 615Q293 603 285.5 581.5Q278 560 268.5 532.5Q259 505 248 474Q237 443 227 412Q201 340 173 256H423Q394 340 369 412Q358 443 347.5 474Q337 505 327.5 532.5Q318 560 310.5 581.5Q303 603 299 615Z" glyph-name="Aogonek" horiz-adv-x="601" unicode="&#260;" /><glyph d="M211 825Q211 863 236 887Q261 911 300 911Q339 911 364 887Q389 863 389 825Q389 787 364 762.5Q339 738 300 738Q261 738 236 762.5Q211 787 211 825ZM252 825Q252 804 265 788.5Q278 773 300 773Q322 773 335 788.5Q348 804 348 825Q348 846 335 861Q322 876 300 876Q278 876 265 861Q252 846 252 825ZM580 0H516L441 205H155L80 0H21L275 700H326ZM297 615Q293 603 285.5 581.5Q278 560 268.5 532.5Q259 505 248 474Q237 443 227 412Q201 340 173 256H423Q394 340 369 412Q358 443 347.5 474Q337 505 327.5 532.5Q318 560 310.5 581.5Q303 603 299 615Z" glyph-name="Aring" horiz-adv-x="601" unicode="&#197;" /><glyph d="M232 860Q256 860 274 852.5Q292 845 307 835.5Q322 826 336.5 818.5Q351 811 368 811Q384 811 395 818Q406 825 414 833Q423 843 429 855L462 825Q453 809 439 797Q427 786 408.5 777.5Q390 769 364 769Q339 769 321 776.5Q303 784 288 793Q273 802 259 809.5Q245 817 229 817Q212 817 201 810Q190 803 182 795Q173 785 168 774L136 803Q145 819 158 831Q169 842 187.5 851Q206 860 232 860ZM580 0H516L441 205H155L80 0H21L275 700H326ZM297 615Q293 603 285.5 581.5Q278 560 268.5 532.5Q259 505 248 474Q237 443 227 412Q201 340 173 256H423Q394 340 369 412Q358 443 347.5 474Q337 505 327.5 532.5Q318 560 310.5 581.5Q303 603 299 615Z" glyph-name="Atilde" horiz-adv-x="601" unicode="&#195;" /><glyph d="M97 700H315Q426 700 479.5 656Q533 612 533 528Q533 491 522.5 463.5Q512 436 494.5 416Q477 396 455.5 383.5Q434 371 412 364Q442 360 468.5 347.5Q495 335 515.5 314Q536 293 547.5 263.5Q559 234 559 197Q559 108 499.5 54Q440 0 325 0H97ZM159 650V387H301Q382 387 426.5 424.5Q471 462 471 525Q471 587 432.5 618.5Q394 650 311 650ZM159 50H309Q363 50 399 62.5Q435 75 457 95Q479 115 488 141.5Q497 168 497 195Q497 233 482.5 260Q468 287 442.5 304Q417 321 382 329Q347 337 305 337H159Z" glyph-name="B" horiz-adv-x="614" unicode="B" /><glyph d="M121 350Q121 281 136.5 224Q152 167 182 126Q212 85 255.5 62.5Q299 40 355 40Q432 40 480.5 80Q529 120 556 186L612 164Q577 84 516 36Q455 -12 359 -12Q288 -12 232 14.5Q176 41 137 89Q98 137 77.5 203.5Q57 270 57 350Q57 430 77.5 496.5Q98 563 137 611Q176 659 232 685.5Q288 712 359 712Q409 712 449 698.5Q489 685 520.5 661.5Q552 638 574.5 606Q597 574 612 536L556 514Q529 580 480.5 620Q432 660 355 660Q299 660 255.5 637.5Q212 615 182 574Q152 533 136.5 476Q121 419 121 350Z" glyph-name="C" horiz-adv-x="648" unicode="C" /><glyph d="M450 853 292 748 269 780 416 900ZM121 350Q121 281 136.5 224Q152 167 182 126Q212 85 255.5 62.5Q299 40 355 40Q432 40 480.5 80Q529 120 556 186L612 164Q577 84 516 36Q455 -12 359 -12Q288 -12 232 14.5Q176 41 137 89Q98 137 77.5 203.5Q57 270 57 350Q57 430 77.5 496.5Q98 563 137 611Q176 659 232 685.5Q288 712 359 712Q409 712 449 698.5Q489 685 520.5 661.5Q552 638 574.5 606Q597 574 612 536L556 514Q529 580 480.5 620Q432 660 355 660Q299 660 255.5 637.5Q212 615 182 574Q152 533 136.5 476Q121 419 121 350Z" glyph-name="Cacute" horiz-adv-x="648" unicode="&#262;" /><glyph d="M376 753H338L227 869L259 898L358 802L456 898L488 869ZM121 350Q121 281 136.5 224Q152 167 182 126Q212 85 255.5 62.5Q299 40 355 40Q432 40 480.5 80Q529 120 556 186L612 164Q577 84 516 36Q455 -12 359 -12Q288 -12 232 14.5Q176 41 137 89Q98 137 77.5 203.5Q57 270 57 350Q57 430 77.5 496.5Q98 563 137 611Q176 659 232 685.5Q288 712 359 712Q409 712 449 698.5Q489 685 520.5 661.5Q552 638 574.5 606Q597 574 612 536L556 514Q529 580 480.5 620Q432 660 355 660Q299 660 255.5 637.5Q212 615 182 574Q152 533 136.5 476Q121 419 121 350Z" glyph-name="Ccaron" horiz-adv-x="648" unicode="&#268;" /><glyph d="M312 -158Q320 -164 331 -170.5Q342 -177 362 -177Q379 -177 392 -164.5Q405 -152 405 -132Q405 -112 393.5 -100.5Q382 -89 363 -89Q351 -89 342 -93Q333 -97 326 -102L301 -78L328 -10Q264 -4 213.5 24.5Q163 53 128.5 100Q94 147 75.5 210.5Q57 274 57 350Q57 430 77.5 496.5Q98 563 137 611Q176 659 232 685.5Q288 712 359 712Q409 712 449 698.5Q489 685 520.5 661.5Q552 638 574.5 606Q597 574 612 536L556 514Q529 580 480.5 620Q432 660 355 660Q299 660 255.5 637.5Q212 615 182 574Q152 533 136.5 476Q121 419 121 350Q121 281 136.5 224Q152 167 182 126Q212 85 255.5 62.5Q299 40 355 40Q432 40 480.5 80Q529 120 556 186L612 164Q577 85 517.5 37.5Q458 -10 364 -12L346 -60Q351 -57 359 -54Q367 -51 377 -51Q390 -51 403.5 -55Q417 -59 428 -68.5Q439 -78 446 -93Q453 -108 453 -130Q453 -170 428.5 -193.5Q404 -217 362 -217Q335 -217 316 -208.5Q297 -200 288 -192Z" glyph-name="Ccedilla" horiz-adv-x="648" unicode="&#199;" /><glyph d="M489 775 458 746 360 842 261 746 229 775 340 891H378ZM121 350Q121 281 136.5 224Q152 167 182 126Q212 85 255.5 62.5Q299 40 355 40Q432 40 480.5 80Q529 120 556 186L612 164Q577 84 516 36Q455 -12 359 -12Q288 -12 232 14.5Q176 41 137 89Q98 137 77.5 203.5Q57 270 57 350Q57 430 77.5 496.5Q98 563 137 611Q176 659 232 685.5Q288 712 359 712Q409 712 449 698.5Q489 685 520.5 661.5Q552 638 574.5 606Q597 574 612 536L556 514Q529 580 480.5 620Q432 660 355 660Q299 660 255.5 637.5Q212 615 182 574Q152 533 136.5 476Q121 419 121 350Z" glyph-name="Ccircumflex" horiz-adv-x="648" unicode="&#264;" /><glyph d="M317 809Q317 829 329.5 841Q342 853 361 853Q380 853 392.5 841Q405 829 405 809Q405 792 392.5 779Q380 766 361 766Q342 766 329.5 779Q317 792 317 809ZM121 350Q121 281 136.5 224Q152 167 182 126Q212 85 255.5 62.5Q299 40 355 40Q432 40 480.5 80Q529 120 556 186L612 164Q577 84 516 36Q455 -12 359 -12Q288 -12 232 14.5Q176 41 137 89Q98 137 77.5 203.5Q57 270 57 350Q57 430 77.5 496.5Q98 563 137 611Q176 659 232 685.5Q288 712 359 712Q409 712 449 698.5Q489 685 520.5 661.5Q552 638 574.5 606Q597 574 612 536L556 514Q529 580 480.5 620Q432 660 355 660Q299 660 255.5 637.5Q212 615 182 574Q152 533 136.5 476Q121 419 121 350Z" glyph-name="Cdotaccent" horiz-adv-x="648" unicode="&#266;" /><glyph d="M97 700H312Q385 700 444 676Q503 652 544.5 607Q586 562 608 497Q630 432 630 350Q630 267 608 202Q586 137 544.5 92Q503 47 444 23.5Q385 0 312 0H97ZM566 350Q566 417 551 472Q536 527 504 566.5Q472 606 423 627.5Q374 649 307 649H159V51H307Q374 51 423 72.5Q472 94 504 133.5Q536 173 551 228Q566 283 566 350Z" glyph-name="D" horiz-adv-x="687" unicode="D" /><glyph d="M324 753H286L175 869L207 898L306 802L404 898L436 869ZM97 700H312Q385 700 444 676Q503 652 544.5 607Q586 562 608 497Q630 432 630 350Q630 267 608 202Q586 137 544.5 92Q503 47 444 23.5Q385 0 312 0H97ZM566 350Q566 417 551 472Q536 527 504 566.5Q472 606 423 627.5Q374 649 307 649H159V51H307Q374 51 423 72.5Q472 94 504 133.5Q536 173 551 228Q566 283 566 350Z" glyph-name="Dcaron" horiz-adv-x="687" unicode="&#270;" /><glyph d="M116 390V700H331Q404 700 463 676Q522 652 563.5 607Q605 562 627 497Q649 432 649 350Q649 267 627 202Q605 137 563.5 92Q522 47 463 23.5Q404 0 331 0H116V344H21V390ZM585 350Q585 417 570 472Q555 527 523 566.5Q491 606 442 627.5Q393 649 326 649H178V390H371V344H178V51H326Q393 51 442 72.5Q491 94 523 133.5Q555 173 570 228Q585 283 585 350Z" glyph-name="Dcroat" horiz-adv-x="706" unicode="&#272;" /><glyph d="M607 0H50L302 700H357ZM134 51H522L327 608Z" glyph-name="Delta" horiz-adv-x="657" unicode="&#8710;" /><glyph d="M97 0V700H485V649H159V387H465V336H159V51H493V0Z" glyph-name="E" horiz-adv-x="546" unicode="E" /><glyph d="M402 853 244 748 221 780 368 900ZM97 0V700H485V649H159V387H465V336H159V51H493V0Z" glyph-name="Eacute" horiz-adv-x="546" unicode="&#201;" /><glyph d="M201 883Q206 850 231.5 826.5Q257 803 294 803Q331 803 356.5 826.5Q382 850 387 883L436 866Q425 818 387 789.5Q349 761 294 761Q239 761 201 789.5Q163 818 152 866ZM97 0V700H485V649H159V387H465V336H159V51H493V0Z" glyph-name="Ebreve" horiz-adv-x="546" unicode="&#276;" /><glyph d="M313 753H275L164 869L196 898L295 802L393 898L425 869ZM97 0V700H485V649H159V387H465V336H159V51H493V0Z" glyph-name="Ecaron" horiz-adv-x="546" unicode="&#282;" /><glyph d="M423 775 392 746 294 842 195 746 163 775 274 891H312ZM97 0V700H485V649H159V387H465V336H159V51H493V0Z" glyph-name="Ecircumflex" horiz-adv-x="546" unicode="&#202;" /><glyph d="M341 811Q341 830 353.5 842.5Q366 855 385 855Q404 855 416.5 842.5Q429 830 429 811Q429 793 416.5 780.5Q404 768 385 768Q366 768 353.5 780.5Q341 793 341 811ZM157 811Q157 830 169.5 842.5Q182 855 201 855Q220 855 232.5 842.5Q245 830 245 811Q245 793 232.5 780.5Q220 768 201 768Q182 768 169.5 780.5Q157 793 157 811ZM97 0V700H485V649H159V387H465V336H159V51H493V0Z" glyph-name="Edieresis" horiz-adv-x="546" unicode="&#203;" /><glyph d="M250 809Q250 829 262.5 841Q275 853 294 853Q313 853 325.5 841Q338 829 338 809Q338 792 325.5 779Q313 766 294 766Q275 766 262.5 779Q250 792 250 809ZM97 0V700H485V649H159V387H465V336H159V51H493V0Z" glyph-name="Edotaccent" horiz-adv-x="546" unicode="&#278;" /><glyph d="M233 900 380 780 357 748 199 853ZM97 0V700H485V649H159V387H465V336H159V51H493V0Z" glyph-name="Egrave" horiz-adv-x="546" unicode="&#200;" /><glyph d="M172 823H419V778H172ZM97 0V700H485V649H159V387H465V336H159V51H493V0Z" glyph-name="Emacron" horiz-adv-x="546" unicode="&#274;" /><glyph d="M97 700H166Q257 562 335 442Q368 391 402 339Q436 287 466.5 240Q497 193 521.5 155Q546 117 561 95H563V700H622V-33Q622 -121 580 -166Q538 -211 469 -211Q426 -211 394.5 -196Q363 -181 337 -150L377 -109Q397 -134 418.5 -147.5Q440 -161 469 -161Q510 -161 536.5 -127Q563 -93 563 -32V-8Q472 129 393 250Q359 301 324 354Q289 407 257.5 455Q226 503 200 543Q174 583 158 609H156V0H97Z" glyph-name="Eng" horiz-adv-x="719" unicode="&#330;" /><glyph d="M363 -108Q363 -125 373.5 -137Q384 -149 405 -149Q422 -149 434.5 -140.5Q447 -132 459 -115L481 -138Q447 -190 391 -190Q380 -190 366.5 -187Q353 -184 341 -175.5Q329 -167 320.5 -152.5Q312 -138 312 -115Q312 -94 319.5 -77Q327 -60 339 -45.5Q351 -31 366 -20Q381 -9 396 0H97V700H485V649H159V387H465V336H159V51H493V0H458Q402 -33 382.5 -59.5Q363 -86 363 -108Z" glyph-name="Eogonek" horiz-adv-x="546" unicode="&#280;" /><glyph d="M116 390V700H331Q404 700 463 676Q522 652 563.5 607Q605 562 627 497Q649 432 649 350Q649 267 627 202Q605 137 563.5 92Q522 47 463 23.5Q404 0 331 0H116V344H21V390ZM585 350Q585 417 570 472Q555 527 523 566.5Q491 606 442 627.5Q393 649 326 649H178V390H371V344H178V51H326Q393 51 442 72.5Q491 94 523 133.5Q555 173 570 228Q585 283 585 350Z" glyph-name="Eth" horiz-adv-x="706" unicode="&#208;" /><glyph d="M91 341Q91 351 91 360.5Q91 370 92 380H32V424H97Q106 482 128.5 532Q151 582 186 619Q221 656 269.5 677Q318 698 380 698Q455 698 503.5 669.5Q552 641 581 598L533 565Q521 581 507 596Q493 611 475 622.5Q457 634 434.5 640.5Q412 647 382 647Q338 647 301 631.5Q264 616 235 587Q206 558 186.5 516.5Q167 475 158 424H440V380H153Q152 372 152 363.5Q152 355 152 347Q152 337 152 328Q152 319 153 311H440V267H158Q167 209 188.5 166Q210 123 240 95Q270 67 306.5 53Q343 39 382 39Q435 39 472.5 61.5Q510 84 537 122L583 86Q551 45 501 16.5Q451 -12 382 -12Q322 -12 273.5 8Q225 28 188 64.5Q151 101 128 152.5Q105 204 96 267H32V311H92Q91 319 91 326Q91 333 91 341Z" glyph-name="Euro" horiz-adv-x="615" unicode="&#8364;" /><glyph d="M97 0V700H486V649H159V387H467V336H159V0Z" glyph-name="F" horiz-adv-x="528" unicode="F" /><glyph d="M358 -12Q287 -12 231 14.5Q175 41 136.5 89Q98 137 77.5 203.5Q57 270 57 350Q57 430 77.5 496.5Q98 563 137.5 611Q177 659 234 685.5Q291 712 363 712Q414 712 455 698.5Q496 685 527.5 661.5Q559 638 582 606Q605 574 620 536L564 514Q537 580 487.5 620Q438 660 359 660Q302 660 257.5 637.5Q213 615 183 574Q153 533 137 476Q121 419 121 350Q121 281 137 223.5Q153 166 183.5 125.5Q214 85 259 62.5Q304 40 361 40Q404 40 440 52Q476 64 502 87Q528 110 542.5 143Q557 176 557 218V286H346V335H617V0H561V81Q552 66 535 50Q518 34 492.5 20Q467 6 433.5 -3Q400 -12 358 -12Z" glyph-name="G" horiz-adv-x="701" unicode="G" /><glyph d="M271 883Q276 850 301.5 826.5Q327 803 364 803Q401 803 426.5 826.5Q452 850 457 883L506 866Q495 818 457 789.5Q419 761 364 761Q309 761 271 789.5Q233 818 222 866ZM358 -12Q287 -12 231 14.5Q175 41 136.5 89Q98 137 77.5 203.5Q57 270 57 350Q57 430 77.5 496.5Q98 563 137.5 611Q177 659 234 685.5Q291 712 363 712Q414 712 455 698.5Q496 685 527.5 661.5Q559 638 582 606Q605 574 620 536L564 514Q537 580 487.5 620Q438 660 359 660Q302 660 257.5 637.5Q213 615 183 574Q153 533 137 476Q121 419 121 350Q121 281 137 223.5Q153 166 183.5 125.5Q214 85 259 62.5Q304 40 361 40Q404 40 440 52Q476 64 502 87Q528 110 542.5 143Q557 176 557 218V286H346V335H617V0H561V81Q552 66 535 50Q518 34 492.5 20Q467 6 433.5 -3Q400 -12 358 -12Z" glyph-name="Gbreve" horiz-adv-x="701" unicode="&#286;" /><glyph d="M495 775 464 746 366 842 267 746 235 775 346 891H384ZM358 -12Q287 -12 231 14.5Q175 41 136.5 89Q98 137 77.5 203.5Q57 270 57 350Q57 430 77.5 496.5Q98 563 137.5 611Q177 659 234 685.5Q291 712 363 712Q414 712 455 698.5Q496 685 527.5 661.5Q559 638 582 606Q605 574 620 536L564 514Q537 580 487.5 620Q438 660 359 660Q302 660 257.5 637.5Q213 615 183 574Q153 533 137 476Q121 419 121 350Q121 281 137 223.5Q153 166 183.5 125.5Q214 85 259 62.5Q304 40 361 40Q404 40 440 52Q476 64 502 87Q528 110 542.5 143Q557 176 557 218V286H346V335H617V0H561V81Q552 66 535 50Q518 34 492.5 20Q467 6 433.5 -3Q400 -12 358 -12Z" glyph-name="Gcircumflex" horiz-adv-x="701" unicode="&#284;" /><glyph d="M358 -12Q287 -12 231 14.5Q175 41 136.5 89Q98 137 77.5 203.5Q57 270 57 350Q57 430 77.5 496.5Q98 563 137.5 611Q177 659 234 685.5Q291 712 363 712Q414 712 455 698.5Q496 685 527.5 661.5Q559 638 582 606Q605 574 620 536L564 514Q537 580 487.5 620Q438 660 359 660Q302 660 257.5 637.5Q213 615 183 574Q153 533 137 476Q121 419 121 350Q121 281 137 223.5Q153 166 183.5 125.5Q214 85 259 62.5Q304 40 361 40Q404 40 440 52Q476 64 502 87Q528 110 542.5 143Q557 176 557 218V286H346V335H617V0H561V81Q552 66 535 50Q518 34 492.5 20Q467 6 433.5 -3Q400 -12 358 -12ZM408 -109Q408 -121 405 -134.5Q402 -148 394.5 -160.5Q387 -173 375 -183Q363 -193 344 -197L333 -170Q349 -168 359 -156.5Q369 -145 369 -131V-127Q368 -128 367 -128H361Q348 -128 337.5 -118Q327 -108 327 -90Q327 -78 336.5 -65.5Q346 -53 365 -53Q387 -53 397.5 -69.5Q408 -86 408 -109Z" glyph-name="Gcommaaccent" horiz-adv-x="701" unicode="&#290;" /><glyph d="M319 809Q319 829 331.5 841Q344 853 363 853Q382 853 394.5 841Q407 829 407 809Q407 792 394.5 779Q382 766 363 766Q344 766 331.5 779Q319 792 319 809ZM358 -12Q287 -12 231 14.5Q175 41 136.5 89Q98 137 77.5 203.5Q57 270 57 350Q57 430 77.5 496.5Q98 563 137.5 611Q177 659 234 685.5Q291 712 363 712Q414 712 455 698.5Q496 685 527.5 661.5Q559 638 582 606Q605 574 620 536L564 514Q537 580 487.5 620Q438 660 359 660Q302 660 257.5 637.5Q213 615 183 574Q153 533 137 476Q121 419 121 350Q121 281 137 223.5Q153 166 183.5 125.5Q214 85 259 62.5Q304 40 361 40Q404 40 440 52Q476 64 502 87Q528 110 542.5 143Q557 176 557 218V286H346V335H617V0H561V81Q552 66 535 50Q518 34 492.5 20Q467 6 433.5 -3Q400 -12 358 -12Z" glyph-name="Gdotaccent" horiz-adv-x="701" unicode="&#288;" /><glyph d="M97 700H159V388H529V700H591V0H529V337H159V0H97Z" glyph-name="H" horiz-adv-x="688" unicode="H" /><glyph d="M97 556V700H159V556H529V700H591V556H676V505H591V0H529V337H159V0H97V505H12V556ZM529 388V505H159V388Z" glyph-name="Hbar" horiz-adv-x="688" unicode="&#294;" /><glyph d="M474 775 443 746 345 842 246 746 214 775 325 891H363ZM97 700H159V388H529V700H591V0H529V337H159V0H97Z" glyph-name="Hcircumflex" horiz-adv-x="688" unicode="&#292;" /><glyph d="M97 700H159V0H97Z" glyph-name="I" horiz-adv-x="256" unicode="I" /><glyph d="M285 104Q306 75 331.5 57Q357 39 391 39Q451 39 475.5 84.5Q500 130 500 224V700H562V227Q562 176 555.5 132.5Q549 89 530.5 57Q512 25 479 6.5Q446 -12 393 -12Q341 -12 305.5 8.5Q270 29 244 64ZM97 700H159V0H97Z" glyph-name="IJ" horiz-adv-x="653" unicode="&#306;" /><glyph d="M217 853 59 748 36 780 183 900ZM97 700H159V0H97Z" glyph-name="Iacute" horiz-adv-x="256" unicode="&#205;" /><glyph d="M35 883Q40 850 65.5 826.5Q91 803 128 803Q165 803 190.5 826.5Q216 850 221 883L270 866Q259 818 221 789.5Q183 761 128 761Q73 761 35 789.5Q-3 818 -14 866ZM97 700H159V0H97Z" glyph-name="Ibreve" horiz-adv-x="256" unicode="&#300;" /><glyph d="M258 775 227 746 129 842 30 746 -2 775 109 891H147ZM97 700H159V0H97Z" glyph-name="Icircumflex" horiz-adv-x="256" unicode="&#206;" /><glyph d="M176 811Q176 830 188.5 842.5Q201 855 220 855Q239 855 251.5 842.5Q264 830 264 811Q264 793 251.5 780.5Q239 768 220 768Q201 768 188.5 780.5Q176 793 176 811ZM-8 811Q-8 830 4.5 842.5Q17 855 36 855Q55 855 67.5 842.5Q80 830 80 811Q80 793 67.5 780.5Q55 768 36 768Q17 768 4.5 780.5Q-8 793 -8 811ZM97 700H159V0H97Z" glyph-name="Idieresis" horiz-adv-x="256" unicode="&#207;" /><glyph d="M84 809Q84 829 96.5 841Q109 853 128 853Q147 853 159.5 841Q172 829 172 809Q172 792 159.5 779Q147 766 128 766Q109 766 96.5 779Q84 792 84 809ZM97 700H159V0H97Z" glyph-name="Idotaccent" horiz-adv-x="256" unicode="&#304;" /><glyph d="M73 900 220 780 197 748 39 853ZM97 700H159V0H97Z" glyph-name="Igrave" horiz-adv-x="256" unicode="&#204;" /><glyph d="M5 823H252V778H5ZM97 700H159V0H97Z" glyph-name="Imacron" horiz-adv-x="256" unicode="&#298;" /><glyph d="M64 -108Q64 -125 74.5 -137Q85 -149 106 -149Q123 -149 135.5 -140.5Q148 -132 160 -115L182 -138Q148 -190 92 -190Q81 -190 67.5 -187Q54 -184 42 -175.5Q30 -167 21.5 -152.5Q13 -138 13 -115Q13 -94 20.5 -77Q28 -60 40 -45.5Q52 -31 67 -20Q82 -9 97 0V700H159V0Q103 -33 83.5 -59.5Q64 -86 64 -108Z" glyph-name="Iogonek" horiz-adv-x="256" unicode="&#302;" /><glyph d="M61 860Q85 860 103 852.5Q121 845 136 835.5Q151 826 165.5 818.5Q180 811 197 811Q213 811 224 818Q235 825 243 833Q252 843 258 855L291 825Q282 809 268 797Q256 786 237.5 777.5Q219 769 193 769Q168 769 150 776.5Q132 784 117 793Q102 802 88 809.5Q74 817 58 817Q41 817 30 810Q19 803 11 795Q2 785 -3 774L-35 803Q-26 819 -13 831Q-2 842 16.5 851Q35 860 61 860ZM97 700H159V0H97Z" glyph-name="Itilde" horiz-adv-x="256" unicode="&#296;" /><glyph d="M45 104Q66 75 91.5 57Q117 39 151 39Q211 39 235.5 84.5Q260 130 260 224V700H322V227Q322 176 315.5 132.5Q309 89 290.5 57Q272 25 239 6.5Q206 -12 153 -12Q101 -12 65.5 8.5Q30 29 4 64L45 104Z" glyph-name="J" horiz-adv-x="413" unicode="J" /><glyph d="M421 775 390 746 292 842 193 746 161 775 272 891H310ZM45 104Q66 75 91.5 57Q117 39 151 39Q211 39 235.5 84.5Q260 130 260 224V700H322V227Q322 176 315.5 132.5Q309 89 290.5 57Q272 25 239 6.5Q206 -12 153 -12Q101 -12 65.5 8.5Q30 29 4 64Z" glyph-name="Jcircumflex" horiz-adv-x="413" unicode="&#308;" /><glyph d="M249 374 159 284V0H97V700H159V359L495 700H572L292 415L591 0H517Z" glyph-name="K" horiz-adv-x="605" unicode="K" /><glyph d="M249 374 159 284V0H97V700H159V359L495 700H572L292 415L591 0H517ZM358 -109Q358 -121 355 -134.5Q352 -148 344.5 -160.5Q337 -173 325 -183Q313 -193 294 -197L283 -170Q299 -168 309 -156.5Q319 -145 319 -131V-127Q318 -128 317 -128H311Q298 -128 287.5 -118Q277 -108 277 -90Q277 -78 286.5 -65.5Q296 -53 315 -53Q337 -53 347.5 -69.5Q358 -86 358 -109Z" glyph-name="Kcommaaccent" horiz-adv-x="605" unicode="&#310;" /><glyph d="M97 700H159V51H473V0H97Z" glyph-name="L" horiz-adv-x="496" unicode="L" /><glyph d="M272 853 114 748 91 780 238 900ZM97 700H159V51H473V0H97Z" glyph-name="Lacute" horiz-adv-x="496" unicode="&#313;" /><glyph d="M346 691 286 533 248 543 289 706ZM97 700H159V51H473V0H97Z" glyph-name="Lcaron" horiz-adv-x="496" unicode="&#317;" /><glyph d="M97 700H159V51H473V0H97ZM327 -109Q327 -121 324 -134.5Q321 -148 313.5 -160.5Q306 -173 294 -183Q282 -193 263 -197L252 -170Q268 -168 278 -156.5Q288 -145 288 -131V-127Q287 -128 286 -128H280Q267 -128 256.5 -118Q246 -108 246 -90Q246 -78 255.5 -65.5Q265 -53 284 -53Q306 -53 316.5 -69.5Q327 -86 327 -109Z" glyph-name="Lcommaaccent" horiz-adv-x="496" unicode="&#315;" /><glyph d="M97 700H159V51H473V0H97ZM304 343Q304 361 315.5 372.5Q327 384 345 384Q363 384 374.5 372.5Q386 361 386 343Q386 326 374.5 314.5Q363 303 345 303Q327 303 315.5 314.5Q304 326 304 343Z" glyph-name="Ldot" horiz-adv-x="496" unicode="&#319;" /><glyph d="M122 328V700H184V369L337 469L365 429L184 311V51H498V0H122V270L61 231L34 271Z" glyph-name="Lslash" horiz-adv-x="521" unicode="&#321;" /><glyph d="M396 0Q384 29 364.5 76Q345 123 322.5 180Q300 237 276 298.5Q252 360 229.5 419Q207 478 188 530Q169 582 156 618H154V0H97V700H182Q241 545 290 417Q311 362 332 307Q353 252 371.5 205Q390 158 403.5 123Q417 88 423 72Q429 88 442 123Q455 158 473 205Q491 252 511.5 307Q532 362 553 417Q601 545 659 700H743V0H685V618H683Q670 581 650.5 528.5Q631 476 608.5 417.5Q586 359 562.5 297Q539 235 517 179Q495 123 476 76Q457 29 445 0Z" glyph-name="M" horiz-adv-x="840" unicode="M" /><glyph d="M97 700H166Q257 561 335 440Q368 389 402 336.5Q436 284 466.5 237Q497 190 521.5 151.5Q546 113 561 91H563V700H622V0H553Q465 135 388 254Q355 305 321 357Q287 409 256 456.5Q225 504 199.5 543.5Q174 583 158 609H156V0H97Z" glyph-name="N" horiz-adv-x="719" unicode="N" /><glyph glyph-name="NULL" horiz-adv-x="0" /><glyph d="M484 853 326 748 303 780 450 900ZM97 700H166Q257 561 335 440Q368 389 402 336.5Q436 284 466.5 237Q497 190 521.5 151.5Q546 113 561 91H563V700H622V0H553Q465 135 388 254Q355 305 321 357Q287 409 256 456.5Q225 504 199.5 543.5Q174 583 158 609H156V0H97Z" glyph-name="Nacute" horiz-adv-x="719" unicode="&#323;" /><glyph d="M380 753H342L231 869L263 898L362 802L460 898L492 869ZM97 700H166Q257 561 335 440Q368 389 402 336.5Q436 284 466.5 237Q497 190 521.5 151.5Q546 113 561 91H563V700H622V0H553Q465 135 388 254Q355 305 321 357Q287 409 256 456.5Q225 504 199.5 543.5Q174 583 158 609H156V0H97Z" glyph-name="Ncaron" horiz-adv-x="719" unicode="&#327;" /><glyph d="M97 700H166Q257 561 335 440Q368 389 402 336.5Q436 284 466.5 237Q497 190 521.5 151.5Q546 113 561 91H563V700H622V0H553Q465 135 388 254Q355 305 321 357Q287 409 256 456.5Q225 504 199.5 543.5Q174 583 158 609H156V0H97ZM409 -109Q409 -121 406 -134.5Q403 -148 395.5 -160.5Q388 -173 376 -183Q364 -193 345 -197L334 -170Q350 -168 360 -156.5Q370 -145 370 -131V-127Q369 -128 368 -128H362Q349 -128 338.5 -118Q328 -108 328 -90Q328 -78 337.5 -65.5Q347 -53 366 -53Q388 -53 398.5 -69.5Q409 -86 409 -109Z" glyph-name="Ncommaaccent" horiz-adv-x="719" unicode="&#325;" /><glyph d="M293 860Q317 860 335 852.5Q353 845 368 835.5Q383 826 397.5 818.5Q412 811 429 811Q445 811 456 818Q467 825 475 833Q484 843 490 855L523 825Q514 809 500 797Q488 786 469.5 777.5Q451 769 425 769Q400 769 382 776.5Q364 784 349 793Q334 802 320 809.5Q306 817 290 817Q273 817 262 810Q251 803 243 795Q234 785 229 774L197 803Q206 819 219 831Q230 842 248.5 851Q267 860 293 860ZM97 700H166Q257 561 335 440Q368 389 402 336.5Q436 284 466.5 237Q497 190 521.5 151.5Q546 113 561 91H563V700H622V0H553Q465 135 388 254Q355 305 321 357Q287 409 256 456.5Q225 504 199.5 543.5Q174 583 158 609H156V0H97Z" glyph-name="Ntilde" horiz-adv-x="719" unicode="&#209;" /><glyph d="M57 350Q57 434 79 501Q101 568 140.5 615Q180 662 235.5 687Q291 712 358 712Q424 712 479.5 687Q535 662 575 615Q615 568 637 501Q659 434 659 350Q659 266 637 199Q615 132 575 85Q535 38 479.5 13Q424 -12 358 -12Q291 -12 235.5 13Q180 38 140.5 85Q101 132 79 199Q57 266 57 350ZM121 350Q121 285 136 228.5Q151 172 180.5 130Q210 88 254.5 64Q299 40 358 40Q417 40 461.5 64Q506 88 535.5 130Q565 172 580 228.5Q595 285 595 350Q595 414 580 470.5Q565 527 535.5 569Q506 611 461.5 635.5Q417 660 358 660Q299 660 254.5 635.5Q210 611 180.5 569Q151 527 136 470.5Q121 414 121 350Z" glyph-name="O" horiz-adv-x="716" unicode="O" /><glyph d="M582 0V108Q550 53 495 20.5Q440 -12 354 -12Q288 -12 233.5 13Q179 38 140 85Q101 132 79 199Q57 266 57 350Q57 434 79 501Q101 568 140 615Q179 662 233.5 687Q288 712 354 712Q440 712 495 679Q550 646 582 591V700H970V649H644V387H950V336H644V51H978V0ZM583 378Q583 439 567 491Q551 543 521 580.5Q491 618 448.5 639Q406 660 354 660Q296 660 252.5 635.5Q209 611 179.5 569Q150 527 135.5 470.5Q121 414 121 350Q121 286 135.5 229.5Q150 173 179.5 131Q209 89 252.5 64.5Q296 40 354 40Q406 40 448.5 61Q491 82 521 119.5Q551 157 567 209Q583 261 583 322Z" glyph-name="OE" horiz-adv-x="1031" unicode="&#338;" /><glyph d="M447 853 289 748 266 780 413 900ZM55 350Q55 434 77 501Q99 568 138.5 615Q178 662 233.5 687Q289 712 356 712Q422 712 477.5 687Q533 662 573 615Q613 568 635 501Q657 434 657 350Q657 266 635 199Q613 132 573 85Q533 38 477.5 13Q422 -12 356 -12Q289 -12 233.5 13Q178 38 138.5 85Q99 132 77 199Q55 266 55 350ZM119 350Q119 285 134 228.5Q149 172 178.5 130Q208 88 252.5 64Q297 40 356 40Q415 40 459.5 64Q504 88 533.5 130Q563 172 578 228.5Q593 285 593 350Q593 414 578 470.5Q563 527 533.5 569Q504 611 459.5 635.5Q415 660 356 660Q297 660 252.5 635.5Q208 611 178.5 569Q149 527 134 470.5Q119 414 119 350Z" glyph-name="Oacute" horiz-adv-x="713" unicode="&#211;" /><glyph d="M263 883Q268 850 293.5 826.5Q319 803 356 803Q393 803 418.5 826.5Q444 850 449 883L498 866Q487 818 449 789.5Q411 761 356 761Q301 761 263 789.5Q225 818 214 866ZM55 350Q55 434 77 501Q99 568 138.5 615Q178 662 233.5 687Q289 712 356 712Q422 712 477.5 687Q533 662 573 615Q613 568 635 501Q657 434 657 350Q657 266 635 199Q613 132 573 85Q533 38 477.5 13Q422 -12 356 -12Q289 -12 233.5 13Q178 38 138.5 85Q99 132 77 199Q55 266 55 350ZM119 350Q119 285 134 228.5Q149 172 178.5 130Q208 88 252.5 64Q297 40 356 40Q415 40 459.5 64Q504 88 533.5 130Q563 172 578 228.5Q593 285 593 350Q593 414 578 470.5Q563 527 533.5 569Q504 611 459.5 635.5Q415 660 356 660Q297 660 252.5 635.5Q208 611 178.5 569Q149 527 134 470.5Q119 414 119 350Z" glyph-name="Obreve" horiz-adv-x="713" unicode="&#334;" /><glyph d="M487 775 456 746 358 842 259 746 227 775 338 891H376ZM55 350Q55 434 77 501Q99 568 138.5 615Q178 662 233.5 687Q289 712 356 712Q422 712 477.5 687Q533 662 573 615Q613 568 635 501Q657 434 657 350Q657 266 635 199Q613 132 573 85Q533 38 477.5 13Q422 -12 356 -12Q289 -12 233.5 13Q178 38 138.5 85Q99 132 77 199Q55 266 55 350ZM119 350Q119 285 134 228.5Q149 172 178.5 130Q208 88 252.5 64Q297 40 356 40Q415 40 459.5 64Q504 88 533.5 130Q563 172 578 228.5Q593 285 593 350Q593 414 578 470.5Q563 527 533.5 569Q504 611 459.5 635.5Q415 660 356 660Q297 660 252.5 635.5Q208 611 178.5 569Q149 527 134 470.5Q119 414 119 350Z" glyph-name="Ocircumflex" horiz-adv-x="713" unicode="&#212;" /><glyph d="M404 811Q404 830 416.5 842.5Q429 855 448 855Q467 855 479.5 842.5Q492 830 492 811Q492 793 479.5 780.5Q467 768 448 768Q429 768 416.5 780.5Q404 793 404 811ZM220 811Q220 830 232.5 842.5Q245 855 264 855Q283 855 295.5 842.5Q308 830 308 811Q308 793 295.5 780.5Q283 768 264 768Q245 768 232.5 780.5Q220 793 220 811ZM55 350Q55 434 77 501Q99 568 138.5 615Q178 662 233.5 687Q289 712 356 712Q422 712 477.5 687Q533 662 573 615Q613 568 635 501Q657 434 657 350Q657 266 635 199Q613 132 573 85Q533 38 477.5 13Q422 -12 356 -12Q289 -12 233.5 13Q178 38 138.5 85Q99 132 77 199Q55 266 55 350ZM119 350Q119 285 134 228.5Q149 172 178.5 130Q208 88 252.5 64Q297 40 356 40Q415 40 459.5 64Q504 88 533.5 130Q563 172 578 228.5Q593 285 593 350Q593 414 578 470.5Q563 527 533.5 569Q504 611 459.5 635.5Q415 660 356 660Q297 660 252.5 635.5Q208 611 178.5 569Q149 527 134 470.5Q119 414 119 350Z" glyph-name="Odieresis" horiz-adv-x="713" unicode="&#214;" /><glyph d="M299 900 446 780 423 748 265 853ZM55 350Q55 434 77 501Q99 568 138.5 615Q178 662 233.5 687Q289 712 356 712Q422 712 477.5 687Q533 662 573 615Q613 568 635 501Q657 434 657 350Q657 266 635 199Q613 132 573 85Q533 38 477.5 13Q422 -12 356 -12Q289 -12 233.5 13Q178 38 138.5 85Q99 132 77 199Q55 266 55 350ZM119 350Q119 285 134 228.5Q149 172 178.5 130Q208 88 252.5 64Q297 40 356 40Q415 40 459.5 64Q504 88 533.5 130Q563 172 578 228.5Q593 285 593 350Q593 414 578 470.5Q563 527 533.5 569Q504 611 459.5 635.5Q415 660 356 660Q297 660 252.5 635.5Q208 611 178.5 569Q149 527 134 470.5Q119 414 119 350Z" glyph-name="Ograve" horiz-adv-x="713" unicode="&#210;" /><glyph d="M564 847 416 748 393 780 530 894ZM394 847 246 748 223 780 360 894ZM55 350Q55 434 77 501Q99 568 138.5 615Q178 662 233.5 687Q289 712 356 712Q422 712 477.5 687Q533 662 573 615Q613 568 635 501Q657 434 657 350Q657 266 635 199Q613 132 573 85Q533 38 477.5 13Q422 -12 356 -12Q289 -12 233.5 13Q178 38 138.5 85Q99 132 77 199Q55 266 55 350ZM119 350Q119 285 134 228.5Q149 172 178.5 130Q208 88 252.5 64Q297 40 356 40Q415 40 459.5 64Q504 88 533.5 130Q563 172 578 228.5Q593 285 593 350Q593 414 578 470.5Q563 527 533.5 569Q504 611 459.5 635.5Q415 660 356 660Q297 660 252.5 635.5Q208 611 178.5 569Q149 527 134 470.5Q119 414 119 350Z" glyph-name="Ohungarumlaut" horiz-adv-x="713" unicode="&#336;" /><glyph d="M233 823H480V778H233ZM55 350Q55 434 77 501Q99 568 138.5 615Q178 662 233.5 687Q289 712 356 712Q422 712 477.5 687Q533 662 573 615Q613 568 635 501Q657 434 657 350Q657 266 635 199Q613 132 573 85Q533 38 477.5 13Q422 -12 356 -12Q289 -12 233.5 13Q178 38 138.5 85Q99 132 77 199Q55 266 55 350ZM119 350Q119 285 134 228.5Q149 172 178.5 130Q208 88 252.5 64Q297 40 356 40Q415 40 459.5 64Q504 88 533.5 130Q563 172 578 228.5Q593 285 593 350Q593 414 578 470.5Q563 527 533.5 569Q504 611 459.5 635.5Q415 660 356 660Q297 660 252.5 635.5Q208 611 178.5 569Q149 527 134 470.5Q119 414 119 350Z" glyph-name="Omacron" horiz-adv-x="713" unicode="&#332;" /><glyph d="M57 350Q57 434 79 501Q101 568 140.5 615Q180 662 235.5 687Q291 712 358 712Q452 712 522 663L573 746L617 718L562 628Q608 580 633.5 510.5Q659 441 659 350Q659 266 637 199Q615 132 575 85Q535 38 479.5 13Q424 -12 358 -12Q268 -12 197 34L142 -56L96 -28L156 69Q109 116 83 187Q57 258 57 350ZM121 350Q121 281 137.5 222Q154 163 188 121L492 615Q466 636 432.5 648Q399 660 358 660Q299 660 254.5 635.5Q210 611 180.5 569Q151 527 136 470.5Q121 414 121 350ZM595 350Q595 418 578.5 476Q562 534 530 576L227 82Q281 40 358 40Q417 40 461.5 64Q506 88 535.5 130Q565 172 580 228.5Q595 285 595 350Z" glyph-name="Oslash" horiz-adv-x="715" unicode="&#216;" /><glyph d="M289 860Q313 860 331 852.5Q349 845 364 835.5Q379 826 393.5 818.5Q408 811 425 811Q441 811 452 818Q463 825 471 833Q480 843 486 855L519 825Q510 809 496 797Q484 786 465.5 777.5Q447 769 421 769Q396 769 378 776.5Q360 784 345 793Q330 802 316 809.5Q302 817 286 817Q269 817 258 810Q247 803 239 795Q230 785 225 774L193 803Q202 819 215 831Q226 842 244.5 851Q263 860 289 860ZM55 350Q55 434 77 501Q99 568 138.5 615Q178 662 233.5 687Q289 712 356 712Q422 712 477.5 687Q533 662 573 615Q613 568 635 501Q657 434 657 350Q657 266 635 199Q613 132 573 85Q533 38 477.5 13Q422 -12 356 -12Q289 -12 233.5 13Q178 38 138.5 85Q99 132 77 199Q55 266 55 350ZM119 350Q119 285 134 228.5Q149 172 178.5 130Q208 88 252.5 64Q297 40 356 40Q415 40 459.5 64Q504 88 533.5 130Q563 172 578 228.5Q593 285 593 350Q593 414 578 470.5Q563 527 533.5 569Q504 611 459.5 635.5Q415 660 356 660Q297 660 252.5 635.5Q208 611 178.5 569Q149 527 134 470.5Q119 414 119 350Z" glyph-name="Otilde" horiz-adv-x="713" unicode="&#213;" /><glyph d="M159 296V0H97V700H327Q432 700 493.5 651Q555 602 555 499Q555 448 538.5 409.5Q522 371 492 346Q462 321 420 308.5Q378 296 327 296ZM492 499Q492 574 448 611.5Q404 649 311 649H159V347H311Q492 347 492 499Z" glyph-name="P" horiz-adv-x="587" unicode="P" /><glyph d="M503 25Q438 -12 358 -12Q291 -12 235.5 13Q180 38 140.5 85Q101 132 79 199Q57 266 57 350Q57 434 79 501Q101 568 140.5 615Q180 662 235.5 687Q291 712 358 712Q424 712 479.5 687Q535 662 575 615Q615 568 637 501Q659 434 659 350Q659 250 628.5 175.5Q598 101 544 54L625 -28L588 -62ZM121 350Q121 285 136 228.5Q151 172 180.5 130Q210 88 254.5 64Q299 40 358 40Q418 40 464 66L394 139L430 173L505 95Q550 137 572.5 203.5Q595 270 595 350Q595 414 580 470.5Q565 527 535.5 569Q506 611 461.5 635.5Q417 660 358 660Q299 660 254.5 635.5Q210 611 180.5 569Q151 527 136 470.5Q121 414 121 350Z" glyph-name="Q" horiz-adv-x="716" unicode="Q" /><glyph d="M555 515Q555 433 508.5 384.5Q462 336 384 322L582 0H509L316 318H159V0H97V700H327Q368 700 409 691Q450 682 482.5 660.5Q515 639 535 603.5Q555 568 555 515ZM492 514Q492 583 445 616Q398 649 309 649H159V369H324Q370 369 402 380.5Q434 392 454 412Q474 432 483 458.5Q492 485 492 514Z" glyph-name="R" horiz-adv-x="625" unicode="R" /><glyph d="M408 853 250 748 227 780 374 900ZM555 515Q555 433 508.5 384.5Q462 336 384 322L582 0H509L316 318H159V0H97V700H327Q368 700 409 691Q450 682 482.5 660.5Q515 639 535 603.5Q555 568 555 515ZM492 514Q492 583 445 616Q398 649 309 649H159V369H324Q370 369 402 380.5Q434 392 454 412Q474 432 483 458.5Q492 485 492 514Z" glyph-name="Racute" horiz-adv-x="625" unicode="&#340;" /><glyph d="M332 753H294L183 869L215 898L314 802L412 898L444 869ZM555 515Q555 433 508.5 384.5Q462 336 384 322L582 0H509L316 318H159V0H97V700H327Q368 700 409 691Q450 682 482.5 660.5Q515 639 535 603.5Q555 568 555 515ZM492 514Q492 583 445 616Q398 649 309 649H159V369H324Q370 369 402 380.5Q434 392 454 412Q474 432 483 458.5Q492 485 492 514Z" glyph-name="Rcaron" horiz-adv-x="625" unicode="&#344;" /><glyph d="M555 515Q555 433 508.5 384.5Q462 336 384 322L582 0H509L316 318H159V0H97V700H327Q368 700 409 691Q450 682 482.5 660.5Q515 639 535 603.5Q555 568 555 515ZM492 514Q492 583 445 616Q398 649 309 649H159V369H324Q370 369 402 380.5Q434 392 454 412Q474 432 483 458.5Q492 485 492 514ZM361 -109Q361 -121 358 -134.5Q355 -148 347.5 -160.5Q340 -173 328 -183Q316 -193 297 -197L286 -170Q302 -168 312 -156.5Q322 -145 322 -131V-127Q321 -128 320 -128H314Q301 -128 290.5 -118Q280 -108 280 -90Q280 -78 289.5 -65.5Q299 -53 318 -53Q340 -53 350.5 -69.5Q361 -86 361 -109Z" glyph-name="Rcommaaccent" horiz-adv-x="625" unicode="&#342;" /><glyph d="M306 333Q247 343 203.5 358Q160 373 131 395.5Q102 418 88 450Q74 482 74 526Q74 567 90 601.5Q106 636 135.5 660.5Q165 685 207 698.5Q249 712 302 712Q354 712 395.5 699Q437 686 467 662Q497 638 515 605Q533 572 538 533L479 518Q468 593 421.5 627Q375 661 301 661Q219 661 178.5 624Q138 587 138 531Q138 469 181 436Q224 403 320 388Q438 369 496 323.5Q554 278 554 191Q554 148 537 111Q520 74 488 46.5Q456 19 410.5 3.5Q365 -12 309 -12Q246 -12 200 3.5Q154 19 122.5 46.5Q91 74 74.5 111.5Q58 149 55 192L115 202Q117 170 129 140.5Q141 111 164.5 88.5Q188 66 224 52.5Q260 39 310 39Q350 39 383 50Q416 61 440 81Q464 101 477 128Q490 155 490 187Q490 217 480 240.5Q470 264 448 281.5Q426 299 391 311.5Q356 324 306 333Z" glyph-name="S" horiz-adv-x="607" unicode="S" /><glyph d="M396 853 238 748 215 780 362 900ZM306 333Q247 343 203.5 358Q160 373 131 395.5Q102 418 88 450Q74 482 74 526Q74 567 90 601.5Q106 636 135.5 660.5Q165 685 207 698.5Q249 712 302 712Q354 712 395.5 699Q437 686 467 662Q497 638 515 605Q533 572 538 533L479 518Q468 593 421.5 627Q375 661 301 661Q219 661 178.5 624Q138 587 138 531Q138 469 181 436Q224 403 320 388Q438 369 496 323.5Q554 278 554 191Q554 148 537 111Q520 74 488 46.5Q456 19 410.5 3.5Q365 -12 309 -12Q246 -12 200 3.5Q154 19 122.5 46.5Q91 74 74.5 111.5Q58 149 55 192L115 202Q117 170 129 140.5Q141 111 164.5 88.5Q188 66 224 52.5Q260 39 310 39Q350 39 383 50Q416 61 440 81Q464 101 477 128Q490 155 490 187Q490 217 480 240.5Q470 264 448 281.5Q426 299 391 311.5Q356 324 306 333Z" glyph-name="Sacute" horiz-adv-x="607" unicode="&#346;" /><glyph d="M314 753H276L165 869L197 898L296 802L394 898L426 869ZM306 333Q247 343 203.5 358Q160 373 131 395.5Q102 418 88 450Q74 482 74 526Q74 567 90 601.5Q106 636 135.5 660.5Q165 685 207 698.5Q249 712 302 712Q354 712 395.5 699Q437 686 467 662Q497 638 515 605Q533 572 538 533L479 518Q468 593 421.5 627Q375 661 301 661Q219 661 178.5 624Q138 587 138 531Q138 469 181 436Q224 403 320 388Q438 369 496 323.5Q554 278 554 191Q554 148 537 111Q520 74 488 46.5Q456 19 410.5 3.5Q365 -12 309 -12Q246 -12 200 3.5Q154 19 122.5 46.5Q91 74 74.5 111.5Q58 149 55 192L115 202Q117 170 129 140.5Q141 111 164.5 88.5Q188 66 224 52.5Q260 39 310 39Q350 39 383 50Q416 61 440 81Q464 101 477 128Q490 155 490 187Q490 217 480 240.5Q470 264 448 281.5Q426 299 391 311.5Q356 324 306 333Z" glyph-name="Scaron" horiz-adv-x="607" unicode="&#352;" /><glyph d="M247 -158Q255 -164 266 -170.5Q277 -177 297 -177Q314 -177 327 -164.5Q340 -152 340 -132Q340 -112 328.5 -100.5Q317 -89 298 -89Q286 -89 277 -93Q268 -97 261 -102L236 -78L263 -9Q212 -4 174 13.5Q136 31 110.5 57.5Q85 84 71.5 118.5Q58 153 55 192L115 202Q117 170 129 140.5Q141 111 164.5 88.5Q188 66 224 52.5Q260 39 310 39Q350 39 383 50Q416 61 440 81Q464 101 477 128Q490 155 490 187Q490 217 480 240.5Q470 264 448 281.5Q426 299 391 311.5Q356 324 306 333Q247 343 203.5 358Q160 373 131 395.5Q102 418 88 450Q74 482 74 526Q74 567 90 601.5Q106 636 135.5 660.5Q165 685 207 698.5Q249 712 302 712Q354 712 395.5 699Q437 686 467 662Q497 638 515 605Q533 572 538 533L479 518Q468 593 421.5 627Q375 661 301 661Q219 661 178.5 624Q138 587 138 531Q138 469 181 436Q224 403 320 388Q438 369 496 323.5Q554 278 554 191Q554 148 537 111Q520 74 488 46.5Q456 19 410.5 3.5Q365 -12 309 -12H299L281 -60Q286 -57 294 -54Q302 -51 312 -51Q325 -51 338.5 -55Q352 -59 363 -68.5Q374 -78 381 -93Q388 -108 388 -130Q388 -170 363.5 -193.5Q339 -217 297 -217Q270 -217 251 -208.5Q232 -200 223 -192Z" glyph-name="Scedilla" horiz-adv-x="607" unicode="&#350;" /><glyph d="M426 775 395 746 297 842 198 746 166 775 277 891H315ZM306 333Q247 343 203.5 358Q160 373 131 395.5Q102 418 88 450Q74 482 74 526Q74 567 90 601.5Q106 636 135.5 660.5Q165 685 207 698.5Q249 712 302 712Q354 712 395.5 699Q437 686 467 662Q497 638 515 605Q533 572 538 533L479 518Q468 593 421.5 627Q375 661 301 661Q219 661 178.5 624Q138 587 138 531Q138 469 181 436Q224 403 320 388Q438 369 496 323.5Q554 278 554 191Q554 148 537 111Q520 74 488 46.5Q456 19 410.5 3.5Q365 -12 309 -12Q246 -12 200 3.5Q154 19 122.5 46.5Q91 74 74.5 111.5Q58 149 55 192L115 202Q117 170 129 140.5Q141 111 164.5 88.5Q188 66 224 52.5Q260 39 310 39Q350 39 383 50Q416 61 440 81Q464 101 477 128Q490 155 490 187Q490 217 480 240.5Q470 264 448 281.5Q426 299 391 311.5Q356 324 306 333Z" glyph-name="Scircumflex" horiz-adv-x="607" unicode="&#348;" /><glyph d="M306 333Q247 343 203.5 358Q160 373 131 395.5Q102 418 88 450Q74 482 74 526Q74 567 90 601.5Q106 636 135.5 660.5Q165 685 207 698.5Q249 712 302 712Q354 712 395.5 699Q437 686 467 662Q497 638 515 605Q533 572 538 533L479 518Q468 593 421.5 627Q375 661 301 661Q219 661 178.5 624Q138 587 138 531Q138 469 181 436Q224 403 320 388Q438 369 496 323.5Q554 278 554 191Q554 148 537 111Q520 74 488 46.5Q456 19 410.5 3.5Q365 -12 309 -12Q246 -12 200 3.5Q154 19 122.5 46.5Q91 74 74.5 111.5Q58 149 55 192L115 202Q117 170 129 140.5Q141 111 164.5 88.5Q188 66 224 52.5Q260 39 310 39Q350 39 383 50Q416 61 440 81Q464 101 477 128Q490 155 490 187Q490 217 480 240.5Q470 264 448 281.5Q426 299 391 311.5Q356 324 306 333ZM352 -109Q352 -121 349 -134.5Q346 -148 338.5 -160.5Q331 -173 319 -183Q307 -193 288 -197L277 -170Q293 -168 303 -156.5Q313 -145 313 -131V-127Q312 -128 311 -128H305Q292 -128 281.5 -118Q271 -108 271 -90Q271 -78 280.5 -65.5Q290 -53 309 -53Q331 -53 341.5 -69.5Q352 -86 352 -109Z" glyph-name="Scommaaccent" horiz-adv-x="607" unicode="&#536;" /><glyph d="M25 700H507V649H297V0H235V649H25Z" glyph-name="T" horiz-adv-x="532" unicode="T" /><glyph d="M297 379V0H235V379H92V430H235V649H25V700H507V649H297V430H440V379Z" glyph-name="Tbar" horiz-adv-x="532" unicode="&#358;" /><glyph d="M285 753H247L136 869L168 898L267 802L365 898L397 869ZM25 700H507V649H297V0H235V649H25Z" glyph-name="Tcaron" horiz-adv-x="532" unicode="&#356;" /><glyph d="M25 700H507V649H297V0H235V649H25ZM310 -109Q310 -121 307 -134.5Q304 -148 296.5 -160.5Q289 -173 277 -183Q265 -193 246 -197L235 -170Q251 -168 261 -156.5Q271 -145 271 -131V-127Q270 -128 269 -128H263Q250 -128 239.5 -118Q229 -108 229 -90Q229 -78 238.5 -65.5Q248 -53 267 -53Q289 -53 299.5 -69.5Q310 -86 310 -109Z" glyph-name="Tcommaaccent" horiz-adv-x="532" unicode="&#354;" /><glyph d="M159 700V567H327Q432 567 493.5 518Q555 469 555 366Q555 315 538.5 276.5Q522 238 492 213Q462 188 420 175.5Q378 163 327 163H159V0H97V700ZM492 366Q492 441 448 478.5Q404 516 311 516H159V214H311Q492 214 492 366Z" glyph-name="Thorn" horiz-adv-x="587" unicode="&#222;" /><glyph d="M154 234Q154 198 163 163Q172 128 193 100.5Q214 73 249 56.5Q284 40 337 40Q390 40 425 56.5Q460 73 481 100.5Q502 128 511 163Q520 198 520 234V700H582V243Q582 -12 337 -12Q92 -12 92 243V700H154Z" glyph-name="U" horiz-adv-x="674" unicode="U" /><glyph d="M448 853 290 748 267 780 414 900ZM154 234Q154 198 163 163Q172 128 193 100.5Q214 73 249 56.5Q284 40 337 40Q390 40 425 56.5Q460 73 481 100.5Q502 128 511 163Q520 198 520 234V700H582V243Q582 -12 337 -12Q92 -12 92 243V700H154Z" glyph-name="Uacute" horiz-adv-x="674" unicode="&#218;" /><glyph d="M244 883Q249 850 274.5 826.5Q300 803 337 803Q374 803 399.5 826.5Q425 850 430 883L479 866Q468 818 430 789.5Q392 761 337 761Q282 761 244 789.5Q206 818 195 866ZM154 234Q154 198 163 163Q172 128 193 100.5Q214 73 249 56.5Q284 40 337 40Q390 40 425 56.5Q460 73 481 100.5Q502 128 511 163Q520 198 520 234V700H582V243Q582 -12 337 -12Q92 -12 92 243V700H154Z" glyph-name="Ubreve" horiz-adv-x="674" unicode="&#364;" /><glyph d="M467 775 436 746 338 842 239 746 207 775 318 891H356ZM154 234Q154 198 163 163Q172 128 193 100.5Q214 73 249 56.5Q284 40 337 40Q390 40 425 56.5Q460 73 481 100.5Q502 128 511 163Q520 198 520 234V700H582V243Q582 -12 337 -12Q92 -12 92 243V700H154Z" glyph-name="Ucircumflex" horiz-adv-x="674" unicode="&#219;" /><glyph d="M385 811Q385 830 397.5 842.5Q410 855 429 855Q448 855 460.5 842.5Q473 830 473 811Q473 793 460.5 780.5Q448 768 429 768Q410 768 397.5 780.5Q385 793 385 811ZM201 811Q201 830 213.5 842.5Q226 855 245 855Q264 855 276.5 842.5Q289 830 289 811Q289 793 276.5 780.5Q264 768 245 768Q226 768 213.5 780.5Q201 793 201 811ZM154 234Q154 198 163 163Q172 128 193 100.5Q214 73 249 56.5Q284 40 337 40Q390 40 425 56.5Q460 73 481 100.5Q502 128 511 163Q520 198 520 234V700H582V243Q582 -12 337 -12Q92 -12 92 243V700H154Z" glyph-name="Udieresis" horiz-adv-x="674" unicode="&#220;" /><glyph d="M261 900 408 780 385 748 227 853ZM154 234Q154 198 163 163Q172 128 193 100.5Q214 73 249 56.5Q284 40 337 40Q390 40 425 56.5Q460 73 481 100.5Q502 128 511 163Q520 198 520 234V700H582V243Q582 -12 337 -12Q92 -12 92 243V700H154Z" glyph-name="Ugrave" horiz-adv-x="674" unicode="&#217;" /><glyph d="M560 847 412 748 389 780 526 894ZM390 847 242 748 219 780 356 894ZM154 234Q154 198 163 163Q172 128 193 100.5Q214 73 249 56.5Q284 40 337 40Q390 40 425 56.5Q460 73 481 100.5Q502 128 511 163Q520 198 520 234V700H582V243Q582 -12 337 -12Q92 -12 92 243V700H154Z" glyph-name="Uhungarumlaut" horiz-adv-x="674" unicode="&#368;" /><glyph d="M214 823H461V778H214ZM154 234Q154 198 163 163Q172 128 193 100.5Q214 73 249 56.5Q284 40 337 40Q390 40 425 56.5Q460 73 481 100.5Q502 128 511 163Q520 198 520 234V700H582V243Q582 -12 337 -12Q92 -12 92 243V700H154Z" glyph-name="Umacron" horiz-adv-x="674" unicode="&#362;" /><glyph d="M154 234Q154 198 163 163Q172 128 193 100.5Q214 73 249 56.5Q284 40 337 40Q390 40 425 56.5Q460 73 481 100.5Q502 128 511 163Q520 198 520 234V700H582V243Q582 151 550 93Q518 35 457 7Q409 -15 383.5 -47Q358 -79 358 -108Q358 -125 368.5 -137Q379 -149 400 -149Q417 -149 429.5 -140.5Q442 -132 454 -115L476 -138Q442 -190 386 -190Q375 -190 361.5 -187Q348 -184 336 -175.5Q324 -167 315.5 -152.5Q307 -138 307 -115Q307 -80 326 -54Q345 -28 371 -10Q363 -11 354.5 -11.5Q346 -12 337 -12Q92 -12 92 243V700H154Z" glyph-name="Uogonek" horiz-adv-x="674" unicode="&#370;" /><glyph d="M248 825Q248 863 273 887Q298 911 337 911Q376 911 401 887Q426 863 426 825Q426 787 401 762.5Q376 738 337 738Q298 738 273 762.5Q248 787 248 825ZM289 825Q289 804 302 788.5Q315 773 337 773Q359 773 372 788.5Q385 804 385 825Q385 846 372 861Q359 876 337 876Q315 876 302 861Q289 846 289 825ZM154 234Q154 198 163 163Q172 128 193 100.5Q214 73 249 56.5Q284 40 337 40Q390 40 425 56.5Q460 73 481 100.5Q502 128 511 163Q520 198 520 234V700H582V243Q582 -12 337 -12Q92 -12 92 243V700H154Z" glyph-name="Uring" horiz-adv-x="674" unicode="&#366;" /><glyph d="M270 860Q294 860 312 852.5Q330 845 345 835.5Q360 826 374.5 818.5Q389 811 406 811Q422 811 433 818Q444 825 452 833Q461 843 467 855L500 825Q491 809 477 797Q465 786 446.5 777.5Q428 769 402 769Q377 769 359 776.5Q341 784 326 793Q311 802 297 809.5Q283 817 267 817Q250 817 239 810Q228 803 220 795Q211 785 206 774L174 803Q183 819 196 831Q207 842 225.5 851Q244 860 270 860ZM154 234Q154 198 163 163Q172 128 193 100.5Q214 73 249 56.5Q284 40 337 40Q390 40 425 56.5Q460 73 481 100.5Q502 128 511 163Q520 198 520 234V700H582V243Q582 -12 337 -12Q92 -12 92 243V700H154Z" glyph-name="Utilde" horiz-adv-x="674" unicode="&#360;" /><glyph d="M302 85Q313 119 328 164Q343 209 360 259Q377 309 395.5 361Q414 413 432 462Q473 577 519 700H578L324 0H273L19 700H83Q128 576 169 462Q187 413 205 361Q223 309 240.5 259.5Q258 210 273 165Q288 120 300 85Z" glyph-name="V" horiz-adv-x="597" unicode="V" /><glyph d="M873 700 676 0H619Q579 131 546 249Q531 299 516.5 351Q502 403 488.5 451Q475 499 464.5 540Q454 581 447 609H445Q438 581 427 540Q416 499 402.5 451Q389 403 374 351Q359 299 345 249Q312 131 274 0H217L19 700H80Q117 567 150 447Q164 396 178 343Q192 290 205 241.5Q218 193 228.5 152Q239 111 246 83H248Q255 111 266 152Q277 193 290.5 241.5Q304 290 318.5 343Q333 396 348 447Q382 567 421 700H475Q514 562 548 441Q563 389 577.5 336Q592 283 605.5 235Q619 187 629.5 147Q640 107 646 83H648Q654 107 664 147Q674 187 687 235Q700 283 715 336Q730 389 744 441Q777 562 816 700Z" glyph-name="W" horiz-adv-x="892" unicode="W" /><glyph d="M556 853 398 748 375 780 522 900ZM873 700 676 0H619Q579 131 546 249Q531 299 516.5 351Q502 403 488.5 451Q475 499 464.5 540Q454 581 447 609H445Q438 581 427 540Q416 499 402.5 451Q389 403 374 351Q359 299 345 249Q312 131 274 0H217L19 700H80Q117 567 150 447Q164 396 178 343Q192 290 205 241.5Q218 193 228.5 152Q239 111 246 83H248Q255 111 266 152Q277 193 290.5 241.5Q304 290 318.5 343Q333 396 348 447Q382 567 421 700H475Q514 562 548 441Q563 389 577.5 336Q592 283 605.5 235Q619 187 629.5 147Q640 107 646 83H648Q654 107 664 147Q674 187 687 235Q700 283 715 336Q730 389 744 441Q777 562 816 700Z" glyph-name="Wacute" horiz-adv-x="892" unicode="&#7810;" /><glyph d="M577 775 546 746 448 842 349 746 317 775 428 891H466ZM873 700 676 0H619Q579 131 546 249Q531 299 516.5 351Q502 403 488.5 451Q475 499 464.5 540Q454 581 447 609H445Q438 581 427 540Q416 499 402.5 451Q389 403 374 351Q359 299 345 249Q312 131 274 0H217L19 700H80Q117 567 150 447Q164 396 178 343Q192 290 205 241.5Q218 193 228.5 152Q239 111 246 83H248Q255 111 266 152Q277 193 290.5 241.5Q304 290 318.5 343Q333 396 348 447Q382 567 421 700H475Q514 562 548 441Q563 389 577.5 336Q592 283 605.5 235Q619 187 629.5 147Q640 107 646 83H648Q654 107 664 147Q674 187 687 235Q700 283 715 336Q730 389 744 441Q777 562 816 700Z" glyph-name="Wcircumflex" horiz-adv-x="892" unicode="&#372;" /><glyph d="M496 811Q496 830 508.5 842.5Q521 855 540 855Q559 855 571.5 842.5Q584 830 584 811Q584 793 571.5 780.5Q559 768 540 768Q521 768 508.5 780.5Q496 793 496 811ZM312 811Q312 830 324.5 842.5Q337 855 356 855Q375 855 387.5 842.5Q400 830 400 811Q400 793 387.5 780.5Q375 768 356 768Q337 768 324.5 780.5Q312 793 312 811ZM873 700 676 0H619Q579 131 546 249Q531 299 516.5 351Q502 403 488.5 451Q475 499 464.5 540Q454 581 447 609H445Q438 581 427 540Q416 499 402.5 451Q389 403 374 351Q359 299 345 249Q312 131 274 0H217L19 700H80Q117 567 150 447Q164 396 178 343Q192 290 205 241.5Q218 193 228.5 152Q239 111 246 83H248Q255 111 266 152Q277 193 290.5 241.5Q304 290 318.5 343Q333 396 348 447Q382 567 421 700H475Q514 562 548 441Q563 389 577.5 336Q592 283 605.5 235Q619 187 629.5 147Q640 107 646 83H648Q654 107 664 147Q674 187 687 235Q700 283 715 336Q730 389 744 441Q777 562 816 700Z" glyph-name="Wdieresis" horiz-adv-x="892" unicode="&#7812;" /><glyph d="M374 900 521 780 498 748 340 853ZM873 700 676 0H619Q579 131 546 249Q531 299 516.5 351Q502 403 488.5 451Q475 499 464.5 540Q454 581 447 609H445Q438 581 427 540Q416 499 402.5 451Q389 403 374 351Q359 299 345 249Q312 131 274 0H217L19 700H80Q117 567 150 447Q164 396 178 343Q192 290 205 241.5Q218 193 228.5 152Q239 111 246 83H248Q255 111 266 152Q277 193 290.5 241.5Q304 290 318.5 343Q333 396 348 447Q382 567 421 700H475Q514 562 548 441Q563 389 577.5 336Q592 283 605.5 235Q619 187 629.5 147Q640 107 646 83H648Q654 107 664 147Q674 187 687 235Q700 283 715 336Q730 389 744 441Q777 562 816 700Z" glyph-name="Wgrave" horiz-adv-x="892" unicode="&#7808;" /><glyph d="M117 700 311 417 505 700H574L344 370L603 0H531L309 321L87 0H19L275 367L44 700Z" glyph-name="X" horiz-adv-x="622" unicode="X" /><glyph d="M262 312 12 700H81L294 365L508 700H574L324 312V0H262Z" glyph-name="Y" horiz-adv-x="586" unicode="Y" /><glyph d="M405 853 247 748 224 780 371 900ZM262 312 12 700H81L294 365L508 700H574L324 312V0H262Z" glyph-name="Yacute" horiz-adv-x="586" unicode="&#221;" /><glyph d="M425 775 394 746 296 842 197 746 165 775 276 891H314ZM262 312 12 700H81L294 365L508 700H574L324 312V0H262Z" glyph-name="Ycircumflex" horiz-adv-x="586" unicode="&#374;" /><glyph d="M342 811Q342 830 354.5 842.5Q367 855 386 855Q405 855 417.5 842.5Q430 830 430 811Q430 793 417.5 780.5Q405 768 386 768Q367 768 354.5 780.5Q342 793 342 811ZM158 811Q158 830 170.5 842.5Q183 855 202 855Q221 855 233.5 842.5Q246 830 246 811Q246 793 233.5 780.5Q221 768 202 768Q183 768 170.5 780.5Q158 793 158 811ZM262 312 12 700H81L294 365L508 700H574L324 312V0H262Z" glyph-name="Ydieresis" horiz-adv-x="586" unicode="&#376;" /><glyph d="M59 700H548V659L126 51H547V0H49V41L473 649H59Z" glyph-name="Z" horiz-adv-x="597" unicode="Z" /><glyph d="M421 853 263 748 240 780 387 900ZM59 700H548V659L126 51H547V0H49V41L473 649H59Z" glyph-name="Zacute" horiz-adv-x="597" unicode="&#377;" /><glyph d="M325 753H287L176 869L208 898L307 802L405 898L437 869ZM59 700H548V659L126 51H547V0H49V41L473 649H59Z" glyph-name="Zcaron" horiz-adv-x="597" unicode="&#142;" /><glyph d="M263 809Q263 829 275.5 841Q288 853 307 853Q326 853 338.5 841Q351 829 351 809Q351 792 338.5 779Q326 766 307 766Q288 766 275.5 779Q263 792 263 809ZM59 700H548V659L126 51H547V0H49V41L473 649H59Z" glyph-name="Zdotaccent" horiz-adv-x="597" unicode="&#379;" /><glyph d="M371 0Q366 9 362.5 27.5Q359 46 360 69Q341 39 297.5 13.5Q254 -12 192 -12Q123 -12 83.5 22.5Q44 57 44 118Q44 163 69.5 193.5Q95 224 138 242.5Q181 261 238.5 269Q296 277 360 277V313Q360 364 332 398Q304 432 242 432Q184 432 155.5 403.5Q127 375 123 330L62 339Q66 374 82.5 400.5Q99 427 123.5 445Q148 463 179 472Q210 481 244 481Q328 481 373.5 436Q419 391 419 319V71Q419 48 422 30.5Q425 13 430 0ZM203 36Q234 36 262.5 46Q291 56 313 75.5Q335 95 347.5 122.5Q360 150 360 186V230Q304 230 257 224Q210 218 176 204.5Q142 191 123.5 170.5Q105 150 105 121Q105 82 131.5 59Q158 36 203 36Z" glyph-name="a" horiz-adv-x="496" unicode="a" /><glyph d="M410 0V75Q389 40 352 14Q315 -12 252 -12Q208 -12 171 5.5Q134 23 106.5 55.5Q79 88 63.5 133.5Q48 179 48 235Q48 290 63.5 335.5Q79 381 106.5 413.5Q134 446 171 463.5Q208 481 252 481Q315 481 352 455Q389 429 410 394V469H465V0ZM259 38Q281 38 306.5 47Q332 56 354 75.5Q376 95 390.5 125.5Q405 156 405 199V270Q405 313 390.5 343.5Q376 374 354 393.5Q332 413 306.5 422Q281 431 259 431Q224 431 196.5 416Q169 401 150 374.5Q131 348 120.5 312.5Q110 277 110 235Q110 193 120.5 157Q131 121 150 94.5Q169 68 196.5 53Q224 38 259 38Z" glyph-name="a.school" horiz-adv-x="551" unicode="&#57681;" /><glyph d="M484 0H423L365 160H136L78 0H21L227 564H278ZM249 485Q246 476 240.5 459Q235 442 227.5 421Q220 400 211.5 376Q203 352 195 328Q176 273 153 207H348Q325 273 306 328Q298 352 289.5 376Q281 400 273.5 421Q266 442 260 459Q254 476 251 485Z" glyph-name="a.smcp" horiz-adv-x="505" unicode="&#57857;" /><glyph d="M239 288Q237 293 234.5 304Q232 315 232 329Q217 309 191.5 294.5Q166 280 128 280Q85 280 58 303Q31 326 31 364Q31 394 47.5 414Q64 434 91.5 445.5Q119 457 155.5 462Q192 467 232 467V486Q232 517 215 537Q198 557 163 557Q128 557 111 540Q94 523 92 497L43 504Q46 526 56.5 543.5Q67 561 83.5 572Q100 583 120.5 589Q141 595 164 595Q218 595 248.5 567Q279 539 279 491V330Q279 316 281.5 306Q284 296 287 288ZM141 319Q159 319 175 324.5Q191 330 204 341Q217 352 224.5 368Q232 384 232 404V431Q165 431 123 416Q81 401 81 368Q81 344 97.5 331.5Q114 319 141 319Z" glyph-name="a.superior" horiz-adv-x="330" unicode="&#58209;" /><glyph d="M310 288H264V334Q251 313 228 296.5Q205 280 167 280Q109 280 71 322.5Q33 365 33 438Q33 474 43 503Q53 532 71 552.5Q89 573 113.5 584Q138 595 167 595Q205 595 228 579Q251 563 264 542V587H310ZM261 457Q261 484 252.5 502.5Q244 521 231 532.5Q218 544 202 549Q186 554 172 554Q130 554 107 521Q84 488 84 438Q84 387 107 354Q130 321 172 321Q186 321 202 326Q218 331 231 342.5Q244 354 252.5 372.5Q261 391 261 418Z" glyph-name="a.superiorschool" horiz-adv-x="365" /><glyph d="M337 637 179 532 156 564 303 684ZM371 0Q366 9 362.5 27.5Q359 46 360 69Q341 39 297.5 13.5Q254 -12 192 -12Q123 -12 83.5 22.5Q44 57 44 118Q44 163 69.5 193.5Q95 224 138 242.5Q181 261 238.5 269Q296 277 360 277V313Q360 364 332 398Q304 432 242 432Q184 432 155.5 403.5Q127 375 123 330L62 339Q66 374 82.5 400.5Q99 427 123.5 445Q148 463 179 472Q210 481 244 481Q328 481 373.5 436Q419 391 419 319V71Q419 48 422 30.5Q425 13 430 0ZM203 36Q234 36 262.5 46Q291 56 313 75.5Q335 95 347.5 122.5Q360 150 360 186V230Q304 230 257 224Q210 218 176 204.5Q142 191 123.5 170.5Q105 150 105 121Q105 82 131.5 59Q158 36 203 36Z" glyph-name="aacute" horiz-adv-x="496" unicode="&#225;" /><glyph d="M353 637 195 532 172 564 319 684ZM410 0V75Q389 40 352 14Q315 -12 252 -12Q208 -12 171 5.5Q134 23 106.5 55.5Q79 88 63.5 133.5Q48 179 48 235Q48 290 63.5 335.5Q79 381 106.5 413.5Q134 446 171 463.5Q208 481 252 481Q315 481 352 455Q389 429 410 394V469H465V0ZM259 38Q281 38 306.5 47Q332 56 354 75.5Q376 95 390.5 125.5Q405 156 405 199V270Q405 313 390.5 343.5Q376 374 354 393.5Q332 413 306.5 422Q281 431 259 431Q224 431 196.5 416Q169 401 150 374.5Q131 348 120.5 312.5Q110 277 110 235Q110 193 120.5 157Q131 121 150 94.5Q169 68 196.5 53Q224 38 259 38Z" glyph-name="aacute.school" horiz-adv-x="551" unicode="&#57683;" /><glyph d="M352 715 194 610 171 642 318 762ZM484 0H423L365 160H136L78 0H21L227 564H278ZM249 485Q246 476 240.5 459Q235 442 227.5 421Q220 400 211.5 376Q203 352 195 328Q176 273 153 207H348Q325 273 306 328Q298 352 289.5 376Q281 400 273.5 421Q266 442 260 459Q254 476 251 485Z" glyph-name="aacute.smcp" horiz-adv-x="505" unicode="&#57889;" /><glyph d="M150 661Q155 628 180.5 604.5Q206 581 243 581Q280 581 305.5 604.5Q331 628 336 661L385 644Q374 596 336 567.5Q298 539 243 539Q188 539 150 567.5Q112 596 101 644ZM371 0Q366 9 362.5 27.5Q359 46 360 69Q341 39 297.5 13.5Q254 -12 192 -12Q123 -12 83.5 22.5Q44 57 44 118Q44 163 69.5 193.5Q95 224 138 242.5Q181 261 238.5 269Q296 277 360 277V313Q360 364 332 398Q304 432 242 432Q184 432 155.5 403.5Q127 375 123 330L62 339Q66 374 82.5 400.5Q99 427 123.5 445Q148 463 179 472Q210 481 244 481Q328 481 373.5 436Q419 391 419 319V71Q419 48 422 30.5Q425 13 430 0ZM203 36Q234 36 262.5 46Q291 56 313 75.5Q335 95 347.5 122.5Q360 150 360 186V230Q304 230 257 224Q210 218 176 204.5Q142 191 123.5 170.5Q105 150 105 121Q105 82 131.5 59Q158 36 203 36Z" glyph-name="abreve" horiz-adv-x="496" unicode="&#259;" /><glyph d="M169 661Q174 628 199.5 604.5Q225 581 262 581Q299 581 324.5 604.5Q350 628 355 661L404 644Q393 596 355 567.5Q317 539 262 539Q207 539 169 567.5Q131 596 120 644ZM410 0V75Q389 40 352 14Q315 -12 252 -12Q208 -12 171 5.5Q134 23 106.5 55.5Q79 88 63.5 133.5Q48 179 48 235Q48 290 63.5 335.5Q79 381 106.5 413.5Q134 446 171 463.5Q208 481 252 481Q315 481 352 455Q389 429 410 394V469H465V0ZM259 38Q281 38 306.5 47Q332 56 354 75.5Q376 95 390.5 125.5Q405 156 405 199V270Q405 313 390.5 343.5Q376 374 354 393.5Q332 413 306.5 422Q281 431 259 431Q224 431 196.5 416Q169 401 150 374.5Q131 348 120.5 312.5Q110 277 110 235Q110 193 120.5 157Q131 121 150 94.5Q169 68 196.5 53Q224 38 259 38Z" glyph-name="abreve.school" horiz-adv-x="551" unicode="&#57690;" /><glyph d="M160 741Q165 708 190.5 684.5Q216 661 253 661Q290 661 315.5 684.5Q341 708 346 741L395 724Q384 676 346 647.5Q308 619 253 619Q198 619 160 647.5Q122 676 111 724ZM484 0H423L365 160H136L78 0H21L227 564H278ZM249 485Q246 476 240.5 459Q235 442 227.5 421Q220 400 211.5 376Q203 352 195 328Q176 273 153 207H348Q325 273 306 328Q298 352 289.5 376Q281 400 273.5 421Q266 442 260 459Q254 476 251 485Z" glyph-name="abreve.smcp" horiz-adv-x="505" unicode="&#57897;" /><glyph d="M221 685H263L372 555L340 528L241 636L143 528L112 555ZM371 0Q366 9 362.5 27.5Q359 46 360 69Q341 39 297.5 13.5Q254 -12 192 -12Q123 -12 83.5 22.5Q44 57 44 118Q44 163 69.5 193.5Q95 224 138 242.5Q181 261 238.5 269Q296 277 360 277V313Q360 364 332 398Q304 432 242 432Q184 432 155.5 403.5Q127 375 123 330L62 339Q66 374 82.5 400.5Q99 427 123.5 445Q148 463 179 472Q210 481 244 481Q328 481 373.5 436Q419 391 419 319V71Q419 48 422 30.5Q425 13 430 0ZM203 36Q234 36 262.5 46Q291 56 313 75.5Q335 95 347.5 122.5Q360 150 360 186V230Q304 230 257 224Q210 218 176 204.5Q142 191 123.5 170.5Q105 150 105 121Q105 82 131.5 59Q158 36 203 36Z" glyph-name="acircumflex" horiz-adv-x="496" unicode="&#226;" /><glyph d="M241 685H283L392 555L360 528L261 636L163 528L132 555ZM410 0V75Q389 40 352 14Q315 -12 252 -12Q208 -12 171 5.5Q134 23 106.5 55.5Q79 88 63.5 133.5Q48 179 48 235Q48 290 63.5 335.5Q79 381 106.5 413.5Q134 446 171 463.5Q208 481 252 481Q315 481 352 455Q389 429 410 394V469H465V0ZM259 38Q281 38 306.5 47Q332 56 354 75.5Q376 95 390.5 125.5Q405 156 405 199V270Q405 313 390.5 343.5Q376 374 354 393.5Q332 413 306.5 422Q281 431 259 431Q224 431 196.5 416Q169 401 150 374.5Q131 348 120.5 312.5Q110 277 110 235Q110 193 120.5 157Q131 121 150 94.5Q169 68 196.5 53Q224 38 259 38Z" glyph-name="acircumflex.school" horiz-adv-x="551" unicode="&#57684;" /><glyph d="M233 765H275L384 635L352 608L253 716L155 608L124 635ZM484 0H423L365 160H136L78 0H21L227 564H278ZM249 485Q246 476 240.5 459Q235 442 227.5 421Q220 400 211.5 376Q203 352 195 328Q176 273 153 207H348Q325 273 306 328Q298 352 289.5 376Q281 400 273.5 421Q266 442 260 459Q254 476 251 485Z" glyph-name="acircumflex.smcp" horiz-adv-x="505" unicode="&#57891;" /><glyph d="M388 637 230 532 207 564 354 684Z" glyph-name="acute" horiz-adv-x="600" unicode="&#180;" /><glyph d="M388 853 230 748 207 780 354 900Z" glyph-name="acute.cap" horiz-adv-x="600" unicode="&#58402;" /><glyph d="M289 597Q289 616 301.5 628.5Q314 641 333 641Q352 641 364.5 628.5Q377 616 377 597Q377 579 364.5 566.5Q352 554 333 554Q314 554 301.5 566.5Q289 579 289 597ZM105 597Q105 616 117.5 628.5Q130 641 149 641Q168 641 180.5 628.5Q193 616 193 597Q193 579 180.5 566.5Q168 554 149 554Q130 554 117.5 566.5Q105 579 105 597ZM371 0Q366 9 362.5 27.5Q359 46 360 69Q341 39 297.5 13.5Q254 -12 192 -12Q123 -12 83.5 22.5Q44 57 44 118Q44 163 69.5 193.5Q95 224 138 242.5Q181 261 238.5 269Q296 277 360 277V313Q360 364 332 398Q304 432 242 432Q184 432 155.5 403.5Q127 375 123 330L62 339Q66 374 82.5 400.5Q99 427 123.5 445Q148 463 179 472Q210 481 244 481Q328 481 373.5 436Q419 391 419 319V71Q419 48 422 30.5Q425 13 430 0ZM203 36Q234 36 262.5 46Q291 56 313 75.5Q335 95 347.5 122.5Q360 150 360 186V230Q304 230 257 224Q210 218 176 204.5Q142 191 123.5 170.5Q105 150 105 121Q105 82 131.5 59Q158 36 203 36Z" glyph-name="adieresis" horiz-adv-x="496" unicode="&#228;" /><glyph d="M309 597Q309 616 321.5 628.5Q334 641 353 641Q372 641 384.5 628.5Q397 616 397 597Q397 579 384.5 566.5Q372 554 353 554Q334 554 321.5 566.5Q309 579 309 597ZM125 597Q125 616 137.5 628.5Q150 641 169 641Q188 641 200.5 628.5Q213 616 213 597Q213 579 200.5 566.5Q188 554 169 554Q150 554 137.5 566.5Q125 579 125 597ZM410 0V75Q389 40 352 14Q315 -12 252 -12Q208 -12 171 5.5Q134 23 106.5 55.5Q79 88 63.5 133.5Q48 179 48 235Q48 290 63.5 335.5Q79 381 106.5 413.5Q134 446 171 463.5Q208 481 252 481Q315 481 352 455Q389 429 410 394V469H465V0ZM259 38Q281 38 306.5 47Q332 56 354 75.5Q376 95 390.5 125.5Q405 156 405 199V270Q405 313 390.5 343.5Q376 374 354 393.5Q332 413 306.5 422Q281 431 259 431Q224 431 196.5 416Q169 401 150 374.5Q131 348 120.5 312.5Q110 277 110 235Q110 193 120.5 157Q131 121 150 94.5Q169 68 196.5 53Q224 38 259 38Z" glyph-name="adieresis.school" horiz-adv-x="551" unicode="&#57685;" /><glyph d="M302 669Q302 688 314.5 700.5Q327 713 346 713Q365 713 377.5 700.5Q390 688 390 669Q390 651 377.5 638.5Q365 626 346 626Q327 626 314.5 638.5Q302 651 302 669ZM118 669Q118 688 130.5 700.5Q143 713 162 713Q181 713 193.5 700.5Q206 688 206 669Q206 651 193.5 638.5Q181 626 162 626Q143 626 130.5 638.5Q118 651 118 669ZM484 0H423L365 160H136L78 0H21L227 564H278ZM249 485Q246 476 240.5 459Q235 442 227.5 421Q220 400 211.5 376Q203 352 195 328Q176 273 153 207H348Q325 273 306 328Q298 352 289.5 376Q281 400 273.5 421Q266 442 260 459Q254 476 251 485Z" glyph-name="adieresis.smcp" horiz-adv-x="505" unicode="&#57892;" /><glyph d="M760 108Q734 54 689 21Q644 -12 575 -12Q508 -12 462.5 17Q417 46 392 97Q364 41 312 14.5Q260 -12 199 -12Q127 -12 85.5 21Q44 54 44 119Q44 163 69.5 193.5Q95 224 138 242.5Q181 261 238.5 269Q296 277 360 277V313Q360 365 332 399Q304 433 242 433Q184 433 155.5 404Q127 375 123 330L62 339Q66 374 82.5 400.5Q99 427 123.5 445Q148 463 179 472Q210 481 244 481Q304 481 344 456.5Q384 432 403 390Q429 432 471 456.5Q513 481 572 481Q623 481 661 461.5Q699 442 724 410Q749 378 761 336.5Q773 295 773 252V229H418Q420 189 430 154Q440 119 459 92.5Q478 66 506.5 51Q535 36 575 36Q629 36 658 61Q687 86 708 130ZM569 433Q538 433 512.5 421Q487 409 468 388Q449 367 437 338.5Q425 310 422 277H711Q707 349 668.5 391Q630 433 569 433ZM203 36Q234 36 262.5 46Q291 56 313 75.5Q335 95 347.5 122.5Q360 150 360 186V229Q302 229 255 223Q208 217 174.5 204Q141 191 123 170.5Q105 150 105 121Q105 82 132.5 59Q160 36 203 36Z" glyph-name="ae" horiz-adv-x="812" unicode="&#230;" /><glyph d="M370 0V160H172L78 0H17L346 564H692V516H429V315H675V267H429V48H698V0ZM198 206H370V501H367Z" glyph-name="ae.smcp" horiz-adv-x="751" unicode="&#57905;" /><glyph d="M188 684 335 564 312 532 154 637ZM371 0Q366 9 362.5 27.5Q359 46 360 69Q341 39 297.5 13.5Q254 -12 192 -12Q123 -12 83.5 22.5Q44 57 44 118Q44 163 69.5 193.5Q95 224 138 242.5Q181 261 238.5 269Q296 277 360 277V313Q360 364 332 398Q304 432 242 432Q184 432 155.5 403.5Q127 375 123 330L62 339Q66 374 82.5 400.5Q99 427 123.5 445Q148 463 179 472Q210 481 244 481Q328 481 373.5 436Q419 391 419 319V71Q419 48 422 30.5Q425 13 430 0ZM203 36Q234 36 262.5 46Q291 56 313 75.5Q335 95 347.5 122.5Q360 150 360 186V230Q304 230 257 224Q210 218 176 204.5Q142 191 123.5 170.5Q105 150 105 121Q105 82 131.5 59Q158 36 203 36Z" glyph-name="agrave" horiz-adv-x="496" unicode="&#224;" /><glyph d="M210 684 357 564 334 532 176 637ZM410 0V75Q389 40 352 14Q315 -12 252 -12Q208 -12 171 5.5Q134 23 106.5 55.5Q79 88 63.5 133.5Q48 179 48 235Q48 290 63.5 335.5Q79 381 106.5 413.5Q134 446 171 463.5Q208 481 252 481Q315 481 352 455Q389 429 410 394V469H465V0ZM259 38Q281 38 306.5 47Q332 56 354 75.5Q376 95 390.5 125.5Q405 156 405 199V270Q405 313 390.5 343.5Q376 374 354 393.5Q332 413 306.5 422Q281 431 259 431Q224 431 196.5 416Q169 401 150 374.5Q131 348 120.5 312.5Q110 277 110 235Q110 193 120.5 157Q131 121 150 94.5Q169 68 196.5 53Q224 38 259 38Z" glyph-name="agrave.school" horiz-adv-x="551" unicode="&#57682;" /><glyph d="M189 762 336 642 313 610 155 715ZM484 0H423L365 160H136L78 0H21L227 564H278ZM249 485Q246 476 240.5 459Q235 442 227.5 421Q220 400 211.5 376Q203 352 195 328Q176 273 153 207H348Q325 273 306 328Q298 352 289.5 376Q281 400 273.5 421Q266 442 260 459Q254 476 251 485Z" glyph-name="agrave.smcp" horiz-adv-x="505" unicode="&#57890;" /><glyph d="M120 610H367V565H120ZM371 0Q366 9 362.5 27.5Q359 46 360 69Q341 39 297.5 13.5Q254 -12 192 -12Q123 -12 83.5 22.5Q44 57 44 118Q44 163 69.5 193.5Q95 224 138 242.5Q181 261 238.5 269Q296 277 360 277V313Q360 364 332 398Q304 432 242 432Q184 432 155.5 403.5Q127 375 123 330L62 339Q66 374 82.5 400.5Q99 427 123.5 445Q148 463 179 472Q210 481 244 481Q328 481 373.5 436Q419 391 419 319V71Q419 48 422 30.5Q425 13 430 0ZM203 36Q234 36 262.5 46Q291 56 313 75.5Q335 95 347.5 122.5Q360 150 360 186V230Q304 230 257 224Q210 218 176 204.5Q142 191 123.5 170.5Q105 150 105 121Q105 82 131.5 59Q158 36 203 36Z" glyph-name="amacron" horiz-adv-x="496" unicode="&#257;" /><glyph d="M135 610H382V565H135ZM410 0V75Q389 40 352 14Q315 -12 252 -12Q208 -12 171 5.5Q134 23 106.5 55.5Q79 88 63.5 133.5Q48 179 48 235Q48 290 63.5 335.5Q79 381 106.5 413.5Q134 446 171 463.5Q208 481 252 481Q315 481 352 455Q389 429 410 394V469H465V0ZM259 38Q281 38 306.5 47Q332 56 354 75.5Q376 95 390.5 125.5Q405 156 405 199V270Q405 313 390.5 343.5Q376 374 354 393.5Q332 413 306.5 422Q281 431 259 431Q224 431 196.5 416Q169 401 150 374.5Q131 348 120.5 312.5Q110 277 110 235Q110 193 120.5 157Q131 121 150 94.5Q169 68 196.5 53Q224 38 259 38Z" glyph-name="amacron.school" horiz-adv-x="551" unicode="&#57689;" /><glyph d="M129 679H376V634H129ZM484 0H423L365 160H136L78 0H21L227 564H278ZM249 485Q246 476 240.5 459Q235 442 227.5 421Q220 400 211.5 376Q203 352 195 328Q176 273 153 207H348Q325 273 306 328Q298 352 289.5 376Q281 400 273.5 421Q266 442 260 459Q254 476 251 485Z" glyph-name="amacron.smcp" horiz-adv-x="505" unicode="&#57896;" /><glyph d="M540 0 479 71Q444 36 392.5 12Q341 -12 274 -12Q223 -12 180.5 1.5Q138 15 107 41Q76 67 59 104Q42 141 42 189Q42 229 53.5 261.5Q65 294 85.5 321Q106 348 134 370Q162 392 195 410Q165 449 143.5 485Q122 521 122 564Q122 590 130 616.5Q138 643 156 664Q174 685 203 698.5Q232 712 273 712Q309 712 336 701Q363 690 381 670.5Q399 651 408 625.5Q417 600 417 572Q417 546 410 523.5Q403 501 386.5 479.5Q370 458 343.5 437.5Q317 417 277 395L478 156Q495 185 500.5 222Q506 259 508 298L558 279Q556 238 547 197Q538 156 514 113L609 0ZM178 567Q178 529 198 497.5Q218 466 247 432Q268 444 289 457.5Q310 471 326 487.5Q342 504 352 525Q362 546 362 572Q362 610 339.5 638Q317 666 272 666Q229 666 203.5 637.5Q178 609 178 567ZM276 35Q333 35 375.5 56.5Q418 78 447 110L226 372Q172 346 137 301Q102 256 102 194Q102 158 114 129Q126 100 148.5 79Q171 58 203 46.5Q235 35 276 35Z" glyph-name="ampersand" horiz-adv-x="638" unicode="&amp;" /><glyph d="M220 792 270 778 114 307 270 -164 220 -178 52 307Z" glyph-name="anglebracketleft" horiz-adv-x="285" unicode="&#12296;" /><glyph d="M220 836 270 822 114 351 270 -120 220 -134 52 351Z" glyph-name="anglebracketleft.cap" horiz-adv-x="285" unicode="&#58519;" /><glyph d="M233 307 65 -178 15 -164 171 307 15 778 65 792Z" glyph-name="anglebracketright" horiz-adv-x="285" unicode="&#12297;" /><glyph d="M233 351 65 -134 15 -120 171 351 15 822 65 836Z" glyph-name="anglebracketright.cap" horiz-adv-x="285" unicode="&#58520;" /><glyph d="M423 0Q383 109 349 205Q334 246 319.5 287.5Q305 329 291.5 366.5Q278 404 267.5 434.5Q257 465 251 484H249Q243 465 232 434.5Q221 404 208 366.5Q195 329 180.5 287.5Q166 246 151 205Q117 109 78 0H21L227 564H278L484 0H423Z" glyph-name="anocross.smcp" horiz-adv-x="505" unicode="&#57888;" /><glyph d="M337 -108Q337 -125 347.5 -137Q358 -149 379 -149Q396 -149 408.5 -140.5Q421 -132 433 -115L455 -138Q421 -190 365 -190Q354 -190 340.5 -187Q327 -184 315 -175.5Q303 -167 294.5 -152.5Q286 -138 286 -115Q286 -94 293.5 -76.5Q301 -59 313 -45Q325 -31 340.5 -19.5Q356 -8 371 0Q366 9 362.5 27.5Q359 46 360 69Q341 39 297.5 13.5Q254 -12 192 -12Q123 -12 83.5 22.5Q44 57 44 118Q44 163 69.5 193.5Q95 224 138 242.5Q181 261 238.5 269Q296 277 360 277V313Q360 364 332 398Q304 432 242 432Q184 432 155.5 403.5Q127 375 123 330L62 339Q66 374 82.5 400.5Q99 427 123.5 445Q148 463 179 472Q210 481 244 481Q328 481 373.5 436Q419 391 419 319V71Q419 48 422 30.5Q425 13 430 0Q375 -33 356 -59Q337 -85 337 -108ZM203 36Q234 36 262.5 46Q291 56 313 75.5Q335 95 347.5 122.5Q360 150 360 186V230Q304 230 257 224Q210 218 176 204.5Q142 191 123.5 170.5Q105 150 105 121Q105 82 131.5 59Q158 36 203 36Z" glyph-name="aogonek" horiz-adv-x="496" unicode="&#261;" /><glyph d="M410 0V75Q389 40 352 14Q315 -12 252 -12Q208 -12 171 5.5Q134 23 106.5 55.5Q79 88 63.5 133.5Q48 179 48 235Q48 290 63.5 335.5Q79 381 106.5 413.5Q134 446 171 463.5Q208 481 252 481Q315 481 352 455Q389 429 410 394V469H465V0ZM259 38Q281 38 306.5 47Q332 56 354 75.5Q376 95 390.5 125.5Q405 156 405 199V270Q405 313 390.5 343.5Q376 374 354 393.5Q332 413 306.5 422Q281 431 259 431Q224 431 196.5 416Q169 401 150 374.5Q131 348 120.5 312.5Q110 277 110 235Q110 193 120.5 157Q131 121 150 94.5Q169 68 196.5 53Q224 38 259 38ZM374 -108Q374 -125 384.5 -137Q395 -149 416 -149Q433 -149 445.5 -140.5Q458 -132 470 -115L492 -138Q458 -190 402 -190Q391 -190 377.5 -187Q364 -184 352 -175.5Q340 -167 331.5 -152.5Q323 -138 323 -115Q323 -93 331 -75Q339 -57 351.5 -43Q364 -29 379.5 -18.5Q395 -8 410 0H465Q412 -33 393 -59Q374 -85 374 -108Z" glyph-name="aogonek.school" horiz-adv-x="551" unicode="&#57680;" /><glyph d="M390 -108Q390 -125 400.5 -137Q411 -149 432 -149Q449 -149 461.5 -140.5Q474 -132 486 -115L508 -138Q474 -190 418 -190Q407 -190 393.5 -187Q380 -184 368 -175.5Q356 -167 347.5 -152.5Q339 -138 339 -115Q339 -94 346.5 -77Q354 -60 366 -45.5Q378 -31 393 -20Q408 -9 423 0L365 160H136L78 0H21L227 564H278L484 0Q428 -33 409 -59.5Q390 -86 390 -108ZM249 485Q246 476 240.5 459Q235 442 227.5 421Q220 400 211.5 376Q203 352 195 328Q176 273 153 207H348Q325 273 306 328Q298 352 289.5 376Q281 400 273.5 421Q266 442 260 459Q254 476 251 485Z" glyph-name="aogonek.smcp" horiz-adv-x="505" unicode="&#57903;" /><glyph d="M400 357Q364 357 337.5 368Q311 379 288 392.5Q265 406 243.5 417.5Q222 429 197 429Q173 429 156.5 419Q140 409 129 398Q117 384 109 367L59 392Q71 417 91 436Q108 453 135 467Q162 481 201 481Q237 481 263.5 469.5Q290 458 312.5 444.5Q335 431 356 420Q377 409 403 409Q426 409 443 418.5Q460 428 471 439Q483 452 492 470L541 444Q528 419 509 400Q492 383 465 370Q438 357 400 357ZM400 176Q364 176 337.5 187Q311 198 288 211.5Q265 225 243.5 236.5Q222 248 197 248Q173 248 156.5 238Q140 228 129 217Q117 203 109 186L59 211Q71 236 91 255Q108 272 135 286Q162 300 201 300Q237 300 263.5 288.5Q290 277 312.5 263.5Q335 250 356 239Q377 228 403 228Q426 228 443 237.5Q460 247 471 258Q483 271 492 289L541 263Q528 238 509 219Q492 202 465 189Q438 176 400 176Z" glyph-name="approxequal" horiz-adv-x="600" unicode="&#8776;" /><glyph d="M432 390Q393 390 364.5 401Q336 412 312 425.5Q288 439 265 450.5Q242 462 215 462Q186 462 166 452Q146 442 133 431Q118 417 109 400L59 425Q73 450 95 469Q114 486 144 500Q174 514 219 514Q258 514 286 502.5Q314 491 338 477.5Q362 464 385 453Q408 442 435 442Q464 442 484 451.5Q504 461 517 472Q532 485 542 503L591 477Q577 452 555 433Q536 416 506 403Q476 390 432 390ZM432 210Q393 210 364.5 221Q336 232 312 245.5Q288 259 265 270.5Q242 282 215 282Q186 282 166 272Q146 262 133 251Q118 237 109 220L59 245Q73 270 95 289Q114 306 144 320Q174 334 219 334Q258 334 286 322.5Q314 311 338 297.5Q362 284 385 273Q408 262 435 262Q464 262 484 271.5Q504 281 517 292Q532 305 542 323L591 297Q577 272 555 253Q536 236 506 223Q476 210 432 210Z" glyph-name="approxequal.cap" horiz-adv-x="650" unicode="&#61990;" /><glyph d="M156 611Q156 649 181 673Q206 697 245 697Q284 697 309 673Q334 649 334 611Q334 573 309 548.5Q284 524 245 524Q206 524 181 548.5Q156 573 156 611ZM197 611Q197 590 210 574.5Q223 559 245 559Q267 559 280 574.5Q293 590 293 611Q293 632 280 647Q267 662 245 662Q223 662 210 647Q197 632 197 611ZM371 0Q366 9 362.5 27.5Q359 46 360 69Q341 39 297.5 13.5Q254 -12 192 -12Q123 -12 83.5 22.5Q44 57 44 118Q44 163 69.5 193.5Q95 224 138 242.5Q181 261 238.5 269Q296 277 360 277V313Q360 364 332 398Q304 432 242 432Q184 432 155.5 403.5Q127 375 123 330L62 339Q66 374 82.5 400.5Q99 427 123.5 445Q148 463 179 472Q210 481 244 481Q328 481 373.5 436Q419 391 419 319V71Q419 48 422 30.5Q425 13 430 0ZM203 36Q234 36 262.5 46Q291 56 313 75.5Q335 95 347.5 122.5Q360 150 360 186V230Q304 230 257 224Q210 218 176 204.5Q142 191 123.5 170.5Q105 150 105 121Q105 82 131.5 59Q158 36 203 36Z" glyph-name="aring" horiz-adv-x="496" unicode="&#229;" /><glyph d="M172 611Q172 649 197 673Q222 697 261 697Q300 697 325 673Q350 649 350 611Q350 573 325 548.5Q300 524 261 524Q222 524 197 548.5Q172 573 172 611ZM213 611Q213 590 226 574.5Q239 559 261 559Q283 559 296 574.5Q309 590 309 611Q309 632 296 647Q283 662 261 662Q239 662 226 647Q213 632 213 611ZM410 0V75Q389 40 352 14Q315 -12 252 -12Q208 -12 171 5.5Q134 23 106.5 55.5Q79 88 63.5 133.5Q48 179 48 235Q48 290 63.5 335.5Q79 381 106.5 413.5Q134 446 171 463.5Q208 481 252 481Q315 481 352 455Q389 429 410 394V469H465V0ZM259 38Q281 38 306.5 47Q332 56 354 75.5Q376 95 390.5 125.5Q405 156 405 199V270Q405 313 390.5 343.5Q376 374 354 393.5Q332 413 306.5 422Q281 431 259 431Q224 431 196.5 416Q169 401 150 374.5Q131 348 120.5 312.5Q110 277 110 235Q110 193 120.5 157Q131 121 150 94.5Q169 68 196.5 53Q224 38 259 38Z" glyph-name="aring.school" horiz-adv-x="551" unicode="&#57687;" /><glyph d="M165 693Q165 731 190 755Q215 779 254 779Q293 779 318 755Q343 731 343 693Q343 655 318 630.5Q293 606 254 606Q215 606 190 630.5Q165 655 165 693ZM206 693Q206 672 219 656.5Q232 641 254 641Q276 641 289 656.5Q302 672 302 693Q302 714 289 729Q276 744 254 744Q232 744 219 729Q206 714 206 693ZM484 0H423L365 160H136L78 0H21L227 564H278ZM249 485Q246 476 240.5 459Q235 442 227.5 421Q220 400 211.5 376Q203 352 195 328Q176 273 153 207H348Q325 273 306 328Q298 352 289.5 376Q281 400 273.5 421Q266 442 260 459Q254 476 251 485Z" glyph-name="aring.smcp" horiz-adv-x="505" unicode="&#57894;" /><glyph d="M350 700H401V91L609 297L646 259L375 -13L105 259L142 297L350 91Z" glyph-name="arrowdown" horiz-adv-x="750" unicode="&#8595;" /><glyph d="M776 375V323H165L372 116L335 78L63 349L335 620L372 582L165 375Z" glyph-name="arrowleft" horiz-adv-x="850" unicode="&#8592;" /><glyph d="M685 375 478 582 515 620 787 349 515 78 478 116 685 323H74V375Z" glyph-name="arrowright" horiz-adv-x="850" unicode="&#8594;" /><glyph d="M400 0H349V609L141 403L104 441L375 713L645 441L608 403L400 609Z" glyph-name="arrowup" horiz-adv-x="750" unicode="&#8593;" /><glyph d="M469 349H406L260 638L111 349H54L238 700H285Z" glyph-name="asciicircum" horiz-adv-x="523" unicode="^" /><glyph d="M395 240Q359 240 332.5 251Q306 262 283 275.5Q260 289 238.5 300.5Q217 312 192 312Q168 312 151.5 302Q135 292 124 281Q112 267 104 250L54 277Q66 302 86 321Q103 338 130 352Q157 366 196 366Q232 366 258.5 354.5Q285 343 307.5 329.5Q330 316 351 305Q372 294 398 294Q421 294 438 303.5Q455 313 466 324Q478 337 487 355L536 327Q523 302 504 283Q487 266 460 253Q433 240 395 240Z" glyph-name="asciitilde" horiz-adv-x="591" unicode="~" /><glyph d="M32 572 45 615 163 576 161 700H208L206 576L324 615L337 572L218 536L292 435L257 409L184 511L112 409L77 435L151 536Z" glyph-name="asterisk" horiz-adv-x="369" unicode="*" /><glyph d="M610 465H672L620 189Q617 174 617 161Q617 129 632 113.5Q647 98 670 98Q700 98 728.5 114.5Q757 131 779.5 162.5Q802 194 816 239Q830 284 830 341Q830 410 807 469Q784 528 741.5 571.5Q699 615 638.5 640Q578 665 504 665Q423 665 351 634.5Q279 604 225 548.5Q171 493 140 416.5Q109 340 109 247Q109 155 138.5 84.5Q168 14 218.5 -33.5Q269 -81 337 -105.5Q405 -130 482 -130Q529 -130 568 -122.5Q607 -115 641.5 -101Q676 -87 707 -67.5Q738 -48 770 -24L800 -66Q733 -120 656 -149Q579 -178 480 -178Q366 -178 285 -142Q204 -106 151.5 -46.5Q99 13 74.5 89.5Q50 166 50 246Q50 354 87 440Q124 526 186.5 586.5Q249 647 331 679.5Q413 712 503 712Q585 712 655 686Q725 660 776.5 612Q828 564 857 496.5Q886 429 886 347Q886 284 870 230.5Q854 177 825 137Q796 97 756 74.5Q716 52 667 52Q639 52 621 60Q603 68 591.5 80Q580 92 574.5 105.5Q569 119 567 130Q548 99 512 75.5Q476 52 425 52Q392 52 363.5 64.5Q335 77 314 101Q293 125 281 159Q269 193 269 236Q269 286 285 329.5Q301 373 328.5 405Q356 437 393 455.5Q430 474 472 474Q500 474 521.5 467.5Q543 461 558.5 451.5Q574 442 584 430Q594 418 600 407ZM579 267Q587 304 582 334Q577 364 563 385Q549 406 527 417.5Q505 429 479 429Q448 429 421 414Q394 399 373.5 373.5Q353 348 341 314Q329 280 329 243Q329 177 357 137Q385 97 434 97Q460 97 482.5 107.5Q505 118 523 135.5Q541 153 553 176Q565 199 570 224Z" glyph-name="at" horiz-adv-x="935" unicode="@" /><glyph d="M610 547H672L620 271Q617 256 617 243Q617 211 632 195.5Q647 180 670 180Q700 180 728.5 196.5Q757 213 779.5 244.5Q802 276 816 321Q830 366 830 423Q830 492 807 551Q784 610 741.5 653.5Q699 697 638.5 722Q578 747 504 747Q423 747 351 716.5Q279 686 225 630.5Q171 575 140 498.5Q109 422 109 329Q109 237 138.5 166.5Q168 96 218.5 48.5Q269 1 337 -23.5Q405 -48 482 -48Q529 -48 568 -40.5Q607 -33 641.5 -19Q676 -5 707 14.5Q738 34 770 58L800 16Q733 -38 656 -67Q579 -96 480 -96Q366 -96 285 -60Q204 -24 151.5 35.5Q99 95 74.5 171.5Q50 248 50 328Q50 436 87 522Q124 608 186.5 668.5Q249 729 331 761.5Q413 794 503 794Q585 794 655 768Q725 742 776.5 694Q828 646 857 578.5Q886 511 886 429Q886 366 870 312.5Q854 259 825 219Q796 179 756 156.5Q716 134 667 134Q639 134 621 142Q603 150 591.5 162Q580 174 574.5 187.5Q569 201 567 212Q548 181 512 157.5Q476 134 425 134Q392 134 363.5 146.5Q335 159 314 183Q293 207 281 241Q269 275 269 318Q269 368 285 411.5Q301 455 328.5 487Q356 519 393 537.5Q430 556 472 556Q500 556 521.5 549.5Q543 543 558.5 533.5Q574 524 584 512Q594 500 600 489ZM579 349Q587 386 582 416Q577 446 563 467Q549 488 527 499.5Q505 511 479 511Q448 511 421 496Q394 481 373.5 455.5Q353 430 341 396Q329 362 329 325Q329 259 357 219Q385 179 434 179Q460 179 482.5 189.5Q505 200 523 217.5Q541 235 553 258Q565 281 570 306Z" glyph-name="at.cap" horiz-adv-x="935" unicode="&#58643;" /><glyph d="M182 649Q206 649 224 641.5Q242 634 257 624.5Q272 615 286.5 607.5Q301 600 318 600Q334 600 345 607Q356 614 364 622Q373 632 379 644L412 614Q403 598 389 586Q377 575 358.5 566.5Q340 558 314 558Q289 558 271 565.5Q253 573 238 582Q223 591 209 598.5Q195 606 179 606Q162 606 151 599Q140 592 132 584Q123 574 118 563L86 592Q95 608 108 620Q119 631 137.5 640Q156 649 182 649ZM371 0Q366 9 362.5 27.5Q359 46 360 69Q341 39 297.5 13.5Q254 -12 192 -12Q123 -12 83.5 22.5Q44 57 44 118Q44 163 69.5 193.5Q95 224 138 242.5Q181 261 238.5 269Q296 277 360 277V313Q360 364 332 398Q304 432 242 432Q184 432 155.5 403.5Q127 375 123 330L62 339Q66 374 82.5 400.5Q99 427 123.5 445Q148 463 179 472Q210 481 244 481Q328 481 373.5 436Q419 391 419 319V71Q419 48 422 30.5Q425 13 430 0ZM203 36Q234 36 262.5 46Q291 56 313 75.5Q335 95 347.5 122.5Q360 150 360 186V230Q304 230 257 224Q210 218 176 204.5Q142 191 123.5 170.5Q105 150 105 121Q105 82 131.5 59Q158 36 203 36Z" glyph-name="atilde" horiz-adv-x="496" unicode="&#227;" /><glyph d="M195 649Q219 649 237 641.5Q255 634 270 624.5Q285 615 299.5 607.5Q314 600 331 600Q347 600 358 607Q369 614 377 622Q386 632 392 644L425 614Q416 598 402 586Q390 575 371.5 566.5Q353 558 327 558Q302 558 284 565.5Q266 573 251 582Q236 591 222 598.5Q208 606 192 606Q175 606 164 599Q153 592 145 584Q136 574 131 563L99 592Q108 608 121 620Q132 631 150.5 640Q169 649 195 649ZM410 0V75Q389 40 352 14Q315 -12 252 -12Q208 -12 171 5.5Q134 23 106.5 55.5Q79 88 63.5 133.5Q48 179 48 235Q48 290 63.5 335.5Q79 381 106.5 413.5Q134 446 171 463.5Q208 481 252 481Q315 481 352 455Q389 429 410 394V469H465V0ZM259 38Q281 38 306.5 47Q332 56 354 75.5Q376 95 390.5 125.5Q405 156 405 199V270Q405 313 390.5 343.5Q376 374 354 393.5Q332 413 306.5 422Q281 431 259 431Q224 431 196.5 416Q169 401 150 374.5Q131 348 120.5 312.5Q110 277 110 235Q110 193 120.5 157Q131 121 150 94.5Q169 68 196.5 53Q224 38 259 38Z" glyph-name="atilde.school" horiz-adv-x="551" unicode="&#57686;" /><glyph d="M184 716Q208 716 226 708.5Q244 701 259 691.5Q274 682 288.5 674.5Q303 667 320 667Q336 667 347 674Q358 681 366 689Q375 699 381 711L414 681Q405 665 391 653Q379 642 360.5 633.5Q342 625 316 625Q291 625 273 632.5Q255 640 240 649Q225 658 211 665.5Q197 673 181 673Q164 673 153 666Q142 659 134 651Q125 641 120 630L88 659Q97 675 110 687Q121 698 139.5 707Q158 716 184 716ZM484 0H423L365 160H136L78 0H21L227 564H278ZM249 485Q246 476 240.5 459Q235 442 227.5 421Q220 400 211.5 376Q203 352 195 328Q176 273 153 207H348Q325 273 306 328Q298 352 289.5 376Q281 400 273.5 421Q266 442 260 459Q254 476 251 485Z" glyph-name="atilde.smcp" horiz-adv-x="505" unicode="&#57893;" /><glyph d="M513 235Q513 179 497 133.5Q481 88 453 55.5Q425 23 386 5.5Q347 -12 302 -12Q272 -12 246.5 -4.5Q221 3 200.5 16Q180 29 165 45Q150 61 141 78V0H86V700H146V398Q166 430 205 455.5Q244 481 304 481Q349 481 387 463.5Q425 446 453 413.5Q481 381 497 335.5Q513 290 513 235ZM451 235Q451 277 440.5 312.5Q430 348 410 374.5Q390 401 362 416Q334 431 298 431Q271 431 243.5 420Q216 409 194.5 388Q173 367 159.5 337Q146 307 146 268V201Q146 162 159.5 132Q173 102 194.5 81Q216 60 243 49Q270 38 298 38Q334 38 362 53Q390 68 410 94.5Q430 121 440.5 157Q451 193 451 235Z" glyph-name="b" horiz-adv-x="561" unicode="b" /><glyph d="M97 564H283Q371 564 413.5 527.5Q456 491 456 425Q456 395 447.5 372.5Q439 350 425.5 334.5Q412 319 395 309Q378 299 361 293Q385 290 406 280Q427 270 443.5 253.5Q460 237 469.5 213.5Q479 190 479 160Q479 88 429.5 44Q380 0 292 0H97ZM156 517V314H267Q330 314 363.5 342Q397 370 397 421Q397 469 367.5 493Q338 517 275 517ZM156 47H274Q316 47 344 56.5Q372 66 389 81.5Q406 97 413 117Q420 137 420 158Q420 188 409 208.5Q398 229 378 242.5Q358 256 331 262Q304 268 271 268H156Z" glyph-name="b.smcp" horiz-adv-x="534" unicode="&#57858;" /><glyph d="M201 595Q231 595 256 584Q281 573 299 552.5Q317 532 327.5 503Q338 474 338 438Q338 402 327.5 372.5Q317 343 299 322.5Q281 302 256 291Q231 280 201 280Q161 280 137.5 296.5Q114 313 101 334V288H55V733H104V547Q118 567 141.5 581Q165 595 201 595ZM104 417Q104 390 113 371.5Q122 353 135.5 342Q149 331 165.5 326Q182 321 196 321Q238 321 262.5 354Q287 387 287 438Q287 488 262.5 521Q238 554 196 554Q182 554 165.5 549Q149 544 135.5 533Q122 522 113 503.5Q104 485 104 458Z" glyph-name="b.superior" horiz-adv-x="371" unicode="&#58210;" /><glyph d="M319 -115 11 754H65L373 -115Z" glyph-name="backslash" horiz-adv-x="384" unicode="\" /><glyph d="M286 -21 23 721H77L339 -21Z" glyph-name="backslash.cap" horiz-adv-x="384" unicode="&#58466;" /><glyph d="M66 469H535V0H66ZM107 39H494V430H107ZM205 108 173 140 268 234 173 328 205 360 300 266 395 360 427 328 332 234 427 140 395 108 300 202Z" glyph-name="ballotboxwithx" horiz-adv-x="600" unicode="&#9746;" /><glyph d="M102 797H156V-169H102Z" glyph-name="bar" horiz-adv-x="258" unicode="|" /><glyph d="M102 721H156V-21H102Z" glyph-name="bar.cap" horiz-adv-x="257" unicode="&#58467;" /><glyph d="M787 350Q787 276 758 210Q729 144 679.5 94.5Q630 45 564.5 16.5Q499 -12 425 -12Q351 -12 285.5 16.5Q220 45 170.5 94.5Q121 144 92 210Q63 276 63 350Q63 424 92 490Q121 556 170.5 605.5Q220 655 285.5 683.5Q351 712 425 712Q499 712 564.5 683.5Q630 655 679.5 605.5Q729 556 758 490Q787 424 787 350Z" glyph-name="blackcircle" horiz-adv-x="850" unicode="&#9679;" /><glyph d="M66 469H535V0H66Z" glyph-name="blacksmallsquare" horiz-adv-x="600" unicode="&#9642;" /><glyph d="M75 700H775V0H75Z" glyph-name="blacksquare" horiz-adv-x="850" unicode="&#9632;" /><glyph d="M185 483Q185 439 178.5 408.5Q172 378 160 358Q148 338 130 326.5Q112 315 88 310Q112 305 130 293.5Q148 282 160 262Q172 242 178.5 211.5Q185 181 185 138V81Q185 43 187.5 9.5Q190 -24 201.5 -50Q213 -76 236 -93.5Q259 -111 300 -116V-158Q239 -156 204.5 -133.5Q170 -111 153.5 -74Q137 -37 133.5 13Q130 63 130 120V137Q130 167 127.5 192Q125 217 116 236Q107 255 89.5 267.5Q72 280 42 285V336Q72 341 89.5 353.5Q107 366 116 385Q125 404 127.5 429Q130 454 130 484V501Q130 558 133.5 608Q137 658 153.5 695Q170 732 204.5 754.5Q239 777 300 779V737Q259 732 236 714.5Q213 697 201.5 671Q190 645 187.5 611Q185 577 185 540Z" glyph-name="braceleft" horiz-adv-x="320" unicode="{" /><glyph d="M185 529Q185 485 178.5 454.5Q172 424 160 404Q148 384 130 372.5Q112 361 88 356Q112 351 130 339.5Q148 328 160 308Q172 288 178.5 257.5Q185 227 185 184V127Q185 89 187.5 55.5Q190 22 201.5 -4Q213 -30 236 -47.5Q259 -65 300 -70V-112Q239 -110 204.5 -87.5Q170 -65 153.5 -28Q137 9 133.5 59Q130 109 130 166V183Q130 213 127.5 238Q125 263 116 282Q107 301 89.5 313.5Q72 326 42 331V382Q72 387 89.5 399.5Q107 412 116 431Q125 450 127.5 475Q130 500 130 530V547Q130 604 133.5 654Q137 704 153.5 741Q170 778 204.5 800.5Q239 823 300 825V783Q259 778 236 760.5Q213 743 201.5 717Q190 691 187.5 657Q185 623 185 586Z" glyph-name="braceleft.cap" horiz-adv-x="320" unicode="&#58517;" /><glyph d="M135 540Q135 577 132.5 611Q130 645 118.5 671Q107 697 84 714.5Q61 732 20 737V779Q81 777 115.5 754.5Q150 732 166.5 695Q183 658 186.5 608Q190 558 190 501V484Q190 454 192.5 429Q195 404 204 385Q213 366 230.5 353.5Q248 341 278 336V285Q248 280 230.5 267.5Q213 255 204 236Q195 217 192.5 192Q190 167 190 137V120Q190 63 186.5 13Q183 -37 166.5 -74Q150 -111 115.5 -133.5Q81 -156 20 -158V-116Q61 -111 84 -93.5Q107 -76 118.5 -50Q130 -24 132.5 9.5Q135 43 135 81V138Q135 181 141.5 211.5Q148 242 160 262Q172 282 190 293.5Q208 305 232 310Q208 315 190 326.5Q172 338 160 358Q148 378 141.5 408.5Q135 439 135 483Z" glyph-name="braceright" horiz-adv-x="320" unicode="}" /><glyph d="M135 586Q135 623 132.5 657Q130 691 118.5 717Q107 743 84 760.5Q61 778 20 783V825Q81 823 115.5 800.5Q150 778 166.5 741Q183 704 186.5 654Q190 604 190 547V530Q190 500 192.5 475Q195 450 204 431Q213 412 230.5 399.5Q248 387 278 382V331Q248 326 230.5 313.5Q213 301 204 282Q195 263 192.5 238Q190 213 190 183V166Q190 109 186.5 59Q183 9 166.5 -28Q150 -65 115.5 -87.5Q81 -110 20 -112V-70Q61 -65 84 -47.5Q107 -30 118.5 -4Q130 22 132.5 55.5Q135 89 135 127V184Q135 227 141.5 257.5Q148 288 160 308Q172 328 190 339.5Q208 351 232 356Q208 361 190 372.5Q172 384 160 404Q148 424 141.5 454.5Q135 485 135 529Z" glyph-name="braceright.cap" horiz-adv-x="320" unicode="&#58518;" /><glyph d="M98 762H260V717H154V-102H260V-147H98Z" glyph-name="bracketleft" horiz-adv-x="290" unicode="[" /><glyph d="M98 805H260V760H154V-59H260V-104H98Z" glyph-name="bracketleft.cap" horiz-adv-x="290" unicode="&#58515;" /><glyph d="M30 -147V-102H136V717H30V762H192V-147Z" glyph-name="bracketright" horiz-adv-x="290" unicode="]" /><glyph d="M30 -104V-59H136V760H30V805H192V-104Z" glyph-name="bracketright.cap" horiz-adv-x="290" unicode="&#58516;" /><glyph d="M207 661Q212 628 237.5 604.5Q263 581 300 581Q337 581 362.5 604.5Q388 628 393 661L442 644Q431 596 393 567.5Q355 539 300 539Q245 539 207 567.5Q169 596 158 644Z" glyph-name="breve" horiz-adv-x="600" unicode="&#728;" /><glyph d="M207 883Q212 850 237.5 826.5Q263 803 300 803Q337 803 362.5 826.5Q388 850 393 883L442 866Q431 818 393 789.5Q355 761 300 761Q245 761 207 789.5Q169 818 158 866Z" glyph-name="breve.cap" horiz-adv-x="600" unicode="&#58406;" /><glyph d="M102 797H156V412H102ZM102 216H156V-169H102Z" glyph-name="brokenbar" horiz-adv-x="258" unicode="&#166;" /><glyph d="M102 721H156V453H102ZM102 257H156V-21H102Z" glyph-name="brokenbar.cap" horiz-adv-x="258" unicode="&#58469;" /><glyph d="M71 326Q71 375 102.5 406Q134 437 185 437Q236 437 267.5 406Q299 375 299 326Q299 278 267.5 247.5Q236 217 185 217Q134 217 102.5 247.5Q71 278 71 326Z" glyph-name="bullet" horiz-adv-x="370" unicode="&#8226;" /><glyph d="M71 357Q71 406 102.5 437Q134 468 185 468Q236 468 267.5 437Q299 406 299 357Q299 309 267.5 278.5Q236 248 185 248Q134 248 102.5 278.5Q71 309 71 357Z" glyph-name="bullet.cap" horiz-adv-x="370" unicode="&#58470;" /><glyph d="M48 235Q48 286 61.5 331Q75 376 102 409.5Q129 443 169.5 462Q210 481 263 481Q336 481 378.5 447Q421 413 441 360L386 337Q373 379 344 405Q315 431 261 431Q224 431 196 416Q168 401 149 374.5Q130 348 120 312Q110 276 110 235Q110 193 120 156.5Q130 120 149 94Q168 68 196.5 53Q225 38 261 38Q289 38 309.5 45.5Q330 53 344.5 65.5Q359 78 369 95Q379 112 387 131L442 109Q416 54 373.5 21Q331 -12 261 -12Q209 -12 169.5 7Q130 26 103 59.5Q76 93 62 138Q48 183 48 235Z" glyph-name="c" horiz-adv-x="480" unicode="c" /><glyph d="M62 282Q62 347 79 401Q96 455 128 493.5Q160 532 206 553.5Q252 575 311 575Q392 575 442.5 534.5Q493 494 519 431L465 410Q445 461 407 493.5Q369 526 307 526Q263 526 229 508.5Q195 491 171.5 459Q148 427 135.5 382Q123 337 123 282Q123 227 135.5 182Q148 137 171.5 104.5Q195 72 229 54.5Q263 37 307 37Q368 37 406.5 69Q445 101 465 153L519 132Q491 66 440.5 27Q390 -12 310 -12Q251 -12 205 9.5Q159 31 127.5 70Q96 109 79 163Q62 217 62 282Z" glyph-name="c.smcp" horiz-adv-x="555" unicode="&#57859;" /><glyph d="M33 438Q33 471 42 500Q51 529 69 550Q87 571 113.5 583Q140 595 174 595Q222 595 250 572.5Q278 550 292 516Q290 516 283.5 513Q277 510 269 507Q261 504 254.5 501.5Q248 499 247 498Q239 524 221 539.5Q203 555 172 555Q128 555 106 521Q84 487 84 438Q84 389 106 355Q128 321 173 321Q206 321 222 337Q238 353 247 376Q248 375 255 372.5Q262 370 270 367Q278 364 284.5 361Q291 358 293 358Q276 324 248 302Q220 280 173 280Q140 280 114 292Q88 304 70 325Q52 346 42.5 375Q33 404 33 438Z" glyph-name="c.superior" horiz-adv-x="320" unicode="&#58211;" /><glyph d="M353 637 195 532 172 564 319 684ZM48 235Q48 286 61.5 331Q75 376 102 409.5Q129 443 169.5 462Q210 481 263 481Q336 481 378.5 447Q421 413 441 360L386 337Q373 379 344 405Q315 431 261 431Q224 431 196 416Q168 401 149 374.5Q130 348 120 312Q110 276 110 235Q110 193 120 156.5Q130 120 149 94Q168 68 196.5 53Q225 38 261 38Q289 38 309.5 45.5Q330 53 344.5 65.5Q359 78 369 95Q379 112 387 131L442 109Q416 54 373.5 21Q331 -12 261 -12Q209 -12 169.5 7Q130 26 103 59.5Q76 93 62 138Q48 183 48 235Z" glyph-name="cacute" horiz-adv-x="480" unicode="&#263;" /><glyph d="M399 715 241 610 218 642 365 762ZM62 282Q62 347 79 401Q96 455 128 493.5Q160 532 206 553.5Q252 575 311 575Q392 575 442.5 534.5Q493 494 519 431L465 410Q445 461 407 493.5Q369 526 307 526Q263 526 229 508.5Q195 491 171.5 459Q148 427 135.5 382Q123 337 123 282Q123 227 135.5 182Q148 137 171.5 104.5Q195 72 229 54.5Q263 37 307 37Q368 37 406.5 69Q445 101 465 153L519 132Q491 66 440.5 27Q390 -12 310 -12Q251 -12 205 9.5Q159 31 127.5 70Q96 109 79 163Q62 217 62 282Z" glyph-name="cacute.smcp" horiz-adv-x="555" unicode="&#57908;" /><glyph d="M321 534H279L170 664L202 691L301 583L399 691L430 664Z" glyph-name="caron" horiz-adv-x="600" unicode="&#711;" /><glyph d="M319 753H281L170 869L202 898L301 802L399 898L431 869Z" glyph-name="caron.cap" horiz-adv-x="600" unicode="&#58413;" /><glyph d="M349 691 289 533 251 543 292 706Z" glyph-name="caronSlovak" horiz-adv-x="600" unicode="&#58387;" /><glyph d="M285 534H243L134 664L166 691L265 583L363 691L394 664ZM48 235Q48 286 61.5 331Q75 376 102 409.5Q129 443 169.5 462Q210 481 263 481Q336 481 378.5 447Q421 413 441 360L386 337Q373 379 344 405Q315 431 261 431Q224 431 196 416Q168 401 149 374.5Q130 348 120 312Q110 276 110 235Q110 193 120 156.5Q130 120 149 94Q168 68 196.5 53Q225 38 261 38Q289 38 309.5 45.5Q330 53 344.5 65.5Q359 78 369 95Q379 112 387 131L442 109Q416 54 373.5 21Q331 -12 261 -12Q209 -12 169.5 7Q130 26 103 59.5Q76 93 62 138Q48 183 48 235Z" glyph-name="ccaron" horiz-adv-x="480" unicode="&#269;" /><glyph d="M330 612H288L179 742L211 769L310 661L408 769L439 742ZM62 282Q62 347 79 401Q96 455 128 493.5Q160 532 206 553.5Q252 575 311 575Q392 575 442.5 534.5Q493 494 519 431L465 410Q445 461 407 493.5Q369 526 307 526Q263 526 229 508.5Q195 491 171.5 459Q148 427 135.5 382Q123 337 123 282Q123 227 135.5 182Q148 137 171.5 104.5Q195 72 229 54.5Q263 37 307 37Q368 37 406.5 69Q445 101 465 153L519 132Q491 66 440.5 27Q390 -12 310 -12Q251 -12 205 9.5Q159 31 127.5 70Q96 109 79 163Q62 217 62 282Z" glyph-name="ccaron.smcp" horiz-adv-x="555" unicode="&#57910;" /><glyph d="M194 -158Q202 -164 213 -170.5Q224 -177 244 -177Q261 -177 274 -164.5Q287 -152 287 -132Q287 -112 275.5 -100.5Q264 -89 245 -89Q233 -89 224 -93Q215 -97 208 -102L183 -78L211 -7Q171 2 140.5 23.5Q110 45 89.5 77Q69 109 58.5 149.5Q48 190 48 235Q48 286 61.5 331Q75 376 102 409.5Q129 443 169.5 462Q210 481 263 481Q336 481 378.5 447Q421 413 441 360L386 337Q373 379 344 405Q315 431 261 431Q224 431 196 416Q168 401 149 374.5Q130 348 120 312Q110 276 110 235Q110 193 120 156.5Q130 120 149 94Q168 68 196.5 53Q225 38 261 38Q289 38 309.5 45.5Q330 53 344.5 65.5Q359 78 369 95Q379 112 387 131L442 109Q416 54 373.5 21Q331 -12 261 -12Q251 -12 246 -11L228 -60Q233 -57 241 -54Q249 -51 259 -51Q272 -51 285.5 -55Q299 -59 310 -68.5Q321 -78 328 -93Q335 -108 335 -130Q335 -170 310.5 -193.5Q286 -217 244 -217Q217 -217 198 -208.5Q179 -200 170 -192Z" glyph-name="ccedilla" horiz-adv-x="480" unicode="&#231;" /><glyph d="M259 -158Q267 -164 278 -170.5Q289 -177 309 -177Q326 -177 339 -164.5Q352 -152 352 -132Q352 -112 340.5 -100.5Q329 -89 310 -89Q298 -89 289 -93Q280 -97 273 -102L248 -78L275 -10Q224 -4 184.5 19.5Q145 43 118 81.5Q91 120 76.5 171Q62 222 62 282Q62 347 79 401Q96 455 128 493.5Q160 532 206 553.5Q252 575 311 575Q392 575 442.5 534.5Q493 494 519 431L465 410Q445 461 407 493.5Q369 526 307 526Q263 526 229 508.5Q195 491 171.5 459Q148 427 135.5 382Q123 337 123 282Q123 227 135.5 182Q148 137 171.5 104.5Q195 72 229 54.5Q263 37 307 37Q368 37 406.5 69Q445 101 465 153L519 132Q491 66 440.5 27.5Q390 -11 311 -12L293 -60Q298 -57 306 -54Q314 -51 324 -51Q337 -51 350.5 -55Q364 -59 375 -68.5Q386 -78 393 -93Q400 -108 400 -130Q400 -170 375.5 -193.5Q351 -217 309 -217Q282 -217 263 -208.5Q244 -200 235 -192Z" glyph-name="ccedilla.smcp" horiz-adv-x="555" unicode="&#57912;" /><glyph d="M240 685H282L391 555L359 528L260 636L162 528L131 555ZM48 235Q48 286 61.5 331Q75 376 102 409.5Q129 443 169.5 462Q210 481 263 481Q336 481 378.5 447Q421 413 441 360L386 337Q373 379 344 405Q315 431 261 431Q224 431 196 416Q168 401 149 374.5Q130 348 120 312Q110 276 110 235Q110 193 120 156.5Q130 120 149 94Q168 68 196.5 53Q225 38 261 38Q289 38 309.5 45.5Q330 53 344.5 65.5Q359 78 369 95Q379 112 387 131L442 109Q416 54 373.5 21Q331 -12 261 -12Q209 -12 169.5 7Q130 26 103 59.5Q76 93 62 138Q48 183 48 235Z" glyph-name="ccircumflex" horiz-adv-x="480" unicode="&#265;" /><glyph d="M288 765H330L439 635L407 608L308 716L210 608L179 635ZM62 282Q62 347 79 401Q96 455 128 493.5Q160 532 206 553.5Q252 575 311 575Q392 575 442.5 534.5Q493 494 519 431L465 410Q445 461 407 493.5Q369 526 307 526Q263 526 229 508.5Q195 491 171.5 459Q148 427 135.5 382Q123 337 123 282Q123 227 135.5 182Q148 137 171.5 104.5Q195 72 229 54.5Q263 37 307 37Q368 37 406.5 69Q445 101 465 153L519 132Q491 66 440.5 27Q390 -12 310 -12Q251 -12 205 9.5Q159 31 127.5 70Q96 109 79 163Q62 217 62 282Z" glyph-name="ccircumflex.smcp" horiz-adv-x="555" unicode="&#57909;" /><glyph d="M226 596Q226 614 237.5 625.5Q249 637 267 637Q285 637 296.5 625.5Q308 614 308 596Q308 579 296.5 567.5Q285 556 267 556Q249 556 237.5 567.5Q226 579 226 596ZM48 235Q48 286 61.5 331Q75 376 102 409.5Q129 443 169.5 462Q210 481 263 481Q336 481 378.5 447Q421 413 441 360L386 337Q373 379 344 405Q315 431 261 431Q224 431 196 416Q168 401 149 374.5Q130 348 120 312Q110 276 110 235Q110 193 120 156.5Q130 120 149 94Q168 68 196.5 53Q225 38 261 38Q289 38 309.5 45.5Q330 53 344.5 65.5Q359 78 369 95Q379 112 387 131L442 109Q416 54 373.5 21Q331 -12 261 -12Q209 -12 169.5 7Q130 26 103 59.5Q76 93 62 138Q48 183 48 235Z" glyph-name="cdotaccent" horiz-adv-x="480" unicode="&#267;" /><glyph d="M272 666Q272 684 283.5 695.5Q295 707 313 707Q331 707 342.5 695.5Q354 684 354 666Q354 649 342.5 637.5Q331 626 313 626Q295 626 283.5 637.5Q272 649 272 666ZM62 282Q62 347 79 401Q96 455 128 493.5Q160 532 206 553.5Q252 575 311 575Q392 575 442.5 534.5Q493 494 519 431L465 410Q445 461 407 493.5Q369 526 307 526Q263 526 229 508.5Q195 491 171.5 459Q148 427 135.5 382Q123 337 123 282Q123 227 135.5 182Q148 137 171.5 104.5Q195 72 229 54.5Q263 37 307 37Q368 37 406.5 69Q445 101 465 153L519 132Q491 66 440.5 27Q390 -12 310 -12Q251 -12 205 9.5Q159 31 127.5 70Q96 109 79 163Q62 217 62 282Z" glyph-name="cdotaccent.smcp" horiz-adv-x="555" unicode="&#57911;" /><glyph d="M239 -158Q247 -164 258 -170.5Q269 -177 289 -177Q306 -177 319 -164.5Q332 -152 332 -132Q332 -112 320.5 -100.5Q309 -89 290 -89Q278 -89 269 -93Q260 -97 253 -102L228 -78L259 0H296L273 -60Q278 -57 286 -54Q294 -51 304 -51Q317 -51 330.5 -55Q344 -59 355 -68.5Q366 -78 373 -93Q380 -108 380 -130Q380 -170 355.5 -193.5Q331 -217 289 -217Q262 -217 243 -208.5Q224 -200 215 -192Z" glyph-name="cedilla" horiz-adv-x="600" unicode="&#184;" /><glyph d="M233 104Q188 109 154 129.5Q120 150 96.5 182.5Q73 215 61.5 256.5Q50 298 50 346Q50 393 61.5 435Q73 477 96 509Q119 541 153 561Q187 581 233 586V692H281V587Q345 582 384 549Q423 516 440 471L388 449Q376 484 351 509.5Q326 535 281 540V150Q327 155 351 181.5Q375 208 389 242L441 220Q418 170 379.5 139.5Q341 109 281 104V0H233ZM111 346Q111 308 119 274.5Q127 241 142 215.5Q157 190 180 173.5Q203 157 233 151V540Q203 535 180 518Q157 501 141.5 475.5Q126 450 118.5 416.5Q111 383 111 346Z" glyph-name="cent" horiz-adv-x="475" unicode="&#162;" /><glyph d="M279 685H321L430 555L398 528L299 636L201 528L170 555Z" glyph-name="circumflex" horiz-adv-x="600" unicode="&#710;" /><glyph d="M430 775 399 746 301 842 202 746 170 775 281 891H319Z" glyph-name="circumflex.cap" horiz-adv-x="600" unicode="&#58403;" /><glyph d="M122 476Q142 476 155 463Q168 450 168 431Q168 412 155 399Q142 386 122 386Q102 386 89 399Q76 412 76 431Q76 450 89 463Q102 476 122 476ZM122 84Q142 84 155 71Q168 58 168 39Q168 20 155 7Q142 -6 122 -6Q102 -6 89 7Q76 20 76 39Q76 58 89 71Q102 84 122 84Z" glyph-name="colon" horiz-adv-x="244" unicode=":" /><glyph d="M172 18Q172 3 168.5 -14.5Q165 -32 156 -48Q147 -64 132 -77.5Q117 -91 95 -97L83 -65Q103 -61 114.5 -45Q126 -29 126 -9V-3Q125 -4 124 -4H117Q101 -4 88.5 7.5Q76 19 76 40Q76 55 87 69.5Q98 84 121 84Q147 84 159.5 64.5Q172 45 172 18Z" glyph-name="comma" horiz-adv-x="249" unicode="," /><glyph d="M346 -109Q346 -121 343 -134.5Q340 -148 332.5 -160.5Q325 -173 313 -183Q301 -193 282 -197L271 -170Q287 -168 297 -156.5Q307 -145 307 -131V-127Q306 -128 305 -128H299Q286 -128 275.5 -118Q265 -108 265 -90Q265 -78 274.5 -65.5Q284 -53 303 -53Q325 -53 335.5 -69.5Q346 -86 346 -109Z" glyph-name="commaaccent" horiz-adv-x="600" unicode="&#58388;" /><glyph d="M411 -12Q336 -12 269.5 15Q203 42 154 90Q105 138 76.5 204.5Q48 271 48 351Q48 430 76.5 496Q105 562 154 610Q203 658 269.5 685Q336 712 411 712Q486 712 552.5 685Q619 658 668 610Q717 562 745.5 496Q774 430 774 351Q774 271 745.5 204.5Q717 138 668 90Q619 42 552.5 15Q486 -12 411 -12ZM411 32Q476 32 533 55.5Q590 79 632.5 121.5Q675 164 699.5 222.5Q724 281 724 351Q724 420 699.5 478.5Q675 537 632.5 579Q590 621 533 644.5Q476 668 411 668Q346 668 289 644.5Q232 621 189.5 579Q147 537 122.5 478.5Q98 420 98 351Q98 281 122.5 222.5Q147 164 189.5 121.5Q232 79 289 55.5Q346 32 411 32ZM223 351Q223 398 237.5 436.5Q252 475 278 503Q304 531 340 546Q376 561 419 561Q482 561 520.5 533.5Q559 506 582 462L533 442Q521 472 492.5 494Q464 516 419 516Q356 516 316.5 471.5Q277 427 277 351Q277 275 316 230.5Q355 186 418 186Q463 186 492 208Q521 230 533 263L582 242Q559 196 520 169Q481 142 419 142Q375 142 339 157.5Q303 173 277 200.5Q251 228 237 266.5Q223 305 223 351Z" glyph-name="copyright" horiz-adv-x="822" unicode="&#169;" /><glyph d="M298 581Q379 581 441 533L510 604L551 562L481 494Q504 464 517.5 427.5Q531 391 531 351Q531 311 517.5 274.5Q504 238 481 208L551 140L510 98L441 169Q379 121 298 121Q218 121 155 169L86 98L45 140L115 208Q92 238 78.5 274.5Q65 311 65 351Q65 391 78.5 428Q92 465 115 494L45 562L86 604L155 533Q218 581 298 581ZM298 175Q334 175 366.5 188.5Q399 202 423 226Q447 250 461 282Q475 314 475 351Q475 388 461 420Q447 452 423 476Q399 500 366.5 513.5Q334 527 298 527Q262 527 229.5 513.5Q197 500 173 476Q149 452 135 420Q121 388 121 351Q121 314 135 282Q149 250 173 226Q197 202 229.5 188.5Q262 175 298 175Z" glyph-name="currency" horiz-adv-x="596" unicode="&#164;" /><glyph d="M48 235Q48 290 64 335.5Q80 381 108 413.5Q136 446 174 463.5Q212 481 257 481Q317 481 356 455.5Q395 430 415 398V700H475V0H420V78Q411 61 396 45Q381 29 360.5 16Q340 3 314.5 -4.5Q289 -12 259 -12Q214 -12 175 5.5Q136 23 108 55.5Q80 88 64 133.5Q48 179 48 235ZM110 235Q110 193 120.5 157Q131 121 151 94.5Q171 68 199 53Q227 38 263 38Q291 38 318 49Q345 60 366.5 81Q388 102 401.5 132Q415 162 415 201V268Q415 307 401.5 337Q388 367 366.5 388Q345 409 317.5 420Q290 431 263 431Q227 431 199 416Q171 401 151 374.5Q131 348 120.5 312.5Q110 277 110 235Z" glyph-name="d" horiz-adv-x="561" unicode="d" /><glyph d="M97 564H278Q338 564 385.5 545Q433 526 466 489.5Q499 453 517 400.5Q535 348 535 282Q535 216 517 163.5Q499 111 466 74.5Q433 38 385.5 19Q338 0 278 0H97ZM474 282Q474 334 462 377Q450 420 425.5 451Q401 482 362.5 499Q324 516 271 516H156V48H271Q324 48 362.5 65Q401 82 425.5 112.5Q450 143 462 186Q474 229 474 282Z" glyph-name="d.smcp" horiz-adv-x="597" unicode="&#57860;" /><glyph d="M170 595Q206 595 229.5 581Q253 567 267 547V733H316V288H270V334Q257 313 233.5 296.5Q210 280 170 280Q140 280 115 291Q90 302 72 322.5Q54 343 43.5 372.5Q33 402 33 438Q33 474 43.5 503Q54 532 72 552.5Q90 573 115 584Q140 595 170 595ZM267 458Q267 485 258 503.5Q249 522 235.5 533Q222 544 205.5 549Q189 554 175 554Q133 554 108.5 521Q84 488 84 438Q84 387 108.5 354Q133 321 175 321Q189 321 205.5 326Q222 331 235.5 342Q249 353 258 371.5Q267 390 267 417Z" glyph-name="d.superior" horiz-adv-x="371" unicode="&#58212;" /><glyph d="M32 481H202V700H261V481H431V428H261V-115H202V428H32Z" glyph-name="dagger" horiz-adv-x="463" unicode="&#8224;" /><glyph d="M32 183H202V434H32V486H202V700H261V486H431V434H261V183H431V130H261V-115H202V130H32Z" glyph-name="daggerdbl" horiz-adv-x="463" unicode="&#8225;" /><glyph d="M613 691 553 533 515 543 556 706ZM48 235Q48 290 64 335.5Q80 381 108 413.5Q136 446 174 463.5Q212 481 257 481Q317 481 356 455.5Q395 430 415 398V700H475V0H420V78Q411 61 396 45Q381 29 360.5 16Q340 3 314.5 -4.5Q289 -12 259 -12Q214 -12 175 5.5Q136 23 108 55.5Q80 88 64 133.5Q48 179 48 235ZM110 235Q110 193 120.5 157Q131 121 151 94.5Q171 68 199 53Q227 38 263 38Q291 38 318 49Q345 60 366.5 81Q388 102 401.5 132Q415 162 415 201V268Q415 307 401.5 337Q388 367 366.5 388Q345 409 317.5 420Q290 431 263 431Q227 431 199 416Q171 401 151 374.5Q131 348 120.5 312.5Q110 277 110 235Z" glyph-name="dcaron" horiz-adv-x="561" unicode="&#271;" /><glyph d="M297 612H255L146 742L178 769L277 661L375 769L406 742ZM97 564H278Q338 564 385.5 545Q433 526 466 489.5Q499 453 517 400.5Q535 348 535 282Q535 216 517 163.5Q499 111 466 74.5Q433 38 385.5 19Q338 0 278 0H97ZM474 282Q474 334 462 377Q450 420 425.5 451Q401 482 362.5 499Q324 516 271 516H156V48H271Q324 48 362.5 65Q401 82 425.5 112.5Q450 143 462 186Q474 229 474 282Z" glyph-name="dcaron.smcp" horiz-adv-x="597" unicode="&#57913;" /><glyph d="M475 558V0H420V78Q411 61 396 45Q381 29 360.5 16Q340 3 314.5 -4.5Q289 -12 259 -12Q214 -12 175 5.5Q136 23 108 55.5Q80 88 64 133.5Q48 179 48 235Q48 290 64 335.5Q80 381 108 413.5Q136 446 174 463.5Q212 481 257 481Q317 481 356 455.5Q395 430 415 398V558H251V607H415V700H475V607H535V558ZM110 235Q110 193 120.5 157Q131 121 151 94.5Q171 68 199 53Q227 38 263 38Q291 38 318 49Q345 60 366.5 81Q388 102 401.5 132Q415 162 415 201V268Q415 307 401.5 337Q388 367 366.5 388Q345 409 317.5 420Q290 431 263 431Q227 431 199 416Q171 401 151 374.5Q131 348 120.5 312.5Q110 277 110 235Z" glyph-name="dcroat" horiz-adv-x="561" unicode="&#273;" /><glyph d="M111 316V564H292Q352 564 399.5 545Q447 526 480 489.5Q513 453 531 400.5Q549 348 549 282Q549 216 531 163.5Q513 111 480 74.5Q447 38 399.5 19Q352 0 292 0H111V273H36V316ZM488 282Q488 334 476 377Q464 420 439.5 451Q415 482 376.5 499Q338 516 285 516H170V316H324V273H170V48H285Q338 48 376.5 65Q415 82 439.5 112.5Q464 143 476 186Q488 229 488 282Z" glyph-name="dcroat.smcp" horiz-adv-x="611" unicode="&#57916;" /><glyph d="M325 568Q325 537 314 511Q303 485 284 465.5Q265 446 238.5 435Q212 424 181 424Q150 424 123.5 435Q97 446 78 465.5Q59 485 48 511Q37 537 37 568Q37 599 48 625.5Q59 652 78 671Q97 690 123.5 701Q150 712 181 712Q212 712 238.5 701Q265 690 284 671Q303 652 314 625.5Q325 599 325 568ZM272 568Q272 610 247.5 639Q223 668 181 668Q139 668 114.5 639Q90 610 90 568Q90 526 114.5 497Q139 468 181 468Q223 468 247.5 497Q272 526 272 568Z" glyph-name="degree" horiz-adv-x="362" unicode="&#176;" /><glyph d="M348 597Q348 616 360.5 628.5Q373 641 392 641Q411 641 423.5 628.5Q436 616 436 597Q436 579 423.5 566.5Q411 554 392 554Q373 554 360.5 566.5Q348 579 348 597ZM164 597Q164 616 176.5 628.5Q189 641 208 641Q227 641 239.5 628.5Q252 616 252 597Q252 579 239.5 566.5Q227 554 208 554Q189 554 176.5 566.5Q164 579 164 597Z" glyph-name="dieresis" horiz-adv-x="600" unicode="&#168;" /><glyph d="M348 811Q348 830 360.5 842.5Q373 855 392 855Q411 855 423.5 842.5Q436 830 436 811Q436 793 423.5 780.5Q411 768 392 768Q373 768 360.5 780.5Q348 793 348 811ZM164 811Q164 830 176.5 842.5Q189 855 208 855Q227 855 239.5 842.5Q252 830 252 811Q252 793 239.5 780.5Q227 768 208 768Q189 768 176.5 780.5Q164 793 164 811Z" glyph-name="dieresis.cap" horiz-adv-x="600" unicode="&#58409;" /><glyph d="M300 539Q319 539 331.5 527Q344 515 344 496Q344 478 331.5 466Q319 454 300 454Q281 454 268.5 466Q256 478 256 496Q256 515 268.5 527Q281 539 300 539ZM56 348H544V297H56ZM300 191Q319 191 331.5 179Q344 167 344 148Q344 130 331.5 118Q319 106 300 106Q281 106 268.5 118Q256 130 256 148Q256 167 268.5 179Q281 191 300 191Z" glyph-name="divide" horiz-adv-x="600" unicode="&#247;" /><glyph d="M325 577Q344 577 356.5 565Q369 553 369 534Q369 516 356.5 504Q344 492 325 492Q306 492 293.5 504Q281 516 281 534Q281 553 293.5 565Q306 577 325 577ZM56 387H594V336H56ZM325 229Q344 229 356.5 217Q369 205 369 186Q369 168 356.5 156Q344 144 325 144Q306 144 293.5 156Q281 168 281 186Q281 205 293.5 217Q306 229 325 229Z" glyph-name="divide.cap" horiz-adv-x="650" unicode="&#58772;" /><glyph d="M303 695Q386 688 435.5 642.5Q485 597 495 527L441 513Q437 536 428.5 558.5Q420 581 404 599Q388 617 363.5 629.5Q339 642 303 646V376Q406 351 454 307.5Q502 264 502 187Q502 147 488.5 113Q475 79 449.5 53Q424 27 387 10.5Q350 -6 303 -9V-105H256V-9Q205 -6 167.5 10Q130 26 105 52Q80 78 66.5 112.5Q53 147 49 187L101 196Q105 170 114 143Q123 116 140.5 93.5Q158 71 186 55.5Q214 40 256 37V331Q156 357 112 400.5Q68 444 68 516Q68 552 79.5 584Q91 616 114.5 640Q138 664 173.5 678.5Q209 693 256 696V798H303ZM124 518Q124 467 155.5 437Q187 407 256 387V648Q214 646 188 631.5Q162 617 148 597.5Q134 578 129 556.5Q124 535 124 518ZM446 185Q446 239 412 270.5Q378 302 303 320V37Q365 44 405.5 82.5Q446 121 446 185Z" glyph-name="dollar" horiz-adv-x="555" unicode="$" /><glyph d="M259 596Q259 614 270.5 625.5Q282 637 300 637Q318 637 329.5 625.5Q341 614 341 596Q341 579 329.5 567.5Q318 556 300 556Q282 556 270.5 567.5Q259 579 259 596Z" glyph-name="dotaccent" horiz-adv-x="600" unicode="&#729;" /><glyph d="M256 809Q256 829 268.5 841Q281 853 300 853Q319 853 331.5 841Q344 829 344 809Q344 792 331.5 779Q319 766 300 766Q281 766 268.5 779Q256 792 256 809Z" glyph-name="dotaccent.cap" horiz-adv-x="600" unicode="&#58408;" /><glyph d="M86 469H146V0H86Z" glyph-name="dotlessi" horiz-adv-x="232" unicode="&#305;" /><glyph d="M86 469H146V-69Q146 -135 113 -173Q80 -211 15 -211Q-12 -211 -38.5 -203.5Q-65 -196 -84 -184L-56 -134Q-46 -142 -29 -150.5Q-12 -159 14 -159Q48 -159 67 -135.5Q86 -112 86 -69Z" glyph-name="dotlessj" horiz-adv-x="232" unicode="&#567;" /><glyph d="M225 797H279V-169H225ZM102 797H156V-169H102Z" glyph-name="doublebar" horiz-adv-x="381" unicode="&#8214;" /><glyph d="M225 721H279V-21H225ZM102 721H156V-21H102Z" glyph-name="doublebar.cap" horiz-adv-x="381" unicode="&#58468;" /><glyph d="M450 110Q424 55 379 21.5Q334 -12 264 -12Q212 -12 171.5 7Q131 26 103.5 59.5Q76 93 62 138Q48 183 48 236Q48 287 62 331.5Q76 376 103 409.5Q130 443 170 462Q210 481 261 481Q313 481 351 461.5Q389 442 414 410.5Q439 379 451 338Q463 297 463 254V229H108Q110 190 120 154.5Q130 119 148.5 93Q167 67 196 51.5Q225 36 264 36Q319 36 348.5 62Q378 88 399 132ZM258 433Q227 433 201.5 421.5Q176 410 157.5 389Q139 368 127 339.5Q115 311 112 277H401Q397 349 358.5 391Q320 433 258 433Z" glyph-name="e" horiz-adv-x="502" unicode="e" /><glyph d="M97 0V564H419V516H156V315H402V267H156V48H425V0Z" glyph-name="e.smcp" horiz-adv-x="478" unicode="&#57861;" /><glyph d="M297 357Q280 322 250.5 301Q221 280 175 280Q141 280 114.5 292Q88 304 70 325Q52 346 42.5 375Q33 404 33 438Q33 471 42.5 500Q52 529 70 550Q88 571 114 583Q140 595 173 595Q207 595 232 582.5Q257 570 273.5 549.5Q290 529 298 502Q306 475 306 447V429H83Q84 407 89.5 387Q95 367 106.5 352Q118 337 134.5 328Q151 319 175 319Q207 319 224.5 333.5Q242 348 254 374ZM171 557Q134 557 111.5 531Q89 505 85 467H256Q254 509 230.5 533Q207 557 171 557Z" glyph-name="e.superior" horiz-adv-x="334" unicode="&#58213;" /><glyph d="M353 637 195 532 172 564 319 684ZM450 110Q424 55 379 21.5Q334 -12 264 -12Q212 -12 171.5 7Q131 26 103.5 59.5Q76 93 62 138Q48 183 48 236Q48 287 62 331.5Q76 376 103 409.5Q130 443 170 462Q210 481 261 481Q313 481 351 461.5Q389 442 414 410.5Q439 379 451 338Q463 297 463 254V229H108Q110 190 120 154.5Q130 119 148.5 93Q167 67 196 51.5Q225 36 264 36Q319 36 348.5 62Q378 88 399 132ZM258 433Q227 433 201.5 421.5Q176 410 157.5 389Q139 368 127 339.5Q115 311 112 277H401Q397 349 358.5 391Q320 433 258 433Z" glyph-name="eacute" horiz-adv-x="502" unicode="&#233;" /><glyph d="M355 715 197 610 174 642 321 762ZM97 0V564H419V516H156V315H402V267H156V48H425V0Z" glyph-name="eacute.smcp" horiz-adv-x="478" unicode="&#57917;" /><glyph d="M168 661Q173 628 198.5 604.5Q224 581 261 581Q298 581 323.5 604.5Q349 628 354 661L403 644Q392 596 354 567.5Q316 539 261 539Q206 539 168 567.5Q130 596 119 644ZM450 110Q424 55 379 21.5Q334 -12 264 -12Q212 -12 171.5 7Q131 26 103.5 59.5Q76 93 62 138Q48 183 48 236Q48 287 62 331.5Q76 376 103 409.5Q130 443 170 462Q210 481 261 481Q313 481 351 461.5Q389 442 414 410.5Q439 379 451 338Q463 297 463 254V229H108Q110 190 120 154.5Q130 119 148.5 93Q167 67 196 51.5Q225 36 264 36Q319 36 348.5 62Q378 88 399 132ZM258 433Q227 433 201.5 421.5Q176 410 157.5 389Q139 368 127 339.5Q115 311 112 277H401Q397 349 358.5 391Q320 433 258 433Z" glyph-name="ebreve" horiz-adv-x="502" unicode="&#277;" /><glyph d="M167 741Q172 708 197.5 684.5Q223 661 260 661Q297 661 322.5 684.5Q348 708 353 741L402 724Q391 676 353 647.5Q315 619 260 619Q205 619 167 647.5Q129 676 118 724ZM97 0V564H419V516H156V315H402V267H156V48H425V0Z" glyph-name="ebreve.smcp" horiz-adv-x="478" unicode="&#57923;" /><glyph d="M282 534H240L131 664L163 691L262 583L360 691L391 664ZM450 110Q424 55 379 21.5Q334 -12 264 -12Q212 -12 171.5 7Q131 26 103.5 59.5Q76 93 62 138Q48 183 48 236Q48 287 62 331.5Q76 376 103 409.5Q130 443 170 462Q210 481 261 481Q313 481 351 461.5Q389 442 414 410.5Q439 379 451 338Q463 297 463 254V229H108Q110 190 120 154.5Q130 119 148.5 93Q167 67 196 51.5Q225 36 264 36Q319 36 348.5 62Q378 88 399 132ZM258 433Q227 433 201.5 421.5Q176 410 157.5 389Q139 368 127 339.5Q115 311 112 277H401Q397 349 358.5 391Q320 433 258 433Z" glyph-name="ecaron" horiz-adv-x="502" unicode="&#283;" /><glyph d="M281 612H239L130 742L162 769L261 661L359 769L390 742ZM97 0V564H419V516H156V315H402V267H156V48H425V0Z" glyph-name="ecaron.smcp" horiz-adv-x="478" unicode="&#57921;" /><glyph d="M239 685H281L390 555L358 528L259 636L161 528L130 555ZM450 110Q424 55 379 21.5Q334 -12 264 -12Q212 -12 171.5 7Q131 26 103.5 59.5Q76 93 62 138Q48 183 48 236Q48 287 62 331.5Q76 376 103 409.5Q130 443 170 462Q210 481 261 481Q313 481 351 461.5Q389 442 414 410.5Q439 379 451 338Q463 297 463 254V229H108Q110 190 120 154.5Q130 119 148.5 93Q167 67 196 51.5Q225 36 264 36Q319 36 348.5 62Q378 88 399 132ZM258 433Q227 433 201.5 421.5Q176 410 157.5 389Q139 368 127 339.5Q115 311 112 277H401Q397 349 358.5 391Q320 433 258 433Z" glyph-name="ecircumflex" horiz-adv-x="502" unicode="&#234;" /><glyph d="M239 765H281L390 635L358 608L259 716L161 608L130 635ZM97 0V564H419V516H156V315H402V267H156V48H425V0Z" glyph-name="ecircumflex.smcp" horiz-adv-x="478" unicode="&#57919;" /><glyph d="M309 597Q309 616 321.5 628.5Q334 641 353 641Q372 641 384.5 628.5Q397 616 397 597Q397 579 384.5 566.5Q372 554 353 554Q334 554 321.5 566.5Q309 579 309 597ZM125 597Q125 616 137.5 628.5Q150 641 169 641Q188 641 200.5 628.5Q213 616 213 597Q213 579 200.5 566.5Q188 554 169 554Q150 554 137.5 566.5Q125 579 125 597ZM450 110Q424 55 379 21.5Q334 -12 264 -12Q212 -12 171.5 7Q131 26 103.5 59.5Q76 93 62 138Q48 183 48 236Q48 287 62 331.5Q76 376 103 409.5Q130 443 170 462Q210 481 261 481Q313 481 351 461.5Q389 442 414 410.5Q439 379 451 338Q463 297 463 254V229H108Q110 190 120 154.5Q130 119 148.5 93Q167 67 196 51.5Q225 36 264 36Q319 36 348.5 62Q378 88 399 132ZM258 433Q227 433 201.5 421.5Q176 410 157.5 389Q139 368 127 339.5Q115 311 112 277H401Q397 349 358.5 391Q320 433 258 433Z" glyph-name="edieresis" horiz-adv-x="502" unicode="&#235;" /><glyph d="M307 669Q307 688 319.5 700.5Q332 713 351 713Q370 713 382.5 700.5Q395 688 395 669Q395 651 382.5 638.5Q370 626 351 626Q332 626 319.5 638.5Q307 651 307 669ZM123 669Q123 688 135.5 700.5Q148 713 167 713Q186 713 198.5 700.5Q211 688 211 669Q211 651 198.5 638.5Q186 626 167 626Q148 626 135.5 638.5Q123 651 123 669ZM97 0V564H419V516H156V315H402V267H156V48H425V0Z" glyph-name="edieresis.smcp" horiz-adv-x="478" unicode="&#57904;" /><glyph d="M220 596Q220 614 231.5 625.5Q243 637 261 637Q279 637 290.5 625.5Q302 614 302 596Q302 579 290.5 567.5Q279 556 261 556Q243 556 231.5 567.5Q220 579 220 596ZM450 110Q424 55 379 21.5Q334 -12 264 -12Q212 -12 171.5 7Q131 26 103.5 59.5Q76 93 62 138Q48 183 48 236Q48 287 62 331.5Q76 376 103 409.5Q130 443 170 462Q210 481 261 481Q313 481 351 461.5Q389 442 414 410.5Q439 379 451 338Q463 297 463 254V229H108Q110 190 120 154.5Q130 119 148.5 93Q167 67 196 51.5Q225 36 264 36Q319 36 348.5 62Q378 88 399 132ZM258 433Q227 433 201.5 421.5Q176 410 157.5 389Q139 368 127 339.5Q115 311 112 277H401Q397 349 358.5 391Q320 433 258 433Z" glyph-name="edotaccent" horiz-adv-x="502" unicode="&#279;" /><glyph d="M218 666Q218 684 229.5 695.5Q241 707 259 707Q277 707 288.5 695.5Q300 684 300 666Q300 649 288.5 637.5Q277 626 259 626Q241 626 229.5 637.5Q218 649 218 666ZM97 0V564H419V516H156V315H402V267H156V48H425V0Z" glyph-name="edotaccent.smcp" horiz-adv-x="478" unicode="&#57926;" /><glyph d="M196 684 343 564 320 532 162 637ZM450 110Q424 55 379 21.5Q334 -12 264 -12Q212 -12 171.5 7Q131 26 103.5 59.5Q76 93 62 138Q48 183 48 236Q48 287 62 331.5Q76 376 103 409.5Q130 443 170 462Q210 481 261 481Q313 481 351 461.5Q389 442 414 410.5Q439 379 451 338Q463 297 463 254V229H108Q110 190 120 154.5Q130 119 148.5 93Q167 67 196 51.5Q225 36 264 36Q319 36 348.5 62Q378 88 399 132ZM258 433Q227 433 201.5 421.5Q176 410 157.5 389Q139 368 127 339.5Q115 311 112 277H401Q397 349 358.5 391Q320 433 258 433Z" glyph-name="egrave" horiz-adv-x="502" unicode="&#232;" /><glyph d="M196 762 343 642 320 610 162 715ZM97 0V564H419V516H156V315H402V267H156V48H425V0Z" glyph-name="egrave.smcp" horiz-adv-x="478" unicode="&#57918;" /><glyph d="M300 698Q350 698 388 682Q426 666 451.5 640Q477 614 490 580.5Q503 547 503 512Q503 457 472.5 414.5Q442 372 393 355Q422 349 446 333Q470 317 487.5 294.5Q505 272 515 243.5Q525 215 525 184Q525 148 511 113Q497 78 469.5 50Q442 22 399.5 5Q357 -12 300 -12Q243 -12 200.5 5Q158 22 130.5 50Q103 78 89 113Q75 148 75 184Q75 215 85 243.5Q95 272 112.5 294.5Q130 317 154 333Q178 349 207 355Q158 372 127.5 414.5Q97 457 97 512Q97 547 110 580.5Q123 614 148.5 640Q174 666 212 682Q250 698 300 698ZM300 650Q235 650 196.5 615Q158 580 158 517Q158 490 166.5 464.5Q175 439 192.5 420Q210 401 237 389.5Q264 378 300 378Q336 378 363 389.5Q390 401 407.5 420Q425 439 433.5 464.5Q442 490 442 517Q442 580 403.5 615Q365 650 300 650ZM300 37Q348 37 379.5 52Q411 67 429.5 89Q448 111 455.5 136Q463 161 463 182Q463 210 454 236.5Q445 263 425 283Q405 303 374 315.5Q343 328 300 328Q256 328 225.5 315.5Q195 303 175 283Q155 263 146 236.5Q137 210 137 182Q137 161 144.5 136Q152 111 170.5 89Q189 67 220.5 52Q252 37 300 37Z" glyph-name="eight" horiz-adv-x="600" unicode="8" /><glyph d="M273 698Q323 698 361 682Q399 666 424.5 640Q450 614 463 580.5Q476 547 476 512Q476 457 445.5 414.5Q415 372 366 355Q395 349 419 333Q443 317 460.5 294.5Q478 272 488 243.5Q498 215 498 184Q498 148 484 113Q470 78 442.5 50Q415 22 372.5 5Q330 -12 273 -12Q216 -12 173.5 5Q131 22 103.5 50Q76 78 62 113Q48 148 48 184Q48 215 58 243.5Q68 272 85.5 294.5Q103 317 127 333Q151 349 180 355Q131 372 100.5 414.5Q70 457 70 512Q70 547 83 580.5Q96 614 121.5 640Q147 666 185 682Q223 698 273 698ZM273 650Q208 650 169.5 615Q131 580 131 517Q131 490 139.5 464.5Q148 439 165.5 420Q183 401 210 389.5Q237 378 273 378Q309 378 336 389.5Q363 401 380.5 420Q398 439 406.5 464.5Q415 490 415 517Q415 580 376.5 615Q338 650 273 650ZM273 37Q321 37 352.5 52Q384 67 402.5 89Q421 111 428.5 136Q436 161 436 182Q436 210 427 236.5Q418 263 398 283Q378 303 347 315.5Q316 328 273 328Q229 328 198.5 315.5Q168 303 148 283Q128 263 119 236.5Q110 210 110 182Q110 161 117.5 136Q125 111 143.5 89Q162 67 193.5 52Q225 37 273 37Z" glyph-name="eight.LP" horiz-adv-x="546" unicode="&#58685;" /><glyph d="M300 698Q350 698 388 682Q426 666 451.5 640Q477 614 490 580.5Q503 547 503 512Q503 457 472.5 414.5Q442 372 393 355Q422 349 446 333Q470 317 487.5 294.5Q505 272 515 243.5Q525 215 525 184Q525 148 511 113Q497 78 469.5 50Q442 22 399.5 5Q357 -12 300 -12Q243 -12 200.5 5Q158 22 130.5 50Q103 78 89 113Q75 148 75 184Q75 215 85 243.5Q95 272 112.5 294.5Q130 317 154 333Q178 349 207 355Q158 372 127.5 414.5Q97 457 97 512Q97 547 110 580.5Q123 614 148.5 640Q174 666 212 682Q250 698 300 698ZM300 650Q235 650 196.5 615Q158 580 158 517Q158 490 166.5 464.5Q175 439 192.5 420Q210 401 237 389.5Q264 378 300 378Q336 378 363 389.5Q390 401 407.5 420Q425 439 433.5 464.5Q442 490 442 517Q442 580 403.5 615Q365 650 300 650ZM300 37Q348 37 379.5 52Q411 67 429.5 89Q448 111 455.5 136Q463 161 463 182Q463 210 454 236.5Q445 263 425 283Q405 303 374 315.5Q343 328 300 328Q256 328 225.5 315.5Q195 303 175 283Q155 263 146 236.5Q137 210 137 182Q137 161 144.5 136Q152 111 170.5 89Q189 67 220.5 52Q252 37 300 37Z" glyph-name="eight.LT" horiz-adv-x="600" unicode="&#58696;" /><glyph d="M270 698Q320 698 357.5 682Q395 666 420.5 640Q446 614 459 580.5Q472 547 472 512Q472 457 441.5 414.5Q411 372 362 355Q390 348 414.5 332Q439 316 456 293.5Q473 271 483 243Q493 215 493 184Q493 148 479 113Q465 78 437.5 50Q410 22 368 5Q326 -12 270 -12Q214 -12 172.5 5Q131 22 103 50Q75 78 61.5 113Q48 148 48 184Q48 215 58 243Q68 271 85 293.5Q102 316 126 332Q150 348 179 355Q130 372 99.5 414.5Q69 457 69 512Q69 547 82 580.5Q95 614 120 640Q145 666 182.5 682Q220 698 270 698ZM270 650Q206 650 167.5 615Q129 580 129 517Q129 490 137.5 464.5Q146 439 163.5 420Q181 401 207.5 389.5Q234 378 270 378Q306 378 333 389.5Q360 401 377.5 420Q395 439 403.5 464.5Q412 490 412 517Q412 580 373.5 615Q335 650 270 650ZM270 37Q318 37 349.5 52Q381 67 399 89Q417 111 424.5 136Q432 161 432 182Q432 210 423 236.5Q414 263 394.5 283Q375 303 344 315.5Q313 328 270 328Q227 328 196.5 315.5Q166 303 146.5 283Q127 263 118 236.5Q109 210 109 182Q109 161 116.5 136Q124 111 142 89Q160 67 191 52Q222 37 270 37Z" glyph-name="eight.OP" horiz-adv-x="541" unicode="&#58707;" /><glyph d="M300 698Q350 698 387.5 682Q425 666 450.5 640Q476 614 489 580.5Q502 547 502 512Q502 457 471.5 414.5Q441 372 392 355Q420 348 444.5 332Q469 316 486 293.5Q503 271 513 243Q523 215 523 184Q523 148 509 113Q495 78 467.5 50Q440 22 398 5Q356 -12 300 -12Q244 -12 202.5 5Q161 22 133 50Q105 78 91.5 113Q78 148 78 184Q78 215 88 243Q98 271 115 293.5Q132 316 156 332Q180 348 209 355Q160 372 129.5 414.5Q99 457 99 512Q99 547 112 580.5Q125 614 150 640Q175 666 212.5 682Q250 698 300 698ZM300 650Q236 650 197.5 615Q159 580 159 517Q159 490 167.5 464.5Q176 439 193.5 420Q211 401 237.5 389.5Q264 378 300 378Q336 378 363 389.5Q390 401 407.5 420Q425 439 433.5 464.5Q442 490 442 517Q442 580 403.5 615Q365 650 300 650ZM300 37Q348 37 379.5 52Q411 67 429 89Q447 111 454.5 136Q462 161 462 182Q462 210 453 236.5Q444 263 424.5 283Q405 303 374 315.5Q343 328 300 328Q257 328 226.5 315.5Q196 303 176.5 283Q157 263 148 236.5Q139 210 139 182Q139 161 146.5 136Q154 111 172 89Q190 67 221 52Q252 37 300 37Z" glyph-name="eight.OT" horiz-adv-x="600" unicode="&#58718;" /><glyph d="M184 183Q214 183 237.5 174Q261 165 277 150.5Q293 136 301 117Q309 98 309 79Q309 49 290.5 27Q272 5 245 -4Q280 -12 300.5 -39.5Q321 -67 321 -98Q321 -118 312.5 -137.5Q304 -157 287 -172.5Q270 -188 244 -197.5Q218 -207 184 -207Q149 -207 123.5 -197.5Q98 -188 81 -172.5Q64 -157 55.5 -137.5Q47 -118 47 -98Q47 -67 67.5 -39.5Q88 -12 123 -4Q96 5 77.5 27Q59 49 59 79Q59 98 67 117Q75 136 91 150.5Q107 165 130.5 174Q154 183 184 183ZM184 142Q152 142 131.5 126Q111 110 111 81Q111 52 129.5 33.5Q148 15 184 15Q220 15 238.5 33.5Q257 52 257 81Q257 110 236.5 126Q216 142 184 142ZM268 -97Q268 -69 247 -48Q226 -27 184 -27Q142 -27 121 -48Q100 -69 100 -97Q100 -108 103.5 -120Q107 -132 116.5 -142Q126 -152 142 -158.5Q158 -165 184 -165Q209 -165 225.5 -158.5Q242 -152 251.5 -142Q261 -132 264.5 -120Q268 -108 268 -97Z" glyph-name="eight.inf" horiz-adv-x="368" unicode="&#58745;" /><glyph d="M279 -12 716 712H772L335 -12ZM370 700V324H316V642Q304 633 285.5 627.5Q267 622 244 621L234 660Q263 664 287 673.5Q311 683 325 700ZM160 700V324H106V642Q94 633 75.5 627.5Q57 622 34 621L24 660Q53 664 77 673.5Q101 683 115 700ZM1015 341Q988 341 969.5 329.5Q951 318 939.5 298Q928 278 923 251.5Q918 225 917 195Q929 218 954.5 232Q980 246 1017 246Q1048 246 1072 235.5Q1096 225 1112 207Q1128 189 1136 166.5Q1144 144 1144 120Q1144 94 1135.5 71Q1127 48 1110 31Q1093 14 1068 3.5Q1043 -7 1010 -7Q937 -7 903.5 41.5Q870 90 870 180Q870 278 906.5 330.5Q943 383 1016 383Q1044 383 1064.5 375.5Q1085 368 1099 356Q1113 344 1121.5 328.5Q1130 313 1134 297L1082 290Q1079 298 1075 307Q1071 316 1063.5 323.5Q1056 331 1044.5 336Q1033 341 1015 341ZM780 376V0H726V318Q714 309 695.5 303.5Q677 298 654 297L644 336Q673 340 697 349.5Q721 359 735 376ZM1010 204Q972 204 949.5 181.5Q927 159 927 123Q927 85 949.5 60Q972 35 1010 35Q1045 35 1068.5 57.5Q1092 80 1092 119Q1092 155 1071.5 179.5Q1051 204 1010 204Z" glyph-name="elevensixteenths" horiz-adv-x="1184" unicode="&#61984;" /><glyph d="M662 81Q680 81 693 68.5Q706 56 706 38Q706 20 693 7Q680 -6 662 -6Q644 -6 631 7Q618 20 618 38Q618 56 631 68.5Q644 81 662 81ZM391 81Q409 81 422 68.5Q435 56 435 38Q435 20 422 7Q409 -6 391 -6Q373 -6 360 7Q347 20 347 38Q347 56 360 68.5Q373 81 391 81ZM120 81Q138 81 151 68.5Q164 56 164 38Q164 20 151 7Q138 -6 120 -6Q102 -6 89 7Q76 20 76 38Q76 56 89 68.5Q102 81 120 81Z" glyph-name="ellipsis" horiz-adv-x="783" unicode="&#8230;" /><glyph d="M138 610H385V565H138ZM450 110Q424 55 379 21.5Q334 -12 264 -12Q212 -12 171.5 7Q131 26 103.5 59.5Q76 93 62 138Q48 183 48 236Q48 287 62 331.5Q76 376 103 409.5Q130 443 170 462Q210 481 261 481Q313 481 351 461.5Q389 442 414 410.5Q439 379 451 338Q463 297 463 254V229H108Q110 190 120 154.5Q130 119 148.5 93Q167 67 196 51.5Q225 36 264 36Q319 36 348.5 62Q378 88 399 132ZM258 433Q227 433 201.5 421.5Q176 410 157.5 389Q139 368 127 339.5Q115 311 112 277H401Q397 349 358.5 391Q320 433 258 433Z" glyph-name="emacron" horiz-adv-x="502" unicode="&#275;" /><glyph d="M137 679H384V634H137ZM97 0V564H419V516H156V315H402V267H156V48H425V0Z" glyph-name="emacron.smcp" horiz-adv-x="478" unicode="&#57922;" /><glyph d="M64 313H806V261H64Z" glyph-name="emdash" horiz-adv-x="870" unicode="&#8212;" /><glyph d="M64 386H806V334H64Z" glyph-name="emdash.cap" horiz-adv-x="870" unicode="&#58502;" /><glyph d="M64 313H436V261H64Z" glyph-name="endash" horiz-adv-x="500" unicode="&#8211;" /><glyph d="M64 386H436V334H64Z" glyph-name="endash.cap" horiz-adv-x="500" unicode="&#58500;" /><glyph d="M86 469H141V392Q150 408 164.5 424Q179 440 199 453Q219 466 244 473.5Q269 481 301 481Q372 481 417 441Q462 401 462 321V-69Q462 -135 429 -173Q396 -211 331 -211Q304 -211 277.5 -203.5Q251 -196 232 -184L260 -134Q270 -142 287 -150.5Q304 -159 330 -159Q364 -159 383 -135.5Q402 -112 402 -69V309Q402 370 370.5 400Q339 430 286 430Q260 430 235 419Q210 408 190 386.5Q170 365 158 333.5Q146 302 146 260V0H86Z" glyph-name="eng" horiz-adv-x="543" unicode="&#331;" /><glyph d="M97 564H160Q231 457 293 364Q319 324 346 283.5Q373 243 397.5 206.5Q422 170 441.5 140.5Q461 111 473 93H474V564H529V-67Q529 -135 495.5 -173Q462 -211 399 -211Q362 -211 335.5 -198Q309 -185 287 -161L325 -122Q343 -142 359.5 -153Q376 -164 398 -164Q434 -164 454 -136.5Q474 -109 474 -64V-7Q464 7 441 42Q418 77 387.5 122.5Q357 168 322.5 220Q288 272 255.5 321Q223 370 195.5 411Q168 452 153 476H152V0H97Z" glyph-name="eng.smcp" horiz-adv-x="626" unicode="&#58155;" /><glyph d="M262 -108Q262 -125 272.5 -137Q283 -149 304 -149Q321 -149 333.5 -140.5Q346 -132 358 -115L380 -138Q346 -190 290 -190Q279 -190 265.5 -187Q252 -184 240 -175.5Q228 -167 219.5 -152.5Q211 -138 211 -115Q211 -78 228.5 -54Q246 -30 271 -12H264Q212 -12 171.5 7Q131 26 103.5 59.5Q76 93 62 138Q48 183 48 236Q48 287 62 331.5Q76 376 103 409.5Q130 443 170 462Q210 481 261 481Q313 481 351 461.5Q389 442 414 410.5Q439 379 451 338Q463 297 463 254V229H108Q110 190 120 154.5Q130 119 148.5 93Q167 67 196 51.5Q225 36 264 36Q319 36 348.5 62Q378 88 399 132L450 110Q433 75 410 48.5Q387 22 360 6Q315 -20 288.5 -49Q262 -78 262 -108ZM258 433Q227 433 201.5 421.5Q176 410 157.5 389Q139 368 127 339.5Q115 311 112 277H401Q397 349 358.5 391Q320 433 258 433Z" glyph-name="eogonek" horiz-adv-x="502" unicode="&#281;" /><glyph d="M292 -108Q292 -125 302.5 -137Q313 -149 334 -149Q351 -149 363.5 -140.5Q376 -132 388 -115L410 -138Q376 -190 320 -190Q309 -190 295.5 -187Q282 -184 270 -175.5Q258 -167 249.5 -152.5Q241 -138 241 -115Q241 -94 248.5 -77Q256 -60 268 -45.5Q280 -31 295 -20Q310 -9 325 0H97V564H419V516H156V315H402V267H156V48H425V0H387Q331 -33 311.5 -59.5Q292 -86 292 -108Z" glyph-name="eogonek.smcp" horiz-adv-x="478" unicode="&#57929;" /><glyph d="M56 439H544V389H56ZM56 264H544V214H56Z" glyph-name="equal" horiz-adv-x="600" unicode="=" /><glyph d="M56 473H594V423H56ZM56 298H594V248H56Z" glyph-name="equal.cap" horiz-adv-x="650" unicode="&#58773;" /><glyph d="M54 80H330V30H54ZM54 -30H330V-80H54Z" glyph-name="equal.inf" horiz-adv-x="384" unicode="&#58749;" /><glyph d="M54 549H546V499H54ZM54 349H546V299H54ZM54 149H546V99H54Z" glyph-name="equivalence" horiz-adv-x="600" unicode="&#8801;" /><glyph d="M694 164Q674 122 646.5 89Q619 56 581.5 33Q544 10 496.5 -2Q449 -14 388 -14Q305 -14 241.5 12.5Q178 39 135.5 87Q93 135 71.5 202Q50 269 50 351Q50 441 74.5 508.5Q99 576 143 622Q187 668 249.5 691Q312 714 387 714Q472 714 535 685.5Q598 657 639 608Q680 559 700 492.5Q720 426 720 351V323H167Q170 260 185 208.5Q200 157 227.5 121Q255 85 295.5 65.5Q336 46 389 46Q439 46 476.5 58Q514 70 541.5 90Q569 110 587.5 137Q606 164 617 194ZM388 654Q331 654 291 634Q251 614 225 578Q199 542 185 492.5Q171 443 167 384H602Q598 445 583 494.5Q568 544 542 579.5Q516 615 477.5 634.5Q439 654 388 654Z" glyph-name="estimated" horiz-adv-x="770" unicode="&#8494;" /><glyph d="M182 573 257 623Q234 644 207 661.5Q180 679 149 692L184 726Q245 702 302 653L372 699L395 664L333 622Q399 553 440.5 454.5Q482 356 482 241Q482 180 465.5 133Q449 86 419.5 53.5Q390 21 350.5 4.5Q311 -12 265 -12Q212 -12 171.5 7Q131 26 103.5 59Q76 92 62 137Q48 182 48 234Q48 292 64.5 337.5Q81 383 110 415Q139 447 178 464Q217 481 261 481Q308 481 340 466.5Q372 452 386 432Q370 475 345.5 516Q321 557 289 592L206 536ZM110 235Q110 194 119.5 158Q129 122 148.5 95Q168 68 197 52.5Q226 37 265 37Q302 37 331 52Q360 67 379.5 94Q399 121 409.5 157.5Q420 194 420 237Q420 281 408.5 317Q397 353 376 378.5Q355 404 326.5 418Q298 432 264 432Q225 432 196.5 416Q168 400 148.5 373Q129 346 119.5 310.5Q110 275 110 235Z" glyph-name="eth" horiz-adv-x="530" unicode="&#240;" /><glyph d="M111 316V564H292Q352 564 399.5 545Q447 526 480 489.5Q513 453 531 400.5Q549 348 549 282Q549 216 531 163.5Q513 111 480 74.5Q447 38 399.5 19Q352 0 292 0H111V273H36V316ZM488 282Q488 334 476 377Q464 420 439.5 451Q415 482 376.5 499Q338 516 285 516H170V316H324V273H170V48H285Q338 48 376.5 65Q415 82 439.5 112.5Q464 143 476 186Q488 229 488 282Z" glyph-name="eth.smcp" horiz-adv-x="611" unicode="&#58156;" /><glyph d="M142 169H96L85 700H153ZM75 38Q75 57 87 69Q99 81 119 81Q139 81 151 69Q163 57 163 38Q163 20 151 7Q139 -6 119 -6Q99 -6 87 7Q75 20 75 38Z" glyph-name="exclam" horiz-adv-x="238" unicode="!" /><glyph d="M76 462Q76 481 87.5 493.5Q99 506 119 506Q139 506 150.5 493.5Q162 481 162 462Q162 443 150.5 431.5Q139 420 119 420Q99 420 87.5 431.5Q76 443 76 462ZM153 -200H85L96 331H142Z" glyph-name="exclamdown" horiz-adv-x="238" unicode="&#161;" /><glyph d="M76 662Q76 681 87.5 693.5Q99 706 119 706Q139 706 150.5 693.5Q162 681 162 662Q162 643 150.5 631.5Q139 620 119 620Q99 620 87.5 631.5Q76 643 76 662ZM153 0H85L96 531H142Z" glyph-name="exclamdown.cap" horiz-adv-x="238" unicode="&#58433;" /><glyph d="M103 469V568Q103 605 114 632.5Q125 660 143.5 677.5Q162 695 187 703.5Q212 712 241 712Q270 712 297 704.5Q324 697 344 683L317 636Q307 643 288.5 652Q270 661 244 661Q206 661 184.5 636Q163 611 163 567V469H275V422H163V0H103V422H22V469Z" glyph-name="f" horiz-adv-x="302" unicode="f" /><glyph d="M97 0V564H419V516H156V315H403V267H156V0Z" glyph-name="f.smcp" horiz-adv-x="469" unicode="&#57862;" /><glyph d="M25 587H76V646Q76 671 84 689Q92 707 105.5 718.5Q119 730 136 735Q153 740 171 740Q191 740 210.5 735Q230 730 241 722L219 682Q212 687 200.5 692.5Q189 698 174 698Q151 698 138 683.5Q125 669 125 643V587H196V550H125V288H76V550H25Z" glyph-name="f.superior" horiz-adv-x="217" unicode="&#58214;" /><glyph d="M103 469V568Q103 605 113 632.5Q123 660 140.5 677.5Q158 695 181 703.5Q204 712 230 712Q256 712 281.5 704.5Q307 697 324 683L297 636Q289 643 272.5 652Q256 661 233 661Q201 661 182 636Q163 611 163 567V469H270V422H163V0H103V422H22V469ZM815 235Q815 179 799 133.5Q783 88 755 55.5Q727 23 688 5.5Q649 -12 604 -12Q574 -12 548.5 -4.5Q523 3 502.5 16Q482 29 467 45Q452 61 443 78V0H388V700H448V398Q468 430 507 455.5Q546 481 606 481Q651 481 689 463.5Q727 446 755 413.5Q783 381 799 335.5Q815 290 815 235ZM753 235Q753 277 742.5 312.5Q732 348 712 374.5Q692 401 664 416Q636 431 600 431Q573 431 545.5 420Q518 409 496.5 388Q475 367 461.5 337Q448 307 448 268V201Q448 162 461.5 132Q475 102 496.5 81Q518 60 545 49Q572 38 600 38Q636 38 664 53Q692 68 712 94.5Q732 121 742.5 157Q753 193 753 235Z" glyph-name="f_b" horiz-adv-x="863" unicode="&#58241;" /><glyph d="M103 469V563Q103 600 113.5 627.5Q124 655 142.5 672.5Q161 690 186 698.5Q211 707 239 707Q268 707 294 699.5Q320 692 340 678L313 631Q305 637 286.5 646.5Q268 656 242 656Q205 656 184 631Q163 606 163 562V469H382V568Q382 605 392 632.5Q402 660 419.5 677.5Q437 695 460 703.5Q483 712 509 712Q535 712 560.5 704.5Q586 697 603 683L576 636Q568 643 551.5 652Q535 661 512 661Q480 661 461 636Q442 611 442 567V469H549V422H442V0H382V422H163V0H103V422H22V469ZM1094 235Q1094 179 1078 133.5Q1062 88 1034 55.5Q1006 23 967 5.5Q928 -12 883 -12Q853 -12 827.5 -4.5Q802 3 781.5 16Q761 29 746 45Q731 61 722 78V0H667V700H727V398Q747 430 786 455.5Q825 481 885 481Q930 481 968 463.5Q1006 446 1034 413.5Q1062 381 1078 335.5Q1094 290 1094 235ZM1032 235Q1032 277 1021.5 312.5Q1011 348 991 374.5Q971 401 943 416Q915 431 879 431Q852 431 824.5 420Q797 409 775.5 388Q754 367 740.5 337Q727 307 727 268V201Q727 162 740.5 132Q754 102 775.5 81Q797 60 824 49Q851 38 879 38Q915 38 943 53Q971 68 991 94.5Q1011 121 1021.5 157Q1032 193 1032 235Z" glyph-name="f_f_b" horiz-adv-x="1142" unicode="&#58242;" /><glyph d="M103 469V563Q103 600 113.5 627.5Q124 655 142.5 672.5Q161 690 186 698.5Q211 707 239 707Q268 707 294 699.5Q320 692 340 678L313 631Q305 637 286.5 646.5Q268 656 242 656Q205 656 184 631Q163 606 163 562V469H382V568Q382 605 392 632.5Q402 660 419.5 677.5Q437 695 460 703.5Q483 712 509 712Q535 712 560.5 704.5Q586 697 603 683L576 636Q568 643 551.5 652Q535 661 512 661Q480 661 461 636Q442 611 442 567V469H549V422H442V0H382V422H163V0H103V422H22V469ZM667 700H727V400Q746 433 786.5 457Q827 481 884 481Q918 481 947 471Q976 461 997.5 441Q1019 421 1031 391Q1043 361 1043 321V0H983V309Q983 370 951.5 400Q920 430 872 430Q843 430 816.5 418.5Q790 407 770 387Q750 367 738.5 338.5Q727 310 727 276V0H667Z" glyph-name="f_f_h" horiz-adv-x="1124" unicode="&#58243;" /><glyph d="M103 469V563Q103 600 113.5 627.5Q124 655 143 672.5Q162 690 187 698.5Q212 707 241 707Q270 707 297 699.5Q324 692 344 678L317 631Q308 637 289.5 646.5Q271 656 244 656Q206 656 184.5 631Q163 606 163 562V469H382V532Q382 581 396.5 615.5Q411 650 435 671.5Q459 693 489 702.5Q519 712 550 712Q597 712 634.5 692Q672 672 694 630L649 597Q631 626 607.5 643.5Q584 661 548 661Q499 661 470.5 625.5Q442 590 442 529V469H711V-69Q711 -135 678 -173Q645 -211 580 -211Q553 -211 526.5 -203.5Q500 -196 481 -184L509 -134Q519 -142 536 -150.5Q553 -159 579 -159Q613 -159 632 -135.5Q651 -112 651 -69V422H442V0H382V422H163V0H103V422H22V469Z" glyph-name="f_f_j" horiz-adv-x="797" unicode="&#57898;" /><glyph d="M103 469V563Q103 600 113.5 627.5Q124 655 142.5 672.5Q161 690 186 698.5Q211 707 239 707Q268 707 294 699.5Q320 692 340 678L313 631Q305 637 286.5 646.5Q268 656 242 656Q205 656 184 631Q163 606 163 562V469H382V568Q382 605 392 632.5Q402 660 419.5 677.5Q437 695 460 703.5Q483 712 509 712Q535 712 560.5 704.5Q586 697 603 683L576 636Q568 643 551.5 652Q535 661 512 661Q480 661 461 636Q442 611 442 567V469H549V422H442V0H382V422H163V0H103V422H22V469ZM790 262 727 203V0H667V700H727V273L940 469H1015L834 299L1049 0H977Z" glyph-name="f_f_k" horiz-adv-x="1054" unicode="&#58245;" /><glyph d="M103 469V568Q103 605 113 632.5Q123 660 140.5 677.5Q158 695 181 703.5Q204 712 230 712Q256 712 281.5 704.5Q307 697 324 683L297 636Q289 643 272.5 652Q256 661 233 661Q201 661 182 636Q163 611 163 567V469H270V422H163V0H103V422H22V469ZM388 700H448V400Q467 433 507.5 457Q548 481 605 481Q639 481 668 471Q697 461 718.5 441Q740 421 752 391Q764 361 764 321V0H704V309Q704 370 672.5 400Q641 430 593 430Q564 430 537.5 418.5Q511 407 491 387Q471 367 459.5 338.5Q448 310 448 276V0H388Z" glyph-name="f_h" horiz-adv-x="845" unicode="&#58246;" /><glyph d="M370 597Q352 626 328.5 643.5Q305 661 269 661Q220 661 191.5 625.5Q163 590 163 529V469H432V0H372V422H163V0H103V422H22V469H103V532Q103 581 117.5 615.5Q132 650 156 671.5Q180 693 210 702.5Q240 712 271 712Q318 712 355.5 692Q393 672 415 630Z" glyph-name="f_i" horiz-adv-x="518" unicode="&#62209;" /><glyph d="M370 597Q352 626 328.5 643.5Q305 661 269 661Q220 661 191.5 625.5Q163 590 163 529V469H432V-69Q432 -135 399 -173Q366 -211 301 -211Q274 -211 247.5 -203.5Q221 -196 202 -184L230 -134Q240 -142 257 -150.5Q274 -159 300 -159Q334 -159 353 -135.5Q372 -112 372 -69V422H163V0H103V422H22V469H103V532Q103 581 117.5 615.5Q132 650 156 671.5Q180 693 210 702.5Q240 712 271 712Q318 712 355.5 692Q393 672 415 630Z" glyph-name="f_j" horiz-adv-x="518" unicode="&#58247;" /><glyph d="M103 469V568Q103 605 113 632.5Q123 660 140.5 677.5Q158 695 181 703.5Q204 712 230 712Q256 712 281.5 704.5Q307 697 324 683L297 636Q289 643 272.5 652Q256 661 233 661Q201 661 182 636Q163 611 163 567V469H270V422H163V0H103V422H22V469ZM511 262 448 203V0H388V700H448V273L661 469H736L555 299L770 0H698Z" glyph-name="f_k" horiz-adv-x="775" unicode="&#58248;" /><glyph d="M103 469V563Q103 600 113.5 627.5Q124 655 142.5 672.5Q161 690 186 698.5Q211 707 239 707Q268 707 294 699.5Q320 692 340 678L313 631Q305 637 286.5 646.5Q268 656 242 656Q205 656 184 631Q163 606 163 562V469H382V568Q382 605 393 632.5Q404 660 422.5 677.5Q441 695 466 703.5Q491 712 520 712Q549 712 576 704.5Q603 697 623 683L596 636Q586 643 567.5 652Q549 661 523 661Q485 661 463.5 636Q442 611 442 567V469H554V422H442V0H382V422H163V0H103V422H22V469Z" glyph-name="ff" horiz-adv-x="581" unicode="&#64256;" /><glyph d="M103 469V563Q103 600 113.5 627.5Q124 655 143 672.5Q162 690 187 698.5Q212 707 241 707Q270 707 297 699.5Q324 692 344 678L317 631Q308 637 289.5 646.5Q271 656 244 656Q206 656 184.5 631Q163 606 163 562V469H382V532Q382 581 396.5 615.5Q411 650 435 671.5Q459 693 489 702.5Q519 712 550 712Q597 712 634.5 692Q672 672 694 630L649 597Q631 626 607.5 643.5Q584 661 548 661Q499 661 470.5 625.5Q442 590 442 529V469H711V0H651V422H442V0H382V422H163V0H103V422H22V469Z" glyph-name="ffi" horiz-adv-x="797" unicode="&#64259;" /><glyph d="M103 469V563Q103 600 113.5 627.5Q124 655 142.5 672.5Q161 690 186 698.5Q211 707 239 707Q268 707 294 699.5Q320 692 340 678L313 631Q305 637 286.5 646.5Q268 656 242 656Q205 656 184 631Q163 606 163 562V469H382V568Q382 605 392 632.5Q402 660 419.5 677.5Q437 695 460 703.5Q483 712 509 712Q535 712 560.5 704.5Q586 697 603 683L576 636Q568 643 551.5 652Q535 661 512 661Q480 661 461 636Q442 611 442 567V469H549V422H442V0H382V422H163V0H103V422H22V469ZM667 700H727V0H667Z" glyph-name="ffl" horiz-adv-x="813" unicode="&#64260;" /><glyph d="M377 669Q377 687 388.5 698.5Q400 710 418 710Q436 710 447.5 698.5Q459 687 459 669Q459 652 447.5 640.5Q436 629 418 629Q400 629 388.5 640.5Q377 652 377 669ZM388 469H448V0H388ZM103 469V568Q103 605 113 632.5Q123 660 140.5 677.5Q158 695 181 703.5Q204 712 230 712Q255 712 278.5 704.5Q302 697 319 684L293 636Q285 643 270 652Q255 661 232 661Q200 661 181.5 636Q163 611 163 567V469H270V422H163V0H103V422H22V469Z" glyph-name="fi" horiz-adv-x="534" unicode="&#64257;" /><glyph d="M346 -12 783 712H839L402 -12ZM293 426Q295 400 314 380Q333 360 368 360Q405 360 427.5 382.5Q450 405 450 443Q450 459 445.5 474.5Q441 490 432 502Q423 514 408.5 521.5Q394 529 373 529Q347 529 327.5 518.5Q308 508 299 490L255 497L278 700H485L478 657H317L303 542Q312 553 330.5 562.5Q349 572 380 572Q411 572 434.5 560.5Q458 549 473.5 531Q489 513 496.5 490Q504 467 504 444Q504 420 495 397.5Q486 375 468.5 357Q451 339 425.5 328Q400 317 367 317Q335 317 312 327Q289 337 274 351.5Q259 366 251.5 383Q244 400 244 414ZM160 700V324H106V642Q94 633 75.5 627.5Q57 622 34 621L24 660Q53 664 77 673.5Q101 683 115 700ZM1082 341Q1055 341 1036.5 329.5Q1018 318 1006.5 298Q995 278 990 251.5Q985 225 984 195Q996 218 1021.5 232Q1047 246 1084 246Q1115 246 1139 235.5Q1163 225 1179 207Q1195 189 1203 166.5Q1211 144 1211 120Q1211 94 1202.5 71Q1194 48 1177 31Q1160 14 1135 3.5Q1110 -7 1077 -7Q1004 -7 970.5 41.5Q937 90 937 180Q937 278 973.5 330.5Q1010 383 1083 383Q1111 383 1131.5 375.5Q1152 368 1166 356Q1180 344 1188.5 328.5Q1197 313 1201 297L1149 290Q1146 298 1142 307Q1138 316 1130.5 323.5Q1123 331 1111.5 336Q1100 341 1082 341ZM847 376V0H793V318Q781 309 762.5 303.5Q744 298 721 297L711 336Q740 340 764 349.5Q788 359 802 376ZM1077 204Q1039 204 1016.5 181.5Q994 159 994 123Q994 85 1016.5 60Q1039 35 1077 35Q1112 35 1135.5 57.5Q1159 80 1159 119Q1159 155 1138.5 179.5Q1118 204 1077 204Z" glyph-name="fifteensixteenths" horiz-adv-x="1251" unicode="&#61986;" /><glyph d="M64 313H536V261H64Z" glyph-name="figuredash" horiz-adv-x="600" unicode="&#8210;" /><glyph d="M64 386H536V334H64Z" glyph-name="figuredash.cap" horiz-adv-x="600" unicode="&#58503;" /><glyph d="M148 176Q151 149 161 124Q171 99 188.5 80Q206 61 232 49.5Q258 38 294 38Q328 38 357 50.5Q386 63 407 86Q428 109 439.5 141.5Q451 174 451 214Q451 245 442.5 277Q434 309 415.5 334.5Q397 360 367.5 376Q338 392 296 392Q269 392 246.5 385Q224 378 207 366.5Q190 355 178 341Q166 327 159 312L110 319L148 687H483L474 636H196L170 395Q178 402 189 410Q200 418 215.5 425Q231 432 251.5 437Q272 442 298 442Q352 442 392 422Q432 402 459 370Q486 338 499.5 297.5Q513 257 513 216Q513 165 496.5 123Q480 81 451 51Q422 21 381 4.5Q340 -12 292 -12Q236 -12 197.5 7.5Q159 27 135.5 54Q112 81 102 111Q92 141 92 162Z" glyph-name="five" horiz-adv-x="600" unicode="5" /><glyph d="M112 176Q115 149 125 124Q135 99 152.5 80Q170 61 196 49.5Q222 38 258 38Q292 38 321 50.5Q350 63 371 86Q392 109 403.5 141.5Q415 174 415 214Q415 245 406.5 277Q398 309 379.5 334.5Q361 360 331.5 376Q302 392 260 392Q233 392 210.5 385Q188 378 171 366.5Q154 355 142 341Q130 327 123 312L74 319L112 687H447L438 636H160L134 395Q142 402 153 410Q164 418 179.5 425Q195 432 215.5 437Q236 442 262 442Q316 442 356 422Q396 402 423 370Q450 338 463.5 297.5Q477 257 477 216Q477 165 460.5 123Q444 81 415 51Q386 21 345 4.5Q304 -12 256 -12Q200 -12 161.5 7.5Q123 27 99.5 54Q76 81 66 111Q56 141 56 162Z" glyph-name="five.LP" horiz-adv-x="527" unicode="&#58682;" /><glyph d="M148 176Q151 149 161 124Q171 99 188.5 80Q206 61 232 49.5Q258 38 294 38Q328 38 357 50.5Q386 63 407 86Q428 109 439.5 141.5Q451 174 451 214Q451 245 442.5 277Q434 309 415.5 334.5Q397 360 367.5 376Q338 392 296 392Q269 392 246.5 385Q224 378 207 366.5Q190 355 178 341Q166 327 159 312L110 319L148 687H483L474 636H196L170 395Q178 402 189 410Q200 418 215.5 425Q231 432 251.5 437Q272 442 298 442Q352 442 392 422Q432 402 459 370Q486 338 499.5 297.5Q513 257 513 216Q513 165 496.5 123Q480 81 451 51Q422 21 381 4.5Q340 -12 292 -12Q236 -12 197.5 7.5Q159 27 135.5 54Q112 81 102 111Q92 141 92 162Z" glyph-name="five.LT" horiz-adv-x="600" unicode="&#58693;" /><glyph d="M109 55Q112 28 122 3Q132 -22 149.5 -41Q167 -60 193 -71.5Q219 -83 255 -83Q289 -83 317.5 -70.5Q346 -58 367 -35Q388 -12 399.5 20.5Q411 53 411 93Q411 124 402.5 156Q394 188 375.5 213.5Q357 239 328 255Q299 271 257 271Q230 271 208 264Q186 257 169 245.5Q152 234 140 220Q128 206 121 191L72 198L110 564H442L433 514H157L131 273Q139 280 150 288Q161 296 177 303Q193 310 213 315Q233 320 259 320Q312 320 352 300.5Q392 281 418.5 249Q445 217 458.5 176.5Q472 136 472 95Q472 44 455.5 2Q439 -40 410 -70Q381 -100 341 -116.5Q301 -133 253 -133Q197 -133 159 -113.5Q121 -94 97.5 -67Q74 -40 64 -10Q54 20 54 41Z" glyph-name="five.OP" horiz-adv-x="524" unicode="&#58688;" /><glyph d="M147 55Q150 28 160 3Q170 -22 187.5 -41Q205 -60 231 -71.5Q257 -83 293 -83Q327 -83 355.5 -70.5Q384 -58 405 -35Q426 -12 437.5 20.5Q449 53 449 93Q449 124 440.5 156Q432 188 413.5 213.5Q395 239 366 255Q337 271 295 271Q268 271 246 264Q224 257 207 245.5Q190 234 178 220Q166 206 159 191L110 198L148 564H480L471 514H195L169 273Q177 280 188 288Q199 296 215 303Q231 310 251 315Q271 320 297 320Q350 320 390 300.5Q430 281 456.5 249Q483 217 496.5 176.5Q510 136 510 95Q510 44 493.5 2Q477 -40 448 -70Q419 -100 379 -116.5Q339 -133 291 -133Q235 -133 197 -113.5Q159 -94 135.5 -67Q112 -40 102 -10Q92 20 92 41Z" glyph-name="five.OT" horiz-adv-x="600" unicode="&#58715;" /><glyph d="M95 -98Q97 -124 116 -144Q135 -164 170 -164Q207 -164 229.5 -141.5Q252 -119 252 -81Q252 -65 247.5 -49.5Q243 -34 234 -22Q225 -10 210.5 -2.5Q196 5 175 5Q149 5 129.5 -5.5Q110 -16 101 -34L57 -27L80 176H287L280 133H119L105 18Q114 29 132.5 38.5Q151 48 182 48Q213 48 236.5 36.5Q260 25 275.5 7Q291 -11 298.5 -34Q306 -57 306 -80Q306 -104 297 -126.5Q288 -149 270.5 -167Q253 -185 227.5 -196Q202 -207 169 -207Q137 -207 114 -197Q91 -187 76 -172.5Q61 -158 53.5 -141Q46 -124 46 -110Z" glyph-name="five.inf" horiz-adv-x="349" unicode="&#58742;" /><glyph d="M148 -12 585 712H641L204 -12ZM95 426Q97 400 116 380Q135 360 170 360Q207 360 229.5 382.5Q252 405 252 443Q252 459 247.5 474.5Q243 490 234 502Q225 514 210.5 521.5Q196 529 175 529Q149 529 129.5 518.5Q110 508 101 490L57 497L80 700H287L280 657H119L105 542Q114 553 132.5 562.5Q151 572 182 572Q213 572 236.5 560.5Q260 549 275.5 531Q291 513 298.5 490Q306 467 306 444Q306 420 297 397.5Q288 375 270.5 357Q253 339 227.5 328Q202 317 169 317Q137 317 114 327Q91 337 76 351.5Q61 366 53.5 383Q46 400 46 414ZM884 341Q857 341 838.5 329.5Q820 318 808.5 298Q797 278 792 251.5Q787 225 786 195Q798 218 823.5 232Q849 246 886 246Q917 246 941 235.5Q965 225 981 207Q997 189 1005 166.5Q1013 144 1013 120Q1013 94 1004.5 71Q996 48 979 31Q962 14 937 3.5Q912 -7 879 -7Q806 -7 772.5 41.5Q739 90 739 180Q739 278 775.5 330.5Q812 383 885 383Q913 383 933.5 375.5Q954 368 968 356Q982 344 990.5 328.5Q999 313 1003 297L951 290Q948 298 944 307Q940 316 932.5 323.5Q925 331 913.5 336Q902 341 884 341ZM649 376V0H595V318Q583 309 564.5 303.5Q546 298 523 297L513 336Q542 340 566 349.5Q590 359 604 376ZM879 204Q841 204 818.5 181.5Q796 159 796 123Q796 85 818.5 60Q841 35 879 35Q914 35 937.5 57.5Q961 80 961 119Q961 155 940.5 179.5Q920 204 879 204Z" glyph-name="fivesixteenths" horiz-adv-x="1053" unicode="&#61975;" /><glyph d="M103 469V568Q103 605 113 632.5Q123 660 140.5 677.5Q158 695 181 703.5Q204 712 230 712Q255 712 278.5 704.5Q302 697 319 684L293 636Q285 643 270 652Q255 661 232 661Q200 661 181.5 636Q163 611 163 567V469H270V422H163V0H103V422H22V469ZM377 669Q377 687 388.5 698.5Q400 710 418 710Q436 710 447.5 698.5Q459 687 459 669Q459 652 447.5 640.5Q436 629 418 629Q400 629 388.5 640.5Q377 652 377 669ZM388 469H448V-69Q448 -135 415 -173Q382 -211 317 -211Q290 -211 263.5 -203.5Q237 -196 218 -184L246 -134Q256 -142 273 -150.5Q290 -159 316 -159Q350 -159 369 -135.5Q388 -112 388 -69Z" glyph-name="fj" horiz-adv-x="534" /><glyph d="M103 469V568Q103 605 113 632.5Q123 660 140.5 677.5Q158 695 181 703.5Q204 712 230 712Q256 712 281.5 704.5Q307 697 324 683L297 636Q289 643 272.5 652Q256 661 233 661Q201 661 182 636Q163 611 163 567V469H270V422H163V0H103V422H22V469ZM388 700H448V0H388Z" glyph-name="fl" horiz-adv-x="534" unicode="&#64258;" /><glyph d="M207 365H124V410H212L229 571Q233 611 246 637.5Q259 664 278 680.5Q297 697 319.5 704Q342 711 366 711Q390 711 415 703.5Q440 696 454 685L419 636Q409 644 395 651Q381 658 361 658Q326 658 308 633.5Q290 609 286 570L269 410H378V365H265L225 -9Q221 -49 208 -75.5Q195 -102 176 -118.5Q157 -135 134.5 -142Q112 -149 88 -149Q64 -149 39 -141.5Q14 -134 0 -123L35 -74Q45 -82 59 -89Q73 -96 93 -96Q128 -96 146 -71.5Q164 -47 168 -8Z" glyph-name="florin" horiz-adv-x="464" unicode="&#402;" /><glyph d="M438 687V223H547L538 174H438V0H380V174H59V221L356 687ZM380 223V630H378L120 223Z" glyph-name="four" horiz-adv-x="600" unicode="4" /><glyph d="M405 687V223H514L505 174H405V0H347V174H26V221L323 687ZM347 223V630H345L87 223Z" glyph-name="four.LP" horiz-adv-x="535" unicode="&#58681;" /><glyph d="M438 687V223H547L538 174H438V0H380V174H59V221L356 687ZM380 223V630H378L120 223Z" glyph-name="four.LT" horiz-adv-x="600" unicode="&#58692;" /><glyph d="M404 564V100H514L505 53H404V-122H348V53H27V98L323 564ZM348 100V508H346L87 100Z" glyph-name="four.OP" horiz-adv-x="531" unicode="&#58703;" /><glyph d="M438 564V100H548L539 53H438V-122H382V53H61V98L357 564ZM382 100V508H380L121 100Z" glyph-name="four.OT" horiz-adv-x="600" unicode="&#58714;" /><glyph d="M266 174V-71H330L322 -112H266V-200H217V-112H32V-72L199 174ZM217 -71V128H216L81 -71Z" glyph-name="four.inf" horiz-adv-x="360" unicode="&#58741;" /><glyph d="M-131 -12 306 712H362L-75 -12Z" glyph-name="fraction" horiz-adv-x="233" unicode="&#8260;" /><glyph d="M39 -85Q39 -44 59 -15.5Q79 13 113 28Q89 39 74.5 57Q60 75 60 101Q60 132 78.5 152.5Q97 173 129 181Q103 198 83 229.5Q63 261 63 310Q63 351 78.5 383Q94 415 119.5 436.5Q145 458 178.5 469.5Q212 481 249 481Q313 481 363 448Q378 467 398 479Q418 491 448 491Q475 491 494 483L482 435Q468 446 444 446Q424 446 412 438Q400 430 394 422Q413 401 424 373.5Q435 346 435 312Q435 272 419.5 241Q404 210 378.5 189Q353 168 319.5 157Q286 146 249 146Q216 146 198.5 152Q181 158 170 158Q151 158 133.5 146Q116 134 116 115Q116 107 118 100.5Q120 94 126 88Q132 82 141 77.5Q150 73 166.5 69.5Q183 66 209 63Q235 60 276 57Q321 54 357.5 47.5Q394 41 419.5 28.5Q445 16 459 -5Q473 -26 473 -59Q473 -98 455.5 -126.5Q438 -155 407 -173.5Q376 -192 334 -201.5Q292 -211 244 -211Q200 -211 162.5 -204Q125 -197 97.5 -182Q70 -167 54.5 -143Q39 -119 39 -85ZM123 312Q123 283 133 260Q143 237 160 221.5Q177 206 200 197.5Q223 189 249 189Q275 189 298 197.5Q321 206 338 222Q355 238 365 260.5Q375 283 375 312Q375 342 365 365Q355 388 338 404.5Q321 421 298 429.5Q275 438 249 438Q223 438 200 429.5Q177 421 160 404.5Q143 388 133 365Q123 342 123 312ZM254 5Q227 7 204 8.5Q181 10 161 14Q135 3 116 -21Q97 -45 97 -77Q97 -101 108.5 -118Q120 -135 140 -146.5Q160 -158 187 -163Q214 -168 246 -168Q282 -168 313.5 -161Q345 -154 367.5 -141Q390 -128 403 -109Q416 -90 416 -66Q416 -48 408.5 -35.5Q401 -23 382.5 -15Q364 -7 332.5 -2.5Q301 2 254 5Z" glyph-name="g" horiz-adv-x="506" unicode="g" /><glyph d="M415 89Q394 56 354.5 32Q315 8 256 8Q211 8 173 25Q135 42 107.5 73Q80 104 64 147.5Q48 191 48 244Q48 298 64 341.5Q80 385 107.5 416Q135 447 173 464Q211 481 256 481Q289 481 314.5 473.5Q340 466 360 454Q380 442 394.5 426Q409 410 420 392V469H475V35Q475 -82 423.5 -146.5Q372 -211 260 -211Q182 -211 135.5 -181Q89 -151 63 -89L118 -67Q124 -85 135 -102Q146 -119 163 -132Q180 -145 204 -153Q228 -161 260 -161Q343 -161 379 -110Q415 -59 415 31ZM110 244Q110 205 120.5 171Q131 137 151 112Q171 87 199 72.5Q227 58 263 58Q287 58 313.5 67Q340 76 362.5 96Q385 116 400 146.5Q415 177 415 221V270Q415 313 400 343.5Q385 374 362.5 393.5Q340 413 313.5 422Q287 431 263 431Q227 431 199 416.5Q171 402 151 377Q131 352 120.5 318Q110 284 110 244Z" glyph-name="g.school" horiz-adv-x="561" unicode="&#57697;" /><glyph d="M299 274H524V0H470V62Q462 50 448.5 37Q435 24 415 13Q395 2 368.5 -5Q342 -12 309 -12Q250 -12 204 10Q158 32 126.5 71Q95 110 78.5 164Q62 218 62 282Q62 346 79.5 400Q97 454 129.5 493Q162 532 209 553.5Q256 575 315 575Q395 575 447 535.5Q499 496 526 431L472 410Q451 462 412 494Q373 526 311 526Q223 526 173 460Q123 394 123 280Q123 168 172 102.5Q221 37 311 37Q379 37 422.5 73Q466 109 466 178V227H299Z" glyph-name="g.smcp" horiz-adv-x="604" unicode="&#57863;" /><glyph d="M318 559Q314 564 307 565.5Q300 567 293 567Q282 567 274.5 563.5Q267 560 263 556Q276 543 282.5 525Q289 507 289 487Q289 462 279 442Q269 422 252.5 408.5Q236 395 213.5 388Q191 381 167 381Q147 381 135 384Q123 387 117 387Q109 387 98 381Q87 375 87 360Q87 354 90.5 349Q94 344 104.5 340.5Q115 337 134 334Q153 331 184 329Q215 327 239 322.5Q263 318 279.5 310Q296 302 305 288Q314 274 314 253Q314 226 302 207.5Q290 189 270 177Q250 165 222.5 159.5Q195 154 164 154Q105 154 67 173Q29 192 29 235Q29 261 42.5 279.5Q56 298 73 306Q41 320 41 351Q41 369 52 383.5Q63 398 83 406Q68 417 56.5 437Q45 457 45 486Q45 512 55 532.5Q65 553 82 567Q99 581 120.5 588Q142 595 166 595Q186 595 204.5 590Q223 585 237 577Q247 587 261 594Q275 601 297 601Q314 601 327 596ZM93 487Q93 452 114.5 433.5Q136 415 167 415Q198 415 219.5 433.5Q241 452 241 487Q241 522 219 541.5Q197 561 167 561Q136 561 114.5 541.5Q93 522 93 487ZM170 288Q147 290 133 291Q119 292 107 295Q93 289 83.5 274.5Q74 260 74 241Q74 212 100 199.5Q126 187 165 187Q210 187 239 202Q268 217 268 247Q268 269 246.5 276.5Q225 284 170 288Z" glyph-name="g.superior" horiz-adv-x="340" unicode="&#58215;" /><glyph d="M267 340Q253 321 229 307Q205 293 170 293Q140 293 115 303.5Q90 314 72 333.5Q54 353 43.5 381Q33 409 33 444Q33 478 43.5 506Q54 534 72 554Q90 574 115 584.5Q140 595 170 595Q210 595 233 578.5Q256 562 270 541V587H316V310Q316 235 281.5 194.5Q247 154 173 154Q123 154 91.5 172Q60 190 43 231L88 249Q96 226 115.5 209.5Q135 193 174 193Q225 193 246 224.5Q267 256 267 308ZM267 457Q267 484 258 502.5Q249 521 235.5 532.5Q222 544 205.5 549Q189 554 175 554Q132 554 108 523Q84 492 84 444Q84 396 108 364.5Q132 333 175 333Q189 333 205.5 338Q222 343 235.5 354Q249 365 258 384Q267 403 267 430Z" glyph-name="g.superiorschool" horiz-adv-x="371" /><glyph d="M157 661Q162 628 187.5 604.5Q213 581 250 581Q287 581 312.5 604.5Q338 628 343 661L392 644Q381 596 343 567.5Q305 539 250 539Q195 539 157 567.5Q119 596 108 644ZM39 -85Q39 -44 59 -15.5Q79 13 113 28Q89 39 74.5 57Q60 75 60 101Q60 132 78.5 152.5Q97 173 129 181Q103 198 83 229.5Q63 261 63 310Q63 351 78.5 383Q94 415 119.5 436.5Q145 458 178.5 469.5Q212 481 249 481Q313 481 363 448Q378 467 398 479Q418 491 448 491Q475 491 494 483L482 435Q468 446 444 446Q424 446 412 438Q400 430 394 422Q413 401 424 373.5Q435 346 435 312Q435 272 419.5 241Q404 210 378.5 189Q353 168 319.5 157Q286 146 249 146Q216 146 198.5 152Q181 158 170 158Q151 158 133.5 146Q116 134 116 115Q116 107 118 100.5Q120 94 126 88Q132 82 141 77.5Q150 73 166.5 69.5Q183 66 209 63Q235 60 276 57Q321 54 357.5 47.5Q394 41 419.5 28.5Q445 16 459 -5Q473 -26 473 -59Q473 -98 455.5 -126.5Q438 -155 407 -173.5Q376 -192 334 -201.5Q292 -211 244 -211Q200 -211 162.5 -204Q125 -197 97.5 -182Q70 -167 54.5 -143Q39 -119 39 -85ZM123 312Q123 283 133 260Q143 237 160 221.5Q177 206 200 197.5Q223 189 249 189Q275 189 298 197.5Q321 206 338 222Q355 238 365 260.5Q375 283 375 312Q375 342 365 365Q355 388 338 404.5Q321 421 298 429.5Q275 438 249 438Q223 438 200 429.5Q177 421 160 404.5Q143 388 133 365Q123 342 123 312ZM254 5Q227 7 204 8.5Q181 10 161 14Q135 3 116 -21Q97 -45 97 -77Q97 -101 108.5 -118Q120 -135 140 -146.5Q160 -158 187 -163Q214 -168 246 -168Q282 -168 313.5 -161Q345 -154 367.5 -141Q390 -128 403 -109Q416 -90 416 -66Q416 -48 408.5 -35.5Q401 -23 382.5 -15Q364 -7 332.5 -2.5Q301 2 254 5Z" glyph-name="gbreve" horiz-adv-x="506" unicode="&#287;" /><glyph d="M174 661Q179 628 204.5 604.5Q230 581 267 581Q304 581 329.5 604.5Q355 628 360 661L409 644Q398 596 360 567.5Q322 539 267 539Q212 539 174 567.5Q136 596 125 644ZM415 89Q394 56 354.5 32Q315 8 256 8Q211 8 173 25Q135 42 107.5 73Q80 104 64 147.5Q48 191 48 244Q48 298 64 341.5Q80 385 107.5 416Q135 447 173 464Q211 481 256 481Q289 481 314.5 473.5Q340 466 360 454Q380 442 394.5 426Q409 410 420 392V469H475V35Q475 -82 423.5 -146.5Q372 -211 260 -211Q182 -211 135.5 -181Q89 -151 63 -89L118 -67Q124 -85 135 -102Q146 -119 163 -132Q180 -145 204 -153Q228 -161 260 -161Q343 -161 379 -110Q415 -59 415 31ZM110 244Q110 205 120.5 171Q131 137 151 112Q171 87 199 72.5Q227 58 263 58Q287 58 313.5 67Q340 76 362.5 96Q385 116 400 146.5Q415 177 415 221V270Q415 313 400 343.5Q385 374 362.5 393.5Q340 413 313.5 422Q287 431 263 431Q227 431 199 416.5Q171 402 151 377Q131 352 120.5 318Q110 284 110 244Z" glyph-name="gbreve.school" horiz-adv-x="561" unicode="&#57702;" /><glyph d="M217 741Q222 708 247.5 684.5Q273 661 310 661Q347 661 372.5 684.5Q398 708 403 741L452 724Q441 676 403 647.5Q365 619 310 619Q255 619 217 647.5Q179 676 168 724ZM299 274H524V0H470V62Q462 50 448.5 37Q435 24 415 13Q395 2 368.5 -5Q342 -12 309 -12Q250 -12 204 10Q158 32 126.5 71Q95 110 78.5 164Q62 218 62 282Q62 346 79.5 400Q97 454 129.5 493Q162 532 209 553.5Q256 575 315 575Q395 575 447 535.5Q499 496 526 431L472 410Q451 462 412 494Q373 526 311 526Q223 526 173 460Q123 394 123 280Q123 168 172 102.5Q221 37 311 37Q379 37 422.5 73Q466 109 466 178V227H299Z" glyph-name="gbreve.smcp" horiz-adv-x="604" unicode="&#57934;" /><glyph d="M229 685H271L380 555L348 528L249 636L151 528L120 555ZM39 -85Q39 -44 59 -15.5Q79 13 113 28Q89 39 74.5 57Q60 75 60 101Q60 132 78.5 152.5Q97 173 129 181Q103 198 83 229.5Q63 261 63 310Q63 351 78.5 383Q94 415 119.5 436.5Q145 458 178.5 469.5Q212 481 249 481Q313 481 363 448Q378 467 398 479Q418 491 448 491Q475 491 494 483L482 435Q468 446 444 446Q424 446 412 438Q400 430 394 422Q413 401 424 373.5Q435 346 435 312Q435 272 419.5 241Q404 210 378.5 189Q353 168 319.5 157Q286 146 249 146Q216 146 198.5 152Q181 158 170 158Q151 158 133.5 146Q116 134 116 115Q116 107 118 100.5Q120 94 126 88Q132 82 141 77.5Q150 73 166.5 69.5Q183 66 209 63Q235 60 276 57Q321 54 357.5 47.5Q394 41 419.5 28.5Q445 16 459 -5Q473 -26 473 -59Q473 -98 455.5 -126.5Q438 -155 407 -173.5Q376 -192 334 -201.5Q292 -211 244 -211Q200 -211 162.5 -204Q125 -197 97.5 -182Q70 -167 54.5 -143Q39 -119 39 -85ZM123 312Q123 283 133 260Q143 237 160 221.5Q177 206 200 197.5Q223 189 249 189Q275 189 298 197.5Q321 206 338 222Q355 238 365 260.5Q375 283 375 312Q375 342 365 365Q355 388 338 404.5Q321 421 298 429.5Q275 438 249 438Q223 438 200 429.5Q177 421 160 404.5Q143 388 133 365Q123 342 123 312ZM254 5Q227 7 204 8.5Q181 10 161 14Q135 3 116 -21Q97 -45 97 -77Q97 -101 108.5 -118Q120 -135 140 -146.5Q160 -158 187 -163Q214 -168 246 -168Q282 -168 313.5 -161Q345 -154 367.5 -141Q390 -128 403 -109Q416 -90 416 -66Q416 -48 408.5 -35.5Q401 -23 382.5 -15Q364 -7 332.5 -2.5Q301 2 254 5Z" glyph-name="gcircumflex" horiz-adv-x="506" unicode="&#285;" /><glyph d="M247 685H289L398 555L366 528L267 636L169 528L138 555ZM415 89Q394 56 354.5 32Q315 8 256 8Q211 8 173 25Q135 42 107.5 73Q80 104 64 147.5Q48 191 48 244Q48 298 64 341.5Q80 385 107.5 416Q135 447 173 464Q211 481 256 481Q289 481 314.5 473.5Q340 466 360 454Q380 442 394.5 426Q409 410 420 392V469H475V35Q475 -82 423.5 -146.5Q372 -211 260 -211Q182 -211 135.5 -181Q89 -151 63 -89L118 -67Q124 -85 135 -102Q146 -119 163 -132Q180 -145 204 -153Q228 -161 260 -161Q343 -161 379 -110Q415 -59 415 31ZM110 244Q110 205 120.5 171Q131 137 151 112Q171 87 199 72.5Q227 58 263 58Q287 58 313.5 67Q340 76 362.5 96Q385 116 400 146.5Q415 177 415 221V270Q415 313 400 343.5Q385 374 362.5 393.5Q340 413 313.5 422Q287 431 263 431Q227 431 199 416.5Q171 402 151 377Q131 352 120.5 318Q110 284 110 244Z" glyph-name="gcircumflex.school" horiz-adv-x="561" unicode="&#57699;" /><glyph d="M290 765H332L441 635L409 608L310 716L212 608L181 635ZM299 274H524V0H470V62Q462 50 448.5 37Q435 24 415 13Q395 2 368.5 -5Q342 -12 309 -12Q250 -12 204 10Q158 32 126.5 71Q95 110 78.5 164Q62 218 62 282Q62 346 79.5 400Q97 454 129.5 493Q162 532 209 553.5Q256 575 315 575Q395 575 447 535.5Q499 496 526 431L472 410Q451 462 412 494Q373 526 311 526Q223 526 173 460Q123 394 123 280Q123 168 172 102.5Q221 37 311 37Q379 37 422.5 73Q466 109 466 178V227H299Z" glyph-name="gcircumflex.smcp" horiz-adv-x="604" unicode="&#57931;" /><glyph d="M212 596Q212 608 215 621.5Q218 635 225.5 647.5Q233 660 245 670Q257 680 276 684L287 657Q271 655 261 643.5Q251 632 251 618V614H253Q254 614 255.5 614.5Q257 615 259 615Q272 615 282.5 605Q293 595 293 577Q293 565 283.5 552.5Q274 540 255 540Q233 540 222.5 556.5Q212 573 212 596ZM39 -85Q39 -44 59 -15.5Q79 13 113 28Q89 39 74.5 57Q60 75 60 101Q60 132 78.5 152.5Q97 173 129 181Q103 198 83 229.5Q63 261 63 310Q63 351 78.5 383Q94 415 119.5 436.5Q145 458 178.5 469.5Q212 481 249 481Q313 481 363 448Q378 467 398 479Q418 491 448 491Q475 491 494 483L482 435Q468 446 444 446Q424 446 412 438Q400 430 394 422Q413 401 424 373.5Q435 346 435 312Q435 272 419.5 241Q404 210 378.5 189Q353 168 319.5 157Q286 146 249 146Q216 146 198.5 152Q181 158 170 158Q151 158 133.5 146Q116 134 116 115Q116 107 118 100.5Q120 94 126 88Q132 82 141 77.5Q150 73 166.5 69.5Q183 66 209 63Q235 60 276 57Q321 54 357.5 47.5Q394 41 419.5 28.5Q445 16 459 -5Q473 -26 473 -59Q473 -98 455.5 -126.5Q438 -155 407 -173.5Q376 -192 334 -201.5Q292 -211 244 -211Q200 -211 162.5 -204Q125 -197 97.5 -182Q70 -167 54.5 -143Q39 -119 39 -85ZM123 312Q123 283 133 260Q143 237 160 221.5Q177 206 200 197.5Q223 189 249 189Q275 189 298 197.5Q321 206 338 222Q355 238 365 260.5Q375 283 375 312Q375 342 365 365Q355 388 338 404.5Q321 421 298 429.5Q275 438 249 438Q223 438 200 429.5Q177 421 160 404.5Q143 388 133 365Q123 342 123 312ZM254 5Q227 7 204 8.5Q181 10 161 14Q135 3 116 -21Q97 -45 97 -77Q97 -101 108.5 -118Q120 -135 140 -146.5Q160 -158 187 -163Q214 -168 246 -168Q282 -168 313.5 -161Q345 -154 367.5 -141Q390 -128 403 -109Q416 -90 416 -66Q416 -48 408.5 -35.5Q401 -23 382.5 -15Q364 -7 332.5 -2.5Q301 2 254 5Z" glyph-name="gcommaaccent" horiz-adv-x="506" unicode="&#291;" /><glyph d="M227 596Q227 608 230 621.5Q233 635 240.5 647.5Q248 660 260 670Q272 680 291 684L302 657Q286 655 276 643.5Q266 632 266 618V614H268Q269 614 270.5 614.5Q272 615 274 615Q287 615 297.5 605Q308 595 308 577Q308 565 298.5 552.5Q289 540 270 540Q248 540 237.5 556.5Q227 573 227 596ZM415 89Q394 56 354.5 32Q315 8 256 8Q211 8 173 25Q135 42 107.5 73Q80 104 64 147.5Q48 191 48 244Q48 298 64 341.5Q80 385 107.5 416Q135 447 173 464Q211 481 256 481Q289 481 314.5 473.5Q340 466 360 454Q380 442 394.5 426Q409 410 420 392V469H475V35Q475 -82 423.5 -146.5Q372 -211 260 -211Q182 -211 135.5 -181Q89 -151 63 -89L118 -67Q124 -85 135 -102Q146 -119 163 -132Q180 -145 204 -153Q228 -161 260 -161Q343 -161 379 -110Q415 -59 415 31ZM110 244Q110 205 120.5 171Q131 137 151 112Q171 87 199 72.5Q227 58 263 58Q287 58 313.5 67Q340 76 362.5 96Q385 116 400 146.5Q415 177 415 221V270Q415 313 400 343.5Q385 374 362.5 393.5Q340 413 313.5 422Q287 431 263 431Q227 431 199 416.5Q171 402 151 377Q131 352 120.5 318Q110 284 110 244Z" glyph-name="gcommaaccent.school" horiz-adv-x="561" unicode="&#57704;" /><glyph d="M299 274H524V0H470V62Q462 50 448.5 37Q435 24 415 13Q395 2 368.5 -5Q342 -12 309 -12Q250 -12 204 10Q158 32 126.5 71Q95 110 78.5 164Q62 218 62 282Q62 346 79.5 400Q97 454 129.5 493Q162 532 209 553.5Q256 575 315 575Q395 575 447 535.5Q499 496 526 431L472 410Q451 462 412 494Q373 526 311 526Q223 526 173 460Q123 394 123 280Q123 168 172 102.5Q221 37 311 37Q379 37 422.5 73Q466 109 466 178V227H299ZM348 -109Q348 -121 345 -134.5Q342 -148 334.5 -160.5Q327 -173 315 -183Q303 -193 284 -197L273 -170Q289 -168 299 -156.5Q309 -145 309 -131V-127Q308 -128 307 -128H301Q288 -128 277.5 -118Q267 -108 267 -90Q267 -78 276.5 -65.5Q286 -53 305 -53Q327 -53 337.5 -69.5Q348 -86 348 -109Z" glyph-name="gcommaaccent.smcp" horiz-adv-x="604" unicode="&#57920;" /><glyph d="M209 596Q209 614 220.5 625.5Q232 637 250 637Q268 637 279.5 625.5Q291 614 291 596Q291 579 279.5 567.5Q268 556 250 556Q232 556 220.5 567.5Q209 579 209 596ZM39 -85Q39 -44 59 -15.5Q79 13 113 28Q89 39 74.5 57Q60 75 60 101Q60 132 78.5 152.5Q97 173 129 181Q103 198 83 229.5Q63 261 63 310Q63 351 78.5 383Q94 415 119.5 436.5Q145 458 178.5 469.5Q212 481 249 481Q313 481 363 448Q378 467 398 479Q418 491 448 491Q475 491 494 483L482 435Q468 446 444 446Q424 446 412 438Q400 430 394 422Q413 401 424 373.5Q435 346 435 312Q435 272 419.5 241Q404 210 378.5 189Q353 168 319.5 157Q286 146 249 146Q216 146 198.5 152Q181 158 170 158Q151 158 133.5 146Q116 134 116 115Q116 107 118 100.5Q120 94 126 88Q132 82 141 77.5Q150 73 166.5 69.5Q183 66 209 63Q235 60 276 57Q321 54 357.5 47.5Q394 41 419.5 28.5Q445 16 459 -5Q473 -26 473 -59Q473 -98 455.5 -126.5Q438 -155 407 -173.5Q376 -192 334 -201.5Q292 -211 244 -211Q200 -211 162.5 -204Q125 -197 97.5 -182Q70 -167 54.5 -143Q39 -119 39 -85ZM123 312Q123 283 133 260Q143 237 160 221.5Q177 206 200 197.5Q223 189 249 189Q275 189 298 197.5Q321 206 338 222Q355 238 365 260.5Q375 283 375 312Q375 342 365 365Q355 388 338 404.5Q321 421 298 429.5Q275 438 249 438Q223 438 200 429.5Q177 421 160 404.5Q143 388 133 365Q123 342 123 312ZM254 5Q227 7 204 8.5Q181 10 161 14Q135 3 116 -21Q97 -45 97 -77Q97 -101 108.5 -118Q120 -135 140 -146.5Q160 -158 187 -163Q214 -168 246 -168Q282 -168 313.5 -161Q345 -154 367.5 -141Q390 -128 403 -109Q416 -90 416 -66Q416 -48 408.5 -35.5Q401 -23 382.5 -15Q364 -7 332.5 -2.5Q301 2 254 5Z" glyph-name="gdotaccent" horiz-adv-x="506" unicode="&#289;" /><glyph d="M224 596Q224 614 235.5 625.5Q247 637 265 637Q283 637 294.5 625.5Q306 614 306 596Q306 579 294.5 567.5Q283 556 265 556Q247 556 235.5 567.5Q224 579 224 596ZM415 89Q394 56 354.5 32Q315 8 256 8Q211 8 173 25Q135 42 107.5 73Q80 104 64 147.5Q48 191 48 244Q48 298 64 341.5Q80 385 107.5 416Q135 447 173 464Q211 481 256 481Q289 481 314.5 473.5Q340 466 360 454Q380 442 394.5 426Q409 410 420 392V469H475V35Q475 -82 423.5 -146.5Q372 -211 260 -211Q182 -211 135.5 -181Q89 -151 63 -89L118 -67Q124 -85 135 -102Q146 -119 163 -132Q180 -145 204 -153Q228 -161 260 -161Q343 -161 379 -110Q415 -59 415 31ZM110 244Q110 205 120.5 171Q131 137 151 112Q171 87 199 72.5Q227 58 263 58Q287 58 313.5 67Q340 76 362.5 96Q385 116 400 146.5Q415 177 415 221V270Q415 313 400 343.5Q385 374 362.5 393.5Q340 413 313.5 422Q287 431 263 431Q227 431 199 416.5Q171 402 151 377Q131 352 120.5 318Q110 284 110 244Z" glyph-name="gdotaccent.school" horiz-adv-x="561" unicode="&#57703;" /><glyph d="M271 666Q271 684 282.5 695.5Q294 707 312 707Q330 707 341.5 695.5Q353 684 353 666Q353 649 341.5 637.5Q330 626 312 626Q294 626 282.5 637.5Q271 649 271 666ZM299 274H524V0H470V62Q462 50 448.5 37Q435 24 415 13Q395 2 368.5 -5Q342 -12 309 -12Q250 -12 204 10Q158 32 126.5 71Q95 110 78.5 164Q62 218 62 282Q62 346 79.5 400Q97 454 129.5 493Q162 532 209 553.5Q256 575 315 575Q395 575 447 535.5Q499 496 526 431L472 410Q451 462 412 494Q373 526 311 526Q223 526 173 460Q123 394 123 280Q123 168 172 102.5Q221 37 311 37Q379 37 422.5 73Q466 109 466 178V227H299Z" glyph-name="gdotaccent.smcp" horiz-adv-x="604" unicode="&#57935;" /><glyph d="M86 496Q86 536 96 575Q106 614 128.5 644.5Q151 675 187 693.5Q223 712 274 712Q318 712 352 697.5Q386 683 409.5 659Q433 635 445 602.5Q457 570 457 534Q457 477 429.5 436.5Q402 396 353 377Q384 370 409.5 353.5Q435 337 453 313.5Q471 290 481 261Q491 232 491 201Q491 156 478 117Q465 78 440.5 49.5Q416 21 379 4.5Q342 -12 294 -12Q266 -12 246 -7.5Q226 -3 208 3V54Q222 46 246 42Q270 38 293 38Q327 38 353 51Q379 64 395.5 85.5Q412 107 420.5 136Q429 165 429 198Q429 230 418 258Q407 286 386 306.5Q365 327 334 339Q303 351 262 351Q257 351 252.5 350.5Q248 350 244 350H235V398Q240 397 244 397H261Q328 397 362.5 436.5Q397 476 397 534Q397 598 362 630.5Q327 663 274 663Q239 663 215 650Q191 637 176 614Q161 591 154 560Q147 529 147 493V0H86Z" glyph-name="germandbls" horiz-adv-x="539" unicode="&#223;" /><glyph d="M245 684 392 564 369 532 211 637Z" glyph-name="grave" horiz-adv-x="600" unicode="`" /><glyph d="M245 900 392 780 369 748 211 853Z" glyph-name="grave.cap" horiz-adv-x="600" unicode="&#58401;" /><glyph d="M549 346V300L61 64V125L480 322L61 520V582Z" glyph-name="greater" horiz-adv-x="600" unicode="&gt;" /><glyph d="M549 369V323L61 87V148L480 345L61 543V605Z" glyph-name="greater.cap" horiz-adv-x="600" unicode="&#58775;" /><glyph d="M545 392V344L55 113V174L476 367L55 561V623ZM545 0H55V51H545Z" glyph-name="greaterequal" horiz-adv-x="600" unicode="&#8805;" /><glyph d="M219 256 380 459 417 430 289 256 417 83 380 55ZM39 256 200 459 237 430 109 256 237 83 200 55Z" glyph-name="guillemotleft" horiz-adv-x="462" unicode="&#171;" /><glyph d="M219 326 380 529 417 500 289 326 417 153 380 125ZM39 326 200 529 237 500 109 326 237 153 200 125Z" glyph-name="guillemotleft.cap" horiz-adv-x="462" unicode="&#58451;" /><glyph d="M262 55 225 83 353 256 225 430 262 459 423 256ZM82 55 45 83 173 256 45 430 82 459 243 256Z" glyph-name="guillemotright" horiz-adv-x="463" unicode="&#187;" /><glyph d="M262 125 225 153 353 326 225 500 262 529 423 326ZM82 125 45 153 173 326 45 500 82 529 243 326Z" glyph-name="guillemotright.cap" horiz-adv-x="463" unicode="&#58452;" /><glyph d="M39 256 200 459 237 430 109 256 237 83 200 55Z" glyph-name="guilsinglleft" horiz-adv-x="282" unicode="&#8249;" /><glyph d="M39 326 200 529 237 500 109 326 237 153 200 125Z" glyph-name="guilsinglleft.cap" horiz-adv-x="282" unicode="&#58449;" /><glyph d="M82 55 45 83 173 256 45 430 82 459 243 256Z" glyph-name="guilsinglright" horiz-adv-x="282" unicode="&#8250;" /><glyph d="M82 125 45 153 173 326 45 500 82 529 243 326Z" glyph-name="guilsinglright.cap" horiz-adv-x="282" unicode="&#58450;" /><glyph d="M86 700H146V400Q165 433 205.5 457Q246 481 303 481Q337 481 366 471Q395 461 416.5 441Q438 421 450 391Q462 361 462 321V0H402V309Q402 370 370.5 400Q339 430 291 430Q262 430 235.5 418.5Q209 407 189 387Q169 367 157.5 338.5Q146 310 146 276V0H86Z" glyph-name="h" horiz-adv-x="543" unicode="h" /><glyph d="M97 564H156V316H445V564H504V0H445V268H156V0H97Z" glyph-name="h.smcp" horiz-adv-x="601" unicode="&#57864;" /><glyph d="M55 733H104V545Q118 566 140.5 580.5Q163 595 198 595Q242 595 272.5 570Q303 545 303 495V288H254V486Q254 522 233.5 538Q213 554 187 554Q155 554 129.5 527.5Q104 501 104 452V288H55Z" glyph-name="h.superior" horiz-adv-x="355" unicode="&#58216;" /><glyph d="M146 558V400Q165 433 205.5 457Q246 481 303 481Q337 481 366 471Q395 461 416.5 441Q438 421 450 391Q462 361 462 321V0H402V309Q402 370 370.5 400Q339 430 291 430Q262 430 235.5 418.5Q209 407 189 387Q169 367 157.5 338.5Q146 310 146 276V0H86V558H26V607H86V700H146V607H310V558Z" glyph-name="hbar" horiz-adv-x="543" unicode="&#295;" /><glyph d="M97 453V564H156V453H445V564H504V453H571V405H504V0H445V268H156V0H97V405H30V453ZM445 316V405H156V316Z" glyph-name="hbar.smcp" horiz-adv-x="601" unicode="&#57943;" /><glyph d="M248 775 217 746 119 842 20 746 -12 775 99 891H137ZM86 700H146V400Q165 433 205.5 457Q246 481 303 481Q337 481 366 471Q395 461 416.5 441Q438 421 450 391Q462 361 462 321V0H402V309Q402 370 370.5 400Q339 430 291 430Q262 430 235.5 418.5Q209 407 189 387Q169 367 157.5 338.5Q146 310 146 276V0H86Z" glyph-name="hcircumflex" horiz-adv-x="543" unicode="&#293;" /><glyph d="M281 765H323L432 635L400 608L301 716L203 608L172 635ZM97 564H156V316H445V564H504V0H445V268H156V0H97Z" glyph-name="hcircumflex.smcp" horiz-adv-x="601" unicode="&#57939;" /><glyph d="M467 631 319 532 296 564 433 678ZM297 631 149 532 126 564 263 678Z" glyph-name="hungarumlaut" horiz-adv-x="600" unicode="&#733;" /><glyph d="M467 847 319 748 296 780 433 894ZM297 847 149 748 126 780 263 894Z" glyph-name="hungarumlaut.cap" horiz-adv-x="600" unicode="&#58411;" /><glyph d="M64 313H309V261H64Z" glyph-name="hyphen" horiz-adv-x="373" unicode="-" /><glyph d="M64 386H309V334H64Z" glyph-name="hyphen.cap" horiz-adv-x="373" unicode="&#58498;" /><glyph d="M75 669Q75 687 86.5 698.5Q98 710 116 710Q134 710 145.5 698.5Q157 687 157 669Q157 652 145.5 640.5Q134 629 116 629Q98 629 86.5 640.5Q75 652 75 669ZM86 469H146V0H86Z" glyph-name="i" horiz-adv-x="232" unicode="i" /><glyph d="M97 564H156V0H97Z" glyph-name="i.smcp" horiz-adv-x="253" unicode="&#57865;" /><glyph d="M48 707Q48 721 57 730Q66 739 80 739Q94 739 103.5 730Q113 721 113 707Q113 694 103.5 684.5Q94 675 80 675Q66 675 57 684.5Q48 694 48 707ZM56 587H105V288H56Z" glyph-name="i.superior" horiz-adv-x="160" unicode="&#58217;" /><glyph d="M206 637 48 532 25 564 172 684ZM86 469H146V0H86Z" glyph-name="iacute" horiz-adv-x="232" unicode="&#237;" /><glyph d="M214 715 56 610 33 642 180 762ZM97 564H156V0H97Z" glyph-name="iacute.smcp" horiz-adv-x="253" unicode="&#57944;" /><glyph d="M23 661Q28 628 53.5 604.5Q79 581 116 581Q153 581 178.5 604.5Q204 628 209 661L258 644Q247 596 209 567.5Q171 539 116 539Q61 539 23 567.5Q-15 596 -26 644ZM86 469H146V0H86Z" glyph-name="ibreve" horiz-adv-x="232" unicode="&#301;" /><glyph d="M32 741Q37 708 62.5 684.5Q88 661 125 661Q162 661 187.5 684.5Q213 708 218 741L267 724Q256 676 218 647.5Q180 619 125 619Q70 619 32 647.5Q-6 676 -17 724ZM97 564H156V0H97Z" glyph-name="ibreve.smcp" horiz-adv-x="253" unicode="&#57951;" /><glyph d="M95 685H137L246 555L214 528L115 636L17 528L-14 555ZM86 469H146V0H86Z" glyph-name="icircumflex" horiz-adv-x="232" unicode="&#238;" /><glyph d="M105 765H147L256 635L224 608L125 716L27 608L-4 635ZM97 564H156V0H97Z" glyph-name="icircumflex.smcp" horiz-adv-x="253" unicode="&#57946;" /><glyph d="M164 597Q164 616 176.5 628.5Q189 641 208 641Q227 641 239.5 628.5Q252 616 252 597Q252 579 239.5 566.5Q227 554 208 554Q189 554 176.5 566.5Q164 579 164 597ZM-20 597Q-20 616 -7.5 628.5Q5 641 24 641Q43 641 55.5 628.5Q68 616 68 597Q68 579 55.5 566.5Q43 554 24 554Q5 554 -7.5 566.5Q-20 579 -20 597ZM86 469H146V0H86Z" glyph-name="idieresis" horiz-adv-x="232" unicode="&#239;" /><glyph d="M173 669Q173 688 185.5 700.5Q198 713 217 713Q236 713 248.5 700.5Q261 688 261 669Q261 651 248.5 638.5Q236 626 217 626Q198 626 185.5 638.5Q173 651 173 669ZM-11 669Q-11 688 1.5 700.5Q14 713 33 713Q52 713 64.5 700.5Q77 688 77 669Q77 651 64.5 638.5Q52 626 33 626Q14 626 1.5 638.5Q-11 651 -11 669ZM97 564H156V0H97Z" glyph-name="idieresis.smcp" horiz-adv-x="253" unicode="&#57947;" /><glyph d="M75 670Q75 688 86.5 699.5Q98 711 116 711Q134 711 145.5 699.5Q157 688 157 670Q157 653 145.5 641.5Q134 630 116 630Q98 630 86.5 641.5Q75 653 75 670ZM86 469H146V0H86Z" glyph-name="idotaccent" horiz-adv-x="232" unicode="&#59269;" /><glyph d="M84 666Q84 684 95.5 695.5Q107 707 125 707Q143 707 154.5 695.5Q166 684 166 666Q166 649 154.5 637.5Q143 626 125 626Q107 626 95.5 637.5Q84 649 84 666ZM97 564H156V0H97Z" glyph-name="idotaccent.smcp" horiz-adv-x="253" unicode="&#57954;" /><glyph d="M59 684 206 564 183 532 25 637ZM86 469H146V0H86Z" glyph-name="igrave" horiz-adv-x="232" unicode="&#236;" /><glyph d="M71 762 218 642 195 610 37 715ZM97 564H156V0H97Z" glyph-name="igrave.smcp" horiz-adv-x="253" unicode="&#57945;" /><glyph d="M309 669Q309 687 320.5 698.5Q332 710 350 710Q368 710 379.5 698.5Q391 687 391 669Q391 652 379.5 640.5Q368 629 350 629Q332 629 320.5 640.5Q309 652 309 669ZM75 669Q75 687 86.5 698.5Q98 710 116 710Q134 710 145.5 698.5Q157 687 157 669Q157 652 145.5 640.5Q134 629 116 629Q98 629 86.5 640.5Q75 652 75 669ZM320 469H380V-69Q380 -135 347 -173Q314 -211 249 -211Q222 -211 195.5 -203.5Q169 -196 150 -184L178 -134Q188 -142 205 -150.5Q222 -159 248 -159Q282 -159 301 -135.5Q320 -112 320 -69ZM86 469H146V0H86Z" glyph-name="ij" horiz-adv-x="466" unicode="&#307;" /><glyph d="M364 36Q411 36 430 71.5Q449 107 449 182V564H508V183Q508 143 502.5 107.5Q497 72 482 45.5Q467 19 439 3.5Q411 -12 366 -12Q321 -12 292 5Q263 22 241 50L279 88Q299 64 318 50Q337 36 364 36ZM97 564H156V0H97Z" glyph-name="ij.smcp" horiz-adv-x="596" unicode="&#58151;" /><glyph d="M-7 610H240V565H-7ZM86 469H146V0H86Z" glyph-name="imacron" horiz-adv-x="232" unicode="&#299;" /><glyph d="M2 679H249V634H2ZM97 564H156V0H97Z" glyph-name="imacron.smcp" horiz-adv-x="253" unicode="&#57950;" /><glyph d="M710 324Q710 283 697.5 252Q685 221 664 199.5Q643 178 614 167Q585 156 552 156Q502 156 464 184Q426 212 384 272Q342 212 304 184Q266 156 216 156Q183 156 154 167Q125 178 104 199.5Q83 221 70.5 252Q58 283 58 324Q58 365 70.5 396.5Q83 428 104 449.5Q125 471 154 482Q183 493 216 493Q266 493 304 465Q342 437 384 377Q426 437 464 465Q502 493 552 493Q585 493 614 482Q643 471 664 449.5Q685 428 697.5 396.5Q710 365 710 324ZM413 324Q426 301 441 280Q456 259 473.5 243Q491 227 511 217Q531 207 555 207Q599 207 626 237.5Q653 268 653 324Q653 381 626 411.5Q599 442 555 442Q531 442 511 432Q491 422 473.5 405.5Q456 389 441 368Q426 347 413 324ZM115 324Q115 268 142 237.5Q169 207 213 207Q237 207 257 217Q277 227 294.5 243Q312 259 327 280Q342 301 355 324Q342 347 327 368Q312 389 294.5 405.5Q277 422 257 432Q237 442 213 442Q169 442 142 411.5Q115 381 115 324Z" glyph-name="infinity" horiz-adv-x="768" unicode="&#8734;" /><glyph d="M119 573Q119 612 129 638.5Q139 665 155 681.5Q171 698 192 705Q213 712 235 712Q260 712 285.5 704.5Q311 697 325 685L295 636Q285 645 271 652Q257 659 239 659Q209 659 193.5 636.5Q178 614 178 572V-11Q178 -50 168 -76.5Q158 -103 142 -119.5Q126 -136 105 -143Q84 -150 62 -150Q37 -150 11.5 -142Q-14 -134 -28 -123L2 -74Q12 -83 26 -90Q40 -97 58 -97Q89 -97 104 -74.5Q119 -52 119 -10Z" glyph-name="integral" horiz-adv-x="297" unicode="&#8747;" /><glyph d="M226 168 217 657Q187 650 164.5 633.5Q142 617 127 594.5Q112 572 103 545Q94 518 91 490L32 501Q39 546 56 584Q73 622 100.5 650.5Q128 679 166 695Q204 711 255 711Q308 711 346.5 694Q385 677 410 650Q435 623 447 588.5Q459 554 459 520Q459 490 450.5 465Q442 440 428 419Q414 398 396.5 380.5Q379 363 360 347Q322 315 298 279.5Q274 244 274 196V168ZM398 522Q398 576 367.5 613Q337 650 283 659L276 338Q286 350 296.5 362Q307 374 320 386Q356 420 377 449Q398 478 398 522ZM207 38Q207 57 219 69Q231 81 251 81Q271 81 283 69Q295 57 295 38Q295 20 283 7Q271 -6 251 -6Q231 -6 219 7Q207 20 207 38Z" glyph-name="interrobang" horiz-adv-x="505" unicode="&#8253;" /><glyph d="M298 462Q298 443 286 431Q274 419 254 419Q234 419 222 431Q210 443 210 462Q210 480 222 493Q234 506 254 506Q274 506 286 493Q298 480 298 462ZM279 332 288 -157Q318 -150 340.5 -133.5Q363 -117 378 -94.5Q393 -72 402 -45Q411 -18 414 10L473 -1Q465 -46 448.5 -84Q432 -122 404.5 -150.5Q377 -179 339 -195Q301 -211 250 -211Q197 -211 158.5 -194Q120 -177 95 -150Q70 -123 58 -89Q46 -55 46 -20Q46 10 54.5 35Q63 60 77 81Q91 102 108.5 119.5Q126 137 145 153Q183 185 207 220.5Q231 256 231 304V332ZM107 -22Q107 -76 137.5 -113Q168 -150 222 -159L229 162Q219 150 208.5 138Q198 126 185 114Q167 97 152.5 82Q138 67 128 51Q118 35 112.5 17.5Q107 0 107 -22Z" glyph-name="interrobangdown" horiz-adv-x="484" unicode="&#59701;" /><glyph d="M298 662Q298 643 286 631Q274 619 254 619Q234 619 222 631Q210 643 210 662Q210 680 222 693Q234 706 254 706Q274 706 286 693Q298 680 298 662ZM279 532 288 43Q318 50 340.5 66.5Q363 83 378 105.5Q393 128 402 155Q411 182 414 210L473 199Q465 154 448.5 116Q432 78 404.5 49.5Q377 21 339 5Q301 -11 250 -11Q197 -11 158.5 6Q120 23 95 50Q70 77 58 111Q46 145 46 180Q46 210 54.5 235Q63 260 77 281Q91 302 108.5 319.5Q126 337 145 353Q183 385 207 420.5Q231 456 231 504V532ZM107 178Q107 124 137.5 87Q168 50 222 41L229 362Q219 350 208.5 338Q198 326 185 314Q167 297 152.5 282Q138 267 128 251Q118 235 112.5 217.5Q107 200 107 178Z" glyph-name="interrobangdown.cap" horiz-adv-x="505" unicode="&#59803;" /><glyph d="M75 669Q75 687 86.5 698.5Q98 710 116 710Q134 710 145.5 698.5Q157 687 157 669Q157 652 145.5 640.5Q134 629 116 629Q98 629 86.5 640.5Q75 652 75 669ZM53 -108Q53 -125 63.5 -137Q74 -149 95 -149Q112 -149 124.5 -140.5Q137 -132 149 -115L171 -138Q137 -190 81 -190Q70 -190 56.5 -187Q43 -184 31 -175.5Q19 -167 10.5 -152.5Q2 -138 2 -115Q2 -94 9.5 -76.5Q17 -59 29 -45Q41 -31 56 -20Q71 -9 86 0V469H146V0Q91 -33 72 -59Q53 -85 53 -108Z" glyph-name="iogonek" horiz-adv-x="232" unicode="&#303;" /><glyph d="M63 -108Q63 -125 73.5 -137Q84 -149 105 -149Q122 -149 134.5 -140.5Q147 -132 159 -115L181 -138Q147 -190 91 -190Q80 -190 66.5 -187Q53 -184 41 -175.5Q29 -167 20.5 -152.5Q12 -138 12 -115Q12 -94 19.5 -76.5Q27 -59 39 -45Q51 -31 66.5 -19.5Q82 -8 97 0V564H156V0Q100 -33 81.5 -59.5Q63 -86 63 -108Z" glyph-name="iogonek.smcp" horiz-adv-x="253" unicode="&#63054;" /><glyph d="M50 649Q74 649 92 641.5Q110 634 125 624.5Q140 615 154.5 607.5Q169 600 186 600Q202 600 213 607Q224 614 232 622Q241 632 247 644L280 614Q271 598 257 586Q245 575 226.5 566.5Q208 558 182 558Q157 558 139 565.5Q121 573 106 582Q91 591 77 598.5Q63 606 47 606Q30 606 19 599Q8 592 0 584Q-9 574 -14 563L-46 592Q-37 608 -24 620Q-13 631 5.5 640Q24 649 50 649ZM86 469H146V0H86Z" glyph-name="itilde" horiz-adv-x="232" unicode="&#297;" /><glyph d="M57 716Q81 716 99 708.5Q117 701 132 691.5Q147 682 161.5 674.5Q176 667 193 667Q209 667 220 674Q231 681 239 689Q248 699 254 711L287 681Q278 665 264 653Q252 642 233.5 633.5Q215 625 189 625Q164 625 146 632.5Q128 640 113 649Q98 658 84 665.5Q70 673 54 673Q37 673 26 666Q15 659 7 651Q-2 641 -7 630L-39 659Q-30 675 -17 687Q-6 698 12.5 707Q31 716 57 716ZM97 564H156V0H97Z" glyph-name="itilde.smcp" horiz-adv-x="253" unicode="&#57948;" /><glyph d="M75 669Q75 687 86.5 698.5Q98 710 116 710Q134 710 145.5 698.5Q157 687 157 669Q157 652 145.5 640.5Q134 629 116 629Q98 629 86.5 640.5Q75 652 75 669ZM86 469H146V-69Q146 -135 113 -173Q80 -211 15 -211Q-12 -211 -38.5 -203.5Q-65 -196 -84 -184L-56 -134Q-46 -142 -29 -150.5Q-12 -159 14 -159Q48 -159 67 -135.5Q86 -112 86 -69Z" glyph-name="j" horiz-adv-x="232" unicode="j" /><glyph d="M127 36Q174 36 193 71.5Q212 107 212 182V564H271V183Q271 143 265.5 107.5Q260 72 245 45.5Q230 19 202 3.5Q174 -12 129 -12Q84 -12 55 5Q26 22 4 50L42 88Q62 64 81 50Q100 36 127 36Z" glyph-name="j.smcp" horiz-adv-x="359" unicode="&#57866;" /><glyph d="M60 707Q60 721 69 730Q78 739 92 739Q107 739 116.5 730Q126 721 126 707Q126 693 117 684Q108 675 92 675Q78 675 69 684Q60 693 60 707ZM117 248Q117 198 90 176Q63 154 26 154Q-10 154 -40 172L-18 210Q-10 205 0 200Q10 195 25 195Q47 195 57.5 210Q68 225 68 250V587H117Z" glyph-name="j.superior" horiz-adv-x="173" unicode="&#58218;" /><glyph d="M95 685H137L246 555L214 528L115 636L17 528L-14 555ZM86 469H146V-69Q146 -135 113 -173Q80 -211 15 -211Q-12 -211 -38.5 -203.5Q-65 -196 -84 -184L-56 -134Q-46 -142 -29 -150.5Q-12 -159 14 -159Q48 -159 67 -135.5Q86 -112 86 -69Z" glyph-name="jcircumflex" horiz-adv-x="232" unicode="&#309;" /><glyph d="M220 765H262L371 635L339 608L240 716L142 608L111 635ZM127 36Q174 36 193 71.5Q212 107 212 182V564H271V183Q271 143 265.5 107.5Q260 72 245 45.5Q230 19 202 3.5Q174 -12 129 -12Q84 -12 55 5Q26 22 4 50L42 88Q62 64 81 50Q100 36 127 36Z" glyph-name="jcircumflex.smcp" horiz-adv-x="359" unicode="&#63027;" /><glyph d="M209 262 146 203V0H86V700H146V273L359 469H434L253 299L468 0H396Z" glyph-name="k" horiz-adv-x="473" unicode="k" /><glyph d="M224 295 156 226V0H97V564H156V298L415 564H487L265 335L504 0H433Z" glyph-name="k.smcp" horiz-adv-x="518" unicode="&#57867;" /><glyph d="M141 448 104 414V288H55V733H104V466L235 587H294L177 478L315 288H255Z" glyph-name="k.superior" horiz-adv-x="325" unicode="&#58219;" /><glyph d="M209 262 146 203V0H86V700H146V273L359 469H434L253 299L468 0H396ZM311 -109Q311 -121 308 -134.5Q305 -148 297.5 -160.5Q290 -173 278 -183Q266 -193 247 -197L236 -170Q252 -168 262 -156.5Q272 -145 272 -131V-127Q271 -128 270 -128H264Q251 -128 240.5 -118Q230 -108 230 -90Q230 -78 239.5 -65.5Q249 -53 268 -53Q290 -53 300.5 -69.5Q311 -86 311 -109Z" glyph-name="kcommaaccent" horiz-adv-x="473" unicode="&#311;" /><glyph d="M224 295 156 226V0H97V564H156V298L415 564H487L265 335L504 0H433ZM317 -109Q317 -121 314 -134.5Q311 -148 303.5 -160.5Q296 -173 284 -183Q272 -193 253 -197L242 -170Q258 -168 268 -156.5Q278 -145 278 -131V-127Q277 -128 276 -128H270Q257 -128 246.5 -118Q236 -108 236 -90Q236 -78 245.5 -65.5Q255 -53 274 -53Q296 -53 306.5 -69.5Q317 -86 317 -109Z" glyph-name="kcommaaccent.smcp" horiz-adv-x="518" unicode="&#57960;" /><glyph d="M209 262 146 203V0H86V469H146V273L359 469H434L253 299L468 0H396Z" glyph-name="kgreenlandic" horiz-adv-x="473" unicode="&#312;" /><glyph d="M86 700H146V0H86Z" glyph-name="l" horiz-adv-x="232" unicode="l" /><glyph d="M97 564H156V48H409V0H97Z" glyph-name="l.smcp" horiz-adv-x="432" unicode="&#57868;" /><glyph d="M55 733H104V288H55Z" glyph-name="l.superior" horiz-adv-x="159" unicode="&#58220;" /><glyph d="M206 853 48 748 25 780 172 900ZM86 700H146V0H86Z" glyph-name="lacute" horiz-adv-x="232" unicode="&#314;" /><glyph d="M262 715 104 610 81 642 228 762ZM97 564H156V48H409V0H97Z" glyph-name="lacute.smcp" horiz-adv-x="432" unicode="&#57963;" /><glyph d="M284 691 224 533 186 543 227 706ZM86 700H146V0H86Z" glyph-name="lcaron" horiz-adv-x="232" unicode="&#318;" /><glyph d="M321 554 261 396 223 406 264 569ZM97 564H156V48H409V0H97Z" glyph-name="lcaron.smcp" horiz-adv-x="432" unicode="&#57964;" /><glyph d="M86 700H146V0H86ZM160 -109Q160 -121 157 -134.5Q154 -148 146.5 -160.5Q139 -173 127 -183Q115 -193 96 -197L85 -170Q101 -168 111 -156.5Q121 -145 121 -131V-127Q120 -128 119 -128H113Q100 -128 89.5 -118Q79 -108 79 -90Q79 -78 88.5 -65.5Q98 -53 117 -53Q139 -53 149.5 -69.5Q160 -86 160 -109Z" glyph-name="lcommaaccent" horiz-adv-x="232" unicode="&#316;" /><glyph d="M97 564H156V48H409V0H97ZM290 -109Q290 -121 287 -134.5Q284 -148 276.5 -160.5Q269 -173 257 -183Q245 -193 226 -197L215 -170Q231 -168 241 -156.5Q251 -145 251 -131V-127Q250 -128 249 -128H243Q230 -128 219.5 -118Q209 -108 209 -90Q209 -78 218.5 -65.5Q228 -53 247 -53Q269 -53 279.5 -69.5Q290 -86 290 -109Z" glyph-name="lcommaaccent.smcp" horiz-adv-x="432" unicode="&#57965;" /><glyph d="M86 700H146V0H86ZM212 351Q212 369 223.5 380.5Q235 392 253 392Q271 392 282.5 380.5Q294 369 294 351Q294 334 282.5 322.5Q271 311 253 311Q235 311 223.5 322.5Q212 334 212 351Z" glyph-name="ldot" horiz-adv-x="306" unicode="&#320;" /><glyph d="M97 564H156V48H409V0H97ZM269 281Q269 299 280.5 310.5Q292 322 310 322Q328 322 339.5 310.5Q351 299 351 281Q351 264 339.5 252.5Q328 241 310 241Q292 241 280.5 252.5Q269 264 269 281Z" glyph-name="ldot.smcp" horiz-adv-x="432" unicode="&#57969;" /><glyph d="M51 300V346L539 582V521L120 324L539 126V64Z" glyph-name="less" horiz-adv-x="600" unicode="&lt;" /><glyph d="M51 323V369L539 605V544L120 347L539 149V87Z" glyph-name="less.cap" horiz-adv-x="600" unicode="&#58774;" /><glyph d="M55 344V392L545 623V562L124 369L545 175V113ZM55 51H545V0H55Z" glyph-name="lessequal" horiz-adv-x="600" unicode="&#8804;" /><glyph d="M56 357H544V113H494V307H56Z" glyph-name="logicalnot" horiz-adv-x="600" unicode="&#172;" /><glyph d="M436 350 265 0H212L40 350L212 700H265ZM105 350 238 78 371 350 238 622Z" glyph-name="lozenge" horiz-adv-x="476" unicode="&#9674;" /><glyph d="M156 356V0H96V316L27 270L-1 312L96 376V700H156V416L233 468L261 426Z" glyph-name="lslash" horiz-adv-x="252" unicode="&#322;" /><glyph d="M107 267V564H166V304L286 381L311 343L166 250V48H419V0H107V213L58 182L33 220Z" glyph-name="lslash.smcp" horiz-adv-x="442" unicode="&#57970;" /><glyph d="M382 309Q382 370 352.5 400Q323 430 279 430Q252 430 228 418Q204 406 185.5 385Q167 364 156.5 334.5Q146 305 146 270V0H86V469H141V391Q157 427 196 454Q235 481 291 481Q339 481 376 459Q413 437 430 392Q453 430 490.5 455.5Q528 481 587 481Q619 481 646.5 471Q674 461 694.5 441Q715 421 726.5 391Q738 361 738 321V0H678V309Q678 370 648.5 400Q619 430 575 430Q549 430 525 418.5Q501 407 482.5 386Q464 365 453 336.5Q442 308 442 275V0H382Z" glyph-name="m" horiz-adv-x="819" unicode="m" /><glyph d="M339 0Q329 24 314 61.5Q299 99 281.5 143Q264 187 245.5 235Q227 283 209.5 328.5Q192 374 177.5 414.5Q163 455 153 484H151V0H97V564H176Q223 443 262 342Q278 299 294.5 255.5Q311 212 325.5 175Q340 138 350.5 110Q361 82 366 70Q370 82 380.5 110Q391 138 405 175Q419 212 435 255.5Q451 299 467 342Q505 443 551 564H629V0H575V484H573Q563 454 548 412.5Q533 371 515.5 325Q498 279 479 230.5Q460 182 443 138.5Q426 95 411.5 58.5Q397 22 388 0Z" glyph-name="m.smcp" horiz-adv-x="726" unicode="&#57869;" /><glyph d="M55 587H101V541Q115 564 137 579.5Q159 595 193 595Q225 595 248.5 580.5Q272 566 283 540Q295 560 320.5 577.5Q346 595 381 595Q423 595 451 570Q479 545 479 495V288H430V486Q430 522 412 538Q394 554 370 554Q340 554 316 527.5Q292 501 292 452V288H243V486Q243 522 224.5 538Q206 554 181 554Q152 554 128 527.5Q104 501 104 452V288H55Z" glyph-name="m.superior" horiz-adv-x="531" unicode="&#58221;" /><glyph d="M176 610H423V565H176Z" glyph-name="macron" horiz-adv-x="600" unicode="&#175;" /><glyph d="M176 823H423V778H176Z" glyph-name="macron.cap" horiz-adv-x="600" unicode="&#58405;" /><glyph d="M545 235Q545 184 525.5 139Q506 94 472.5 60.5Q439 27 394 7.5Q349 -12 299 -12Q249 -12 204 7.5Q159 27 125.5 60.5Q92 94 72.5 139Q53 184 53 235Q53 286 72.5 330.5Q92 375 125.5 408.5Q159 442 204 461.5Q249 481 299 481Q349 481 394 461.5Q439 442 472.5 408.5Q506 375 525.5 330.5Q545 286 545 235Z" glyph-name="mediumblackcircle" horiz-adv-x="600" unicode="&#9899;" /><glyph d="M53 235Q53 286 72.5 331Q92 376 125.5 409Q159 442 204 461.5Q249 481 300 481Q351 481 396 461.5Q441 442 474 409Q507 376 526.5 331Q546 286 546 235Q546 184 526.5 139Q507 94 474 60.5Q441 27 396 7.5Q351 -12 300 -12Q249 -12 204 7.5Q159 27 125.5 60.5Q92 94 72.5 139Q53 184 53 235ZM505 235Q505 278 489 315.5Q473 353 445 381.5Q417 410 379.5 426.5Q342 443 300 443Q257 443 219.5 426.5Q182 410 154 381.5Q126 353 110 315.5Q94 278 94 235Q94 192 110 154Q126 116 154 88Q182 60 219.5 43.5Q257 27 300 27Q342 27 379.5 43.5Q417 60 445 88Q473 116 489 154Q505 192 505 235Z" glyph-name="mediumwhitecircle" horiz-adv-x="599" unicode="&#9898;" /><glyph d="M56 348H544V297H56Z" glyph-name="minus" horiz-adv-x="600" unicode="&#8722;" /><glyph d="M56 388H594V337H56Z" glyph-name="minus.cap" horiz-adv-x="650" unicode="&#58770;" /><glyph d="M54 23H330V-27H54Z" glyph-name="minus.inf" horiz-adv-x="384" unicode="&#58748;" /><glyph d="M86 -200V469H146V160Q146 99 177 69Q208 39 260 39Q285 39 310 50Q335 61 354.5 82.5Q374 104 386 135.5Q398 167 398 209V469H458V0H403V77Q394 60 379.5 44.5Q365 29 345.5 16Q326 3 301 -4.5Q276 -12 245 -12Q216 -12 191 -5Q166 2 146 19V-200Z" glyph-name="mu" horiz-adv-x="544" unicode="&#181;" /><glyph d="M507 153 471 117 299 289 127 117 91 153 263 325 91 497 127 533 299 361 471 533 507 497 335 325Z" glyph-name="multiply" horiz-adv-x="600" unicode="&#215;" /><glyph d="M517 590 553 554 361 362 553 170 517 134 325 326 133 134 97 170 289 362 97 554 133 590 325 398Z" glyph-name="multiply.cap" horiz-adv-x="650" unicode="&#58771;" /><glyph d="M86 469H141V391Q150 409 165 425Q180 441 200.5 453.5Q221 466 247 473.5Q273 481 303 481Q337 481 366 471Q395 461 416.5 441Q438 421 450 391Q462 361 462 321V0H402V309Q402 370 370.5 400Q339 430 291 430Q262 430 235.5 418.5Q209 407 189 387Q169 367 157.5 338.5Q146 310 146 276V0H86Z" glyph-name="n" horiz-adv-x="543" unicode="n" /><glyph d="M97 564H161Q231 456 293 362Q319 322 346 281Q373 240 397 203Q421 166 440 136Q459 106 471 88H473V564H528V0H464Q396 105 335 198Q309 238 282.5 278.5Q256 319 231.5 356.5Q207 394 187 425Q167 456 154 476H153V0H97Z" glyph-name="n.smcp" horiz-adv-x="625" unicode="&#57870;" /><glyph d="M55 587H101V541Q115 564 139 579.5Q163 595 198 595Q243 595 273 570Q303 545 303 495V288H254V486Q254 522 233.5 538Q213 554 187 554Q155 554 129.5 527.5Q104 501 104 452V288H55Z" glyph-name="n.superior" horiz-adv-x="355" unicode="&#8319;" /><glyph d="M387 637 229 532 206 564 353 684ZM86 469H141V391Q150 409 165 425Q180 441 200.5 453.5Q221 466 247 473.5Q273 481 303 481Q337 481 366 471Q395 461 416.5 441Q438 421 450 391Q462 361 462 321V0H402V309Q402 370 370.5 400Q339 430 291 430Q262 430 235.5 418.5Q209 407 189 387Q169 367 157.5 338.5Q146 310 146 276V0H86Z" glyph-name="nacute" horiz-adv-x="543" unicode="&#324;" /><glyph d="M421 715 263 610 240 642 387 762ZM97 564H161Q231 456 293 362Q319 322 346 281Q373 240 397 203Q421 166 440 136Q459 106 471 88H473V564H528V0H464Q396 105 335 198Q309 238 282.5 278.5Q256 319 231.5 356.5Q207 394 187 425Q167 456 154 476H153V0H97Z" glyph-name="nacute.smcp" horiz-adv-x="625" unicode="&#57974;" /><glyph d="M308 534H266L157 664L189 691L288 583L386 691L417 664ZM86 469H141V391Q150 409 165 425Q180 441 200.5 453.5Q221 466 247 473.5Q273 481 303 481Q337 481 366 471Q395 461 416.5 441Q438 421 450 391Q462 361 462 321V0H402V309Q402 370 370.5 400Q339 430 291 430Q262 430 235.5 418.5Q209 407 189 387Q169 367 157.5 338.5Q146 310 146 276V0H86Z" glyph-name="ncaron" horiz-adv-x="543" unicode="&#328;" /><glyph d="M330 612H288L179 742L211 769L310 661L408 769L439 742ZM97 564H161Q231 456 293 362Q319 322 346 281Q373 240 397 203Q421 166 440 136Q459 106 471 88H473V564H528V0H464Q396 105 335 198Q309 238 282.5 278.5Q256 319 231.5 356.5Q207 394 187 425Q167 456 154 476H153V0H97Z" glyph-name="ncaron.smcp" horiz-adv-x="625" unicode="&#57978;" /><glyph d="M86 469H141V391Q150 409 165 425Q180 441 200.5 453.5Q221 466 247 473.5Q273 481 303 481Q337 481 366 471Q395 461 416.5 441Q438 421 450 391Q462 361 462 321V0H402V309Q402 370 370.5 400Q339 430 291 430Q262 430 235.5 418.5Q209 407 189 387Q169 367 157.5 338.5Q146 310 146 276V0H86ZM321 -109Q321 -121 318 -134.5Q315 -148 307.5 -160.5Q300 -173 288 -183Q276 -193 257 -197L246 -170Q262 -168 272 -156.5Q282 -145 282 -131V-127Q281 -128 280 -128H274Q261 -128 250.5 -118Q240 -108 240 -90Q240 -78 249.5 -65.5Q259 -53 278 -53Q300 -53 310.5 -69.5Q321 -86 321 -109Z" glyph-name="ncommaaccent" horiz-adv-x="543" unicode="&#326;" /><glyph d="M97 564H161Q231 456 293 362Q319 322 346 281Q373 240 397 203Q421 166 440 136Q459 106 471 88H473V564H528V0H464Q396 105 335 198Q309 238 282.5 278.5Q256 319 231.5 356.5Q207 394 187 425Q167 456 154 476H153V0H97ZM359 -109Q359 -121 356 -134.5Q353 -148 345.5 -160.5Q338 -173 326 -183Q314 -193 295 -197L284 -170Q300 -168 310 -156.5Q320 -145 320 -131V-127Q319 -128 318 -128H312Q299 -128 288.5 -118Q278 -108 278 -90Q278 -78 287.5 -65.5Q297 -53 316 -53Q338 -53 348.5 -69.5Q359 -86 359 -109Z" glyph-name="ncommaaccent.smcp" horiz-adv-x="625" unicode="&#57981;" /><glyph d="M279 39Q325 39 358 62Q391 85 413 127Q435 169 446 227.5Q457 286 458 356Q451 338 435.5 319.5Q420 301 397.5 285Q375 269 345.5 259Q316 249 280 249Q227 249 187.5 268Q148 287 121 317.5Q94 348 80.5 388Q67 428 67 470Q67 516 81.5 557.5Q96 599 123.5 630.5Q151 662 191.5 680Q232 698 284 698Q405 698 460.5 610.5Q516 523 516 356Q516 176 453.5 82Q391 -12 278 -12Q230 -12 197 1.5Q164 15 141.5 36.5Q119 58 106 84Q93 110 86 136L148 145Q153 128 161 109.5Q169 91 183.5 75Q198 59 221 49Q244 39 279 39ZM286 299Q321 299 350 312Q379 325 400 347.5Q421 370 432.5 400.5Q444 431 444 467Q444 504 433 537Q422 570 401 595Q380 620 350.5 634.5Q321 649 285 649Q252 649 223.5 637Q195 625 174 602.5Q153 580 140.5 547.5Q128 515 128 474Q128 433 140 400.5Q152 368 173 345.5Q194 323 223 311Q252 299 286 299Z" glyph-name="nine" horiz-adv-x="600" unicode="9" /><glyph d="M260 39Q306 39 339 62Q372 85 394 127Q416 169 427 227.5Q438 286 439 356Q432 338 416.5 319.5Q401 301 378.5 285Q356 269 326.5 259Q297 249 261 249Q208 249 168.5 268Q129 287 102 317.5Q75 348 61.5 388Q48 428 48 470Q48 516 62.5 557.5Q77 599 104.5 630.5Q132 662 172.5 680Q213 698 265 698Q386 698 441.5 610.5Q497 523 497 356Q497 176 434.5 82Q372 -12 259 -12Q211 -12 178 1.5Q145 15 122.5 36.5Q100 58 87 84Q74 110 67 136L129 145Q134 128 142 109.5Q150 91 164.5 75Q179 59 202 49Q225 39 260 39ZM267 299Q302 299 331 312Q360 325 381 347.5Q402 370 413.5 400.5Q425 431 425 467Q425 504 414 537Q403 570 382 595Q361 620 331.5 634.5Q302 649 266 649Q233 649 204.5 637Q176 625 155 602.5Q134 580 121.5 547.5Q109 515 109 474Q109 433 121 400.5Q133 368 154 345.5Q175 323 204 311Q233 299 267 299Z" glyph-name="nine.LP" horiz-adv-x="556" unicode="&#58686;" /><glyph d="M279 39Q325 39 358 62Q391 85 413 127Q435 169 446 227.5Q457 286 458 356Q451 338 435.5 319.5Q420 301 397.5 285Q375 269 345.5 259Q316 249 280 249Q227 249 187.5 268Q148 287 121 317.5Q94 348 80.5 388Q67 428 67 470Q67 516 81.5 557.5Q96 599 123.5 630.5Q151 662 191.5 680Q232 698 284 698Q405 698 460.5 610.5Q516 523 516 356Q516 176 453.5 82Q391 -12 278 -12Q230 -12 197 1.5Q164 15 141.5 36.5Q119 58 106 84Q93 110 86 136L148 145Q153 128 161 109.5Q169 91 183.5 75Q198 59 221 49Q244 39 279 39ZM286 299Q321 299 350 312Q379 325 400 347.5Q421 370 432.5 400.5Q444 431 444 467Q444 504 433 537Q422 570 401 595Q380 620 350.5 634.5Q321 649 285 649Q252 649 223.5 637Q195 625 174 602.5Q153 580 140.5 547.5Q128 515 128 474Q128 433 140 400.5Q152 368 173 345.5Q194 323 223 311Q252 299 286 299Z" glyph-name="nine.LT" horiz-adv-x="600" unicode="&#58697;" /><glyph d="M256 -83Q301 -83 334 -60Q367 -37 388.5 5Q410 47 421 105.5Q432 164 433 234Q426 216 411 197.5Q396 179 373.5 163Q351 147 322 137Q293 127 257 127Q205 127 166 146Q127 165 100.5 195.5Q74 226 60.5 266Q47 306 47 348Q47 394 61.5 435Q76 476 103 507Q130 538 170 556Q210 574 261 574Q380 574 435 486Q490 398 490 234Q490 55 428.5 -39Q367 -133 255 -133Q208 -133 175.5 -119.5Q143 -106 121 -84.5Q99 -63 86 -37Q73 -11 66 15L127 24Q132 7 140 -12Q148 -31 162 -46.5Q176 -62 198.5 -72.5Q221 -83 256 -83ZM263 176Q298 176 326.5 189Q355 202 375.5 224.5Q396 247 407.5 278Q419 309 419 345Q419 382 408 414.5Q397 447 376.5 472Q356 497 327 511.5Q298 526 262 526Q230 526 201.5 514Q173 502 152 479.5Q131 457 119 424.5Q107 392 107 352Q107 311 119 278Q131 245 152 222.5Q173 200 201.5 188Q230 176 263 176Z" glyph-name="nine.OP" horiz-adv-x="549" unicode="&#58708;" /><glyph d="M281 -83Q326 -83 359 -60Q392 -37 413.5 5Q435 47 446 105.5Q457 164 458 234Q451 216 436 197.5Q421 179 398.5 163Q376 147 347 137Q318 127 282 127Q230 127 191 146Q152 165 125.5 195.5Q99 226 85.5 266Q72 306 72 348Q72 394 86.5 435Q101 476 128 507Q155 538 195 556Q235 574 286 574Q405 574 460 486Q515 398 515 234Q515 55 453.5 -39Q392 -133 280 -133Q233 -133 200.5 -119.5Q168 -106 146 -84.5Q124 -63 111 -37Q98 -11 91 15L152 24Q157 7 165 -12Q173 -31 187 -46.5Q201 -62 223.5 -72.5Q246 -83 281 -83ZM288 176Q323 176 351.5 189Q380 202 400.5 224.5Q421 247 432.5 278Q444 309 444 345Q444 382 433 414.5Q422 447 401.5 472Q381 497 352 511.5Q323 526 287 526Q255 526 226.5 514Q198 502 177 479.5Q156 457 144 424.5Q132 392 132 352Q132 311 144 278Q156 245 177 222.5Q198 200 226.5 188Q255 176 288 176Z" glyph-name="nine.OT" horiz-adv-x="600" unicode="&#58719;" /><glyph d="M169 -165Q196 -165 214.5 -153.5Q233 -142 244 -122Q255 -102 260.5 -75.5Q266 -49 267 -19Q255 -42 229.5 -56Q204 -70 167 -70Q135 -70 111.5 -59.5Q88 -49 72 -31Q56 -13 48 9.5Q40 32 40 56Q40 81 48.5 104.5Q57 128 74 145Q91 162 116 172.5Q141 183 174 183Q247 183 280.5 134.5Q314 86 314 -4Q314 -102 277.5 -154.5Q241 -207 168 -207Q139 -207 119 -199.5Q99 -192 85 -180Q71 -168 62.5 -152.5Q54 -137 50 -121L102 -114Q105 -122 109 -131Q113 -140 120.5 -147.5Q128 -155 139.5 -160Q151 -165 169 -165ZM174 -28Q212 -28 234.5 -5.5Q257 17 257 53Q257 91 234.5 116Q212 141 174 141Q139 141 115.5 118.5Q92 96 92 57Q92 21 112.5 -3.5Q133 -28 174 -28Z" glyph-name="nine.inf" horiz-adv-x="366" unicode="&#58746;" /><glyph d="M147 -12 584 712H640L203 -12ZM169 359Q196 359 214.5 370.5Q233 382 244 402Q255 422 260.5 448.5Q266 475 267 505Q255 482 229.5 468Q204 454 167 454Q135 454 111.5 464.5Q88 475 72 493Q56 511 48 533.5Q40 556 40 580Q40 605 48.5 628.5Q57 652 74 669Q91 686 116 696.5Q141 707 174 707Q247 707 280.5 658.5Q314 610 314 520Q314 422 277.5 369.5Q241 317 168 317Q139 317 119 324.5Q99 332 85 344Q71 356 62.5 371.5Q54 387 50 403L102 410Q105 402 109 393Q113 384 120.5 376.5Q128 369 139.5 364Q151 359 169 359ZM174 496Q212 496 234.5 518.5Q257 541 257 577Q257 615 234.5 640Q212 665 174 665Q139 665 115.5 642.5Q92 620 92 581Q92 545 112.5 520.5Q133 496 174 496ZM883 341Q856 341 837.5 329.5Q819 318 807.5 298Q796 278 791 251.5Q786 225 785 195Q797 218 822.5 232Q848 246 885 246Q916 246 940 235.5Q964 225 980 207Q996 189 1004 166.5Q1012 144 1012 120Q1012 94 1003.5 71Q995 48 978 31Q961 14 936 3.5Q911 -7 878 -7Q805 -7 771.5 41.5Q738 90 738 180Q738 278 774.5 330.5Q811 383 884 383Q912 383 932.5 375.5Q953 368 967 356Q981 344 989.5 328.5Q998 313 1002 297L950 290Q947 298 943 307Q939 316 931.5 323.5Q924 331 912.5 336Q901 341 883 341ZM648 376V0H594V318Q582 309 563.5 303.5Q545 298 522 297L512 336Q541 340 565 349.5Q589 359 603 376ZM878 204Q840 204 817.5 181.5Q795 159 795 123Q795 85 817.5 60Q840 35 878 35Q913 35 936.5 57.5Q960 80 960 119Q960 155 939.5 179.5Q919 204 878 204Z" glyph-name="ninesixteenths" horiz-adv-x="1052" unicode="&#61977;" /><glyph glyph-name="nonmarkingreturn" horiz-adv-x="235" /><glyph d="M488 585 398 439H544V389H368L291 264H544V214H260L151 36L109 63L202 214H56V264H233L310 389H56V439H340L447 612Z" glyph-name="notequal" horiz-adv-x="600" unicode="&#8800;" /><glyph d="M513 619 423 473H594V423H393L316 298H594V248H285L176 70L134 96L227 248H56V298H258L335 423H56V473H366L472 645Z" glyph-name="notequal.cap" horiz-adv-x="650" unicode="&#61989;" /><glyph d="M216 649Q240 649 258 641.5Q276 634 291 624.5Q306 615 320.5 607.5Q335 600 352 600Q368 600 379 607Q390 614 398 622Q407 632 413 644L446 614Q437 598 423 586Q411 575 392.5 566.5Q374 558 348 558Q323 558 305 565.5Q287 573 272 582Q257 591 243 598.5Q229 606 213 606Q196 606 185 599Q174 592 166 584Q157 574 152 563L120 592Q129 608 142 620Q153 631 171.5 640Q190 649 216 649ZM86 469H141V391Q150 409 165 425Q180 441 200.5 453.5Q221 466 247 473.5Q273 481 303 481Q337 481 366 471Q395 461 416.5 441Q438 421 450 391Q462 361 462 321V0H402V309Q402 370 370.5 400Q339 430 291 430Q262 430 235.5 418.5Q209 407 189 387Q169 367 157.5 338.5Q146 310 146 276V0H86Z" glyph-name="ntilde" horiz-adv-x="543" unicode="&#241;" /><glyph d="M241 716Q265 716 283 708.5Q301 701 316 691.5Q331 682 345.5 674.5Q360 667 377 667Q393 667 404 674Q415 681 423 689Q432 699 438 711L471 681Q462 665 448 653Q436 642 417.5 633.5Q399 625 373 625Q348 625 330 632.5Q312 640 297 649Q282 658 268 665.5Q254 673 238 673Q221 673 210 666Q199 659 191 651Q182 641 177 630L145 659Q154 675 167 687Q178 698 196.5 707Q215 716 241 716ZM97 564H161Q231 456 293 362Q319 322 346 281Q373 240 397 203Q421 166 440 136Q459 106 471 88H473V564H528V0H464Q396 105 335 198Q309 238 282.5 278.5Q256 319 231.5 356.5Q207 394 187 425Q167 456 154 476H153V0H97Z" glyph-name="ntilde.smcp" horiz-adv-x="625" unicode="&#57977;" /><glyph d="M356 230H209L168 0H117L158 230H37V275H166L193 432H75V480H203L241 700H292L254 480H401L440 700H491L452 480H576V432H442L415 275H539V230H407L365 0H316ZM217 275H364L391 432H244Z" glyph-name="numbersign" horiz-adv-x="613" unicode="#" /></font>
</defs>
</svg>
