<?xml version="1.0" standalone="no"?>
<!DOCTYPE svg PUBLIC "-//W3C//DTD SVG 1.1//EN" "http://www.w3.org/Graphics/SVG/1.1/DTD/svg11.dtd" >
<svg xmlns="http://www.w3.org/2000/svg" xmlns:xlink="http://www.w3.org/1999/xlink" version="1.1">
<metadata></metadata>
<defs>
<font id="black_tieregular" horiz-adv-x="1008" >
<font-face units-per-em="1008" ascent="1008" descent="0" />
<missing-glyph horiz-adv-x="252" />
<glyph unicode=" "  horiz-adv-x="252" />
<glyph unicode="&#x09;" horiz-adv-x="252" />
<glyph unicode="&#xa0;" horiz-adv-x="252" />
<glyph unicode="&#x2000;" horiz-adv-x="504" />
<glyph unicode="&#x2001;" />
<glyph unicode="&#x2002;" horiz-adv-x="504" />
<glyph unicode="&#x2003;" />
<glyph unicode="&#x2004;" horiz-adv-x="336" />
<glyph unicode="&#x2005;" horiz-adv-x="252" />
<glyph unicode="&#x2006;" horiz-adv-x="168" />
<glyph unicode="&#x2007;" horiz-adv-x="168" />
<glyph unicode="&#x2008;" horiz-adv-x="126" />
<glyph unicode="&#x2009;" horiz-adv-x="201" />
<glyph unicode="&#x200a;" horiz-adv-x="56" />
<glyph unicode="&#x202f;" horiz-adv-x="201" />
<glyph unicode="&#x205f;" horiz-adv-x="252" />
<glyph unicode="&#x25fc;" horiz-adv-x="500" d="M0 0z" />
<glyph unicode="&#xf000;" d="M1008 576v-72h-1008v72h1008zM1008 216v-72h-1008v72h1008zM1008 936v-72h-1008v72h1008z" />
<glyph unicode="&#xf001;" horiz-adv-x="1152" d="M72 144h1008v494l-466 -291h-76l-466 291v-494zM576 408l504 315v141h-1008v-141zM1152 936v-864h-1152v864h1152z" />
<glyph unicode="&#xf002;" d="M1008 51l-51 -51l-246 246q-120 -102 -279 -102q-179 0 -305.5 126.5t-126.5 305.5t126.5 305.5t305.5 126.5t305.5 -126.5t126.5 -305.5q0 -159 -102 -279zM432 216q149 0 254.5 105.5t105.5 254.5t-105.5 254.5t-254.5 105.5t-254.5 -105.5t-105.5 -254.5t105.5 -254.5 t254.5 -105.5z" />
<glyph unicode="&#xf003;" d="M762 297l246 -246l-51 -51l-246 246q-120 -102 -279 -102q-179 0 -305.5 126.5t-126.5 305.5t126.5 305.5t305.5 126.5t305.5 -126.5t126.5 -305.5q0 -159 -102 -279zM432 216q149 0 254.5 105.5t105.5 254.5t-105.5 254.5t-254.5 105.5t-254.5 -105.5t-105.5 -254.5 t105.5 -254.5t254.5 -105.5zM468 792v-180h180v-72h-180v-180h-72v180h-180v72h180v180h72z" />
<glyph unicode="&#xf004;" d="M762 297l246 -246l-51 -51l-246 246q-120 -102 -279 -102q-179 0 -305.5 126.5t-126.5 305.5t126.5 305.5t305.5 126.5t305.5 -126.5t126.5 -305.5q0 -159 -102 -279zM432 216q149 0 254.5 105.5t105.5 254.5t-105.5 254.5t-254.5 105.5t-254.5 -105.5t-105.5 -254.5 t105.5 -254.5t254.5 -105.5zM216 540v72h432v-72h-432z" />
<glyph unicode="&#xf005;" d="M252 911l-179 -105v-164q21 -146 222 -347t347 -222h164l105 179l-239 165l-105 -120q-73 41 -151 119t-119 151l120 105zM274 1008l240 -349l-121 -105q68 -93 161 -161l105 121l349 -240l-160 -274h-212q-95 0 -248.5 117t-270.5 270.5t-117 248.5v212z" />
<glyph unicode="&#xf006;" />
<glyph unicode="&#xf007;" d="M936 936h-864v-648h216v-216h6l216 216h426v648zM1008 1008v-792h-468l-216 -216h-108v216h-216v792h1008z" />
<glyph unicode="&#xf008;" d="M1008 1008v-792h-468l-216 -216h-108v216h-216v792h1008zM360 612q0 30 -21 51t-51 21t-51 -21t-21 -51t21 -51t51 -21t51 21t21 51zM576 612q0 30 -21 51t-51 21t-51 -21t-21 -51t21 -51t51 -21t51 21t21 51zM792 612q0 30 -21 51t-51 21t-51 -21t-21 -51t21 -51t51 -21 t51 21t21 51zM936 936h-864v-648h216v-216h6l216 216h426v648z" />
<glyph unicode="&#xf009;" d="M792 936h-720v-576h144v-216h6l216 216h354v576zM864 1008v-720h-396l-216 -216h-108v216h-144v720h864zM936 576v-360h-72v-144l-144 144h-216l-72 -72h252l144 -144h108v144h72v432h-72z" />
<glyph unicode="&#xf00a;" d="M666 0h-72q0 161 -79.5 298t-216.5 216.5t-298 79.5v72q180 0 333.5 -89.5t243 -243t89.5 -333.5zM1008 0h-72q0 190 -74.5 363.5t-199.5 298.5t-298.5 199.5t-363.5 74.5v72q205 0 391.5 -80t321.5 -215t215 -321.5t80 -391.5zM180 360q-74 0 -127 -53t-53 -127t53 -127 t127 -53t127 53t53 127t-53 127t-127 53zM180 288q45 0 76.5 -31.5t31.5 -76.5t-31.5 -76.5t-76.5 -31.5t-76.5 31.5t-31.5 76.5t31.5 76.5t76.5 31.5z" />
<glyph unicode="&#xf00b;" />
<glyph unicode="&#xf00c;" d="M1008 954l-450 -450l450 -450l-54 -54l-450 450l-450 -450l-54 54l450 450l-450 450l54 54l450 -450l450 450z" />
<glyph unicode="&#xf00d;" d="M756 702l-198 -198l198 -198l-54 -54l-198 198l-198 -198l-54 54l198 198l-198 198l54 54l198 -198l198 198zM504 936q-178 0 -305 -127t-127 -305t127 -305t305 -127t305 127t127 305t-127 305t-305 127zM504 1008q208 0 356 -148t148 -356t-148 -356t-356 -148 t-356 148t-148 356t148 356t356 148z" />
<glyph unicode="&#xf00e;" d="M504 1008q208 0 356 -148t148 -356t-148 -356t-356 -148t-356 148t-148 356t148 356t356 148zM504 72q178 0 305 127t127 305t-127 305t-305 127t-305 -127t-127 -305t127 -305t305 -127zM504 504v288h72v-360h-288v72h216z" />
<glyph unicode="&#xf010;" d="M639 648l-135 288l-153 -288h-270l214 -234l-90 -329l299 158l299 -158l-92 329l216 234h-288zM549 1008l153 -288h270l36 -90l-216 -234l90 -324l-72 -72l-306 162l-306 -162l-72 72l90 324l-216 234l36 90h270l153 288h90z" />
<glyph unicode="&#xf011;" horiz-adv-x="576" d="M459 1008h117v-808l-378 -200l-72 72l90 324l-216 234l36 90h270zM504 243v693l-153 -288h-270l214 -234l-90 -329z" />
<glyph unicode="&#xf012;" horiz-adv-x="1152" d="M1152 882l-756 -756l-396 396l54 54l342 -342l702 702z" />
<glyph unicode="&#xf013;" d="M774 702l54 -54l-396 -396l-234 234l54 54l180 -180zM936 504q0 178 -127 305t-305 127t-305 -127t-127 -305t127 -305t305 -127t305 127t127 305zM1008 504q0 -208 -148 -356t-356 -148t-356 148t-148 356t148 356t356 148t356 -148t148 -356z" />
<glyph unicode="&#xf014;" d="M792 738l54 -54l-432 -432l-234 234l54 54l180 -180zM72 72h864v864h-864v-864zM1008 1008v-1008h-1008v1008h1008z" />
<glyph unicode="&#xf015;" d="M0 1008h1008v-1008h-1008v1008zM936 384v240h-240v-240h240zM624 384v240h-240v-240h240zM624 312h-240v-240h240v240zM72 624v-240h240v240h-240zM384 696h240v240h-240v-240zM312 936h-240v-240h240v240zM72 312v-240h240v240h-240zM696 72h240v240h-240v-240zM936 696 v240h-240v-240h240z" />
<glyph unicode="&#xf016;" d="M0 1008h1008v-1008h-1008v1008zM72 936v-396h396v396h-396zM468 72v396h-396v-396h396zM936 72v396h-396v-396h396zM540 540h396v396h-396v-396z" />
<glyph unicode="&#xf017;" horiz-adv-x="1152" d="M838 1008q130 0 222 -92t92 -222q0 -128 -92 -223q-51 -53 -212 -217t-248 -254h-48q-87 90 -248 254t-212 217q-92 95 -92 223q0 130 92 222t222 92q82 0 141.5 -33.5t120.5 -100.5q61 67 120.5 100.5t141.5 33.5zM576 79q48 49 199.5 203.5t233.5 239.5q71 73 71 172 q0 100 -71 171t-171 71q-21 0 -39.5 -2.5t-36.5 -10t-31 -12t-30.5 -18.5t-25.5 -20t-26.5 -25.5t-23.5 -25t-25 -29t-24 -28.5q-4 5 -24 28.5t-25 29t-23.5 25t-26.5 25.5t-25.5 20t-30.5 18.5t-31 12t-36.5 10t-39.5 2.5q-100 0 -171 -71t-71 -171q0 -99 71 -172 q82 -85 233.5 -239.5t199.5 -203.5z" />
<glyph unicode="&#xf018;" horiz-adv-x="720" d="M314 1008q35 0 65.5 -5t58 -19t46 -24.5t44.5 -36t38 -38t41.5 -46.5t40.5 -47v-792h-96q-68 70 -223 228t-237 243q-92 97 -92 223q0 130 92 222t222 92zM576 79v686q-3 4 -27 32t-28.5 33t-25.5 27t-30.5 27.5t-30 20t-36 18.5t-38 8.5t-46.5 4.5q-100 0 -171 -71 t-71 -171q0 -99 71 -172q82 -85 233.5 -239.5t199.5 -203.5z" />
<glyph unicode="&#xf019;" d="M792 864h216v-864h-1008v864h216v144h72v-144h432v144h72v-144zM936 72v504h-864v-504h864zM936 648v144h-864v-144h864z" />
<glyph unicode="&#xf01a;" d="M775 360h-559v-72h468q60 0 102 -42t42 -102t-42 -102t-102 -42t-102 42t-42 102q0 39 19 72h-182q19 -33 19 -72q0 -60 -42 -102t-102 -42t-102 42t-42 102q0 54 36 95v697h-144v72h216v-144h792v-155zM324 144q0 30 -21 51t-51 21t-51 -21t-21 -51t21 -51t51 -21t51 21 t21 51zM756 144q0 30 -21 51t-51 21t-51 -21t-21 -51t21 -51t51 -21t51 21t21 51zM216 792v-360h521l199 299v61h-720z" />
<glyph unicode="&#xf01b;" d="M1008 540v-72h-468v-468h-72v468h-468v72h468v468h72v-468h468z" />
<glyph unicode="&#xf01c;" d="M504 1008q208 0 356 -148t148 -356t-148 -356t-356 -148t-356 148t-148 356t148 356t356 148zM504 72q178 0 305 127t127 305t-127 305t-305 127t-305 -127t-127 -305t127 -305t305 -127zM540 792v-252h252v-72h-252v-252h-72v252h-252v72h252v252h72z" />
<glyph unicode="&#xf01d;" d="M468 216v252h-252v72h252v252h72v-252h252v-72h-252v-252h-72zM0 1008h1008v-1008h-1008v1008zM936 72v864h-864v-864h864z" />
<glyph unicode="&#xf01e;" d="M216 756l270 126l396 -378l-126 -288l-594 -216l-162 162zM702 273l94 214l-324 309l-199 -93l-190 -523l23 -23l251 251q-15 27 -15 60q0 52 37 89t89 37t89 -37t37 -89t-37 -89t-89 -37q-33 0 -60 15l-251 -251l23 -23zM414 468q0 -22 16 -38t38 -16t38 16t16 38 t-16 38t-38 16t-38 -16t-16 -38zM576 1008l432 -432l-51 -51l-432 432z" />
<glyph unicode="&#xf021;" d="M1008 540v-72h-1008v72h1008z" />
<glyph unicode="&#xf022;" d="M504 936q-178 0 -305 -127t-127 -305t127 -305t305 -127t305 127t127 305t-127 305t-305 127zM504 1008q208 0 356 -148t148 -356t-148 -356t-356 -148t-356 148t-148 356t148 356t356 148zM792 468v72h-576v-72h576z" />
<glyph unicode="&#xf023;" d="M792 468v72h-576v-72h576zM936 936h-864v-864h864v864zM1008 1008v-1008h-1008v1008h1008z" />
<glyph unicode="&#xf024;" d="M792 1008l216 -216v-108l-612 -612l-396 -72l72 396l612 612h108zM361 139l373 372l-223 223l-372 -373l-50 -272zM936 714v48l-174 174h-48l-152 -151l223 -223z" />
<glyph unicode="&#xf025;" d="M720 72v288h72v-360h-792v936h486v-72h-414v-792h648zM864 1008l144 -144v-72l-576 -576l-288 -72l72 288l576 576h72zM395 281l393 392l-115 115l-392 -393l-38 -152zM936 822v12l-102 102h-12l-98 -97l115 -115z" />
<glyph unicode="&#xf026;" d="M976 499q32 -46 32 -103t-32 -103q9 -82 -48 -144q-11 -64 -61.5 -106.5t-115.5 -42.5h-175q-119 0 -288 66v-66h-288v648h275l144 151q18 18 31 49.5t13 56.5q0 43 30 73t73 30h46q69 0 109 -54.5t40 -125.5q0 -73 -31 -129h67q74 0 127 -53t53 -127q0 -14 -1 -20z M216 72v504h-144v-504h144zM897 313q39 33 39 83t-39 83q8 21 8 40q0 45 -31.5 76.5t-76.5 31.5h-200q7 11 26 38t26.5 39.5t19 35t16 43.5t4.5 45q0 40 -20 74t-57 34q-2 0 -17 0.5t-21.5 0t-17.5 -3t-16 -10t-5 -18.5q0 -40 -17 -83t-45 -71l-185 -193v-414 q165 -72 288 -72h175q45 0 77.5 32t30.5 76v4q46 32 46 89q0 19 -8 40z" />
<glyph unicode="&#xf027;" d="M897 695q8 21 8 40q0 57 -46 89v4q2 44 -30.5 76t-77.5 32h-175q-123 0 -288 -72v-414l185 -193q28 -28 45 -71t17 -83q0 -11 5 -18.5t16 -10t17.5 -3t21.5 0t17 0.5q37 0 57 34t20 74q0 24 -4.5 45t-16 43.5t-19 35t-26.5 39.5t-26 38h200q45 0 76.5 31.5t31.5 76.5 q0 19 -8 40q39 33 39 83t-39 83zM216 432v504h-144v-504h144zM976 509q1 -6 1 -20q0 -74 -53 -127t-127 -53h-67q31 -56 31 -129q0 -71 -40 -125.5t-109 -54.5h-46q-43 0 -73 30t-30 73q0 25 -13 56.5t-31 49.5l-144 151h-275v648h288v-66q169 66 288 66h175 q65 0 115.5 -42.5t61.5 -106.5q57 -62 48 -144q32 -46 32 -103t-32 -103z" />
<glyph unicode="&#xf028;" d="M504 720q-89 0 -152.5 -63.5t-63.5 -152.5t63.5 -152.5t152.5 -63.5t152.5 63.5t63.5 152.5t-63.5 152.5t-152.5 63.5zM504 648q59 0 101.5 -42.5t42.5 -101.5t-42.5 -101.5t-101.5 -42.5t-101.5 42.5t-42.5 101.5t42.5 101.5t101.5 42.5zM406 186v-103q50 -11 98 -11 t98 11v103q70 27 128 74l89 -51q69 74 98 169l-89 52q12 74 0 148l89 52q-29 95 -98 169l-89 -51q-58 47 -128 74v103q-50 11 -98 11t-98 -11v-103q-70 -27 -128 -74l-89 51q-69 -74 -98 -169l89 -52q-12 -74 0 -148l-89 -52q29 -95 98 -169l89 51q58 -47 128 -74zM504 0 q-74 0 -170 29v109q-34 16 -62 36l-95 -55q-71 67 -109 133.5t-60 160.5l94 55v72l-94 55q22 94 60 160.5t109 133.5l95 -55q28 20 62 36v109q96 29 170 29t170 -29v-109q34 -16 62 -36l95 55q71 -67 109 -133.5t60 -160.5l-94 -55v-72l94 -55q-22 -94 -60 -160.5 t-109 -133.5l-95 55q-28 -20 -62 -36v-109q-96 -29 -170 -29z" />
<glyph unicode="&#xf029;" d="M432 216v432h-72v-432h72zM648 216v432h-72v-432h72zM756 864h252v-72h-1008v72h252l144 144h216zM354 864h300l-72 72h-156zM798 72l54 648h72l-60 -720h-720l-60 720h72l54 -648h588z" />
<glyph unicode="&#xf02a;" horiz-adv-x="864" d="M510 936h-438v-864h720v582zM540 1008l324 -324v-684h-864v1008h540z" />
<glyph unicode="&#xf02b;" d="M540 612v-396h-72v396h72zM567 756q0 -26 -18.5 -44.5t-44.5 -18.5t-44.5 18.5t-18.5 44.5t18.5 44.5t44.5 18.5t44.5 -18.5t18.5 -44.5zM936 504q0 178 -127 305t-305 127t-305 -127t-127 -305t127 -305t305 -127t305 127t127 305zM1008 504q0 -208 -148 -356t-356 -148 t-356 148t-148 356t148 356t356 148t356 -148t148 -356z" />
<glyph unicode="&#xf02c;" d="M438 936h-300l-66 -66v-300l468 -468l366 366zM468 1008l540 -540l-468 -468l-540 540v360l108 108h360zM324 756q0 30 -21 51t-51 21t-51 -21t-21 -51t21 -51t51 -21t51 21t21 51z" />
<glyph unicode="&#xf02d;" d="M936 936q-73 0 -137.5 -15.5t-112.5 -37t-103 -63.5t-91.5 -77t-95.5 -95h-216l-108 -108v-180h180l108 -108v-180h180l108 108v216q61 60 95.5 96t77 91t64 102.5t36.5 112t15 138.5zM1008 1008q0 -157 -28 -262t-85.5 -186.5t-174.5 -193.5v-216l-150 -150h-282v222 l-66 66h-222v282l150 150h216q69 72 125 119.5t125.5 88.5t148 60.5t171.5 19.5h72zM792 720q0 30 -21 51t-51 21t-51 -21t-21 -51t21 -51t51 -21t51 21t21 51z" />
<glyph unicode="&#xf02e;" horiz-adv-x="864" d="M144 1008h720v-1008h-720q-59 0 -101.5 42.5t-42.5 101.5v720q0 59 42.5 101.5t101.5 42.5zM792 216v720h-504v-720h504zM144 936q-30 0 -51 -21t-21 -51v-696q7 10 15 17.5t14 12.5t17.5 8.5t16.5 5.5t20 3t19 1h21.5h20.5v720h-72zM162 72h630v72h-630 q-15 0 -25.5 -10.5t-10.5 -25.5t10.5 -25.5t25.5 -10.5z" />
<glyph unicode="&#xf02f;" horiz-adv-x="1152" d="M756 936h396v-792h-378q-13 0 -22 -0.5t-17 -0.5t-15 -2.5t-11.5 -3t-10 -5.5t-8.5 -6.5t-9 -9.5t-9 -11.5t-11.5 -15t-12.5 -17.5h-144q-4 6 -12.5 17.5t-11.5 15t-9 11.5t-9 9.5t-8.5 6.5t-10 5.5t-11.5 3t-15 2.5t-17 0.5t-22 0.5h-378v792h396q119 0 180 -61 q61 61 180 61zM540 144v648q0 26 -29 43.5t-59.5 23t-55.5 5.5h-324v-648h306q62 0 92.5 -13t69.5 -59zM1080 216v648h-324q-25 0 -55.5 -5.5t-59.5 -23t-29 -43.5v-648q39 46 69.5 59t92.5 13h306z" />
<glyph unicode="&#xf030;" d="M144 1008h864v-1008h-864v216h-144v72h144v216h-144v72h144v216h-144v72h144v144zM936 72v864h-720v-864h720zM792 792v-288h-432v288h432zM720 576v144h-288v-144h288z" />
<glyph unicode="&#xf031;" horiz-adv-x="1152" d="M900 792h252v-720h-1152v720h252l144 144h360zM1080 144v576h-210l-144 144h-300l-144 -144h-210v-576h1008zM576 684q89 0 152.5 -63.5t63.5 -152.5t-63.5 -152.5t-152.5 -63.5t-152.5 63.5t-63.5 152.5t63.5 152.5t152.5 63.5zM576 324q59 0 101.5 42.5t42.5 101.5 t-42.5 101.5t-101.5 42.5t-101.5 -42.5t-42.5 -101.5t42.5 -101.5t101.5 -42.5z" />
<glyph unicode="&#xf032;" horiz-adv-x="1152" d="M468 864h-396v-720h1008v576h-468zM498 936l144 -144h510v-720h-1152v864h498z" />
<glyph unicode="&#xf033;" />
<glyph unicode="&#xf034;" />
<glyph unicode="&#xf035;" />
<glyph unicode="&#xf036;" horiz-adv-x="1152" d="M72 72h432v432h-288v72q0 89 63.5 152.5t152.5 63.5v144q-148 0 -254 -106t-106 -254v-504zM576 72h432v432h-288v72q0 89 63.5 152.5t152.5 63.5v144q-148 0 -254 -106t-106 -254v-504zM1080 576v-576h-1080v576q0 178 127 305t305 127h72v-288h-72q-60 0 -102 -42.5 t-42 -101.5h216q0 178 127 305t305 127h72v-288h-72q-60 0 -102 -42.5t-42 -101.5h288z" />
<glyph unicode="&#xf037;" horiz-adv-x="1152" d="M504 432v504h-432v-432h288v-72q0 -89 -63.5 -152.5t-152.5 -63.5v-144q148 0 254 106t106 254zM1008 432v504h-432v-432h288v-72q0 -89 -63.5 -152.5t-152.5 -63.5v-144q148 0 254 106t106 254zM1080 1008v-576q0 -178 -127 -305t-305 -127h-72v288h72q60 0 102 42.5 t42 101.5h-216q0 -178 -127 -305t-305 -127h-72v288h72q60 0 102 42.5t42 101.5h-288v576h1080z" />
<glyph unicode="&#xf038;" horiz-adv-x="1152" d="M576 756q104 0 178 -74t74 -178t-74 -178t-178 -74t-178 74t-74 178t74 178t178 74zM576 324q74 0 127 53t53 127t-53 127t-127 53t-127 -53t-53 -127t53 -127t127 -53zM576 864q184 0 342 -97.5t234 -262.5q-76 -165 -234 -262.5t-342 -97.5t-342 97.5t-234 262.5 q76 165 234 262.5t342 97.5zM576 216q154 0 289 77.5t207 210.5q-72 133 -207 210.5t-289 77.5t-289 -77.5t-207 -210.5q72 -133 207 -210.5t289 -77.5z" />
<glyph unicode="&#xf039;" horiz-adv-x="864" d="M72 72h720v432h-720v-432zM216 576h432v162q0 82 -58 140t-140 58h-36q-82 0 -140 -58t-58 -140v-162zM864 576v-576h-864v576h144v162q0 112 79 191t191 79h36q112 0 191 -79t79 -191v-162h144z" />
<glyph unicode="&#xf03a;" horiz-adv-x="1152" d="M882 1008q112 0 191 -79t79 -191v-234h-72v234q0 82 -58 140t-140 58h-36q-82 0 -140 -58t-58 -140v-162h216v-576h-864v576h576v162q0 112 79 191t191 79h36zM792 504h-720v-432h720v432z" />
<glyph unicode="&#xf03b;" d="M805 720h203v-360h-72v-360h-864v360h-72v360h203q-59 48 -59 126q0 66 46 114t112 48q76 0 117 -56q41 -53 85 -112q44 59 85 112q41 56 118 56q65 0 111 -48t46 -114q0 -78 -59 -126zM468 72v576h-396v-216h72v-360h324zM302 756h176l-115 151q-21 29 -61 29 q-36 0 -61 -26.5t-25 -63.5t25 -63.5t61 -26.5zM707 936q-41 0 -62 -29l-115 -151h177q36 0 60.5 27t24.5 63t-24.5 63t-60.5 27zM936 432v216h-396v-576h324v360h72z" />
<glyph unicode="&#xf03c;" d="M504 1008q208 0 356 -148t148 -356t-148 -356t-356 -148t-356 148t-148 356t148 356t356 148zM504 72q178 0 305 127t127 305t-127 305t-305 127t-305 -127t-127 -305t127 -305t305 -127zM468 432v360h72v-360h-72z" />
<glyph unicode="&#xf03d;" d="M255 771q0 7 -5.5 12.5t-12.5 5.5t-12.5 -5.5t-5.5 -12.5t5.5 -12.5t12.5 -5.5t12.5 5.5t5.5 12.5zM540 882q0 15 -10.5 25.5t-25.5 10.5t-25.5 -10.5t-10.5 -25.5t10.5 -25.5t25.5 -10.5t25.5 10.5t10.5 25.5zM825 771q0 23 -15.5 38.5t-38.5 15.5q-22 0 -38 -16 t-16 -38t16 -38t38 -16t38 16t16 38zM309 237q0 -30 -21.5 -51t-50.5 -21q-30 0 -51 21t-21 51q0 29 21 50.5t51 21.5q29 0 50.5 -21.5t21.5 -50.5zM576 126q0 -30 -21 -51t-51 -21t-51 21t-21 51t21 51t51 21t51 -21t21 -51zM198 504q0 -30 -21 -51t-51 -21t-51 21t-21 51 t21 51t51 21t51 -21t21 -51zM843 237q0 -30 -21 -51t-51 -21q-29 0 -50.5 21t-21.5 51q0 29 21.5 50.5t50.5 21.5q30 0 51 -21.5t21 -50.5zM327 771q0 -37 -26.5 -63.5t-63.5 -26.5t-63.5 26.5t-26.5 63.5t26.5 63.5t63.5 26.5t63.5 -26.5t26.5 -63.5zM954 504 q0 -30 -21 -51t-51 -21t-51 21t-21 51t21 51t51 21t51 -21t21 -51zM612 882q0 -44 -32 -76t-76 -32t-76 32t-32 76t32 76t76 32t76 -32t32 -76zM897 771q0 -52 -37 -89t-89 -37t-89 37t-37 89t37 89t89 37q53 0 89.5 -36.5t36.5 -89.5z" />
<glyph unicode="&#xf03e;" d="M721 630h281q-21 -113 -109.5 -186.5t-203.5 -73.5q-29 0 -57 6l-376 -376h-121l-135 135v121l376 376q-6 28 -6 57q0 132 94 225.5t225 93.5q118 0 207.5 -77t107.5 -193h-283l-31 -54zM689 442q64 0 119.5 31t89.5 85h-219l-73 126l73 126h225q-32 58 -90 92t-125 34 q-102 0 -174.5 -72.5t-72.5 -174.5q0 -40 14 -79l-384 -384v-61l93 -93h61l384 384q39 -14 79 -14z" />
<glyph unicode="&#xf040;" horiz-adv-x="1152" d="M576 864q-114 0 -186 -67.5t-102 -181.5q-216 -53 -216 -237q0 -97 68.5 -165.5t165.5 -68.5h594q74 0 127 53t53 127q0 67 -44 117.5t-110 60.5l-63 9q2 44 1 67q-4 120 -86 203t-202 83zM576 936q151 0 259 -106.5t101 -253.5v-3q93 -14 154.5 -84.5t61.5 -164.5 q0 -104 -74 -178t-178 -74h-594q-127 0 -216.5 89.5t-89.5 216.5q0 104 64.5 187t165.5 109q33 116 129 189t217 73z" />
<glyph unicode="&#xf041;" horiz-adv-x="1152" d="M810 378l-54 -54l-180 180v-432h-72v432l-180 -180l-54 54l270 270zM936 573q93 -14 154.5 -84.5t61.5 -164.5q0 -104 -74 -178t-178 -74h-180v72h180q74 0 127 53t53 127q0 68 -43.5 117.5t-110.5 60.5l-63 9q2 44 1 67q-5 121 -86 203.5t-202 82.5q-113 0 -185.5 -68 t-102.5 -181q-99 -23 -157.5 -81.5t-58.5 -155.5t68.5 -165.5t165.5 -68.5h54v-72h-54q-127 0 -216.5 89.5t-89.5 216.5q0 104 64.5 187t165.5 109q33 116 129 189t217 73q151 0 259 -106.5t101 -253.5v-3z" />
<glyph unicode="&#xf042;" horiz-adv-x="1152" d="M936 573q93 -14 154.5 -84.5t61.5 -164.5q0 -104 -74 -178t-178 -74h-36v72h36q74 0 127 53t53 127q0 68 -43.5 117.5t-110.5 60.5l-63 9q2 44 1 67q-5 121 -86 203.5t-202 82.5q-113 0 -185.5 -68t-102.5 -181q-99 -24 -157.5 -82t-58.5 -155q0 -71 39.5 -130t104.5 -86 v-76q-96 29 -156 110t-60 182q0 104 64.5 187t165.5 109q33 116 129 189t217 73q151 0 259 -106.5t101 -253.5v-3zM756 396l54 -54l-270 -270l-270 270l54 54l180 -180v432h72v-432z" />
<glyph unicode="&#xf043;" d="M936 504h72q0 -208 -148 -356t-356 -148q-133 0 -248.5 65.5t-183.5 179.5v-245h-72v360h360v-72h-230q59 -100 159 -158t215 -58q178 0 305 127t127 305zM1008 1008v-360h-360v72h230q-59 100 -159 158t-215 58q-178 0 -305 -127t-127 -305h-72q0 208 148 356t356 148 q133 0 248.5 -65.5t183.5 -179.5v245h72z" />
<glyph unicode="&#xf044;" d="M567 252q0 -26 -18.5 -44.5t-44.5 -18.5t-44.5 18.5t-18.5 44.5t18.5 44.5t44.5 18.5t44.5 -18.5t18.5 -44.5zM720 612q0 -39 -18.5 -70t-45 -51t-53 -38t-45 -41.5t-18.5 -51.5h-72q0 41 18.5 74t45 53.5t53 38.5t45 39.5t18.5 46.5q0 57 -41.5 82.5t-102.5 25.5 q-54 0 -93 -32t-49 -85l-70 13q14 79 72.5 127.5t139.5 48.5q91 0 153.5 -46t62.5 -134zM936 504q0 178 -127 305t-305 127t-305 -127t-127 -305t127 -305t305 -127t305 127t127 305zM1008 504q0 -208 -148 -356t-356 -148t-356 148t-148 356t148 356t356 148t356 -148 t148 -356z" />
<glyph unicode="&#xf045;" d="M792 432q89 0 152.5 -63.5t63.5 -152.5t-63.5 -152.5t-152.5 -63.5t-152.5 63.5t-63.5 152.5q0 33 9 63l-195 98q-30 -41 -75.5 -65t-98.5 -24q-89 0 -152.5 63.5t-63.5 152.5t63.5 152.5t152.5 63.5q53 0 98.5 -24t75.5 -65l195 98q-9 30 -9 63q0 89 63.5 152.5 t152.5 63.5t152.5 -63.5t63.5 -152.5t-63.5 -152.5t-152.5 -63.5q-53 0 -98.5 24t-75.5 65l-195 -98q9 -30 9 -63t-9 -63l195 -98q30 41 75.5 65t98.5 24zM792 936q-59 0 -101.5 -42.5t-42.5 -101.5t42.5 -101.5t101.5 -42.5t101.5 42.5t42.5 101.5t-42.5 101.5t-101.5 42.5 zM216 360q59 0 101.5 42.5t42.5 101.5t-42.5 101.5t-101.5 42.5t-101.5 -42.5t-42.5 -101.5t42.5 -101.5t101.5 -42.5zM792 72q59 0 101.5 42.5t42.5 101.5t-42.5 101.5t-101.5 42.5t-101.5 -42.5t-42.5 -101.5t42.5 -101.5t101.5 -42.5z" />
<glyph unicode="&#xf046;" horiz-adv-x="1152" d="M72 72h1008v360h-360v-72h-288v72h-360v-360zM72 504h1008v288h-1008v-288zM432 864h288v60l-12 12h-264l-12 -12v-60zM1152 864v-864h-1152v864h360v90l54 54h324l54 -54v-90h360z" />
<glyph unicode="&#xf047;" d="M504 1008q208 0 356 -148t148 -356t-148 -356t-356 -148t-356 148t-148 356t148 356t356 148zM504 72q178 0 305 127t127 305t-127 305t-305 127t-305 -127t-127 -305t127 -305t305 -127zM540 538q78 -10 129 -54.5t51 -105.5t-51 -105.5t-129 -54.5v-74h-72v74 q-146 13 -179 125l70 20q16 -62 109 -73v180q-78 10 -129 54.5t-51 105.5t51 105.5t129 54.5v74h72v-74q146 -13 179 -125l-70 -20q-16 62 -109 73v-180zM360 630q0 -30 31 -54.5t77 -32.5v174q-46 -8 -77 -32.5t-31 -54.5zM540 291q46 8 77 32.5t31 54.5t-31 54.5t-77 32.5 v-174z" />
<glyph unicode="&#xf048;" horiz-adv-x="1152" d="M371 95l98 45l-100 220h-118zM888 216h48v720h-48l-288 -216h-498l-30 -30v-228l30 -30h498zM1062 576q0 15 -10.5 25.5t-25.5 10.5q-10 0 -18 -5v-62q8 -5 18 -5q15 0 25.5 10.5t10.5 25.5zM1134 576q0 -45 -31.5 -76.5t-76.5 -31.5q-6 0 -18 2v-326h-144l-288 216h-128 l117 -256l-230 -104l-163 360h-100l-72 72v288l72 72h504l288 216h144v-326q12 2 18 2q45 0 76.5 -31.5t31.5 -76.5z" />
<glyph unicode="&#xf049;" d="M288 1008h720v-1008h-720v360h72v-288h576v864h-576v-288h-72v360zM522 288l180 180h-702v72h702l-180 180l54 54l270 -270l-270 -270z" />
<glyph unicode="&#xf04a;" horiz-adv-x="1152" d="M810 288l180 180h-702v72h702l-180 180l54 54l270 -270l-270 -270zM648 0h-648v1008h648v-360h-72v288h-504v-864h504v288h72v-360z" />
<glyph unicode="&#xf04b;" horiz-adv-x="1152" d="M72 144h144v180h-144v-180zM72 414h144v180h-144v-180zM72 684h144v180h-144v-180zM288 144h576v720h-576v-720zM936 144h144v180h-144v-180zM936 414h144v180h-144v-180zM936 684h144v180h-144v-180zM1152 936v-864h-1152v864h1152z" />
<glyph unicode="&#xf04c;" d="M792 864h216v-360q0 -58 -34 -106.5t-86 -80t-116.5 -54.5t-123 -33.5t-108.5 -12.5v-145h252v-72h-576v72h252v145q-50 2 -108.5 12.5t-123 33.5t-116.5 54.5t-86 80t-34 106.5v360h216v144h576v-144zM216 346v446h-144v-288q0 -50 44 -91t100 -67zM720 318v618h-432 v-618q100 -30 216 -30t216 30zM936 504v288h-144v-446q56 26 100 67t44 91z" />
<glyph unicode="&#xf04d;" horiz-adv-x="1152" d="M108 504l234 -234l-54 -54l-288 288l288 288l54 -54zM648 1008l72 -18l-216 -990l-72 18zM864 792l288 -288l-288 -288l-54 54l234 234l-234 234z" />
<glyph unicode="&#xf04e;" horiz-adv-x="720" d="M432 126h36v18h-216v-18h36q0 -25 23 -39.5t49 -14.5t49 14.5t23 39.5zM648 666q0 115 -86 192.5t-202 77.5t-202 -77.5t-86 -192.5q0 -79 44.5 -144t117.5 -99v-63h234v56q80 31 130 98.5t50 151.5zM540 216v-144h-66q-16 -33 -46.5 -52.5t-67.5 -19.5t-67.5 19.5 t-46.5 52.5h-66v144h360zM720 666q0 -93 -48.5 -172t-131.5 -124v-82h-378v93q-74 46 -118 122t-44 163q0 145 107 243.5t253 98.5t253 -98.5t107 -243.5z" />
<glyph unicode="&#xf050;" d="M0 1008h1008v-576h-216v-252l-180 -180h-396v432h-216v576zM720 216v432h-432v-576h288zM936 504v432h-864v-432h144v216h576v-216h144zM234 828q0 22 -16 38t-38 16t-38 -16t-16 -38t16 -38t38 -16t38 16t16 38z" />
<glyph unicode="&#xf051;" d="M1008 0h-1008v576h216v432h396l180 -180v-252h216v-576zM720 360v432l-144 144h-288v-576h432zM936 72v432h-144v-216h-576v216h-144v-432h864zM234 180q0 -22 -16 -38t-38 -16t-38 16t-16 38t16 38t38 16t38 -16t16 -38z" />
<glyph unicode="&#xf052;" horiz-adv-x="1152" d="M1080 864h-72l-288 -288v288h-648v-720h648v288l288 -288h72v720zM1152 936v-864h-180l-180 180v-180h-792v864h792v-180l180 180h180z" />
<glyph unicode="&#xf053;" d="M288 216v-216h-72v216h72zM720 612v-612h-72v612h72zM936 1008v-1008h-72v1008h72zM504 360v-360h-72v360h72zM72 144v-144h-72v144h72z" />
<glyph unicode="&#xf054;" d="M936 288h72v-288h-288v288h144v216h-324v-216h108v-288h-288v288h108v216h-324v-216h144v-288h-288v288h72v288h396v144h-108v288h288v-288h-108v-144h396v-288zM432 792h144v144h-144v-144zM216 216h-144v-144h144v144zM576 216h-144v-144h144v144zM936 72v144h-144 v-144h144z" />
<glyph unicode="&#xf055;" d="M684 684l-180 180v-720h-72v720l-180 -180l-54 54l270 270l270 -270zM936 288v-288h-936v288h72v-216h792v216h72z" />
<glyph unicode="&#xf056;" d="M252 468l180 -180v720h72v-720l180 180l54 -54l-270 -270l-270 270zM936 288v-288h-936v288h72v-216h792v216h72z" />
<glyph unicode="&#xf057;" d="M288 756q-15 0 -25.5 -10.5t-10.5 -25.5t10.5 -25.5t25.5 -10.5t25.5 10.5t10.5 25.5t-10.5 25.5t-25.5 10.5zM288 828q44 0 76 -32t32 -76t-32 -76t-76 -32t-76 32t-32 76t32 76t76 32zM752 580l256 -256v-324h-360v144h-144v130q-63 -22 -126 -22q-156 0 -267 111 t-111 267t111 267t267 111t267 -111t111 -267q0 -29 -4 -50zM936 72v222l-260 260q8 50 8 76q0 126 -90 216t-216 90t-216 -90t-90 -216t90 -216t216 -90q35 0 92.5 18t60.5 18h45v-144h144v-144h216z" />
<glyph unicode="&#xf058;" horiz-adv-x="1152" d="M864 864h288v-450q0 -48 -28.5 -91.5t-75 -73.5t-92 -50.5t-92.5 -33.5v-165h-864v1008h864v-144zM792 72v864h-720v-864h720zM1080 414v378h-216v-552q31 10 63.5 24.5t69.5 36.5t60 52t23 61z" />
<glyph unicode="&#xf059;" horiz-adv-x="864" d="M792 936h-720v-864h19l341 170l341 -170h19v864zM864 1008v-1008h-108l-324 162l-324 -162h-108v1008h864z" />
<glyph unicode="&#xf05a;" d="M576 299l360 51v501l-432 -72v143l-432 -50v-501l504 72v-144zM1008 936v-648l-504 -72v144l-432 -62v-298h-72v1008h72v-63l504 63v-144z" />
<glyph unicode="&#xf05b;" d="M864 360h72v-360h-936v936h360v-72h-288v-792h792v288zM504 1008h504v-504h-72v378l-594 -594l-54 54l594 594h-378v72z" />
<glyph unicode="&#xf05c;" d="M504 1008q208 0 356 -148t148 -356t-148 -356t-356 -148t-356 148t-148 356t148 356t356 148zM504 72q178 0 305 127t127 305t-127 305t-305 127t-305 -127t-127 -305t127 -305t305 -127zM360 612q-30 0 -51 21t-21 51t21 51t51 21t51 -21t21 -51t-21 -51t-51 -21z M648 612q-30 0 -51 21t-21 51t21 51t51 21t51 -21t21 -51t-21 -51t-51 -21zM756 504h72q0 -134 -95 -229t-229 -95t-229 95t-95 229h72q0 -104 74 -178t178 -74t178 74t74 178z" />
<glyph unicode="&#xf05d;" d="M504 1008q208 0 356 -148t148 -356t-148 -356t-356 -148t-356 148t-148 356t148 356t356 148zM504 72q178 0 305 127t127 305t-127 305t-305 127t-305 -127t-127 -305t127 -305t305 -127zM360 612q-30 0 -51 21t-21 51t21 51t51 21t51 -21t21 -51t-21 -51t-51 -21z M648 612q-30 0 -51 21t-21 51t21 51t51 21t51 -21t21 -51t-21 -51t-51 -21zM504 504q100 0 181.5 -55t118.5 -148l-66 -26q-29 71 -93 114t-141 43t-141 -43t-93 -114l-66 26q37 93 118.5 148t181.5 55z" />
<glyph unicode="&#xf05e;" d="M504 1008q208 0 356 -148t148 -356t-148 -356t-356 -148t-356 148t-148 356t148 356t356 148zM504 72q178 0 305 127t127 305t-127 305t-305 127t-305 -127t-127 -305t127 -305t305 -127zM360 612q-30 0 -51 21t-21 51t21 51t51 21t51 -21t21 -51t-21 -51t-51 -21z M648 612q-30 0 -51 21t-21 51t21 51t51 21t51 -21t21 -51t-21 -51t-51 -21zM216 360v72h576v-72h-576z" />
<glyph unicode="&#xf060;" d="M753 673l109 119h-133l-81 150l-81 -150h-132l108 -119l-46 -167l151 80l151 -80zM915 846l21 -53l-123 -135l51 -185l-41 -41l-175 93l-160 -85l-399 -429l-52 50l400 429l46 169l-123 134l21 53h154l87 162h52l87 -162h154z" />
<glyph unicode="&#xf061;" horiz-adv-x="864" d="M396 936h-225l-54 -432h306l-126 -432h45l387 576h-405zM486 1008l-72 -288h414v-54l-450 -666h-180l126 432h-288l72 576h378z" />
<glyph unicode="&#xf062;" horiz-adv-x="1152" d="M639 216q0 -26 -18.5 -44.5t-44.5 -18.5t-44.5 18.5t-18.5 44.5t18.5 44.5t44.5 18.5t44.5 -18.5t18.5 -44.5zM540 756h72l-9 -396h-54zM1008 72l60 78l-441 786h-99l-442 -786l58 -78h864zM666 1008l486 -864l-108 -144h-936l-108 144l486 864h180z" />
<glyph unicode="&#xf063;" d="M567 252q0 -26 -18.5 -44.5t-44.5 -18.5t-44.5 18.5t-18.5 44.5t18.5 44.5t44.5 18.5t44.5 -18.5t18.5 -44.5zM468 792h72l-9 -396h-54zM936 504q0 178 -127 305t-305 127t-305 -127t-127 -305t127 -305t305 -127t305 127t127 305zM1008 504q0 -208 -148 -356t-356 -148 t-356 148t-148 356t148 356t356 148t356 -148t148 -356z" />
<glyph unicode="&#xf064;" d="M576 936h-144v-234l-342 -558l45 -72h738l45 72l-342 558v234zM648 1008v-288l360 -576l-90 -144h-828l-90 144l360 576v288h288z" />
<glyph unicode="&#xf065;" d="M360 864l648 144v-792q0 -60 -63.5 -102t-152.5 -42t-152.5 42t-63.5 102t63.5 102t152.5 42q83 0 144 -37v372l-504 -112v-439q0 -60 -63.5 -102t-152.5 -42t-152.5 42t-63.5 102t63.5 102t152.5 42q83 0 144 -37v613zM216 72q61 0 102.5 24t41.5 48t-41.5 48t-102.5 24 t-102.5 -24t-41.5 -48t41.5 -48t102.5 -24zM792 144q61 0 102.5 24t41.5 48t-41.5 48t-102.5 24t-102.5 -24t-41.5 -48t41.5 -48t102.5 -24zM936 776v135l-504 -112v-135z" />
<glyph unicode="&#xf066;" d="M810 552l96 96l-258 258l-96 -96l54 -54l-198 -197q-45 17 -93 17q-89 0 -157 -53l365 -365q53 68 53 157q0 48 -17 93l197 198zM648 1008l360 -360l-198 -198l-54 54l-116 -116q8 -38 8 -73q0 -79 -30 -138.5t-93 -122.5l-208 208q-5 -5 -89 -91.5t-120 -116.5 q-1 -1 -50.5 -25.5t-57.5 -28.5q4 8 28.5 57.5t25.5 50.5q22 27 58.5 63.5t85.5 82.5t65 62l-209 209q63 63 122.5 93t138.5 30q35 0 73 -8l116 116l-54 54z" />
<glyph unicode="&#xf067;" horiz-adv-x="864" d="M432 82q54 30 109.5 68.5t115.5 90.5t97.5 112t37.5 115v315l-625 -501q100 -108 265 -200zM121 337l671 538v61h-720v-468q0 -62 49 -131zM864 1008v-540q0 -57 -31 -117.5t-77.5 -111t-107 -99t-114 -82t-102.5 -58.5q-49 25 -102.5 58.5t-114 82t-107 99t-77.5 111 t-31 117.5v540h864z" />
<glyph unicode="&#xf068;" horiz-adv-x="864" d="M792 360h-720l360 -270zM810 432l54 -108l-432 -324l-432 324l54 108h756zM432 846l-360 -270h720zM432 936l432 -324l-54 -108h-756l-54 108z" />
<glyph unicode="&#xf069;" d="M1008 180v-180h-72v180q0 134 -105.5 229t-254.5 95h-432l378 -378l-54 -54l-468 468l468 468l54 -54l-378 -378h432q178 0 305 -116t127 -280z" />
<glyph unicode="&#xf06a;" d="M0 0v180q0 164 127 280t305 116h432l-378 378l54 54l468 -468l-468 -468l-54 54l378 378h-432q-149 0 -254.5 -95t-105.5 -229v-180h-72z" />
<glyph unicode="&#xf06b;" horiz-adv-x="1152" d="M522 954l-414 -414l414 -414l-54 -54l-468 468l468 468zM720 576q178 0 305 -116t127 -280v-180h-72v180q0 134 -105.5 229t-254.5 95h-360l378 -378l-54 -54l-468 468l468 468l54 -54l-378 -378h360z" />
<glyph unicode="&#xf06c;" horiz-adv-x="1152" d="M432 576h360l-378 378l54 54l468 -468l-468 -468l-54 54l378 378h-360q-149 0 -254.5 -95t-105.5 -229v-180h-72v180q0 164 127 280t305 116zM1044 540l-414 414l54 54l468 -468l-468 -468l-54 54z" />
<glyph unicode="&#xf06d;" d="M576 144h-144q0 -30 21 -51t51 -21t51 21t21 51zM72 216h864v72q-59 0 -101.5 42.5t-42.5 101.5v207q0 120 -80 207.5t-197 89.5h-11q-118 2 -203 -83t-85 -205v-216q0 -59 -42.5 -101.5t-101.5 -42.5v-72zM1008 360v-216h-360q0 -59 -42.5 -101.5t-101.5 -42.5 t-101.5 42.5t-42.5 101.5h-360v216q5 0 22 -0.5t24.5 0t23 1.5t23.5 3.5t19.5 8t17 13t10 19.5t4.5 27v216q0 149 105.5 254.5t254.5 105.5q150 0 255 -109t105 -260v-207q0 -30 21 -51t51 -21h72z" />
<glyph unicode="&#xf06e;" horiz-adv-x="1152" d="M648 144h-144q0 -30 21 -51t51 -21t51 21t21 51zM186 216l645 560q-37 73 -105.5 116.5t-149.5 43.5q-119 0 -203.5 -84.5t-84.5 -203.5v-216q0 -59 -42.5 -101.5t-101.5 -42.5v-72h42zM1080 360v-216h-360q0 -59 -42.5 -101.5t-101.5 -42.5t-101.5 42.5t-42.5 101.5 h-109l83 72h602v72q-59 0 -101.5 42.5t-42.5 101.5v182l70 61q2 -24 2 -36v-207q0 -30 21 -51t51 -21h72zM1098 1008l54 -54l-1098 -954l-54 54l104 90h-32v216q5 0 22 -0.5t24.5 0t23 1.5t23.5 3.5t19.5 8t17 13t10 19.5t4.5 27v216q0 149 105.5 254.5t254.5 105.5 q97 0 180 -49t131 -134z" />
<glyph unicode="&#xf070;" d="M504 1008q208 0 356 -148t148 -356t-148 -356t-356 -148t-356 148t-148 356t148 356t356 148zM504 936q-178 0 -305 -127t-127 -305q0 -156 102 -279l609 609q-123 102 -279 102zM504 72q178 0 305 127t127 305q0 156 -102 279l-609 -609q123 -102 279 -102z" />
<glyph unicode="&#xf071;" horiz-adv-x="864" d="M432 288q-244 0 -360 71v-179q0 -32 46.5 -55.5t114 -33.5t118 -14.5t81.5 -4.5t81.5 4.5t118 14.5t114 33.5t46.5 55.5v179q-116 -71 -360 -71zM432 576q-244 0 -360 71v-179q0 -32 46.5 -55.5t113.5 -33.5t117.5 -14.5t82.5 -4.5t82.5 4.5t117.5 14.5t113.5 33.5 t46.5 55.5v179q-115 -71 -360 -71zM432 648q32 0 82.5 4.5t117.5 14.5t113.5 33.5t46.5 55.5v72q0 32 -46.5 55.5t-114 33.5t-118 14.5t-81.5 4.5t-81.5 -4.5t-118 -14.5t-114 -33.5t-46.5 -55.5v-72q0 -32 46.5 -55.5t113.5 -33.5t117.5 -14.5t82.5 -4.5zM432 1008 q57 0 118.5 -6.5t138.5 -23.5t126 -55.5t49 -94.5v-648q0 -38 -23.5 -68.5t-64 -49.5t-86 -32t-97.5 -19t-89.5 -8.5t-71.5 -2.5q-57 0 -118.5 6.5t-138.5 23.5t-126 55.5t-49 94.5v648q0 38 23.5 68.5t64 49.5t86 32t97.5 19t89.5 8.5t71.5 2.5z" />
<glyph unicode="&#xf072;" horiz-adv-x="1152" d="M990 288q0 -22 -16 -38t-38 -16t-38 16t-16 38t16 38t38 16t38 -16t16 -38zM72 144h1008v288h-1008v-288zM80 504h992l-180 360h-631zM1152 504v-432h-1152v432l216 432h720z" />
<glyph unicode="&#xf073;" horiz-adv-x="1152" d="M918 702l234 -234l-234 -234l-54 54l144 144h-378l-360 -360h-270v72h234l324 324l-324 324h-234v72h270l360 -360h378l-144 144z" />
<glyph unicode="&#xf074;" horiz-adv-x="1152" d="M918 306l54 54l180 -180l-180 -180l-54 54l90 90h-414l-288 288h-306v72h306l288 288h414l-90 90l54 54l180 -180l-180 -180l-54 54l90 90h-378l-252 -252l252 -252h378z" />
<glyph unicode="&#xf075;" horiz-adv-x="1152" d="M576 504q83 0 156.5 -35.5t123.5 -98.5l-50 -53q-40 53 -100.5 84t-129.5 31t-129.5 -31t-100.5 -84l-50 53q50 63 123.5 98.5t156.5 35.5zM576 720q125 0 237 -51t192 -141l-50 -53q-70 81 -169 127t-210 46t-210 -46t-169 -127l-50 53q80 90 192 141t237 51zM576 936 q166 0 315.5 -67t260.5 -185l-48 -51q-100 108 -237.5 169.5t-290.5 61.5t-290.5 -61.5t-237.5 -169.5l-48 51q111 118 260.5 185t315.5 67zM576 216q-15 0 -25.5 -10.5t-10.5 -25.5t10.5 -25.5t25.5 -10.5t25.5 10.5t10.5 25.5t-10.5 25.5t-25.5 10.5zM576 288 q45 0 76.5 -31.5t31.5 -76.5t-31.5 -76.5t-76.5 -31.5t-76.5 31.5t-31.5 76.5t31.5 76.5t76.5 31.5z" />
<glyph unicode="&#xf076;" horiz-adv-x="1152" d="M432 205l306 349l-306 -232v-117zM950 235l108 645l-860 -430l207 -59l603 419l-385 -481zM0 432l1152 576l-144 -864l-434 124l-214 -268v329z" />
<glyph unicode="&#xf077;" horiz-adv-x="1152" d="M72 144h1008v288h-270l-72 -72h-324l-72 72h-270v-288zM774 504h298l-180 360h-631l-181 -360h298l72 -72h252zM1152 504v-432h-1152v432l216 432h720z" />
<glyph unicode="&#xf078;" horiz-adv-x="864" d="M460 908q8 -27 8 -51q0 -37 -18.5 -68.5t-46.5 -53t-61 -46t-61 -47t-46.5 -57t-18.5 -75.5q0 -85 53 -155.5t135 -110.5q-8 27 -8 51q0 37 18.5 68.5t46.5 53t61 46t61 47t46.5 57t18.5 75.5q0 85 -53 155.5t-135 110.5zM501 197l-39 -53q-131 35 -224.5 136t-93.5 230 q0 59 26 107.5t63 79t74 56t63 51.5t26 53q0 41 -33 98l39 53q131 -35 224.5 -136t93.5 -230q0 -59 -26 -107.5t-63 -79t-74 -56t-63 -51.5t-26 -53q0 -41 33 -98zM864 72v-72h-864v72h864z" />
<glyph unicode="&#xf079;" horiz-adv-x="864" d="M72 914v-820l710 410zM54 1008l810 -468v-72l-810 -468l-54 36v936z" />
<glyph unicode="&#xf07a;" horiz-adv-x="432" d="M432 1008v-1008h-72v1008h72zM72 1008v-1008h-72v1008h72z" />
<glyph unicode="&#xf07b;" d="M504 936q-178 0 -305 -127t-127 -305t127 -305t305 -127t305 127t127 305t-127 305t-305 127zM504 1008q208 0 356 -148t148 -356t-148 -356t-356 -148t-356 148t-148 356t148 356t356 148zM432 647v-286l220 143zM396 756l360 -234v-36l-360 -234l-36 18v468z" />
<glyph unicode="&#xf07c;" horiz-adv-x="720" d="M648 1008h72v-1008h-72v468l-594 -468l-54 36v936l54 36l594 -468v468zM576 504l-504 398v-796z" />
<glyph unicode="&#xf07d;" horiz-adv-x="720" d="M648 902l-504 -398l504 -398v796zM0 1008h72v-468l594 468l54 -36v-936l-54 -36l-594 468v-468h-72v1008z" />
<glyph unicode="&#xf07e;" horiz-adv-x="1152" d="M756 1008l252 -252l-252 -252l-54 54l162 162h-576q-89 0 -152.5 -63.5t-63.5 -152.5q0 -92 66 -156l-51 -51q-87 82 -87 207q0 119 84.5 203.5t203.5 84.5h576l-162 162zM1065 711q87 -82 87 -207q0 -119 -84.5 -203.5t-203.5 -84.5h-576l162 -162l-54 -54l-252 252 l252 252l54 -54l-162 -162h576q89 0 152.5 63.5t63.5 152.5q0 92 -66 156z" />
<glyph unicode="&#xf080;" horiz-adv-x="1152" d="M576 972l54 36l522 -468v-72l-522 -468l-54 36v432l-522 -468l-54 36v936l54 36l522 -468v432zM504 504l-432 391v-782zM648 895v-782l432 391z" />
<glyph unicode="&#xf081;" horiz-adv-x="1152" d="M504 113v782l-432 -391zM1080 895l-432 -391l432 -391v782zM522 1008l54 -36v-432l522 468l54 -36v-936l-54 -36l-522 468v-432l-54 -36l-522 468v72z" />
<glyph unicode="&#xf082;" horiz-adv-x="576" d="M432 864h-69l-144 -216h-147v-288h147l144 -216h69v720zM504 936v-864h-180l-144 216h-180v432h180l144 216h180z" />
<glyph unicode="&#xf083;" horiz-adv-x="1152" d="M1098 792l54 -54l-234 -234l234 -234l-54 -54l-234 234l-234 -234l-54 54l234 234l-234 234l54 54l234 -234zM432 864h-69l-144 -216h-147v-288h147l144 -216h69v720zM504 936v-864h-180l-144 216h-180v432h180l144 216h180z" />
<glyph unicode="&#xf084;" horiz-adv-x="1152" d="M949 1004q97 -100 150 -230t53 -270q0 -139 -52.5 -269t-149.5 -231l-51 51q87 90 134 207t47 242t-47.5 242t-134.5 207zM797 852q67 -71 103 -161t36 -187t-36 -187t-103 -160l-51 51q56 59 87 136.5t31 159.5t-31 159.5t-87 136.5zM644 699q76 -82 76 -195 q0 -112 -75 -195l-52 52q55 60 55 143q0 82 -55 143zM432 864h-69l-144 -216h-147v-288h147l144 -216h69v720zM504 936v-864h-180l-144 216h-180v432h180l144 216h180z" />
<glyph unicode="&#xf085;" horiz-adv-x="720" d="M644 699q76 -82 76 -195q0 -112 -75 -195l-52 52q55 60 55 143q0 82 -55 143zM432 864h-69l-144 -216h-147v-288h147l144 -216h69v720zM504 936v-864h-180l-144 216h-180v432h180l144 216h180z" />
<glyph unicode="&#xf086;" horiz-adv-x="1152" d="M360 144v-72h-360v360h72v-288h288zM360 936v-72h-288v-288h-72v360h360zM1152 432v-360h-360v72h288v288h72zM1152 936v-360h-72v288h-288v72h360z" />
<glyph unicode="&#xf087;" horiz-adv-x="1152" d="M360 432v-360h-72v288h-288v72h360zM360 936v-360h-360v72h288v288h72zM1152 648v-72h-360v360h72v-288h288zM864 360v-288h-72v360h360v-72h-288z" />
<glyph unicode="&#xf088;" horiz-adv-x="1152" d="M1080 864h-1008v-720h1008v720zM1152 936v-864h-1152v864h1152zM480 424l60 -40q-30 -44 -77.5 -70t-102.5 -26q-89 0 -152.5 63.5t-63.5 152.5t63.5 152.5t152.5 63.5q55 0 102.5 -26t77.5 -70l-60 -40q-43 64 -120 64q-60 0 -102 -42t-42 -102t42 -102t102 -42 q77 0 120 64zM912 424l60 -40q-30 -44 -77.5 -70t-102.5 -26q-89 0 -152.5 63.5t-63.5 152.5t63.5 152.5t152.5 63.5q55 0 102.5 -26t77.5 -70l-60 -40q-43 64 -120 64q-60 0 -102 -42t-42 -102t42 -102t102 -42q77 0 120 64z" />
<glyph unicode="&#xf089;" horiz-adv-x="1152" d="M270 792l180 -180l-54 -54l-162 162h-234v72h270zM918 486l234 -234l-234 -234l-54 54l144 144h-270l-180 180l54 54l162 -162h234l-144 144zM918 990l234 -234l-234 -234l-54 54l144 144h-234l-504 -504h-270v72h234l504 504h270l-144 144z" />
<glyph unicode="&#xf08a;" horiz-adv-x="1152" d="M1008 72l60 78l-441 786h-99l-442 -786l58 -78h864zM666 1008l486 -864l-108 -144h-936l-108 144l486 864h180z" />
<glyph unicode="&#xf08b;" d="M72 72h864v864h-864v-864zM1008 1008v-1008h-1008v1008h1008z" />
<glyph unicode="&#xf08c;" d="M504 936q-178 0 -305 -127t-127 -305t127 -305t305 -127t305 127t127 305t-127 305t-305 127zM504 1008q208 0 356 -148t148 -356t-148 -356t-356 -148t-356 148t-148 356t148 356t356 148z" />
<glyph unicode="&#xf08d;" horiz-adv-x="1152" d="M822 936h-492l-247 -432l247 -432h492l247 432zM864 1008l288 -504l-288 -504h-576l-288 504l288 504h576z" />
<glyph unicode="&#xf08e;" d="M683 936h-358l-253 -253v-358l253 -253h358l253 253v358zM713 1008l295 -295v-418l-295 -295h-418l-295 295v418l295 295h418z" />
<glyph unicode="&#xf090;" d="M504 774l504 -504l-54 -54l-450 450l-450 -450l-54 54z" />
<glyph unicode="&#xf091;" d="M504 234l-504 504l54 54l450 -450l450 450l54 -54z" />
<glyph unicode="&#xf092;" horiz-adv-x="576" d="M18 504l504 504l54 -54l-450 -450l450 -450l-54 -54z" />
<glyph unicode="&#xf093;" horiz-adv-x="576" d="M54 1008l504 -504l-504 -504l-54 54l450 450l-450 450z" />
<glyph unicode="&#xf094;" d="M504 576l504 -450l-54 -54l-450 396l-450 -396l-54 54zM504 936l504 -450l-54 -54l-450 396l-450 -396l-54 54z" />
<glyph unicode="&#xf095;" d="M1008 522l-504 -450l-504 450l54 54l450 -396l450 396zM1008 882l-504 -450l-504 450l54 54l450 -396l450 396z" />
<glyph unicode="&#xf096;" horiz-adv-x="864" d="M108 504l396 -450l-54 -54l-450 504l450 504l54 -54zM468 504l396 -450l-54 -54l-450 504l450 504l54 -54z" />
<glyph unicode="&#xf097;" horiz-adv-x="864" d="M54 1008l450 -504l-450 -504l-54 54l396 450l-396 450zM414 1008l450 -504l-450 -504l-54 54l396 450l-396 450z" />
<glyph unicode="&#xf098;" d="M0 486l504 504l504 -504l-54 -54l-414 414v-846h-72v846l-414 -414z" />
<glyph unicode="&#xf099;" d="M1008 522l-504 -504l-504 504l54 54l414 -414v846h72v-846l414 414z" />
<glyph unicode="&#xf09a;" d="M522 0l-504 504l504 504l54 -54l-414 -414h846v-72h-846l414 -414z" />
<glyph unicode="&#xf09b;" d="M486 1008l504 -504l-504 -504l-54 54l414 414h-846v72h846l-414 414z" />
<glyph unicode="&#xf09c;" d="M72 288v-288h-72v288h72zM288 792v-792h-72v792h72zM504 576v-576h-72v576h72zM720 432v-432h-72v432h72zM936 1008v-1008h-72v1008h72z" />
<glyph unicode="&#xf09d;" d="M785 360h-425v425q-125 -25 -206.5 -125t-81.5 -228q0 -148 106 -254t254 -106q128 0 228 81.5t125 206.5zM576 576h354q-22 135 -120.5 233.5t-233.5 120.5v-354zM432 432h432q0 -178 -127 -305t-305 -127t-305 127t-127 305t127 305t305 127v-432zM1008 504h-504v504 q208 0 356 -148t148 -356z" />
<glyph unicode="&#xf09e;" />
<glyph unicode="&#xf0a0;" d="M0 504q0 208 148 356t356 148t356 -148t148 -356t-148 -356t-356 -148t-356 148t-148 356zM936 504q0 178 -127 305t-305 127t-305 -127t-127 -305t127 -305t305 -127t305 127t127 305zM504 825l-313 -314l50 -50l227 226v-471h72v471l209 -208l50 50z" />
<glyph unicode="&#xf0a1;" d="M1008 504q0 -208 -148 -356t-356 -148t-356 148t-148 356t148 356t356 148t356 -148t148 -356zM72 504q0 -178 127 -305t305 -127t305 127t127 305t-127 305t-305 127t-305 -127t-127 -305zM504 183l313 314l-50 50l-227 -226v471h-72v-471l-209 208l-50 -50z" />
<glyph unicode="&#xf0a2;" d="M497 817l-314 -313l296 -295l50 50l-208 209h471v72h-471l226 227zM504 72q178 0 305 127t127 305t-127 305t-305 127t-305 -127t-127 -305t127 -305t305 -127zM504 1008q208 0 356 -148t148 -356t-148 -356t-356 -148t-356 148t-148 356t148 356t356 148z" />
<glyph unicode="&#xf0a3;" d="M504 1008q208 0 356 -148t148 -356t-148 -356t-356 -148t-356 148t-148 356t148 356t356 148zM504 72q178 0 305 127t127 305t-127 305t-305 127t-305 -127t-127 -305t127 -305t305 -127zM825 504l-314 313l-50 -50l226 -227h-471v-72h471l-208 -209l50 -50z" />
<glyph unicode="&#xf0a4;" horiz-adv-x="864" d="M432 654l-360 -366h720zM432 756l432 -432l-54 -108h-756l-54 108z" />
<glyph unicode="&#xf0a5;" horiz-adv-x="864" d="M432 282l360 366h-720zM810 720l54 -108l-432 -432l-432 432l54 108h756z" />
<glyph unicode="&#xf0a6;" horiz-adv-x="576" d="M138 504l366 -360v720zM576 882v-756l-108 -54l-432 432l432 432z" />
<glyph unicode="&#xf0a7;" horiz-adv-x="576" d="M72 144l366 360l-366 360v-720zM108 936l432 -432l-432 -432l-108 54v756z" />
<glyph unicode="&#xf0a8;" horiz-adv-x="576" d="M36 756l252 252l252 -252l-54 -54l-162 162v-864h-72v864l-162 -162z" />
<glyph unicode="&#xf0a9;" horiz-adv-x="576" d="M288 0l-252 252l54 54l162 -162v864h72v-864l162 162l54 -54z" />
<glyph unicode="&#xf0aa;" d="M0 504l252 252l54 -54l-162 -162h864v-72h-864l162 -162l-54 -54z" />
<glyph unicode="&#xf0ab;" d="M756 756l252 -252l-252 -252l-54 54l162 162h-864v72h864l-162 162z" />
<glyph unicode="&#xf0ac;" horiz-adv-x="864" d="M720 288q0 89 -63.5 152.5t-152.5 63.5h-432v-432h432q89 0 152.5 63.5t63.5 152.5zM684 756q0 74 -53 127t-127 53h-432v-360h432q74 0 127 53t53 127zM792 288q0 -119 -84.5 -203.5t-203.5 -84.5h-504v1008h504q104 0 178 -74t74 -178q0 -75 -40.5 -132t-108.5 -83 q83 -29 134 -96t51 -157z" />
<glyph unicode="&#xf0ad;" horiz-adv-x="720" d="M694 936h-138l-315 -864h142l-26 -72h-357l26 72h138l315 864h-142l26 72h357z" />
<glyph unicode="&#xf0ae;" horiz-adv-x="720" d="M720 72v-72h-720v72h720zM720 1008v-504q0 -149 -105.5 -254.5t-254.5 -105.5t-254.5 105.5t-105.5 254.5v504h72v-504q0 -119 84.5 -203.5t203.5 -84.5t203.5 84.5t84.5 203.5v504h72z" />
<glyph unicode="&#xf0b0;" d="M514 708q91 -27 148.5 -104t57.5 -172q0 -38 -10.5 -74t-24.5 -62.5t-41 -59t-46 -51t-54 -51.5t-52 -50q-86 -84 -204 -84q-119 0 -203.5 84.5t-84.5 203.5q0 30 5 57t17 52t22 43t31.5 42t34.5 37t41 40t40 39l50 -51q-12 -12 -38 -36.5t-40 -38.5t-34 -38t-30.5 -44 t-18.5 -47t-8 -55q0 -89 63.5 -152.5t152.5 -63.5q88 0 153 63l144 144q63 65 63 153q0 71 -43 129t-111 78zM720 1008q119 0 203.5 -84.5t84.5 -203.5q0 -30 -5 -57t-17 -52t-22 -43t-31.5 -42t-34.5 -37t-41 -40t-40 -39l-50 51q12 12 38 36.5t40 38.5t34 38t30.5 44 t18.5 47t8 55q0 89 -63.5 152.5t-152.5 63.5q-88 0 -153 -63l-144 -144q-63 -65 -63 -153q0 -71 43 -129t111 -78l-20 -69q-91 27 -148.5 104t-57.5 172q0 38 10.5 74t24.5 62.5t41 59t46 51t54 51.5t52 50q86 84 204 84z" />
<glyph unicode="&#xf0b1;" d="M288 0q-119 0 -203.5 84.5t-84.5 203.5q0 118 84 204l432 432q86 84 204 84q119 0 203.5 -84.5t84.5 -203.5q0 -118 -84 -204l-51 51q63 65 63 153q0 89 -63.5 152.5t-152.5 63.5q-88 0 -153 -63l-432 -432q-63 -65 -63 -153q0 -89 63.5 -152.5t152.5 -63.5q88 0 153 63 l298 298q45 47 45 109q0 63 -45 108t-109 45t-109 -45l-208 -207q-26 -26 -26 -65q0 -38 26.5 -64.5t64.5 -26.5q39 0 65 26l190 191l51 -51l-191 -190q-46 -48 -115 -48q-68 0 -115.5 47.5t-47.5 115.5q0 69 48 115l207 208q68 66 160 66q94 0 160 -66t66 -159 q0 -94 -66 -160l-298 -298q-86 -84 -204 -84z" />
<glyph unicode="&#xf0b2;" d="M648 648h-648v72h648v-72zM648 216h-648v72h648v-72zM1008 0h-1008v72h1008v-72zM1008 432h-1008v72h1008v-72zM1008 864h-1008v72h1008v-72z" />
<glyph unicode="&#xf0b3;" d="M792 648h-576v72h576v-72zM792 216h-576v72h576v-72zM1008 0h-1008v72h1008v-72zM1008 432h-1008v72h1008v-72zM1008 864h-1008v72h1008v-72z" />
<glyph unicode="&#xf0b4;" d="M1008 648h-648v72h648v-72zM1008 216h-648v72h648v-72zM1008 0h-1008v72h1008v-72zM1008 432h-1008v72h1008v-72zM1008 864h-1008v72h1008v-72z" />
<glyph unicode="&#xf0b5;" d="M1008 648h-1008v72h1008v-72zM1008 216h-1008v72h1008v-72zM1008 0h-1008v72h1008v-72zM1008 432h-1008v72h1008v-72zM1008 864h-1008v72h1008v-72z" />
<glyph unicode="&#xf0b6;" d="M1008 987l-483 -483l483 -483q-21 -21 -51 -21t-51 21l-432 432l-95 -95q53 -61 53 -142q0 -89 -63.5 -152.5t-152.5 -63.5t-152.5 63.5t-63.5 152.5t63.5 152.5t152.5 63.5q57 0 107 -28l100 100l-100 100q-50 -28 -107 -28q-89 0 -152.5 63.5t-63.5 152.5t63.5 152.5 t152.5 63.5t152.5 -63.5t63.5 -152.5q0 -81 -53 -142l95 -95l432 432q21 21 51 21t51 -21zM72 792q0 -59 42.5 -101.5t101.5 -42.5t101.5 42.5t42.5 101.5t-42.5 101.5t-101.5 42.5t-101.5 -42.5t-42.5 -101.5zM216 72q59 0 101.5 42.5t42.5 101.5t-42.5 101.5t-101.5 42.5 t-101.5 -42.5t-42.5 -101.5t42.5 -101.5t101.5 -42.5z" />
<glyph unicode="&#xf0b7;" d="M216 1008h792v-792h-216v-216h-792v792h216v216zM720 72v144h-504v504h-144v-648h648zM936 288v648h-648v-648h648z" />
<glyph unicode="&#xf0b8;" horiz-adv-x="864" d="M432 648q-64 0 -113.5 41t-62.5 103h-184v-720h720v720h-184q-13 -62 -62.5 -103t-113.5 -41zM432 720q44 0 76 32t32 76t-32 76t-76 32t-76 -32t-32 -76t32 -76t76 -32zM432 1008q64 0 113.5 -41t62.5 -103h256v-864h-864v864h256q13 62 62.5 103t113.5 41z" />
<glyph unicode="&#xf0b9;" horiz-adv-x="1152" d="M1080 864h-1008v-720h1008v720zM1152 936v-864h-1152v864h1152zM900 720q-15 0 -25.5 -10.5t-10.5 -25.5t10.5 -25.5t25.5 -10.5t25.5 10.5t10.5 25.5t-10.5 25.5t-25.5 10.5zM900 792q44 0 76 -32t32 -76t-32 -76t-76 -32t-76 32t-32 76t32 76t76 32zM396 618l-180 -180 v-150h720v6l-180 180l-108 -108zM396 720l252 -252l108 108l252 -252v-108h-864v252z" />
<glyph unicode="&#xf0ba;" horiz-adv-x="1152" d="M0 936h1152v-864h-1152v864zM72 792v-288h468v288h-468zM72 144h468v288h-468v-288zM1080 144v288h-468v-288h468zM1080 504v288h-468v-288h468z" />
<glyph unicode="&#xf0bb;" horiz-adv-x="1152" d="M1080 432v72h-792v-72h792zM1080 792v72h-792v-72h792zM1080 72v72h-792v-72h792zM108 873q-18 0 -31.5 -13.5t-13.5 -31.5t13.5 -31.5t31.5 -13.5t31.5 13.5t13.5 31.5t-13.5 31.5t-31.5 13.5zM108 936q44 0 76 -32t32 -76t-32 -76t-76 -32t-76 32t-32 76t32 76t76 32z M108 513q-18 0 -31.5 -13.5t-13.5 -31.5t13.5 -31.5t31.5 -13.5t31.5 13.5t13.5 31.5t-13.5 31.5t-31.5 13.5zM108 576q44 0 76 -32t32 -76t-32 -76t-76 -32t-76 32t-32 76t32 76t76 32zM108 153q-18 0 -31.5 -13.5t-13.5 -31.5t13.5 -31.5t31.5 -13.5t31.5 13.5t13.5 31.5 t-13.5 31.5t-31.5 13.5zM108 216q44 0 76 -32t32 -76t-32 -76t-76 -32t-76 32t-32 76t32 76t76 32z" />
<glyph unicode="&#xf0bc;" horiz-adv-x="1152" d="M216 936v-432h-72v327l-65 -64l-50 50l118 119h69zM288 72v-72h-270v72q64 48 131 115t67 110q0 29 -21.5 46t-50.5 17q-28 0 -44 -13t-34 -43l-60 40q28 45 59 66.5t79 21.5q60 0 102 -38t42 -97q0 -92 -155 -225h155zM360 144v-72h792v72h-792zM360 864v-72h792v72 h-792zM360 504v-72h792v72h-792z" />
<glyph unicode="&#xf0bd;" d="M0 270l72 -36l216 270l-216 270l-72 -36v-468zM196 504l-124 -155v310zM1008 648h-576v72h576v-72zM1008 216h-576v72h576v-72zM1008 0h-1008v72h1008v-72zM1008 432h-576v72h576v-72zM1008 864h-1008v72h1008v-72z" />
<glyph unicode="&#xf0be;" d="M92 468l124 -155v310zM1008 72v-72h-1008v72h1008zM288 702v-468l-72 -36l-216 270l216 270zM1008 288v-72h-576v72h576zM1008 504v-72h-576v72h576zM1008 720v-72h-576v72h576zM1008 936v-72h-1008v72h1008z" />
<glyph unicode="&#xf0c0;" d="M504 1008q208 0 356 -148t148 -356t-148 -356t-356 -148q-135 0 -252.5 68.5t-184.5 185.5l62 36q58 -101 158.5 -159.5t216.5 -58.5q178 0 305 127t127 305t-127 305t-305 127q-115 0 -215.5 -58t-158.5 -158h230v-72h-360v360h72v-245q68 114 183.5 179.5t248.5 65.5z " />
<glyph unicode="&#xf0c1;" d="M504 1008q133 0 248.5 -65.5t183.5 -179.5v245h72v-360h-360v72h230q-58 100 -158.5 158t-215.5 58q-178 0 -305 -127t-127 -305t127 -305t305 -127q116 0 216.5 58.5t158.5 159.5l62 -36q-67 -117 -184.5 -185.5t-252.5 -68.5q-102 0 -195.5 40t-161 107.5t-107.5 161 t-40 195.5q0 208 148 356t356 148z" />
<glyph unicode="&#xf0c2;" d="M1008 576v-72h-324v71q36 30 86 75t108 108.5t58 87.5q0 38 -26 64t-64 26q-64 0 -110 -70l-60 40q67 102 170 102q68 0 115 -47t47 -115q0 -81 -212 -270h212zM369 324l243 324h-90l-198 -261l-198 261h-90l243 -324l-243 -324h90l198 261l198 -261h90z" />
<glyph unicode="&#xf0c3;" d="M612 1008l-243 -324l243 -324h-90l-198 261l-198 -261h-90l243 324l-243 324h90l198 -261l198 261h90zM1008 0v72h-212q212 189 212 270q0 68 -47 115t-115 47q-103 0 -170 -102l60 -40q46 70 110 70q38 0 64 -26t26 -64q0 -24 -58 -87.5t-108 -108.5t-86 -75v-71h324z " />
<glyph unicode="&#xf0c4;" horiz-adv-x="1152" d="M288 72h-72v504h-216v72h504v-72h-216v-504zM792 72h-72v792h-360v72h792v-72h-360v-792z" />
<glyph unicode="&#xf0c5;" d="M1008 0v72h-1008v-72h1008zM188 216h-79l354 792h82l354 -792h-79l-64 144h-504zM504 924l-220 -492h440z" />
<glyph unicode="&#xf0c6;" d="M1008 378l-162 -162l162 -162l-54 -54l-162 162l-162 -162l-54 54l162 162l-162 162l54 54l162 -162l162 162zM890 1008l-26 -72h-285l-236 -648h-77l236 648h-286l26 72h648zM0 144l26 72h540l-26 -72h-540z" />
<glyph unicode="&#xf0c7;" d="M532 73q-27 25 -27 65v113q-73 54 -73 111q-101 12 -174 85l-27 27q-87 89 -87 210q0 33 8 70q-80 -112 -80 -250q0 -178 127 -305t305 -127q19 0 28 1zM720 396v36q0 24 -40 42t-75 24q-32 6 -65 6h-72q-44 0 -76 32t-32 76t32 76t76 32h36v-54q0 -15 10.5 -25.5 t25.5 -10.5t25.5 10.5t10.5 25.5v69l51 51q21 21 21 51q0 28 -17 55t-43 36q-27 8 -84 8q-86 0 -145 -25q-64 -28 -103.5 -92t-39.5 -135q0 -93 66 -159l27 -27q64 -66 159 -66h36v-72q0 -14 26 -36t47 -34v-152q0 -18 18 -18q11 0 16 11l105 244q4 9 4 21zM468 576h12 q-31 21 -42 55q-6 -7 -6 -19q0 -15 10.5 -25.5t25.5 -10.5zM936 504q0 118 -59.5 219t-162.5 158q6 -21 6 -44q0 -29 -11 -54t-23 -38.5t-38 -39.5v-39q0 -61 -54 -94q31 -4 62.5 -13t63.5 -25t52 -42.5t20 -59.5q0 -61 -10 -85l-101 -237q116 53 185.5 160t69.5 234z M1008 504q0 -208 -148 -356t-356 -148t-356 148t-148 356t148 356t356 148t356 -148t148 -356z" />
<glyph unicode="&#xf0c8;" horiz-adv-x="1152" d="M306 324q0 -22 -16 -38t-38 -16t-38 16t-16 38t16 38t38 16t38 -16t16 -38zM378 540q0 -22 -16 -38t-38 -16t-38 16t-16 38t16 38t38 16t38 -16t16 -38zM594 612q0 -22 -16 -38t-38 -16t-38 16t-16 38t16 38t38 16t38 -16t16 -38zM879 612l82 -83l-50 -50l-83 82l-83 -82 l-50 50l82 83l-82 83l50 50l83 -82l83 82l50 -50zM753 221l327 -105v713l-338 103l-344 -145l-326 118v-710l340 -118zM1152 882v-864l-396 126l-342 -144l-414 144v864l396 -144l342 144z" />
<glyph unicode="&#xf0c9;" d="M504 90l414 828l-828 -414h414v-414zM936 1008l72 -72l-468 -936h-108v432h-432v108z" />
<glyph unicode="&#xf0ca;" horiz-adv-x="720" d="M432 648q0 30 -21 51t-51 21t-51 -21t-21 -51t21 -51t51 -21t51 21t21 51zM504 648q0 -60 -42 -102t-102 -42t-102 42t-42 102t42 102t102 42t102 -42t42 -102zM648 648q0 119 -84.5 203.5t-203.5 84.5t-203.5 -84.5t-84.5 -203.5q0 -73 31 -128l246 -448h22l246 448 q31 55 31 128zM720 648q0 -90 -39 -162l-267 -486h-108l-267 486q-39 72 -39 162q0 149 105.5 254.5t254.5 105.5t254.5 -105.5t105.5 -254.5z" />
<glyph unicode="&#xf0cb;" horiz-adv-x="576" d="M270 792q0 -22 -16 -38t-38 -16t-38 16t-16 38t16 38t38 16t38 -16t16 -38zM504 720q0 89 -63.5 152.5t-152.5 63.5t-152.5 -63.5t-63.5 -152.5t63.5 -152.5t152.5 -63.5t152.5 63.5t63.5 152.5zM576 720q0 -110 -72.5 -191t-179.5 -95v-434h-72v434q-107 14 -179.5 95 t-72.5 191q0 119 84.5 203.5t203.5 84.5t203.5 -84.5t84.5 -203.5z" />
<glyph unicode="&#xf0cc;" horiz-adv-x="1152" d="M504 72h144v288h-144v-288zM720 72h216v571l-360 275l-360 -275v-571h216v360h288v-360zM1008 678l144 -109l-43 -58l-101 77v-588h-864v588l-101 -77l-43 58l576 439l360 -275v131h72v-186z" />
<glyph unicode="&#xf0cd;" horiz-adv-x="864" d="M360 576v-144h-144v144h144zM360 792v-144h-144v144h144zM648 576v-144h-144v144h144zM648 792v-144h-144v144h144zM504 72h288v864h-720v-864h288v216h144v-216zM864 1008v-1008h-864v1008h864z" />
<glyph unicode="&#xf0ce;" d="M216 377v559h-144v-864h864v521l-360 -216v216zM288 1008v-504l360 216v-216l360 216v-720h-1008v1008h288z" />
<glyph unicode="&#xf0d0;" horiz-adv-x="1152" d="M1152 216h-428l26 -144h114v-72h-576v72h114l26 144h-428v792h1152v-792zM72 936v-648h1008v648h-1008zM677 72l-26 144h-150l-26 -144h202z" />
<glyph unicode="&#xf0d1;" horiz-adv-x="1152" d="M1008 936v-720h-864v720h864zM936 288v576h-720v-576h720zM0 144h1152v-72h-1152v72z" />
<glyph unicode="&#xf0d2;" horiz-adv-x="864" d="M0 1008h864v-1008h-864v1008zM432 36q15 0 25.5 10.5t10.5 25.5t-10.5 25.5t-25.5 10.5t-25.5 -10.5t-10.5 -25.5t10.5 -25.5t25.5 -10.5zM792 144v720h-720v-720h720z" />
<glyph unicode="&#xf0d3;" horiz-adv-x="576" d="M0 1008h576v-1008h-576v1008zM288 36q15 0 25.5 10.5t10.5 25.5t-10.5 25.5t-25.5 10.5t-25.5 -10.5t-10.5 -25.5t10.5 -25.5t25.5 -10.5zM504 144v720h-432v-720h432z" />
<glyph unicode="&#xf0d4;" horiz-adv-x="1152" d="M0 216v720h1152v-720h-540v-72h252v-72h-576v72h252v72h-540zM72 864v-576h1008v576h-1008z" />
<glyph unicode="&#xf0d5;" d="M504 936q-178 0 -305 -127t-127 -305t127 -305t305 -127t305 127t127 305t-127 305t-305 127zM504 1008q208 0 356 -148t148 -356t-148 -356t-356 -148t-356 148t-148 356t148 356t356 148zM504 612q-45 0 -76.5 -31.5t-31.5 -76.5t31.5 -76.5t76.5 -31.5t76.5 31.5 t31.5 76.5t-31.5 76.5t-76.5 31.5zM504 684q74 0 127 -53t53 -127t-53 -127t-127 -53t-127 53t-53 127t53 127t127 53z" />
<glyph unicode="&#xf0d6;" d="M909 72l21 98l-318 91v119q84 40 132 108.5t48 159.5q0 118 -85 203t-203 85t-203 -85t-85 -203q0 -91 48 -159.5t132 -108.5v-119l-318 -91l21 -98h810zM684 315l324 -94l-40 -221h-928l-40 221l324 94v22q-83 48 -131.5 131t-48.5 180q0 148 106 254t254 106t254 -106 t106 -254q0 -97 -48.5 -180t-131.5 -131v-22z" />
<glyph unicode="&#xf0d7;" d="M909 72l21 98l-318 91v157q172 22 230 62q-16 8 -28 16.5t-19.5 22t-12 20.5t-6.5 26.5t-2.5 24.5t0 29.5t0.5 28.5q0 116 -77.5 202t-192.5 86t-192.5 -86t-77.5 -202q0 -8 1.5 -26t1.5 -26q0 -36 -19 -68t-52 -48q58 -40 230 -62v-157l-318 -91l21 -98h810zM684 315 l324 -94l-40 -221h-928l-40 221l324 94v40q-38 6 -73 15t-80 26t-72 45t-27 63v36q23 0 38.5 1t25.5 6.5t15.5 8t8 15.5t3 18.5t0 27t-0.5 31.5q0 145 99 252.5t243 107.5t243 -107.5t99 -252.5q0 -8 -1.5 -26t-1.5 -26q0 -26 15 -39.5t29.5 -15t42.5 -1.5h6v-36 q0 -35 -27 -63t-72 -45t-80 -26t-73 -15v-40z" />
<glyph unicode="&#xf0d8;" horiz-adv-x="1152" d="M1008 936q59 0 101.5 -42.5t42.5 -101.5q0 -38 -19.5 -71.5t-52.5 -53.5v-595h-1008v595q-33 20 -52.5 53.5t-19.5 71.5q0 59 42.5 101.5t101.5 42.5t101.5 -42.5t42.5 -101.5q0 -44 -24.5 -80.5t-64.5 -52.5l174 -241l147 241q-40 16 -64 52.5t-24 80.5q0 59 42.5 101.5 t101.5 42.5t101.5 -42.5t42.5 -101.5q0 -44 -24 -80.5t-64 -52.5l147 -241l174 241q-40 16 -64.5 52.5t-24.5 80.5q0 59 42.5 101.5t101.5 42.5zM504 792q0 -30 21 -51t51 -21t51 21t21 51t-21 51t-51 21t-51 -21t-21 -51zM72 792q0 -30 21 -51t51 -21t51 21t21 51t-21 51 t-51 21t-51 -21t-21 -51zM1008 144v468l-234 -324l-198 324l-198 -324l-234 324v-468h864zM1008 720q30 0 51 21t21 51t-21 51t-51 21t-51 -21t-21 -51t21 -51t51 -21z" />
<glyph unicode="&#xf0d9;" horiz-adv-x="1152" d="M0 936h1152v-864h-1152v864zM1080 144v432h-1008v-432h1008zM1080 720v144h-1008v-144h1008zM648 288v-72h-288v72h288zM288 288v-72h-144v72h144z" />
<glyph unicode="&#xf0da;" horiz-adv-x="1152" d="M576 432v-432h-72v432h72zM1080 576v-72h-1080v72h1080zM1008 1008v-72h-432v-288h-72v288h-432v72h936z" />
<glyph unicode="&#xf0db;" d="M117 360h774l-387 400zM1008 144v-72h-1008v72h1008zM504 864l504 -522l-36 -54h-936l-36 54z" />
<glyph unicode="&#xf0dc;" horiz-adv-x="1152" d="M180 576q-44 0 -76 -32t-32 -76t32 -76t76 -32t76 32t32 76t-32 76t-76 32zM180 648q74 0 127 -53t53 -127t-53 -127t-127 -53t-127 53t-53 127t53 127t127 53zM576 576q-44 0 -76 -32t-32 -76t32 -76t76 -32t76 32t32 76t-32 76t-76 32zM576 648q74 0 127 -53t53 -127 t-53 -127t-127 -53t-127 53t-53 127t53 127t127 53zM972 576q-44 0 -76 -32t-32 -76t32 -76t76 -32t76 32t32 76t-32 76t-76 32zM972 648q74 0 127 -53t53 -127t-53 -127t-127 -53t-127 53t-53 127t53 127t127 53z" />
<glyph unicode="&#xf0dd;" horiz-adv-x="432" d="M216 936q-38 0 -64 -26t-26 -64t26 -64t64 -26t64 26t26 64t-26 64t-64 26zM216 1008q67 0 114.5 -47.5t47.5 -114.5t-47.5 -114.5t-114.5 -47.5t-114.5 47.5t-47.5 114.5t47.5 114.5t114.5 47.5zM216 594q-38 0 -64 -26t-26 -64t26 -64t64 -26t64 26t26 64t-26 64 t-64 26zM216 666q67 0 114.5 -47.5t47.5 -114.5t-47.5 -114.5t-114.5 -47.5t-114.5 47.5t-47.5 114.5t47.5 114.5t114.5 47.5zM216 252q-38 0 -64 -26t-26 -64t26 -64t64 -26t64 26t26 64t-26 64t-64 26zM216 324q67 0 114.5 -47.5t47.5 -114.5t-47.5 -114.5t-114.5 -47.5 t-114.5 47.5t-47.5 114.5t47.5 114.5t114.5 47.5z" />
<glyph unicode="&#xf0de;" />
<glyph unicode="&#xf0e0;" />
<glyph unicode="&#xf0e1;" />
<glyph unicode="&#xf0e2;" />
<glyph unicode="&#xf0e3;" />
<glyph unicode="&#xf0e4;" />
<glyph unicode="&#xf0e5;" />
<glyph unicode="&#xf0e6;" />
<glyph unicode="&#xf0e7;" />
<glyph unicode="&#xf0e8;" />
<glyph unicode="&#xf0e9;" />
<glyph unicode="&#xf0ea;" />
<glyph unicode="&#xf0eb;" />
<glyph unicode="&#xf0ec;" />
<glyph unicode="&#xf0ed;" />
<glyph unicode="&#xf0ee;" />
<glyph unicode="&#xf0f0;" />
<glyph unicode="&#xf0f1;" />
<glyph unicode="&#xf0f2;" />
<glyph unicode="&#xf0f3;" />
<glyph unicode="&#xf0f4;" />
<glyph unicode="&#xf0f5;" />
<glyph unicode="&#xf0f6;" />
<glyph unicode="&#xf0f7;" />
<glyph unicode="&#xf0f8;" />
<glyph unicode="&#xf0f9;" />
<glyph unicode="&#xf0fa;" />
<glyph unicode="&#xf0fb;" />
<glyph unicode="&#xf0fc;" />
<glyph unicode="&#xf0fd;" />
<glyph unicode="&#xf0fe;" />
<glyph unicode="&#xf100;" />
<glyph unicode="&#xf101;" />
<glyph unicode="&#xf102;" />
<glyph unicode="&#xf103;" />
<glyph unicode="&#xf104;" />
<glyph unicode="&#xf105;" />
<glyph unicode="&#xf106;" />
<glyph unicode="&#xf107;" />
<glyph unicode="&#xf108;" />
<glyph unicode="&#xf109;" />
<glyph unicode="&#xf10a;" />
<glyph unicode="&#xf10b;" />
<glyph unicode="&#xf10c;" />
<glyph unicode="&#xf10d;" />
<glyph unicode="&#xf10e;" />
<glyph unicode="&#xf110;" />
<glyph unicode="&#xf111;" />
<glyph unicode="&#xf112;" />
<glyph unicode="&#xf113;" />
<glyph unicode="&#xf114;" />
<glyph unicode="&#xf115;" />
<glyph unicode="&#xf116;" />
<glyph unicode="&#xf117;" />
<glyph unicode="&#xf118;" />
<glyph unicode="&#xf119;" />
<glyph unicode="&#xf11a;" />
<glyph unicode="&#xf11b;" />
<glyph unicode="&#xf11c;" />
<glyph unicode="&#xf11d;" />
<glyph unicode="&#xf11e;" />
<glyph unicode="&#xf120;" />
<glyph unicode="&#xf121;" />
<glyph unicode="&#xf122;" />
<glyph unicode="&#xf123;" />
<glyph unicode="&#xf124;" />
<glyph unicode="&#xf125;" />
<glyph unicode="&#xf126;" />
<glyph unicode="&#xf127;" />
<glyph unicode="&#xf128;" />
<glyph unicode="&#xf129;" />
<glyph unicode="&#xf12a;" />
<glyph unicode="&#xf12b;" />
<glyph unicode="&#xf12c;" />
<glyph unicode="&#xf12d;" />
<glyph unicode="&#xf12e;" />
<glyph unicode="&#xf130;" />
<glyph unicode="&#xf131;" />
<glyph unicode="&#xf132;" />
<glyph unicode="&#xf133;" />
<glyph unicode="&#xf134;" />
<glyph unicode="&#xf135;" />
<glyph unicode="&#xf136;" />
<glyph unicode="&#xf137;" />
<glyph unicode="&#xf138;" />
<glyph unicode="&#xf139;" />
<glyph unicode="&#xf13a;" />
<glyph unicode="&#xf13b;" />
<glyph unicode="&#xf13c;" />
<glyph unicode="&#xf13d;" />
<glyph unicode="&#xf13e;" />
<glyph unicode="&#xf140;" />
<glyph unicode="&#xf141;" />
<glyph unicode="&#xf142;" />
<glyph unicode="&#xf143;" />
<glyph unicode="&#xf144;" />
<glyph unicode="&#xf145;" />
<glyph unicode="&#xf146;" />
<glyph unicode="&#xf147;" />
<glyph unicode="&#xf148;" />
<glyph unicode="&#xf149;" />
<glyph unicode="&#xf14a;" />
<glyph unicode="&#xf14b;" />
<glyph unicode="&#xf14c;" />
<glyph unicode="&#xf14d;" />
<glyph unicode="&#xf14e;" />
<glyph unicode="&#xf150;" />
<glyph unicode="&#xf151;" />
<glyph unicode="&#xf152;" />
<glyph unicode="&#xf153;" />
<glyph unicode="&#xf154;" />
<glyph unicode="&#xf155;" />
<glyph unicode="&#xf156;" />
<glyph unicode="&#xf157;" />
<glyph unicode="&#xf158;" />
<glyph unicode="&#xf159;" />
<glyph unicode="&#xf15a;" />
<glyph unicode="&#xf15b;" />
<glyph unicode="&#xf15c;" />
<glyph unicode="&#xf15d;" />
<glyph unicode="&#xf15e;" />
<glyph unicode="&#xf160;" />
<glyph unicode="&#xf161;" />
<glyph unicode="&#xf162;" />
<glyph unicode="&#xf163;" />
<glyph unicode="&#xf164;" />
<glyph unicode="&#xf165;" />
<glyph unicode="&#xf166;" />
<glyph unicode="&#xf167;" />
<glyph unicode="&#xf168;" />
<glyph unicode="&#xf169;" />
<glyph unicode="&#xf16a;" />
<glyph unicode="&#xf16b;" />
<glyph unicode="&#xf16c;" />
<glyph unicode="&#xf16d;" />
<glyph unicode="&#xf16e;" />
<glyph unicode="&#xf170;" />
<glyph unicode="&#xf171;" />
<glyph unicode="&#xf172;" />
<glyph unicode="&#xf173;" />
<glyph unicode="&#xf174;" />
<glyph unicode="&#xf175;" />
<glyph unicode="&#xf176;" />
<glyph unicode="&#xf177;" />
<glyph unicode="&#xf178;" />
<glyph unicode="&#xf179;" />
<glyph unicode="&#xf17a;" />
<glyph unicode="&#xf17b;" />
<glyph unicode="&#xf17c;" />
<glyph unicode="&#xf17d;" />
<glyph unicode="&#xf17e;" />
<glyph unicode="&#xf180;" />
<glyph unicode="&#xf181;" />
<glyph unicode="&#xf182;" />
<glyph unicode="&#xf183;" />
<glyph unicode="&#xf184;" />
<glyph unicode="&#xf185;" />
<glyph unicode="&#xf186;" />
<glyph unicode="&#xf187;" />
<glyph unicode="&#xf188;" />
<glyph unicode="&#xf189;" />
<glyph unicode="&#xf18a;" />
<glyph unicode="&#xf18b;" />
<glyph unicode="&#xf18c;" />
<glyph unicode="&#xf18d;" />
<glyph unicode="&#xf18e;" />
<glyph unicode="&#xf190;" />
<glyph unicode="&#xf191;" />
<glyph unicode="&#xf192;" />
<glyph unicode="&#xf193;" />
<glyph unicode="&#xf194;" />
<glyph unicode="&#xf195;" />
<glyph unicode="&#xf196;" />
<glyph unicode="&#xf197;" />
<glyph unicode="&#xf198;" />
<glyph unicode="&#xf199;" />
<glyph unicode="&#xf19a;" />
<glyph unicode="&#xf19b;" />
<glyph unicode="&#xf19c;" />
<glyph unicode="&#xf19d;" />
<glyph unicode="&#xf19e;" />
</font>
</defs>
</svg>
