<?xml version="1.0" encoding="UTF-8"?>
<svg width="241px" height="39px" viewBox="0 0 241 39" version="1.1" xmlns="http://www.w3.org/2000/svg" xmlns:xlink="http://www.w3.org/1999/xlink">
    <!-- Generator: Sketch 46.1 (44463) - http://www.bohemiancoding.com/sketch -->
    <title>Logo</title>
    <desc>Created with Sketch.</desc>
    <defs>
        <rect id="path-1" x="0" y="0" width="39" height="39" rx="2"></rect>
        <rect id="path-2" x="0" y="0" width="39" height="39" rx="5"></rect>
        <polygon id="path-4" points="40.8923602 6.594226 40.8923602 28.4444444 0 28.4444444 0 0.0101925926 40.8923602 0.0101925926 40.8923602 6.594226 0.663452173 6.594226 0.663452173 28.4444402 40.8924056 28.4444402 40.8924056 6.594226"></polygon>
    </defs>
    <g id="Dev-Landing-Page" stroke="none" stroke-width="1" fill="none" fill-rule="evenodd">
        <g id="Docs-Landing-Page-" transform="translate(-30.000000, -30.000000)">
            <g id="Logo" transform="translate(30.000000, 30.000000)">
                <g id="Mark">
                    <g id="Rectangle-29">
                        <use fill="#FFFFFF" fill-rule="evenodd" xlink:href="#path-1"></use>
                        <rect stroke="#1D97D4" stroke-width="2" x="1" y="1" width="37" height="37" rx="2"></rect>
                    </g>
                    <g id="Flow-Lines">
                        <mask id="mask-3" fill="white">
                            <use xlink:href="#path-2"></use>
                        </mask>
                        <g id="Mask"></g>
                        <g id="Page-1" mask="url(#mask-3)">
                            <g transform="translate(-1.000000, 5.000000)">
                                <g id="Group-3" stroke-width="1" fill="none" transform="translate(0.000000, 3.545363)">
                                    <mask id="mask-5" fill="white">
                                        <use xlink:href="#path-4"></use>
                                    </mask>
                                    <g id="Clip-2"></g>
                                    <path d="M1.70047205,28.4370963 C1.93312046,28.4135111 2.1609245,28.3332741 2.33461326,28.1995852 L8.2837487,23.6252444 C8.54605418,23.4238815 8.9807487,23.3943704 9.25357003,23.5594667 L11.7618957,25.0824296 C11.9469274,25.1945481 12.1958813,25.2481185 12.4535787,25.2309333 C12.7115124,25.2141037 12.956449,25.1273481 13.1354548,24.9904593 L21.0434922,18.9431704 C21.3046161,18.7435852 21.7376565,18.7191704 22.0003164,18.8891259 L23.9309793,20.1383111 C24.1177833,20.259437 24.3755988,20.3179852 24.6435758,20.2999704 C24.9119072,20.2817185 25.1648784,20.1891556 25.3445931,20.0438519 L40.6411378,7.66625185 C41.0009216,7.37481481 40.9706738,6.95703704 40.5739072,6.7328 C40.1764317,6.50820741 39.5627314,6.56237037 39.2028294,6.85357037 L25.062083,18.2962963 C24.8117112,18.4990815 24.3803251,18.528 24.1202646,18.3593481 L22.2113424,17.1239111 C22.0279648,17.0052741 21.7761752,16.9466074 21.5133971,16.9615407 C21.2512098,16.976 20.9995383,17.0634667 20.8172242,17.2027259 L12.8889821,23.2657778 C12.6257314,23.4671407 12.1906824,23.4959407 11.9177429,23.3304889 L9.40740865,21.8065778 C9.22166801,21.6939852 8.97235965,21.6406519 8.71418963,21.6577185 C8.45684669,21.6753778 8.21025591,21.7622519 8.03172277,21.8998519 L0.932814986,27.3583407 C0.562278963,27.6431407 0.575630548,28.0622222 0.962944669,28.2948741 C1.16829914,28.4181333 1.43733948,28.463763 1.70047205,28.4370963" id="Fill-1" fill="#1D97D4" mask="url(#mask-5)"></path>
                                </g>
                                <path d="M1.36876196,28.6904889 C1.60141037,28.6669037 1.82921441,28.5865481 2.00290317,28.4527407 L7.95203862,23.8784 C8.21422594,23.6769185 8.64903862,23.6474074 8.92185994,23.8127407 L11.4301856,25.3357037 C11.6152173,25.4482963 11.8641712,25.5016296 12.1218686,25.4842074 C12.3799205,25.4674963 12.6248571,25.3809778 12.8037447,25.2438519 L20.7117821,19.1963259 C20.9729061,18.9967407 21.4059464,18.9720889 21.6686063,19.1424 L23.5992692,20.3918222 C23.7860732,20.5128296 24.0438888,20.5712593 24.3117476,20.5531259 C24.5801971,20.5348741 24.8331683,20.4425481 25.012883,20.2971259 L40.3094277,7.91976296 C40.6692115,7.62832593 40.6389637,7.21054815 40.2421971,6.98642963 C39.8447216,6.7616 39.2310213,6.81576296 38.8711193,7.10696296 L24.7303729,18.5495704 C24.479883,18.7521185 24.048615,18.7811556 23.7885545,18.6127407 L21.8796323,17.3771852 C21.6962548,17.2586667 21.4444651,17.2001185 21.181687,17.2146963 C20.9194997,17.2293926 20.6678282,17.3167407 20.4855141,17.456 L12.557272,23.5191704 C12.2940213,23.7205333 11.8589723,23.7493333 11.5859147,23.5836444 L9.07569856,22.0600889 C8.88995793,21.9474963 8.64064957,21.8938074 8.38247954,21.9112296 C8.1251366,21.9284148 7.87866398,22.016 7.70001268,22.1532444 L0.601104899,27.6113778 C0.230568876,27.8965333 0.243920461,28.3156148 0.631234582,28.5479111 C0.836589049,28.6712889 1.10562939,28.7171556 1.36876196,28.6904889" id="Fill-4" fill="#1D97D4"></path>
                                <path d="M1.03704006,25.3983526 C1.26968847,25.3747674 1.49749251,25.2944119 1.67118127,25.1606044 L7.62031671,20.5867378 C7.88262219,20.3849007 8.31731671,20.3553896 8.59013804,20.52096 L11.0983455,22.0433304 C11.2834954,22.1560415 11.5324493,22.2092563 11.7901467,22.1923081 C12.0481986,22.1754785 12.2931352,22.088723 12.4720228,21.9517156 L20.3800602,15.9046637 C20.6411841,15.7048415 21.0742245,15.6803081 21.3368844,15.8506193 L23.2675473,17.0995674 C23.4543513,17.2208119 23.7121669,17.279123 23.9801438,17.2611081 C24.2484752,17.2429748 24.5015646,17.1507674 24.6812793,17.0052267 L39.9777058,4.62774519 C40.3376078,4.33654519 40.3073599,3.91853037 39.9104752,3.69393778 C39.5129997,3.46958222 38.8992994,3.5238637 38.5393974,3.81494519 L24.3987692,15.2577896 C24.1482793,15.4604563 23.7168931,15.4892563 23.4569507,15.3208415 L21.5479104,14.0854044 C21.3645329,13.9662933 21.1127432,13.9079822 20.8499651,13.922797 C20.5877778,13.9373748 20.3361063,14.024723 20.1537922,14.1641007 L12.2255501,20.2269156 C11.9622994,20.428397 11.5273686,20.4574341 11.254311,20.2919822 L8.74397666,18.7678341 C8.55823602,18.655597 8.30892767,18.6016711 8.05075764,18.6193304 C7.7934147,18.636397 7.54694207,18.7238637 7.36829078,18.8609896 L0.269382997,24.31936 C-0.101153026,24.604397 -0.0878014409,25.0237156 0.29951268,25.2557748 C0.504867147,25.3795081 0.773907493,25.4250193 1.03704006,25.3983526" id="Fill-6" fill="#1D97D4"></path>
                                <path d="M1.03704006,21.842797 C1.26968847,21.8192119 1.49749251,21.7388563 1.67118127,21.6050489 L7.62031671,17.0311822 C7.88262219,16.8293452 8.31731671,16.7998341 8.59013804,16.9654044 L11.0983455,18.4877748 C11.2834954,18.6004859 11.5324493,18.6537007 11.7901467,18.6367526 C12.0481986,18.619923 12.2931352,18.5331674 12.4720228,18.39616 L20.3800602,12.3491081 C20.6411841,12.1492859 21.0742245,12.1247526 21.3368844,12.2950637 L23.2675473,13.5440119 C23.4543513,13.6652563 23.7121669,13.7235674 23.9801438,13.7055526 C24.2484752,13.6874193 24.5015646,13.5952119 24.6812793,13.4496711 L39.9777058,1.07218963 C40.3376078,0.78098963 40.3073599,0.362974815 39.9104752,0.138382222 C39.5129997,-0.0859733333 38.8992994,-0.0316918519 38.5393974,0.25938963 L24.3987692,11.7022341 C24.1482793,11.9049007 23.7168931,11.9337007 23.4569507,11.7652859 L21.5479104,10.5298489 C21.3645329,10.4107378 21.1127432,10.3524267 20.8499651,10.3672415 C20.5877778,10.3818193 20.3361063,10.4691674 20.1537922,10.6085452 L12.2255501,16.67136 C11.9622994,16.8728415 11.5273686,16.9018785 11.254311,16.7364267 L8.74397666,15.2122785 C8.55823602,15.1000415 8.30892767,15.0461156 8.05075764,15.0637748 C7.7934147,15.0808415 7.54694207,15.1683081 7.36829078,15.3054341 L0.269382997,20.7638044 C-0.101153026,21.0488415 -0.0878014409,21.46816 0.29951268,21.7002193 C0.504867147,21.8239526 0.773907493,21.8694637 1.03704006,21.842797" id="Fill-6-Copy" fill="#1D97D4"></path>
                            </g>
                        </g>
                    </g>
                </g>
                <path d="M67.0059037,16.6771978 C67.0059037,17.7486264 66.7573608,18.620879 66.2602748,19.293956 C65.7631887,19.9670331 65.0805706,20.4684066 64.2124205,20.7980769 L67.5940054,26.7115385 L64.128406,26.7115385 L61.0828792,21.2513736 L59.1295413,21.2513736 L59.1295413,26.7115385 L56,26.7115385 L56,12.2884615 L61.3769301,12.2884615 C62.2310779,12.2884615 63.0047116,12.3743133 63.6978315,12.5460165 C64.3909514,12.7177197 64.9825538,12.982143 65.4726385,13.3392857 C65.9627232,13.6964285 66.3407886,14.1497252 66.6068347,14.6991758 C66.8728808,15.2486265 67.0059037,15.9079671 67.0059037,16.6771978 Z M63.7713442,16.6978022 C63.7713442,15.9972527 63.543805,15.5130495 63.0887262,15.2451923 C62.6336473,14.9773352 61.9440282,14.8434066 61.0198683,14.8434066 L59.1295413,14.8434066 L59.1295413,18.7376374 L61.0198683,18.7376374 C61.9440282,18.7376374 62.6336473,18.5831044 63.0887262,18.2740385 C63.543805,17.9649725 63.7713442,17.4395604 63.7713442,16.6978022 Z M77.656746,24.6717033 C77.2506759,25.3997252 76.673076,25.9697802 75.9239463,26.3818681 C75.1748166,26.793956 74.2611586,27 73.1829722,27 C72.3988367,27 71.6882135,26.8798078 71.0511034,26.6394231 C70.4139933,26.3990384 69.8713993,26.055632 69.4233219,25.6092033 C68.9752445,25.1627746 68.6251838,24.6167581 68.3731402,23.9711538 C68.1210966,23.3255496 67.9950748,22.5975274 67.9950748,21.7870879 C67.9950748,20.9903845 68.1210966,20.2692307 68.3731402,19.6236264 C68.6251838,18.9780221 68.9787449,18.4354395 69.4338237,17.9958791 C69.8889025,17.5563188 70.4244952,17.2163463 71.0406016,16.9759615 C71.6567081,16.7355768 72.3358258,16.6153846 73.077954,16.6153846 C73.9180993,16.6153846 74.6497258,16.7561812 75.2728337,17.0377747 C75.8959416,17.3193682 76.4105306,17.6971154 76.8166007,18.1710165 C77.2226708,18.6449176 77.5272235,19.1978021 77.7302587,19.8296703 C77.933294,20.4615386 78.0348114,21.1346153 78.0348114,21.8489011 L78.0348114,22.5700549 L71.0616053,22.5700549 C71.0756078,22.8585165 71.117615,23.1366758 71.187627,23.404533 C71.2576391,23.6723901 71.373159,23.9093407 71.534187,24.1153846 C71.695215,24.3214286 71.9087517,24.4896979 72.1747978,24.6201923 C72.4408439,24.7506867 72.7628995,24.8159341 73.1409649,24.8159341 C73.6730569,24.8159341 74.0861284,24.6957419 74.3801793,24.4553571 C74.6742301,24.2149724 74.898269,23.9436814 75.0522955,23.6414835 L77.656746,24.6717033 Z M73.077954,18.717033 C72.447845,18.717033 71.9682622,18.9059067 71.6392052,19.2836538 C71.3101481,19.661401 71.1246161,20.1593407 71.0826089,20.7774725 L75.0102883,20.7774725 C74.9822835,20.0906594 74.7897501,19.5755496 74.4326884,19.2321429 C74.0756266,18.8887362 73.6240485,18.717033 73.077954,18.717033 Z M85.6191233,26.7115385 C85.5631135,26.6428572 85.5176059,26.4883243 85.4825997,26.2479396 C85.4475935,26.0075548 85.4300906,25.7499999 85.4300906,25.4752747 C85.1360397,25.9423078 84.7579744,26.3131869 84.2958944,26.5879121 C83.8338145,26.8626373 83.2247091,27 82.4685783,27 C81.390392,27 80.5467459,26.7493131 79.9376406,26.2479396 C79.3285352,25.746566 79.0239825,25.0494504 79.0239825,24.1565934 C79.0239825,23.4972527 79.1990127,22.9478021 79.5490734,22.5082418 C79.899134,22.0686814 80.3647143,21.7149725 80.945815,21.4471154 C81.5269156,21.1792582 82.1990318,20.9903845 82.9621637,20.8804945 C83.7252956,20.7706045 84.5199333,20.7156593 85.3460761,20.7156593 L85.3460761,20.0769231 C85.3460761,19.706044 85.2305561,19.4004122 84.9995161,19.1600275 C84.7684762,18.9196428 84.4079137,18.7994505 83.917829,18.7994505 C83.3857371,18.7994505 82.9936692,18.9230769 82.7416256,19.1703297 C82.489582,19.4175824 82.3635602,19.6923076 82.3635602,19.9945055 L79.4860625,19.5618132 C79.5420722,19.0947801 79.6960988,18.6758242 79.9481424,18.3049451 C80.200186,17.9340659 80.529243,17.625 80.9353131,17.3777473 C81.3413833,17.1304945 81.8069639,16.9416208 82.3320547,16.8111264 C82.8571456,16.680632 83.4137418,16.6153846 84.0018436,16.6153846 C84.6039478,16.6153846 85.1675452,16.6840658 85.692636,16.8214286 C86.2177269,16.9587913 86.6763061,17.1785713 87.068374,17.4807692 C87.4604419,17.7829671 87.7649946,18.1675823 87.982032,18.6346154 C88.1990695,19.1016485 88.3075883,19.6648352 88.3075883,20.3241758 L88.3075883,25.331044 C88.3075883,25.6195055 88.328592,25.8804946 88.3705992,26.114011 C88.4126065,26.3475274 88.4686163,26.5467033 88.5386283,26.7115385 L85.6191233,26.7115385 Z M83.2667164,24.8777473 C83.5327625,24.8777473 83.7883065,24.8399726 84.033349,24.7644231 C84.2783915,24.6888735 84.4989297,24.5824177 84.6949635,24.4450549 C84.8909973,24.3076922 85.0485245,24.1394232 85.1675452,23.9402473 C85.2865659,23.7410713 85.3460761,23.5109891 85.3460761,23.25 L85.3460761,22.5082418 C84.8419889,22.5082418 84.379909,22.5288462 83.9598363,22.5700549 C83.5397636,22.6112637 83.1827019,22.6902471 82.888651,22.8070055 C82.5946001,22.9237638 82.3670609,23.0782968 82.2060329,23.2706044 C82.045005,23.462912 81.9644912,23.7032967 81.9644912,23.9917582 C81.9644912,24.2939561 82.090513,24.5171703 82.3425566,24.6614011 C82.5946001,24.8056319 82.9026535,24.8777473 83.2667164,24.8777473 Z M89.9478721,21.8076923 C89.9478721,22.6318681 90.0738939,23.3633242 90.3259375,24.0020604 C90.5779811,24.6407967 90.9280417,25.183379 91.3761191,25.6298077 C91.8241965,26.0762364 92.3667906,26.4162089 93.0039007,26.6497253 C93.6410108,26.8832417 94.3376314,27 95.0937622,27 C95.6958664,27 96.2279583,26.9278846 96.6900383,26.7836538 C97.1521182,26.6394231 97.561689,26.4471155 97.9187508,26.2067308 C98.2758126,25.966346 98.583866,25.6847529 98.8429107,25.3619505 C99.1019554,25.0391482 99.336496,24.6991757 99.5465324,24.342033 L96.7530492,23.3118132 C96.5990226,23.7239011 96.3924867,24.0570056 96.133442,24.3111264 C95.8743973,24.5652471 95.5138348,24.6923077 95.0517549,24.6923077 C94.659687,24.6923077 94.3341307,24.6064559 94.075086,24.4347527 C93.8160413,24.2630496 93.6095053,24.0364012 93.4554788,23.7548077 C93.3014522,23.4732142 93.1929334,23.1607144 93.1299225,22.8173077 C93.0669116,22.473901 93.0354061,22.1373626 93.0354061,21.8076923 C93.0354061,21.4505496 93.0704123,21.1002748 93.1404243,20.7568681 C93.2104363,20.4134614 93.3224559,20.1043955 93.4764824,19.8296703 C93.630509,19.5549452 93.8370449,19.3317307 94.0960896,19.1600275 C94.3551343,18.9883243 94.6666884,18.9024725 95.0307513,18.9024725 C95.4788287,18.9024725 95.8533937,19.0295331 96.1544456,19.2836538 C96.4554976,19.5377746 96.6620335,19.9189559 96.7740528,20.4271978 L99.5045251,19.4381868 C99.336496,19.0398353 99.1299604,18.6689561 98.8849179,18.3255495 C98.6398754,17.9821428 98.3458246,17.683379 98.0027653,17.4292582 C97.6597061,17.1751375 97.2536357,16.9759615 96.7845546,16.8317308 C96.3154736,16.6875 95.7728795,16.6153846 95.1567731,16.6153846 C94.3726375,16.6153846 93.6620144,16.7355768 93.0249043,16.9759615 C92.3877942,17.2163463 91.8416998,17.5597526 91.3866209,18.0061813 C90.9315421,18.45261 90.5779811,18.9986265 90.3259375,19.6442308 C90.0738939,20.2898351 89.9478721,21.0109889 89.9478721,21.8076923 Z M107.466902,26.5673077 L106.731775,24.239011 C106.563746,24.3214286 106.399218,24.400412 106.23819,24.4759615 C106.077162,24.5515111 105.877627,24.5892857 105.639586,24.5892857 C105.387543,24.5892857 105.181007,24.5171703 105.019979,24.3729396 C104.858951,24.2287088 104.778437,23.9093407 104.778437,23.4148352 L104.778437,19.0673077 L106.941812,19.0673077 L106.941812,16.9038462 L104.778437,16.9038462 L104.778437,12.7623626 L101.753914,14.1016484 L101.753914,16.9038462 L100.094627,16.9038462 L100.094627,19.0673077 L101.753914,19.0673077 L101.753914,23.8063187 C101.753914,24.3969781 101.841429,24.8949175 102.01646,25.3001374 C102.19149,25.7053572 102.433032,26.0350276 102.741085,26.2891484 C103.049138,26.5432691 103.413201,26.7252748 103.833274,26.8351648 C104.253347,26.9450548 104.708425,27 105.19851,27 C105.60458,27 106.00715,26.9622254 106.406219,26.8866758 C106.805288,26.8111263 107.158849,26.7046704 107.466902,26.5673077 Z M108.66611,13.7513736 C108.66611,14.2321428 108.823637,14.6373626 109.138692,14.967033 C109.453746,15.2967033 109.898323,15.4615385 110.472422,15.4615385 C111.046521,15.4615385 111.491098,15.2967033 111.806153,14.967033 C112.121207,14.6373626 112.278735,14.2321428 112.278735,13.7513736 C112.278735,13.2293957 112.110706,12.8070056 111.774648,12.4842033 C111.438589,12.161401 111.004514,12 110.472422,12 C109.94033,12 109.506255,12.161401 109.170197,12.4842033 C108.834139,12.8070056 108.66611,13.2293957 108.66611,13.7513736 Z M108.960161,16.9038462 L108.960161,26.7115385 L111.984684,26.7115385 L111.984684,16.9038462 L108.960161,16.9038462 Z M118.601828,16.6153846 C119.385964,16.6153846 120.100087,16.7355768 120.744199,16.9759615 C121.388311,17.2163463 121.937905,17.5597526 122.392984,18.0061813 C122.848063,18.45261 123.201624,18.9986265 123.453668,19.6442308 C123.705711,20.2898351 123.831733,21.0109889 123.831733,21.8076923 C123.831733,22.6181318 123.705711,23.3427198 123.453668,23.981456 C123.201624,24.6201923 122.848063,25.1627746 122.392984,25.6092033 C121.937905,26.055632 121.388311,26.3990384 120.744199,26.6394231 C120.100087,26.8798078 119.385964,27 118.601828,27 C117.817693,27 117.10707,26.8798078 116.46996,26.6394231 C115.83285,26.3990384 115.286755,26.055632 114.831676,25.6092033 C114.376597,25.1627746 114.023036,24.6201923 113.770993,23.981456 C113.518949,23.3427198 113.392927,22.6181318 113.392927,21.8076923 C113.392927,21.0109889 113.518949,20.2898351 113.770993,19.6442308 C114.023036,18.9986265 114.376597,18.45261 114.831676,18.0061813 C115.286755,17.5597526 115.83285,17.2163463 116.46996,16.9759615 C117.10707,16.7355768 117.817693,16.6153846 118.601828,16.6153846 Z M118.601828,24.7747253 C118.979894,24.7747253 119.30545,24.6991757 119.578497,24.5480769 C119.851545,24.3969781 120.075583,24.1875 120.250614,23.9196429 C120.425644,23.6517857 120.555166,23.3358518 120.639181,22.9718407 C120.723195,22.6078296 120.765203,22.2197802 120.765203,21.8076923 C120.765203,21.3956044 120.723195,21.007555 120.639181,20.643544 C120.555166,20.2795329 120.425644,19.9635989 120.250614,19.6957418 C120.075583,19.4278846 119.851545,19.2184065 119.578497,19.0673077 C119.30545,18.9162089 118.979894,18.8406593 118.601828,18.8406593 C118.223763,18.8406593 117.901707,18.9162089 117.635661,19.0673077 C117.369615,19.2184065 117.149077,19.4278846 116.974047,19.6957418 C116.799017,19.9635989 116.669494,20.2795329 116.58548,20.643544 C116.501465,21.007555 116.459458,21.3956044 116.459458,21.8076923 C116.459458,22.2197802 116.501465,22.6078296 116.58548,22.9718407 C116.669494,23.3358518 116.799017,23.6517857 116.974047,23.9196429 C117.149077,24.1875 117.369615,24.3969781 117.635661,24.5480769 C117.901707,24.6991757 118.223763,24.7747253 118.601828,24.7747253 Z M125.339994,16.9038462 L125.339994,26.7115385 L128.364517,26.7115385 L128.364517,21.6634615 C128.364517,21.2101648 128.420527,20.8186813 128.532546,20.489011 C128.644565,20.1593407 128.791591,19.8880493 128.973622,19.6751374 C129.155654,19.4622254 129.36219,19.3042582 129.59323,19.2012363 C129.82427,19.0982143 130.065811,19.0467033 130.317855,19.0467033 C130.75193,19.0467033 131.122994,19.1771977 131.431048,19.4381868 C131.739101,19.6991759 131.893127,20.1662087 131.893127,20.8392857 L131.893127,26.7115385 L134.917651,26.7115385 L134.917651,19.9532967 C134.917651,19.403846 134.826635,18.9196428 134.644603,18.5006868 C134.462572,18.0817309 134.210528,17.7314561 133.888473,17.4498626 C133.566417,17.1682691 133.191852,16.9587913 132.764778,16.8214286 C132.337704,16.6840658 131.879125,16.6153846 131.38904,16.6153846 C130.562897,16.6153846 129.897782,16.7939561 129.393695,17.1510989 C128.889608,17.5082417 128.511543,17.9271979 128.259499,18.407967 L128.259499,16.9038462 L125.339994,16.9038462 Z M140.380596,19.5 C140.380596,20.6813186 140.548625,21.7390111 140.884683,22.6730769 C141.220741,23.6071428 141.696823,24.393544 142.31293,25.0322802 C142.929036,25.6710165 143.678166,26.158654 144.560319,26.4951923 C145.442471,26.8317307 146.422641,27 147.500827,27 C149.111106,27 150.427333,26.6497253 151.44951,25.9491758 C152.471687,25.2486264 153.227818,24.2870878 153.717903,23.0645604 L150.693379,22.0137363 C150.427333,22.8241757 150.038766,23.4285715 149.527678,23.8269231 C149.016589,24.2252746 148.354975,24.4244505 147.542834,24.4244505 C146.884721,24.4244505 146.310621,24.3008242 145.820537,24.0535714 C145.330452,23.8063187 144.924381,23.462912 144.602326,23.0233516 C144.28027,22.5837913 144.038728,22.0652473 143.8777,21.4677198 C143.716673,20.8701923 143.636159,20.2142858 143.636159,19.5 C143.636159,18.7857142 143.716673,18.1263735 143.8777,17.521978 C144.038728,16.9175825 144.28027,16.3990385 144.602326,15.9663462 C144.924381,15.5336538 145.326951,15.1936813 145.810035,14.9464286 C146.293118,14.6991758 146.863717,14.5755495 147.521831,14.5755495 C148.403983,14.5755495 149.097103,14.7987636 149.60119,15.2451923 C150.105278,15.691621 150.483343,16.320055 150.735387,17.1304945 L153.801917,16.0796703 C153.35384,14.7060439 152.597709,13.6826924 151.533525,13.0096154 C150.469341,12.3365384 149.153113,12 147.584842,12 C146.47865,12 145.480978,12.1682693 144.591824,12.5048077 C143.70267,12.841346 142.94654,13.3324177 142.323432,13.978022 C141.700324,14.6236263 141.220741,15.4100275 140.884683,16.3372253 C140.548625,17.2644231 140.380596,18.3186814 140.380596,19.5 Z M159.978986,16.6153846 C160.763121,16.6153846 161.477245,16.7355768 162.121356,16.9759615 C162.765468,17.2163463 163.315062,17.5597526 163.770141,18.0061813 C164.22522,18.45261 164.578781,18.9986265 164.830825,19.6442308 C165.082868,20.2898351 165.20889,21.0109889 165.20889,21.8076923 C165.20889,22.6181318 165.082868,23.3427198 164.830825,23.981456 C164.578781,24.6201923 164.22522,25.1627746 163.770141,25.6092033 C163.315062,26.055632 162.765468,26.3990384 162.121356,26.6394231 C161.477245,26.8798078 160.763121,27 159.978986,27 C159.19485,27 158.484227,26.8798078 157.847117,26.6394231 C157.210007,26.3990384 156.663912,26.055632 156.208833,25.6092033 C155.753755,25.1627746 155.400194,24.6201923 155.14815,23.981456 C154.896106,23.3427198 154.770085,22.6181318 154.770085,21.8076923 C154.770085,21.0109889 154.896106,20.2898351 155.14815,19.6442308 C155.400194,18.9986265 155.753755,18.45261 156.208833,18.0061813 C156.663912,17.5597526 157.210007,17.2163463 157.847117,16.9759615 C158.484227,16.7355768 159.19485,16.6153846 159.978986,16.6153846 Z M159.978986,24.7747253 C160.357051,24.7747253 160.682607,24.6991757 160.955654,24.5480769 C161.228702,24.3969781 161.452741,24.1875 161.627771,23.9196429 C161.802801,23.6517857 161.932323,23.3358518 162.016338,22.9718407 C162.100352,22.6078296 162.14236,22.2197802 162.14236,21.8076923 C162.14236,21.3956044 162.100352,21.007555 162.016338,20.643544 C161.932323,20.2795329 161.802801,19.9635989 161.627771,19.6957418 C161.452741,19.4278846 161.228702,19.2184065 160.955654,19.0673077 C160.682607,18.9162089 160.357051,18.8406593 159.978986,18.8406593 C159.60092,18.8406593 159.278865,18.9162089 159.012818,19.0673077 C158.746772,19.2184065 158.526234,19.4278846 158.351204,19.6957418 C158.176174,19.9635989 158.046651,20.2795329 157.962637,20.643544 C157.878622,21.007555 157.836615,21.3956044 157.836615,21.8076923 C157.836615,22.2197802 157.878622,22.6078296 157.962637,22.9718407 C158.046651,23.3358518 158.176174,23.6517857 158.351204,23.9196429 C158.526234,24.1875 158.746772,24.3969781 159.012818,24.5480769 C159.278865,24.6991757 159.60092,24.7747253 159.978986,24.7747253 Z M166.517116,16.9038462 L166.517116,26.7115385 L169.54164,26.7115385 L169.54164,21.6634615 C169.54164,21.2101648 169.590648,20.8186813 169.688665,20.489011 C169.786682,20.1593407 169.919705,19.8880493 170.087734,19.6751374 C170.255763,19.4622254 170.448297,19.3042582 170.665334,19.2012363 C170.882371,19.0982143 171.10291,19.0467033 171.326948,19.0467033 C171.705014,19.0467033 172.034071,19.1771977 172.314119,19.4381868 C172.594168,19.6991759 172.734192,20.1662087 172.734192,20.8392857 L172.734192,26.7115385 L175.758715,26.7115385 L175.758715,21.6634615 C175.758715,20.7431318 175.940747,20.0769231 176.304809,19.6648352 C176.668872,19.2527473 177.088945,19.0467033 177.565027,19.0467033 C177.943093,19.0467033 178.268649,19.1771977 178.541696,19.4381868 C178.814744,19.6991759 178.951267,20.1593407 178.951267,20.8186813 L178.951267,26.7115385 L181.97579,26.7115385 L181.97579,19.9326923 C181.97579,19.3832417 181.888275,18.9024725 181.713245,18.4903846 C181.538215,18.0782967 181.296673,17.7314561 180.98862,17.4498626 C180.680566,17.1682691 180.327005,16.9587913 179.927936,16.8214286 C179.528867,16.6840658 179.098293,16.6153846 178.636213,16.6153846 C177.880082,16.6153846 177.23247,16.7939561 176.693377,17.1510989 C176.154283,17.5082417 175.737711,17.8997252 175.443661,18.3255495 C175.163612,17.7760988 174.761042,17.3537087 174.235952,17.0583791 C173.710861,16.7630496 173.098255,16.6153846 172.398134,16.6153846 C171.642003,16.6153846 171.018895,16.790522 170.52881,17.1407967 C170.038726,17.4910714 169.674663,17.9065935 169.436621,18.3873626 L169.436621,16.9038462 L166.517116,16.9038462 Z M184.330198,16.9038462 L184.330198,26.7115385 L187.354721,26.7115385 L187.354721,21.6634615 C187.354721,21.2101648 187.403729,20.8186813 187.501746,20.489011 C187.599763,20.1593407 187.732786,19.8880493 187.900815,19.6751374 C188.068844,19.4622254 188.261378,19.3042582 188.478415,19.2012363 C188.695453,19.0982143 188.915991,19.0467033 189.14003,19.0467033 C189.518095,19.0467033 189.847152,19.1771977 190.1272,19.4381868 C190.407249,19.6991759 190.547273,20.1662087 190.547273,20.8392857 L190.547273,26.7115385 L193.571796,26.7115385 L193.571796,21.6634615 C193.571796,20.7431318 193.753828,20.0769231 194.117891,19.6648352 C194.481954,19.2527473 194.902026,19.0467033 195.378109,19.0467033 C195.756174,19.0467033 196.08173,19.1771977 196.354778,19.4381868 C196.627825,19.6991759 196.764348,20.1593407 196.764348,20.8186813 L196.764348,26.7115385 L199.788872,26.7115385 L199.788872,19.9326923 C199.788872,19.3832417 199.701356,18.9024725 199.526326,18.4903846 C199.351296,18.0782967 199.109754,17.7314561 198.801701,17.4498626 C198.493647,17.1682691 198.140086,16.9587913 197.741017,16.8214286 C197.341948,16.6840658 196.911374,16.6153846 196.449294,16.6153846 C195.693163,16.6153846 195.045551,16.7939561 194.506458,17.1510989 C193.967365,17.5082417 193.550793,17.8997252 193.256742,18.3255495 C192.976693,17.7760988 192.574124,17.3537087 192.049033,17.0583791 C191.523942,16.7630496 190.911336,16.6153846 190.211215,16.6153846 C189.455084,16.6153846 188.831976,16.790522 188.341892,17.1407967 C187.851807,17.4910714 187.487744,17.9065935 187.249703,18.3873626 L187.249703,16.9038462 L184.330198,16.9038462 Z M210.974806,24.6717033 C210.568736,25.3997252 209.991136,25.9697802 209.242007,26.3818681 C208.492877,26.793956 207.579219,27 206.501033,27 C205.716897,27 205.006274,26.8798078 204.369164,26.6394231 C203.732054,26.3990384 203.18946,26.055632 202.741382,25.6092033 C202.293305,25.1627746 201.943244,24.6167581 201.691201,23.9711538 C201.439157,23.3255496 201.313135,22.5975274 201.313135,21.7870879 C201.313135,20.9903845 201.439157,20.2692307 201.691201,19.6236264 C201.943244,18.9780221 202.296805,18.4354395 202.751884,17.9958791 C203.206963,17.5563188 203.742556,17.2163463 204.358662,16.9759615 C204.974769,16.7355768 205.653886,16.6153846 206.396014,16.6153846 C207.23616,16.6153846 207.967786,16.7561812 208.590894,17.0377747 C209.214002,17.3193682 209.728591,17.6971154 210.134661,18.1710165 C210.540731,18.6449176 210.845284,19.1978021 211.048319,19.8296703 C211.251354,20.4615386 211.352872,21.1346153 211.352872,21.8489011 L211.352872,22.5700549 L204.379666,22.5700549 C204.393668,22.8585165 204.435675,23.1366758 204.505687,23.404533 C204.575699,23.6723901 204.691219,23.9093407 204.852247,24.1153846 C205.013275,24.3214286 205.226812,24.4896979 205.492858,24.6201923 C205.758904,24.7506867 206.08096,24.8159341 206.459025,24.8159341 C206.991117,24.8159341 207.404189,24.6957419 207.69824,24.4553571 C207.992291,24.2149724 208.216329,23.9436814 208.370356,23.6414835 L210.974806,24.6717033 Z M206.396014,18.717033 C205.765905,18.717033 205.286323,18.9059067 204.957266,19.2836538 C204.628209,19.661401 204.442677,20.1593407 204.400669,20.7774725 L208.328349,20.7774725 C208.300344,20.0906594 208.107811,19.5755496 207.750749,19.2321429 C207.393687,18.8887362 206.942109,18.717033 206.396014,18.717033 Z M219.488279,19.5618132 L220.034374,16.842033 C219.810335,16.745879 219.589797,16.6840658 219.372759,16.6565934 C219.155722,16.629121 218.949186,16.6153846 218.753152,16.6153846 C218.011024,16.6153846 217.401918,16.7733518 216.925836,17.0892857 C216.449753,17.4052197 216.057686,17.8928571 215.749632,18.5521978 L215.749632,16.9038462 L212.914142,16.9038462 L212.914142,26.7115385 L215.938665,26.7115385 L215.938665,22.1373626 C215.938665,21.5741759 216.015678,21.1071429 216.169705,20.7362637 C216.323732,20.3653846 216.516265,20.0666209 216.747305,19.8399725 C216.978345,19.6133242 217.233889,19.455357 217.513938,19.3660714 C217.793986,19.2767858 218.053031,19.2321429 218.291072,19.2321429 C218.487106,19.2321429 218.693642,19.2561814 218.910679,19.3042582 C219.127717,19.3523351 219.32025,19.4381868 219.488279,19.5618132 Z M220.393436,21.8076923 C220.393436,22.6318681 220.519457,23.3633242 220.771501,24.0020604 C221.023545,24.6407967 221.373605,25.183379 221.821683,25.6298077 C222.26976,26.0762364 222.812354,26.4162089 223.449464,26.6497253 C224.086574,26.8832417 224.783195,27 225.539326,27 C226.14143,27 226.673522,26.9278846 227.135602,26.7836538 C227.597682,26.6394231 228.007253,26.4471155 228.364314,26.2067308 C228.721376,25.966346 229.02943,25.6847529 229.288474,25.3619505 C229.547519,25.0391482 229.78206,24.6991757 229.992096,24.342033 L227.198613,23.3118132 C227.044586,23.7239011 226.83805,24.0570056 226.579006,24.3111264 C226.319961,24.5652471 225.959398,24.6923077 225.497318,24.6923077 C225.105251,24.6923077 224.779694,24.6064559 224.52065,24.4347527 C224.261605,24.2630496 224.055069,24.0364012 223.901042,23.7548077 C223.747016,23.4732142 223.638497,23.1607144 223.575486,22.8173077 C223.512475,22.473901 223.48097,22.1373626 223.48097,21.8076923 C223.48097,21.4505496 223.515976,21.1002748 223.585988,20.7568681 C223.656,20.4134614 223.768019,20.1043955 223.922046,19.8296703 C224.076073,19.5549452 224.282608,19.3317307 224.541653,19.1600275 C224.800698,18.9883243 225.112252,18.9024725 225.476315,18.9024725 C225.924392,18.9024725 226.298957,19.0295331 226.600009,19.2836538 C226.901061,19.5377746 227.107597,19.9189559 227.219616,20.4271978 L229.950089,19.4381868 C229.78206,19.0398353 229.575524,18.6689561 229.330481,18.3255495 C229.085439,17.9821428 228.791388,17.683379 228.448329,17.4292582 C228.10527,17.1751375 227.699199,16.9759615 227.230118,16.8317308 C226.761037,16.6875 226.218443,16.6153846 225.602337,16.6153846 C224.818201,16.6153846 224.107578,16.7355768 223.470468,16.9759615 C222.833358,17.2163463 222.287263,17.5597526 221.832184,18.0061813 C221.377106,18.45261 221.023545,18.9986265 220.771501,19.6442308 C220.519457,20.2898351 220.393436,21.0109889 220.393436,21.8076923 Z M240.621935,24.6717033 C240.215864,25.3997252 239.638265,25.9697802 238.889135,26.3818681 C238.140005,26.793956 237.226347,27 236.148161,27 C235.364025,27 234.653402,26.8798078 234.016292,26.6394231 C233.379182,26.3990384 232.836588,26.055632 232.38851,25.6092033 C231.940433,25.1627746 231.590372,24.6167581 231.338329,23.9711538 C231.086285,23.3255496 230.960263,22.5975274 230.960263,21.7870879 C230.960263,20.9903845 231.086285,20.2692307 231.338329,19.6236264 C231.590372,18.9780221 231.943933,18.4354395 232.399012,17.9958791 C232.854091,17.5563188 233.389684,17.2163463 234.00579,16.9759615 C234.621897,16.7355768 235.301014,16.6153846 236.043143,16.6153846 C236.883288,16.6153846 237.614914,16.7561812 238.238022,17.0377747 C238.86113,17.3193682 239.375719,17.6971154 239.781789,18.1710165 C240.187859,18.6449176 240.492412,19.1978021 240.695447,19.8296703 C240.898483,20.4615386 241,21.1346153 241,21.8489011 L241,22.5700549 L234.026794,22.5700549 C234.040796,22.8585165 234.082804,23.1366758 234.152816,23.404533 C234.222828,23.6723901 234.338348,23.9093407 234.499376,24.1153846 C234.660404,24.3214286 234.87394,24.4896979 235.139986,24.6201923 C235.406033,24.7506867 235.728088,24.8159341 236.106153,24.8159341 C236.638245,24.8159341 237.051317,24.6957419 237.345368,24.4553571 C237.639419,24.2149724 237.863458,23.9436814 238.017484,23.6414835 L240.621935,24.6717033 Z M236.043143,18.717033 C235.413034,18.717033 234.933451,18.9059067 234.604394,19.2836538 C234.275337,19.661401 234.089805,20.1593407 234.047797,20.7774725 L237.975477,20.7774725 C237.947472,20.0906594 237.754939,19.5755496 237.397877,19.2321429 C237.040815,18.8887362 236.589237,18.717033 236.043143,18.717033 Z" id="Reaction-Commerce" fill="#151515"></path>
            </g>
        </g>
    </g>
</svg>